<svg xmlns="http://www.w3.org/2000/svg" width="283" height="283" viewBox="0 0 283 283">
<polyline fill="none" stroke="#222" stroke-width="1" points="27.00,211.50 26.00,211.50 25.00,211.50 24.00,211.50 23.00,211.50 22.00,211.50 21.00,211.50 20.50,211.00 20.00,210.50 19.00,210.50 18.50,210.00 18.00,209.50 17.50,209.00 17.00,208.50 16.50,208.00 16.00,207.50 15.50,207.00 15.50,206.00 15.00,205.50 14.50,205.00 14.50,204.00 14.50,203.00 14.50,202.00 14.00,201.50 13.50,201.00 14.00,200.50 14.50,200.00 14.50,199.00 14.50,198.00 15.00,197.50 15.50,197.00 16.00,196.50 17.00,196.50 17.50,196.00 18.00,195.50 19.00,195.50 19.50,195.00 20.00,194.50 21.00,194.50 21.50,194.00 22.00,193.50 22.50,193.00 23.00,192.50 23.50,192.00 24.00,191.50 25.00,191.50 25.50,191.00 26.00,190.50 26.50,190.00 27.00,189.50 27.50,189.00 28.00,188.50 28.50,188.00 29.00,187.50 29.50,187.00 30.00,186.50 30.50,186.00 31.00,185.50 31.50,185.00 32.00,184.50 32.50,184.00 33.00,183.50 33.50,183.00 34.00,182.50 34.50,182.00 34.50,181.00 35.00,180.50 35.50,180.00 36.00,179.50 36.50,179.00 37.00,178.50 37.50,178.00 37.50,177.00 38.00,176.50 38.50,176.00 38.50,175.00 39.00,174.50 39.50,174.00 39.50,173.00 40.00,172.50 40.50,172.00 40.50,171.00 41.00,170.50 41.50,170.00 41.50,169.00 42.00,168.50 42.50,168.00 42.50,167.00 42.50,166.00 43.00,165.50 43.50,165.00 43.50,164.00 43.50,163.00 44.00,162.50 44.50,162.00 44.50,161.00 44.50,160.00 45.00,159.50 45.50,159.00 45.50,158.00 45.50,157.00 45.50,156.00 45.50,155.00 46.00,154.50 46.50,154.00 46.50,153.00 46.50,152.00 46.50,151.00 46.50,150.00 46.50,149.00 46.50,148.00 46.50,147.00 46.50,146.00 46.50,145.00 46.50,144.00 46.50,143.00 46.50,142.00 46.50,141.00 46.50,140.00 46.50,139.00 46.50,138.00 46.50,137.00 46.50,136.00 46.50,135.00 46.50,134.00 46.50,133.00 46.50,132.00 46.50,131.00 46.50,130.00 46.50,129.00 46.50,128.00 46.50,127.00 46.50,126.00 46.50,125.00 46.50,124.00 46.50,123.00 46.50,122.00 46.50,121.00 46.50,120.00 46.50,119.00 46.50,118.00 46.50,117.00 46.50,116.00 46.50,115.00 46.50,114.00 46.50,113.00 46.50,112.00 46.50,111.00 46.50,110.00 46.50,109.00 46.50,108.00 46.50,107.00 46.50,106.00 46.50,105.00 46.50,104.00 46.50,103.00 46.50,102.00 46.50,101.00 46.50,100.00 46.50,99.00 46.50,98.00 46.50,97.00 46.50,96.00 46.50,95.00 46.50,94.00 46.50,93.00 46.50,92.00 46.50,91.00 46.50,90.00 46.50,89.00 47.00,88.50 47.50,88.00 47.50,87.00 47.50,86.00 47.50,85.00 47.50,84.00 48.00,83.50 48.50,83.00 48.50,82.00 49.00,81.50 49.50,81.00 49.50,80.00 50.00,79.50 50.50,79.00 50.50,78.00 51.00,77.50 51.50,77.00 52.00,76.50 52.50,76.00 53.00,75.50 53.50,75.00 54.00,74.50 54.50,74.00 55.00,73.50 55.50,73.00 56.00,72.50 57.00,72.50 57.50,72.00 58.00,71.50 59.00,71.50 59.50,71.00 60.00,70.50 61.00,70.50 62.00,70.50 63.00,70.50 64.00,70.50 65.00,70.50 66.00,70.50 67.00,70.50 68.00,70.50 69.00,70.50 70.00,70.50 71.00,70.50 72.00,70.50 73.00,70.50 74.00,70.50 75.00,70.50 76.00,70.50 77.00,70.50 78.00,70.50 79.00,70.50 80.00,70.50 81.00,70.50 82.00,70.50 83.00,70.50 84.00,70.50 85.00,70.50 86.00,70.50 87.00,70.50 88.00,70.50 89.00,70.50 90.00,70.50 91.00,70.50 92.00,70.50 93.00,70.50 94.00,70.50 95.00,70.50 96.00,70.50 97.00,70.50 98.00,70.50 99.00,70.50 100.00,70.50 101.00,70.50 102.00,70.50 103.00,70.50 104.00,70.50 105.00,70.50 106.00,70.50 107.00,70.50 108.00,70.50 109.00,70.50 110.00,70.50 111.00,70.50 112.00,70.50 113.00,70.50 114.00,70.50 115.00,70.50 116.00,70.50 117.00,70.50 118.00,70.50 119.00,70.50 120.00,70.50 121.00,70.50 122.00,70.50 123.00,70.50 124.00,70.50 125.00,70.50 126.00,70.50 127.00,70.50 128.00,70.50 129.00,70.50 130.00,70.50 131.00,70.50 132.00,70.50 133.00,70.50 134.00,70.50 135.00,70.50 136.00,70.50 137.00,70.50 138.00,70.50 139.00,70.50 140.00,70.50 141.00,70.50 142.00,70.50 143.00,70.50 144.00,70.50 145.00,70.50 146.00,70.50 147.00,70.50 148.00,70.50 149.00,70.50 150.00,70.50 151.00,70.50 152.00,70.50 153.00,70.50 154.00,70.50 155.00,70.50 156.00,70.50 157.00,70.50 158.00,70.50 159.00,70.50 160.00,70.50 161.00,70.50 162.00,70.50 163.00,70.50 164.00,70.50 165.00,70.50 166.00,70.50 167.00,70.50 168.00,70.50 169.00,70.50 170.00,70.50 171.00,70.50 172.00,70.50 173.00,70.50 174.00,70.50 175.00,70.50 176.00,70.50 177.00,70.50 178.00,70.50 179.00,70.50 180.00,70.50 181.00,70.50 182.00,70.50 183.00,70.50 184.00,70.50 185.00,70.50 186.00,70.50 187.00,70.50 188.00,70.50 189.00,70.50 190.00,70.50 191.00,70.50 192.00,70.50 193.00,70.50 194.00,70.50 195.00,70.50 196.00,70.50 196.50,71.00 197.00,71.50 198.00,71.50 198.50,72.00 199.00,72.50 200.00,72.50 200.50,73.00 201.00,73.50 202.00,73.50 202.50,74.00 203.00,74.50 203.50,75.00 204.00,75.50 204.50,76.00 205.00,76.50 205.50,77.00 206.00,77.50 206.50,78.00 207.00,78.50 207.50,79.00 208.00,79.50 208.50,80.00 208.50,81.00 209.00,81.50 209.50,82.00 210.00,82.50 210.50,83.00 210.50,84.00 210.50,85.00 211.00,85.50 211.50,86.00 211.50,87.00 212.00,87.50 212.50,88.00 212.50,89.00 212.50,90.00 212.50,91.00 212.50,92.00 212.50,93.00 212.50,94.00 212.50,95.00 212.50,96.00 212.50,97.00 212.50,98.00 212.50,99.00 212.50,100.00 212.50,101.00 212.50,102.00 212.50,103.00 212.50,104.00 212.50,105.00 212.50,106.00 212.50,107.00 212.50,108.00 212.50,109.00 212.50,110.00 212.50,111.00 212.50,112.00 212.50,113.00 212.50,114.00 212.50,115.00 212.50,116.00 212.50,117.00 212.50,118.00 212.50,119.00 212.50,120.00 212.50,121.00 212.50,122.00 212.50,123.00 212.50,124.00 212.50,125.00 212.50,126.00 212.50,127.00 212.50,128.00 212.50,129.00 212.50,130.00 212.50,131.00 212.50,132.00 212.50,133.00 212.50,134.00 212.50,135.00 212.50,136.00 212.50,137.00 212.50,138.00 212.50,139.00 212.50,140.00 212.50,141.00 212.50,142.00 212.50,143.00 212.50,144.00 212.50,145.00 212.50,146.00 212.50,147.00 212.50,148.00 212.50,149.00 212.50,150.00 212.50,151.00 212.50,152.00 212.50,153.00 212.50,154.00 212.50,155.00 212.50,156.00 212.50,157.00 212.50,158.00 212.50,159.00 212.50,160.00 212.50,161.00 212.50,162.00 212.50,163.00 212.50,164.00 212.50,165.00 212.50,166.00 212.50,167.00 212.50,168.00 212.50,169.00 212.50,170.00 212.50,171.00 212.50,172.00 212.50,173.00 212.50,174.00 212.50,175.00 212.50,176.00 213.00,176.50 213.50,177.00 213.50,178.00 213.50,179.00 213.50,180.00 214.00,180.50 214.50,181.00 214.50,182.00 215.00,182.50 215.50,183.00 215.50,184.00 216.00,184.50 217.00,184.50 217.50,185.00 218.00,185.50 218.50,186.00 219.00,186.50 220.00,186.50 221.00,186.50 221.50,187.00 222.00,187.50 223.00,187.50 224.00,187.50 225.00,187.50 226.00,187.50 227.00,187.50 228.00,187.50 229.00,187.50 230.00,187.50 231.00,187.50 232.00,187.50 233.00,187.50 234.00,187.50 235.00,187.50 236.00,187.50 237.00,187.50 238.00,187.50 239.00,187.50 240.00,187.50 241.00,187.50 242.00,187.50 243.00,187.50 244.00,187.50 245.00,187.50 246.00,187.50 247.00,187.50 248.00,187.50 249.00,187.50 250.00,187.50 251.00,187.50 252.00,187.50 253.00,187.50 254.00,187.50 255.00,187.50 256.00,187.50 257.00,187.50 258.00,187.50 259.00,187.50 260.00,187.50 261.00,187.50 262.00,187.50 263.00,187.50 264.00,187.50 265.00,187.50 266.00,187.50 267.00,187.50 267.50,188.00 268.00,188.50 268.50,189.00 269.00,189.50 270.00,189.50 270.50,190.00 270.50,191.00 271.00,191.50 271.50,192.00 272.00,192.50 272.50,193.00 272.50,194.00 273.00,194.50 273.50,195.00 273.50,196.00 273.50,197.00 273.50,198.00 273.50,199.00 273.50,200.00 273.50,201.00 273.50,202.00 273.00,202.50 272.50,203.00 272.50,204.00 272.00,204.50 271.50,205.00 271.50,206.00 271.00,206.50 270.50,207.00 270.00,207.50 269.50,208.00 269.00,208.50 268.50,209.00 268.00,209.50 267.00,209.50 266.00,209.50 265.50,210.00 265.00,210.50 264.00,210.50 263.00,210.50 262.00,210.50 261.00,210.50 260.00,210.50 259.00,210.50 258.00,210.50 257.00,210.50 256.00,210.50 255.00,210.50 254.00,210.50 253.00,210.50 252.00,210.50 251.00,210.50 250.00,210.50 249.00,210.50 248.00,210.50 247.00,210.50 246.00,210.50 245.00,210.50 244.00,210.50 243.00,210.50 242.00,210.50 241.00,210.50 240.00,210.50 239.00,210.50 238.00,210.50 237.00,210.50 236.00,210.50 235.00,210.50 234.00,210.50 233.00,210.50 232.00,210.50 231.00,210.50 230.00,210.50 229.00,210.50 228.00,210.50 227.00,210.50 226.00,210.50 225.00,210.50 224.00,210.50 223.00,210.50 222.00,210.50 221.00,210.50 220.00,210.50 219.00,210.50 218.00,210.50 217.00,210.50 216.00,210.50 215.00,210.50 214.00,210.50 213.00,210.50 212.00,210.50 211.00,210.50 210.00,210.50 209.00,210.50 208.00,210.50 207.00,210.50 206.00,210.50 205.00,210.50 204.00,210.50 203.50,210.00 203.00,209.50 202.00,209.50 201.00,209.50 200.00,209.50 199.00,209.50 198.50,209.00 198.00,208.50 197.00,208.50 196.00,208.50 195.50,208.00 195.00,207.50 194.00,207.50 193.50,207.00 193.00,206.50 192.00,206.50 191.50,206.00 191.00,205.50 190.50,205.00 190.00,204.50 189.00,204.50 188.50,204.00 188.00,203.50 187.50,203.00 187.00,202.50 186.50,202.00 186.00,201.50 185.50,201.00 185.00,200.50 184.50,200.00 184.00,199.50 183.50,199.00 183.00,198.50 182.50,198.00 182.00,197.50 181.50,197.00 181.00,196.50 180.50,196.00 180.50,195.00 180.00,194.50 179.50,194.00 179.00,193.50 178.50,193.00 178.50,192.00 178.00,191.50 177.50,191.00 177.50,190.00 177.00,189.50 176.50,189.00 176.50,188.00 176.00,187.50 175.50,187.00 175.50,186.00 175.50,185.00 175.00,184.50 174.50,184.00 174.50,183.00 174.50,182.00 174.50,181.00 174.00,180.50 173.50,180.00 173.50,179.00 173.50,178.00 173.50,177.00 173.50,176.00 173.50,175.00 173.00,174.50 172.50,174.00 173.00,173.50 173.50,173.00 173.00,172.50 172.50,172.00 172.50,171.00 172.50,170.00 172.50,169.00 172.50,168.00 172.50,167.00 172.50,166.00 172.50,165.00 172.50,164.00 172.50,163.00 172.50,162.00 172.50,161.00 172.50,160.00 172.50,159.00 172.50,158.00 172.50,157.00 172.50,156.00 172.50,155.00 172.50,154.00 172.50,153.00 172.50,152.00 172.50,151.00 172.50,150.00 172.50,149.00 172.50,148.00 172.50,147.00 172.50,146.00 172.50,145.00 172.50,144.00 172.50,143.00 172.50,142.00 172.50,141.00 172.50,140.00 172.50,139.00 172.50,138.00 172.50,137.00 172.50,136.00 172.50,135.00 172.50,134.00 172.50,133.00 172.50,132.00 172.50,131.00 172.50,130.00 172.50,129.00 172.50,128.00 172.50,127.00 172.50,126.00 172.50,125.00 172.50,124.00 172.50,123.00 172.50,122.00 172.50,121.00 172.50,120.00 172.50,119.00 172.50,118.00 172.50,117.00 172.50,116.00 172.50,115.00 172.50,114.00 172.50,113.00 172.50,112.00 172.50,111.00 172.50,110.00 172.50,109.00 172.50,108.00 172.50,107.00 172.50,106.00 172.50,105.00 172.50,104.00 172.50,103.00 172.50,102.00 172.50,101.00 172.50,100.00 172.50,99.00 172.50,98.00 172.50,97.00 172.50,96.00 172.50,95.00 172.00,94.50 171.50,94.00 171.00,93.50 170.00,93.50 169.00,93.50 168.00,93.50 167.00,93.50 166.00,93.50 165.00,93.50 164.00,93.50 163.00,93.50 162.00,93.50 161.00,93.50 160.00,93.50 159.00,93.50 158.00,93.50 157.00,93.50 156.00,93.50 155.00,93.50 154.00,93.50 153.00,93.50 152.00,93.50 151.00,93.50 150.00,93.50 149.00,93.50 148.00,93.50 147.00,93.50 146.00,93.50 145.00,93.50 144.00,93.50 143.00,93.50 142.00,93.50 141.00,93.50 140.00,93.50 139.00,93.50 138.00,93.50 137.00,93.50 136.00,93.50 135.00,93.50 134.00,93.50 133.00,93.50 132.00,93.50 131.00,93.50 130.00,93.50 129.00,93.50 128.00,93.50 127.00,93.50 126.00,93.50 125.00,93.50 124.00,93.50 123.00,93.50 122.00,93.50 121.00,93.50 120.00,93.50 119.00,93.50 118.00,93.50 117.00,93.50 116.00,93.50 115.00,93.50 114.00,93.50 113.00,93.50 112.00,93.50 111.00,93.50 110.00,93.50 109.00,93.50 108.00,93.50 107.00,93.50 106.00,93.50 105.00,93.50 104.00,93.50 103.00,93.50 102.00,93.50 101.00,93.50 100.00,93.50 99.00,93.50 98.00,93.50 97.00,93.50 96.00,93.50 95.00,93.50 94.00,93.50 93.00,93.50 92.00,93.50 91.00,93.50 90.00,93.50 89.00,93.50 88.00,93.50 87.00,93.50 86.00,93.50 85.00,93.50 84.00,93.50 83.50,94.00 83.00,94.50 82.50,95.00 82.50,96.00 82.00,96.50 81.50,97.00 82.00,97.50 82.50,98.00 82.00,98.50 81.50,99.00 81.50,100.00 82.00,100.50 82.50,101.00 82.00,101.50 81.50,102.00 81.50,103.00 81.50,104.00 82.00,104.50 82.50,105.00 82.00,105.50 81.50,106.00 81.50,107.00 81.50,108.00 81.50,109.00 81.50,110.00 81.50,111.00 81.50,112.00 81.50,113.00 81.50,114.00 81.50,115.00 81.50,116.00 82.00,116.50 82.50,117.00 82.00,117.50 81.50,118.00 81.50,119.00 81.50,120.00 81.50,121.00 81.50,122.00 81.50,123.00 81.50,124.00 81.50,125.00 81.50,126.00 81.50,127.00 81.50,128.00 82.00,128.50 82.50,129.00 82.50,130.00 82.00,130.50 81.50,131.00 81.50,132.00 82.00,132.50 82.50,133.00 82.00,133.50 81.50,134.00 81.50,135.00 81.50,136.00 81.50,137.00 81.50,138.00 81.50,139.00 81.50,140.00 81.50,141.00 81.00,141.50 80.50,142.00 80.50,143.00 80.50,144.00 80.50,145.00 80.50,146.00 80.50,147.00 80.50,148.00 80.00,148.50 79.50,149.00 79.50,150.00 79.50,151.00 79.50,152.00 79.00,152.50 78.50,153.00 78.50,154.00 78.50,155.00 78.50,156.00 78.00,156.50 77.50,157.00 77.50,158.00 77.50,159.00 77.00,159.50 76.50,160.00 76.50,161.00 76.50,162.00 76.00,162.50 75.50,163.00 75.50,164.00 75.00,164.50 74.50,165.00 74.50,166.00 74.00,166.50 73.50,167.00 73.50,168.00 73.50,169.00 73.00,169.50 72.50,170.00 72.00,170.50 71.50,171.00 71.50,172.00 71.50,173.00 71.00,173.50 70.50,174.00 70.00,174.50 69.50,175.00 69.50,176.00 69.00,176.50 68.50,177.00 68.50,178.00 68.00,178.50 67.50,179.00 67.00,179.50 66.50,180.00 66.50,181.00 66.00,181.50 65.50,182.00 65.00,182.50 64.50,183.00 64.00,183.50 63.50,184.00 63.50,185.00 63.00,185.50 62.50,186.00 62.00,186.50 61.50,187.00 61.00,187.50 60.50,188.00 60.00,188.50 59.50,189.00 59.00,189.50 58.50,190.00 58.00,190.50 57.50,191.00 57.00,191.50 56.50,192.00 56.00,192.50 55.50,193.00 55.00,193.50 54.50,194.00 54.00,194.50 53.50,195.00 53.00,195.50 52.50,196.00 52.00,196.50 51.50,197.00 51.00,197.50 50.50,198.00 50.00,198.50 49.00,198.50 48.50,199.00 48.00,199.50 47.50,200.00 47.00,200.50 46.50,201.00 46.00,201.50 45.00,201.50 44.50,202.00 44.00,202.50 43.00,202.50 42.50,203.00 42.00,203.50 41.50,204.00 41.00,204.50 40.00,204.50 39.50,205.00 39.00,205.50 38.00,205.50 37.50,206.00 37.00,206.50 36.00,206.50 35.50,207.00 35.00,207.50 34.00,207.50 33.50,208.00 33.00,208.50 32.00,208.50 31.50,209.00 31.00,209.50 30.00,209.50 29.50,210.00 29.00,210.50 28.00,210.50 27.50,211.00 27.00,211.50" />
<polyline fill="none" stroke="#00aa00" stroke-width="1" stroke-dasharray="3,2" points="183.00,82.50 182.00,82.50 181.00,82.50 180.00,82.50 179.00,82.50 178.00,82.50 177.00,82.50 176.00,82.50 175.00,82.50 174.00,82.50 173.00,82.50 172.00,82.50 171.00,82.50 170.00,82.50 169.00,82.50 168.00,82.50 167.00,82.50 166.00,82.50 165.00,82.50 164.00,82.50 163.00,82.50 162.00,82.50 161.00,82.50 160.00,82.50 159.00,82.50 158.00,82.50 157.00,82.50 156.00,82.50 155.00,82.50 154.00,82.50 153.00,82.50 152.00,82.50 151.00,82.50 150.00,82.50 149.00,82.50 148.00,82.50 147.00,82.50 146.00,82.50 145.00,82.50 144.00,82.50 143.00,82.50 142.00,82.50 141.00,82.50 140.00,82.50 139.00,82.50 138.00,82.50 137.00,82.50 136.00,82.50 135.00,82.50 134.00,82.50 133.00,82.50 132.00,82.50 131.00,82.50 130.00,82.50 129.00,82.50 128.00,82.50 127.00,82.50 126.00,82.50 125.00,82.50 124.00,82.50 123.00,82.50 122.00,82.50 121.00,82.50 120.00,82.50 119.00,82.50 118.00,82.50 117.00,82.50 116.00,82.50 115.00,82.50 114.00,82.50 113.00,82.50 112.00,82.50 111.00,82.50 110.00,82.50 109.00,82.50 108.00,82.50 107.00,82.50 106.00,82.50 105.00,82.50 104.00,82.50 103.00,82.50 102.00,82.50 101.00,82.50 100.00,82.50 99.00,82.50 98.00,82.50 97.00,82.50 96.00,82.50 95.00,82.50 94.00,82.50 93.00,82.50 92.00,82.50 91.00,82.50 90.00,82.50 89.00,82.50 88.00,82.50 87.00,82.50 86.00,82.50 85.00,82.50 84.00,82.50 83.00,82.50 82.00,82.50 81.00,82.50 80.00,82.50 79.00,82.50 78.00,82.50 77.00,82.50 76.00,82.50 75.00,82.50 74.00,82.50 73.00,82.50 72.00,82.50 71.50,82.00 72.00,81.50 73.00,81.50 74.00,81.50 75.00,81.50 76.00,81.50 77.00,81.50 78.00,81.50 79.00,81.50 80.00,81.50 81.00,81.50 82.00,81.50 83.00,81.50 84.00,81.50 85.00,81.50 86.00,81.50 87.00,81.50 88.00,81.50 89.00,81.50 90.00,81.50 91.00,81.50 92.00,81.50 93.00,81.50 94.00,81.50 95.00,81.50 96.00,81.50 97.00,81.50 98.00,81.50 99.00,81.50 100.00,81.50 101.00,81.50 102.00,81.50 103.00,81.50 104.00,81.50 105.00,81.50 106.00,81.50 107.00,81.50 108.00,81.50 109.00,81.50 110.00,81.50 111.00,81.50 112.00,81.50 113.00,81.50 114.00,81.50 115.00,81.50 116.00,81.50 117.00,81.50 118.00,81.50 119.00,81.50 120.00,81.50 121.00,81.50 122.00,81.50 123.00,81.50 124.00,81.50 125.00,81.50 126.00,81.50 127.00,81.50 128.00,81.50 129.00,81.50 130.00,81.50 131.00,81.50 132.00,81.50 133.00,81.50 134.00,81.50 135.00,81.50 136.00,81.50 137.00,81.50 138.00,81.50 139.00,81.50 140.00,81.50 141.00,81.50 142.00,81.50 143.00,81.50 144.00,81.50 145.00,81.50 146.00,81.50 147.00,81.50 148.00,81.50 149.00,81.50 150.00,81.50 151.00,81.50 152.00,81.50 153.00,81.50 154.00,81.50 155.00,81.50 156.00,81.50 157.00,81.50 158.00,81.50 159.00,81.50 160.00,81.50 161.00,81.50 162.00,81.50 163.00,81.50 164.00,81.50 165.00,81.50 166.00,81.50 167.00,81.50 168.00,81.50 169.00,81.50 170.00,81.50 171.00,81.50 172.00,81.50 173.00,81.50 174.00,81.50 175.00,81.50 176.00,81.50 177.00,81.50 178.00,81.50 179.00,81.50 180.00,81.50 181.00,81.50 182.00,81.50 183.00,81.50 183.50,82.00 183.00,82.50" />
<polyline fill="none" stroke="#00aa00" stroke-width="1" stroke-dasharray="3,2" points="71.00,83.50 70.50,83.00 71.00,82.50 71.50,83.00 71.00,83.50" />
<polyline fill="none" stroke="#00aa00" stroke-width="1" stroke-dasharray="3,2" points="184.00,83.50 183.50,83.00 184.00,82.50 184.50,83.00 184.00,83.50" />
<polyline fill="none" stroke="#00aa00" stroke-width="1" stroke-dasharray="3,2" points="70.00,85.50 69.50,85.00 69.50,84.00 70.00,83.50 70.50,84.00 70.50,85.00 70.00,85.50" />
<polyline fill="none" stroke="#00aa00" stroke-width="1" stroke-dasharray="3,2" points="185.00,85.50 184.50,85.00 184.50,84.00 185.00,83.50 185.50,84.00 185.50,85.00 185.00,85.50" />
<polyline fill="none" stroke="#00aa00" stroke-width="1" stroke-dasharray="3,2" points="69.00,86.50 68.50,86.00 69.00,85.50 69.50,86.00 69.00,86.50" />
<polyline fill="none" stroke="#00aa00" stroke-width="1" stroke-dasharray="3,2" points="186.00,87.50 185.50,87.00 185.50,86.00 186.00,85.50 186.50,86.00 186.50,87.00 186.00,87.50" />
<polyline fill="none" stroke="#00aa00" stroke-width="1" stroke-dasharray="3,2" points="68.00,88.50 67.50,88.00 67.50,87.00 68.00,86.50 68.50,87.00 68.50,88.00 68.00,88.50" />
<polyline fill="none" stroke="#00aa00" stroke-width="1" stroke-dasharray="3,2" points="187.00,89.50 186.50,89.00 186.50,88.00 187.00,87.50 187.50,88.00 187.50,89.00 187.00,89.50" />
<polyline fill="none" stroke="#00aa00" stroke-width="1" stroke-dasharray="3,2" points="67.00,91.50 66.50,91.00 66.50,90.00 66.50,89.00 67.00,88.50 67.50,89.00 67.50,90.00 67.50,91.00 67.00,91.50" />
<polyline fill="none" stroke="#00aa00" stroke-width="1" stroke-dasharray="3,2" points="188.00,92.50 187.50,92.00 187.50,91.00 187.50,90.00 188.00,89.50 188.50,90.00 188.50,91.00 188.50,92.00 188.00,92.50" />
<polyline fill="none" stroke="#00aa00" stroke-width="1" stroke-dasharray="3,2" points="66.00,95.50 65.50,95.00 65.50,94.00 65.50,93.00 65.50,92.00 66.00,91.50 66.50,92.00 66.50,93.00 66.50,94.00 66.50,95.00 66.00,95.50" />
<polyline fill="none" stroke="#00aa00" stroke-width="1" stroke-dasharray="3,2" points="189.00,95.50 188.50,95.00 188.50,94.00 188.50,93.00 189.00,92.50 189.50,93.00 189.50,94.00 189.50,95.00 189.00,95.50" />
<polyline fill="none" stroke="#00aa00" stroke-width="1" stroke-dasharray="3,2" points="65.00,100.50 64.50,100.00 64.50,99.00 64.50,98.00 64.50,97.00 64.50,96.00 65.00,95.50 65.50,96.00 65.50,97.00 65.50,98.00 65.50,99.00 65.50,100.00 65.00,100.50" />
<polyline fill="none" stroke="#00aa00" stroke-width="1" stroke-dasharray="3,2" points="190.00,99.50 189.50,99.00 189.50,98.00 189.50,97.00 189.50,96.00 190.00,95.50 190.50,96.00 190.50,97.00 190.50,98.00 190.50,99.00 190.00,99.50" />
<polyline fill="none" stroke="#00aa00" stroke-width="1" stroke-dasharray="3,2" points="191.00,104.50 190.50,104.00 190.50,103.00 190.50,102.00 190.50,101.00 190.50,100.00 191.00,99.50 191.50,100.00 191.50,101.00 191.50,102.00 191.50,103.00 191.50,104.00 191.00,104.50" />
<polyline fill="none" stroke="#00aa00" stroke-width="1" stroke-dasharray="3,2" points="64.00,124.50 63.50,124.00 63.50,123.00 63.50,122.00 63.50,121.00 63.50,120.00 63.50,119.00 63.50,118.00 63.50,117.00 63.50,116.00 63.50,115.00 63.50,114.00 63.50,113.00 63.50,112.00 63.50,111.00 63.50,110.00 63.50,109.00 63.50,108.00 63.50,107.00 63.50,106.00 63.50,105.00 63.50,104.00 63.50,103.00 63.50,102.00 63.50,101.00 64.00,100.50 64.50,101.00 64.50,102.00 64.50,103.00 64.50,104.00 64.50,105.00 64.50,106.00 64.50,107.00 64.50,108.00 64.50,109.00 64.50,110.00 64.50,111.00 64.50,112.00 64.50,113.00 64.50,114.00 64.50,115.00 64.50,116.00 64.50,117.00 64.50,118.00 64.50,119.00 64.50,120.00 64.50,121.00 64.50,122.00 64.50,123.00 64.50,124.00 64.00,124.50" />
<polyline fill="none" stroke="#00aa00" stroke-width="1" stroke-dasharray="3,2" points="192.00,152.50 191.50,152.00 191.50,151.00 191.50,150.00 191.50,149.00 191.50,148.00 191.50,147.00 191.50,146.00 191.50,145.00 191.50,144.00 191.50,143.00 191.50,142.00 191.50,141.00 191.50,140.00 191.50,139.00 191.50,138.00 191.50,137.00 191.50,136.00 191.50,135.00 191.50,134.00 191.50,133.00 191.50,132.00 191.50,131.00 191.50,130.00 191.50,129.00 191.50,128.00 191.50,127.00 191.50,126.00 191.50,125.00 191.50,124.00 191.50,123.00 191.50,122.00 191.50,121.00 191.50,120.00 191.50,119.00 191.50,118.00 191.50,117.00 191.50,116.00 191.50,115.00 191.50,114.00 191.50,113.00 191.50,112.00 191.50,111.00 191.50,110.00 191.50,109.00 191.50,108.00 191.50,107.00 191.50,106.00 191.50,105.00 192.00,104.50 192.50,105.00 192.50,106.00 192.50,107.00 192.50,108.00 192.50,109.00 192.50,110.00 192.50,111.00 192.50,112.00 192.50,113.00 192.50,114.00 192.50,115.00 192.50,116.00 192.50,117.00 192.50,118.00 192.50,119.00 192.50,120.00 192.50,121.00 192.50,122.00 192.50,123.00 192.50,124.00 192.50,125.00 192.50,126.00 192.50,127.00 192.50,128.00 192.50,129.00 192.50,130.00 192.50,131.00 192.50,132.00 192.50,133.00 192.50,134.00 192.50,135.00 192.50,136.00 192.50,137.00 192.50,138.00 192.50,139.00 192.50,140.00 192.50,141.00 192.50,142.00 192.50,143.00 192.50,144.00 192.50,145.00 192.50,146.00 192.50,147.00 192.50,148.00 192.50,149.00 192.50,150.00 192.50,151.00 192.50,152.00 192.00,152.50" />
<polyline fill="none" stroke="#00aa00" stroke-width="1" stroke-dasharray="3,2" points="124.00,110.50 123.00,110.50 122.00,110.50 121.00,110.50 120.00,110.50 119.00,110.50 118.00,110.50 117.00,110.50 116.00,110.50 115.00,110.50 114.00,110.50 113.00,110.50 112.00,110.50 111.00,110.50 110.00,110.50 109.00,110.50 108.00,110.50 107.00,110.50 106.00,110.50 105.00,110.50 104.00,110.50 103.00,110.50 102.00,110.50 101.00,110.50 100.00,110.50 99.00,110.50 98.00,110.50 97.50,110.00 98.00,109.50 99.00,109.50 100.00,109.50 101.00,109.50 102.00,109.50 103.00,109.50 104.00,109.50 105.00,109.50 106.00,109.50 107.00,109.50 108.00,109.50 109.00,109.50 110.00,109.50 111.00,109.50 112.00,109.50 113.00,109.50 114.00,109.50 115.00,109.50 116.00,109.50 117.00,109.50 118.00,109.50 119.00,109.50 120.00,109.50 121.00,109.50 122.00,109.50 123.00,109.50 124.00,109.50 124.50,110.00 124.00,110.50" />
<polyline fill="none" stroke="#00aa00" stroke-width="1" stroke-dasharray="3,2" points="155.00,110.50 154.00,110.50 153.00,110.50 152.00,110.50 151.00,110.50 150.00,110.50 149.00,110.50 148.00,110.50 147.00,110.50 146.00,110.50 145.00,110.50 144.00,110.50 143.00,110.50 142.00,110.50 141.00,110.50 140.00,110.50 139.00,110.50 138.00,110.50 137.00,110.50 136.00,110.50 135.00,110.50 134.00,110.50 133.00,110.50 132.00,110.50 131.50,110.00 132.00,109.50 133.00,109.50 134.00,109.50 135.00,109.50 136.00,109.50 137.00,109.50 138.00,109.50 139.00,109.50 140.00,109.50 141.00,109.50 142.00,109.50 143.00,109.50 144.00,109.50 145.00,109.50 146.00,109.50 147.00,109.50 148.00,109.50 149.00,109.50 150.00,109.50 151.00,109.50 152.00,109.50 153.00,109.50 154.00,109.50 155.00,109.50 155.50,110.00 155.00,110.50" />
<polyline fill="none" stroke="#00aa00" stroke-width="1" stroke-dasharray="3,2" points="125.00,111.50 124.50,111.00 125.00,110.50 125.50,111.00 125.00,111.50" />
<polyline fill="none" stroke="#00aa00" stroke-width="1" stroke-dasharray="3,2" points="131.00,111.50 130.50,111.00 131.00,110.50 131.50,111.00 131.00,111.50" />
<polyline fill="none" stroke="#00aa00" stroke-width="1" stroke-dasharray="3,2" points="126.00,112.50 125.50,112.00 126.00,111.50 126.50,112.00 126.00,112.50" />
<polyline fill="none" stroke="#00aa00" stroke-width="1" stroke-dasharray="3,2" points="130.00,112.50 129.50,112.00 130.00,111.50 130.50,112.00 130.00,112.50" />
<polyline fill="none" stroke="#00aa00" stroke-width="1" stroke-dasharray="3,2" points="127.00,130.50 126.50,130.00 126.50,129.00 127.00,128.50 127.50,128.00 127.50,127.00 127.50,126.00 127.50,125.00 127.50,124.00 127.50,123.00 127.50,122.00 127.50,121.00 127.50,120.00 127.50,119.00 127.50,118.00 127.50,117.00 127.50,116.00 127.50,115.00 127.50,114.00 127.00,113.50 126.50,113.00 127.00,112.50 128.00,112.50 129.00,112.50 129.50,113.00 129.00,113.50 128.50,114.00 128.50,115.00 128.50,116.00 128.50,117.00 128.50,118.00 128.50,119.00 128.50,120.00 128.50,121.00 128.50,122.00 128.50,123.00 128.50,124.00 128.50,125.00 128.50,126.00 128.50,127.00 128.50,128.00 128.50,129.00 128.00,129.50 127.50,130.00 127.00,130.50" />
<polyline fill="none" stroke="#00aa00" stroke-width="1" stroke-dasharray="3,2" points="63.00,136.50 62.50,136.00 62.50,135.00 62.50,134.00 62.50,133.00 62.50,132.00 62.50,131.00 62.50,130.00 62.50,129.00 62.50,128.00 62.50,127.00 62.50,126.00 62.50,125.00 63.00,124.50 63.50,125.00 63.50,126.00 63.50,127.00 63.50,128.00 63.50,129.00 63.50,130.00 63.50,131.00 63.50,132.00 63.50,133.00 63.50,134.00 63.50,135.00 63.50,136.00 63.00,136.50" />
<polyline fill="none" stroke="#00aa00" stroke-width="1" stroke-dasharray="3,2" points="129.00,130.50 128.50,130.00 129.00,129.50 129.50,130.00 129.00,130.50" />
<polyline fill="none" stroke="#00aa00" stroke-width="1" stroke-dasharray="3,2" points="126.00,134.50 125.50,134.00 125.50,133.00 125.50,132.00 125.50,131.00 126.00,130.50 126.50,131.00 126.50,132.00 126.50,133.00 126.50,134.00 126.00,134.50" />
<polyline fill="none" stroke="#00aa00" stroke-width="1" stroke-dasharray="3,2" points="130.00,131.50 129.50,131.00 130.00,130.50 130.50,131.00 130.00,131.50" />
<polyline fill="none" stroke="#00aa00" stroke-width="1" stroke-dasharray="3,2" points="131.00,132.50 130.50,132.00 131.00,131.50 131.50,132.00 131.00,132.50" />
<polyline fill="none" stroke="#00aa00" stroke-width="1" stroke-dasharray="3,2" points="132.00,133.50 131.50,133.00 132.00,132.50 132.50,133.00 132.00,133.50" />
<polyline fill="none" stroke="#00aa00" stroke-width="1" stroke-dasharray="3,2" points="133.00,134.50 132.50,134.00 133.00,133.50 133.50,134.00 133.00,134.50" />
<polyline fill="none" stroke="#00aa00" stroke-width="1" stroke-dasharray="3,2" points="125.00,140.50 124.50,140.00 124.50,139.00 124.50,138.00 124.50,137.00 124.50,136.00 124.00,135.50 123.00,135.50 122.00,135.50 121.00,135.50 120.00,135.50 119.00,135.50 118.00,135.50 117.00,135.50 116.00,135.50 115.00,135.50 114.00,135.50 113.00,135.50 112.00,135.50 111.00,135.50 110.00,135.50 109.00,135.50 108.00,135.50 107.00,135.50 106.00,135.50 105.00,135.50 104.00,135.50 103.00,135.50 102.00,135.50 101.00,135.50 100.50,135.00 101.00,134.50 102.00,134.50 103.00,134.50 104.00,134.50 105.00,134.50 106.00,134.50 107.00,134.50 108.00,134.50 109.00,134.50 110.00,134.50 111.00,134.50 112.00,134.50 113.00,134.50 114.00,134.50 115.00,134.50 116.00,134.50 117.00,134.50 118.00,134.50 119.00,134.50 120.00,134.50 121.00,134.50 122.00,134.50 123.00,134.50 124.00,134.50 125.00,134.50 125.50,135.00 125.50,136.00 125.50,137.00 125.50,138.00 125.50,139.00 125.50,140.00 125.00,140.50" />
<polyline fill="none" stroke="#00aa00" stroke-width="1" stroke-dasharray="3,2" points="151.00,135.50 150.00,135.50 149.00,135.50 148.00,135.50 147.00,135.50 146.00,135.50 145.00,135.50 144.00,135.50 143.00,135.50 142.00,135.50 141.00,135.50 140.00,135.50 139.00,135.50 138.00,135.50 137.00,135.50 136.00,135.50 135.00,135.50 134.00,135.50 133.50,135.00 134.00,134.50 135.00,134.50 136.00,134.50 137.00,134.50 138.00,134.50 139.00,134.50 140.00,134.50 141.00,134.50 142.00,134.50 143.00,134.50 144.00,134.50 145.00,134.50 146.00,134.50 147.00,134.50 148.00,134.50 149.00,134.50 150.00,134.50 151.00,134.50 151.50,135.00 151.00,135.50" />
<polyline fill="none" stroke="#00aa00" stroke-width="1" stroke-dasharray="3,2" points="100.00,136.50 99.50,136.00 100.00,135.50 100.50,136.00 100.00,136.50" />
<polyline fill="none" stroke="#00aa00" stroke-width="1" stroke-dasharray="3,2" points="153.00,136.50 152.00,136.50 151.50,136.00 152.00,135.50 153.00,135.50 153.50,136.00 153.00,136.50" />
<polyline fill="none" stroke="#00aa00" stroke-width="1" stroke-dasharray="3,2" points="62.00,144.50 61.50,144.00 61.50,143.00 61.50,142.00 61.50,141.00 61.50,140.00 61.50,139.00 61.50,138.00 61.50,137.00 62.00,136.50 62.50,137.00 62.50,138.00 62.50,139.00 62.50,140.00 62.50,141.00 62.50,142.00 62.50,143.00 62.50,144.00 62.00,144.50" />
<polyline fill="none" stroke="#00aa00" stroke-width="1" stroke-dasharray="3,2" points="99.00,137.50 98.50,137.00 99.00,136.50 99.50,137.00 99.00,137.50" />
<polyline fill="none" stroke="#00aa00" stroke-width="1" stroke-dasharray="3,2" points="154.00,138.50 153.50,138.00 153.50,137.00 154.00,136.50 154.50,137.00 154.50,138.00 154.00,138.50" />
<polyline fill="none" stroke="#00aa00" stroke-width="1" stroke-dasharray="3,2" points="98.00,139.50 97.50,139.00 97.50,138.00 98.00,137.50 98.50,138.00 98.50,139.00 98.00,139.50" />
<polyline fill="none" stroke="#00aa00" stroke-width="1" stroke-dasharray="3,2" points="155.00,140.50 154.50,140.00 154.50,139.00 155.00,138.50 155.50,139.00 155.50,140.00 155.00,140.50" />
<polyline fill="none" stroke="#00aa00" stroke-width="1" stroke-dasharray="3,2" points="97.00,143.50 96.50,143.00 96.50,142.00 96.50,141.00 96.50,140.00 97.00,139.50 97.50,140.00 97.50,141.00 97.50,142.00 97.50,143.00 97.00,143.50" />
<polyline fill="none" stroke="#00aa00" stroke-width="1" stroke-dasharray="3,2" points="124.00,156.50 123.50,156.00 123.50,155.00 123.50,154.00 123.50,153.00 123.50,152.00 123.50,151.00 123.50,150.00 123.50,149.00 123.50,148.00 123.50,147.00 123.50,146.00 123.50,145.00 123.50,144.00 123.50,143.00 123.50,142.00 123.50,141.00 124.00,140.50 124.50,141.00 124.50,142.00 124.50,143.00 124.50,144.00 124.50,145.00 124.50,146.00 124.50,147.00 124.50,148.00 124.50,149.00 124.50,150.00 124.50,151.00 124.50,152.00 124.50,153.00 124.50,154.00 124.50,155.00 124.50,156.00 124.00,156.50" />
<polyline fill="none" stroke="#00aa00" stroke-width="1" stroke-dasharray="3,2" points="156.00,144.50 155.50,144.00 155.50,143.00 155.50,142.00 155.50,141.00 156.00,140.50 156.50,141.00 156.50,142.00 156.50,143.00 156.50,144.00 156.00,144.50" />
<polyline fill="none" stroke="#00aa00" stroke-width="1" stroke-dasharray="3,2" points="96.00,148.50 95.50,148.00 95.50,147.00 95.50,146.00 95.50,145.00 95.50,144.00 96.00,143.50 96.50,144.00 96.50,145.00 96.50,146.00 96.50,147.00 96.50,148.00 96.00,148.50" />
<polyline fill="none" stroke="#00aa00" stroke-width="1" stroke-dasharray="3,2" points="61.00,150.50 60.50,150.00 60.50,149.00 60.50,148.00 60.50,147.00 60.50,146.00 60.50,145.00 61.00,144.50 61.50,145.00 61.50,146.00 61.50,147.00 61.50,148.00 61.50,149.00 61.50,150.00 61.00,150.50" />
<polyline fill="none" stroke="#00aa00" stroke-width="1" stroke-dasharray="3,2" points="157.00,155.50 156.50,155.00 156.50,154.00 156.50,153.00 156.50,152.00 156.50,151.00 156.50,150.00 156.50,149.00 156.50,148.00 156.50,147.00 156.50,146.00 156.50,145.00 157.00,144.50 157.50,145.00 157.50,146.00 157.50,147.00 157.50,148.00 157.50,149.00 157.50,150.00 157.50,151.00 157.50,152.00 157.50,153.00 157.50,154.00 157.50,155.00 157.00,155.50" />
<polyline fill="none" stroke="#00aa00" stroke-width="1" stroke-dasharray="3,2" points="95.00,151.50 94.50,151.00 94.50,150.00 94.50,149.00 95.00,148.50 95.50,149.00 95.50,150.00 95.50,151.00 95.00,151.50" />
<polyline fill="none" stroke="#00aa00" stroke-width="1" stroke-dasharray="3,2" points="60.00,156.50 59.50,156.00 59.50,155.00 59.50,154.00 59.50,153.00 59.50,152.00 59.50,151.00 60.00,150.50 60.50,151.00 60.50,152.00 60.50,153.00 60.50,154.00 60.50,155.00 60.50,156.00 60.00,156.50" />
<polyline fill="none" stroke="#00aa00" stroke-width="1" stroke-dasharray="3,2" points="96.00,157.50 95.50,157.00 95.50,156.00 95.50,155.00 95.50,154.00 95.50,153.00 95.50,152.00 96.00,151.50 96.50,152.00 96.50,153.00 96.50,154.00 96.50,155.00 96.50,156.00 96.50,157.00 96.00,157.50" />
<polyline fill="none" stroke="#00aa00" stroke-width="1" stroke-dasharray="3,2" points="193.00,165.50 192.50,165.00 192.50,164.00 192.50,163.00 192.50,162.00 192.50,161.00 192.50,160.00 192.50,159.00 192.50,158.00 192.50,157.00 192.50,156.00 192.50,155.00 192.50,154.00 192.50,153.00 193.00,152.50 193.50,153.00 193.50,154.00 193.50,155.00 193.50,156.00 193.50,157.00 193.50,158.00 193.50,159.00 193.50,160.00 193.50,161.00 193.50,162.00 193.50,163.00 193.50,164.00 193.50,165.00 193.00,165.50" />
<polyline fill="none" stroke="#00aa00" stroke-width="1" stroke-dasharray="3,2" points="156.00,159.50 155.50,159.00 155.50,158.00 155.50,157.00 155.50,156.00 156.00,155.50 156.50,156.00 156.50,157.00 156.50,158.00 156.50,159.00 156.00,159.50" />
<polyline fill="none" stroke="#00aa00" stroke-width="1" stroke-dasharray="3,2" points="59.00,161.50 58.50,161.00 58.50,160.00 58.50,159.00 58.50,158.00 58.50,157.00 59.00,156.50 59.50,157.00 59.50,158.00 59.50,159.00 59.50,160.00 59.50,161.00 59.00,161.50" />
<polyline fill="none" stroke="#00aa00" stroke-width="1" stroke-dasharray="3,2" points="124.00,161.50 123.00,161.50 122.00,161.50 121.50,161.00 122.00,160.50 122.50,160.00 122.50,159.00 122.50,158.00 122.50,157.00 123.00,156.50 123.50,157.00 123.50,158.00 123.50,159.00 123.50,160.00 124.00,160.50 124.50,161.00 124.00,161.50" />
<polyline fill="none" stroke="#00aa00" stroke-width="1" stroke-dasharray="3,2" points="97.00,160.50 96.50,160.00 96.50,159.00 96.50,158.00 97.00,157.50 97.50,158.00 97.50,159.00 97.50,160.00 97.00,160.50" />
<polyline fill="none" stroke="#00aa00" stroke-width="1" stroke-dasharray="3,2" points="155.00,161.50 154.50,161.00 154.50,160.00 155.00,159.50 155.50,160.00 155.50,161.00 155.00,161.50" />
<polyline fill="none" stroke="#00aa00" stroke-width="1" stroke-dasharray="3,2" points="98.00,162.50 97.50,162.00 97.50,161.00 98.00,160.50 98.50,161.00 98.50,162.00 98.00,162.50" />
<polyline fill="none" stroke="#00aa00" stroke-width="1" stroke-dasharray="3,2" points="58.00,165.50 57.50,165.00 57.50,164.00 57.50,163.00 57.50,162.00 58.00,161.50 58.50,162.00 58.50,163.00 58.50,164.00 58.50,165.00 58.00,165.50" />
<polyline fill="none" stroke="#00aa00" stroke-width="1" stroke-dasharray="3,2" points="121.00,162.50 120.50,162.00 121.00,161.50 121.50,162.00 121.00,162.50" />
<polyline fill="none" stroke="#00aa00" stroke-width="1" stroke-dasharray="3,2" points="125.00,162.50 124.50,162.00 125.00,161.50 125.50,162.00 125.00,162.50" />
<polyline fill="none" stroke="#00aa00" stroke-width="1" stroke-dasharray="3,2" points="154.00,163.50 153.50,163.00 153.50,162.00 154.00,161.50 154.50,162.00 154.50,163.00 154.00,163.50" />
<polyline fill="none" stroke="#00aa00" stroke-width="1" stroke-dasharray="3,2" points="99.00,163.50 98.50,163.00 99.00,162.50 99.50,163.00 99.00,163.50" />
<polyline fill="none" stroke="#00aa00" stroke-width="1" stroke-dasharray="3,2" points="120.00,163.50 119.50,163.00 120.00,162.50 120.50,163.00 120.00,163.50" />
<polyline fill="none" stroke="#00aa00" stroke-width="1" stroke-dasharray="3,2" points="126.00,163.50 125.50,163.00 126.00,162.50 126.50,163.00 126.00,163.50" />
<polyline fill="none" stroke="#00aa00" stroke-width="1" stroke-dasharray="3,2" points="101.00,164.50 100.00,164.50 99.50,164.00 100.00,163.50 101.00,163.50 101.50,164.00 101.00,164.50" />
<polyline fill="none" stroke="#00aa00" stroke-width="1" stroke-dasharray="3,2" points="119.00,165.50 118.50,165.00 118.50,164.00 119.00,163.50 119.50,164.00 119.50,165.00 119.00,165.50" />
<polyline fill="none" stroke="#00aa00" stroke-width="1" stroke-dasharray="3,2" points="127.00,164.50 126.50,164.00 127.00,163.50 127.50,164.00 127.00,164.50" />
<polyline fill="none" stroke="#00aa00" stroke-width="1" stroke-dasharray="3,2" points="153.00,164.50 152.00,164.50 151.50,164.00 152.00,163.50 153.00,163.50 153.50,164.00 153.00,164.50" />
<polyline fill="none" stroke="#00aa00" stroke-width="1" stroke-dasharray="3,2" points="112.00,165.50 111.00,165.50 110.00,165.50 109.00,165.50 108.00,165.50 107.00,165.50 106.00,165.50 105.00,165.50 104.00,165.50 103.00,165.50 102.00,165.50 101.50,165.00 102.00,164.50 103.00,164.50 104.00,164.50 105.00,164.50 106.00,164.50 107.00,164.50 108.00,164.50 109.00,164.50 110.00,164.50 111.00,164.50 112.00,164.50 112.50,165.00 112.00,165.50" />
<polyline fill="none" stroke="#00aa00" stroke-width="1" stroke-dasharray="3,2" points="149.00,189.50 148.00,189.50 147.50,189.00 147.50,188.00 147.50,187.00 147.50,186.00 147.50,185.00 147.50,184.00 147.50,183.00 147.50,182.00 147.50,181.00 147.50,180.00 147.50,179.00 147.50,178.00 147.50,177.00 147.50,176.00 147.50,175.00 147.50,174.00 147.50,173.00 147.50,172.00 147.50,171.00 147.50,170.00 147.50,169.00 147.50,168.00 147.50,167.00 147.50,166.00 147.00,165.50 146.00,165.50 145.00,165.50 144.00,165.50 143.00,165.50 142.00,165.50 141.00,165.50 140.00,165.50 139.00,165.50 138.00,165.50 137.00,165.50 136.00,165.50 135.00,165.50 134.00,165.50 133.00,165.50 132.00,165.50 131.00,165.50 130.00,165.50 129.00,165.50 128.00,165.50 127.50,165.00 128.00,164.50 129.00,164.50 130.00,164.50 131.00,164.50 132.00,164.50 133.00,164.50 134.00,164.50 135.00,164.50 136.00,164.50 137.00,164.50 138.00,164.50 139.00,164.50 140.00,164.50 141.00,164.50 142.00,164.50 143.00,164.50 144.00,164.50 145.00,164.50 146.00,164.50 147.00,164.50 148.00,164.50 149.00,164.50 150.00,164.50 151.00,164.50 151.50,165.00 151.00,165.50 150.00,165.50 149.00,165.50 148.50,166.00 148.50,167.00 148.50,168.00 148.50,169.00 148.50,170.00 148.50,171.00 148.50,172.00 148.50,173.00 148.50,174.00 148.50,175.00 148.50,176.00 148.50,177.00 148.50,178.00 148.50,179.00 148.50,180.00 148.50,181.00 148.50,182.00 148.50,183.00 148.50,184.00 148.50,185.00 148.50,186.00 148.50,187.00 148.50,188.00 149.00,188.50 149.50,189.00 149.00,189.50" />
<polyline fill="none" stroke="#00aa00" stroke-width="1" stroke-dasharray="3,2" points="57.00,167.50 56.50,167.00 56.50,166.00 57.00,165.50 57.50,166.00 57.50,167.00 57.00,167.50" />
<polyline fill="none" stroke="#00aa00" stroke-width="1" stroke-dasharray="3,2" points="113.00,166.50 112.50,166.00 113.00,165.50 113.50,166.00 113.00,166.50" />
<polyline fill="none" stroke="#00aa00" stroke-width="1" stroke-dasharray="3,2" points="118.00,166.50 117.50,166.00 118.00,165.50 118.50,166.00 118.00,166.50" />
<polyline fill="none" stroke="#00aa00" stroke-width="1" stroke-dasharray="3,2" points="194.00,171.50 193.50,171.00 193.50,170.00 193.50,169.00 193.50,168.00 193.50,167.00 193.50,166.00 194.00,165.50 194.50,166.00 194.50,167.00 194.50,168.00 194.50,169.00 194.50,170.00 194.50,171.00 194.00,171.50" />
<polyline fill="none" stroke="#00aa00" stroke-width="1" stroke-dasharray="3,2" points="114.00,167.50 113.50,167.00 114.00,166.50 114.50,167.00 114.00,167.50" />
<polyline fill="none" stroke="#00aa00" stroke-width="1" stroke-dasharray="3,2" points="117.00,167.50 116.00,167.50 115.50,167.00 116.00,166.50 117.00,166.50 117.50,167.00 117.00,167.50" />
<polyline fill="none" stroke="#00aa00" stroke-width="1" stroke-dasharray="3,2" points="56.00,170.50 55.50,170.00 55.50,169.00 55.50,168.00 56.00,167.50 56.50,168.00 56.50,169.00 56.50,170.00 56.00,170.50" />
<polyline fill="none" stroke="#00aa00" stroke-width="1" stroke-dasharray="3,2" points="115.00,169.50 114.50,169.00 114.50,168.00 115.00,167.50 115.50,168.00 115.50,169.00 115.00,169.50" />
<polyline fill="none" stroke="#00aa00" stroke-width="1" stroke-dasharray="3,2" points="114.00,174.50 113.50,174.00 113.50,173.00 113.50,172.00 113.50,171.00 113.50,170.00 114.00,169.50 114.50,170.00 114.50,171.00 114.50,172.00 114.50,173.00 114.50,174.00 114.00,174.50" />
<polyline fill="none" stroke="#00aa00" stroke-width="1" stroke-dasharray="3,2" points="55.00,172.50 54.50,172.00 54.50,171.00 55.00,170.50 55.50,171.00 55.50,172.00 55.00,172.50" />
<polyline fill="none" stroke="#00aa00" stroke-width="1" stroke-dasharray="3,2" points="195.00,176.50 194.50,176.00 194.50,175.00 194.50,174.00 194.50,173.00 194.50,172.00 195.00,171.50 195.50,172.00 195.50,173.00 195.50,174.00 195.50,175.00 195.50,176.00 195.00,176.50" />
<polyline fill="none" stroke="#00aa00" stroke-width="1" stroke-dasharray="3,2" points="54.00,173.50 53.50,173.00 54.00,172.50 54.50,173.00 54.00,173.50" />
<polyline fill="none" stroke="#00aa00" stroke-width="1" stroke-dasharray="3,2" points="53.00,175.50 52.50,175.00 52.50,174.00 53.00,173.50 53.50,174.00 53.50,175.00 53.00,175.50" />
<polyline fill="none" stroke="#00aa00" stroke-width="1" stroke-dasharray="3,2" points="113.00,182.50 112.50,182.00 112.50,181.00 112.50,180.00 112.50,179.00 112.50,178.00 112.50,177.00 112.50,176.00 112.50,175.00 113.00,174.50 113.50,175.00 113.50,176.00 113.50,177.00 113.50,178.00 113.50,179.00 113.50,180.00 113.50,181.00 113.50,182.00 113.00,182.50" />
<polyline fill="none" stroke="#00aa00" stroke-width="1" stroke-dasharray="3,2" points="52.00,177.50 51.50,177.00 51.50,176.00 52.00,175.50 52.50,176.00 52.50,177.00 52.00,177.50" />
<polyline fill="none" stroke="#00aa00" stroke-width="1" stroke-dasharray="3,2" points="196.00,180.50 195.50,180.00 195.50,179.00 195.50,178.00 195.50,177.00 196.00,176.50 196.50,177.00 196.50,178.00 196.50,179.00 196.50,180.00 196.00,180.50" />
<polyline fill="none" stroke="#00aa00" stroke-width="1" stroke-dasharray="3,2" points="51.00,179.50 50.50,179.00 50.50,178.00 51.00,177.50 51.50,178.00 51.50,179.00 51.00,179.50" />
<polyline fill="none" stroke="#00aa00" stroke-width="1" stroke-dasharray="3,2" points="50.00,180.50 49.50,180.00 50.00,179.50 50.50,180.00 50.00,180.50" />
<polyline fill="none" stroke="#00aa00" stroke-width="1" stroke-dasharray="3,2" points="49.00,181.50 48.50,181.00 49.00,180.50 49.50,181.00 49.00,181.50" />
<polyline fill="none" stroke="#00aa00" stroke-width="1" stroke-dasharray="3,2" points="197.00,183.50 196.50,183.00 196.50,182.00 196.50,181.00 197.00,180.50 197.50,181.00 197.50,182.00 197.50,183.00 197.00,183.50" />
<polyline fill="none" stroke="#00aa00" stroke-width="1" stroke-dasharray="3,2" points="48.00,183.50 47.50,183.00 47.50,182.00 48.00,181.50 48.50,182.00 48.50,183.00 48.00,183.50" />
<polyline fill="none" stroke="#00aa00" stroke-width="1" stroke-dasharray="3,2" points="112.00,188.50 111.50,188.00 111.50,187.00 111.50,186.00 111.50,185.00 111.50,184.00 111.50,183.00 112.00,182.50 112.50,183.00 112.50,184.00 112.50,185.00 112.50,186.00 112.50,187.00 112.50,188.00 112.00,188.50" />
<polyline fill="none" stroke="#00aa00" stroke-width="1" stroke-dasharray="3,2" points="47.00,184.50 46.50,184.00 47.00,183.50 47.50,184.00 47.00,184.50" />
<polyline fill="none" stroke="#00aa00" stroke-width="1" stroke-dasharray="3,2" points="198.00,186.50 197.50,186.00 197.50,185.00 197.50,184.00 198.00,183.50 198.50,184.00 198.50,185.00 198.50,186.00 198.00,186.50" />
<polyline fill="none" stroke="#00aa00" stroke-width="1" stroke-dasharray="3,2" points="46.00,186.50 45.50,186.00 45.50,185.00 46.00,184.50 46.50,185.00 46.50,186.00 46.00,186.50" />
<polyline fill="none" stroke="#00aa00" stroke-width="1" stroke-dasharray="3,2" points="45.00,187.50 44.50,187.00 45.00,186.50 45.50,187.00 45.00,187.50" />
<polyline fill="none" stroke="#00aa00" stroke-width="1" stroke-dasharray="3,2" points="199.00,189.50 198.50,189.00 198.50,188.00 198.50,187.00 199.00,186.50 199.50,187.00 199.50,188.00 199.50,189.00 199.00,189.50" />
<polyline fill="none" stroke="#00aa00" stroke-width="1" stroke-dasharray="3,2" points="44.00,188.50 43.50,188.00 44.00,187.50 44.50,188.00 44.00,188.50" />
<polyline fill="none" stroke="#00aa00" stroke-width="1" stroke-dasharray="3,2" points="43.00,189.50 42.50,189.00 43.00,188.50 43.50,189.00 43.00,189.50" />
<polyline fill="none" stroke="#00aa00" stroke-width="1" stroke-dasharray="3,2" points="111.00,193.50 110.00,193.50 109.50,193.00 110.00,192.50 110.50,192.00 110.50,191.00 110.50,190.00 110.50,189.00 111.00,188.50 111.50,189.00 111.50,190.00 111.50,191.00 111.50,192.00 111.50,193.00 111.00,193.50" />
<polyline fill="none" stroke="#00aa00" stroke-width="1" stroke-dasharray="3,2" points="42.00,190.50 41.50,190.00 42.00,189.50 42.50,190.00 42.00,190.50" />
<polyline fill="none" stroke="#00aa00" stroke-width="1" stroke-dasharray="3,2" points="147.00,190.50 146.00,190.50 145.50,190.00 146.00,189.50 147.00,189.50 147.50,190.00 147.00,190.50" />
<polyline fill="none" stroke="#00aa00" stroke-width="1" stroke-dasharray="3,2" points="152.00,190.50 151.00,190.50 150.00,190.50 149.50,190.00 150.00,189.50 151.00,189.50 152.00,189.50 152.50,190.00 152.00,190.50" />
<polyline fill="none" stroke="#00aa00" stroke-width="1" stroke-dasharray="3,2" points="200.00,190.50 199.50,190.00 200.00,189.50 200.50,190.00 200.00,190.50" />
<polyline fill="none" stroke="#00aa00" stroke-width="1" stroke-dasharray="3,2" points="41.00,191.50 40.50,191.00 41.00,190.50 41.50,191.00 41.00,191.50" />
<polyline fill="none" stroke="#00aa00" stroke-width="1" stroke-dasharray="3,2" points="145.00,191.50 144.50,191.00 145.00,190.50 145.50,191.00 145.00,191.50" />
<polyline fill="none" stroke="#00aa00" stroke-width="1" stroke-dasharray="3,2" points="155.00,191.50 154.00,191.50 153.00,191.50 152.50,191.00 153.00,190.50 154.00,190.50 155.00,190.50 155.50,191.00 155.00,191.50" />
<polyline fill="none" stroke="#00aa00" stroke-width="1" stroke-dasharray="3,2" points="201.00,192.50 200.50,192.00 200.50,191.00 201.00,190.50 201.50,191.00 201.50,192.00 201.00,192.50" />
<polyline fill="none" stroke="#00aa00" stroke-width="1" stroke-dasharray="3,2" points="40.00,192.50 39.50,192.00 40.00,191.50 40.50,192.00 40.00,192.50" />
<polyline fill="none" stroke="#00aa00" stroke-width="1" stroke-dasharray="3,2" points="144.00,192.50 143.00,192.50 142.00,192.50 141.00,192.50 140.00,192.50 139.00,192.50 138.00,192.50 137.00,192.50 136.00,192.50 135.50,192.00 136.00,191.50 137.00,191.50 138.00,191.50 139.00,191.50 140.00,191.50 141.00,191.50 142.00,191.50 143.00,191.50 144.00,191.50 144.50,192.00 144.00,192.50" />
<polyline fill="none" stroke="#00aa00" stroke-width="1" stroke-dasharray="3,2" points="157.00,192.50 156.00,192.50 155.50,192.00 156.00,191.50 157.00,191.50 157.50,192.00 157.00,192.50" />
<polyline fill="none" stroke="#00aa00" stroke-width="1" stroke-dasharray="3,2" points="39.00,193.50 38.50,193.00 39.00,192.50 39.50,193.00 39.00,193.50" />
<polyline fill="none" stroke="#00aa00" stroke-width="1" stroke-dasharray="3,2" points="135.00,193.50 134.00,193.50 133.00,193.50 132.00,193.50 131.00,193.50 130.00,193.50 129.00,193.50 128.00,193.50 127.00,193.50 126.00,193.50 125.00,193.50 124.00,193.50 123.00,193.50 122.00,193.50 121.00,193.50 120.00,193.50 119.00,193.50 118.00,193.50 117.00,193.50 116.00,193.50 115.50,193.00 116.00,192.50 117.00,192.50 118.00,192.50 119.00,192.50 120.00,192.50 121.00,192.50 122.00,192.50 123.00,192.50 124.00,192.50 125.00,192.50 126.00,192.50 127.00,192.50 128.00,192.50 129.00,192.50 130.00,192.50 131.00,192.50 132.00,192.50 133.00,192.50 134.00,192.50 135.00,192.50 135.50,193.00 135.00,193.50" />
<polyline fill="none" stroke="#00aa00" stroke-width="1" stroke-dasharray="3,2" points="158.00,193.50 157.50,193.00 158.00,192.50 158.50,193.00 158.00,193.50" />
<polyline fill="none" stroke="#00aa00" stroke-width="1" stroke-dasharray="3,2" points="202.00,193.50 201.50,193.00 202.00,192.50 202.50,193.00 202.00,193.50" />
<polyline fill="none" stroke="#00aa00" stroke-width="1" stroke-dasharray="3,2" points="38.00,194.50 37.00,194.50 36.50,194.00 37.00,193.50 38.00,193.50 38.50,194.00 38.00,194.50" />
<polyline fill="none" stroke="#00aa00" stroke-width="1" stroke-dasharray="3,2" points="109.00,194.50 108.00,194.50 107.00,194.50 106.00,194.50 105.00,194.50 104.00,194.50 103.00,194.50 102.00,194.50 101.00,194.50 100.00,194.50 99.00,194.50 98.00,194.50 97.00,194.50 96.00,194.50 95.00,194.50 94.00,194.50 93.00,194.50 92.00,194.50 91.00,194.50 90.00,194.50 89.00,194.50 88.00,194.50 87.00,194.50 86.00,194.50 85.50,194.00 86.00,193.50 87.00,193.50 88.00,193.50 89.00,193.50 90.00,193.50 91.00,193.50 92.00,193.50 93.00,193.50 94.00,193.50 95.00,193.50 96.00,193.50 97.00,193.50 98.00,193.50 99.00,193.50 100.00,193.50 101.00,193.50 102.00,193.50 103.00,193.50 104.00,193.50 105.00,193.50 106.00,193.50 107.00,193.50 108.00,193.50 109.00,193.50 109.50,194.00 109.00,194.50" />
<polyline fill="none" stroke="#00aa00" stroke-width="1" stroke-dasharray="3,2" points="115.00,194.50 114.00,194.50 113.00,194.50 112.00,194.50 111.50,194.00 112.00,193.50 113.00,193.50 114.00,193.50 115.00,193.50 115.50,194.00 115.00,194.50" />
<polyline fill="none" stroke="#00aa00" stroke-width="1" stroke-dasharray="3,2" points="159.00,194.50 158.50,194.00 159.00,193.50 159.50,194.00 159.00,194.50" />
<polyline fill="none" stroke="#00aa00" stroke-width="1" stroke-dasharray="3,2" points="203.00,194.50 202.50,194.00 203.00,193.50 203.50,194.00 203.00,194.50" />
<polyline fill="none" stroke="#00aa00" stroke-width="1" stroke-dasharray="3,2" points="36.00,195.50 35.50,195.00 36.00,194.50 36.50,195.00 36.00,195.50" />
<polyline fill="none" stroke="#00aa00" stroke-width="1" stroke-dasharray="3,2" points="85.00,195.50 84.00,195.50 83.00,195.50 82.00,195.50 81.00,195.50 80.00,195.50 79.00,195.50 78.50,195.00 79.00,194.50 80.00,194.50 81.00,194.50 82.00,194.50 83.00,194.50 84.00,194.50 85.00,194.50 85.50,195.00 85.00,195.50" />
<polyline fill="none" stroke="#00aa00" stroke-width="1" stroke-dasharray="3,2" points="160.00,195.50 159.50,195.00 160.00,194.50 160.50,195.00 160.00,195.50" />
<polyline fill="none" stroke="#00aa00" stroke-width="1" stroke-dasharray="3,2" points="204.00,195.50 203.50,195.00 204.00,194.50 204.50,195.00 204.00,195.50" />
<polyline fill="none" stroke="#00aa00" stroke-width="1" stroke-dasharray="3,2" points="35.00,196.50 34.50,196.00 35.00,195.50 35.50,196.00 35.00,196.50" />
<polyline fill="none" stroke="#00aa00" stroke-width="1" stroke-dasharray="3,2" points="78.00,196.50 77.50,196.00 78.00,195.50 78.50,196.00 78.00,196.50" />
<polyline fill="none" stroke="#00aa00" stroke-width="1" stroke-dasharray="3,2" points="161.00,196.50 160.50,196.00 161.00,195.50 161.50,196.00 161.00,196.50" />
<polyline fill="none" stroke="#00aa00" stroke-width="1" stroke-dasharray="3,2" points="206.00,196.50 205.00,196.50 204.50,196.00 205.00,195.50 206.00,195.50 206.50,196.00 206.00,196.50" />
<polyline fill="none" stroke="#00aa00" stroke-width="1" stroke-dasharray="3,2" points="34.00,197.50 33.50,197.00 34.00,196.50 34.50,197.00 34.00,197.50" />
<polyline fill="none" stroke="#00aa00" stroke-width="1" stroke-dasharray="3,2" points="162.00,198.50 161.50,198.00 161.50,197.00 162.00,196.50 162.50,197.00 162.50,198.00 162.00,198.50" />
<polyline fill="none" stroke="#00aa00" stroke-width="1" stroke-dasharray="3,2" points="209.00,197.50 208.00,197.50 207.00,197.50 206.50,197.00 207.00,196.50 208.00,196.50 209.00,196.50 209.50,197.00 209.00,197.50" />
<polyline fill="none" stroke="#00aa00" stroke-width="1" stroke-dasharray="3,2" points="33.00,198.50 32.00,198.50 31.50,198.00 32.00,197.50 33.00,197.50 33.50,198.00 33.00,198.50" />
<polyline fill="none" stroke="#00aa00" stroke-width="1" stroke-dasharray="3,2" points="214.00,198.50 213.00,198.50 212.00,198.50 211.00,198.50 210.00,198.50 209.50,198.00 210.00,197.50 211.00,197.50 212.00,197.50 213.00,197.50 214.00,197.50 214.50,198.00 214.00,198.50" />
<polyline fill="none" stroke="#00aa00" stroke-width="1" stroke-dasharray="3,2" points="256.00,198.50 255.00,198.50 254.50,198.00 255.00,197.50 256.00,197.50 256.50,198.00 256.00,198.50" />
<polyline fill="none" stroke="#00aa00" stroke-width="1" stroke-dasharray="3,2" points="262.00,198.50 261.00,198.50 260.50,198.00 261.00,197.50 262.00,197.50 262.50,198.00 262.00,198.50" />
<polyline fill="none" stroke="#00aa00" stroke-width="1" stroke-dasharray="3,2" points="31.00,199.50 30.00,199.50 29.50,199.00 30.00,198.50 31.00,198.50 31.50,199.00 31.00,199.50" />
<polyline fill="none" stroke="#00aa00" stroke-width="1" stroke-dasharray="3,2" points="163.00,199.50 162.50,199.00 163.00,198.50 163.50,199.00 163.00,199.50" />
<polyline fill="none" stroke="#00aa00" stroke-width="1" stroke-dasharray="3,2" points="254.00,199.50 253.00,199.50 252.00,199.50 251.00,199.50 250.00,199.50 249.00,199.50 248.00,199.50 247.00,199.50 246.00,199.50 245.00,199.50 244.00,199.50 243.00,199.50 242.00,199.50 241.00,199.50 240.00,199.50 239.00,199.50 238.00,199.50 237.00,199.50 236.00,199.50 235.00,199.50 234.00,199.50 233.00,199.50 232.00,199.50 231.00,199.50 230.00,199.50 229.00,199.50 228.00,199.50 227.00,199.50 226.00,199.50 225.00,199.50 224.00,199.50 223.00,199.50 222.00,199.50 221.00,199.50 220.00,199.50 219.00,199.50 218.00,199.50 217.00,199.50 216.00,199.50 215.00,199.50 214.50,199.00 215.00,198.50 216.00,198.50 217.00,198.50 218.00,198.50 219.00,198.50 220.00,198.50 221.00,198.50 222.00,198.50 223.00,198.50 224.00,198.50 225.00,198.50 226.00,198.50 227.00,198.50 228.00,198.50 229.00,198.50 230.00,198.50 231.00,198.50 232.00,198.50 233.00,198.50 234.00,198.50 235.00,198.50 236.00,198.50 237.00,198.50 238.00,198.50 239.00,198.50 240.00,198.50 241.00,198.50 242.00,198.50 243.00,198.50 244.00,198.50 245.00,198.50 246.00,198.50 247.00,198.50 248.00,198.50 249.00,198.50 250.00,198.50 251.00,198.50 252.00,198.50 253.00,198.50 254.00,198.50 254.50,199.00 254.00,199.50" />
<polyline fill="none" stroke="#00aa00" stroke-width="1" stroke-dasharray="3,2" points="260.00,199.50 259.00,199.50 258.00,199.50 257.00,199.50 256.50,199.00 257.00,198.50 258.00,198.50 259.00,198.50 260.00,198.50 260.50,199.00 260.00,199.50" />
<polyline fill="none" stroke="#00aa00" stroke-width="1" stroke-dasharray="3,2" points="29.00,200.50 28.50,200.00 29.00,199.50 29.50,200.00 29.00,200.50" />
<polyline fill="none" stroke="#00aa00" stroke-width="1" stroke-dasharray="3,2" points="164.00,200.50 163.50,200.00 164.00,199.50 164.50,200.00 164.00,200.50" />
<polyline fill="none" stroke="#00aa00" stroke-width="1" stroke-dasharray="3,2" points="28.00,201.50 27.00,201.50 26.50,201.00 27.00,200.50 28.00,200.50 28.50,201.00 28.00,201.50" />
<polyline fill="none" stroke="#00aa00" stroke-width="1" stroke-dasharray="3,2" points="165.00,201.50 164.50,201.00 165.00,200.50 165.50,201.00 165.00,201.50" />
<polyline fill="none" stroke="#00aa00" stroke-width="1" stroke-dasharray="3,2" points="26.00,202.50 25.00,202.50 24.00,202.50 23.00,202.50 22.00,202.50 21.00,202.50 20.50,202.00 21.00,201.50 22.00,201.50 23.00,201.50 24.00,201.50 25.00,201.50 26.00,201.50 26.50,202.00 26.00,202.50" />
<circle cx="127.00" cy="113.00" r="3" fill="none" stroke="#ff00ff" stroke-width="1"/>
<circle cx="128.00" cy="113.00" r="3" fill="none" stroke="#ff00ff" stroke-width="1"/>
<circle cx="129.00" cy="113.00" r="3" fill="none" stroke="#ff00ff" stroke-width="1"/>
<circle cx="128.00" cy="114.00" r="3" fill="none" stroke="#ff00ff" stroke-width="1"/>
<circle cx="128.00" cy="128.00" r="3" fill="none" stroke="#ff00ff" stroke-width="1"/>
<circle cx="127.00" cy="129.00" r="3" fill="none" stroke="#ff00ff" stroke-width="1"/>
<circle cx="128.00" cy="129.00" r="3" fill="none" stroke="#ff00ff" stroke-width="1"/>
<circle cx="127.00" cy="130.00" r="3" fill="none" stroke="#ff00ff" stroke-width="1"/>
<circle cx="124.00" cy="135.00" r="3" fill="none" stroke="#ff00ff" stroke-width="1"/>
<circle cx="125.00" cy="135.00" r="3" fill="none" stroke="#ff00ff" stroke-width="1"/>
<circle cx="125.00" cy="136.00" r="3" fill="none" stroke="#ff00ff" stroke-width="1"/>
<circle cx="123.00" cy="160.00" r="3" fill="none" stroke="#ff00ff" stroke-width="1"/>
<circle cx="122.00" cy="161.00" r="3" fill="none" stroke="#ff00ff" stroke-width="1"/>
<circle cx="123.00" cy="161.00" r="3" fill="none" stroke="#ff00ff" stroke-width="1"/>
<circle cx="124.00" cy="161.00" r="3" fill="none" stroke="#ff00ff" stroke-width="1"/>
<circle cx="147.00" cy="165.00" r="3" fill="none" stroke="#ff00ff" stroke-width="1"/>
<circle cx="148.00" cy="165.00" r="3" fill="none" stroke="#ff00ff" stroke-width="1"/>
<circle cx="149.00" cy="165.00" r="3" fill="none" stroke="#ff00ff" stroke-width="1"/>
<circle cx="148.00" cy="166.00" r="3" fill="none" stroke="#ff00ff" stroke-width="1"/>
<circle cx="115.00" cy="168.00" r="3" fill="none" stroke="#ff00ff" stroke-width="1"/>
<circle cx="148.00" cy="188.00" r="3" fill="none" stroke="#ff00ff" stroke-width="1"/>
<circle cx="148.00" cy="189.00" r="3" fill="none" stroke="#ff00ff" stroke-width="1"/>
<circle cx="149.00" cy="189.00" r="3" fill="none" stroke="#ff00ff" stroke-width="1"/>
<circle cx="111.00" cy="192.00" r="3" fill="none" stroke="#ff00ff" stroke-width="1"/>
<circle cx="110.00" cy="193.00" r="3" fill="none" stroke="#ff00ff" stroke-width="1"/>
<circle cx="111.00" cy="193.00" r="3" fill="none" stroke="#ff00ff" stroke-width="1"/>
<polyline fill="none" stroke="#3366ff" stroke-width="1" points="27.00,211.50 26.00,211.50 25.00,211.50 24.00,211.50 23.00,211.50 22.00,211.50 21.00,211.50 20.50,211.00 20.00,210.50 19.00,210.50 18.50,210.00 18.00,209.50 17.50,209.00 17.00,208.50 16.50,208.00 16.00,207.50 15.50,207.00 15.50,206.00 15.00,205.50 14.50,205.00 14.50,204.00 14.50,203.00 14.50,202.00 14.00,201.50 13.50,201.00 14.00,200.50 14.50,200.00 14.50,199.00 14.50,198.00 15.00,197.50 15.50,197.00 16.00,196.50 17.00,196.50 17.50,196.00 18.00,195.50 19.00,195.50 19.50,195.00 20.00,194.50 21.00,194.50 21.50,194.00 22.00,193.50 22.50,193.00 23.00,192.50 23.50,192.00 24.00,191.50 25.00,191.50 25.50,191.00 26.00,190.50 26.50,190.00 27.00,189.50 27.50,189.00 28.00,188.50 28.50,188.00 29.00,187.50 29.50,187.00 30.00,186.50 30.50,186.00 31.00,185.50 31.50,185.00 32.00,184.50 32.50,184.00 33.00,183.50 33.50,183.00 34.00,182.50 34.50,182.00 34.50,181.00 35.00,180.50 35.50,180.00 36.00,179.50 36.50,179.00 37.00,178.50 37.50,178.00 37.50,177.00 38.00,176.50 38.50,176.00 38.50,175.00 39.00,174.50 39.50,174.00 39.50,173.00 40.00,172.50 40.50,172.00 40.50,171.00 41.00,170.50 41.50,170.00 41.50,169.00 42.00,168.50 42.50,168.00 42.50,167.00 42.50,166.00 43.00,165.50 43.50,165.00 43.50,164.00 43.50,163.00 44.00,162.50 44.50,162.00 44.50,161.00 44.50,160.00 45.00,159.50 45.50,159.00 45.50,158.00 45.50,157.00 45.50,156.00 45.50,155.00 46.00,154.50 46.50,154.00 46.50,153.00 46.50,152.00 46.50,151.00 46.50,150.00 46.50,149.00 46.50,148.00 46.50,147.00 46.50,146.00 46.50,145.00 46.50,144.00 46.50,143.00 46.50,142.00 46.50,141.00 46.50,140.00 46.50,139.00 46.50,138.00 46.50,137.00 46.50,136.00 46.50,135.00 46.50,134.00 46.50,133.00 46.50,132.00 46.50,131.00 46.50,130.00 46.50,129.00 46.50,128.00 46.50,127.00 46.50,126.00 46.50,125.00 46.50,124.00 46.50,123.00 46.50,122.00 46.50,121.00 46.50,120.00 46.50,119.00 46.50,118.00 46.50,117.00 46.50,116.00 46.50,115.00 46.50,114.00 46.50,113.00 46.50,112.00 46.50,111.00 46.50,110.00 46.50,109.00 46.50,108.00 46.50,107.00 46.50,106.00 46.50,105.00 46.50,104.00 46.50,103.00 46.50,102.00 46.50,101.00 46.50,100.00 46.50,99.00 46.50,98.00 46.50,97.00 46.50,96.00 46.50,95.00 46.50,94.00 46.50,93.00 46.50,92.00 46.50,91.00 46.50,90.00 46.50,89.00 47.00,88.50 47.50,88.00 47.50,87.00 47.50,86.00 47.50,85.00 47.50,84.00 48.00,83.50 48.50,83.00 48.50,82.00 49.00,81.50 49.50,81.00 49.50,80.00 50.00,79.50 50.50,79.00 50.50,78.00 51.00,77.50 51.50,77.00 52.00,76.50 52.50,76.00 53.00,75.50 53.50,75.00 54.00,74.50 54.50,74.00 55.00,73.50 55.50,73.00 56.00,72.50 57.00,72.50 57.50,72.00 58.00,71.50 59.00,71.50 59.50,71.00 60.00,70.50 61.00,70.50 62.00,70.50 63.00,70.50 64.00,70.50 65.00,70.50 66.00,70.50 67.00,70.50 68.00,70.50 69.00,70.50 70.00,70.50 71.00,70.50 72.00,70.50 73.00,70.50 74.00,70.50 75.00,70.50 76.00,70.50 77.00,70.50 78.00,70.50 79.00,70.50 80.00,70.50 81.00,70.50 82.00,70.50 83.00,70.50 84.00,70.50 85.00,70.50 86.00,70.50 87.00,70.50 88.00,70.50 89.00,70.50 90.00,70.50 91.00,70.50 92.00,70.50 93.00,70.50 94.00,70.50 95.00,70.50 96.00,70.50 97.00,70.50 98.00,70.50 99.00,70.50 100.00,70.50 101.00,70.50 102.00,70.50 103.00,70.50 104.00,70.50 105.00,70.50 106.00,70.50 107.00,70.50 108.00,70.50 109.00,70.50 110.00,70.50 111.00,70.50 112.00,70.50 113.00,70.50 114.00,70.50 115.00,70.50 116.00,70.50 117.00,70.50 118.00,70.50 119.00,70.50 120.00,70.50 121.00,70.50 122.00,70.50 123.00,70.50 124.00,70.50 125.00,70.50 126.00,70.50 127.00,70.50 128.00,70.50 129.00,70.50 130.00,70.50 131.00,70.50 132.00,70.50 133.00,70.50 134.00,70.50 135.00,70.50 136.00,70.50 137.00,70.50 138.00,70.50 139.00,70.50 140.00,70.50 141.00,70.50 142.00,70.50 143.00,70.50 144.00,70.50 145.00,70.50 146.00,70.50 147.00,70.50 148.00,70.50 149.00,70.50 150.00,70.50 151.00,70.50 152.00,70.50 153.00,70.50 154.00,70.50 155.00,70.50 156.00,70.50 157.00,70.50 158.00,70.50 159.00,70.50 160.00,70.50 161.00,70.50 162.00,70.50 163.00,70.50 164.00,70.50 165.00,70.50 166.00,70.50 167.00,70.50 168.00,70.50 169.00,70.50 170.00,70.50 171.00,70.50 172.00,70.50 173.00,70.50 174.00,70.50 175.00,70.50 176.00,70.50 177.00,70.50 178.00,70.50 179.00,70.50 180.00,70.50 181.00,70.50 182.00,70.50 183.00,70.50 184.00,70.50 185.00,70.50 186.00,70.50 187.00,70.50 188.00,70.50 189.00,70.50 190.00,70.50 191.00,70.50 192.00,70.50 193.00,70.50 194.00,70.50 195.00,70.50 196.00,70.50 196.50,71.00 197.00,71.50 198.00,71.50 198.50,72.00 199.00,72.50 200.00,72.50 200.50,73.00 201.00,73.50 202.00,73.50 202.50,74.00 203.00,74.50 203.50,75.00 204.00,75.50 204.50,76.00 205.00,76.50 205.50,77.00 206.00,77.50 206.50,78.00 207.00,78.50 207.50,79.00 208.00,79.50 208.50,80.00 208.50,81.00 209.00,81.50 209.50,82.00 210.00,82.50 210.50,83.00 210.50,84.00 210.50,85.00 211.00,85.50 211.50,86.00 211.50,87.00 212.00,87.50 212.50,88.00 212.50,89.00 212.50,90.00 212.50,91.00 212.50,92.00 212.50,93.00 212.50,94.00 212.50,95.00 212.50,96.00 212.50,97.00 212.50,98.00 212.50,99.00 212.50,100.00 212.50,101.00 212.50,102.00 212.50,103.00 212.50,104.00 212.50,105.00 212.50,106.00 212.50,107.00 212.50,108.00 212.50,109.00 212.50,110.00 212.50,111.00 212.50,112.00 212.50,113.00 212.50,114.00 212.50,115.00 212.50,116.00 212.50,117.00 212.50,118.00 212.50,119.00 212.50,120.00 212.50,121.00 212.50,122.00 212.50,123.00 212.50,124.00 212.50,125.00 212.50,126.00 212.50,127.00 212.50,128.00 212.50,129.00 212.50,130.00 212.50,131.00 212.50,132.00 212.50,133.00 212.50,134.00 212.50,135.00 212.50,136.00 212.50,137.00 212.50,138.00 212.50,139.00 212.50,140.00 212.50,141.00 212.50,142.00 212.50,143.00 212.50,144.00 212.50,145.00 212.50,146.00 212.50,147.00 212.50,148.00 212.50,149.00 212.50,150.00 212.50,151.00 212.50,152.00 212.50,153.00 212.50,154.00 212.50,155.00 212.50,156.00 212.50,157.00 212.50,158.00 212.50,159.00 212.50,160.00 212.50,161.00 212.50,162.00 212.50,163.00 212.50,164.00 212.50,165.00 212.50,166.00 212.50,167.00 212.50,168.00 212.50,169.00 212.50,170.00 212.50,171.00 212.50,172.00 212.50,173.00 212.50,174.00 212.50,175.00 212.50,176.00 213.00,176.50 213.50,177.00 213.50,178.00 213.50,179.00 213.50,180.00 214.00,180.50 214.50,181.00 214.50,182.00 215.00,182.50 215.50,183.00 215.50,184.00 216.00,184.50 217.00,184.50 217.50,185.00 218.00,185.50 218.50,186.00 219.00,186.50 220.00,186.50 221.00,186.50 221.50,187.00 222.00,187.50 223.00,187.50 224.00,187.50 225.00,187.50 226.00,187.50 227.00,187.50 228.00,187.50 229.00,187.50 230.00,187.50 231.00,187.50 232.00,187.50 233.00,187.50 234.00,187.50 235.00,187.50 236.00,187.50 237.00,187.50 238.00,187.50 239.00,187.50 240.00,187.50 241.00,187.50 242.00,187.50 243.00,187.50 244.00,187.50 245.00,187.50 246.00,187.50 247.00,187.50 248.00,187.50 249.00,187.50 250.00,187.50 251.00,187.50 252.00,187.50 253.00,187.50 254.00,187.50 255.00,187.50 256.00,187.50 257.00,187.50 258.00,187.50 259.00,187.50 260.00,187.50 261.00,187.50 262.00,187.50 263.00,187.50 264.00,187.50 265.00,187.50 266.00,187.50 267.00,187.50 267.50,188.00 268.00,188.50 268.50,189.00 269.00,189.50 270.00,189.50 270.50,190.00 270.50,191.00 271.00,191.50 271.50,192.00 272.00,192.50 272.50,193.00 272.50,194.00 273.00,194.50 273.50,195.00 273.50,196.00 273.50,197.00 273.50,198.00 273.50,199.00 273.50,200.00 273.50,201.00 273.50,202.00 273.00,202.50 272.50,203.00 272.50,204.00 272.00,204.50 271.50,205.00 271.50,206.00 271.00,206.50 270.50,207.00 270.00,207.50 269.50,208.00 269.00,208.50 268.50,209.00 268.00,209.50 267.00,209.50 266.00,209.50 265.50,210.00 265.00,210.50 264.00,210.50 263.00,210.50 262.00,210.50 261.00,210.50 260.00,210.50 259.00,210.50 258.00,210.50 257.00,210.50 256.00,210.50 255.00,210.50 254.00,210.50 253.00,210.50 252.00,210.50 251.00,210.50 250.00,210.50 249.00,210.50 248.00,210.50 247.00,210.50 246.00,210.50 245.00,210.50 244.00,210.50 243.00,210.50 242.00,210.50 241.00,210.50 240.00,210.50 239.00,210.50 238.00,210.50 237.00,210.50 236.00,210.50 235.00,210.50 234.00,210.50 233.00,210.50 232.00,210.50 231.00,210.50 230.00,210.50 229.00,210.50 228.00,210.50 227.00,210.50 226.00,210.50 225.00,210.50 224.00,210.50 223.00,210.50 222.00,210.50 221.00,210.50 220.00,210.50 219.00,210.50 218.00,210.50 217.00,210.50 216.00,210.50 215.00,210.50 214.00,210.50 213.00,210.50 212.00,210.50 211.00,210.50 210.00,210.50 209.00,210.50 208.00,210.50 207.00,210.50 206.00,210.50 205.00,210.50 204.00,210.50 203.50,210.00 203.00,209.50 202.00,209.50 201.00,209.50 200.00,209.50 199.00,209.50 198.50,209.00 198.00,208.50 197.00,208.50 196.00,208.50 195.50,208.00 195.00,207.50 194.00,207.50 193.50,207.00 193.00,206.50 192.00,206.50 191.50,206.00 191.00,205.50 190.50,205.00 190.00,204.50 189.00,204.50 188.50,204.00 188.00,203.50 187.50,203.00 187.00,202.50 186.50,202.00 186.00,201.50 185.50,201.00 185.00,200.50 184.50,200.00 184.00,199.50 183.50,199.00 183.00,198.50 182.50,198.00 182.00,197.50 181.50,197.00 181.00,196.50 180.50,196.00 180.50,195.00 180.00,194.50 179.50,194.00 179.00,193.50 178.50,193.00 178.50,192.00 178.00,191.50 177.50,191.00 177.50,190.00 177.00,189.50 176.50,189.00 176.50,188.00 176.00,187.50 175.50,187.00 175.50,186.00 175.50,185.00 175.00,184.50 174.50,184.00 174.50,183.00 174.50,182.00 174.50,181.00 174.00,180.50 173.50,180.00 173.50,179.00 173.50,178.00 173.50,177.00 173.50,176.00 173.50,175.00 173.00,174.50 172.50,174.00 173.00,173.50 173.50,173.00 173.00,172.50 172.50,172.00 172.50,171.00 172.50,170.00 172.50,169.00 172.50,168.00 172.50,167.00 172.50,166.00 172.50,165.00 172.50,164.00 172.50,163.00 172.50,162.00 172.50,161.00 172.50,160.00 172.50,159.00 172.50,158.00 172.50,157.00 172.50,156.00 172.50,155.00 172.50,154.00 172.50,153.00 172.50,152.00 172.50,151.00 172.50,150.00 172.50,149.00 172.50,148.00 172.50,147.00 172.50,146.00 172.50,145.00 172.50,144.00 172.50,143.00 172.50,142.00 172.50,141.00 172.50,140.00 172.50,139.00 172.50,138.00 172.50,137.00 172.50,136.00 172.50,135.00 172.50,134.00 172.50,133.00 172.50,132.00 172.50,131.00 172.50,130.00 172.50,129.00 172.50,128.00 172.50,127.00 172.50,126.00 172.50,125.00 172.50,124.00 172.50,123.00 172.50,122.00 172.50,121.00 172.50,120.00 172.50,119.00 172.50,118.00 172.50,117.00 172.50,116.00 172.50,115.00 172.50,114.00 172.50,113.00 172.50,112.00 172.50,111.00 172.50,110.00 172.50,109.00 172.50,108.00 172.50,107.00 172.50,106.00 172.50,105.00 172.50,104.00 172.50,103.00 172.50,102.00 172.50,101.00 172.50,100.00 172.50,99.00 172.50,98.00 172.50,97.00 172.50,96.00 172.50,95.00 172.00,94.50 171.50,94.00 171.00,93.50 170.00,93.50 169.00,93.50 168.00,93.50 167.00,93.50 166.00,93.50 165.00,93.50 164.00,93.50 163.00,93.50 162.00,93.50 161.00,93.50 160.00,93.50 159.00,93.50 158.00,93.50 157.00,93.50 156.00,93.50 155.00,93.50 154.00,93.50 153.00,93.50 152.00,93.50 151.00,93.50 150.00,93.50 149.00,93.50 148.00,93.50 147.00,93.50 146.00,93.50 145.00,93.50 144.00,93.50 143.00,93.50 142.00,93.50 141.00,93.50 140.00,93.50 139.00,93.50 138.00,93.50 137.00,93.50 136.00,93.50 135.00,93.50 134.00,93.50 133.00,93.50 132.00,93.50 131.00,93.50 130.00,93.50 129.00,93.50 128.00,93.50 127.00,93.50 126.00,93.50 125.00,93.50 124.00,93.50 123.00,93.50 122.00,93.50 121.00,93.50 120.00,93.50 119.00,93.50 118.00,93.50 117.00,93.50 116.00,93.50 115.00,93.50 114.00,93.50 113.00,93.50 112.00,93.50 111.00,93.50 110.00,93.50 109.00,93.50 108.00,93.50 107.00,93.50 106.00,93.50 105.00,93.50 104.00,93.50 103.00,93.50 102.00,93.50 101.00,93.50 100.00,93.50 99.00,93.50 98.00,93.50 97.00,93.50 96.00,93.50 95.00,93.50 94.00,93.50 93.00,93.50 92.00,93.50 91.00,93.50 90.00,93.50 89.00,93.50 88.00,93.50 87.00,93.50 86.00,93.50 85.00,93.50 84.00,93.50 83.50,94.00 83.00,94.50 82.50,95.00 82.50,96.00 82.00,96.50 81.50,97.00 82.00,97.50 82.50,98.00 82.00,98.50 81.50,99.00 81.50,100.00 82.00,100.50 82.50,101.00 82.00,101.50 81.50,102.00 81.50,103.00 81.50,104.00 82.00,104.50 82.50,105.00 82.00,105.50 81.50,106.00 81.50,107.00 81.50,108.00 81.50,109.00 81.50,110.00 81.50,111.00 81.50,112.00 81.50,113.00 81.50,114.00 81.50,115.00 81.50,116.00 82.00,116.50 82.50,117.00 82.00,117.50 81.50,118.00 81.50,119.00 81.50,120.00 81.50,121.00 81.50,122.00 81.50,123.00 81.50,124.00 81.50,125.00 81.50,126.00 81.50,127.00 81.50,128.00 82.00,128.50 82.50,129.00 82.50,130.00 82.00,130.50 81.50,131.00 81.50,132.00 82.00,132.50 82.50,133.00 82.00,133.50 81.50,134.00 81.50,135.00 81.50,136.00 81.50,137.00 81.50,138.00 81.50,139.00 81.50,140.00 81.50,141.00 81.00,141.50 80.50,142.00 80.50,143.00 80.50,144.00 80.50,145.00 80.50,146.00 80.50,147.00 80.50,148.00 80.00,148.50 79.50,149.00 79.50,150.00 79.50,151.00 79.50,152.00 79.00,152.50 78.50,153.00 78.50,154.00 78.50,155.00 78.50,156.00 78.00,156.50 77.50,157.00 77.50,158.00 77.50,159.00 77.00,159.50 76.50,160.00 76.50,161.00 76.50,162.00 76.00,162.50 75.50,163.00 75.50,164.00 75.00,164.50 74.50,165.00 74.50,166.00 74.00,166.50 73.50,167.00 73.50,168.00 73.50,169.00 73.00,169.50 72.50,170.00 72.00,170.50 71.50,171.00 71.50,172.00 71.50,173.00 71.00,173.50 70.50,174.00 70.00,174.50 69.50,175.00 69.50,176.00 69.00,176.50 68.50,177.00 68.50,178.00 68.00,178.50 67.50,179.00 67.00,179.50 66.50,180.00 66.50,181.00 66.00,181.50 65.50,182.00 65.00,182.50 64.50,183.00 64.00,183.50 63.50,184.00 63.50,185.00 63.00,185.50 62.50,186.00 62.00,186.50 61.50,187.00 61.00,187.50 60.50,188.00 60.00,188.50 59.50,189.00 59.00,189.50 58.50,190.00 58.00,190.50 57.50,191.00 57.00,191.50 56.50,192.00 56.00,192.50 55.50,193.00 55.00,193.50 54.50,194.00 54.00,194.50 53.50,195.00 53.00,195.50 52.50,196.00 52.00,196.50 51.50,197.00 51.00,197.50 50.50,198.00 50.00,198.50 49.00,198.50 48.50,199.00 48.00,199.50 47.50,200.00 47.00,200.50 46.50,201.00 46.00,201.50 45.00,201.50 44.50,202.00 44.00,202.50 43.00,202.50 42.50,203.00 42.00,203.50 41.50,204.00 41.00,204.50 40.00,204.50 39.50,205.00 39.00,205.50 38.00,205.50 37.50,206.00 37.00,206.50 36.00,206.50 35.50,207.00 35.00,207.50 34.00,207.50 33.50,208.00 33.00,208.50 32.00,208.50 31.50,209.00 31.00,209.50 30.00,209.50 29.50,210.00 29.00,210.50 28.00,210.50 27.50,211.00 27.00,211.50" />
</svg>