<svg xmlns="http://www.w3.org/2000/svg" width="283" height="283" viewBox="0 0 283 283">
<polyline fill="none" stroke="#222" stroke-width="1" points="33.00,217.50 32.00,217.50 31.00,217.50 30.00,217.50 29.00,217.50 28.00,217.50 27.00,217.50 26.00,217.50 25.00,217.50 24.50,217.00 24.00,216.50 23.00,216.50 22.50,216.00 22.00,215.50 21.50,215.00 21.00,214.50 20.50,214.00 20.50,213.00 20.00,212.50 19.50,212.00 19.50,211.00 19.50,210.00 19.00,209.50 18.50,209.00 18.50,208.00 18.50,207.00 18.50,206.00 18.50,205.00 19.00,204.50 19.50,204.00 19.50,203.00 19.50,202.00 20.00,201.50 20.50,201.00 21.00,200.50 21.50,200.00 22.00,199.50 22.50,199.00 23.00,198.50 23.50,198.00 24.00,197.50 24.50,197.00 25.00,196.50 25.50,196.00 26.00,195.50 26.50,195.00 27.00,194.50 27.50,194.00 28.00,193.50 28.50,193.00 28.50,192.00 29.00,191.50 29.50,191.00 30.00,190.50 30.50,190.00 30.50,189.00 31.00,188.50 31.50,188.00 31.50,187.00 31.50,186.00 32.00,185.50 32.50,185.00 32.50,184.00 32.50,183.00 32.50,182.00 33.00,181.50 33.50,181.00 33.50,180.00 33.50,179.00 33.50,178.00 33.50,177.00 33.50,176.00 33.50,175.00 33.50,174.00 33.50,173.00 33.50,172.00 33.50,171.00 33.50,170.00 33.50,169.00 33.50,168.00 33.50,167.00 33.50,166.00 33.50,165.00 33.50,164.00 33.50,163.00 33.50,162.00 33.50,161.00 33.50,160.00 33.50,159.00 33.50,158.00 33.50,157.00 33.50,156.00 33.50,155.00 33.50,154.00 33.50,153.00 33.50,152.00 33.50,151.00 33.50,150.00 33.50,149.00 33.50,148.00 33.50,147.00 33.50,146.00 33.50,145.00 33.50,144.00 33.50,143.00 33.50,142.00 33.50,141.00 33.50,140.00 33.50,139.00 33.50,138.00 33.50,137.00 33.50,136.00 33.50,135.00 33.50,134.00 33.50,133.00 33.50,132.00 33.50,131.00 33.50,130.00 33.50,129.00 33.50,128.00 33.50,127.00 33.50,126.00 33.50,125.00 33.50,124.00 33.50,123.00 33.50,122.00 33.50,121.00 33.50,120.00 33.50,119.00 33.50,118.00 33.50,117.00 33.50,116.00 33.50,115.00 33.50,114.00 33.50,113.00 33.50,112.00 33.50,111.00 33.50,110.00 33.50,109.00 33.50,108.00 33.50,107.00 33.50,106.00 33.50,105.00 33.50,104.00 33.50,103.00 33.50,102.00 33.50,101.00 33.50,100.00 33.50,99.00 33.00,98.50 32.00,98.50 31.00,98.50 30.00,98.50 29.00,98.50 28.00,98.50 27.00,98.50 26.00,98.50 25.50,98.00 25.00,97.50 24.00,97.50 23.50,97.00 23.00,96.50 22.50,96.00 22.00,95.50 21.50,95.00 21.50,94.00 21.00,93.50 20.50,93.00 20.50,92.00 20.50,91.00 20.50,90.00 20.00,89.50 19.50,89.00 20.00,88.50 20.50,88.00 20.50,87.00 20.50,86.00 20.50,85.00 21.00,84.50 21.50,84.00 21.50,83.00 22.00,82.50 22.50,82.00 23.00,81.50 23.50,81.00 24.00,80.50 24.50,80.00 25.00,79.50 26.00,79.50 26.50,79.00 27.00,78.50 28.00,78.50 29.00,78.50 30.00,78.50 31.00,78.50 32.00,78.50 33.00,78.50 34.00,78.50 35.00,78.50 36.00,78.50 37.00,78.50 38.00,78.50 39.00,78.50 40.00,78.50 41.00,78.50 42.00,78.50 43.00,78.50 44.00,78.50 45.00,78.50 46.00,78.50 47.00,78.50 48.00,78.50 49.00,78.50 50.00,78.50 51.00,78.50 52.00,78.50 53.00,78.50 54.00,78.50 55.00,78.50 56.00,78.50 57.00,78.50 58.00,78.50 59.00,78.50 60.00,78.50 61.00,78.50 62.00,78.50 63.00,78.50 64.00,78.50 65.00,78.50 66.00,78.50 67.00,78.50 68.00,78.50 69.00,78.50 70.00,78.50 71.00,78.50 72.00,78.50 73.00,78.50 74.00,78.50 75.00,78.50 76.00,78.50 77.00,78.50 78.00,78.50 79.00,78.50 80.00,78.50 81.00,78.50 82.00,78.50 83.00,78.50 84.00,78.50 85.00,78.50 86.00,78.50 87.00,78.50 88.00,78.50 89.00,78.50 90.00,78.50 91.00,78.50 92.00,78.50 93.00,78.50 94.00,78.50 95.00,78.50 96.00,78.50 97.00,78.50 98.00,78.50 99.00,78.50 100.00,78.50 101.00,78.50 102.00,78.50 103.00,78.50 104.00,78.50 105.00,78.50 106.00,78.50 107.00,78.50 108.00,78.50 109.00,78.50 110.00,78.50 111.00,78.50 112.00,78.50 113.00,78.50 114.00,78.50 115.00,78.50 116.00,78.50 117.00,78.50 118.00,78.50 119.00,78.50 120.00,78.50 121.00,78.50 122.00,78.50 123.00,78.50 124.00,78.50 125.00,78.50 126.00,78.50 127.00,78.50 128.00,78.50 129.00,78.50 130.00,78.50 131.00,78.50 132.00,78.50 133.00,78.50 133.50,78.00 133.50,77.00 134.00,76.50 134.50,76.00 134.50,75.00 135.00,74.50 135.50,74.00 136.00,73.50 136.50,73.00 136.50,72.00 137.00,71.50 137.50,71.00 138.00,70.50 138.50,70.00 139.00,69.50 140.00,69.50 140.50,69.00 141.00,68.50 141.50,68.00 142.00,67.50 143.00,67.50 143.50,67.00 144.00,66.50 145.00,66.50 145.50,66.00 146.00,65.50 147.00,65.50 148.00,65.50 149.00,65.50 149.50,65.00 150.00,64.50 150.50,65.00 151.00,65.50 151.50,65.00 152.00,64.50 152.50,65.00 153.00,65.50 154.00,65.50 154.50,65.00 155.00,64.50 155.50,65.00 156.00,65.50 157.00,65.50 158.00,65.50 159.00,65.50 160.00,65.50 160.50,66.00 161.00,66.50 162.00,66.50 162.50,67.00 163.00,67.50 164.00,67.50 164.50,68.00 165.00,68.50 165.50,69.00 166.00,69.50 166.50,70.00 167.00,70.50 167.50,71.00 168.00,71.50 168.50,72.00 169.00,72.50 169.50,73.00 170.00,73.50 170.50,74.00 170.50,75.00 171.00,75.50 171.50,76.00 171.50,77.00 172.00,77.50 172.50,78.00 173.00,78.50 174.00,78.50 175.00,78.50 176.00,78.50 177.00,78.50 178.00,78.50 179.00,78.50 180.00,78.50 181.00,78.50 182.00,78.50 183.00,78.50 184.00,78.50 185.00,78.50 186.00,78.50 187.00,78.50 188.00,78.50 189.00,78.50 190.00,78.50 191.00,78.50 192.00,78.50 193.00,78.50 194.00,78.50 195.00,78.50 196.00,78.50 197.00,78.50 198.00,78.50 199.00,78.50 200.00,78.50 201.00,78.50 202.00,78.50 203.00,78.50 204.00,78.50 205.00,78.50 206.00,78.50 207.00,78.50 208.00,78.50 209.00,78.50 210.00,78.50 211.00,78.50 212.00,78.50 213.00,78.50 214.00,78.50 215.00,78.50 216.00,78.50 217.00,78.50 218.00,78.50 219.00,78.50 220.00,78.50 221.00,78.50 222.00,78.50 223.00,78.50 224.00,78.50 225.00,78.50 226.00,78.50 227.00,78.50 228.00,78.50 229.00,78.50 230.00,78.50 231.00,78.50 232.00,78.50 233.00,78.50 234.00,78.50 235.00,78.50 236.00,78.50 237.00,78.50 238.00,78.50 239.00,78.50 240.00,78.50 241.00,78.50 242.00,78.50 243.00,78.50 244.00,78.50 245.00,78.50 246.00,78.50 247.00,78.50 248.00,78.50 249.00,78.50 250.00,78.50 251.00,78.50 251.50,79.00 252.00,79.50 253.00,79.50 253.50,80.00 254.00,80.50 254.50,81.00 255.00,81.50 255.50,82.00 255.50,83.00 256.00,83.50 256.50,84.00 256.50,85.00 256.50,86.00 257.00,86.50 257.50,87.00 257.50,88.00 257.50,89.00 257.50,90.00 257.00,90.50 256.50,91.00 256.50,92.00 256.50,93.00 256.00,93.50 255.50,94.00 255.50,95.00 255.00,95.50 254.50,96.00 254.00,96.50 253.50,97.00 253.00,97.50 252.50,98.00 252.00,98.50 251.00,98.50 250.00,98.50 249.00,98.50 248.00,98.50 247.00,98.50 246.00,98.50 245.00,98.50 244.00,98.50 243.00,98.50 242.00,98.50 241.00,98.50 240.00,98.50 239.00,98.50 238.00,98.50 237.00,98.50 236.00,98.50 235.00,98.50 234.00,98.50 233.00,98.50 232.00,98.50 231.00,98.50 230.00,98.50 229.00,98.50 228.00,98.50 227.00,98.50 226.00,98.50 225.00,98.50 224.00,98.50 223.00,98.50 222.00,98.50 221.00,98.50 220.00,98.50 219.00,98.50 218.00,98.50 217.00,98.50 216.00,98.50 215.00,98.50 214.00,98.50 213.00,98.50 212.00,98.50 211.00,98.50 210.00,98.50 209.00,98.50 208.00,98.50 207.00,98.50 206.00,98.50 205.00,98.50 204.00,98.50 203.00,98.50 202.00,98.50 201.00,98.50 200.00,98.50 199.00,98.50 198.00,98.50 197.00,98.50 196.00,98.50 195.00,98.50 194.00,98.50 193.00,98.50 192.00,98.50 191.00,98.50 190.00,98.50 189.00,98.50 188.00,98.50 187.00,98.50 186.00,98.50 185.00,98.50 184.00,98.50 183.00,98.50 182.00,98.50 181.00,98.50 180.00,98.50 179.00,98.50 178.00,98.50 177.00,98.50 176.00,98.50 175.00,98.50 174.50,99.00 174.50,100.00 174.50,101.00 174.50,102.00 174.50,103.00 174.50,104.00 174.50,105.00 174.50,106.00 174.50,107.00 174.50,108.00 174.50,109.00 174.50,110.00 174.50,111.00 175.00,111.50 176.00,111.50 177.00,111.50 178.00,111.50 179.00,111.50 180.00,111.50 181.00,111.50 182.00,111.50 183.00,111.50 184.00,111.50 185.00,111.50 186.00,111.50 187.00,111.50 188.00,111.50 189.00,111.50 190.00,111.50 191.00,111.50 192.00,111.50 193.00,111.50 194.00,111.50 195.00,111.50 196.00,111.50 197.00,111.50 198.00,111.50 199.00,111.50 200.00,111.50 201.00,111.50 202.00,111.50 203.00,111.50 204.00,111.50 205.00,111.50 206.00,111.50 207.00,111.50 208.00,111.50 209.00,111.50 210.00,111.50 211.00,111.50 212.00,111.50 213.00,111.50 214.00,111.50 215.00,111.50 216.00,111.50 217.00,111.50 218.00,111.50 219.00,111.50 220.00,111.50 221.00,111.50 222.00,111.50 223.00,111.50 224.00,111.50 225.00,111.50 226.00,111.50 227.00,111.50 228.00,111.50 229.00,111.50 230.00,111.50 231.00,111.50 232.00,111.50 233.00,111.50 234.00,111.50 235.00,111.50 236.00,111.50 237.00,111.50 238.00,111.50 239.00,111.50 240.00,111.50 241.00,111.50 242.00,111.50 243.00,111.50 244.00,111.50 245.00,111.50 246.00,111.50 247.00,111.50 248.00,111.50 249.00,111.50 250.00,111.50 251.00,111.50 252.00,111.50 253.00,111.50 254.00,111.50 255.00,111.50 256.00,111.50 256.50,112.00 257.00,112.50 258.00,112.50 259.00,112.50 259.50,113.00 260.00,113.50 260.50,114.00 261.00,114.50 261.50,115.00 262.00,115.50 262.50,116.00 262.50,117.00 263.00,117.50 263.50,118.00 263.50,119.00 263.50,120.00 263.50,121.00 263.50,122.00 263.50,123.00 263.50,124.00 263.50,125.00 263.50,126.00 263.00,126.50 262.50,127.00 262.50,128.00 262.00,128.50 261.50,129.00 261.00,129.50 260.50,130.00 260.00,130.50 259.50,131.00 259.00,131.50 258.00,131.50 257.50,132.00 257.00,132.50 256.00,132.50 255.00,132.50 254.00,132.50 253.00,132.50 252.00,132.50 251.00,132.50 250.00,132.50 249.00,132.50 248.00,132.50 247.00,132.50 246.00,132.50 245.00,132.50 244.00,132.50 243.00,132.50 242.00,132.50 241.00,132.50 240.00,132.50 239.00,132.50 238.00,132.50 237.00,132.50 236.00,132.50 235.00,132.50 234.00,132.50 233.00,132.50 232.00,132.50 231.00,132.50 230.00,132.50 229.00,132.50 228.00,132.50 227.00,132.50 226.00,132.50 225.00,132.50 224.00,132.50 223.00,132.50 222.00,132.50 221.00,132.50 220.00,132.50 219.00,132.50 218.00,132.50 217.00,132.50 216.00,132.50 215.00,132.50 214.00,132.50 213.00,132.50 212.00,132.50 211.00,132.50 210.00,132.50 209.00,132.50 208.00,132.50 207.00,132.50 206.00,132.50 205.00,132.50 204.00,132.50 203.00,132.50 202.00,132.50 201.00,132.50 200.00,132.50 199.00,132.50 198.00,132.50 197.00,132.50 196.00,132.50 195.00,132.50 194.00,132.50 193.00,132.50 192.00,132.50 191.00,132.50 190.00,132.50 189.00,132.50 188.00,132.50 187.00,132.50 186.00,132.50 185.00,132.50 184.00,132.50 183.00,132.50 182.00,132.50 181.00,132.50 180.00,132.50 179.00,132.50 178.00,132.50 177.00,132.50 176.00,132.50 175.00,132.50 174.50,133.00 174.50,134.00 174.50,135.00 174.50,136.00 174.50,137.00 174.50,138.00 174.50,139.00 174.50,140.00 174.50,141.00 174.50,142.00 174.50,143.00 174.50,144.00 174.50,145.00 174.50,146.00 174.50,147.00 174.50,148.00 175.00,148.50 176.00,148.50 177.00,148.50 178.00,148.50 179.00,148.50 180.00,148.50 181.00,148.50 182.00,148.50 183.00,148.50 184.00,148.50 185.00,148.50 186.00,148.50 187.00,148.50 188.00,148.50 189.00,148.50 190.00,148.50 191.00,148.50 192.00,148.50 193.00,148.50 194.00,148.50 195.00,148.50 196.00,148.50 197.00,148.50 198.00,148.50 199.00,148.50 200.00,148.50 201.00,148.50 202.00,148.50 203.00,148.50 204.00,148.50 205.00,148.50 206.00,148.50 207.00,148.50 208.00,148.50 209.00,148.50 210.00,148.50 211.00,148.50 212.00,148.50 213.00,148.50 214.00,148.50 215.00,148.50 216.00,148.50 217.00,148.50 218.00,148.50 219.00,148.50 220.00,148.50 221.00,148.50 222.00,148.50 223.00,148.50 224.00,148.50 225.00,148.50 226.00,148.50 227.00,148.50 228.00,148.50 229.00,148.50 230.00,148.50 231.00,148.50 232.00,148.50 233.00,148.50 234.00,148.50 235.00,148.50 236.00,148.50 237.00,148.50 238.00,148.50 239.00,148.50 240.00,148.50 241.00,148.50 242.00,148.50 243.00,148.50 244.00,148.50 245.00,148.50 246.00,148.50 247.00,148.50 248.00,148.50 249.00,148.50 249.50,149.00 250.00,149.50 251.00,149.50 251.50,150.00 252.00,150.50 253.00,150.50 253.50,151.00 254.00,151.50 255.00,151.50 255.50,152.00 256.00,152.50 256.50,153.00 257.00,153.50 257.50,154.00 258.00,154.50 258.50,155.00 259.00,155.50 259.50,156.00 259.50,157.00 260.00,157.50 260.50,158.00 261.00,158.50 261.50,159.00 261.50,160.00 261.50,161.00 262.00,161.50 262.50,162.00 262.50,163.00 262.50,164.00 263.00,164.50 263.50,165.00 263.50,166.00 263.50,167.00 263.50,168.00 263.50,169.00 263.50,170.00 263.50,171.00 263.50,172.00 263.50,173.00 263.50,174.00 263.50,175.00 263.50,176.00 263.50,177.00 263.50,178.00 263.50,179.00 263.50,180.00 263.50,181.00 263.50,182.00 263.50,183.00 263.50,184.00 263.50,185.00 263.50,186.00 263.50,187.00 263.50,188.00 263.50,189.00 263.50,190.00 263.50,191.00 263.50,192.00 263.50,193.00 263.50,194.00 263.50,195.00 263.50,196.00 263.50,197.00 263.00,197.50 262.50,198.00 262.50,199.00 262.50,200.00 262.00,200.50 261.50,201.00 261.50,202.00 261.00,202.50 260.50,203.00 260.50,204.00 260.00,204.50 259.50,205.00 259.50,206.00 259.00,206.50 258.50,207.00 258.00,207.50 257.50,208.00 257.00,208.50 256.50,209.00 256.00,209.50 255.50,210.00 255.00,210.50 254.00,210.50 253.50,211.00 253.00,211.50 252.00,211.50 251.50,212.00 251.00,212.50 250.00,212.50 249.00,212.50 248.50,213.00 248.00,213.50 247.00,213.50 246.00,213.50 245.00,213.50 244.00,213.50 243.00,213.50 242.00,213.50 241.00,213.50 240.00,213.50 239.00,213.50 238.00,213.50 237.00,213.50 236.00,213.50 235.00,213.50 234.00,213.50 233.00,213.50 232.00,213.50 231.00,213.50 230.00,213.50 229.00,213.50 228.00,213.50 227.00,213.50 226.00,213.50 225.00,213.50 224.00,213.50 223.00,213.50 222.00,213.50 221.00,213.50 220.00,213.50 219.00,213.50 218.00,213.50 217.00,213.50 216.00,213.50 215.00,213.50 214.00,213.50 213.00,213.50 212.00,213.50 211.00,213.50 210.00,213.50 209.00,213.50 208.00,213.50 207.00,213.50 206.00,213.50 205.00,213.50 204.00,213.50 203.00,213.50 202.00,213.50 201.00,213.50 200.00,213.50 199.00,213.50 198.00,213.50 197.00,213.50 196.00,213.50 195.00,213.50 194.00,213.50 193.00,213.50 192.00,213.50 191.00,213.50 190.00,213.50 189.00,213.50 188.00,213.50 187.00,213.50 186.00,213.50 185.00,213.50 184.00,213.50 183.00,213.50 182.00,213.50 181.00,213.50 180.00,213.50 179.00,213.50 178.00,213.50 177.00,213.50 176.00,213.50 175.00,213.50 174.00,213.50 173.00,213.50 172.00,213.50 171.00,213.50 170.00,213.50 169.00,213.50 168.00,213.50 167.00,213.50 166.00,213.50 165.00,213.50 164.00,213.50 163.00,213.50 162.00,213.50 161.00,213.50 160.00,213.50 159.00,213.50 158.00,213.50 157.00,213.50 156.00,213.50 155.00,213.50 154.00,213.50 153.00,213.50 152.00,213.50 151.00,213.50 150.00,213.50 149.00,213.50 148.00,213.50 147.00,213.50 146.00,213.50 145.00,213.50 144.00,213.50 143.00,213.50 142.00,213.50 141.00,213.50 140.00,213.50 139.00,213.50 138.00,213.50 137.00,213.50 136.00,213.50 135.00,213.50 134.00,213.50 133.00,213.50 132.00,213.50 131.00,213.50 130.00,213.50 129.00,213.50 128.00,213.50 127.00,213.50 126.00,213.50 125.00,213.50 124.00,213.50 123.00,213.50 122.00,213.50 121.00,213.50 120.00,213.50 119.00,213.50 118.00,213.50 117.00,213.50 116.00,213.50 115.00,213.50 114.00,213.50 113.00,213.50 112.00,213.50 111.00,213.50 110.00,213.50 109.00,213.50 108.00,213.50 107.00,213.50 106.00,213.50 105.00,213.50 104.00,213.50 103.00,213.50 102.00,213.50 101.00,213.50 100.00,213.50 99.00,213.50 98.00,213.50 97.00,213.50 96.00,213.50 95.00,213.50 94.00,213.50 93.00,213.50 92.00,213.50 91.00,213.50 90.00,213.50 89.00,213.50 88.00,213.50 87.00,213.50 86.00,213.50 85.00,213.50 84.50,213.00 84.00,212.50 83.00,212.50 82.00,212.50 81.50,212.00 81.00,211.50 80.00,211.50 79.50,211.00 79.00,210.50 78.00,210.50 77.50,210.00 77.00,209.50 76.50,209.00 76.00,208.50 75.50,208.00 75.00,207.50 74.50,207.00 74.00,206.50 73.50,206.00 73.00,205.50 72.50,205.00 72.50,204.00 72.00,203.50 71.50,203.00 71.50,202.00 71.00,201.50 70.50,201.00 70.50,200.00 70.50,199.00 70.00,198.50 69.50,198.00 69.50,197.00 69.50,196.00 69.50,195.00 69.50,194.00 69.50,193.00 69.50,192.00 69.50,191.00 69.50,190.00 69.50,189.00 69.50,188.00 69.00,187.50 68.50,188.00 68.50,189.00 68.00,189.50 67.50,190.00 67.50,191.00 67.50,192.00 67.00,192.50 66.50,193.00 66.50,194.00 66.00,194.50 65.50,195.00 65.00,195.50 64.50,196.00 64.50,197.00 64.00,197.50 63.50,198.00 63.50,199.00 63.00,199.50 62.50,200.00 62.00,200.50 61.50,201.00 61.00,201.50 60.50,202.00 60.00,202.50 59.50,203.00 59.00,203.50 58.50,204.00 58.00,204.50 57.50,205.00 57.00,205.50 56.50,206.00 56.00,206.50 55.50,207.00 55.00,207.50 54.50,208.00 54.00,208.50 53.00,208.50 52.50,209.00 52.00,209.50 51.50,210.00 51.00,210.50 50.00,210.50 49.50,211.00 49.00,211.50 48.00,211.50 47.50,212.00 47.00,212.50 46.00,212.50 45.50,213.00 45.00,213.50 44.00,213.50 43.50,214.00 43.00,214.50 42.00,214.50 41.00,214.50 40.50,215.00 40.00,215.50 39.00,215.50 38.00,215.50 37.50,216.00 37.00,216.50 36.00,216.50 35.00,216.50 34.00,216.50 33.50,217.00 33.00,217.50" />
<polyline fill="none" stroke="#00aa00" stroke-width="1" stroke-dasharray="3,2" points="152.00,88.50 151.50,88.00 151.50,87.00 152.00,86.50 152.50,87.00 152.50,88.00 152.00,88.50" />
<polyline fill="none" stroke="#00aa00" stroke-width="1" stroke-dasharray="3,2" points="43.00,88.50 42.00,88.50 41.00,88.50 40.00,88.50 39.00,88.50 38.00,88.50 37.00,88.50 36.50,88.00 37.00,87.50 38.00,87.50 39.00,87.50 40.00,87.50 41.00,87.50 42.00,87.50 43.00,87.50 43.50,88.00 43.00,88.50" />
<polyline fill="none" stroke="#00aa00" stroke-width="1" stroke-dasharray="3,2" points="141.00,88.50 140.00,88.50 139.00,88.50 138.00,88.50 137.00,88.50 136.00,88.50 135.00,88.50 134.00,88.50 133.00,88.50 132.00,88.50 131.00,88.50 130.00,88.50 129.00,88.50 128.00,88.50 127.00,88.50 126.00,88.50 125.00,88.50 124.00,88.50 123.00,88.50 122.00,88.50 121.00,88.50 120.00,88.50 119.00,88.50 118.00,88.50 117.00,88.50 116.00,88.50 115.00,88.50 114.00,88.50 113.00,88.50 112.00,88.50 111.00,88.50 110.00,88.50 109.00,88.50 108.00,88.50 107.00,88.50 106.00,88.50 105.00,88.50 104.00,88.50 103.00,88.50 102.00,88.50 101.00,88.50 100.00,88.50 99.00,88.50 98.00,88.50 97.00,88.50 96.00,88.50 95.00,88.50 94.00,88.50 93.00,88.50 92.00,88.50 91.00,88.50 90.00,88.50 89.00,88.50 88.00,88.50 87.00,88.50 86.00,88.50 85.00,88.50 84.00,88.50 83.00,88.50 82.00,88.50 81.00,88.50 80.00,88.50 79.00,88.50 78.00,88.50 77.00,88.50 76.00,88.50 75.00,88.50 74.00,88.50 73.00,88.50 72.00,88.50 71.00,88.50 70.00,88.50 69.00,88.50 68.00,88.50 67.00,88.50 66.00,88.50 65.00,88.50 64.00,88.50 63.00,88.50 62.00,88.50 61.50,88.00 62.00,87.50 63.00,87.50 64.00,87.50 65.00,87.50 66.00,87.50 67.00,87.50 68.00,87.50 69.00,87.50 70.00,87.50 71.00,87.50 72.00,87.50 73.00,87.50 74.00,87.50 75.00,87.50 76.00,87.50 77.00,87.50 78.00,87.50 79.00,87.50 80.00,87.50 81.00,87.50 82.00,87.50 83.00,87.50 84.00,87.50 85.00,87.50 86.00,87.50 87.00,87.50 88.00,87.50 89.00,87.50 90.00,87.50 91.00,87.50 92.00,87.50 93.00,87.50 94.00,87.50 95.00,87.50 96.00,87.50 97.00,87.50 98.00,87.50 99.00,87.50 100.00,87.50 101.00,87.50 102.00,87.50 103.00,87.50 104.00,87.50 105.00,87.50 106.00,87.50 107.00,87.50 108.00,87.50 109.00,87.50 110.00,87.50 111.00,87.50 112.00,87.50 113.00,87.50 114.00,87.50 115.00,87.50 116.00,87.50 117.00,87.50 118.00,87.50 119.00,87.50 120.00,87.50 121.00,87.50 122.00,87.50 123.00,87.50 124.00,87.50 125.00,87.50 126.00,87.50 127.00,87.50 128.00,87.50 129.00,87.50 130.00,87.50 131.00,87.50 132.00,87.50 133.00,87.50 134.00,87.50 135.00,87.50 136.00,87.50 137.00,87.50 138.00,87.50 139.00,87.50 140.00,87.50 141.00,87.50 141.50,88.00 141.00,88.50" />
<polyline fill="none" stroke="#00aa00" stroke-width="1" stroke-dasharray="3,2" points="241.00,88.50 240.00,88.50 239.00,88.50 238.00,88.50 237.00,88.50 236.00,88.50 235.00,88.50 234.00,88.50 233.00,88.50 232.00,88.50 231.00,88.50 230.00,88.50 229.00,88.50 228.00,88.50 227.00,88.50 226.00,88.50 225.00,88.50 224.00,88.50 223.00,88.50 222.00,88.50 221.00,88.50 220.00,88.50 219.00,88.50 218.00,88.50 217.00,88.50 216.00,88.50 215.00,88.50 214.00,88.50 213.00,88.50 212.00,88.50 211.00,88.50 210.00,88.50 209.00,88.50 208.00,88.50 207.00,88.50 206.00,88.50 205.00,88.50 204.00,88.50 203.00,88.50 202.00,88.50 201.00,88.50 200.00,88.50 199.00,88.50 198.00,88.50 197.00,88.50 196.00,88.50 195.00,88.50 194.00,88.50 193.00,88.50 192.00,88.50 191.00,88.50 190.00,88.50 189.00,88.50 188.00,88.50 187.00,88.50 186.00,88.50 185.00,88.50 184.00,88.50 183.00,88.50 182.00,88.50 181.00,88.50 180.00,88.50 179.00,88.50 178.00,88.50 177.00,88.50 176.00,88.50 175.00,88.50 174.00,88.50 173.00,88.50 172.00,88.50 171.00,88.50 170.00,88.50 169.00,88.50 168.00,88.50 167.00,88.50 166.00,88.50 165.00,88.50 164.50,88.00 165.00,87.50 166.00,87.50 167.00,87.50 168.00,87.50 169.00,87.50 170.00,87.50 171.00,87.50 172.00,87.50 173.00,87.50 174.00,87.50 175.00,87.50 176.00,87.50 177.00,87.50 178.00,87.50 179.00,87.50 180.00,87.50 181.00,87.50 182.00,87.50 183.00,87.50 184.00,87.50 185.00,87.50 186.00,87.50 187.00,87.50 188.00,87.50 189.00,87.50 190.00,87.50 191.00,87.50 192.00,87.50 193.00,87.50 194.00,87.50 195.00,87.50 196.00,87.50 197.00,87.50 198.00,87.50 199.00,87.50 200.00,87.50 201.00,87.50 202.00,87.50 203.00,87.50 204.00,87.50 205.00,87.50 206.00,87.50 207.00,87.50 208.00,87.50 209.00,87.50 210.00,87.50 211.00,87.50 212.00,87.50 213.00,87.50 214.00,87.50 215.00,87.50 216.00,87.50 217.00,87.50 218.00,87.50 219.00,87.50 220.00,87.50 221.00,87.50 222.00,87.50 223.00,87.50 224.00,87.50 225.00,87.50 226.00,87.50 227.00,87.50 228.00,87.50 229.00,87.50 230.00,87.50 231.00,87.50 232.00,87.50 233.00,87.50 234.00,87.50 235.00,87.50 236.00,87.50 237.00,87.50 238.00,87.50 239.00,87.50 240.00,87.50 241.00,87.50 241.50,88.00 241.00,88.50" />
<polyline fill="none" stroke="#00aa00" stroke-width="1" stroke-dasharray="3,2" points="244.00,88.50 243.50,88.00 244.00,87.50 244.50,88.00 244.00,88.50" />
<polyline fill="none" stroke="#00aa00" stroke-width="1" stroke-dasharray="3,2" points="36.00,89.50 35.00,89.50 34.00,89.50 33.00,89.50 32.00,89.50 31.00,89.50 30.50,89.00 31.00,88.50 32.00,88.50 33.00,88.50 34.00,88.50 35.00,88.50 36.00,88.50 36.50,89.00 36.00,89.50" />
<polyline fill="none" stroke="#00aa00" stroke-width="1" stroke-dasharray="3,2" points="44.00,89.50 43.50,89.00 44.00,88.50 44.50,89.00 44.00,89.50" />
<polyline fill="none" stroke="#00aa00" stroke-width="1" stroke-dasharray="3,2" points="61.00,89.50 60.50,89.00 61.00,88.50 61.50,89.00 61.00,89.50" />
<polyline fill="none" stroke="#00aa00" stroke-width="1" stroke-dasharray="3,2" points="142.00,89.50 141.50,89.00 142.00,88.50 142.50,89.00 142.00,89.50" />
<polyline fill="none" stroke="#00aa00" stroke-width="1" stroke-dasharray="3,2" points="153.00,148.50 152.00,148.50 151.50,148.00 152.00,147.50 152.50,147.00 152.50,146.00 152.50,145.00 152.50,144.00 152.50,143.00 152.50,142.00 152.50,141.00 152.50,140.00 152.50,139.00 152.50,138.00 152.50,137.00 152.50,136.00 152.50,135.00 152.50,134.00 152.50,133.00 152.50,132.00 152.50,131.00 152.50,130.00 152.50,129.00 152.50,128.00 152.50,127.00 152.50,126.00 152.50,125.00 152.50,124.00 152.50,123.00 152.50,122.00 152.50,121.00 152.50,120.00 152.50,119.00 152.50,118.00 152.50,117.00 152.50,116.00 152.50,115.00 152.50,114.00 152.50,113.00 152.50,112.00 152.50,111.00 152.50,110.00 152.50,109.00 152.50,108.00 152.50,107.00 152.50,106.00 152.50,105.00 152.50,104.00 152.50,103.00 152.50,102.00 152.50,101.00 152.50,100.00 152.00,99.50 151.50,99.00 152.00,98.50 152.50,98.00 152.50,97.00 152.50,96.00 152.50,95.00 152.50,94.00 152.50,93.00 152.50,92.00 152.50,91.00 152.50,90.00 152.50,89.00 153.00,88.50 153.50,89.00 153.50,90.00 153.50,91.00 153.50,92.00 153.50,93.00 153.50,94.00 153.50,95.00 153.50,96.00 153.50,97.00 154.00,97.50 155.00,97.50 155.50,98.00 155.00,98.50 154.00,98.50 153.50,99.00 153.50,100.00 153.50,101.00 153.50,102.00 153.50,103.00 153.50,104.00 153.50,105.00 153.50,106.00 153.50,107.00 153.50,108.00 153.50,109.00 153.50,110.00 153.50,111.00 153.50,112.00 153.50,113.00 153.50,114.00 153.50,115.00 153.50,116.00 153.50,117.00 153.50,118.00 153.50,119.00 153.50,120.00 153.50,121.00 154.00,121.50 155.00,121.50 156.00,121.50 157.00,121.50 158.00,121.50 159.00,121.50 160.00,121.50 161.00,121.50 162.00,121.50 163.00,121.50 164.00,121.50 165.00,121.50 166.00,121.50 167.00,121.50 168.00,121.50 169.00,121.50 170.00,121.50 171.00,121.50 172.00,121.50 173.00,121.50 174.00,121.50 175.00,121.50 176.00,121.50 177.00,121.50 178.00,121.50 179.00,121.50 180.00,121.50 181.00,121.50 182.00,121.50 183.00,121.50 184.00,121.50 185.00,121.50 186.00,121.50 187.00,121.50 188.00,121.50 189.00,121.50 190.00,121.50 191.00,121.50 192.00,121.50 193.00,121.50 194.00,121.50 195.00,121.50 196.00,121.50 197.00,121.50 198.00,121.50 199.00,121.50 200.00,121.50 201.00,121.50 202.00,121.50 203.00,121.50 204.00,121.50 205.00,121.50 206.00,121.50 207.00,121.50 208.00,121.50 209.00,121.50 210.00,121.50 211.00,121.50 212.00,121.50 213.00,121.50 214.00,121.50 215.00,121.50 216.00,121.50 217.00,121.50 218.00,121.50 219.00,121.50 220.00,121.50 221.00,121.50 222.00,121.50 223.00,121.50 224.00,121.50 225.00,121.50 226.00,121.50 227.00,121.50 228.00,121.50 229.00,121.50 230.00,121.50 231.00,121.50 232.00,121.50 233.00,121.50 234.00,121.50 235.00,121.50 236.00,121.50 237.00,121.50 238.00,121.50 239.00,121.50 240.00,121.50 241.00,121.50 242.00,121.50 243.00,121.50 244.00,121.50 245.00,121.50 246.00,121.50 247.00,121.50 248.00,121.50 249.00,121.50 250.00,121.50 251.00,121.50 251.50,122.00 251.00,122.50 250.00,122.50 249.00,122.50 248.00,122.50 247.00,122.50 246.00,122.50 245.00,122.50 244.00,122.50 243.00,122.50 242.00,122.50 241.00,122.50 240.00,122.50 239.00,122.50 238.00,122.50 237.00,122.50 236.00,122.50 235.00,122.50 234.00,122.50 233.00,122.50 232.00,122.50 231.00,122.50 230.00,122.50 229.00,122.50 228.00,122.50 227.00,122.50 226.00,122.50 225.00,122.50 224.00,122.50 223.00,122.50 222.00,122.50 221.00,122.50 220.00,122.50 219.00,122.50 218.00,122.50 217.00,122.50 216.00,122.50 215.00,122.50 214.00,122.50 213.00,122.50 212.00,122.50 211.00,122.50 210.00,122.50 209.00,122.50 208.00,122.50 207.00,122.50 206.00,122.50 205.00,122.50 204.00,122.50 203.00,122.50 202.00,122.50 201.00,122.50 200.00,122.50 199.00,122.50 198.00,122.50 197.00,122.50 196.00,122.50 195.00,122.50 194.00,122.50 193.00,122.50 192.00,122.50 191.00,122.50 190.00,122.50 189.00,122.50 188.00,122.50 187.00,122.50 186.00,122.50 185.00,122.50 184.00,122.50 183.00,122.50 182.00,122.50 181.00,122.50 180.00,122.50 179.00,122.50 178.00,122.50 177.00,122.50 176.00,122.50 175.00,122.50 174.00,122.50 173.00,122.50 172.00,122.50 171.00,122.50 170.00,122.50 169.00,122.50 168.00,122.50 167.00,122.50 166.00,122.50 165.00,122.50 164.00,122.50 163.00,122.50 162.00,122.50 161.00,122.50 160.00,122.50 159.00,122.50 158.00,122.50 157.00,122.50 156.00,122.50 155.00,122.50 154.00,122.50 153.50,123.00 153.50,124.00 153.50,125.00 153.50,126.00 153.50,127.00 153.50,128.00 153.50,129.00 153.50,130.00 153.50,131.00 153.50,132.00 153.50,133.00 153.50,134.00 153.50,135.00 153.50,136.00 153.50,137.00 153.50,138.00 153.50,139.00 153.50,140.00 153.50,141.00 153.50,142.00 153.50,143.00 153.50,144.00 153.50,145.00 153.50,146.00 153.50,147.00 153.50,148.00 153.00,148.50" />
<polyline fill="none" stroke="#00aa00" stroke-width="1" stroke-dasharray="3,2" points="164.00,89.50 163.50,89.00 164.00,88.50 164.50,89.00 164.00,89.50" />
<polyline fill="none" stroke="#00aa00" stroke-width="1" stroke-dasharray="3,2" points="243.00,89.50 242.00,89.50 241.50,89.00 242.00,88.50 243.00,88.50 243.50,89.00 243.00,89.50" />
<polyline fill="none" stroke="#00aa00" stroke-width="1" stroke-dasharray="3,2" points="45.00,90.50 44.50,90.00 45.00,89.50 45.50,90.00 45.00,90.50" />
<polyline fill="none" stroke="#00aa00" stroke-width="1" stroke-dasharray="3,2" points="60.00,90.50 59.50,90.00 60.00,89.50 60.50,90.00 60.00,90.50" />
<polyline fill="none" stroke="#00aa00" stroke-width="1" stroke-dasharray="3,2" points="143.00,90.50 142.50,90.00 143.00,89.50 143.50,90.00 143.00,90.50" />
<polyline fill="none" stroke="#00aa00" stroke-width="1" stroke-dasharray="3,2" points="163.00,90.50 162.50,90.00 163.00,89.50 163.50,90.00 163.00,90.50" />
<polyline fill="none" stroke="#00aa00" stroke-width="1" stroke-dasharray="3,2" points="46.00,91.50 45.50,91.00 46.00,90.50 46.50,91.00 46.00,91.50" />
<polyline fill="none" stroke="#00aa00" stroke-width="1" stroke-dasharray="3,2" points="59.00,91.50 58.50,91.00 59.00,90.50 59.50,91.00 59.00,91.50" />
<polyline fill="none" stroke="#00aa00" stroke-width="1" stroke-dasharray="3,2" points="144.00,91.50 143.50,91.00 144.00,90.50 144.50,91.00 144.00,91.50" />
<polyline fill="none" stroke="#00aa00" stroke-width="1" stroke-dasharray="3,2" points="162.00,91.50 161.50,91.00 162.00,90.50 162.50,91.00 162.00,91.50" />
<polyline fill="none" stroke="#00aa00" stroke-width="1" stroke-dasharray="3,2" points="47.00,92.50 46.50,92.00 47.00,91.50 47.50,92.00 47.00,92.50" />
<polyline fill="none" stroke="#00aa00" stroke-width="1" stroke-dasharray="3,2" points="58.00,92.50 57.50,92.00 58.00,91.50 58.50,92.00 58.00,92.50" />
<polyline fill="none" stroke="#00aa00" stroke-width="1" stroke-dasharray="3,2" points="145.00,92.50 144.50,92.00 145.00,91.50 145.50,92.00 145.00,92.50" />
<polyline fill="none" stroke="#00aa00" stroke-width="1" stroke-dasharray="3,2" points="161.00,92.50 160.50,92.00 161.00,91.50 161.50,92.00 161.00,92.50" />
<polyline fill="none" stroke="#00aa00" stroke-width="1" stroke-dasharray="3,2" points="48.00,93.50 47.50,93.00 48.00,92.50 48.50,93.00 48.00,93.50" />
<polyline fill="none" stroke="#00aa00" stroke-width="1" stroke-dasharray="3,2" points="57.00,93.50 56.50,93.00 57.00,92.50 57.50,93.00 57.00,93.50" />
<polyline fill="none" stroke="#00aa00" stroke-width="1" stroke-dasharray="3,2" points="146.00,93.50 145.50,93.00 146.00,92.50 146.50,93.00 146.00,93.50" />
<polyline fill="none" stroke="#00aa00" stroke-width="1" stroke-dasharray="3,2" points="160.00,93.50 159.50,93.00 160.00,92.50 160.50,93.00 160.00,93.50" />
<polyline fill="none" stroke="#00aa00" stroke-width="1" stroke-dasharray="3,2" points="49.00,94.50 48.50,94.00 49.00,93.50 49.50,94.00 49.00,94.50" />
<polyline fill="none" stroke="#00aa00" stroke-width="1" stroke-dasharray="3,2" points="56.00,94.50 55.50,94.00 56.00,93.50 56.50,94.00 56.00,94.50" />
<polyline fill="none" stroke="#00aa00" stroke-width="1" stroke-dasharray="3,2" points="147.00,94.50 146.50,94.00 147.00,93.50 147.50,94.00 147.00,94.50" />
<polyline fill="none" stroke="#00aa00" stroke-width="1" stroke-dasharray="3,2" points="159.00,94.50 158.50,94.00 159.00,93.50 159.50,94.00 159.00,94.50" />
<polyline fill="none" stroke="#00aa00" stroke-width="1" stroke-dasharray="3,2" points="50.00,95.50 49.50,95.00 50.00,94.50 50.50,95.00 50.00,95.50" />
<polyline fill="none" stroke="#00aa00" stroke-width="1" stroke-dasharray="3,2" points="55.00,95.50 54.50,95.00 55.00,94.50 55.50,95.00 55.00,95.50" />
<polyline fill="none" stroke="#00aa00" stroke-width="1" stroke-dasharray="3,2" points="148.00,95.50 147.50,95.00 148.00,94.50 148.50,95.00 148.00,95.50" />
<polyline fill="none" stroke="#00aa00" stroke-width="1" stroke-dasharray="3,2" points="158.00,95.50 157.50,95.00 158.00,94.50 158.50,95.00 158.00,95.50" />
<polyline fill="none" stroke="#00aa00" stroke-width="1" stroke-dasharray="3,2" points="51.00,96.50 50.50,96.00 51.00,95.50 51.50,96.00 51.00,96.50" />
<polyline fill="none" stroke="#00aa00" stroke-width="1" stroke-dasharray="3,2" points="54.00,96.50 53.50,96.00 54.00,95.50 54.50,96.00 54.00,96.50" />
<polyline fill="none" stroke="#00aa00" stroke-width="1" stroke-dasharray="3,2" points="149.00,96.50 148.50,96.00 149.00,95.50 149.50,96.00 149.00,96.50" />
<polyline fill="none" stroke="#00aa00" stroke-width="1" stroke-dasharray="3,2" points="157.00,96.50 156.50,96.00 157.00,95.50 157.50,96.00 157.00,96.50" />
<polyline fill="none" stroke="#00aa00" stroke-width="1" stroke-dasharray="3,2" points="51.00,172.50 50.50,172.00 50.50,171.00 50.50,170.00 51.00,169.50 51.50,169.00 51.50,168.00 51.50,167.00 51.50,166.00 51.50,165.00 51.50,164.00 51.50,163.00 51.50,162.00 51.50,161.00 51.50,160.00 51.50,159.00 51.50,158.00 51.50,157.00 51.50,156.00 51.50,155.00 51.50,154.00 51.50,153.00 51.50,152.00 51.50,151.00 51.50,150.00 51.50,149.00 51.50,148.00 51.50,147.00 51.50,146.00 51.50,145.00 51.50,144.00 51.50,143.00 51.50,142.00 51.50,141.00 51.50,140.00 51.50,139.00 51.50,138.00 51.50,137.00 51.50,136.00 51.50,135.00 51.50,134.00 51.50,133.00 51.50,132.00 51.50,131.00 51.50,130.00 51.50,129.00 51.50,128.00 51.50,127.00 51.50,126.00 51.50,125.00 51.50,124.00 51.50,123.00 51.50,122.00 51.50,121.00 51.50,120.00 51.50,119.00 51.50,118.00 51.50,117.00 51.50,116.00 51.50,115.00 51.50,114.00 51.50,113.00 51.50,112.00 51.50,111.00 51.50,110.00 51.50,109.00 51.50,108.00 51.50,107.00 51.50,106.00 51.50,105.00 51.50,104.00 51.50,103.00 51.50,102.00 51.50,101.00 51.50,100.00 51.50,99.00 51.50,98.00 51.50,97.00 52.00,96.50 53.00,96.50 53.50,97.00 53.00,97.50 52.50,98.00 52.50,99.00 52.50,100.00 52.50,101.00 52.50,102.00 52.50,103.00 52.50,104.00 52.50,105.00 52.50,106.00 52.50,107.00 52.50,108.00 52.50,109.00 52.50,110.00 52.50,111.00 52.50,112.00 52.50,113.00 52.50,114.00 52.50,115.00 52.50,116.00 52.50,117.00 52.50,118.00 52.50,119.00 52.50,120.00 52.50,121.00 52.50,122.00 52.50,123.00 52.50,124.00 52.50,125.00 52.50,126.00 52.50,127.00 52.50,128.00 52.50,129.00 52.50,130.00 52.50,131.00 52.50,132.00 52.50,133.00 52.50,134.00 52.50,135.00 52.50,136.00 52.50,137.00 52.50,138.00 52.50,139.00 52.50,140.00 52.50,141.00 52.50,142.00 52.50,143.00 52.50,144.00 52.50,145.00 52.50,146.00 52.50,147.00 52.50,148.00 52.50,149.00 52.50,150.00 52.50,151.00 52.50,152.00 52.50,153.00 52.50,154.00 52.50,155.00 52.50,156.00 52.50,157.00 52.50,158.00 52.50,159.00 52.50,160.00 52.50,161.00 52.50,162.00 52.50,163.00 52.50,164.00 52.50,165.00 52.50,166.00 52.50,167.00 52.50,168.00 52.50,169.00 53.00,169.50 53.50,170.00 53.00,170.50 52.00,170.50 51.50,171.00 51.50,172.00 51.00,172.50" />
<polyline fill="none" stroke="#00aa00" stroke-width="1" stroke-dasharray="3,2" points="150.00,97.50 149.50,97.00 150.00,96.50 150.50,97.00 150.00,97.50" />
<polyline fill="none" stroke="#00aa00" stroke-width="1" stroke-dasharray="3,2" points="156.00,97.50 155.50,97.00 156.00,96.50 156.50,97.00 156.00,97.50" />
<polyline fill="none" stroke="#00aa00" stroke-width="1" stroke-dasharray="3,2" points="151.00,98.50 150.50,98.00 151.00,97.50 151.50,98.00 151.00,98.50" />
<polyline fill="none" stroke="#00aa00" stroke-width="1" stroke-dasharray="3,2" points="151.00,149.50 150.50,149.00 151.00,148.50 151.50,149.00 151.00,149.50" />
<polyline fill="none" stroke="#00aa00" stroke-width="1" stroke-dasharray="3,2" points="154.00,149.50 153.50,149.00 154.00,148.50 154.50,149.00 154.00,149.50" />
<polyline fill="none" stroke="#00aa00" stroke-width="1" stroke-dasharray="3,2" points="150.00,150.50 149.50,150.00 150.00,149.50 150.50,150.00 150.00,150.50" />
<polyline fill="none" stroke="#00aa00" stroke-width="1" stroke-dasharray="3,2" points="155.00,150.50 154.50,150.00 155.00,149.50 155.50,150.00 155.00,150.50" />
<polyline fill="none" stroke="#00aa00" stroke-width="1" stroke-dasharray="3,2" points="149.00,151.50 148.50,151.00 149.00,150.50 149.50,151.00 149.00,151.50" />
<polyline fill="none" stroke="#00aa00" stroke-width="1" stroke-dasharray="3,2" points="156.00,151.50 155.50,151.00 156.00,150.50 156.50,151.00 156.00,151.50" />
<polyline fill="none" stroke="#00aa00" stroke-width="1" stroke-dasharray="3,2" points="148.00,152.50 147.50,152.00 148.00,151.50 148.50,152.00 148.00,152.50" />
<polyline fill="none" stroke="#00aa00" stroke-width="1" stroke-dasharray="3,2" points="157.00,152.50 156.50,152.00 157.00,151.50 157.50,152.00 157.00,152.50" />
<polyline fill="none" stroke="#00aa00" stroke-width="1" stroke-dasharray="3,2" points="147.00,153.50 146.50,153.00 147.00,152.50 147.50,153.00 147.00,153.50" />
<polyline fill="none" stroke="#00aa00" stroke-width="1" stroke-dasharray="3,2" points="158.00,153.50 157.50,153.00 158.00,152.50 158.50,153.00 158.00,153.50" />
<polyline fill="none" stroke="#00aa00" stroke-width="1" stroke-dasharray="3,2" points="146.00,154.50 145.50,154.00 146.00,153.50 146.50,154.00 146.00,154.50" />
<polyline fill="none" stroke="#00aa00" stroke-width="1" stroke-dasharray="3,2" points="159.00,154.50 158.50,154.00 159.00,153.50 159.50,154.00 159.00,154.50" />
<polyline fill="none" stroke="#00aa00" stroke-width="1" stroke-dasharray="3,2" points="145.00,155.50 144.50,155.00 145.00,154.50 145.50,155.00 145.00,155.50" />
<polyline fill="none" stroke="#00aa00" stroke-width="1" stroke-dasharray="3,2" points="160.00,155.50 159.50,155.00 160.00,154.50 160.50,155.00 160.00,155.50" />
<polyline fill="none" stroke="#00aa00" stroke-width="1" stroke-dasharray="3,2" points="144.00,156.50 143.50,156.00 144.00,155.50 144.50,156.00 144.00,156.50" />
<polyline fill="none" stroke="#00aa00" stroke-width="1" stroke-dasharray="3,2" points="161.00,156.50 160.50,156.00 161.00,155.50 161.50,156.00 161.00,156.50" />
<polyline fill="none" stroke="#00aa00" stroke-width="1" stroke-dasharray="3,2" points="143.00,157.50 142.50,157.00 143.00,156.50 143.50,157.00 143.00,157.50" />
<polyline fill="none" stroke="#00aa00" stroke-width="1" stroke-dasharray="3,2" points="162.00,157.50 161.50,157.00 162.00,156.50 162.50,157.00 162.00,157.50" />
<polyline fill="none" stroke="#00aa00" stroke-width="1" stroke-dasharray="3,2" points="142.00,158.50 141.50,158.00 142.00,157.50 142.50,158.00 142.00,158.50" />
<polyline fill="none" stroke="#00aa00" stroke-width="1" stroke-dasharray="3,2" points="163.00,158.50 162.50,158.00 163.00,157.50 163.50,158.00 163.00,158.50" />
<polyline fill="none" stroke="#00aa00" stroke-width="1" stroke-dasharray="3,2" points="141.00,159.50 140.00,159.50 139.00,159.50 138.00,159.50 137.00,159.50 136.00,159.50 135.00,159.50 134.00,159.50 133.00,159.50 132.00,159.50 131.00,159.50 130.00,159.50 129.00,159.50 128.00,159.50 127.00,159.50 126.00,159.50 125.00,159.50 124.00,159.50 123.00,159.50 122.00,159.50 121.00,159.50 120.00,159.50 119.00,159.50 118.00,159.50 117.00,159.50 116.00,159.50 115.00,159.50 114.00,159.50 113.00,159.50 112.00,159.50 111.00,159.50 110.00,159.50 109.00,159.50 108.00,159.50 107.00,159.50 106.00,159.50 105.00,159.50 104.00,159.50 103.00,159.50 102.00,159.50 101.00,159.50 100.00,159.50 99.00,159.50 98.00,159.50 97.50,159.00 98.00,158.50 99.00,158.50 100.00,158.50 101.00,158.50 102.00,158.50 103.00,158.50 104.00,158.50 105.00,158.50 106.00,158.50 107.00,158.50 108.00,158.50 109.00,158.50 110.00,158.50 111.00,158.50 112.00,158.50 113.00,158.50 114.00,158.50 115.00,158.50 116.00,158.50 117.00,158.50 118.00,158.50 119.00,158.50 120.00,158.50 121.00,158.50 122.00,158.50 123.00,158.50 124.00,158.50 125.00,158.50 126.00,158.50 127.00,158.50 128.00,158.50 129.00,158.50 130.00,158.50 131.00,158.50 132.00,158.50 133.00,158.50 134.00,158.50 135.00,158.50 136.00,158.50 137.00,158.50 138.00,158.50 139.00,158.50 140.00,158.50 141.00,158.50 141.50,159.00 141.00,159.50" />
<polyline fill="none" stroke="#00aa00" stroke-width="1" stroke-dasharray="3,2" points="230.00,159.50 229.00,159.50 228.00,159.50 227.00,159.50 226.00,159.50 225.00,159.50 224.00,159.50 223.00,159.50 222.00,159.50 221.00,159.50 220.00,159.50 219.00,159.50 218.00,159.50 217.00,159.50 216.00,159.50 215.00,159.50 214.00,159.50 213.00,159.50 212.00,159.50 211.00,159.50 210.00,159.50 209.00,159.50 208.00,159.50 207.00,159.50 206.00,159.50 205.00,159.50 204.00,159.50 203.00,159.50 202.00,159.50 201.00,159.50 200.00,159.50 199.00,159.50 198.00,159.50 197.00,159.50 196.00,159.50 195.00,159.50 194.00,159.50 193.00,159.50 192.00,159.50 191.00,159.50 190.00,159.50 189.00,159.50 188.00,159.50 187.00,159.50 186.00,159.50 185.00,159.50 184.00,159.50 183.00,159.50 182.00,159.50 181.00,159.50 180.00,159.50 179.00,159.50 178.00,159.50 177.00,159.50 176.00,159.50 175.00,159.50 174.00,159.50 173.00,159.50 172.00,159.50 171.00,159.50 170.00,159.50 169.00,159.50 168.00,159.50 167.00,159.50 166.00,159.50 165.00,159.50 164.00,159.50 163.50,159.00 164.00,158.50 165.00,158.50 166.00,158.50 167.00,158.50 168.00,158.50 169.00,158.50 170.00,158.50 171.00,158.50 172.00,158.50 173.00,158.50 174.00,158.50 175.00,158.50 176.00,158.50 177.00,158.50 178.00,158.50 179.00,158.50 180.00,158.50 181.00,158.50 182.00,158.50 183.00,158.50 184.00,158.50 185.00,158.50 186.00,158.50 187.00,158.50 188.00,158.50 189.00,158.50 190.00,158.50 191.00,158.50 192.00,158.50 193.00,158.50 194.00,158.50 195.00,158.50 196.00,158.50 197.00,158.50 198.00,158.50 199.00,158.50 200.00,158.50 201.00,158.50 202.00,158.50 203.00,158.50 204.00,158.50 205.00,158.50 206.00,158.50 207.00,158.50 208.00,158.50 209.00,158.50 210.00,158.50 211.00,158.50 212.00,158.50 213.00,158.50 214.00,158.50 215.00,158.50 216.00,158.50 217.00,158.50 218.00,158.50 219.00,158.50 220.00,158.50 221.00,158.50 222.00,158.50 223.00,158.50 224.00,158.50 225.00,158.50 226.00,158.50 227.00,158.50 228.00,158.50 229.00,158.50 230.00,158.50 230.50,159.00 230.00,159.50" />
<polyline fill="none" stroke="#00aa00" stroke-width="1" stroke-dasharray="3,2" points="97.00,160.50 96.50,160.00 97.00,159.50 97.50,160.00 97.00,160.50" />
<polyline fill="none" stroke="#00aa00" stroke-width="1" stroke-dasharray="3,2" points="232.00,160.50 231.00,160.50 230.50,160.00 231.00,159.50 232.00,159.50 232.50,160.00 232.00,160.50" />
<polyline fill="none" stroke="#00aa00" stroke-width="1" stroke-dasharray="3,2" points="96.00,161.50 95.50,161.00 96.00,160.50 96.50,161.00 96.00,161.50" />
<polyline fill="none" stroke="#00aa00" stroke-width="1" stroke-dasharray="3,2" points="233.00,161.50 232.50,161.00 233.00,160.50 233.50,161.00 233.00,161.50" />
<polyline fill="none" stroke="#00aa00" stroke-width="1" stroke-dasharray="3,2" points="95.00,162.50 94.50,162.00 95.00,161.50 95.50,162.00 95.00,162.50" />
<polyline fill="none" stroke="#00aa00" stroke-width="1" stroke-dasharray="3,2" points="234.00,162.50 233.50,162.00 234.00,161.50 234.50,162.00 234.00,162.50" />
<polyline fill="none" stroke="#00aa00" stroke-width="1" stroke-dasharray="3,2" points="94.00,164.50 93.50,164.00 93.50,163.00 94.00,162.50 94.50,163.00 94.50,164.00 94.00,164.50" />
<polyline fill="none" stroke="#00aa00" stroke-width="1" stroke-dasharray="3,2" points="235.00,164.50 234.50,164.00 234.50,163.00 235.00,162.50 235.50,163.00 235.50,164.00 235.00,164.50" />
<polyline fill="none" stroke="#00aa00" stroke-width="1" stroke-dasharray="3,2" points="93.00,166.50 92.50,166.00 92.50,165.00 93.00,164.50 93.50,165.00 93.50,166.00 93.00,166.50" />
<polyline fill="none" stroke="#00aa00" stroke-width="1" stroke-dasharray="3,2" points="236.00,166.50 235.50,166.00 235.50,165.00 236.00,164.50 236.50,165.00 236.50,166.00 236.00,166.50" />
<polyline fill="none" stroke="#00aa00" stroke-width="1" stroke-dasharray="3,2" points="92.00,169.50 91.50,169.00 91.50,168.00 91.50,167.00 92.00,166.50 92.50,167.00 92.50,168.00 92.50,169.00 92.00,169.50" />
<polyline fill="none" stroke="#00aa00" stroke-width="1" stroke-dasharray="3,2" points="237.00,168.50 236.50,168.00 236.50,167.00 237.00,166.50 237.50,167.00 237.50,168.00 237.00,168.50" />
<polyline fill="none" stroke="#00aa00" stroke-width="1" stroke-dasharray="3,2" points="238.00,171.50 237.50,171.00 237.50,170.00 237.50,169.00 238.00,168.50 238.50,169.00 238.50,170.00 238.50,171.00 238.00,171.50" />
<polyline fill="none" stroke="#00aa00" stroke-width="1" stroke-dasharray="3,2" points="91.00,172.50 90.50,172.00 90.50,171.00 90.50,170.00 91.00,169.50 91.50,170.00 91.50,171.00 91.50,172.00 91.00,172.50" />
<polyline fill="none" stroke="#00aa00" stroke-width="1" stroke-dasharray="3,2" points="54.00,171.50 53.50,171.00 54.00,170.50 54.50,171.00 54.00,171.50" />
<polyline fill="none" stroke="#00aa00" stroke-width="1" stroke-dasharray="3,2" points="55.00,172.50 54.50,172.00 55.00,171.50 55.50,172.00 55.00,172.50" />
<polyline fill="none" stroke="#00aa00" stroke-width="1" stroke-dasharray="3,2" points="239.00,174.50 238.50,174.00 238.50,173.00 238.50,172.00 239.00,171.50 239.50,172.00 239.50,173.00 239.50,174.00 239.00,174.50" />
<polyline fill="none" stroke="#00aa00" stroke-width="1" stroke-dasharray="3,2" points="50.00,178.50 49.50,178.00 49.50,177.00 49.50,176.00 49.50,175.00 49.50,174.00 49.50,173.00 50.00,172.50 50.50,173.00 50.50,174.00 50.50,175.00 50.50,176.00 50.50,177.00 50.50,178.00 50.00,178.50" />
<polyline fill="none" stroke="#00aa00" stroke-width="1" stroke-dasharray="3,2" points="85.00,173.50 84.00,173.50 83.00,173.50 82.00,173.50 81.00,173.50 80.00,173.50 79.00,173.50 78.00,173.50 77.00,173.50 76.00,173.50 75.00,173.50 74.00,173.50 73.00,173.50 72.00,173.50 71.00,173.50 70.00,173.50 69.00,173.50 68.00,173.50 67.00,173.50 66.00,173.50 65.00,173.50 64.00,173.50 63.00,173.50 62.00,173.50 61.00,173.50 60.00,173.50 59.00,173.50 58.00,173.50 57.00,173.50 56.00,173.50 55.50,173.00 56.00,172.50 57.00,172.50 58.00,172.50 59.00,172.50 60.00,172.50 61.00,172.50 62.00,172.50 63.00,172.50 64.00,172.50 65.00,172.50 66.00,172.50 67.00,172.50 68.00,172.50 69.00,172.50 70.00,172.50 71.00,172.50 72.00,172.50 73.00,172.50 74.00,172.50 75.00,172.50 76.00,172.50 77.00,172.50 78.00,172.50 79.00,172.50 80.00,172.50 81.00,172.50 82.00,172.50 83.00,172.50 84.00,172.50 85.00,172.50 85.50,173.00 85.00,173.50" />
<polyline fill="none" stroke="#00aa00" stroke-width="1" stroke-dasharray="3,2" points="90.00,174.50 89.50,174.00 89.50,173.00 90.00,172.50 90.50,173.00 90.50,174.00 90.00,174.50" />
<polyline fill="none" stroke="#00aa00" stroke-width="1" stroke-dasharray="3,2" points="86.00,174.50 85.50,174.00 86.00,173.50 86.50,174.00 86.00,174.50" />
<polyline fill="none" stroke="#00aa00" stroke-width="1" stroke-dasharray="3,2" points="87.00,175.50 86.50,175.00 87.00,174.50 87.50,175.00 87.00,175.50" />
<polyline fill="none" stroke="#00aa00" stroke-width="1" stroke-dasharray="3,2" points="89.00,175.50 88.50,175.00 89.00,174.50 89.50,175.00 89.00,175.50" />
<polyline fill="none" stroke="#00aa00" stroke-width="1" stroke-dasharray="3,2" points="240.00,178.50 239.50,178.00 239.50,177.00 239.50,176.00 239.50,175.00 240.00,174.50 240.50,175.00 240.50,176.00 240.50,177.00 240.50,178.00 240.00,178.50" />
<polyline fill="none" stroke="#00aa00" stroke-width="1" stroke-dasharray="3,2" points="88.00,179.50 87.50,179.00 87.50,178.00 87.50,177.00 87.50,176.00 88.00,175.50 88.50,176.00 88.50,177.00 88.50,178.00 88.50,179.00 88.00,179.50" />
<polyline fill="none" stroke="#00aa00" stroke-width="1" stroke-dasharray="3,2" points="49.00,182.50 48.50,182.00 48.50,181.00 48.50,180.00 48.50,179.00 49.00,178.50 49.50,179.00 49.50,180.00 49.50,181.00 49.50,182.00 49.00,182.50" />
<polyline fill="none" stroke="#00aa00" stroke-width="1" stroke-dasharray="3,2" points="241.00,182.50 240.50,182.00 240.50,181.00 240.50,180.00 240.50,179.00 241.00,178.50 241.50,179.00 241.50,180.00 241.50,181.00 241.50,182.00 241.00,182.50" />
<polyline fill="none" stroke="#00aa00" stroke-width="1" stroke-dasharray="3,2" points="89.00,185.50 88.50,185.00 88.50,184.00 88.50,183.00 88.50,182.00 88.50,181.00 88.50,180.00 89.00,179.50 89.50,180.00 89.50,181.00 89.50,182.00 89.50,183.00 89.50,184.00 89.50,185.00 89.00,185.50" />
<polyline fill="none" stroke="#00aa00" stroke-width="1" stroke-dasharray="3,2" points="48.00,186.50 47.50,186.00 47.50,185.00 47.50,184.00 47.50,183.00 48.00,182.50 48.50,183.00 48.50,184.00 48.50,185.00 48.50,186.00 48.00,186.50" />
<polyline fill="none" stroke="#00aa00" stroke-width="1" stroke-dasharray="3,2" points="240.00,187.50 239.50,187.00 239.50,186.00 239.50,185.00 239.50,184.00 239.50,183.00 240.00,182.50 240.50,183.00 240.50,184.00 240.50,185.00 240.50,186.00 240.50,187.00 240.00,187.50" />
<polyline fill="none" stroke="#00aa00" stroke-width="1" stroke-dasharray="3,2" points="90.00,189.50 89.50,189.00 89.50,188.00 89.50,187.00 89.50,186.00 90.00,185.50 90.50,186.00 90.50,187.00 90.50,188.00 90.50,189.00 90.00,189.50" />
<polyline fill="none" stroke="#00aa00" stroke-width="1" stroke-dasharray="3,2" points="47.00,189.50 46.50,189.00 46.50,188.00 46.50,187.00 47.00,186.50 47.50,187.00 47.50,188.00 47.50,189.00 47.00,189.50" />
<polyline fill="none" stroke="#00aa00" stroke-width="1" stroke-dasharray="3,2" points="239.00,190.50 238.50,190.00 238.50,189.00 238.50,188.00 239.00,187.50 239.50,188.00 239.50,189.00 239.50,190.00 239.00,190.50" />
<polyline fill="none" stroke="#00aa00" stroke-width="1" stroke-dasharray="3,2" points="46.00,192.50 45.50,192.00 45.50,191.00 45.50,190.00 46.00,189.50 46.50,190.00 46.50,191.00 46.50,192.00 46.00,192.50" />
<polyline fill="none" stroke="#00aa00" stroke-width="1" stroke-dasharray="3,2" points="91.00,192.50 90.50,192.00 90.50,191.00 90.50,190.00 91.00,189.50 91.50,190.00 91.50,191.00 91.50,192.00 91.00,192.50" />
<polyline fill="none" stroke="#00aa00" stroke-width="1" stroke-dasharray="3,2" points="238.00,192.50 237.50,192.00 237.50,191.00 238.00,190.50 238.50,191.00 238.50,192.00 238.00,192.50" />
<polyline fill="none" stroke="#00aa00" stroke-width="1" stroke-dasharray="3,2" points="45.00,193.50 44.50,193.00 45.00,192.50 45.50,193.00 45.00,193.50" />
<polyline fill="none" stroke="#00aa00" stroke-width="1" stroke-dasharray="3,2" points="92.00,195.50 91.50,195.00 91.50,194.00 91.50,193.00 92.00,192.50 92.50,193.00 92.50,194.00 92.50,195.00 92.00,195.50" />
<polyline fill="none" stroke="#00aa00" stroke-width="1" stroke-dasharray="3,2" points="237.00,194.50 236.50,194.00 236.50,193.00 237.00,192.50 237.50,193.00 237.50,194.00 237.00,194.50" />
<polyline fill="none" stroke="#00aa00" stroke-width="1" stroke-dasharray="3,2" points="44.00,196.50 43.50,196.00 43.50,195.00 43.50,194.00 44.00,193.50 44.50,194.00 44.50,195.00 44.50,196.00 44.00,196.50" />
<polyline fill="none" stroke="#00aa00" stroke-width="1" stroke-dasharray="3,2" points="236.00,196.50 235.50,196.00 235.50,195.00 236.00,194.50 236.50,195.00 236.50,196.00 236.00,196.50" />
<polyline fill="none" stroke="#00aa00" stroke-width="1" stroke-dasharray="3,2" points="93.00,197.50 92.50,197.00 92.50,196.00 93.00,195.50 93.50,196.00 93.50,197.00 93.00,197.50" />
<polyline fill="none" stroke="#00aa00" stroke-width="1" stroke-dasharray="3,2" points="43.00,197.50 42.50,197.00 43.00,196.50 43.50,197.00 43.00,197.50" />
<polyline fill="none" stroke="#00aa00" stroke-width="1" stroke-dasharray="3,2" points="235.00,198.50 234.50,198.00 234.50,197.00 235.00,196.50 235.50,197.00 235.50,198.00 235.00,198.50" />
<polyline fill="none" stroke="#00aa00" stroke-width="1" stroke-dasharray="3,2" points="42.00,198.50 41.50,198.00 42.00,197.50 42.50,198.00 42.00,198.50" />
<polyline fill="none" stroke="#00aa00" stroke-width="1" stroke-dasharray="3,2" points="94.00,199.50 93.50,199.00 93.50,198.00 94.00,197.50 94.50,198.00 94.50,199.00 94.00,199.50" />
<polyline fill="none" stroke="#00aa00" stroke-width="1" stroke-dasharray="3,2" points="41.00,199.50 40.50,199.00 41.00,198.50 41.50,199.00 41.00,199.50" />
<polyline fill="none" stroke="#00aa00" stroke-width="1" stroke-dasharray="3,2" points="234.00,199.50 233.50,199.00 234.00,198.50 234.50,199.00 234.00,199.50" />
<polyline fill="none" stroke="#00aa00" stroke-width="1" stroke-dasharray="3,2" points="40.00,200.50 39.50,200.00 40.00,199.50 40.50,200.00 40.00,200.50" />
<polyline fill="none" stroke="#00aa00" stroke-width="1" stroke-dasharray="3,2" points="95.00,200.50 94.50,200.00 95.00,199.50 95.50,200.00 95.00,200.50" />
<polyline fill="none" stroke="#00aa00" stroke-width="1" stroke-dasharray="3,2" points="233.00,200.50 232.50,200.00 233.00,199.50 233.50,200.00 233.00,200.50" />
<polyline fill="none" stroke="#00aa00" stroke-width="1" stroke-dasharray="3,2" points="39.00,201.50 38.50,201.00 39.00,200.50 39.50,201.00 39.00,201.50" />
<polyline fill="none" stroke="#00aa00" stroke-width="1" stroke-dasharray="3,2" points="96.00,201.50 95.50,201.00 96.00,200.50 96.50,201.00 96.00,201.50" />
<polyline fill="none" stroke="#00aa00" stroke-width="1" stroke-dasharray="3,2" points="232.00,201.50 231.50,201.00 232.00,200.50 232.50,201.00 232.00,201.50" />
<polyline fill="none" stroke="#00aa00" stroke-width="1" stroke-dasharray="3,2" points="38.00,202.50 37.50,202.00 38.00,201.50 38.50,202.00 38.00,202.50" />
<polyline fill="none" stroke="#00aa00" stroke-width="1" stroke-dasharray="3,2" points="99.00,202.50 98.00,202.50 97.00,202.50 96.50,202.00 97.00,201.50 98.00,201.50 99.00,201.50 99.50,202.00 99.00,202.50" />
<polyline fill="none" stroke="#00aa00" stroke-width="1" stroke-dasharray="3,2" points="231.00,202.50 230.00,202.50 229.50,202.00 230.00,201.50 231.00,201.50 231.50,202.00 231.00,202.50" />
<polyline fill="none" stroke="#00aa00" stroke-width="1" stroke-dasharray="3,2" points="37.00,203.50 36.50,203.00 37.00,202.50 37.50,203.00 37.00,203.50" />
<polyline fill="none" stroke="#00aa00" stroke-width="1" stroke-dasharray="3,2" points="229.00,203.50 228.00,203.50 227.00,203.50 226.00,203.50 225.00,203.50 224.00,203.50 223.00,203.50 222.00,203.50 221.00,203.50 220.00,203.50 219.00,203.50 218.00,203.50 217.00,203.50 216.00,203.50 215.00,203.50 214.00,203.50 213.00,203.50 212.00,203.50 211.00,203.50 210.00,203.50 209.00,203.50 208.00,203.50 207.00,203.50 206.00,203.50 205.00,203.50 204.00,203.50 203.00,203.50 202.00,203.50 201.00,203.50 200.00,203.50 199.00,203.50 198.00,203.50 197.00,203.50 196.00,203.50 195.00,203.50 194.00,203.50 193.00,203.50 192.00,203.50 191.00,203.50 190.00,203.50 189.00,203.50 188.00,203.50 187.00,203.50 186.00,203.50 185.00,203.50 184.00,203.50 183.00,203.50 182.00,203.50 181.00,203.50 180.00,203.50 179.00,203.50 178.00,203.50 177.00,203.50 176.00,203.50 175.00,203.50 174.00,203.50 173.00,203.50 172.00,203.50 171.00,203.50 170.00,203.50 169.00,203.50 168.00,203.50 167.00,203.50 166.00,203.50 165.00,203.50 164.00,203.50 163.00,203.50 162.00,203.50 161.00,203.50 160.00,203.50 159.00,203.50 158.00,203.50 157.00,203.50 156.00,203.50 155.00,203.50 154.00,203.50 153.00,203.50 152.00,203.50 151.00,203.50 150.00,203.50 149.00,203.50 148.00,203.50 147.00,203.50 146.00,203.50 145.00,203.50 144.00,203.50 143.00,203.50 142.00,203.50 141.00,203.50 140.00,203.50 139.00,203.50 138.00,203.50 137.00,203.50 136.00,203.50 135.00,203.50 134.00,203.50 133.00,203.50 132.00,203.50 131.00,203.50 130.00,203.50 129.00,203.50 128.00,203.50 127.00,203.50 126.00,203.50 125.00,203.50 124.00,203.50 123.00,203.50 122.00,203.50 121.00,203.50 120.00,203.50 119.00,203.50 118.00,203.50 117.00,203.50 116.00,203.50 115.00,203.50 114.00,203.50 113.00,203.50 112.00,203.50 111.00,203.50 110.00,203.50 109.00,203.50 108.00,203.50 107.00,203.50 106.00,203.50 105.00,203.50 104.00,203.50 103.00,203.50 102.00,203.50 101.00,203.50 100.00,203.50 99.50,203.00 100.00,202.50 101.00,202.50 102.00,202.50 103.00,202.50 104.00,202.50 105.00,202.50 106.00,202.50 107.00,202.50 108.00,202.50 109.00,202.50 110.00,202.50 111.00,202.50 112.00,202.50 113.00,202.50 114.00,202.50 115.00,202.50 116.00,202.50 117.00,202.50 118.00,202.50 119.00,202.50 120.00,202.50 121.00,202.50 122.00,202.50 123.00,202.50 124.00,202.50 125.00,202.50 126.00,202.50 127.00,202.50 128.00,202.50 129.00,202.50 130.00,202.50 131.00,202.50 132.00,202.50 133.00,202.50 134.00,202.50 135.00,202.50 136.00,202.50 137.00,202.50 138.00,202.50 139.00,202.50 140.00,202.50 141.00,202.50 142.00,202.50 143.00,202.50 144.00,202.50 145.00,202.50 146.00,202.50 147.00,202.50 148.00,202.50 149.00,202.50 150.00,202.50 151.00,202.50 152.00,202.50 153.00,202.50 154.00,202.50 155.00,202.50 156.00,202.50 157.00,202.50 158.00,202.50 159.00,202.50 160.00,202.50 161.00,202.50 162.00,202.50 163.00,202.50 164.00,202.50 165.00,202.50 166.00,202.50 167.00,202.50 168.00,202.50 169.00,202.50 170.00,202.50 171.00,202.50 172.00,202.50 173.00,202.50 174.00,202.50 175.00,202.50 176.00,202.50 177.00,202.50 178.00,202.50 179.00,202.50 180.00,202.50 181.00,202.50 182.00,202.50 183.00,202.50 184.00,202.50 185.00,202.50 186.00,202.50 187.00,202.50 188.00,202.50 189.00,202.50 190.00,202.50 191.00,202.50 192.00,202.50 193.00,202.50 194.00,202.50 195.00,202.50 196.00,202.50 197.00,202.50 198.00,202.50 199.00,202.50 200.00,202.50 201.00,202.50 202.00,202.50 203.00,202.50 204.00,202.50 205.00,202.50 206.00,202.50 207.00,202.50 208.00,202.50 209.00,202.50 210.00,202.50 211.00,202.50 212.00,202.50 213.00,202.50 214.00,202.50 215.00,202.50 216.00,202.50 217.00,202.50 218.00,202.50 219.00,202.50 220.00,202.50 221.00,202.50 222.00,202.50 223.00,202.50 224.00,202.50 225.00,202.50 226.00,202.50 227.00,202.50 228.00,202.50 229.00,202.50 229.50,203.00 229.00,203.50" />
<polyline fill="none" stroke="#00aa00" stroke-width="1" stroke-dasharray="3,2" points="36.00,204.50 35.50,204.00 36.00,203.50 36.50,204.00 36.00,204.50" />
<polyline fill="none" stroke="#00aa00" stroke-width="1" stroke-dasharray="3,2" points="35.00,205.50 34.00,205.50 33.50,205.00 34.00,204.50 35.00,204.50 35.50,205.00 35.00,205.50" />
<polyline fill="none" stroke="#00aa00" stroke-width="1" stroke-dasharray="3,2" points="33.00,206.50 32.00,206.50 31.50,206.00 32.00,205.50 33.00,205.50 33.50,206.00 33.00,206.50" />
<polyline fill="none" stroke="#00aa00" stroke-width="1" stroke-dasharray="3,2" points="31.00,207.50 30.50,207.00 31.00,206.50 31.50,207.00 31.00,207.50" />
<circle cx="52.00" cy="97.00" r="3" fill="none" stroke="#ff00ff" stroke-width="1"/>
<circle cx="53.00" cy="97.00" r="3" fill="none" stroke="#ff00ff" stroke-width="1"/>
<circle cx="153.00" cy="97.00" r="3" fill="none" stroke="#ff00ff" stroke-width="1"/>
<circle cx="52.00" cy="98.00" r="3" fill="none" stroke="#ff00ff" stroke-width="1"/>
<circle cx="153.00" cy="98.00" r="3" fill="none" stroke="#ff00ff" stroke-width="1"/>
<circle cx="154.00" cy="98.00" r="3" fill="none" stroke="#ff00ff" stroke-width="1"/>
<circle cx="152.00" cy="99.00" r="3" fill="none" stroke="#ff00ff" stroke-width="1"/>
<circle cx="153.00" cy="99.00" r="3" fill="none" stroke="#ff00ff" stroke-width="1"/>
<circle cx="153.00" cy="100.00" r="3" fill="none" stroke="#ff00ff" stroke-width="1"/>
<circle cx="153.00" cy="121.00" r="3" fill="none" stroke="#ff00ff" stroke-width="1"/>
<circle cx="153.00" cy="122.00" r="3" fill="none" stroke="#ff00ff" stroke-width="1"/>
<circle cx="154.00" cy="122.00" r="3" fill="none" stroke="#ff00ff" stroke-width="1"/>
<circle cx="153.00" cy="123.00" r="3" fill="none" stroke="#ff00ff" stroke-width="1"/>
<circle cx="153.00" cy="147.00" r="3" fill="none" stroke="#ff00ff" stroke-width="1"/>
<circle cx="152.00" cy="148.00" r="3" fill="none" stroke="#ff00ff" stroke-width="1"/>
<circle cx="153.00" cy="148.00" r="3" fill="none" stroke="#ff00ff" stroke-width="1"/>
<circle cx="52.00" cy="169.00" r="3" fill="none" stroke="#ff00ff" stroke-width="1"/>
<circle cx="51.00" cy="170.00" r="3" fill="none" stroke="#ff00ff" stroke-width="1"/>
<circle cx="52.00" cy="170.00" r="3" fill="none" stroke="#ff00ff" stroke-width="1"/>
<circle cx="53.00" cy="170.00" r="3" fill="none" stroke="#ff00ff" stroke-width="1"/>
<circle cx="51.00" cy="171.00" r="3" fill="none" stroke="#ff00ff" stroke-width="1"/>
<circle cx="88.00" cy="176.00" r="3" fill="none" stroke="#ff00ff" stroke-width="1"/>
<polyline fill="none" stroke="#3366ff" stroke-width="1" points="33.00,217.50 32.00,217.50 31.00,217.50 30.00,217.50 29.00,217.50 28.00,217.50 27.00,217.50 26.00,217.50 25.00,217.50 24.50,217.00 24.00,216.50 23.00,216.50 22.50,216.00 22.00,215.50 21.50,215.00 21.00,214.50 20.50,214.00 20.50,213.00 20.00,212.50 19.50,212.00 19.50,211.00 19.50,210.00 19.00,209.50 18.50,209.00 18.50,208.00 18.50,207.00 18.50,206.00 18.50,205.00 19.00,204.50 19.50,204.00 19.50,203.00 19.50,202.00 20.00,201.50 20.50,201.00 21.00,200.50 21.50,200.00 22.00,199.50 22.50,199.00 23.00,198.50 23.50,198.00 24.00,197.50 24.50,197.00 25.00,196.50 25.50,196.00 26.00,195.50 26.50,195.00 27.00,194.50 27.50,194.00 28.00,193.50 28.50,193.00 28.50,192.00 29.00,191.50 29.50,191.00 30.00,190.50 30.50,190.00 30.50,189.00 31.00,188.50 31.50,188.00 31.50,187.00 31.50,186.00 32.00,185.50 32.50,185.00 32.50,184.00 32.50,183.00 32.50,182.00 33.00,181.50 33.50,181.00 33.50,180.00 33.50,179.00 33.50,178.00 33.50,177.00 33.50,176.00 33.50,175.00 33.50,174.00 33.50,173.00 33.50,172.00 33.50,171.00 33.50,170.00 33.50,169.00 33.50,168.00 33.50,167.00 33.50,166.00 33.50,165.00 33.50,164.00 33.50,163.00 33.50,162.00 33.50,161.00 33.50,160.00 33.50,159.00 33.50,158.00 33.50,157.00 33.50,156.00 33.50,155.00 33.50,154.00 33.50,153.00 33.50,152.00 33.50,151.00 33.50,150.00 33.50,149.00 33.50,148.00 33.50,147.00 33.50,146.00 33.50,145.00 33.50,144.00 33.50,143.00 33.50,142.00 33.50,141.00 33.50,140.00 33.50,139.00 33.50,138.00 33.50,137.00 33.50,136.00 33.50,135.00 33.50,134.00 33.50,133.00 33.50,132.00 33.50,131.00 33.50,130.00 33.50,129.00 33.50,128.00 33.50,127.00 33.50,126.00 33.50,125.00 33.50,124.00 33.50,123.00 33.50,122.00 33.50,121.00 33.50,120.00 33.50,119.00 33.50,118.00 33.50,117.00 33.50,116.00 33.50,115.00 33.50,114.00 33.50,113.00 33.50,112.00 33.50,111.00 33.50,110.00 33.50,109.00 33.50,108.00 33.50,107.00 33.50,106.00 33.50,105.00 33.50,104.00 33.50,103.00 33.50,102.00 33.50,101.00 33.50,100.00 33.50,99.00 33.00,98.50 32.00,98.50 31.00,98.50 30.00,98.50 29.00,98.50 28.00,98.50 27.00,98.50 26.00,98.50 25.50,98.00 25.00,97.50 24.00,97.50 23.50,97.00 23.00,96.50 22.50,96.00 22.00,95.50 21.50,95.00 21.50,94.00 21.00,93.50 20.50,93.00 20.50,92.00 20.50,91.00 20.50,90.00 20.00,89.50 19.50,89.00 20.00,88.50 20.50,88.00 20.50,87.00 20.50,86.00 20.50,85.00 21.00,84.50 21.50,84.00 21.50,83.00 22.00,82.50 22.50,82.00 23.00,81.50 23.50,81.00 24.00,80.50 24.50,80.00 25.00,79.50 26.00,79.50 26.50,79.00 27.00,78.50 28.00,78.50 29.00,78.50 30.00,78.50 31.00,78.50 32.00,78.50 33.00,78.50 34.00,78.50 35.00,78.50 36.00,78.50 37.00,78.50 38.00,78.50 39.00,78.50 40.00,78.50 41.00,78.50 42.00,78.50 43.00,78.50 44.00,78.50 45.00,78.50 46.00,78.50 47.00,78.50 48.00,78.50 49.00,78.50 50.00,78.50 51.00,78.50 52.00,78.50 53.00,78.50 54.00,78.50 55.00,78.50 56.00,78.50 57.00,78.50 58.00,78.50 59.00,78.50 60.00,78.50 61.00,78.50 62.00,78.50 63.00,78.50 64.00,78.50 65.00,78.50 66.00,78.50 67.00,78.50 68.00,78.50 69.00,78.50 70.00,78.50 71.00,78.50 72.00,78.50 73.00,78.50 74.00,78.50 75.00,78.50 76.00,78.50 77.00,78.50 78.00,78.50 79.00,78.50 80.00,78.50 81.00,78.50 82.00,78.50 83.00,78.50 84.00,78.50 85.00,78.50 86.00,78.50 87.00,78.50 88.00,78.50 89.00,78.50 90.00,78.50 91.00,78.50 92.00,78.50 93.00,78.50 94.00,78.50 95.00,78.50 96.00,78.50 97.00,78.50 98.00,78.50 99.00,78.50 100.00,78.50 101.00,78.50 102.00,78.50 103.00,78.50 104.00,78.50 105.00,78.50 106.00,78.50 107.00,78.50 108.00,78.50 109.00,78.50 110.00,78.50 111.00,78.50 112.00,78.50 113.00,78.50 114.00,78.50 115.00,78.50 116.00,78.50 117.00,78.50 118.00,78.50 119.00,78.50 120.00,78.50 121.00,78.50 122.00,78.50 123.00,78.50 124.00,78.50 125.00,78.50 126.00,78.50 127.00,78.50 128.00,78.50 129.00,78.50 130.00,78.50 131.00,78.50 132.00,78.50 133.00,78.50 133.50,78.00 133.50,77.00 134.00,76.50 134.50,76.00 134.50,75.00 135.00,74.50 135.50,74.00 136.00,73.50 136.50,73.00 136.50,72.00 137.00,71.50 137.50,71.00 138.00,70.50 138.50,70.00 139.00,69.50 140.00,69.50 140.50,69.00 141.00,68.50 141.50,68.00 142.00,67.50 143.00,67.50 143.50,67.00 144.00,66.50 145.00,66.50 145.50,66.00 146.00,65.50 147.00,65.50 148.00,65.50 149.00,65.50 149.50,65.00 150.00,64.50 150.50,65.00 151.00,65.50 151.50,65.00 152.00,64.50 152.50,65.00 153.00,65.50 154.00,65.50 154.50,65.00 155.00,64.50 155.50,65.00 156.00,65.50 157.00,65.50 158.00,65.50 159.00,65.50 160.00,65.50 160.50,66.00 161.00,66.50 162.00,66.50 162.50,67.00 163.00,67.50 164.00,67.50 164.50,68.00 165.00,68.50 165.50,69.00 166.00,69.50 166.50,70.00 167.00,70.50 167.50,71.00 168.00,71.50 168.50,72.00 169.00,72.50 169.50,73.00 170.00,73.50 170.50,74.00 170.50,75.00 171.00,75.50 171.50,76.00 171.50,77.00 172.00,77.50 172.50,78.00 173.00,78.50 174.00,78.50 175.00,78.50 176.00,78.50 177.00,78.50 178.00,78.50 179.00,78.50 180.00,78.50 181.00,78.50 182.00,78.50 183.00,78.50 184.00,78.50 185.00,78.50 186.00,78.50 187.00,78.50 188.00,78.50 189.00,78.50 190.00,78.50 191.00,78.50 192.00,78.50 193.00,78.50 194.00,78.50 195.00,78.50 196.00,78.50 197.00,78.50 198.00,78.50 199.00,78.50 200.00,78.50 201.00,78.50 202.00,78.50 203.00,78.50 204.00,78.50 205.00,78.50 206.00,78.50 207.00,78.50 208.00,78.50 209.00,78.50 210.00,78.50 211.00,78.50 212.00,78.50 213.00,78.50 214.00,78.50 215.00,78.50 216.00,78.50 217.00,78.50 218.00,78.50 219.00,78.50 220.00,78.50 221.00,78.50 222.00,78.50 223.00,78.50 224.00,78.50 225.00,78.50 226.00,78.50 227.00,78.50 228.00,78.50 229.00,78.50 230.00,78.50 231.00,78.50 232.00,78.50 233.00,78.50 234.00,78.50 235.00,78.50 236.00,78.50 237.00,78.50 238.00,78.50 239.00,78.50 240.00,78.50 241.00,78.50 242.00,78.50 243.00,78.50 244.00,78.50 245.00,78.50 246.00,78.50 247.00,78.50 248.00,78.50 249.00,78.50 250.00,78.50 251.00,78.50 251.50,79.00 252.00,79.50 253.00,79.50 253.50,80.00 254.00,80.50 254.50,81.00 255.00,81.50 255.50,82.00 255.50,83.00 256.00,83.50 256.50,84.00 256.50,85.00 256.50,86.00 257.00,86.50 257.50,87.00 257.50,88.00 257.50,89.00 257.50,90.00 257.00,90.50 256.50,91.00 256.50,92.00 256.50,93.00 256.00,93.50 255.50,94.00 255.50,95.00 255.00,95.50 254.50,96.00 254.00,96.50 253.50,97.00 253.00,97.50 252.50,98.00 252.00,98.50 251.00,98.50 250.00,98.50 249.00,98.50 248.00,98.50 247.00,98.50 246.00,98.50 245.00,98.50 244.00,98.50 243.00,98.50 242.00,98.50 241.00,98.50 240.00,98.50 239.00,98.50 238.00,98.50 237.00,98.50 236.00,98.50 235.00,98.50 234.00,98.50 233.00,98.50 232.00,98.50 231.00,98.50 230.00,98.50 229.00,98.50 228.00,98.50 227.00,98.50 226.00,98.50 225.00,98.50 224.00,98.50 223.00,98.50 222.00,98.50 221.00,98.50 220.00,98.50 219.00,98.50 218.00,98.50 217.00,98.50 216.00,98.50 215.00,98.50 214.00,98.50 213.00,98.50 212.00,98.50 211.00,98.50 210.00,98.50 209.00,98.50 208.00,98.50 207.00,98.50 206.00,98.50 205.00,98.50 204.00,98.50 203.00,98.50 202.00,98.50 201.00,98.50 200.00,98.50 199.00,98.50 198.00,98.50 197.00,98.50 196.00,98.50 195.00,98.50 194.00,98.50 193.00,98.50 192.00,98.50 191.00,98.50 190.00,98.50 189.00,98.50 188.00,98.50 187.00,98.50 186.00,98.50 185.00,98.50 184.00,98.50 183.00,98.50 182.00,98.50 181.00,98.50 180.00,98.50 179.00,98.50 178.00,98.50 177.00,98.50 176.00,98.50 175.00,98.50 174.50,99.00 174.50,100.00 174.50,101.00 174.50,102.00 174.50,103.00 174.50,104.00 174.50,105.00 174.50,106.00 174.50,107.00 174.50,108.00 174.50,109.00 174.50,110.00 174.50,111.00 175.00,111.50 176.00,111.50 177.00,111.50 178.00,111.50 179.00,111.50 180.00,111.50 181.00,111.50 182.00,111.50 183.00,111.50 184.00,111.50 185.00,111.50 186.00,111.50 187.00,111.50 188.00,111.50 189.00,111.50 190.00,111.50 191.00,111.50 192.00,111.50 193.00,111.50 194.00,111.50 195.00,111.50 196.00,111.50 197.00,111.50 198.00,111.50 199.00,111.50 200.00,111.50 201.00,111.50 202.00,111.50 203.00,111.50 204.00,111.50 205.00,111.50 206.00,111.50 207.00,111.50 208.00,111.50 209.00,111.50 210.00,111.50 211.00,111.50 212.00,111.50 213.00,111.50 214.00,111.50 215.00,111.50 216.00,111.50 217.00,111.50 218.00,111.50 219.00,111.50 220.00,111.50 221.00,111.50 222.00,111.50 223.00,111.50 224.00,111.50 225.00,111.50 226.00,111.50 227.00,111.50 228.00,111.50 229.00,111.50 230.00,111.50 231.00,111.50 232.00,111.50 233.00,111.50 234.00,111.50 235.00,111.50 236.00,111.50 237.00,111.50 238.00,111.50 239.00,111.50 240.00,111.50 241.00,111.50 242.00,111.50 243.00,111.50 244.00,111.50 245.00,111.50 246.00,111.50 247.00,111.50 248.00,111.50 249.00,111.50 250.00,111.50 251.00,111.50 252.00,111.50 253.00,111.50 254.00,111.50 255.00,111.50 256.00,111.50 256.50,112.00 257.00,112.50 258.00,112.50 259.00,112.50 259.50,113.00 260.00,113.50 260.50,114.00 261.00,114.50 261.50,115.00 262.00,115.50 262.50,116.00 262.50,117.00 263.00,117.50 263.50,118.00 263.50,119.00 263.50,120.00 263.50,121.00 263.50,122.00 263.50,123.00 263.50,124.00 263.50,125.00 263.50,126.00 263.00,126.50 262.50,127.00 262.50,128.00 262.00,128.50 261.50,129.00 261.00,129.50 260.50,130.00 260.00,130.50 259.50,131.00 259.00,131.50 258.00,131.50 257.50,132.00 257.00,132.50 256.00,132.50 255.00,132.50 254.00,132.50 253.00,132.50 252.00,132.50 251.00,132.50 250.00,132.50 249.00,132.50 248.00,132.50 247.00,132.50 246.00,132.50 245.00,132.50 244.00,132.50 243.00,132.50 242.00,132.50 241.00,132.50 240.00,132.50 239.00,132.50 238.00,132.50 237.00,132.50 236.00,132.50 235.00,132.50 234.00,132.50 233.00,132.50 232.00,132.50 231.00,132.50 230.00,132.50 229.00,132.50 228.00,132.50 227.00,132.50 226.00,132.50 225.00,132.50 224.00,132.50 223.00,132.50 222.00,132.50 221.00,132.50 220.00,132.50 219.00,132.50 218.00,132.50 217.00,132.50 216.00,132.50 215.00,132.50 214.00,132.50 213.00,132.50 212.00,132.50 211.00,132.50 210.00,132.50 209.00,132.50 208.00,132.50 207.00,132.50 206.00,132.50 205.00,132.50 204.00,132.50 203.00,132.50 202.00,132.50 201.00,132.50 200.00,132.50 199.00,132.50 198.00,132.50 197.00,132.50 196.00,132.50 195.00,132.50 194.00,132.50 193.00,132.50 192.00,132.50 191.00,132.50 190.00,132.50 189.00,132.50 188.00,132.50 187.00,132.50 186.00,132.50 185.00,132.50 184.00,132.50 183.00,132.50 182.00,132.50 181.00,132.50 180.00,132.50 179.00,132.50 178.00,132.50 177.00,132.50 176.00,132.50 175.00,132.50 174.50,133.00 174.50,134.00 174.50,135.00 174.50,136.00 174.50,137.00 174.50,138.00 174.50,139.00 174.50,140.00 174.50,141.00 174.50,142.00 174.50,143.00 174.50,144.00 174.50,145.00 174.50,146.00 174.50,147.00 174.50,148.00 175.00,148.50 176.00,148.50 177.00,148.50 178.00,148.50 179.00,148.50 180.00,148.50 181.00,148.50 182.00,148.50 183.00,148.50 184.00,148.50 185.00,148.50 186.00,148.50 187.00,148.50 188.00,148.50 189.00,148.50 190.00,148.50 191.00,148.50 192.00,148.50 193.00,148.50 194.00,148.50 195.00,148.50 196.00,148.50 197.00,148.50 198.00,148.50 199.00,148.50 200.00,148.50 201.00,148.50 202.00,148.50 203.00,148.50 204.00,148.50 205.00,148.50 206.00,148.50 207.00,148.50 208.00,148.50 209.00,148.50 210.00,148.50 211.00,148.50 212.00,148.50 213.00,148.50 214.00,148.50 215.00,148.50 216.00,148.50 217.00,148.50 218.00,148.50 219.00,148.50 220.00,148.50 221.00,148.50 222.00,148.50 223.00,148.50 224.00,148.50 225.00,148.50 226.00,148.50 227.00,148.50 228.00,148.50 229.00,148.50 230.00,148.50 231.00,148.50 232.00,148.50 233.00,148.50 234.00,148.50 235.00,148.50 236.00,148.50 237.00,148.50 238.00,148.50 239.00,148.50 240.00,148.50 241.00,148.50 242.00,148.50 243.00,148.50 244.00,148.50 245.00,148.50 246.00,148.50 247.00,148.50 248.00,148.50 249.00,148.50 249.50,149.00 250.00,149.50 251.00,149.50 251.50,150.00 252.00,150.50 253.00,150.50 253.50,151.00 254.00,151.50 255.00,151.50 255.50,152.00 256.00,152.50 256.50,153.00 257.00,153.50 257.50,154.00 258.00,154.50 258.50,155.00 259.00,155.50 259.50,156.00 259.50,157.00 260.00,157.50 260.50,158.00 261.00,158.50 261.50,159.00 261.50,160.00 261.50,161.00 262.00,161.50 262.50,162.00 262.50,163.00 262.50,164.00 263.00,164.50 263.50,165.00 263.50,166.00 263.50,167.00 263.50,168.00 263.50,169.00 263.50,170.00 263.50,171.00 263.50,172.00 263.50,173.00 263.50,174.00 263.50,175.00 263.50,176.00 263.50,177.00 263.50,178.00 263.50,179.00 263.50,180.00 263.50,181.00 263.50,182.00 263.50,183.00 263.50,184.00 263.50,185.00 263.50,186.00 263.50,187.00 263.50,188.00 263.50,189.00 263.50,190.00 263.50,191.00 263.50,192.00 263.50,193.00 263.50,194.00 263.50,195.00 263.50,196.00 263.50,197.00 263.00,197.50 262.50,198.00 262.50,199.00 262.50,200.00 262.00,200.50 261.50,201.00 261.50,202.00 261.00,202.50 260.50,203.00 260.50,204.00 260.00,204.50 259.50,205.00 259.50,206.00 259.00,206.50 258.50,207.00 258.00,207.50 257.50,208.00 257.00,208.50 256.50,209.00 256.00,209.50 255.50,210.00 255.00,210.50 254.00,210.50 253.50,211.00 253.00,211.50 252.00,211.50 251.50,212.00 251.00,212.50 250.00,212.50 249.00,212.50 248.50,213.00 248.00,213.50 247.00,213.50 246.00,213.50 245.00,213.50 244.00,213.50 243.00,213.50 242.00,213.50 241.00,213.50 240.00,213.50 239.00,213.50 238.00,213.50 237.00,213.50 236.00,213.50 235.00,213.50 234.00,213.50 233.00,213.50 232.00,213.50 231.00,213.50 230.00,213.50 229.00,213.50 228.00,213.50 227.00,213.50 226.00,213.50 225.00,213.50 224.00,213.50 223.00,213.50 222.00,213.50 221.00,213.50 220.00,213.50 219.00,213.50 218.00,213.50 217.00,213.50 216.00,213.50 215.00,213.50 214.00,213.50 213.00,213.50 212.00,213.50 211.00,213.50 210.00,213.50 209.00,213.50 208.00,213.50 207.00,213.50 206.00,213.50 205.00,213.50 204.00,213.50 203.00,213.50 202.00,213.50 201.00,213.50 200.00,213.50 199.00,213.50 198.00,213.50 197.00,213.50 196.00,213.50 195.00,213.50 194.00,213.50 193.00,213.50 192.00,213.50 191.00,213.50 190.00,213.50 189.00,213.50 188.00,213.50 187.00,213.50 186.00,213.50 185.00,213.50 184.00,213.50 183.00,213.50 182.00,213.50 181.00,213.50 180.00,213.50 179.00,213.50 178.00,213.50 177.00,213.50 176.00,213.50 175.00,213.50 174.00,213.50 173.00,213.50 172.00,213.50 171.00,213.50 170.00,213.50 169.00,213.50 168.00,213.50 167.00,213.50 166.00,213.50 165.00,213.50 164.00,213.50 163.00,213.50 162.00,213.50 161.00,213.50 160.00,213.50 159.00,213.50 158.00,213.50 157.00,213.50 156.00,213.50 155.00,213.50 154.00,213.50 153.00,213.50 152.00,213.50 151.00,213.50 150.00,213.50 149.00,213.50 148.00,213.50 147.00,213.50 146.00,213.50 145.00,213.50 144.00,213.50 143.00,213.50 142.00,213.50 141.00,213.50 140.00,213.50 139.00,213.50 138.00,213.50 137.00,213.50 136.00,213.50 135.00,213.50 134.00,213.50 133.00,213.50 132.00,213.50 131.00,213.50 130.00,213.50 129.00,213.50 128.00,213.50 127.00,213.50 126.00,213.50 125.00,213.50 124.00,213.50 123.00,213.50 122.00,213.50 121.00,213.50 120.00,213.50 119.00,213.50 118.00,213.50 117.00,213.50 116.00,213.50 115.00,213.50 114.00,213.50 113.00,213.50 112.00,213.50 111.00,213.50 110.00,213.50 109.00,213.50 108.00,213.50 107.00,213.50 106.00,213.50 105.00,213.50 104.00,213.50 103.00,213.50 102.00,213.50 101.00,213.50 100.00,213.50 99.00,213.50 98.00,213.50 97.00,213.50 96.00,213.50 95.00,213.50 94.00,213.50 93.00,213.50 92.00,213.50 91.00,213.50 90.00,213.50 89.00,213.50 88.00,213.50 87.00,213.50 86.00,213.50 85.00,213.50 84.50,213.00 84.00,212.50 83.00,212.50 82.00,212.50 81.50,212.00 81.00,211.50 80.00,211.50 79.50,211.00 79.00,210.50 78.00,210.50 77.50,210.00 77.00,209.50 76.50,209.00 76.00,208.50 75.50,208.00 75.00,207.50 74.50,207.00 74.00,206.50 73.50,206.00 73.00,205.50 72.50,205.00 72.50,204.00 72.00,203.50 71.50,203.00 71.50,202.00 71.00,201.50 70.50,201.00 70.50,200.00 70.50,199.00 70.00,198.50 69.50,198.00 69.50,197.00 69.50,196.00 69.50,195.00 69.50,194.00 69.50,193.00 69.50,192.00 69.50,191.00 69.50,190.00 69.50,189.00 69.50,188.00 69.00,187.50 68.50,188.00 68.50,189.00 68.00,189.50 67.50,190.00 67.50,191.00 67.50,192.00 67.00,192.50 66.50,193.00 66.50,194.00 66.00,194.50 65.50,195.00 65.00,195.50 64.50,196.00 64.50,197.00 64.00,197.50 63.50,198.00 63.50,199.00 63.00,199.50 62.50,200.00 62.00,200.50 61.50,201.00 61.00,201.50 60.50,202.00 60.00,202.50 59.50,203.00 59.00,203.50 58.50,204.00 58.00,204.50 57.50,205.00 57.00,205.50 56.50,206.00 56.00,206.50 55.50,207.00 55.00,207.50 54.50,208.00 54.00,208.50 53.00,208.50 52.50,209.00 52.00,209.50 51.50,210.00 51.00,210.50 50.00,210.50 49.50,211.00 49.00,211.50 48.00,211.50 47.50,212.00 47.00,212.50 46.00,212.50 45.50,213.00 45.00,213.50 44.00,213.50 43.50,214.00 43.00,214.50 42.00,214.50 41.00,214.50 40.50,215.00 40.00,215.50 39.00,215.50 38.00,215.50 37.50,216.00 37.00,216.50 36.00,216.50 35.00,216.50 34.00,216.50 33.50,217.00 33.00,217.50" />
</svg>