<svg xmlns="http://www.w3.org/2000/svg" width="283" height="283" viewBox="0 0 283 283">
<polyline fill="none" stroke="#222" stroke-width="1" points="25.00,212.50 24.00,212.50 23.00,212.50 22.00,212.50 21.00,212.50 20.00,212.50 19.00,212.50 18.00,212.50 17.50,212.00 17.00,211.50 16.00,211.50 15.00,211.50 14.50,211.00 14.00,210.50 13.50,210.00 13.50,209.00 13.00,208.50 12.50,208.00 12.50,207.00 12.00,206.50 11.50,206.00 11.50,205.00 11.50,204.00 11.50,203.00 11.50,202.00 11.50,201.00 12.00,200.50 12.50,200.00 12.50,199.00 12.50,198.00 13.00,197.50 13.50,197.00 13.50,196.00 14.00,195.50 14.50,195.00 15.00,194.50 15.50,194.00 16.00,193.50 16.50,193.00 17.00,192.50 18.00,192.50 18.50,192.00 19.00,191.50 20.00,191.50 21.00,191.50 21.50,191.00 22.00,190.50 23.00,190.50 24.00,190.50 25.00,190.50 25.50,190.00 26.00,189.50 27.00,189.50 28.00,189.50 28.50,189.00 29.00,188.50 30.00,188.50 30.50,188.00 31.00,187.50 32.00,187.50 32.50,187.00 33.00,186.50 34.00,186.50 34.50,186.00 35.00,185.50 36.00,185.50 36.50,185.00 37.00,184.50 38.00,184.50 38.50,184.00 39.00,183.50 39.50,183.00 40.00,182.50 40.50,182.00 41.00,181.50 42.00,181.50 42.50,181.00 43.00,180.50 43.50,180.00 44.00,179.50 44.50,179.00 45.00,178.50 45.50,178.00 46.00,177.50 46.50,177.00 47.00,176.50 47.50,176.00 47.50,175.00 48.00,174.50 48.50,174.00 49.00,173.50 49.50,173.00 49.50,172.00 50.00,171.50 50.50,171.00 50.50,170.00 50.50,169.00 51.00,168.50 51.50,168.00 51.50,167.00 51.50,166.00 51.50,165.00 51.50,164.00 52.00,163.50 52.50,163.00 52.50,162.00 52.50,161.00 52.50,160.00 52.50,159.00 52.50,158.00 53.00,157.50 53.50,157.00 53.50,156.00 53.50,155.00 53.50,154.00 53.50,153.00 53.50,152.00 53.50,151.00 54.00,150.50 54.50,150.00 54.50,149.00 54.50,148.00 54.50,147.00 54.50,146.00 54.50,145.00 55.00,144.50 55.50,144.00 55.50,143.00 55.50,142.00 55.50,141.00 55.50,140.00 55.50,139.00 56.00,138.50 56.50,138.00 56.50,137.00 56.50,136.00 56.50,135.00 56.50,134.00 56.50,133.00 57.00,132.50 57.50,132.00 57.50,131.00 57.50,130.00 57.50,129.00 57.50,128.00 57.50,127.00 58.00,126.50 58.50,126.00 58.50,125.00 58.50,124.00 58.50,123.00 58.50,122.00 58.50,121.00 59.00,120.50 59.50,120.00 59.50,119.00 59.50,118.00 59.50,117.00 59.50,116.00 59.50,115.00 59.50,114.00 60.00,113.50 60.50,113.00 60.50,112.00 60.50,111.00 60.50,110.00 60.50,109.00 60.50,108.00 60.50,107.00 60.00,106.50 59.50,106.00 59.00,105.50 58.00,105.50 57.50,105.00 57.00,104.50 56.00,104.50 55.00,104.50 54.00,104.50 53.00,104.50 52.00,104.50 51.00,104.50 50.00,104.50 49.00,104.50 48.00,104.50 47.50,105.00 47.00,105.50 46.50,105.00 46.00,104.50 45.00,104.50 44.00,104.50 43.00,104.50 42.50,105.00 42.00,105.50 41.50,105.00 41.00,104.50 40.00,104.50 39.00,104.50 38.00,104.50 37.50,104.00 37.00,103.50 36.00,103.50 35.50,103.00 35.00,102.50 34.50,102.00 34.50,101.00 34.00,100.50 33.50,100.00 33.00,99.50 32.50,99.00 32.50,98.00 32.50,97.00 32.50,96.00 32.50,95.00 32.00,94.50 31.50,94.00 32.00,93.50 32.50,93.00 32.50,92.00 32.50,91.00 32.50,90.00 33.00,89.50 33.50,89.00 34.00,88.50 34.50,88.00 35.00,87.50 35.50,87.00 36.00,86.50 36.50,86.00 37.00,85.50 38.00,85.50 39.00,85.50 40.00,85.50 41.00,85.50 42.00,85.50 43.00,85.50 44.00,85.50 45.00,85.50 46.00,85.50 47.00,85.50 48.00,85.50 49.00,85.50 50.00,85.50 51.00,85.50 52.00,85.50 53.00,85.50 54.00,85.50 55.00,85.50 56.00,85.50 57.00,85.50 58.00,85.50 59.00,85.50 60.00,85.50 61.00,85.50 62.00,85.50 63.00,85.50 64.00,85.50 65.00,85.50 65.50,85.00 65.50,84.00 66.00,83.50 66.50,83.00 66.50,82.00 67.00,81.50 67.50,81.00 68.00,80.50 68.50,80.00 68.50,79.00 69.00,78.50 69.50,78.00 70.00,77.50 70.50,77.00 71.00,76.50 71.50,76.00 72.00,75.50 72.50,75.00 73.00,74.50 74.00,74.50 74.50,74.00 75.00,73.50 75.50,73.00 76.00,72.50 77.00,72.50 77.50,72.00 78.00,71.50 79.00,71.50 79.50,71.00 80.00,70.50 81.00,70.50 82.00,70.50 83.00,70.50 84.00,70.50 85.00,70.50 86.00,70.50 87.00,70.50 88.00,70.50 89.00,70.50 90.00,70.50 90.50,71.00 91.00,71.50 92.00,71.50 92.50,72.00 93.00,72.50 94.00,72.50 94.50,73.00 95.00,73.50 95.50,74.00 96.00,74.50 96.50,75.00 97.00,75.50 97.50,76.00 97.50,77.00 98.00,77.50 98.50,78.00 98.50,79.00 99.00,79.50 99.50,80.00 99.50,81.00 99.50,82.00 100.00,82.50 100.50,83.00 100.50,84.00 100.50,85.00 101.00,85.50 102.00,85.50 103.00,85.50 104.00,85.50 105.00,85.50 106.00,85.50 107.00,85.50 108.00,85.50 109.00,85.50 110.00,85.50 111.00,85.50 112.00,85.50 113.00,85.50 114.00,85.50 115.00,85.50 116.00,85.50 117.00,85.50 118.00,85.50 119.00,85.50 120.00,85.50 121.00,85.50 122.00,85.50 123.00,85.50 124.00,85.50 125.00,85.50 126.00,85.50 127.00,85.50 128.00,85.50 129.00,85.50 130.00,85.50 131.00,85.50 132.00,85.50 133.00,85.50 134.00,85.50 135.00,85.50 136.00,85.50 137.00,85.50 138.00,85.50 139.00,85.50 140.00,85.50 141.00,85.50 142.00,85.50 143.00,85.50 144.00,85.50 145.00,85.50 146.00,85.50 147.00,85.50 148.00,85.50 149.00,85.50 150.00,85.50 151.00,85.50 152.00,85.50 153.00,85.50 154.00,85.50 154.50,86.00 155.00,86.50 156.00,86.50 157.00,86.50 157.50,87.00 158.00,87.50 158.50,88.00 159.00,88.50 159.50,89.00 160.00,89.50 160.50,90.00 161.00,90.50 161.50,91.00 161.50,92.00 162.00,92.50 162.50,93.00 162.50,94.00 162.50,95.00 163.00,95.50 163.50,96.00 163.50,97.00 163.50,98.00 163.50,99.00 163.50,100.00 163.50,101.00 163.50,102.00 163.50,103.00 163.50,104.00 163.50,105.00 163.50,106.00 163.50,107.00 163.50,108.00 163.00,108.50 162.50,109.00 162.50,110.00 162.50,111.00 162.50,112.00 162.50,113.00 162.50,114.00 162.50,115.00 162.50,116.00 162.50,117.00 162.50,118.00 162.00,118.50 161.50,119.00 161.50,120.00 161.50,121.00 161.50,122.00 161.50,123.00 161.50,124.00 161.50,125.00 161.50,126.00 161.50,127.00 161.50,128.00 161.00,128.50 160.50,129.00 161.00,129.50 161.50,130.00 161.00,130.50 160.50,131.00 160.50,132.00 160.50,133.00 160.50,134.00 160.50,135.00 160.50,136.00 160.50,137.00 160.50,138.00 160.00,138.50 159.50,139.00 159.50,140.00 159.50,141.00 159.50,142.00 159.50,143.00 159.50,144.00 159.50,145.00 159.50,146.00 159.50,147.00 159.50,148.00 159.00,148.50 158.50,149.00 158.50,150.00 158.50,151.00 158.50,152.00 158.50,153.00 158.50,154.00 158.50,155.00 158.50,156.00 158.50,157.00 158.50,158.00 158.50,159.00 158.00,159.50 157.50,160.00 157.50,161.00 157.50,162.00 157.50,163.00 157.50,164.00 157.50,165.00 157.50,166.00 157.50,167.00 157.00,167.50 156.50,168.00 156.50,169.00 156.50,170.00 156.50,171.00 156.00,171.50 155.50,172.00 155.50,173.00 155.50,174.00 155.50,175.00 155.00,175.50 154.50,176.00 154.50,177.00 154.00,177.50 153.50,178.00 153.50,179.00 153.50,180.00 153.00,180.50 152.50,181.00 152.50,182.00 152.00,182.50 151.50,183.00 151.50,184.00 151.00,184.50 150.50,185.00 150.00,185.50 149.50,186.00 149.50,187.00 149.00,187.50 148.50,188.00 148.50,189.00 148.00,189.50 147.50,190.00 147.00,190.50 146.50,191.00 146.00,191.50 145.50,192.00 145.50,193.00 145.00,193.50 144.50,194.00 144.00,194.50 143.50,195.00 143.00,195.50 142.50,196.00 142.00,196.50 141.50,197.00 141.00,197.50 140.50,198.00 140.00,198.50 139.50,199.00 139.00,199.50 138.50,200.00 138.00,200.50 137.00,200.50 136.50,201.00 136.00,201.50 135.50,202.00 135.00,202.50 134.50,203.00 134.00,203.50 133.00,203.50 132.50,204.00 132.00,204.50 131.50,205.00 131.00,205.50 130.00,205.50 129.50,206.00 129.00,206.50 128.00,206.50 127.00,206.50 126.50,207.00 126.00,207.50 125.00,207.50 124.50,208.00 124.00,208.50 123.00,208.50 122.00,208.50 121.50,209.00 121.00,209.50 120.00,209.50 119.00,209.50 118.00,209.50 117.50,210.00 117.00,210.50 116.00,210.50 115.00,210.50 114.00,210.50 113.00,210.50 112.00,210.50 111.00,210.50 110.00,210.50 109.00,210.50 108.00,210.50 107.00,210.50 106.00,210.50 105.00,210.50 104.00,210.50 103.00,210.50 102.00,210.50 101.00,210.50 100.00,210.50 99.00,210.50 98.00,210.50 97.00,210.50 96.00,210.50 95.00,210.50 94.00,210.50 93.00,210.50 92.00,210.50 91.00,210.50 90.00,210.50 89.00,210.50 88.00,210.50 87.00,210.50 86.00,210.50 85.00,210.50 84.00,210.50 83.00,210.50 82.00,210.50 81.00,210.50 80.00,210.50 79.00,210.50 78.00,210.50 77.00,210.50 76.00,210.50 75.00,210.50 74.00,210.50 73.00,210.50 72.00,210.50 71.00,210.50 70.50,210.00 70.00,209.50 69.50,209.00 69.00,208.50 68.50,208.00 68.00,207.50 67.50,207.00 67.00,206.50 66.50,206.00 66.50,205.00 66.50,204.00 66.50,203.00 66.50,202.00 66.50,201.00 66.50,200.00 66.50,199.00 66.50,198.00 67.00,197.50 67.50,197.00 67.50,196.00 68.00,195.50 68.50,195.00 69.00,194.50 69.50,194.00 70.00,193.50 70.50,193.00 71.00,192.50 71.50,192.00 72.00,191.50 73.00,191.50 74.00,191.50 74.50,191.00 75.00,190.50 76.00,190.50 77.00,190.50 78.00,190.50 79.00,190.50 80.00,190.50 81.00,190.50 82.00,190.50 83.00,190.50 84.00,190.50 85.00,190.50 86.00,190.50 87.00,190.50 88.00,190.50 89.00,190.50 90.00,190.50 91.00,190.50 92.00,190.50 93.00,190.50 94.00,190.50 94.50,190.00 95.00,189.50 96.00,189.50 97.00,189.50 97.50,189.00 98.00,188.50 99.00,188.50 99.50,188.00 100.00,187.50 100.50,187.00 101.00,186.50 102.00,186.50 102.50,186.00 103.00,185.50 103.50,185.00 104.00,184.50 104.50,184.00 105.00,183.50 105.50,183.00 106.00,182.50 106.50,182.00 107.00,181.50 107.50,181.00 108.00,180.50 108.50,180.00 109.00,179.50 109.50,179.00 109.50,178.00 110.00,177.50 110.50,177.00 111.00,176.50 111.50,176.00 111.50,175.00 112.00,174.50 112.50,174.00 112.50,173.00 112.50,172.00 113.00,171.50 113.50,171.00 113.50,170.00 113.50,169.00 114.00,168.50 114.50,168.00 114.50,167.00 114.50,166.00 114.50,165.00 114.50,164.00 115.00,163.50 115.50,163.00 115.50,162.00 115.50,161.00 115.50,160.00 115.50,159.00 115.50,158.00 115.50,157.00 115.50,156.00 115.50,155.00 115.50,154.00 116.00,153.50 116.50,153.00 116.50,152.00 116.50,151.00 116.50,150.00 116.50,149.00 116.50,148.00 116.50,147.00 116.50,146.00 116.50,145.00 116.50,144.00 117.00,143.50 117.50,143.00 117.50,142.00 117.50,141.00 117.50,140.00 117.50,139.00 117.50,138.00 117.50,137.00 117.50,136.00 117.50,135.00 117.50,134.00 118.00,133.50 118.50,133.00 118.00,132.50 117.50,132.00 118.00,131.50 118.50,131.00 118.50,130.00 118.50,129.00 118.50,128.00 118.50,127.00 118.50,126.00 118.50,125.00 118.50,124.00 118.50,123.00 119.00,122.50 119.50,122.00 119.50,121.00 119.50,120.00 119.50,119.00 119.50,118.00 119.50,117.00 119.50,116.00 119.50,115.00 119.50,114.00 119.50,113.00 120.00,112.50 120.50,112.00 120.50,111.00 120.50,110.00 120.50,109.00 120.50,108.00 120.00,107.50 119.50,107.00 119.50,106.00 119.00,105.50 118.00,105.50 117.50,105.00 117.00,104.50 116.00,104.50 115.50,105.00 115.00,105.50 114.50,105.00 114.00,104.50 113.50,105.00 113.00,105.50 112.50,105.00 112.00,104.50 111.00,104.50 110.00,104.50 109.00,104.50 108.00,104.50 107.00,104.50 106.00,104.50 105.00,104.50 104.00,104.50 103.00,104.50 102.50,105.00 102.00,105.50 101.50,105.00 101.00,104.50 100.00,104.50 99.50,105.00 99.00,105.50 98.50,106.00 98.00,106.50 97.50,107.00 97.50,108.00 97.50,109.00 97.50,110.00 97.00,110.50 96.50,111.00 96.50,112.00 96.50,113.00 96.50,114.00 96.50,115.00 96.50,116.00 96.00,116.50 95.50,117.00 95.50,118.00 95.50,119.00 95.50,120.00 95.50,121.00 95.50,122.00 95.50,123.00 95.00,123.50 94.50,124.00 94.50,125.00 94.50,126.00 94.50,127.00 94.50,128.00 94.00,128.50 93.50,129.00 93.50,130.00 93.50,131.00 93.50,132.00 93.50,133.00 93.50,134.00 93.00,134.50 92.50,135.00 92.50,136.00 92.50,137.00 92.50,138.00 92.50,139.00 92.50,140.00 92.50,141.00 92.00,141.50 91.50,142.00 91.50,143.00 91.50,144.00 91.50,145.00 91.50,146.00 91.50,147.00 91.00,147.50 90.50,148.00 90.50,149.00 90.50,150.00 90.50,151.00 90.50,152.00 90.50,153.00 90.00,153.50 89.50,154.00 89.50,155.00 89.50,156.00 89.50,157.00 89.00,157.50 88.50,158.00 88.50,159.00 88.50,160.00 88.50,161.00 88.00,161.50 87.50,162.00 87.50,163.00 87.50,164.00 87.00,164.50 86.50,165.00 86.50,166.00 86.00,166.50 85.50,167.00 85.50,168.00 85.50,169.00 85.00,169.50 84.50,170.00 84.50,171.00 84.00,171.50 83.50,172.00 83.50,173.00 83.00,173.50 82.50,174.00 82.50,175.00 82.00,175.50 81.50,176.00 81.50,177.00 81.00,177.50 80.50,178.00 80.00,178.50 79.50,179.00 79.50,180.00 79.00,180.50 78.50,181.00 78.00,181.50 77.50,182.00 77.50,183.00 77.00,183.50 76.50,184.00 76.00,184.50 75.50,185.00 75.00,185.50 74.50,186.00 74.50,187.00 74.00,187.50 73.50,188.00 73.00,188.50 72.50,189.00 72.00,189.50 71.50,190.00 71.00,190.50 70.50,191.00 70.00,191.50 69.50,192.00 69.00,192.50 68.50,193.00 68.00,193.50 67.50,194.00 67.00,194.50 66.50,195.00 66.00,195.50 65.50,196.00 65.00,196.50 64.50,197.00 64.00,197.50 63.50,198.00 63.00,198.50 62.00,198.50 61.50,199.00 61.00,199.50 60.50,200.00 60.00,200.50 59.50,201.00 59.00,201.50 58.00,201.50 57.50,202.00 57.00,202.50 56.50,203.00 56.00,203.50 55.00,203.50 54.50,204.00 54.00,204.50 53.00,204.50 52.50,205.00 52.00,205.50 51.00,205.50 50.50,206.00 50.00,206.50 49.00,206.50 48.50,207.00 48.00,207.50 47.00,207.50 46.50,208.00 46.00,208.50 45.00,208.50 44.00,208.50 43.50,209.00 43.00,209.50 42.00,209.50 41.00,209.50 40.50,210.00 40.00,210.50 39.00,210.50 38.00,210.50 37.00,210.50 36.00,210.50 35.50,211.00 35.00,211.50 34.00,211.50 33.00,211.50 32.00,211.50 31.00,211.50 30.00,211.50 29.00,211.50 28.00,211.50 27.00,211.50 26.00,211.50 25.50,212.00 25.00,212.50" />
<polyline fill="none" stroke="#00aa00" stroke-width="1" stroke-dasharray="3,2" points="85.00,88.50 84.50,88.00 85.00,87.50 85.50,88.00 85.00,88.50" />
<polyline fill="none" stroke="#00aa00" stroke-width="1" stroke-dasharray="3,2" points="83.00,95.50 82.50,95.00 82.50,94.00 82.50,93.00 83.00,92.50 83.50,92.00 83.50,91.00 83.50,90.00 83.50,89.00 84.00,88.50 84.50,89.00 84.50,90.00 84.50,91.00 84.50,92.00 85.00,92.50 86.00,92.50 86.50,93.00 86.00,93.50 85.00,93.50 84.00,93.50 83.50,94.00 83.50,95.00 83.00,95.50" />
<polyline fill="none" stroke="#00aa00" stroke-width="1" stroke-dasharray="3,2" points="89.00,94.50 88.00,94.50 87.00,94.50 86.50,94.00 87.00,93.50 88.00,93.50 89.00,93.50 89.50,94.00 89.00,94.50" />
<polyline fill="none" stroke="#00aa00" stroke-width="1" stroke-dasharray="3,2" points="69.00,95.50 68.00,95.50 67.00,95.50 66.00,95.50 65.00,95.50 64.00,95.50 63.00,95.50 62.00,95.50 61.00,95.50 60.00,95.50 59.00,95.50 58.00,95.50 57.00,95.50 56.00,95.50 55.00,95.50 54.00,95.50 53.00,95.50 52.00,95.50 51.00,95.50 50.00,95.50 49.00,95.50 48.00,95.50 47.00,95.50 46.00,95.50 45.00,95.50 44.00,95.50 43.00,95.50 42.50,95.00 43.00,94.50 44.00,94.50 45.00,94.50 46.00,94.50 47.00,94.50 48.00,94.50 49.00,94.50 50.00,94.50 51.00,94.50 52.00,94.50 53.00,94.50 54.00,94.50 55.00,94.50 56.00,94.50 57.00,94.50 58.00,94.50 59.00,94.50 60.00,94.50 61.00,94.50 62.00,94.50 63.00,94.50 64.00,94.50 65.00,94.50 66.00,94.50 67.00,94.50 68.00,94.50 69.00,94.50 69.50,95.00 69.00,95.50" />
<polyline fill="none" stroke="#00aa00" stroke-width="1" stroke-dasharray="3,2" points="129.00,95.50 128.00,95.50 127.00,95.50 126.00,95.50 125.00,95.50 124.00,95.50 123.00,95.50 122.00,95.50 121.00,95.50 120.00,95.50 119.00,95.50 118.00,95.50 117.00,95.50 116.00,95.50 115.00,95.50 114.00,95.50 113.00,95.50 112.00,95.50 111.00,95.50 110.00,95.50 109.00,95.50 108.00,95.50 107.00,95.50 106.00,95.50 105.00,95.50 104.00,95.50 103.00,95.50 102.00,95.50 101.00,95.50 100.00,95.50 99.00,95.50 98.00,95.50 97.00,95.50 96.00,95.50 95.00,95.50 94.00,95.50 93.00,95.50 92.00,95.50 91.00,95.50 90.00,95.50 89.50,95.00 90.00,94.50 91.00,94.50 92.00,94.50 93.00,94.50 94.00,94.50 95.00,94.50 96.00,94.50 97.00,94.50 98.00,94.50 99.00,94.50 100.00,94.50 101.00,94.50 102.00,94.50 103.00,94.50 104.00,94.50 105.00,94.50 106.00,94.50 107.00,94.50 108.00,94.50 109.00,94.50 110.00,94.50 111.00,94.50 112.00,94.50 113.00,94.50 114.00,94.50 115.00,94.50 116.00,94.50 117.00,94.50 118.00,94.50 119.00,94.50 120.00,94.50 121.00,94.50 122.00,94.50 123.00,94.50 124.00,94.50 125.00,94.50 126.00,94.50 127.00,94.50 128.00,94.50 129.00,94.50 129.50,95.00 129.00,95.50" />
<polyline fill="none" stroke="#00aa00" stroke-width="1" stroke-dasharray="3,2" points="239.00,95.50 238.00,95.50 237.00,95.50 236.00,95.50 235.00,95.50 234.00,95.50 233.00,95.50 232.00,95.50 231.00,95.50 230.00,95.50 229.00,95.50 228.00,95.50 227.00,95.50 226.00,95.50 225.00,95.50 224.00,95.50 223.00,95.50 222.00,95.50 221.00,95.50 220.00,95.50 219.00,95.50 218.00,95.50 217.00,95.50 216.00,95.50 215.00,95.50 214.00,95.50 213.00,95.50 212.00,95.50 211.00,95.50 210.00,95.50 209.00,95.50 208.00,95.50 207.00,95.50 206.00,95.50 205.00,95.50 204.00,95.50 203.00,95.50 202.50,95.00 203.00,94.50 204.00,94.50 205.00,94.50 206.00,94.50 207.00,94.50 208.00,94.50 209.00,94.50 210.00,94.50 211.00,94.50 212.00,94.50 213.00,94.50 214.00,94.50 215.00,94.50 216.00,94.50 217.00,94.50 218.00,94.50 219.00,94.50 220.00,94.50 221.00,94.50 222.00,94.50 223.00,94.50 224.00,94.50 225.00,94.50 226.00,94.50 227.00,94.50 228.00,94.50 229.00,94.50 230.00,94.50 231.00,94.50 232.00,94.50 233.00,94.50 234.00,94.50 235.00,94.50 236.00,94.50 237.00,94.50 238.00,94.50 239.00,94.50 239.50,95.00 239.00,95.50" />
<polyline fill="none" stroke="#00aa00" stroke-width="1" stroke-dasharray="3,2" points="71.00,96.50 70.00,96.50 69.50,96.00 70.00,95.50 71.00,95.50 71.50,96.00 71.00,96.50" />
<polyline fill="none" stroke="#00aa00" stroke-width="1" stroke-dasharray="3,2" points="82.00,96.50 81.50,96.00 82.00,95.50 82.50,96.00 82.00,96.50" />
<polyline fill="none" stroke="#00aa00" stroke-width="1" stroke-dasharray="3,2" points="131.00,96.50 130.00,96.50 129.50,96.00 130.00,95.50 131.00,95.50 131.50,96.00 131.00,96.50" />
<polyline fill="none" stroke="#00aa00" stroke-width="1" stroke-dasharray="3,2" points="202.00,96.50 201.00,96.50 200.00,96.50 199.50,96.00 200.00,95.50 201.00,95.50 202.00,95.50 202.50,96.00 202.00,96.50" />
<polyline fill="none" stroke="#00aa00" stroke-width="1" stroke-dasharray="3,2" points="243.00,96.50 242.00,96.50 241.00,96.50 240.00,96.50 239.50,96.00 240.00,95.50 241.00,95.50 242.00,95.50 243.00,95.50 243.50,96.00 243.00,96.50" />
<polyline fill="none" stroke="#00aa00" stroke-width="1" stroke-dasharray="3,2" points="72.00,97.50 71.50,97.00 72.00,96.50 72.50,97.00 72.00,97.50" />
<polyline fill="none" stroke="#00aa00" stroke-width="1" stroke-dasharray="3,2" points="81.00,100.50 80.50,100.00 80.50,99.00 80.50,98.00 80.50,97.00 81.00,96.50 81.50,97.00 81.50,98.00 81.50,99.00 81.50,100.00 81.00,100.50" />
<polyline fill="none" stroke="#00aa00" stroke-width="1" stroke-dasharray="3,2" points="132.00,97.50 131.50,97.00 132.00,96.50 132.50,97.00 132.00,97.50" />
<polyline fill="none" stroke="#00aa00" stroke-width="1" stroke-dasharray="3,2" points="199.00,97.50 198.00,97.50 197.50,97.00 198.00,96.50 199.00,96.50 199.50,97.00 199.00,97.50" />
<polyline fill="none" stroke="#00aa00" stroke-width="1" stroke-dasharray="3,2" points="245.00,97.50 244.00,97.50 243.50,97.00 244.00,96.50 245.00,96.50 245.50,97.00 245.00,97.50" />
<polyline fill="none" stroke="#00aa00" stroke-width="1" stroke-dasharray="3,2" points="73.00,98.50 72.50,98.00 73.00,97.50 73.50,98.00 73.00,98.50" />
<polyline fill="none" stroke="#00aa00" stroke-width="1" stroke-dasharray="3,2" points="133.00,98.50 132.50,98.00 133.00,97.50 133.50,98.00 133.00,98.50" />
<polyline fill="none" stroke="#00aa00" stroke-width="1" stroke-dasharray="3,2" points="197.00,98.50 196.50,98.00 197.00,97.50 197.50,98.00 197.00,98.50" />
<polyline fill="none" stroke="#00aa00" stroke-width="1" stroke-dasharray="3,2" points="246.00,98.50 245.50,98.00 246.00,97.50 246.50,98.00 246.00,98.50" />
<polyline fill="none" stroke="#00aa00" stroke-width="1" stroke-dasharray="3,2" points="74.00,99.50 73.50,99.00 74.00,98.50 74.50,99.00 74.00,99.50" />
<polyline fill="none" stroke="#00aa00" stroke-width="1" stroke-dasharray="3,2" points="134.00,99.50 133.50,99.00 134.00,98.50 134.50,99.00 134.00,99.50" />
<polyline fill="none" stroke="#00aa00" stroke-width="1" stroke-dasharray="3,2" points="196.00,99.50 195.50,99.00 196.00,98.50 196.50,99.00 196.00,99.50" />
<polyline fill="none" stroke="#00aa00" stroke-width="1" stroke-dasharray="3,2" points="247.00,99.50 246.50,99.00 247.00,98.50 247.50,99.00 247.00,99.50" />
<polyline fill="none" stroke="#00aa00" stroke-width="1" stroke-dasharray="3,2" points="75.00,100.50 74.50,100.00 75.00,99.50 75.50,100.00 75.00,100.50" />
<polyline fill="none" stroke="#00aa00" stroke-width="1" stroke-dasharray="3,2" points="135.00,100.50 134.50,100.00 135.00,99.50 135.50,100.00 135.00,100.50" />
<polyline fill="none" stroke="#00aa00" stroke-width="1" stroke-dasharray="3,2" points="195.00,100.50 194.50,100.00 195.00,99.50 195.50,100.00 195.00,100.50" />
<polyline fill="none" stroke="#00aa00" stroke-width="1" stroke-dasharray="3,2" points="248.00,100.50 247.50,100.00 248.00,99.50 248.50,100.00 248.00,100.50" />
<polyline fill="none" stroke="#00aa00" stroke-width="1" stroke-dasharray="3,2" points="76.00,101.50 75.50,101.00 76.00,100.50 76.50,101.00 76.00,101.50" />
<polyline fill="none" stroke="#00aa00" stroke-width="1" stroke-dasharray="3,2" points="80.00,101.50 79.50,101.00 80.00,100.50 80.50,101.00 80.00,101.50" />
<polyline fill="none" stroke="#00aa00" stroke-width="1" stroke-dasharray="3,2" points="136.00,101.50 135.50,101.00 136.00,100.50 136.50,101.00 136.00,101.50" />
<polyline fill="none" stroke="#00aa00" stroke-width="1" stroke-dasharray="3,2" points="194.00,101.50 193.50,101.00 194.00,100.50 194.50,101.00 194.00,101.50" />
<polyline fill="none" stroke="#00aa00" stroke-width="1" stroke-dasharray="3,2" points="249.00,103.50 248.50,103.00 248.50,102.00 248.50,101.00 249.00,100.50 249.50,101.00 249.50,102.00 249.50,103.00 249.00,103.50" />
<polyline fill="none" stroke="#00aa00" stroke-width="1" stroke-dasharray="3,2" points="78.00,106.50 77.50,106.00 77.50,105.00 77.50,104.00 77.50,103.00 77.00,102.50 76.50,102.00 77.00,101.50 78.00,101.50 79.00,101.50 79.50,102.00 79.00,102.50 78.50,103.00 78.50,104.00 78.50,105.00 78.50,106.00 78.00,106.50" />
<polyline fill="none" stroke="#00aa00" stroke-width="1" stroke-dasharray="3,2" points="137.00,103.50 136.50,103.00 136.50,102.00 137.00,101.50 137.50,102.00 137.50,103.00 137.00,103.50" />
<polyline fill="none" stroke="#00aa00" stroke-width="1" stroke-dasharray="3,2" points="193.00,102.50 192.50,102.00 193.00,101.50 193.50,102.00 193.00,102.50" />
<polyline fill="none" stroke="#00aa00" stroke-width="1" stroke-dasharray="3,2" points="192.00,104.50 191.50,104.00 191.50,103.00 192.00,102.50 192.50,103.00 192.50,104.00 192.00,104.50" />
<polyline fill="none" stroke="#00aa00" stroke-width="1" stroke-dasharray="3,2" points="138.00,104.50 137.50,104.00 138.00,103.50 138.50,104.00 138.00,104.50" />
<polyline fill="none" stroke="#00aa00" stroke-width="1" stroke-dasharray="3,2" points="250.00,106.50 249.50,106.00 249.50,105.00 249.50,104.00 250.00,103.50 250.50,104.00 250.50,105.00 250.50,106.00 250.00,106.50" />
<polyline fill="none" stroke="#00aa00" stroke-width="1" stroke-dasharray="3,2" points="139.00,107.50 138.50,107.00 138.50,106.00 138.50,105.00 139.00,104.50 139.50,105.00 139.50,106.00 139.50,107.00 139.00,107.50" />
<polyline fill="none" stroke="#00aa00" stroke-width="1" stroke-dasharray="3,2" points="191.00,106.50 190.50,106.00 190.50,105.00 191.00,104.50 191.50,105.00 191.50,106.00 191.00,106.50" />
<polyline fill="none" stroke="#00aa00" stroke-width="1" stroke-dasharray="3,2" points="77.00,118.50 76.50,118.00 76.50,117.00 76.50,116.00 76.50,115.00 76.50,114.00 76.50,113.00 76.50,112.00 76.50,111.00 76.50,110.00 76.50,109.00 76.50,108.00 76.50,107.00 77.00,106.50 77.50,107.00 77.50,108.00 77.50,109.00 77.50,110.00 77.50,111.00 77.50,112.00 77.50,113.00 77.50,114.00 77.50,115.00 77.50,116.00 77.50,117.00 77.50,118.00 77.00,118.50" />
<polyline fill="none" stroke="#00aa00" stroke-width="1" stroke-dasharray="3,2" points="190.00,109.50 189.50,109.00 189.50,108.00 189.50,107.00 190.00,106.50 190.50,107.00 190.50,108.00 190.50,109.00 190.00,109.50" />
<polyline fill="none" stroke="#00aa00" stroke-width="1" stroke-dasharray="3,2" points="251.00,110.50 250.50,110.00 250.50,109.00 250.50,108.00 250.50,107.00 251.00,106.50 251.50,107.00 251.50,108.00 251.50,109.00 251.50,110.00 251.00,110.50" />
<polyline fill="none" stroke="#00aa00" stroke-width="1" stroke-dasharray="3,2" points="140.00,129.50 139.50,129.00 139.50,128.00 139.50,127.00 139.50,126.00 139.50,125.00 139.50,124.00 139.50,123.00 139.50,122.00 139.50,121.00 139.50,120.00 139.50,119.00 139.50,118.00 139.50,117.00 139.50,116.00 139.50,115.00 139.50,114.00 139.50,113.00 139.50,112.00 139.50,111.00 139.50,110.00 139.50,109.00 139.50,108.00 140.00,107.50 140.50,108.00 140.50,109.00 140.50,110.00 140.50,111.00 140.50,112.00 140.50,113.00 140.50,114.00 140.50,115.00 140.50,116.00 140.50,117.00 140.50,118.00 140.50,119.00 140.50,120.00 140.50,121.00 140.50,122.00 140.50,123.00 140.50,124.00 140.50,125.00 140.50,126.00 140.50,127.00 140.50,128.00 140.50,129.00 140.00,129.50" />
<polyline fill="none" stroke="#00aa00" stroke-width="1" stroke-dasharray="3,2" points="189.00,113.50 188.50,113.00 188.50,112.00 188.50,111.00 188.50,110.00 189.00,109.50 189.50,110.00 189.50,111.00 189.50,112.00 189.50,113.00 189.00,113.50" />
<polyline fill="none" stroke="#00aa00" stroke-width="1" stroke-dasharray="3,2" points="252.00,119.50 251.50,119.00 251.50,118.00 251.50,117.00 251.50,116.00 251.50,115.00 251.50,114.00 251.50,113.00 251.50,112.00 251.50,111.00 252.00,110.50 252.50,111.00 252.50,112.00 252.50,113.00 252.50,114.00 252.50,115.00 252.50,116.00 252.50,117.00 252.50,118.00 252.50,119.00 252.00,119.50" />
<polyline fill="none" stroke="#00aa00" stroke-width="1" stroke-dasharray="3,2" points="188.00,115.50 187.50,115.00 187.50,114.00 188.00,113.50 188.50,114.00 188.50,115.00 188.00,115.50" />
<polyline fill="none" stroke="#00aa00" stroke-width="1" stroke-dasharray="3,2" points="187.00,122.50 186.50,122.00 186.50,121.00 186.50,120.00 186.50,119.00 186.50,118.00 186.50,117.00 186.50,116.00 187.00,115.50 187.50,116.00 187.50,117.00 187.50,118.00 187.50,119.00 187.50,120.00 187.50,121.00 187.50,122.00 187.00,122.50" />
<polyline fill="none" stroke="#00aa00" stroke-width="1" stroke-dasharray="3,2" points="76.00,129.50 75.50,129.00 75.50,128.00 75.50,127.00 75.50,126.00 75.50,125.00 75.50,124.00 75.50,123.00 75.50,122.00 75.50,121.00 75.50,120.00 75.50,119.00 76.00,118.50 76.50,119.00 76.50,120.00 76.50,121.00 76.50,122.00 76.50,123.00 76.50,124.00 76.50,125.00 76.50,126.00 76.50,127.00 76.50,128.00 76.50,129.00 76.00,129.50" />
<polyline fill="none" stroke="#00aa00" stroke-width="1" stroke-dasharray="3,2" points="251.00,139.50 250.50,139.00 250.50,138.00 250.50,137.00 250.50,136.00 250.50,135.00 250.50,134.00 250.50,133.00 250.50,132.00 250.50,131.00 250.50,130.00 250.50,129.00 250.50,128.00 250.50,127.00 250.50,126.00 250.50,125.00 250.50,124.00 250.50,123.00 250.50,122.00 250.50,121.00 250.50,120.00 251.00,119.50 251.50,120.00 251.50,121.00 251.50,122.00 251.50,123.00 251.50,124.00 251.50,125.00 251.50,126.00 251.50,127.00 251.50,128.00 251.50,129.00 251.50,130.00 251.50,131.00 251.50,132.00 251.50,133.00 251.50,134.00 251.50,135.00 251.50,136.00 251.50,137.00 251.50,138.00 251.50,139.00 251.00,139.50" />
<polyline fill="none" stroke="#00aa00" stroke-width="1" stroke-dasharray="3,2" points="186.00,131.50 185.50,131.00 185.50,130.00 185.50,129.00 185.50,128.00 185.50,127.00 185.50,126.00 185.50,125.00 185.50,124.00 185.50,123.00 186.00,122.50 186.50,123.00 186.50,124.00 186.50,125.00 186.50,126.00 186.50,127.00 186.50,128.00 186.50,129.00 186.50,130.00 186.50,131.00 186.00,131.50" />
<polyline fill="none" stroke="#00aa00" stroke-width="1" stroke-dasharray="3,2" points="75.00,136.50 74.50,136.00 74.50,135.00 74.50,134.00 74.50,133.00 74.50,132.00 74.50,131.00 74.50,130.00 75.00,129.50 75.50,130.00 75.50,131.00 75.50,132.00 75.50,133.00 75.50,134.00 75.50,135.00 75.50,136.00 75.00,136.50" />
<polyline fill="none" stroke="#00aa00" stroke-width="1" stroke-dasharray="3,2" points="139.00,140.50 138.50,140.00 138.50,139.00 138.50,138.00 138.50,137.00 138.50,136.00 138.50,135.00 138.50,134.00 138.50,133.00 138.50,132.00 138.50,131.00 138.50,130.00 139.00,129.50 139.50,130.00 139.50,131.00 139.50,132.00 139.50,133.00 139.50,134.00 139.50,135.00 139.50,136.00 139.50,137.00 139.50,138.00 139.50,139.00 139.50,140.00 139.00,140.50" />
<polyline fill="none" stroke="#00aa00" stroke-width="1" stroke-dasharray="3,2" points="185.00,143.50 184.50,143.00 184.50,142.00 184.50,141.00 184.50,140.00 184.50,139.00 184.50,138.00 184.50,137.00 184.50,136.00 184.50,135.00 184.50,134.00 184.50,133.00 184.50,132.00 185.00,131.50 185.50,132.00 185.50,133.00 185.50,134.00 185.50,135.00 185.50,136.00 185.50,137.00 185.50,138.00 185.50,139.00 185.50,140.00 185.50,141.00 185.50,142.00 185.50,143.00 185.00,143.50" />
<polyline fill="none" stroke="#00aa00" stroke-width="1" stroke-dasharray="3,2" points="74.00,141.50 73.50,141.00 73.50,140.00 73.50,139.00 73.50,138.00 73.50,137.00 74.00,136.50 74.50,137.00 74.50,138.00 74.50,139.00 74.50,140.00 74.50,141.00 74.00,141.50" />
<polyline fill="none" stroke="#00aa00" stroke-width="1" stroke-dasharray="3,2" points="250.00,147.50 249.50,147.00 249.50,146.00 249.50,145.00 249.50,144.00 249.50,143.00 249.50,142.00 249.50,141.00 249.50,140.00 250.00,139.50 250.50,140.00 250.50,141.00 250.50,142.00 250.50,143.00 250.50,144.00 250.50,145.00 250.50,146.00 250.50,147.00 250.00,147.50" />
<polyline fill="none" stroke="#00aa00" stroke-width="1" stroke-dasharray="3,2" points="138.00,148.50 137.50,148.00 137.50,147.00 137.50,146.00 137.50,145.00 137.50,144.00 137.50,143.00 137.50,142.00 137.50,141.00 138.00,140.50 138.50,141.00 138.50,142.00 138.50,143.00 138.50,144.00 138.50,145.00 138.50,146.00 138.50,147.00 138.50,148.00 138.00,148.50" />
<polyline fill="none" stroke="#00aa00" stroke-width="1" stroke-dasharray="3,2" points="73.00,146.50 72.50,146.00 72.50,145.00 72.50,144.00 72.50,143.00 72.50,142.00 73.00,141.50 73.50,142.00 73.50,143.00 73.50,144.00 73.50,145.00 73.50,146.00 73.00,146.50" />
<polyline fill="none" stroke="#00aa00" stroke-width="1" stroke-dasharray="3,2" points="184.00,151.50 183.50,151.00 183.50,150.00 183.50,149.00 183.50,148.00 183.50,147.00 183.50,146.00 183.50,145.00 183.50,144.00 184.00,143.50 184.50,144.00 184.50,145.00 184.50,146.00 184.50,147.00 184.50,148.00 184.50,149.00 184.50,150.00 184.50,151.00 184.00,151.50" />
<polyline fill="none" stroke="#00aa00" stroke-width="1" stroke-dasharray="3,2" points="72.00,149.50 71.50,149.00 71.50,148.00 71.50,147.00 72.00,146.50 72.50,147.00 72.50,148.00 72.50,149.00 72.00,149.50" />
<polyline fill="none" stroke="#00aa00" stroke-width="1" stroke-dasharray="3,2" points="249.00,157.50 248.50,157.00 248.50,156.00 248.50,155.00 248.50,154.00 248.50,153.00 248.50,152.00 248.50,151.00 248.50,150.00 248.50,149.00 248.50,148.00 249.00,147.50 249.50,148.00 249.50,149.00 249.50,150.00 249.50,151.00 249.50,152.00 249.50,153.00 249.50,154.00 249.50,155.00 249.50,156.00 249.50,157.00 249.00,157.50" />
<polyline fill="none" stroke="#00aa00" stroke-width="1" stroke-dasharray="3,2" points="137.00,152.50 136.50,152.00 136.50,151.00 136.50,150.00 136.50,149.00 137.00,148.50 137.50,149.00 137.50,150.00 137.50,151.00 137.50,152.00 137.00,152.50" />
<polyline fill="none" stroke="#00aa00" stroke-width="1" stroke-dasharray="3,2" points="71.00,153.50 70.50,153.00 70.50,152.00 70.50,151.00 70.50,150.00 71.00,149.50 71.50,150.00 71.50,151.00 71.50,152.00 71.50,153.00 71.00,153.50" />
<polyline fill="none" stroke="#00aa00" stroke-width="1" stroke-dasharray="3,2" points="183.00,160.50 182.50,160.00 182.50,159.00 182.50,158.00 182.50,157.00 182.50,156.00 182.50,155.00 182.50,154.00 182.50,153.00 182.50,152.00 183.00,151.50 183.50,152.00 183.50,153.00 183.50,154.00 183.50,155.00 183.50,156.00 183.50,157.00 183.50,158.00 183.50,159.00 183.50,160.00 183.00,160.50" />
<polyline fill="none" stroke="#00aa00" stroke-width="1" stroke-dasharray="3,2" points="136.00,159.50 135.50,159.00 135.50,158.00 135.50,157.00 135.50,156.00 135.50,155.00 135.50,154.00 135.50,153.00 136.00,152.50 136.50,153.00 136.50,154.00 136.50,155.00 136.50,156.00 136.50,157.00 136.50,158.00 136.50,159.00 136.00,159.50" />
<polyline fill="none" stroke="#00aa00" stroke-width="1" stroke-dasharray="3,2" points="70.00,157.50 69.50,157.00 69.50,156.00 69.50,155.00 69.50,154.00 70.00,153.50 70.50,154.00 70.50,155.00 70.50,156.00 70.50,157.00 70.00,157.50" />
<polyline fill="none" stroke="#00aa00" stroke-width="1" stroke-dasharray="3,2" points="69.00,159.50 68.50,159.00 68.50,158.00 69.00,157.50 69.50,158.00 69.50,159.00 69.00,159.50" />
<polyline fill="none" stroke="#00aa00" stroke-width="1" stroke-dasharray="3,2" points="248.00,168.50 247.50,168.00 247.50,167.00 247.50,166.00 247.50,165.00 247.50,164.00 247.50,163.00 247.50,162.00 247.50,161.00 247.50,160.00 247.50,159.00 247.50,158.00 248.00,157.50 248.50,158.00 248.50,159.00 248.50,160.00 248.50,161.00 248.50,162.00 248.50,163.00 248.50,164.00 248.50,165.00 248.50,166.00 248.50,167.00 248.50,168.00 248.00,168.50" />
<polyline fill="none" stroke="#00aa00" stroke-width="1" stroke-dasharray="3,2" points="68.00,163.50 67.50,163.00 67.50,162.00 67.50,161.00 67.50,160.00 68.00,159.50 68.50,160.00 68.50,161.00 68.50,162.00 68.50,163.00 68.00,163.50" />
<polyline fill="none" stroke="#00aa00" stroke-width="1" stroke-dasharray="3,2" points="135.00,162.50 134.50,162.00 134.50,161.00 134.50,160.00 135.00,159.50 135.50,160.00 135.50,161.00 135.50,162.00 135.00,162.50" />
<polyline fill="none" stroke="#00aa00" stroke-width="1" stroke-dasharray="3,2" points="182.00,173.50 181.50,173.00 181.50,172.00 181.50,171.00 181.50,170.00 181.50,169.00 181.50,168.00 181.50,167.00 181.50,166.00 181.50,165.00 181.50,164.00 181.50,163.00 181.50,162.00 181.50,161.00 182.00,160.50 182.50,161.00 182.50,162.00 182.50,163.00 182.50,164.00 182.50,165.00 182.50,166.00 182.50,167.00 182.50,168.00 182.50,169.00 182.50,170.00 182.50,171.00 182.50,172.00 182.50,173.00 182.00,173.50" />
<polyline fill="none" stroke="#00aa00" stroke-width="1" stroke-dasharray="3,2" points="134.00,167.50 133.50,167.00 133.50,166.00 133.50,165.00 133.50,164.00 133.50,163.00 134.00,162.50 134.50,163.00 134.50,164.00 134.50,165.00 134.50,166.00 134.50,167.00 134.00,167.50" />
<polyline fill="none" stroke="#00aa00" stroke-width="1" stroke-dasharray="3,2" points="67.00,165.50 66.50,165.00 66.50,164.00 67.00,163.50 67.50,164.00 67.50,165.00 67.00,165.50" />
<polyline fill="none" stroke="#00aa00" stroke-width="1" stroke-dasharray="3,2" points="66.00,169.50 65.50,169.00 65.50,168.00 65.50,167.00 65.50,166.00 66.00,165.50 66.50,166.00 66.50,167.00 66.50,168.00 66.50,169.00 66.00,169.50" />
<polyline fill="none" stroke="#00aa00" stroke-width="1" stroke-dasharray="3,2" points="133.00,170.50 132.50,170.00 132.50,169.00 132.50,168.00 133.00,167.50 133.50,168.00 133.50,169.00 133.50,170.00 133.00,170.50" />
<polyline fill="none" stroke="#00aa00" stroke-width="1" stroke-dasharray="3,2" points="247.00,175.50 246.50,175.00 246.50,174.00 246.50,173.00 246.50,172.00 246.50,171.00 246.50,170.00 246.50,169.00 247.00,168.50 247.50,169.00 247.50,170.00 247.50,171.00 247.50,172.00 247.50,173.00 247.50,174.00 247.50,175.00 247.00,175.50" />
<polyline fill="none" stroke="#00aa00" stroke-width="1" stroke-dasharray="3,2" points="65.00,171.50 64.50,171.00 64.50,170.00 65.00,169.50 65.50,170.00 65.50,171.00 65.00,171.50" />
<polyline fill="none" stroke="#00aa00" stroke-width="1" stroke-dasharray="3,2" points="132.00,173.50 131.50,173.00 131.50,172.00 131.50,171.00 132.00,170.50 132.50,171.00 132.50,172.00 132.50,173.00 132.00,173.50" />
<polyline fill="none" stroke="#00aa00" stroke-width="1" stroke-dasharray="3,2" points="64.00,174.50 63.50,174.00 63.50,173.00 63.50,172.00 64.00,171.50 64.50,172.00 64.50,173.00 64.50,174.00 64.00,174.50" />
<polyline fill="none" stroke="#00aa00" stroke-width="1" stroke-dasharray="3,2" points="131.00,176.50 130.50,176.00 130.50,175.00 130.50,174.00 131.00,173.50 131.50,174.00 131.50,175.00 131.50,176.00 131.00,176.50" />
<polyline fill="none" stroke="#00aa00" stroke-width="1" stroke-dasharray="3,2" points="181.00,186.50 180.50,186.00 180.50,185.00 180.50,184.00 180.50,183.00 180.50,182.00 180.50,181.00 180.50,180.00 180.50,179.00 180.50,178.00 180.50,177.00 180.50,176.00 180.50,175.00 180.50,174.00 181.00,173.50 181.50,174.00 181.50,175.00 181.50,176.00 181.50,177.00 181.50,178.00 181.50,179.00 181.50,180.00 181.50,181.00 181.50,182.00 181.50,183.00 181.50,184.00 181.50,185.00 181.50,186.00 181.00,186.50" />
<polyline fill="none" stroke="#00aa00" stroke-width="1" stroke-dasharray="3,2" points="63.00,176.50 62.50,176.00 62.50,175.00 63.00,174.50 63.50,175.00 63.50,176.00 63.00,176.50" />
<polyline fill="none" stroke="#00aa00" stroke-width="1" stroke-dasharray="3,2" points="246.00,179.50 245.50,179.00 245.50,178.00 245.50,177.00 245.50,176.00 246.00,175.50 246.50,176.00 246.50,177.00 246.50,178.00 246.50,179.00 246.00,179.50" />
<polyline fill="none" stroke="#00aa00" stroke-width="1" stroke-dasharray="3,2" points="62.00,178.50 61.50,178.00 61.50,177.00 62.00,176.50 62.50,177.00 62.50,178.00 62.00,178.50" />
<polyline fill="none" stroke="#00aa00" stroke-width="1" stroke-dasharray="3,2" points="130.00,178.50 129.50,178.00 129.50,177.00 130.00,176.50 130.50,177.00 130.50,178.00 130.00,178.50" />
<polyline fill="none" stroke="#00aa00" stroke-width="1" stroke-dasharray="3,2" points="61.00,180.50 60.50,180.00 60.50,179.00 61.00,178.50 61.50,179.00 61.50,180.00 61.00,180.50" />
<polyline fill="none" stroke="#00aa00" stroke-width="1" stroke-dasharray="3,2" points="129.00,181.50 128.50,181.00 128.50,180.00 128.50,179.00 129.00,178.50 129.50,179.00 129.50,180.00 129.50,181.00 129.00,181.50" />
<polyline fill="none" stroke="#00aa00" stroke-width="1" stroke-dasharray="3,2" points="245.00,184.50 244.50,184.00 244.50,183.00 244.50,182.00 244.50,181.00 244.50,180.00 245.00,179.50 245.50,180.00 245.50,181.00 245.50,182.00 245.50,183.00 245.50,184.00 245.00,184.50" />
<polyline fill="none" stroke="#00aa00" stroke-width="1" stroke-dasharray="3,2" points="60.00,181.50 59.50,181.00 60.00,180.50 60.50,181.00 60.00,181.50" />
<polyline fill="none" stroke="#00aa00" stroke-width="1" stroke-dasharray="3,2" points="59.00,183.50 58.50,183.00 58.50,182.00 59.00,181.50 59.50,182.00 59.50,183.00 59.00,183.50" />
<polyline fill="none" stroke="#00aa00" stroke-width="1" stroke-dasharray="3,2" points="128.00,182.50 127.50,182.00 128.00,181.50 128.50,182.00 128.00,182.50" />
<polyline fill="none" stroke="#00aa00" stroke-width="1" stroke-dasharray="3,2" points="127.00,184.50 126.50,184.00 126.50,183.00 127.00,182.50 127.50,183.00 127.50,184.00 127.00,184.50" />
<polyline fill="none" stroke="#00aa00" stroke-width="1" stroke-dasharray="3,2" points="58.00,184.50 57.50,184.00 58.00,183.50 58.50,184.00 58.00,184.50" />
<polyline fill="none" stroke="#00aa00" stroke-width="1" stroke-dasharray="3,2" points="57.00,185.50 56.50,185.00 57.00,184.50 57.50,185.00 57.00,185.50" />
<polyline fill="none" stroke="#00aa00" stroke-width="1" stroke-dasharray="3,2" points="126.00,186.50 125.50,186.00 125.50,185.00 126.00,184.50 126.50,185.00 126.50,186.00 126.00,186.50" />
<polyline fill="none" stroke="#00aa00" stroke-width="1" stroke-dasharray="3,2" points="244.00,187.50 243.50,187.00 243.50,186.00 243.50,185.00 244.00,184.50 244.50,185.00 244.50,186.00 244.50,187.00 244.00,187.50" />
<polyline fill="none" stroke="#00aa00" stroke-width="1" stroke-dasharray="3,2" points="56.00,186.50 55.50,186.00 56.00,185.50 56.50,186.00 56.00,186.50" />
<polyline fill="none" stroke="#00aa00" stroke-width="1" stroke-dasharray="3,2" points="55.00,187.50 54.50,187.00 55.00,186.50 55.50,187.00 55.00,187.50" />
<polyline fill="none" stroke="#00aa00" stroke-width="1" stroke-dasharray="3,2" points="125.00,187.50 124.50,187.00 125.00,186.50 125.50,187.00 125.00,187.50" />
<polyline fill="none" stroke="#00aa00" stroke-width="1" stroke-dasharray="3,2" points="182.00,190.50 181.50,190.00 181.50,189.00 181.50,188.00 181.50,187.00 182.00,186.50 182.50,187.00 182.50,188.00 182.50,189.00 182.50,190.00 182.00,190.50" />
<polyline fill="none" stroke="#00aa00" stroke-width="1" stroke-dasharray="3,2" points="54.00,188.50 53.50,188.00 54.00,187.50 54.50,188.00 54.00,188.50" />
<polyline fill="none" stroke="#00aa00" stroke-width="1" stroke-dasharray="3,2" points="124.00,188.50 123.50,188.00 124.00,187.50 124.50,188.00 124.00,188.50" />
<polyline fill="none" stroke="#00aa00" stroke-width="1" stroke-dasharray="3,2" points="243.00,190.50 242.50,190.00 242.50,189.00 242.50,188.00 243.00,187.50 243.50,188.00 243.50,189.00 243.50,190.00 243.00,190.50" />
<polyline fill="none" stroke="#00aa00" stroke-width="1" stroke-dasharray="3,2" points="53.00,189.50 52.50,189.00 53.00,188.50 53.50,189.00 53.00,189.50" />
<polyline fill="none" stroke="#00aa00" stroke-width="1" stroke-dasharray="3,2" points="123.00,189.50 122.50,189.00 123.00,188.50 123.50,189.00 123.00,189.50" />
<polyline fill="none" stroke="#00aa00" stroke-width="1" stroke-dasharray="3,2" points="52.00,190.50 51.50,190.00 52.00,189.50 52.50,190.00 52.00,190.50" />
<polyline fill="none" stroke="#00aa00" stroke-width="1" stroke-dasharray="3,2" points="122.00,190.50 121.50,190.00 122.00,189.50 122.50,190.00 122.00,190.50" />
<polyline fill="none" stroke="#00aa00" stroke-width="1" stroke-dasharray="3,2" points="51.00,191.50 50.00,191.50 49.50,191.00 50.00,190.50 51.00,190.50 51.50,191.00 51.00,191.50" />
<polyline fill="none" stroke="#00aa00" stroke-width="1" stroke-dasharray="3,2" points="121.00,192.50 120.50,192.00 120.50,191.00 121.00,190.50 121.50,191.00 121.50,192.00 121.00,192.50" />
<polyline fill="none" stroke="#00aa00" stroke-width="1" stroke-dasharray="3,2" points="183.00,193.50 182.50,193.00 182.50,192.00 182.50,191.00 183.00,190.50 183.50,191.00 183.50,192.00 183.50,193.00 183.00,193.50" />
<polyline fill="none" stroke="#00aa00" stroke-width="1" stroke-dasharray="3,2" points="242.00,192.50 241.50,192.00 241.50,191.00 242.00,190.50 242.50,191.00 242.50,192.00 242.00,192.50" />
<polyline fill="none" stroke="#00aa00" stroke-width="1" stroke-dasharray="3,2" points="49.00,192.50 48.50,192.00 49.00,191.50 49.50,192.00 49.00,192.50" />
<polyline fill="none" stroke="#00aa00" stroke-width="1" stroke-dasharray="3,2" points="48.00,193.50 47.50,193.00 48.00,192.50 48.50,193.00 48.00,193.50" />
<polyline fill="none" stroke="#00aa00" stroke-width="1" stroke-dasharray="3,2" points="120.00,193.50 119.00,193.50 118.50,193.00 119.00,192.50 120.00,192.50 120.50,193.00 120.00,193.50" />
<polyline fill="none" stroke="#00aa00" stroke-width="1" stroke-dasharray="3,2" points="241.00,193.50 240.50,193.00 241.00,192.50 241.50,193.00 241.00,193.50" />
<polyline fill="none" stroke="#00aa00" stroke-width="1" stroke-dasharray="3,2" points="47.00,194.50 46.00,194.50 45.50,194.00 46.00,193.50 47.00,193.50 47.50,194.00 47.00,194.50" />
<polyline fill="none" stroke="#00aa00" stroke-width="1" stroke-dasharray="3,2" points="118.00,194.50 117.50,194.00 118.00,193.50 118.50,194.00 118.00,194.50" />
<polyline fill="none" stroke="#00aa00" stroke-width="1" stroke-dasharray="3,2" points="184.00,194.50 183.50,194.00 184.00,193.50 184.50,194.00 184.00,194.50" />
<polyline fill="none" stroke="#00aa00" stroke-width="1" stroke-dasharray="3,2" points="240.00,195.50 239.50,195.00 239.50,194.00 240.00,193.50 240.50,194.00 240.50,195.00 240.00,195.50" />
<polyline fill="none" stroke="#00aa00" stroke-width="1" stroke-dasharray="3,2" points="45.00,195.50 44.00,195.50 43.50,195.00 44.00,194.50 45.00,194.50 45.50,195.00 45.00,195.50" />
<polyline fill="none" stroke="#00aa00" stroke-width="1" stroke-dasharray="3,2" points="117.00,195.50 116.00,195.50 115.50,195.00 116.00,194.50 117.00,194.50 117.50,195.00 117.00,195.50" />
<polyline fill="none" stroke="#00aa00" stroke-width="1" stroke-dasharray="3,2" points="185.00,195.50 184.50,195.00 185.00,194.50 185.50,195.00 185.00,195.50" />
<polyline fill="none" stroke="#00aa00" stroke-width="1" stroke-dasharray="3,2" points="43.00,196.50 42.00,196.50 41.50,196.00 42.00,195.50 43.00,195.50 43.50,196.00 43.00,196.50" />
<polyline fill="none" stroke="#00aa00" stroke-width="1" stroke-dasharray="3,2" points="115.00,196.50 114.50,196.00 115.00,195.50 115.50,196.00 115.00,196.50" />
<polyline fill="none" stroke="#00aa00" stroke-width="1" stroke-dasharray="3,2" points="186.00,196.50 185.50,196.00 186.00,195.50 186.50,196.00 186.00,196.50" />
<polyline fill="none" stroke="#00aa00" stroke-width="1" stroke-dasharray="3,2" points="239.00,196.50 238.50,196.00 239.00,195.50 239.50,196.00 239.00,196.50" />
<polyline fill="none" stroke="#00aa00" stroke-width="1" stroke-dasharray="3,2" points="41.00,197.50 40.00,197.50 39.50,197.00 40.00,196.50 41.00,196.50 41.50,197.00 41.00,197.50" />
<polyline fill="none" stroke="#00aa00" stroke-width="1" stroke-dasharray="3,2" points="114.00,197.50 113.00,197.50 112.00,197.50 111.50,197.00 112.00,196.50 113.00,196.50 114.00,196.50 114.50,197.00 114.00,197.50" />
<polyline fill="none" stroke="#00aa00" stroke-width="1" stroke-dasharray="3,2" points="187.00,197.50 186.50,197.00 187.00,196.50 187.50,197.00 187.00,197.50" />
<polyline fill="none" stroke="#00aa00" stroke-width="1" stroke-dasharray="3,2" points="238.00,197.50 237.50,197.00 238.00,196.50 238.50,197.00 238.00,197.50" />
<polyline fill="none" stroke="#00aa00" stroke-width="1" stroke-dasharray="3,2" points="39.00,198.50 38.00,198.50 37.50,198.00 38.00,197.50 39.00,197.50 39.50,198.00 39.00,198.50" />
<polyline fill="none" stroke="#00aa00" stroke-width="1" stroke-dasharray="3,2" points="111.00,198.50 110.50,198.00 111.00,197.50 111.50,198.00 111.00,198.50" />
<polyline fill="none" stroke="#00aa00" stroke-width="1" stroke-dasharray="3,2" points="188.00,198.50 187.50,198.00 188.00,197.50 188.50,198.00 188.00,198.50" />
<polyline fill="none" stroke="#00aa00" stroke-width="1" stroke-dasharray="3,2" points="237.00,198.50 236.00,198.50 235.50,198.00 236.00,197.50 237.00,197.50 237.50,198.00 237.00,198.50" />
<polyline fill="none" stroke="#00aa00" stroke-width="1" stroke-dasharray="3,2" points="37.00,199.50 36.00,199.50 35.00,199.50 34.50,199.00 35.00,198.50 36.00,198.50 37.00,198.50 37.50,199.00 37.00,199.50" />
<polyline fill="none" stroke="#00aa00" stroke-width="1" stroke-dasharray="3,2" points="110.00,199.50 109.00,199.50 108.00,199.50 107.50,199.00 108.00,198.50 109.00,198.50 110.00,198.50 110.50,199.00 110.00,199.50" />
<polyline fill="none" stroke="#00aa00" stroke-width="1" stroke-dasharray="3,2" points="191.00,199.50 190.00,199.50 189.00,199.50 188.50,199.00 189.00,198.50 190.00,198.50 191.00,198.50 191.50,199.00 191.00,199.50" />
<polyline fill="none" stroke="#00aa00" stroke-width="1" stroke-dasharray="3,2" points="235.00,199.50 234.00,199.50 233.50,199.00 234.00,198.50 235.00,198.50 235.50,199.00 235.00,199.50" />
<polyline fill="none" stroke="#00aa00" stroke-width="1" stroke-dasharray="3,2" points="34.00,200.50 33.00,200.50 32.00,200.50 31.00,200.50 30.50,200.00 31.00,199.50 32.00,199.50 33.00,199.50 34.00,199.50 34.50,200.00 34.00,200.50" />
<polyline fill="none" stroke="#00aa00" stroke-width="1" stroke-dasharray="3,2" points="107.00,200.50 106.00,200.50 105.00,200.50 104.00,200.50 103.00,200.50 102.00,200.50 101.00,200.50 100.00,200.50 99.00,200.50 98.00,200.50 97.00,200.50 96.00,200.50 95.00,200.50 94.00,200.50 93.00,200.50 92.00,200.50 91.00,200.50 90.00,200.50 89.00,200.50 88.00,200.50 87.00,200.50 86.00,200.50 85.00,200.50 84.50,200.00 85.00,199.50 86.00,199.50 87.00,199.50 88.00,199.50 89.00,199.50 90.00,199.50 91.00,199.50 92.00,199.50 93.00,199.50 94.00,199.50 95.00,199.50 96.00,199.50 97.00,199.50 98.00,199.50 99.00,199.50 100.00,199.50 101.00,199.50 102.00,199.50 103.00,199.50 104.00,199.50 105.00,199.50 106.00,199.50 107.00,199.50 107.50,200.00 107.00,200.50" />
<polyline fill="none" stroke="#00aa00" stroke-width="1" stroke-dasharray="3,2" points="233.00,200.50 232.00,200.50 231.00,200.50 230.00,200.50 229.00,200.50 228.00,200.50 227.00,200.50 226.00,200.50 225.00,200.50 224.00,200.50 223.00,200.50 222.00,200.50 221.00,200.50 220.00,200.50 219.00,200.50 218.00,200.50 217.00,200.50 216.00,200.50 215.00,200.50 214.00,200.50 213.00,200.50 212.00,200.50 211.00,200.50 210.00,200.50 209.00,200.50 208.00,200.50 207.00,200.50 206.00,200.50 205.00,200.50 204.00,200.50 203.00,200.50 202.00,200.50 201.00,200.50 200.00,200.50 199.00,200.50 198.00,200.50 197.00,200.50 196.00,200.50 195.00,200.50 194.00,200.50 193.00,200.50 192.00,200.50 191.50,200.00 192.00,199.50 193.00,199.50 194.00,199.50 195.00,199.50 196.00,199.50 197.00,199.50 198.00,199.50 199.00,199.50 200.00,199.50 201.00,199.50 202.00,199.50 203.00,199.50 204.00,199.50 205.00,199.50 206.00,199.50 207.00,199.50 208.00,199.50 209.00,199.50 210.00,199.50 211.00,199.50 212.00,199.50 213.00,199.50 214.00,199.50 215.00,199.50 216.00,199.50 217.00,199.50 218.00,199.50 219.00,199.50 220.00,199.50 221.00,199.50 222.00,199.50 223.00,199.50 224.00,199.50 225.00,199.50 226.00,199.50 227.00,199.50 228.00,199.50 229.00,199.50 230.00,199.50 231.00,199.50 232.00,199.50 233.00,199.50 233.50,200.00 233.00,200.50" />
<polyline fill="none" stroke="#00aa00" stroke-width="1" stroke-dasharray="3,2" points="30.00,201.50 29.00,201.50 28.00,201.50 27.00,201.50 26.50,201.00 27.00,200.50 28.00,200.50 29.00,200.50 30.00,200.50 30.50,201.00 30.00,201.50" />
<polyline fill="none" stroke="#00aa00" stroke-width="1" stroke-dasharray="3,2" points="84.00,201.50 83.00,201.50 82.00,201.50 81.00,201.50 80.00,201.50 79.50,201.00 80.00,200.50 81.00,200.50 82.00,200.50 83.00,200.50 84.00,200.50 84.50,201.00 84.00,201.50" />
<polyline fill="none" stroke="#00aa00" stroke-width="1" stroke-dasharray="3,2" points="26.00,202.50 25.00,202.50 24.50,202.00 25.00,201.50 26.00,201.50 26.50,202.00 26.00,202.50" />
<polyline fill="none" stroke="#00aa00" stroke-width="1" stroke-dasharray="3,2" points="79.00,202.50 78.50,202.00 79.00,201.50 79.50,202.00 79.00,202.50" />
<polyline fill="none" stroke="#00aa00" stroke-width="1" stroke-dasharray="3,2" points="24.00,203.50 23.00,203.50 22.00,203.50 21.50,203.00 22.00,202.50 23.00,202.50 24.00,202.50 24.50,203.00 24.00,203.50" />
<circle cx="84.00" cy="92.00" r="3" fill="none" stroke="#ff00ff" stroke-width="1"/>
<circle cx="83.00" cy="93.00" r="3" fill="none" stroke="#ff00ff" stroke-width="1"/>
<circle cx="84.00" cy="93.00" r="3" fill="none" stroke="#ff00ff" stroke-width="1"/>
<circle cx="85.00" cy="93.00" r="3" fill="none" stroke="#ff00ff" stroke-width="1"/>
<circle cx="83.00" cy="94.00" r="3" fill="none" stroke="#ff00ff" stroke-width="1"/>
<circle cx="77.00" cy="102.00" r="3" fill="none" stroke="#ff00ff" stroke-width="1"/>
<circle cx="78.00" cy="102.00" r="3" fill="none" stroke="#ff00ff" stroke-width="1"/>
<circle cx="79.00" cy="102.00" r="3" fill="none" stroke="#ff00ff" stroke-width="1"/>
<circle cx="78.00" cy="103.00" r="3" fill="none" stroke="#ff00ff" stroke-width="1"/>
<polyline fill="none" stroke="#3366ff" stroke-width="1" points="25.00,212.50 24.00,212.50 23.00,212.50 22.00,212.50 21.00,212.50 20.00,212.50 19.00,212.50 18.00,212.50 17.50,212.00 17.00,211.50 16.00,211.50 15.00,211.50 14.50,211.00 14.00,210.50 13.50,210.00 13.50,209.00 13.00,208.50 12.50,208.00 12.50,207.00 12.00,206.50 11.50,206.00 11.50,205.00 11.50,204.00 11.50,203.00 11.50,202.00 11.50,201.00 12.00,200.50 12.50,200.00 12.50,199.00 12.50,198.00 13.00,197.50 13.50,197.00 13.50,196.00 14.00,195.50 14.50,195.00 15.00,194.50 15.50,194.00 16.00,193.50 16.50,193.00 17.00,192.50 18.00,192.50 18.50,192.00 19.00,191.50 20.00,191.50 21.00,191.50 21.50,191.00 22.00,190.50 23.00,190.50 24.00,190.50 25.00,190.50 25.50,190.00 26.00,189.50 27.00,189.50 28.00,189.50 28.50,189.00 29.00,188.50 30.00,188.50 30.50,188.00 31.00,187.50 32.00,187.50 32.50,187.00 33.00,186.50 34.00,186.50 34.50,186.00 35.00,185.50 36.00,185.50 36.50,185.00 37.00,184.50 38.00,184.50 38.50,184.00 39.00,183.50 39.50,183.00 40.00,182.50 40.50,182.00 41.00,181.50 42.00,181.50 42.50,181.00 43.00,180.50 43.50,180.00 44.00,179.50 44.50,179.00 45.00,178.50 45.50,178.00 46.00,177.50 46.50,177.00 47.00,176.50 47.50,176.00 47.50,175.00 48.00,174.50 48.50,174.00 49.00,173.50 49.50,173.00 49.50,172.00 50.00,171.50 50.50,171.00 50.50,170.00 50.50,169.00 51.00,168.50 51.50,168.00 51.50,167.00 51.50,166.00 51.50,165.00 51.50,164.00 52.00,163.50 52.50,163.00 52.50,162.00 52.50,161.00 52.50,160.00 52.50,159.00 52.50,158.00 53.00,157.50 53.50,157.00 53.50,156.00 53.50,155.00 53.50,154.00 53.50,153.00 53.50,152.00 53.50,151.00 54.00,150.50 54.50,150.00 54.50,149.00 54.50,148.00 54.50,147.00 54.50,146.00 54.50,145.00 55.00,144.50 55.50,144.00 55.50,143.00 55.50,142.00 55.50,141.00 55.50,140.00 55.50,139.00 56.00,138.50 56.50,138.00 56.50,137.00 56.50,136.00 56.50,135.00 56.50,134.00 56.50,133.00 57.00,132.50 57.50,132.00 57.50,131.00 57.50,130.00 57.50,129.00 57.50,128.00 57.50,127.00 58.00,126.50 58.50,126.00 58.50,125.00 58.50,124.00 58.50,123.00 58.50,122.00 58.50,121.00 59.00,120.50 59.50,120.00 59.50,119.00 59.50,118.00 59.50,117.00 59.50,116.00 59.50,115.00 59.50,114.00 60.00,113.50 60.50,113.00 60.50,112.00 60.50,111.00 60.50,110.00 60.50,109.00 60.50,108.00 60.50,107.00 60.00,106.50 59.50,106.00 59.00,105.50 58.00,105.50 57.50,105.00 57.00,104.50 56.00,104.50 55.00,104.50 54.00,104.50 53.00,104.50 52.00,104.50 51.00,104.50 50.00,104.50 49.00,104.50 48.00,104.50 47.50,105.00 47.00,105.50 46.50,105.00 46.00,104.50 45.00,104.50 44.00,104.50 43.00,104.50 42.50,105.00 42.00,105.50 41.50,105.00 41.00,104.50 40.00,104.50 39.00,104.50 38.00,104.50 37.50,104.00 37.00,103.50 36.00,103.50 35.50,103.00 35.00,102.50 34.50,102.00 34.50,101.00 34.00,100.50 33.50,100.00 33.00,99.50 32.50,99.00 32.50,98.00 32.50,97.00 32.50,96.00 32.50,95.00 32.00,94.50 31.50,94.00 32.00,93.50 32.50,93.00 32.50,92.00 32.50,91.00 32.50,90.00 33.00,89.50 33.50,89.00 34.00,88.50 34.50,88.00 35.00,87.50 35.50,87.00 36.00,86.50 36.50,86.00 37.00,85.50 38.00,85.50 39.00,85.50 40.00,85.50 41.00,85.50 42.00,85.50 43.00,85.50 44.00,85.50 45.00,85.50 46.00,85.50 47.00,85.50 48.00,85.50 49.00,85.50 50.00,85.50 51.00,85.50 52.00,85.50 53.00,85.50 54.00,85.50 55.00,85.50 56.00,85.50 57.00,85.50 58.00,85.50 59.00,85.50 60.00,85.50 61.00,85.50 62.00,85.50 63.00,85.50 64.00,85.50 65.00,85.50 65.50,85.00 65.50,84.00 66.00,83.50 66.50,83.00 66.50,82.00 67.00,81.50 67.50,81.00 68.00,80.50 68.50,80.00 68.50,79.00 69.00,78.50 69.50,78.00 70.00,77.50 70.50,77.00 71.00,76.50 71.50,76.00 72.00,75.50 72.50,75.00 73.00,74.50 74.00,74.50 74.50,74.00 75.00,73.50 75.50,73.00 76.00,72.50 77.00,72.50 77.50,72.00 78.00,71.50 79.00,71.50 79.50,71.00 80.00,70.50 81.00,70.50 82.00,70.50 83.00,70.50 84.00,70.50 85.00,70.50 86.00,70.50 87.00,70.50 88.00,70.50 89.00,70.50 90.00,70.50 90.50,71.00 91.00,71.50 92.00,71.50 92.50,72.00 93.00,72.50 94.00,72.50 94.50,73.00 95.00,73.50 95.50,74.00 96.00,74.50 96.50,75.00 97.00,75.50 97.50,76.00 97.50,77.00 98.00,77.50 98.50,78.00 98.50,79.00 99.00,79.50 99.50,80.00 99.50,81.00 99.50,82.00 100.00,82.50 100.50,83.00 100.50,84.00 100.50,85.00 101.00,85.50 102.00,85.50 103.00,85.50 104.00,85.50 105.00,85.50 106.00,85.50 107.00,85.50 108.00,85.50 109.00,85.50 110.00,85.50 111.00,85.50 112.00,85.50 113.00,85.50 114.00,85.50 115.00,85.50 116.00,85.50 117.00,85.50 118.00,85.50 119.00,85.50 120.00,85.50 121.00,85.50 122.00,85.50 123.00,85.50 124.00,85.50 125.00,85.50 126.00,85.50 127.00,85.50 128.00,85.50 129.00,85.50 130.00,85.50 131.00,85.50 132.00,85.50 133.00,85.50 134.00,85.50 135.00,85.50 136.00,85.50 137.00,85.50 138.00,85.50 139.00,85.50 140.00,85.50 141.00,85.50 142.00,85.50 143.00,85.50 144.00,85.50 145.00,85.50 146.00,85.50 147.00,85.50 148.00,85.50 149.00,85.50 150.00,85.50 151.00,85.50 152.00,85.50 153.00,85.50 154.00,85.50 154.50,86.00 155.00,86.50 156.00,86.50 157.00,86.50 157.50,87.00 158.00,87.50 158.50,88.00 159.00,88.50 159.50,89.00 160.00,89.50 160.50,90.00 161.00,90.50 161.50,91.00 161.50,92.00 162.00,92.50 162.50,93.00 162.50,94.00 162.50,95.00 163.00,95.50 163.50,96.00 163.50,97.00 163.50,98.00 163.50,99.00 163.50,100.00 163.50,101.00 163.50,102.00 163.50,103.00 163.50,104.00 163.50,105.00 163.50,106.00 163.50,107.00 163.50,108.00 163.00,108.50 162.50,109.00 162.50,110.00 162.50,111.00 162.50,112.00 162.50,113.00 162.50,114.00 162.50,115.00 162.50,116.00 162.50,117.00 162.50,118.00 162.00,118.50 161.50,119.00 161.50,120.00 161.50,121.00 161.50,122.00 161.50,123.00 161.50,124.00 161.50,125.00 161.50,126.00 161.50,127.00 161.50,128.00 161.00,128.50 160.50,129.00 161.00,129.50 161.50,130.00 161.00,130.50 160.50,131.00 160.50,132.00 160.50,133.00 160.50,134.00 160.50,135.00 160.50,136.00 160.50,137.00 160.50,138.00 160.00,138.50 159.50,139.00 159.50,140.00 159.50,141.00 159.50,142.00 159.50,143.00 159.50,144.00 159.50,145.00 159.50,146.00 159.50,147.00 159.50,148.00 159.00,148.50 158.50,149.00 158.50,150.00 158.50,151.00 158.50,152.00 158.50,153.00 158.50,154.00 158.50,155.00 158.50,156.00 158.50,157.00 158.50,158.00 158.50,159.00 158.00,159.50 157.50,160.00 157.50,161.00 157.50,162.00 157.50,163.00 157.50,164.00 157.50,165.00 157.50,166.00 157.50,167.00 157.00,167.50 156.50,168.00 156.50,169.00 156.50,170.00 156.50,171.00 156.00,171.50 155.50,172.00 155.50,173.00 155.50,174.00 155.50,175.00 155.00,175.50 154.50,176.00 154.50,177.00 154.00,177.50 153.50,178.00 153.50,179.00 153.50,180.00 153.00,180.50 152.50,181.00 152.50,182.00 152.00,182.50 151.50,183.00 151.50,184.00 151.00,184.50 150.50,185.00 150.00,185.50 149.50,186.00 149.50,187.00 149.00,187.50 148.50,188.00 148.50,189.00 148.00,189.50 147.50,190.00 147.00,190.50 146.50,191.00 146.00,191.50 145.50,192.00 145.50,193.00 145.00,193.50 144.50,194.00 144.00,194.50 143.50,195.00 143.00,195.50 142.50,196.00 142.00,196.50 141.50,197.00 141.00,197.50 140.50,198.00 140.00,198.50 139.50,199.00 139.00,199.50 138.50,200.00 138.00,200.50 137.00,200.50 136.50,201.00 136.00,201.50 135.50,202.00 135.00,202.50 134.50,203.00 134.00,203.50 133.00,203.50 132.50,204.00 132.00,204.50 131.50,205.00 131.00,205.50 130.00,205.50 129.50,206.00 129.00,206.50 128.00,206.50 127.00,206.50 126.50,207.00 126.00,207.50 125.00,207.50 124.50,208.00 124.00,208.50 123.00,208.50 122.00,208.50 121.50,209.00 121.00,209.50 120.00,209.50 119.00,209.50 118.00,209.50 117.50,210.00 117.00,210.50 116.00,210.50 115.00,210.50 114.00,210.50 113.00,210.50 112.00,210.50 111.00,210.50 110.00,210.50 109.00,210.50 108.00,210.50 107.00,210.50 106.00,210.50 105.00,210.50 104.00,210.50 103.00,210.50 102.00,210.50 101.00,210.50 100.00,210.50 99.00,210.50 98.00,210.50 97.00,210.50 96.00,210.50 95.00,210.50 94.00,210.50 93.00,210.50 92.00,210.50 91.00,210.50 90.00,210.50 89.00,210.50 88.00,210.50 87.00,210.50 86.00,210.50 85.00,210.50 84.00,210.50 83.00,210.50 82.00,210.50 81.00,210.50 80.00,210.50 79.00,210.50 78.00,210.50 77.00,210.50 76.00,210.50 75.00,210.50 74.00,210.50 73.00,210.50 72.00,210.50 71.00,210.50 70.50,210.00 70.00,209.50 69.50,209.00 69.00,208.50 68.50,208.00 68.00,207.50 67.50,207.00 67.00,206.50 66.50,206.00 66.50,205.00 66.50,204.00 66.50,203.00 66.50,202.00 66.50,201.00 66.50,200.00 66.50,199.00 66.50,198.00 67.00,197.50 67.50,197.00 67.50,196.00 68.00,195.50 68.50,195.00 69.00,194.50 69.50,194.00 70.00,193.50 70.50,193.00 71.00,192.50 71.50,192.00 72.00,191.50 73.00,191.50 74.00,191.50 74.50,191.00 75.00,190.50 76.00,190.50 77.00,190.50 78.00,190.50 79.00,190.50 80.00,190.50 81.00,190.50 82.00,190.50 83.00,190.50 84.00,190.50 85.00,190.50 86.00,190.50 87.00,190.50 88.00,190.50 89.00,190.50 90.00,190.50 91.00,190.50 92.00,190.50 93.00,190.50 94.00,190.50 94.50,190.00 95.00,189.50 96.00,189.50 97.00,189.50 97.50,189.00 98.00,188.50 99.00,188.50 99.50,188.00 100.00,187.50 100.50,187.00 101.00,186.50 102.00,186.50 102.50,186.00 103.00,185.50 103.50,185.00 104.00,184.50 104.50,184.00 105.00,183.50 105.50,183.00 106.00,182.50 106.50,182.00 107.00,181.50 107.50,181.00 108.00,180.50 108.50,180.00 109.00,179.50 109.50,179.00 109.50,178.00 110.00,177.50 110.50,177.00 111.00,176.50 111.50,176.00 111.50,175.00 112.00,174.50 112.50,174.00 112.50,173.00 112.50,172.00 113.00,171.50 113.50,171.00 113.50,170.00 113.50,169.00 114.00,168.50 114.50,168.00 114.50,167.00 114.50,166.00 114.50,165.00 114.50,164.00 115.00,163.50 115.50,163.00 115.50,162.00 115.50,161.00 115.50,160.00 115.50,159.00 115.50,158.00 115.50,157.00 115.50,156.00 115.50,155.00 115.50,154.00 116.00,153.50 116.50,153.00 116.50,152.00 116.50,151.00 116.50,150.00 116.50,149.00 116.50,148.00 116.50,147.00 116.50,146.00 116.50,145.00 116.50,144.00 117.00,143.50 117.50,143.00 117.50,142.00 117.50,141.00 117.50,140.00 117.50,139.00 117.50,138.00 117.50,137.00 117.50,136.00 117.50,135.00 117.50,134.00 118.00,133.50 118.50,133.00 118.00,132.50 117.50,132.00 118.00,131.50 118.50,131.00 118.50,130.00 118.50,129.00 118.50,128.00 118.50,127.00 118.50,126.00 118.50,125.00 118.50,124.00 118.50,123.00 119.00,122.50 119.50,122.00 119.50,121.00 119.50,120.00 119.50,119.00 119.50,118.00 119.50,117.00 119.50,116.00 119.50,115.00 119.50,114.00 119.50,113.00 120.00,112.50 120.50,112.00 120.50,111.00 120.50,110.00 120.50,109.00 120.50,108.00 120.00,107.50 119.50,107.00 119.50,106.00 119.00,105.50 118.00,105.50 117.50,105.00 117.00,104.50 116.00,104.50 115.50,105.00 115.00,105.50 114.50,105.00 114.00,104.50 113.50,105.00 113.00,105.50 112.50,105.00 112.00,104.50 111.00,104.50 110.00,104.50 109.00,104.50 108.00,104.50 107.00,104.50 106.00,104.50 105.00,104.50 104.00,104.50 103.00,104.50 102.50,105.00 102.00,105.50 101.50,105.00 101.00,104.50 100.00,104.50 99.50,105.00 99.00,105.50 98.50,106.00 98.00,106.50 97.50,107.00 97.50,108.00 97.50,109.00 97.50,110.00 97.00,110.50 96.50,111.00 96.50,112.00 96.50,113.00 96.50,114.00 96.50,115.00 96.50,116.00 96.00,116.50 95.50,117.00 95.50,118.00 95.50,119.00 95.50,120.00 95.50,121.00 95.50,122.00 95.50,123.00 95.00,123.50 94.50,124.00 94.50,125.00 94.50,126.00 94.50,127.00 94.50,128.00 94.00,128.50 93.50,129.00 93.50,130.00 93.50,131.00 93.50,132.00 93.50,133.00 93.50,134.00 93.00,134.50 92.50,135.00 92.50,136.00 92.50,137.00 92.50,138.00 92.50,139.00 92.50,140.00 92.50,141.00 92.00,141.50 91.50,142.00 91.50,143.00 91.50,144.00 91.50,145.00 91.50,146.00 91.50,147.00 91.00,147.50 90.50,148.00 90.50,149.00 90.50,150.00 90.50,151.00 90.50,152.00 90.50,153.00 90.00,153.50 89.50,154.00 89.50,155.00 89.50,156.00 89.50,157.00 89.00,157.50 88.50,158.00 88.50,159.00 88.50,160.00 88.50,161.00 88.00,161.50 87.50,162.00 87.50,163.00 87.50,164.00 87.00,164.50 86.50,165.00 86.50,166.00 86.00,166.50 85.50,167.00 85.50,168.00 85.50,169.00 85.00,169.50 84.50,170.00 84.50,171.00 84.00,171.50 83.50,172.00 83.50,173.00 83.00,173.50 82.50,174.00 82.50,175.00 82.00,175.50 81.50,176.00 81.50,177.00 81.00,177.50 80.50,178.00 80.00,178.50 79.50,179.00 79.50,180.00 79.00,180.50 78.50,181.00 78.00,181.50 77.50,182.00 77.50,183.00 77.00,183.50 76.50,184.00 76.00,184.50 75.50,185.00 75.00,185.50 74.50,186.00 74.50,187.00 74.00,187.50 73.50,188.00 73.00,188.50 72.50,189.00 72.00,189.50 71.50,190.00 71.00,190.50 70.50,191.00 70.00,191.50 69.50,192.00 69.00,192.50 68.50,193.00 68.00,193.50 67.50,194.00 67.00,194.50 66.50,195.00 66.00,195.50 65.50,196.00 65.00,196.50 64.50,197.00 64.00,197.50 63.50,198.00 63.00,198.50 62.00,198.50 61.50,199.00 61.00,199.50 60.50,200.00 60.00,200.50 59.50,201.00 59.00,201.50 58.00,201.50 57.50,202.00 57.00,202.50 56.50,203.00 56.00,203.50 55.00,203.50 54.50,204.00 54.00,204.50 53.00,204.50 52.50,205.00 52.00,205.50 51.00,205.50 50.50,206.00 50.00,206.50 49.00,206.50 48.50,207.00 48.00,207.50 47.00,207.50 46.50,208.00 46.00,208.50 45.00,208.50 44.00,208.50 43.50,209.00 43.00,209.50 42.00,209.50 41.00,209.50 40.50,210.00 40.00,210.50 39.00,210.50 38.00,210.50 37.00,210.50 36.00,210.50 35.50,211.00 35.00,211.50 34.00,211.50 33.00,211.50 32.00,211.50 31.00,211.50 30.00,211.50 29.00,211.50 28.00,211.50 27.00,211.50 26.00,211.50 25.50,212.00 25.00,212.50" />
</svg>