<svg xmlns="http://www.w3.org/2000/svg" width="283" height="283" viewBox="0 0 283 283">
<polyline fill="none" stroke="#222" stroke-width="1" points="213.00,244.50 212.00,244.50 211.00,244.50 210.00,244.50 209.00,244.50 208.00,244.50 207.50,244.00 207.00,243.50 206.00,243.50 205.00,243.50 204.00,243.50 203.00,243.50 202.50,243.00 202.00,242.50 201.00,242.50 200.50,242.00 200.00,241.50 199.00,241.50 198.50,241.00 198.00,240.50 197.00,240.50 196.50,240.00 196.00,239.50 195.50,239.00 195.00,238.50 194.50,238.00 194.00,237.50 193.00,237.50 192.50,237.00 192.00,236.50 191.50,236.00 191.50,235.00 191.00,234.50 190.50,234.00 190.00,233.50 189.50,233.00 189.00,232.50 188.50,232.00 188.00,231.50 187.00,231.50 186.00,231.50 185.00,231.50 184.00,231.50 183.00,231.50 182.00,231.50 181.00,231.50 180.00,231.50 179.00,231.50 178.00,231.50 177.00,231.50 176.00,231.50 175.00,231.50 174.00,231.50 173.00,231.50 172.00,231.50 171.00,231.50 170.00,231.50 169.00,231.50 168.00,231.50 167.00,231.50 166.00,231.50 165.00,231.50 164.00,231.50 163.00,231.50 162.00,231.50 161.00,231.50 160.00,231.50 159.00,231.50 158.00,231.50 157.00,231.50 156.00,231.50 155.00,231.50 154.00,231.50 153.00,231.50 152.00,231.50 151.00,231.50 150.00,231.50 149.00,231.50 148.00,231.50 147.00,231.50 146.00,231.50 145.00,231.50 144.00,231.50 143.00,231.50 142.00,231.50 141.00,231.50 140.00,231.50 139.00,231.50 138.00,231.50 137.00,231.50 136.00,231.50 135.00,231.50 134.00,231.50 133.00,231.50 132.00,231.50 131.00,231.50 130.00,231.50 129.00,231.50 128.00,231.50 127.00,231.50 126.00,231.50 125.00,231.50 124.00,231.50 123.00,231.50 122.00,231.50 121.00,231.50 120.00,231.50 119.00,231.50 118.00,231.50 117.00,231.50 116.00,231.50 115.00,231.50 114.00,231.50 113.00,231.50 112.00,231.50 111.00,231.50 110.00,231.50 109.00,231.50 108.00,231.50 107.00,231.50 106.00,231.50 105.00,231.50 104.00,231.50 103.00,231.50 102.00,231.50 101.00,231.50 100.00,231.50 99.00,231.50 98.00,231.50 97.50,232.00 97.50,233.00 97.00,233.50 96.50,234.00 96.00,234.50 95.50,235.00 95.00,235.50 94.50,236.00 94.00,236.50 93.50,237.00 93.00,237.50 92.50,238.00 92.00,238.50 91.50,239.00 91.00,239.50 90.00,239.50 89.50,240.00 89.00,240.50 88.50,241.00 88.00,241.50 87.00,241.50 86.50,242.00 86.00,242.50 85.00,242.50 84.00,242.50 83.50,243.00 83.00,243.50 82.00,243.50 81.00,243.50 80.00,243.50 79.50,244.00 79.00,244.50 78.00,244.50 77.00,244.50 76.00,244.50 75.00,244.50 74.00,244.50 73.50,244.00 73.00,243.50 72.00,243.50 71.00,243.50 70.00,243.50 69.50,243.00 69.00,242.50 68.00,242.50 67.50,242.00 67.00,241.50 66.00,241.50 65.50,241.00 65.00,240.50 64.50,240.00 64.00,239.50 63.50,239.00 63.50,238.00 63.00,237.50 62.50,237.00 62.50,236.00 62.00,235.50 61.50,235.00 61.50,234.00 61.50,233.00 61.50,232.00 61.00,231.50 60.00,231.50 59.00,231.50 58.00,231.50 57.00,231.50 56.00,231.50 55.00,231.50 54.00,231.50 53.00,231.50 52.00,231.50 51.00,231.50 50.00,231.50 49.00,231.50 48.00,231.50 47.00,231.50 46.00,231.50 45.00,231.50 44.00,231.50 43.00,231.50 42.00,231.50 41.00,231.50 40.00,231.50 39.00,231.50 38.00,231.50 37.00,231.50 36.50,231.00 36.00,230.50 35.00,230.50 34.50,230.00 34.00,229.50 33.00,229.50 32.50,229.00 32.00,228.50 31.50,228.00 31.00,227.50 30.50,227.00 30.50,226.00 30.00,225.50 29.50,225.00 29.50,224.00 29.00,223.50 28.50,223.00 28.50,222.00 28.50,221.00 28.50,220.00 28.50,219.00 28.50,218.00 28.50,217.00 28.50,216.00 28.50,215.00 28.50,214.00 28.50,213.00 28.50,212.00 28.50,211.00 28.50,210.00 28.50,209.00 28.50,208.00 28.50,207.00 28.50,206.00 28.50,205.00 28.50,204.00 28.50,203.00 28.50,202.00 28.50,201.00 28.50,200.00 28.50,199.00 28.50,198.00 28.50,197.00 28.50,196.00 28.50,195.00 28.50,194.00 28.50,193.00 28.50,192.00 28.50,191.00 28.50,190.00 28.50,189.00 28.50,188.00 28.50,187.00 28.50,186.00 28.50,185.00 28.50,184.00 28.50,183.00 28.50,182.00 28.50,181.00 28.50,180.00 28.50,179.00 28.50,178.00 28.50,177.00 28.50,176.00 28.50,175.00 28.50,174.00 28.50,173.00 28.50,172.00 28.50,171.00 28.50,170.00 28.50,169.00 28.50,168.00 28.50,167.00 28.50,166.00 28.50,165.00 28.50,164.00 28.50,163.00 28.50,162.00 28.50,161.00 28.50,160.00 28.50,159.00 28.50,158.00 28.50,157.00 28.50,156.00 28.50,155.00 28.50,154.00 28.50,153.00 28.50,152.00 28.50,151.00 28.50,150.00 28.50,149.00 28.50,148.00 28.50,147.00 28.50,146.00 28.50,145.00 28.50,144.00 28.50,143.00 28.50,142.00 28.50,141.00 28.50,140.00 28.50,139.00 28.50,138.00 28.50,137.00 28.50,136.00 28.50,135.00 28.50,134.00 28.50,133.00 28.50,132.00 28.50,131.00 28.50,130.00 28.50,129.00 28.50,128.00 28.50,127.00 28.50,126.00 28.50,125.00 28.50,124.00 28.50,123.00 28.50,122.00 28.50,121.00 28.50,120.00 28.50,119.00 28.50,118.00 28.50,117.00 28.50,116.00 28.50,115.00 28.50,114.00 28.50,113.00 28.50,112.00 28.50,111.00 28.50,110.00 29.00,109.50 29.50,109.00 29.50,108.00 29.50,107.00 30.00,106.50 30.50,106.00 31.00,105.50 31.50,105.00 31.50,104.00 32.00,103.50 32.50,103.00 33.00,102.50 34.00,102.50 34.50,102.00 35.00,101.50 36.00,101.50 36.50,101.00 37.00,100.50 38.00,100.50 39.00,100.50 40.00,100.50 41.00,100.50 42.00,100.50 43.00,100.50 44.00,100.50 45.00,100.50 46.00,100.50 47.00,100.50 48.00,100.50 49.00,100.50 50.00,100.50 51.00,100.50 52.00,100.50 53.00,100.50 54.00,100.50 55.00,100.50 56.00,100.50 57.00,100.50 58.00,100.50 59.00,100.50 60.00,100.50 61.00,100.50 61.50,100.00 61.50,99.00 61.50,98.00 61.50,97.00 62.00,96.50 62.50,96.00 62.50,95.00 63.00,94.50 63.50,94.00 64.00,93.50 64.50,93.00 65.00,92.50 65.50,92.00 66.00,91.50 66.50,91.00 67.00,90.50 67.50,90.00 68.00,89.50 69.00,89.50 69.50,89.00 70.00,88.50 71.00,88.50 72.00,88.50 73.00,88.50 74.00,88.50 75.00,88.50 76.00,88.50 77.00,88.50 78.00,88.50 79.00,88.50 80.00,88.50 81.00,88.50 82.00,88.50 82.50,89.00 83.00,89.50 84.00,89.50 85.00,89.50 85.50,90.00 86.00,90.50 87.00,90.50 87.50,91.00 88.00,91.50 89.00,91.50 89.50,92.00 90.00,92.50 90.50,93.00 91.00,93.50 92.00,93.50 92.50,94.00 93.00,94.50 93.50,95.00 94.00,95.50 94.50,96.00 95.00,96.50 95.50,97.00 96.00,97.50 96.50,98.00 96.50,99.00 97.00,99.50 97.50,100.00 98.00,100.50 99.00,100.50 100.00,100.50 101.00,100.50 102.00,100.50 103.00,100.50 104.00,100.50 105.00,100.50 106.00,100.50 107.00,100.50 108.00,100.50 109.00,100.50 110.00,100.50 111.00,100.50 112.00,100.50 113.00,100.50 114.00,100.50 115.00,100.50 116.00,100.50 116.50,100.00 116.50,99.00 116.50,98.00 116.50,97.00 116.50,96.00 116.50,95.00 116.00,94.50 115.00,94.50 114.00,94.50 113.00,94.50 112.00,94.50 111.50,94.00 111.00,93.50 110.00,93.50 109.00,93.50 108.00,93.50 107.50,93.00 107.00,92.50 106.00,92.50 105.00,92.50 104.50,92.00 104.00,91.50 103.00,91.50 102.50,91.00 102.00,90.50 101.50,90.00 101.50,89.00 101.50,88.00 101.50,87.00 101.50,86.00 101.50,85.00 101.50,84.00 102.00,83.50 102.50,83.00 102.50,82.00 103.00,81.50 103.50,81.00 104.00,80.50 104.50,80.00 105.00,79.50 105.50,79.00 106.00,78.50 106.50,78.00 107.00,77.50 107.50,77.00 108.00,76.50 108.50,76.00 108.50,75.00 109.00,74.50 109.50,74.00 110.00,73.50 110.50,73.00 111.00,72.50 111.50,72.00 112.00,71.50 112.50,71.00 113.00,70.50 113.50,70.00 113.50,69.00 114.00,68.50 114.50,68.00 115.00,67.50 115.50,67.00 116.00,66.50 116.50,66.00 117.00,65.50 117.50,65.00 118.00,64.50 118.50,64.00 119.00,63.50 119.50,63.00 119.50,62.00 120.00,61.50 120.50,61.00 121.00,60.50 121.50,60.00 122.00,59.50 122.50,59.00 123.00,58.50 123.50,58.00 124.00,57.50 124.50,57.00 125.00,56.50 125.50,56.00 125.50,55.00 126.00,54.50 126.50,54.00 127.00,53.50 127.50,53.00 128.00,52.50 128.50,52.00 129.00,51.50 129.50,51.00 130.00,50.50 130.50,50.00 131.00,49.50 131.50,49.00 131.50,48.00 132.00,47.50 132.50,47.00 133.00,46.50 133.50,46.00 134.00,45.50 134.50,45.00 135.00,44.50 135.50,44.00 136.00,43.50 136.50,43.00 136.50,42.00 137.00,41.50 137.50,41.00 138.00,40.50 138.50,40.00 139.00,39.50 140.00,39.50 140.50,39.00 141.00,38.50 142.00,38.50 143.00,38.50 144.00,38.50 145.00,38.50 146.00,38.50 146.50,39.00 147.00,39.50 147.50,40.00 148.00,40.50 148.50,41.00 149.00,41.50 149.50,42.00 150.00,42.50 150.50,43.00 150.50,44.00 151.00,44.50 151.50,45.00 152.00,45.50 152.50,46.00 153.00,46.50 153.50,47.00 154.00,47.50 154.50,48.00 155.00,48.50 155.50,49.00 155.50,50.00 156.00,50.50 156.50,51.00 157.00,51.50 157.50,52.00 158.00,52.50 158.50,53.00 159.00,53.50 159.50,54.00 160.00,54.50 160.50,55.00 161.00,55.50 161.50,56.00 161.50,57.00 162.00,57.50 162.50,58.00 163.00,58.50 163.50,59.00 164.00,59.50 164.50,60.00 165.00,60.50 165.50,61.00 166.00,61.50 166.50,62.00 167.00,62.50 167.50,63.00 167.50,64.00 168.00,64.50 168.50,65.00 169.00,65.50 169.50,66.00 170.00,66.50 170.50,67.00 171.00,67.50 171.50,68.00 172.00,68.50 172.50,69.00 173.00,69.50 173.50,70.00 173.50,71.00 174.00,71.50 174.50,72.00 175.00,72.50 175.50,73.00 176.00,73.50 176.50,74.00 177.00,74.50 177.50,75.00 178.00,75.50 178.50,76.00 178.50,77.00 179.00,77.50 179.50,78.00 180.00,78.50 180.50,79.00 181.00,79.50 181.50,80.00 182.00,80.50 182.50,81.00 183.00,81.50 183.50,82.00 184.00,82.50 184.50,83.00 184.50,84.00 185.00,84.50 185.50,85.00 185.50,86.00 185.50,87.00 185.50,88.00 185.00,88.50 184.50,89.00 184.50,90.00 184.00,90.50 183.50,91.00 183.00,91.50 182.50,92.00 182.00,92.50 181.00,92.50 180.00,92.50 179.50,93.00 179.00,93.50 178.00,93.50 177.00,93.50 176.00,93.50 175.00,93.50 174.50,94.00 174.00,94.50 173.00,94.50 172.00,94.50 171.50,95.00 171.50,96.00 171.50,97.00 171.50,98.00 171.50,99.00 171.50,100.00 172.00,100.50 173.00,100.50 174.00,100.50 175.00,100.50 176.00,100.50 177.00,100.50 178.00,100.50 179.00,100.50 180.00,100.50 181.00,100.50 182.00,100.50 183.00,100.50 184.00,100.50 185.00,100.50 186.00,100.50 187.00,100.50 188.00,100.50 188.50,100.00 189.00,99.50 189.50,99.00 190.00,98.50 190.50,98.00 191.00,97.50 191.50,97.00 192.00,96.50 192.50,96.00 193.00,95.50 193.50,95.00 194.00,94.50 194.50,94.00 195.00,93.50 195.50,93.00 196.00,92.50 197.00,92.50 197.50,92.00 198.00,91.50 198.50,91.00 199.00,90.50 200.00,90.50 200.50,90.00 201.00,89.50 202.00,89.50 203.00,89.50 203.50,89.00 204.00,88.50 205.00,88.50 206.00,88.50 207.00,88.50 208.00,88.50 209.00,88.50 210.00,88.50 211.00,88.50 212.00,88.50 213.00,88.50 214.00,88.50 215.00,88.50 216.00,88.50 216.50,89.00 217.00,89.50 218.00,89.50 218.50,90.00 219.00,90.50 220.00,90.50 220.50,91.00 221.00,91.50 221.50,92.00 222.00,92.50 222.50,93.00 223.00,93.50 223.50,94.00 223.50,95.00 224.00,95.50 224.50,96.00 224.50,97.00 224.50,98.00 225.00,98.50 225.50,99.00 225.50,100.00 226.00,100.50 227.00,100.50 228.00,100.50 229.00,100.50 230.00,100.50 231.00,100.50 232.00,100.50 233.00,100.50 234.00,100.50 235.00,100.50 236.00,100.50 237.00,100.50 238.00,100.50 239.00,100.50 240.00,100.50 241.00,100.50 242.00,100.50 243.00,100.50 244.00,100.50 245.00,100.50 245.50,101.00 246.00,101.50 247.00,101.50 247.50,102.00 248.00,102.50 249.00,102.50 249.50,103.00 250.00,103.50 250.50,104.00 251.00,104.50 251.50,105.00 252.00,105.50 252.50,106.00 252.50,107.00 253.00,107.50 253.50,108.00 253.50,109.00 253.50,110.00 253.50,111.00 253.50,112.00 253.50,113.00 253.50,114.00 253.50,115.00 253.50,116.00 253.50,117.00 253.50,118.00 253.50,119.00 253.50,120.00 253.50,121.00 253.50,122.00 253.50,123.00 253.50,124.00 253.50,125.00 253.50,126.00 253.50,127.00 253.50,128.00 253.50,129.00 253.50,130.00 253.50,131.00 253.50,132.00 253.50,133.00 253.50,134.00 253.50,135.00 253.50,136.00 253.50,137.00 253.50,138.00 253.50,139.00 253.50,140.00 253.50,141.00 253.50,142.00 253.50,143.00 253.50,144.00 253.50,145.00 253.50,146.00 253.50,147.00 253.50,148.00 253.50,149.00 253.50,150.00 253.50,151.00 253.50,152.00 253.50,153.00 253.50,154.00 253.50,155.00 253.50,156.00 253.50,157.00 253.50,158.00 253.50,159.00 253.50,160.00 253.50,161.00 253.50,162.00 253.50,163.00 253.50,164.00 253.50,165.00 253.50,166.00 253.50,167.00 253.50,168.00 253.50,169.00 253.50,170.00 253.50,171.00 253.50,172.00 253.50,173.00 253.50,174.00 253.50,175.00 253.50,176.00 253.50,177.00 253.50,178.00 253.50,179.00 253.50,180.00 253.50,181.00 253.50,182.00 253.50,183.00 253.50,184.00 253.50,185.00 253.50,186.00 253.50,187.00 253.50,188.00 253.50,189.00 253.50,190.00 253.50,191.00 253.50,192.00 253.50,193.00 253.50,194.00 253.50,195.00 253.50,196.00 253.50,197.00 253.50,198.00 253.50,199.00 253.50,200.00 253.50,201.00 253.50,202.00 253.50,203.00 253.50,204.00 253.50,205.00 253.50,206.00 253.50,207.00 253.50,208.00 253.50,209.00 253.50,210.00 253.50,211.00 253.50,212.00 253.50,213.00 253.50,214.00 253.50,215.00 253.50,216.00 253.50,217.00 253.50,218.00 253.50,219.00 253.50,220.00 253.50,221.00 253.50,222.00 253.50,223.00 253.50,224.00 253.00,224.50 252.50,225.00 252.50,226.00 252.00,226.50 251.50,227.00 251.00,227.50 250.50,228.00 250.00,228.50 249.50,229.00 249.00,229.50 248.50,230.00 248.00,230.50 247.00,230.50 246.50,231.00 246.00,231.50 245.00,231.50 244.00,231.50 243.00,231.50 242.00,231.50 241.00,231.50 240.00,231.50 239.00,231.50 238.00,231.50 237.00,231.50 236.00,231.50 235.00,231.50 234.00,231.50 233.00,231.50 232.00,231.50 231.00,231.50 230.00,231.50 229.00,231.50 228.00,231.50 227.00,231.50 226.00,231.50 225.50,232.00 225.50,233.00 225.50,234.00 225.00,234.50 224.50,235.00 224.50,236.00 224.00,236.50 223.50,237.00 223.50,238.00 223.00,238.50 222.50,239.00 222.00,239.50 221.50,240.00 221.00,240.50 220.50,241.00 220.00,241.50 219.50,242.00 219.00,242.50 218.00,242.50 217.50,243.00 217.00,243.50 216.00,243.50 215.00,243.50 214.00,243.50 213.50,244.00 213.00,244.50" />
<polyline fill="none" stroke="#00aa00" stroke-width="1" stroke-dasharray="3,2" points="143.00,92.50 142.50,92.00 142.00,91.50 141.50,91.00 142.00,90.50 142.50,90.00 142.50,89.00 142.50,88.00 142.50,87.00 142.50,86.00 142.50,85.00 142.50,84.00 142.50,83.00 142.50,82.00 142.50,81.00 142.50,80.00 142.50,79.00 142.50,78.00 142.50,77.00 142.50,76.00 142.50,75.00 142.50,74.00 142.50,73.00 142.50,72.00 142.50,71.00 142.50,70.00 142.50,69.00 142.50,68.00 142.50,67.00 142.50,66.00 142.50,65.00 142.50,64.00 142.50,63.00 142.50,62.00 142.50,61.00 142.50,60.00 142.50,59.00 142.50,58.00 142.50,57.00 142.50,56.00 142.50,55.00 142.50,54.00 142.50,53.00 142.50,52.00 142.50,51.00 142.50,50.00 142.50,49.00 142.50,48.00 143.00,47.50 143.50,48.00 143.50,49.00 143.50,50.00 143.50,51.00 143.50,52.00 143.50,53.00 143.50,54.00 143.50,55.00 143.50,56.00 143.50,57.00 143.50,58.00 143.50,59.00 143.50,60.00 143.50,61.00 143.50,62.00 143.50,63.00 143.50,64.00 143.50,65.00 143.50,66.00 143.50,67.00 143.50,68.00 143.50,69.00 143.50,70.00 143.50,71.00 143.50,72.00 143.50,73.00 143.50,74.00 143.50,75.00 143.50,76.00 143.50,77.00 143.50,78.00 143.50,79.00 143.50,80.00 143.50,81.00 143.50,82.00 143.50,83.00 143.50,84.00 143.50,85.00 143.50,86.00 143.50,87.00 143.50,88.00 143.50,89.00 143.50,90.00 143.50,91.00 143.50,92.00 143.00,92.50" />
<polyline fill="none" stroke="#00aa00" stroke-width="1" stroke-dasharray="3,2" points="132.00,81.50 131.00,81.50 130.00,81.50 129.00,81.50 128.00,81.50 127.00,81.50 126.50,81.00 127.00,80.50 128.00,80.50 129.00,80.50 130.00,80.50 131.00,80.50 132.00,80.50 132.50,81.00 132.00,81.50" />
<polyline fill="none" stroke="#00aa00" stroke-width="1" stroke-dasharray="3,2" points="126.00,82.50 125.00,82.50 124.50,82.00 125.00,81.50 126.00,81.50 126.50,82.00 126.00,82.50" />
<polyline fill="none" stroke="#00aa00" stroke-width="1" stroke-dasharray="3,2" points="133.00,82.50 132.50,82.00 133.00,81.50 133.50,82.00 133.00,82.50" />
<polyline fill="none" stroke="#00aa00" stroke-width="1" stroke-dasharray="3,2" points="161.00,82.50 160.00,82.50 159.00,82.50 158.00,82.50 157.00,82.50 156.00,82.50 155.50,82.00 156.00,81.50 157.00,81.50 158.00,81.50 159.00,81.50 160.00,81.50 161.00,81.50 161.50,82.00 161.00,82.50" />
<polyline fill="none" stroke="#00aa00" stroke-width="1" stroke-dasharray="3,2" points="124.00,83.50 123.00,83.50 122.00,83.50 121.00,83.50 120.00,83.50 119.50,83.00 120.00,82.50 121.00,82.50 122.00,82.50 123.00,82.50 124.00,82.50 124.50,83.00 124.00,83.50" />
<polyline fill="none" stroke="#00aa00" stroke-width="1" stroke-dasharray="3,2" points="134.00,83.50 133.50,83.00 134.00,82.50 134.50,83.00 134.00,83.50" />
<polyline fill="none" stroke="#00aa00" stroke-width="1" stroke-dasharray="3,2" points="155.00,83.50 154.50,83.00 155.00,82.50 155.50,83.00 155.00,83.50" />
<polyline fill="none" stroke="#00aa00" stroke-width="1" stroke-dasharray="3,2" points="166.00,83.50 165.00,83.50 164.00,83.50 163.00,83.50 162.00,83.50 161.50,83.00 162.00,82.50 163.00,82.50 164.00,82.50 165.00,82.50 166.00,82.50 166.50,83.00 166.00,83.50" />
<polyline fill="none" stroke="#00aa00" stroke-width="1" stroke-dasharray="3,2" points="119.00,84.50 118.00,84.50 117.50,84.00 118.00,83.50 119.00,83.50 119.50,84.00 119.00,84.50" />
<polyline fill="none" stroke="#00aa00" stroke-width="1" stroke-dasharray="3,2" points="135.00,84.50 134.50,84.00 135.00,83.50 135.50,84.00 135.00,84.50" />
<polyline fill="none" stroke="#00aa00" stroke-width="1" stroke-dasharray="3,2" points="154.00,84.50 153.50,84.00 154.00,83.50 154.50,84.00 154.00,84.50" />
<polyline fill="none" stroke="#00aa00" stroke-width="1" stroke-dasharray="3,2" points="169.00,84.50 168.00,84.50 167.00,84.50 166.50,84.00 167.00,83.50 168.00,83.50 169.00,83.50 169.50,84.00 169.00,84.50" />
<polyline fill="none" stroke="#00aa00" stroke-width="1" stroke-dasharray="3,2" points="117.00,85.50 116.00,85.50 115.00,85.50 114.00,85.50 113.00,85.50 112.50,85.00 113.00,84.50 114.00,84.50 115.00,84.50 116.00,84.50 117.00,84.50 117.50,85.00 117.00,85.50" />
<polyline fill="none" stroke="#00aa00" stroke-width="1" stroke-dasharray="3,2" points="136.00,85.50 135.50,85.00 136.00,84.50 136.50,85.00 136.00,85.50" />
<polyline fill="none" stroke="#00aa00" stroke-width="1" stroke-dasharray="3,2" points="153.00,85.50 152.50,85.00 153.00,84.50 153.50,85.00 153.00,85.50" />
<polyline fill="none" stroke="#00aa00" stroke-width="1" stroke-dasharray="3,2" points="171.00,85.50 170.00,85.50 169.50,85.00 170.00,84.50 171.00,84.50 171.50,85.00 171.00,85.50" />
<polyline fill="none" stroke="#00aa00" stroke-width="1" stroke-dasharray="3,2" points="112.00,86.50 111.00,86.50 110.00,86.50 109.00,86.50 108.00,86.50 107.50,86.00 108.00,85.50 109.00,85.50 110.00,85.50 111.00,85.50 112.00,85.50 112.50,86.00 112.00,86.50" />
<polyline fill="none" stroke="#00aa00" stroke-width="1" stroke-dasharray="3,2" points="137.00,86.50 136.50,86.00 137.00,85.50 137.50,86.00 137.00,86.50" />
<polyline fill="none" stroke="#00aa00" stroke-width="1" stroke-dasharray="3,2" points="152.00,86.50 151.50,86.00 152.00,85.50 152.50,86.00 152.00,86.50" />
<polyline fill="none" stroke="#00aa00" stroke-width="1" stroke-dasharray="3,2" points="176.00,86.50 175.00,86.50 174.00,86.50 173.00,86.50 172.00,86.50 171.50,86.00 172.00,85.50 173.00,85.50 174.00,85.50 175.00,85.50 176.00,85.50 176.50,86.00 176.00,86.50" />
<polyline fill="none" stroke="#00aa00" stroke-width="1" stroke-dasharray="3,2" points="107.00,87.50 106.50,87.00 107.00,86.50 107.50,87.00 107.00,87.50" />
<polyline fill="none" stroke="#00aa00" stroke-width="1" stroke-dasharray="3,2" points="138.00,87.50 137.50,87.00 138.00,86.50 138.50,87.00 138.00,87.50" />
<polyline fill="none" stroke="#00aa00" stroke-width="1" stroke-dasharray="3,2" points="151.00,87.50 150.50,87.00 151.00,86.50 151.50,87.00 151.00,87.50" />
<polyline fill="none" stroke="#00aa00" stroke-width="1" stroke-dasharray="3,2" points="178.00,87.50 177.00,87.50 176.50,87.00 177.00,86.50 178.00,86.50 178.50,87.00 178.00,87.50" />
<polyline fill="none" stroke="#00aa00" stroke-width="1" stroke-dasharray="3,2" points="139.00,88.50 138.50,88.00 139.00,87.50 139.50,88.00 139.00,88.50" />
<polyline fill="none" stroke="#00aa00" stroke-width="1" stroke-dasharray="3,2" points="150.00,88.50 149.50,88.00 150.00,87.50 150.50,88.00 150.00,88.50" />
<polyline fill="none" stroke="#00aa00" stroke-width="1" stroke-dasharray="3,2" points="140.00,89.50 139.50,89.00 140.00,88.50 140.50,89.00 140.00,89.50" />
<polyline fill="none" stroke="#00aa00" stroke-width="1" stroke-dasharray="3,2" points="149.00,89.50 148.50,89.00 149.00,88.50 149.50,89.00 149.00,89.50" />
<polyline fill="none" stroke="#00aa00" stroke-width="1" stroke-dasharray="3,2" points="141.00,90.50 140.50,90.00 141.00,89.50 141.50,90.00 141.00,90.50" />
<polyline fill="none" stroke="#00aa00" stroke-width="1" stroke-dasharray="3,2" points="148.00,90.50 147.50,90.00 148.00,89.50 148.50,90.00 148.00,90.50" />
<polyline fill="none" stroke="#00aa00" stroke-width="1" stroke-dasharray="3,2" points="147.00,91.50 146.50,91.00 147.00,90.50 147.50,91.00 147.00,91.50" />
<polyline fill="none" stroke="#00aa00" stroke-width="1" stroke-dasharray="3,2" points="146.00,92.50 145.50,92.00 146.00,91.50 146.50,92.00 146.00,92.50" />
<polyline fill="none" stroke="#00aa00" stroke-width="1" stroke-dasharray="3,2" points="144.00,109.50 143.00,109.50 142.50,109.00 143.00,108.50 143.50,108.00 143.50,107.00 143.50,106.00 143.50,105.00 143.50,104.00 143.50,103.00 143.50,102.00 143.50,101.00 143.50,100.00 143.50,99.00 143.50,98.00 143.50,97.00 143.50,96.00 143.50,95.00 143.50,94.00 143.50,93.00 144.00,92.50 145.00,92.50 145.50,93.00 145.00,93.50 144.50,94.00 144.50,95.00 144.50,96.00 144.50,97.00 144.50,98.00 144.50,99.00 144.50,100.00 144.50,101.00 144.50,102.00 144.50,103.00 144.50,104.00 144.50,105.00 144.50,106.00 144.50,107.00 144.50,108.00 144.50,109.00 144.00,109.50" />
<polyline fill="none" stroke="#00aa00" stroke-width="1" stroke-dasharray="3,2" points="209.00,111.50 208.50,111.00 208.50,110.00 208.50,109.00 208.50,108.00 209.00,107.50 209.50,108.00 209.50,109.00 209.50,110.00 209.50,111.00 209.00,111.50" />
<polyline fill="none" stroke="#00aa00" stroke-width="1" stroke-dasharray="3,2" points="78.00,114.50 77.50,114.00 77.50,113.00 77.50,112.00 77.50,111.00 77.50,110.00 78.00,109.50 78.50,110.00 78.50,111.00 78.50,112.00 78.50,113.00 78.50,114.00 78.00,114.50" />
<polyline fill="none" stroke="#00aa00" stroke-width="1" stroke-dasharray="3,2" points="142.00,110.50 141.50,110.00 142.00,109.50 142.50,110.00 142.00,110.50" />
<polyline fill="none" stroke="#00aa00" stroke-width="1" stroke-dasharray="3,2" points="145.00,110.50 144.50,110.00 145.00,109.50 145.50,110.00 145.00,110.50" />
<polyline fill="none" stroke="#00aa00" stroke-width="1" stroke-dasharray="3,2" points="141.00,111.50 140.50,111.00 141.00,110.50 141.50,111.00 141.00,111.50" />
<polyline fill="none" stroke="#00aa00" stroke-width="1" stroke-dasharray="3,2" points="146.00,111.50 145.50,111.00 146.00,110.50 146.50,111.00 146.00,111.50" />
<polyline fill="none" stroke="#00aa00" stroke-width="1" stroke-dasharray="3,2" points="140.00,112.50 139.50,112.00 140.00,111.50 140.50,112.00 140.00,112.50" />
<polyline fill="none" stroke="#00aa00" stroke-width="1" stroke-dasharray="3,2" points="147.00,112.50 146.50,112.00 147.00,111.50 147.50,112.00 147.00,112.50" />
<polyline fill="none" stroke="#00aa00" stroke-width="1" stroke-dasharray="3,2" points="208.00,116.50 207.50,116.00 207.50,115.00 207.50,114.00 207.50,113.00 207.50,112.00 208.00,111.50 208.50,112.00 208.50,113.00 208.50,114.00 208.50,115.00 208.50,116.00 208.00,116.50" />
<polyline fill="none" stroke="#00aa00" stroke-width="1" stroke-dasharray="3,2" points="139.00,113.50 138.50,113.00 139.00,112.50 139.50,113.00 139.00,113.50" />
<polyline fill="none" stroke="#00aa00" stroke-width="1" stroke-dasharray="3,2" points="148.00,113.50 147.50,113.00 148.00,112.50 148.50,113.00 148.00,113.50" />
<polyline fill="none" stroke="#00aa00" stroke-width="1" stroke-dasharray="3,2" points="138.00,114.50 137.50,114.00 138.00,113.50 138.50,114.00 138.00,114.50" />
<polyline fill="none" stroke="#00aa00" stroke-width="1" stroke-dasharray="3,2" points="149.00,114.50 148.50,114.00 149.00,113.50 149.50,114.00 149.00,114.50" />
<polyline fill="none" stroke="#00aa00" stroke-width="1" stroke-dasharray="3,2" points="134.00,118.50 133.00,118.50 132.00,118.50 131.00,118.50 130.00,118.50 129.00,118.50 128.00,118.50 127.00,118.50 126.00,118.50 125.00,118.50 124.00,118.50 123.00,118.50 122.00,118.50 121.00,118.50 120.00,118.50 119.00,118.50 118.00,118.50 117.00,118.50 116.00,118.50 115.00,118.50 114.00,118.50 113.00,118.50 112.00,118.50 111.00,118.50 110.00,118.50 109.00,118.50 108.00,118.50 107.00,118.50 106.00,118.50 105.00,118.50 104.00,118.50 103.00,118.50 102.00,118.50 101.00,118.50 100.00,118.50 99.00,118.50 98.00,118.50 97.00,118.50 96.00,118.50 95.00,118.50 94.00,118.50 93.00,118.50 92.00,118.50 91.00,118.50 90.00,118.50 89.00,118.50 88.00,118.50 87.00,118.50 86.00,118.50 85.00,118.50 84.00,118.50 83.00,118.50 82.00,118.50 81.00,118.50 80.00,118.50 79.00,118.50 78.00,118.50 77.00,118.50 76.00,118.50 75.00,118.50 74.00,118.50 73.00,118.50 72.00,118.50 71.00,118.50 70.00,118.50 69.00,118.50 68.00,118.50 67.00,118.50 66.00,118.50 65.00,118.50 64.50,118.00 65.00,117.50 66.00,117.50 67.00,117.50 68.00,117.50 69.00,117.50 70.00,117.50 71.00,117.50 72.00,117.50 73.00,117.50 74.00,117.50 75.00,117.50 76.00,117.50 77.00,117.50 78.00,117.50 78.50,117.00 78.50,116.00 78.50,115.00 79.00,114.50 79.50,115.00 79.50,116.00 79.50,117.00 80.00,117.50 81.00,117.50 82.00,117.50 83.00,117.50 84.00,117.50 85.00,117.50 86.00,117.50 87.00,117.50 88.00,117.50 89.00,117.50 90.00,117.50 91.00,117.50 92.00,117.50 93.00,117.50 94.00,117.50 95.00,117.50 96.00,117.50 97.00,117.50 98.00,117.50 99.00,117.50 100.00,117.50 101.00,117.50 102.00,117.50 103.00,117.50 104.00,117.50 105.00,117.50 106.00,117.50 107.00,117.50 108.00,117.50 109.00,117.50 110.00,117.50 111.00,117.50 112.00,117.50 113.00,117.50 114.00,117.50 115.00,117.50 116.00,117.50 117.00,117.50 118.00,117.50 119.00,117.50 120.00,117.50 121.00,117.50 122.00,117.50 123.00,117.50 124.00,117.50 125.00,117.50 126.00,117.50 127.00,117.50 128.00,117.50 129.00,117.50 130.00,117.50 131.00,117.50 132.00,117.50 133.00,117.50 134.00,117.50 134.50,118.00 134.00,118.50" />
<polyline fill="none" stroke="#00aa00" stroke-width="1" stroke-dasharray="3,2" points="137.00,115.50 136.50,115.00 137.00,114.50 137.50,115.00 137.00,115.50" />
<polyline fill="none" stroke="#00aa00" stroke-width="1" stroke-dasharray="3,2" points="150.00,115.50 149.50,115.00 150.00,114.50 150.50,115.00 150.00,115.50" />
<polyline fill="none" stroke="#00aa00" stroke-width="1" stroke-dasharray="3,2" points="136.00,116.50 135.50,116.00 136.00,115.50 136.50,116.00 136.00,116.50" />
<polyline fill="none" stroke="#00aa00" stroke-width="1" stroke-dasharray="3,2" points="151.00,116.50 150.50,116.00 151.00,115.50 151.50,116.00 151.00,116.50" />
<polyline fill="none" stroke="#00aa00" stroke-width="1" stroke-dasharray="3,2" points="135.00,117.50 134.50,117.00 135.00,116.50 135.50,117.00 135.00,117.50" />
<polyline fill="none" stroke="#00aa00" stroke-width="1" stroke-dasharray="3,2" points="152.00,117.50 151.50,117.00 152.00,116.50 152.50,117.00 152.00,117.50" />
<polyline fill="none" stroke="#00aa00" stroke-width="1" stroke-dasharray="3,2" points="221.00,118.50 220.00,118.50 219.00,118.50 218.00,118.50 217.00,118.50 216.00,118.50 215.00,118.50 214.00,118.50 213.00,118.50 212.00,118.50 211.00,118.50 210.00,118.50 209.00,118.50 208.00,118.50 207.00,118.50 206.00,118.50 205.00,118.50 204.00,118.50 203.00,118.50 202.00,118.50 201.00,118.50 200.00,118.50 199.00,118.50 198.00,118.50 197.00,118.50 196.00,118.50 195.00,118.50 194.00,118.50 193.00,118.50 192.00,118.50 191.00,118.50 190.00,118.50 189.00,118.50 188.00,118.50 187.00,118.50 186.00,118.50 185.00,118.50 184.00,118.50 183.00,118.50 182.00,118.50 181.00,118.50 180.00,118.50 179.00,118.50 178.00,118.50 177.00,118.50 176.00,118.50 175.00,118.50 174.00,118.50 173.00,118.50 172.00,118.50 171.00,118.50 170.00,118.50 169.00,118.50 168.00,118.50 167.00,118.50 166.00,118.50 165.00,118.50 164.00,118.50 163.00,118.50 162.00,118.50 161.00,118.50 160.00,118.50 159.00,118.50 158.00,118.50 157.00,118.50 156.00,118.50 155.00,118.50 154.00,118.50 153.00,118.50 152.50,118.00 153.00,117.50 154.00,117.50 155.00,117.50 156.00,117.50 157.00,117.50 158.00,117.50 159.00,117.50 160.00,117.50 161.00,117.50 162.00,117.50 163.00,117.50 164.00,117.50 165.00,117.50 166.00,117.50 167.00,117.50 168.00,117.50 169.00,117.50 170.00,117.50 171.00,117.50 172.00,117.50 173.00,117.50 174.00,117.50 175.00,117.50 176.00,117.50 177.00,117.50 178.00,117.50 179.00,117.50 180.00,117.50 181.00,117.50 182.00,117.50 183.00,117.50 184.00,117.50 185.00,117.50 186.00,117.50 187.00,117.50 188.00,117.50 189.00,117.50 190.00,117.50 191.00,117.50 192.00,117.50 193.00,117.50 194.00,117.50 195.00,117.50 196.00,117.50 197.00,117.50 198.00,117.50 199.00,117.50 200.00,117.50 201.00,117.50 202.00,117.50 203.00,117.50 204.00,117.50 205.00,117.50 206.00,117.50 206.50,117.00 207.00,116.50 207.50,117.00 208.00,117.50 209.00,117.50 210.00,117.50 211.00,117.50 212.00,117.50 213.00,117.50 214.00,117.50 215.00,117.50 216.00,117.50 217.00,117.50 218.00,117.50 219.00,117.50 220.00,117.50 221.00,117.50 221.50,118.00 221.00,118.50" />
<polyline fill="none" stroke="#00aa00" stroke-width="1" stroke-dasharray="3,2" points="64.00,119.50 63.50,119.00 64.00,118.50 64.50,119.00 64.00,119.50" />
<polyline fill="none" stroke="#00aa00" stroke-width="1" stroke-dasharray="3,2" points="222.00,119.50 221.50,119.00 222.00,118.50 222.50,119.00 222.00,119.50" />
<polyline fill="none" stroke="#00aa00" stroke-width="1" stroke-dasharray="3,2" points="63.00,120.50 62.50,120.00 63.00,119.50 63.50,120.00 63.00,120.50" />
<polyline fill="none" stroke="#00aa00" stroke-width="1" stroke-dasharray="3,2" points="223.00,120.50 222.50,120.00 223.00,119.50 223.50,120.00 223.00,120.50" />
<polyline fill="none" stroke="#00aa00" stroke-width="1" stroke-dasharray="3,2" points="62.00,121.50 61.50,121.00 62.00,120.50 62.50,121.00 62.00,121.50" />
<polyline fill="none" stroke="#00aa00" stroke-width="1" stroke-dasharray="3,2" points="224.00,122.50 223.50,122.00 223.50,121.00 224.00,120.50 224.50,121.00 224.50,122.00 224.00,122.50" />
<polyline fill="none" stroke="#00aa00" stroke-width="1" stroke-dasharray="3,2" points="61.00,122.50 60.50,122.00 61.00,121.50 61.50,122.00 61.00,122.50" />
<polyline fill="none" stroke="#00aa00" stroke-width="1" stroke-dasharray="3,2" points="60.00,123.50 59.50,123.00 60.00,122.50 60.50,123.00 60.00,123.50" />
<polyline fill="none" stroke="#00aa00" stroke-width="1" stroke-dasharray="3,2" points="225.00,124.50 224.50,124.00 224.50,123.00 225.00,122.50 225.50,123.00 225.50,124.00 225.00,124.50" />
<polyline fill="none" stroke="#00aa00" stroke-width="1" stroke-dasharray="3,2" points="59.00,125.50 58.50,125.00 58.50,124.00 59.00,123.50 59.50,124.00 59.50,125.00 59.00,125.50" />
<polyline fill="none" stroke="#00aa00" stroke-width="1" stroke-dasharray="3,2" points="226.00,126.50 225.50,126.00 225.50,125.00 226.00,124.50 226.50,125.00 226.50,126.00 226.00,126.50" />
<polyline fill="none" stroke="#00aa00" stroke-width="1" stroke-dasharray="3,2" points="58.00,127.50 57.50,127.00 57.50,126.00 58.00,125.50 58.50,126.00 58.50,127.00 58.00,127.50" />
<polyline fill="none" stroke="#00aa00" stroke-width="1" stroke-dasharray="3,2" points="227.00,129.50 226.50,129.00 226.50,128.00 226.50,127.00 227.00,126.50 227.50,127.00 227.50,128.00 227.50,129.00 227.00,129.50" />
<polyline fill="none" stroke="#00aa00" stroke-width="1" stroke-dasharray="3,2" points="57.00,131.50 56.50,131.00 56.50,130.00 56.50,129.00 56.50,128.00 57.00,127.50 57.50,128.00 57.50,129.00 57.50,130.00 57.50,131.00 57.00,131.50" />
<polyline fill="none" stroke="#00aa00" stroke-width="1" stroke-dasharray="3,2" points="228.00,202.50 227.50,202.00 227.50,201.00 227.50,200.00 227.50,199.00 227.50,198.00 227.50,197.00 227.50,196.00 227.50,195.00 227.50,194.00 227.50,193.00 227.50,192.00 227.50,191.00 227.50,190.00 227.50,189.00 227.50,188.00 227.50,187.00 227.50,186.00 227.50,185.00 227.50,184.00 227.50,183.00 227.50,182.00 227.50,181.00 227.50,180.00 227.50,179.00 227.50,178.00 227.50,177.00 227.50,176.00 227.50,175.00 227.50,174.00 227.50,173.00 227.50,172.00 227.50,171.00 227.50,170.00 227.50,169.00 227.50,168.00 227.50,167.00 227.50,166.00 227.50,165.00 227.50,164.00 227.50,163.00 227.50,162.00 227.50,161.00 227.50,160.00 227.50,159.00 227.50,158.00 227.50,157.00 227.50,156.00 227.50,155.00 227.50,154.00 227.50,153.00 227.50,152.00 227.50,151.00 227.50,150.00 227.50,149.00 227.50,148.00 227.50,147.00 227.50,146.00 227.50,145.00 227.50,144.00 227.50,143.00 227.50,142.00 227.50,141.00 227.50,140.00 227.50,139.00 227.50,138.00 227.50,137.00 227.50,136.00 227.50,135.00 227.50,134.00 227.50,133.00 227.50,132.00 227.50,131.00 227.50,130.00 228.00,129.50 228.50,130.00 228.50,131.00 228.50,132.00 228.50,133.00 228.50,134.00 228.50,135.00 228.50,136.00 228.50,137.00 228.50,138.00 228.50,139.00 228.50,140.00 228.50,141.00 228.50,142.00 228.50,143.00 228.50,144.00 228.50,145.00 228.50,146.00 228.50,147.00 228.50,148.00 228.50,149.00 228.50,150.00 228.50,151.00 228.50,152.00 228.50,153.00 228.50,154.00 228.50,155.00 228.50,156.00 228.50,157.00 228.50,158.00 228.50,159.00 228.50,160.00 228.50,161.00 228.50,162.00 228.50,163.00 228.50,164.00 228.50,165.00 228.50,166.00 228.50,167.00 228.50,168.00 228.50,169.00 228.50,170.00 228.50,171.00 228.50,172.00 228.50,173.00 228.50,174.00 228.50,175.00 228.50,176.00 228.50,177.00 228.50,178.00 228.50,179.00 228.50,180.00 228.50,181.00 228.50,182.00 228.50,183.00 228.50,184.00 228.50,185.00 228.50,186.00 228.50,187.00 228.50,188.00 228.50,189.00 228.50,190.00 228.50,191.00 228.50,192.00 228.50,193.00 228.50,194.00 228.50,195.00 228.50,196.00 228.50,197.00 228.50,198.00 228.50,199.00 228.50,200.00 228.50,201.00 228.50,202.00 228.00,202.50" />
<polyline fill="none" stroke="#00aa00" stroke-width="1" stroke-dasharray="3,2" points="56.00,136.50 55.50,136.00 55.50,135.00 55.50,134.00 55.50,133.00 55.50,132.00 56.00,131.50 56.50,132.00 56.50,133.00 56.50,134.00 56.50,135.00 56.50,136.00 56.00,136.50" />
<polyline fill="none" stroke="#00aa00" stroke-width="1" stroke-dasharray="3,2" points="55.00,196.50 54.50,196.00 54.50,195.00 54.50,194.00 54.50,193.00 54.50,192.00 54.50,191.00 54.50,190.00 54.50,189.00 54.50,188.00 54.50,187.00 54.50,186.00 54.50,185.00 54.50,184.00 54.50,183.00 54.50,182.00 54.50,181.00 54.50,180.00 54.50,179.00 54.50,178.00 54.50,177.00 54.50,176.00 54.50,175.00 54.50,174.00 54.50,173.00 54.50,172.00 54.50,171.00 54.50,170.00 54.50,169.00 54.50,168.00 54.50,167.00 54.50,166.00 54.50,165.00 54.50,164.00 54.50,163.00 54.50,162.00 54.50,161.00 54.50,160.00 54.50,159.00 54.50,158.00 54.50,157.00 54.50,156.00 54.50,155.00 54.50,154.00 54.50,153.00 54.50,152.00 54.50,151.00 54.50,150.00 54.50,149.00 54.50,148.00 54.50,147.00 54.50,146.00 54.50,145.00 54.50,144.00 54.50,143.00 54.50,142.00 54.50,141.00 54.50,140.00 54.50,139.00 54.50,138.00 54.50,137.00 55.00,136.50 55.50,137.00 55.50,138.00 55.50,139.00 55.50,140.00 55.50,141.00 55.50,142.00 55.50,143.00 55.50,144.00 55.50,145.00 55.50,146.00 55.50,147.00 55.50,148.00 55.50,149.00 55.50,150.00 55.50,151.00 55.50,152.00 55.50,153.00 55.50,154.00 55.50,155.00 55.50,156.00 55.50,157.00 55.50,158.00 55.50,159.00 55.50,160.00 55.50,161.00 55.50,162.00 55.50,163.00 55.50,164.00 55.50,165.00 55.50,166.00 55.50,167.00 55.50,168.00 55.50,169.00 55.50,170.00 55.50,171.00 55.50,172.00 55.50,173.00 55.50,174.00 55.50,175.00 55.50,176.00 55.50,177.00 55.50,178.00 55.50,179.00 55.50,180.00 55.50,181.00 55.50,182.00 55.50,183.00 55.50,184.00 55.50,185.00 55.50,186.00 55.50,187.00 55.50,188.00 55.50,189.00 55.50,190.00 55.50,191.00 55.50,192.00 55.50,193.00 55.50,194.00 55.50,195.00 55.50,196.00 55.00,196.50" />
<polyline fill="none" stroke="#00aa00" stroke-width="1" stroke-dasharray="3,2" points="112.00,165.50 111.00,165.50 110.50,165.00 111.00,164.50 112.00,164.50 112.50,165.00 112.00,165.50" />
<polyline fill="none" stroke="#00aa00" stroke-width="1" stroke-dasharray="3,2" points="122.00,165.50 121.00,165.50 120.00,165.50 119.00,165.50 118.00,165.50 117.00,165.50 116.00,165.50 115.50,165.00 116.00,164.50 117.00,164.50 118.00,164.50 119.00,164.50 120.00,164.50 121.00,164.50 122.00,164.50 122.50,165.00 122.00,165.50" />
<polyline fill="none" stroke="#00aa00" stroke-width="1" stroke-dasharray="3,2" points="158.00,165.50 157.00,165.50 156.00,165.50 155.00,165.50 154.00,165.50 153.00,165.50 152.00,165.50 151.00,165.50 150.00,165.50 149.00,165.50 148.00,165.50 147.00,165.50 146.00,165.50 145.00,165.50 144.00,165.50 143.00,165.50 142.00,165.50 141.00,165.50 140.00,165.50 139.00,165.50 138.00,165.50 137.00,165.50 136.00,165.50 135.00,165.50 134.00,165.50 133.00,165.50 132.00,165.50 131.00,165.50 130.00,165.50 129.00,165.50 128.00,165.50 127.50,165.00 128.00,164.50 129.00,164.50 130.00,164.50 131.00,164.50 132.00,164.50 133.00,164.50 134.00,164.50 135.00,164.50 136.00,164.50 137.00,164.50 138.00,164.50 139.00,164.50 140.00,164.50 141.00,164.50 142.00,164.50 143.00,164.50 144.00,164.50 145.00,164.50 146.00,164.50 147.00,164.50 148.00,164.50 149.00,164.50 150.00,164.50 151.00,164.50 152.00,164.50 153.00,164.50 154.00,164.50 155.00,164.50 156.00,164.50 157.00,164.50 158.00,164.50 158.50,165.00 158.00,165.50" />
<polyline fill="none" stroke="#00aa00" stroke-width="1" stroke-dasharray="3,2" points="171.00,165.50 170.00,165.50 169.00,165.50 168.00,165.50 167.00,165.50 166.00,165.50 165.00,165.50 164.50,165.00 165.00,164.50 166.00,164.50 167.00,164.50 168.00,164.50 169.00,164.50 170.00,164.50 171.00,164.50 171.50,165.00 171.00,165.50" />
<polyline fill="none" stroke="#00aa00" stroke-width="1" stroke-dasharray="3,2" points="175.00,165.50 174.00,165.50 173.50,165.00 174.00,164.50 175.00,164.50 175.50,165.00 175.00,165.50" />
<polyline fill="none" stroke="#00aa00" stroke-width="1" stroke-dasharray="3,2" points="115.00,166.50 114.00,166.50 113.00,166.50 112.50,166.00 113.00,165.50 114.00,165.50 115.00,165.50 115.50,166.00 115.00,166.50" />
<polyline fill="none" stroke="#00aa00" stroke-width="1" stroke-dasharray="3,2" points="127.00,166.50 126.00,166.50 125.00,166.50 124.00,166.50 123.00,166.50 122.50,166.00 123.00,165.50 124.00,165.50 125.00,165.50 126.00,165.50 127.00,165.50 127.50,166.00 127.00,166.50" />
<polyline fill="none" stroke="#00aa00" stroke-width="1" stroke-dasharray="3,2" points="164.00,166.50 163.00,166.50 162.00,166.50 161.00,166.50 160.00,166.50 159.00,166.50 158.50,166.00 159.00,165.50 160.00,165.50 161.00,165.50 162.00,165.50 163.00,165.50 164.00,165.50 164.50,166.00 164.00,166.50" />
<polyline fill="none" stroke="#00aa00" stroke-width="1" stroke-dasharray="3,2" points="173.00,166.50 172.00,166.50 171.50,166.00 172.00,165.50 173.00,165.50 173.50,166.00 173.00,166.50" />
<polyline fill="none" stroke="#00aa00" stroke-width="1" stroke-dasharray="3,2" points="56.00,201.50 55.50,201.00 55.50,200.00 55.50,199.00 55.50,198.00 55.50,197.00 56.00,196.50 56.50,197.00 56.50,198.00 56.50,199.00 56.50,200.00 56.50,201.00 56.00,201.50" />
<polyline fill="none" stroke="#00aa00" stroke-width="1" stroke-dasharray="3,2" points="57.00,204.50 56.50,204.00 56.50,203.00 56.50,202.00 57.00,201.50 57.50,202.00 57.50,203.00 57.50,204.00 57.00,204.50" />
<polyline fill="none" stroke="#00aa00" stroke-width="1" stroke-dasharray="3,2" points="227.00,205.50 226.50,205.00 226.50,204.00 226.50,203.00 227.00,202.50 227.50,203.00 227.50,204.00 227.50,205.00 227.00,205.50" />
<polyline fill="none" stroke="#00aa00" stroke-width="1" stroke-dasharray="3,2" points="58.00,206.50 57.50,206.00 57.50,205.00 58.00,204.50 58.50,205.00 58.50,206.00 58.00,206.50" />
<polyline fill="none" stroke="#00aa00" stroke-width="1" stroke-dasharray="3,2" points="226.00,207.50 225.50,207.00 225.50,206.00 226.00,205.50 226.50,206.00 226.50,207.00 226.00,207.50" />
<polyline fill="none" stroke="#00aa00" stroke-width="1" stroke-dasharray="3,2" points="59.00,208.50 58.50,208.00 58.50,207.00 59.00,206.50 59.50,207.00 59.50,208.00 59.00,208.50" />
<polyline fill="none" stroke="#00aa00" stroke-width="1" stroke-dasharray="3,2" points="225.00,209.50 224.50,209.00 224.50,208.00 225.00,207.50 225.50,208.00 225.50,209.00 225.00,209.50" />
<polyline fill="none" stroke="#00aa00" stroke-width="1" stroke-dasharray="3,2" points="60.00,209.50 59.50,209.00 60.00,208.50 60.50,209.00 60.00,209.50" />
<polyline fill="none" stroke="#00aa00" stroke-width="1" stroke-dasharray="3,2" points="61.00,210.50 60.50,210.00 61.00,209.50 61.50,210.00 61.00,210.50" />
<polyline fill="none" stroke="#00aa00" stroke-width="1" stroke-dasharray="3,2" points="224.00,210.50 223.50,210.00 224.00,209.50 224.50,210.00 224.00,210.50" />
<polyline fill="none" stroke="#00aa00" stroke-width="1" stroke-dasharray="3,2" points="62.00,211.50 61.50,211.00 62.00,210.50 62.50,211.00 62.00,211.50" />
<polyline fill="none" stroke="#00aa00" stroke-width="1" stroke-dasharray="3,2" points="223.00,211.50 222.50,211.00 223.00,210.50 223.50,211.00 223.00,211.50" />
<polyline fill="none" stroke="#00aa00" stroke-width="1" stroke-dasharray="3,2" points="63.00,212.50 62.50,212.00 63.00,211.50 63.50,212.00 63.00,212.50" />
<polyline fill="none" stroke="#00aa00" stroke-width="1" stroke-dasharray="3,2" points="222.00,212.50 221.50,212.00 222.00,211.50 222.50,212.00 222.00,212.50" />
<polyline fill="none" stroke="#00aa00" stroke-width="1" stroke-dasharray="3,2" points="79.00,217.50 78.50,217.00 78.50,216.00 78.50,215.00 78.50,214.00 78.00,213.50 77.00,213.50 76.00,213.50 75.00,213.50 74.00,213.50 73.00,213.50 72.00,213.50 71.00,213.50 70.00,213.50 69.00,213.50 68.00,213.50 67.00,213.50 66.00,213.50 65.00,213.50 64.00,213.50 63.50,213.00 64.00,212.50 65.00,212.50 66.00,212.50 67.00,212.50 68.00,212.50 69.00,212.50 70.00,212.50 71.00,212.50 72.00,212.50 73.00,212.50 74.00,212.50 75.00,212.50 76.00,212.50 77.00,212.50 78.00,212.50 79.00,212.50 80.00,212.50 81.00,212.50 82.00,212.50 83.00,212.50 84.00,212.50 85.00,212.50 86.00,212.50 87.00,212.50 88.00,212.50 89.00,212.50 90.00,212.50 91.00,212.50 92.00,212.50 93.00,212.50 94.00,212.50 95.00,212.50 96.00,212.50 97.00,212.50 98.00,212.50 99.00,212.50 100.00,212.50 101.00,212.50 102.00,212.50 103.00,212.50 104.00,212.50 105.00,212.50 106.00,212.50 107.00,212.50 108.00,212.50 109.00,212.50 110.00,212.50 111.00,212.50 112.00,212.50 113.00,212.50 114.00,212.50 115.00,212.50 116.00,212.50 117.00,212.50 118.00,212.50 119.00,212.50 120.00,212.50 121.00,212.50 122.00,212.50 123.00,212.50 124.00,212.50 125.00,212.50 126.00,212.50 127.00,212.50 128.00,212.50 129.00,212.50 130.00,212.50 131.00,212.50 132.00,212.50 133.00,212.50 134.00,212.50 135.00,212.50 136.00,212.50 137.00,212.50 138.00,212.50 139.00,212.50 140.00,212.50 141.00,212.50 142.00,212.50 143.00,212.50 144.00,212.50 145.00,212.50 146.00,212.50 147.00,212.50 148.00,212.50 149.00,212.50 150.00,212.50 151.00,212.50 152.00,212.50 153.00,212.50 154.00,212.50 155.00,212.50 156.00,212.50 157.00,212.50 158.00,212.50 159.00,212.50 160.00,212.50 161.00,212.50 162.00,212.50 163.00,212.50 164.00,212.50 165.00,212.50 166.00,212.50 167.00,212.50 168.00,212.50 169.00,212.50 170.00,212.50 171.00,212.50 172.00,212.50 173.00,212.50 174.00,212.50 175.00,212.50 176.00,212.50 177.00,212.50 178.00,212.50 179.00,212.50 180.00,212.50 181.00,212.50 182.00,212.50 183.00,212.50 184.00,212.50 185.00,212.50 186.00,212.50 187.00,212.50 188.00,212.50 189.00,212.50 190.00,212.50 191.00,212.50 192.00,212.50 193.00,212.50 194.00,212.50 195.00,212.50 196.00,212.50 197.00,212.50 198.00,212.50 199.00,212.50 200.00,212.50 201.00,212.50 202.00,212.50 203.00,212.50 204.00,212.50 205.00,212.50 206.00,212.50 206.50,213.00 206.00,213.50 205.00,213.50 204.00,213.50 203.00,213.50 202.00,213.50 201.00,213.50 200.00,213.50 199.00,213.50 198.00,213.50 197.00,213.50 196.00,213.50 195.00,213.50 194.00,213.50 193.00,213.50 192.00,213.50 191.00,213.50 190.00,213.50 189.00,213.50 188.00,213.50 187.00,213.50 186.00,213.50 185.00,213.50 184.00,213.50 183.00,213.50 182.00,213.50 181.00,213.50 180.00,213.50 179.00,213.50 178.00,213.50 177.00,213.50 176.00,213.50 175.00,213.50 174.00,213.50 173.00,213.50 172.00,213.50 171.00,213.50 170.00,213.50 169.00,213.50 168.00,213.50 167.00,213.50 166.00,213.50 165.00,213.50 164.00,213.50 163.00,213.50 162.00,213.50 161.00,213.50 160.00,213.50 159.00,213.50 158.00,213.50 157.00,213.50 156.00,213.50 155.00,213.50 154.00,213.50 153.00,213.50 152.00,213.50 151.00,213.50 150.00,213.50 149.00,213.50 148.00,213.50 147.00,213.50 146.00,213.50 145.00,213.50 144.00,213.50 143.00,213.50 142.00,213.50 141.00,213.50 140.00,213.50 139.00,213.50 138.00,213.50 137.00,213.50 136.00,213.50 135.00,213.50 134.00,213.50 133.00,213.50 132.00,213.50 131.00,213.50 130.00,213.50 129.00,213.50 128.00,213.50 127.00,213.50 126.00,213.50 125.00,213.50 124.00,213.50 123.00,213.50 122.00,213.50 121.00,213.50 120.00,213.50 119.00,213.50 118.00,213.50 117.00,213.50 116.00,213.50 115.00,213.50 114.00,213.50 113.00,213.50 112.00,213.50 111.00,213.50 110.00,213.50 109.00,213.50 108.00,213.50 107.00,213.50 106.00,213.50 105.00,213.50 104.00,213.50 103.00,213.50 102.00,213.50 101.00,213.50 100.00,213.50 99.00,213.50 98.00,213.50 97.00,213.50 96.00,213.50 95.00,213.50 94.00,213.50 93.00,213.50 92.00,213.50 91.00,213.50 90.00,213.50 89.00,213.50 88.00,213.50 87.00,213.50 86.00,213.50 85.00,213.50 84.00,213.50 83.00,213.50 82.00,213.50 81.00,213.50 80.00,213.50 79.50,214.00 79.50,215.00 79.50,216.00 79.50,217.00 79.00,217.50" />
<polyline fill="none" stroke="#00aa00" stroke-width="1" stroke-dasharray="3,2" points="221.00,213.50 220.00,213.50 219.00,213.50 218.00,213.50 217.00,213.50 216.00,213.50 215.00,213.50 214.00,213.50 213.00,213.50 212.00,213.50 211.00,213.50 210.00,213.50 209.00,213.50 208.00,213.50 207.50,213.00 208.00,212.50 209.00,212.50 210.00,212.50 211.00,212.50 212.00,212.50 213.00,212.50 214.00,212.50 215.00,212.50 216.00,212.50 217.00,212.50 218.00,212.50 219.00,212.50 220.00,212.50 221.00,212.50 221.50,213.00 221.00,213.50" />
<polyline fill="none" stroke="#00aa00" stroke-width="1" stroke-dasharray="3,2" points="207.00,215.50 206.50,215.00 206.50,214.00 207.00,213.50 207.50,214.00 207.50,215.00 207.00,215.50" />
<polyline fill="none" stroke="#00aa00" stroke-width="1" stroke-dasharray="3,2" points="208.00,221.50 207.50,221.00 207.50,220.00 207.50,219.00 207.50,218.00 207.50,217.00 207.50,216.00 208.00,215.50 208.50,216.00 208.50,217.00 208.50,218.00 208.50,219.00 208.50,220.00 208.50,221.00 208.00,221.50" />
<polyline fill="none" stroke="#00aa00" stroke-width="1" stroke-dasharray="3,2" points="78.00,224.50 77.50,224.00 77.50,223.00 77.50,222.00 77.50,221.00 77.50,220.00 77.50,219.00 77.50,218.00 78.00,217.50 78.50,218.00 78.50,219.00 78.50,220.00 78.50,221.00 78.50,222.00 78.50,223.00 78.50,224.00 78.00,224.50" />
<polyline fill="none" stroke="#00aa00" stroke-width="1" stroke-dasharray="3,2" points="209.00,225.50 208.50,225.00 208.50,224.00 208.50,223.00 208.50,222.00 209.00,221.50 209.50,222.00 209.50,223.00 209.50,224.00 209.50,225.00 209.00,225.50" />
<polyline fill="none" stroke="#00aa00" stroke-width="1" stroke-dasharray="3,2" points="77.00,225.50 76.50,225.00 77.00,224.50 77.50,225.00 77.00,225.50" />
<circle cx="143.00" cy="90.00" r="3" fill="none" stroke="#ff00ff" stroke-width="1"/>
<circle cx="142.00" cy="91.00" r="3" fill="none" stroke="#ff00ff" stroke-width="1"/>
<circle cx="143.00" cy="91.00" r="3" fill="none" stroke="#ff00ff" stroke-width="1"/>
<circle cx="143.00" cy="92.00" r="3" fill="none" stroke="#ff00ff" stroke-width="1"/>
<circle cx="144.00" cy="93.00" r="3" fill="none" stroke="#ff00ff" stroke-width="1"/>
<circle cx="145.00" cy="93.00" r="3" fill="none" stroke="#ff00ff" stroke-width="1"/>
<circle cx="144.00" cy="94.00" r="3" fill="none" stroke="#ff00ff" stroke-width="1"/>
<circle cx="144.00" cy="108.00" r="3" fill="none" stroke="#ff00ff" stroke-width="1"/>
<circle cx="143.00" cy="109.00" r="3" fill="none" stroke="#ff00ff" stroke-width="1"/>
<circle cx="144.00" cy="109.00" r="3" fill="none" stroke="#ff00ff" stroke-width="1"/>
<circle cx="79.00" cy="117.00" r="3" fill="none" stroke="#ff00ff" stroke-width="1"/>
<circle cx="207.00" cy="117.00" r="3" fill="none" stroke="#ff00ff" stroke-width="1"/>
<circle cx="78.00" cy="118.00" r="3" fill="none" stroke="#ff00ff" stroke-width="1"/>
<circle cx="79.00" cy="118.00" r="3" fill="none" stroke="#ff00ff" stroke-width="1"/>
<circle cx="80.00" cy="118.00" r="3" fill="none" stroke="#ff00ff" stroke-width="1"/>
<circle cx="206.00" cy="118.00" r="3" fill="none" stroke="#ff00ff" stroke-width="1"/>
<circle cx="207.00" cy="118.00" r="3" fill="none" stroke="#ff00ff" stroke-width="1"/>
<circle cx="208.00" cy="118.00" r="3" fill="none" stroke="#ff00ff" stroke-width="1"/>
<circle cx="78.00" cy="213.00" r="3" fill="none" stroke="#ff00ff" stroke-width="1"/>
<circle cx="79.00" cy="213.00" r="3" fill="none" stroke="#ff00ff" stroke-width="1"/>
<circle cx="80.00" cy="213.00" r="3" fill="none" stroke="#ff00ff" stroke-width="1"/>
<circle cx="79.00" cy="214.00" r="3" fill="none" stroke="#ff00ff" stroke-width="1"/>
<circle cx="207.00" cy="214.00" r="3" fill="none" stroke="#ff00ff" stroke-width="1"/>
<polyline fill="none" stroke="#3366ff" stroke-width="1" points="213.00,244.50 212.00,244.50 211.00,244.50 210.00,244.50 209.00,244.50 208.00,244.50 207.50,244.00 207.00,243.50 206.00,243.50 205.00,243.50 204.00,243.50 203.00,243.50 202.50,243.00 202.00,242.50 201.00,242.50 200.50,242.00 200.00,241.50 199.00,241.50 198.50,241.00 198.00,240.50 197.00,240.50 196.50,240.00 196.00,239.50 195.50,239.00 195.00,238.50 194.50,238.00 194.00,237.50 193.00,237.50 192.50,237.00 192.00,236.50 191.50,236.00 191.50,235.00 191.00,234.50 190.50,234.00 190.00,233.50 189.50,233.00 189.00,232.50 188.50,232.00 188.00,231.50 187.00,231.50 186.00,231.50 185.00,231.50 184.00,231.50 183.00,231.50 182.00,231.50 181.00,231.50 180.00,231.50 179.00,231.50 178.00,231.50 177.00,231.50 176.00,231.50 175.00,231.50 174.00,231.50 173.00,231.50 172.00,231.50 171.00,231.50 170.00,231.50 169.00,231.50 168.00,231.50 167.00,231.50 166.00,231.50 165.00,231.50 164.00,231.50 163.00,231.50 162.00,231.50 161.00,231.50 160.00,231.50 159.00,231.50 158.00,231.50 157.00,231.50 156.00,231.50 155.00,231.50 154.00,231.50 153.00,231.50 152.00,231.50 151.00,231.50 150.00,231.50 149.00,231.50 148.00,231.50 147.00,231.50 146.00,231.50 145.00,231.50 144.00,231.50 143.00,231.50 142.00,231.50 141.00,231.50 140.00,231.50 139.00,231.50 138.00,231.50 137.00,231.50 136.00,231.50 135.00,231.50 134.00,231.50 133.00,231.50 132.00,231.50 131.00,231.50 130.00,231.50 129.00,231.50 128.00,231.50 127.00,231.50 126.00,231.50 125.00,231.50 124.00,231.50 123.00,231.50 122.00,231.50 121.00,231.50 120.00,231.50 119.00,231.50 118.00,231.50 117.00,231.50 116.00,231.50 115.00,231.50 114.00,231.50 113.00,231.50 112.00,231.50 111.00,231.50 110.00,231.50 109.00,231.50 108.00,231.50 107.00,231.50 106.00,231.50 105.00,231.50 104.00,231.50 103.00,231.50 102.00,231.50 101.00,231.50 100.00,231.50 99.00,231.50 98.00,231.50 97.50,232.00 97.50,233.00 97.00,233.50 96.50,234.00 96.00,234.50 95.50,235.00 95.00,235.50 94.50,236.00 94.00,236.50 93.50,237.00 93.00,237.50 92.50,238.00 92.00,238.50 91.50,239.00 91.00,239.50 90.00,239.50 89.50,240.00 89.00,240.50 88.50,241.00 88.00,241.50 87.00,241.50 86.50,242.00 86.00,242.50 85.00,242.50 84.00,242.50 83.50,243.00 83.00,243.50 82.00,243.50 81.00,243.50 80.00,243.50 79.50,244.00 79.00,244.50 78.00,244.50 77.00,244.50 76.00,244.50 75.00,244.50 74.00,244.50 73.50,244.00 73.00,243.50 72.00,243.50 71.00,243.50 70.00,243.50 69.50,243.00 69.00,242.50 68.00,242.50 67.50,242.00 67.00,241.50 66.00,241.50 65.50,241.00 65.00,240.50 64.50,240.00 64.00,239.50 63.50,239.00 63.50,238.00 63.00,237.50 62.50,237.00 62.50,236.00 62.00,235.50 61.50,235.00 61.50,234.00 61.50,233.00 61.50,232.00 61.00,231.50 60.00,231.50 59.00,231.50 58.00,231.50 57.00,231.50 56.00,231.50 55.00,231.50 54.00,231.50 53.00,231.50 52.00,231.50 51.00,231.50 50.00,231.50 49.00,231.50 48.00,231.50 47.00,231.50 46.00,231.50 45.00,231.50 44.00,231.50 43.00,231.50 42.00,231.50 41.00,231.50 40.00,231.50 39.00,231.50 38.00,231.50 37.00,231.50 36.50,231.00 36.00,230.50 35.00,230.50 34.50,230.00 34.00,229.50 33.00,229.50 32.50,229.00 32.00,228.50 31.50,228.00 31.00,227.50 30.50,227.00 30.50,226.00 30.00,225.50 29.50,225.00 29.50,224.00 29.00,223.50 28.50,223.00 28.50,222.00 28.50,221.00 28.50,220.00 28.50,219.00 28.50,218.00 28.50,217.00 28.50,216.00 28.50,215.00 28.50,214.00 28.50,213.00 28.50,212.00 28.50,211.00 28.50,210.00 28.50,209.00 28.50,208.00 28.50,207.00 28.50,206.00 28.50,205.00 28.50,204.00 28.50,203.00 28.50,202.00 28.50,201.00 28.50,200.00 28.50,199.00 28.50,198.00 28.50,197.00 28.50,196.00 28.50,195.00 28.50,194.00 28.50,193.00 28.50,192.00 28.50,191.00 28.50,190.00 28.50,189.00 28.50,188.00 28.50,187.00 28.50,186.00 28.50,185.00 28.50,184.00 28.50,183.00 28.50,182.00 28.50,181.00 28.50,180.00 28.50,179.00 28.50,178.00 28.50,177.00 28.50,176.00 28.50,175.00 28.50,174.00 28.50,173.00 28.50,172.00 28.50,171.00 28.50,170.00 28.50,169.00 28.50,168.00 28.50,167.00 28.50,166.00 28.50,165.00 28.50,164.00 28.50,163.00 28.50,162.00 28.50,161.00 28.50,160.00 28.50,159.00 28.50,158.00 28.50,157.00 28.50,156.00 28.50,155.00 28.50,154.00 28.50,153.00 28.50,152.00 28.50,151.00 28.50,150.00 28.50,149.00 28.50,148.00 28.50,147.00 28.50,146.00 28.50,145.00 28.50,144.00 28.50,143.00 28.50,142.00 28.50,141.00 28.50,140.00 28.50,139.00 28.50,138.00 28.50,137.00 28.50,136.00 28.50,135.00 28.50,134.00 28.50,133.00 28.50,132.00 28.50,131.00 28.50,130.00 28.50,129.00 28.50,128.00 28.50,127.00 28.50,126.00 28.50,125.00 28.50,124.00 28.50,123.00 28.50,122.00 28.50,121.00 28.50,120.00 28.50,119.00 28.50,118.00 28.50,117.00 28.50,116.00 28.50,115.00 28.50,114.00 28.50,113.00 28.50,112.00 28.50,111.00 28.50,110.00 29.00,109.50 29.50,109.00 29.50,108.00 29.50,107.00 30.00,106.50 30.50,106.00 31.00,105.50 31.50,105.00 31.50,104.00 32.00,103.50 32.50,103.00 33.00,102.50 34.00,102.50 34.50,102.00 35.00,101.50 36.00,101.50 36.50,101.00 37.00,100.50 38.00,100.50 39.00,100.50 40.00,100.50 41.00,100.50 42.00,100.50 43.00,100.50 44.00,100.50 45.00,100.50 46.00,100.50 47.00,100.50 48.00,100.50 49.00,100.50 50.00,100.50 51.00,100.50 52.00,100.50 53.00,100.50 54.00,100.50 55.00,100.50 56.00,100.50 57.00,100.50 58.00,100.50 59.00,100.50 60.00,100.50 61.00,100.50 61.50,100.00 61.50,99.00 61.50,98.00 61.50,97.00 62.00,96.50 62.50,96.00 62.50,95.00 63.00,94.50 63.50,94.00 64.00,93.50 64.50,93.00 65.00,92.50 65.50,92.00 66.00,91.50 66.50,91.00 67.00,90.50 67.50,90.00 68.00,89.50 69.00,89.50 69.50,89.00 70.00,88.50 71.00,88.50 72.00,88.50 73.00,88.50 74.00,88.50 75.00,88.50 76.00,88.50 77.00,88.50 78.00,88.50 79.00,88.50 80.00,88.50 81.00,88.50 82.00,88.50 82.50,89.00 83.00,89.50 84.00,89.50 85.00,89.50 85.50,90.00 86.00,90.50 87.00,90.50 87.50,91.00 88.00,91.50 89.00,91.50 89.50,92.00 90.00,92.50 90.50,93.00 91.00,93.50 92.00,93.50 92.50,94.00 93.00,94.50 93.50,95.00 94.00,95.50 94.50,96.00 95.00,96.50 95.50,97.00 96.00,97.50 96.50,98.00 96.50,99.00 97.00,99.50 97.50,100.00 98.00,100.50 99.00,100.50 100.00,100.50 101.00,100.50 102.00,100.50 103.00,100.50 104.00,100.50 105.00,100.50 106.00,100.50 107.00,100.50 108.00,100.50 109.00,100.50 110.00,100.50 111.00,100.50 112.00,100.50 113.00,100.50 114.00,100.50 115.00,100.50 116.00,100.50 116.50,100.00 116.50,99.00 116.50,98.00 116.50,97.00 116.50,96.00 116.50,95.00 116.00,94.50 115.00,94.50 114.00,94.50 113.00,94.50 112.00,94.50 111.50,94.00 111.00,93.50 110.00,93.50 109.00,93.50 108.00,93.50 107.50,93.00 107.00,92.50 106.00,92.50 105.00,92.50 104.50,92.00 104.00,91.50 103.00,91.50 102.50,91.00 102.00,90.50 101.50,90.00 101.50,89.00 101.50,88.00 101.50,87.00 101.50,86.00 101.50,85.00 101.50,84.00 102.00,83.50 102.50,83.00 102.50,82.00 103.00,81.50 103.50,81.00 104.00,80.50 104.50,80.00 105.00,79.50 105.50,79.00 106.00,78.50 106.50,78.00 107.00,77.50 107.50,77.00 108.00,76.50 108.50,76.00 108.50,75.00 109.00,74.50 109.50,74.00 110.00,73.50 110.50,73.00 111.00,72.50 111.50,72.00 112.00,71.50 112.50,71.00 113.00,70.50 113.50,70.00 113.50,69.00 114.00,68.50 114.50,68.00 115.00,67.50 115.50,67.00 116.00,66.50 116.50,66.00 117.00,65.50 117.50,65.00 118.00,64.50 118.50,64.00 119.00,63.50 119.50,63.00 119.50,62.00 120.00,61.50 120.50,61.00 121.00,60.50 121.50,60.00 122.00,59.50 122.50,59.00 123.00,58.50 123.50,58.00 124.00,57.50 124.50,57.00 125.00,56.50 125.50,56.00 125.50,55.00 126.00,54.50 126.50,54.00 127.00,53.50 127.50,53.00 128.00,52.50 128.50,52.00 129.00,51.50 129.50,51.00 130.00,50.50 130.50,50.00 131.00,49.50 131.50,49.00 131.50,48.00 132.00,47.50 132.50,47.00 133.00,46.50 133.50,46.00 134.00,45.50 134.50,45.00 135.00,44.50 135.50,44.00 136.00,43.50 136.50,43.00 136.50,42.00 137.00,41.50 137.50,41.00 138.00,40.50 138.50,40.00 139.00,39.50 140.00,39.50 140.50,39.00 141.00,38.50 142.00,38.50 143.00,38.50 144.00,38.50 145.00,38.50 146.00,38.50 146.50,39.00 147.00,39.50 147.50,40.00 148.00,40.50 148.50,41.00 149.00,41.50 149.50,42.00 150.00,42.50 150.50,43.00 150.50,44.00 151.00,44.50 151.50,45.00 152.00,45.50 152.50,46.00 153.00,46.50 153.50,47.00 154.00,47.50 154.50,48.00 155.00,48.50 155.50,49.00 155.50,50.00 156.00,50.50 156.50,51.00 157.00,51.50 157.50,52.00 158.00,52.50 158.50,53.00 159.00,53.50 159.50,54.00 160.00,54.50 160.50,55.00 161.00,55.50 161.50,56.00 161.50,57.00 162.00,57.50 162.50,58.00 163.00,58.50 163.50,59.00 164.00,59.50 164.50,60.00 165.00,60.50 165.50,61.00 166.00,61.50 166.50,62.00 167.00,62.50 167.50,63.00 167.50,64.00 168.00,64.50 168.50,65.00 169.00,65.50 169.50,66.00 170.00,66.50 170.50,67.00 171.00,67.50 171.50,68.00 172.00,68.50 172.50,69.00 173.00,69.50 173.50,70.00 173.50,71.00 174.00,71.50 174.50,72.00 175.00,72.50 175.50,73.00 176.00,73.50 176.50,74.00 177.00,74.50 177.50,75.00 178.00,75.50 178.50,76.00 178.50,77.00 179.00,77.50 179.50,78.00 180.00,78.50 180.50,79.00 181.00,79.50 181.50,80.00 182.00,80.50 182.50,81.00 183.00,81.50 183.50,82.00 184.00,82.50 184.50,83.00 184.50,84.00 185.00,84.50 185.50,85.00 185.50,86.00 185.50,87.00 185.50,88.00 185.00,88.50 184.50,89.00 184.50,90.00 184.00,90.50 183.50,91.00 183.00,91.50 182.50,92.00 182.00,92.50 181.00,92.50 180.00,92.50 179.50,93.00 179.00,93.50 178.00,93.50 177.00,93.50 176.00,93.50 175.00,93.50 174.50,94.00 174.00,94.50 173.00,94.50 172.00,94.50 171.50,95.00 171.50,96.00 171.50,97.00 171.50,98.00 171.50,99.00 171.50,100.00 172.00,100.50 173.00,100.50 174.00,100.50 175.00,100.50 176.00,100.50 177.00,100.50 178.00,100.50 179.00,100.50 180.00,100.50 181.00,100.50 182.00,100.50 183.00,100.50 184.00,100.50 185.00,100.50 186.00,100.50 187.00,100.50 188.00,100.50 188.50,100.00 189.00,99.50 189.50,99.00 190.00,98.50 190.50,98.00 191.00,97.50 191.50,97.00 192.00,96.50 192.50,96.00 193.00,95.50 193.50,95.00 194.00,94.50 194.50,94.00 195.00,93.50 195.50,93.00 196.00,92.50 197.00,92.50 197.50,92.00 198.00,91.50 198.50,91.00 199.00,90.50 200.00,90.50 200.50,90.00 201.00,89.50 202.00,89.50 203.00,89.50 203.50,89.00 204.00,88.50 205.00,88.50 206.00,88.50 207.00,88.50 208.00,88.50 209.00,88.50 210.00,88.50 211.00,88.50 212.00,88.50 213.00,88.50 214.00,88.50 215.00,88.50 216.00,88.50 216.50,89.00 217.00,89.50 218.00,89.50 218.50,90.00 219.00,90.50 220.00,90.50 220.50,91.00 221.00,91.50 221.50,92.00 222.00,92.50 222.50,93.00 223.00,93.50 223.50,94.00 223.50,95.00 224.00,95.50 224.50,96.00 224.50,97.00 224.50,98.00 225.00,98.50 225.50,99.00 225.50,100.00 226.00,100.50 227.00,100.50 228.00,100.50 229.00,100.50 230.00,100.50 231.00,100.50 232.00,100.50 233.00,100.50 234.00,100.50 235.00,100.50 236.00,100.50 237.00,100.50 238.00,100.50 239.00,100.50 240.00,100.50 241.00,100.50 242.00,100.50 243.00,100.50 244.00,100.50 245.00,100.50 245.50,101.00 246.00,101.50 247.00,101.50 247.50,102.00 248.00,102.50 249.00,102.50 249.50,103.00 250.00,103.50 250.50,104.00 251.00,104.50 251.50,105.00 252.00,105.50 252.50,106.00 252.50,107.00 253.00,107.50 253.50,108.00 253.50,109.00 253.50,110.00 253.50,111.00 253.50,112.00 253.50,113.00 253.50,114.00 253.50,115.00 253.50,116.00 253.50,117.00 253.50,118.00 253.50,119.00 253.50,120.00 253.50,121.00 253.50,122.00 253.50,123.00 253.50,124.00 253.50,125.00 253.50,126.00 253.50,127.00 253.50,128.00 253.50,129.00 253.50,130.00 253.50,131.00 253.50,132.00 253.50,133.00 253.50,134.00 253.50,135.00 253.50,136.00 253.50,137.00 253.50,138.00 253.50,139.00 253.50,140.00 253.50,141.00 253.50,142.00 253.50,143.00 253.50,144.00 253.50,145.00 253.50,146.00 253.50,147.00 253.50,148.00 253.50,149.00 253.50,150.00 253.50,151.00 253.50,152.00 253.50,153.00 253.50,154.00 253.50,155.00 253.50,156.00 253.50,157.00 253.50,158.00 253.50,159.00 253.50,160.00 253.50,161.00 253.50,162.00 253.50,163.00 253.50,164.00 253.50,165.00 253.50,166.00 253.50,167.00 253.50,168.00 253.50,169.00 253.50,170.00 253.50,171.00 253.50,172.00 253.50,173.00 253.50,174.00 253.50,175.00 253.50,176.00 253.50,177.00 253.50,178.00 253.50,179.00 253.50,180.00 253.50,181.00 253.50,182.00 253.50,183.00 253.50,184.00 253.50,185.00 253.50,186.00 253.50,187.00 253.50,188.00 253.50,189.00 253.50,190.00 253.50,191.00 253.50,192.00 253.50,193.00 253.50,194.00 253.50,195.00 253.50,196.00 253.50,197.00 253.50,198.00 253.50,199.00 253.50,200.00 253.50,201.00 253.50,202.00 253.50,203.00 253.50,204.00 253.50,205.00 253.50,206.00 253.50,207.00 253.50,208.00 253.50,209.00 253.50,210.00 253.50,211.00 253.50,212.00 253.50,213.00 253.50,214.00 253.50,215.00 253.50,216.00 253.50,217.00 253.50,218.00 253.50,219.00 253.50,220.00 253.50,221.00 253.50,222.00 253.50,223.00 253.50,224.00 253.00,224.50 252.50,225.00 252.50,226.00 252.00,226.50 251.50,227.00 251.00,227.50 250.50,228.00 250.00,228.50 249.50,229.00 249.00,229.50 248.50,230.00 248.00,230.50 247.00,230.50 246.50,231.00 246.00,231.50 245.00,231.50 244.00,231.50 243.00,231.50 242.00,231.50 241.00,231.50 240.00,231.50 239.00,231.50 238.00,231.50 237.00,231.50 236.00,231.50 235.00,231.50 234.00,231.50 233.00,231.50 232.00,231.50 231.00,231.50 230.00,231.50 229.00,231.50 228.00,231.50 227.00,231.50 226.00,231.50 225.50,232.00 225.50,233.00 225.50,234.00 225.00,234.50 224.50,235.00 224.50,236.00 224.00,236.50 223.50,237.00 223.50,238.00 223.00,238.50 222.50,239.00 222.00,239.50 221.50,240.00 221.00,240.50 220.50,241.00 220.00,241.50 219.50,242.00 219.00,242.50 218.00,242.50 217.50,243.00 217.00,243.50 216.00,243.50 215.00,243.50 214.00,243.50 213.50,244.00 213.00,244.50" />
</svg>