<svg xmlns="http://www.w3.org/2000/svg" width="500" height="500" viewBox="0 0 500 500">
<polyline fill="none" stroke="#222" stroke-width="1" points="223.00,366.50 222.00,366.50 221.00,366.50 220.00,366.50 219.00,366.50 218.00,366.50 217.00,366.50 216.00,366.50 215.00,366.50 214.00,366.50 213.00,366.50 212.00,366.50 211.00,366.50 210.00,366.50 209.00,366.50 208.00,366.50 207.00,366.50 206.00,366.50 205.00,366.50 204.00,366.50 203.00,366.50 202.00,366.50 201.00,366.50 200.00,366.50 199.00,366.50 198.00,366.50 197.00,366.50 196.00,366.50 195.00,366.50 194.00,366.50 193.00,366.50 192.00,366.50 191.00,366.50 190.00,366.50 189.00,366.50 188.00,366.50 187.00,366.50 186.00,366.50 185.00,366.50 184.00,366.50 183.00,366.50 182.00,366.50 181.00,366.50 180.00,366.50 179.00,366.50 178.00,366.50 177.00,366.50 176.00,366.50 175.00,366.50 174.00,366.50 173.00,366.50 172.00,366.50 171.00,366.50 170.00,366.50 169.00,366.50 168.00,366.50 167.00,366.50 166.00,366.50 165.00,366.50 164.00,366.50 163.00,366.50 162.00,366.50 161.00,366.50 160.00,366.50 159.00,366.50 158.00,366.50 157.00,366.50 156.00,366.50 155.00,366.50 154.00,366.50 153.00,366.50 152.00,366.50 151.00,366.50 150.00,366.50 149.00,366.50 148.00,366.50 147.00,366.50 146.00,366.50 145.00,366.50 144.00,366.50 143.00,366.50 142.00,366.50 141.00,366.50 140.00,366.50 139.00,366.50 138.00,366.50 137.00,366.50 136.00,366.50 135.00,366.50 134.00,366.50 133.00,366.50 132.00,366.50 131.00,366.50 130.00,366.50 129.00,366.50 128.00,366.50 127.00,366.50 126.00,366.50 125.00,366.50 124.00,366.50 123.00,366.50 122.00,366.50 121.00,366.50 120.00,366.50 119.00,366.50 118.00,366.50 117.00,366.50 116.00,366.50 115.00,366.50 114.00,366.50 113.00,366.50 112.00,366.50 111.00,366.50 110.00,366.50 109.00,366.50 108.00,366.50 107.00,366.50 106.00,366.50 105.00,366.50 104.00,366.50 103.00,366.50 102.00,366.50 101.50,366.00 101.50,365.00 101.50,364.00 101.50,363.00 101.50,362.00 101.50,361.00 101.50,360.00 101.50,359.00 101.50,358.00 101.50,357.00 101.50,356.00 101.50,355.00 101.50,354.00 101.50,353.00 101.50,352.00 101.50,351.00 101.50,350.00 101.50,349.00 101.50,348.00 101.50,347.00 101.50,346.00 101.50,345.00 101.50,344.00 101.50,343.00 101.50,342.00 101.50,341.00 101.50,340.00 101.50,339.00 102.00,338.50 102.50,338.00 103.00,337.50 104.00,337.50 105.00,337.50 106.00,337.50 106.50,337.00 107.00,336.50 108.00,336.50 109.00,336.50 110.00,336.50 110.50,336.00 111.00,335.50 112.00,335.50 113.00,335.50 114.00,335.50 114.50,335.00 115.00,334.50 116.00,334.50 117.00,334.50 118.00,334.50 118.50,334.00 119.00,333.50 120.00,333.50 121.00,333.50 121.50,333.00 122.00,332.50 123.00,332.50 124.00,332.50 125.00,332.50 125.50,332.00 125.50,331.00 125.50,330.00 125.50,329.00 125.50,328.00 125.50,327.00 125.50,326.00 125.50,325.00 125.50,324.00 125.50,323.00 125.50,322.00 125.50,321.00 125.50,320.00 125.50,319.00 125.50,318.00 125.50,317.00 125.50,316.00 125.50,315.00 125.50,314.00 125.50,313.00 125.50,312.00 125.50,311.00 125.50,310.00 125.50,309.00 125.50,308.00 125.50,307.00 125.50,306.00 125.50,305.00 125.50,304.00 125.50,303.00 125.50,302.00 125.50,301.00 125.50,300.00 125.50,299.00 125.50,298.00 125.50,297.00 125.50,296.00 125.50,295.00 125.50,294.00 125.50,293.00 125.50,292.00 125.50,291.00 125.50,290.00 125.50,289.00 125.50,288.00 125.50,287.00 125.50,286.00 125.50,285.00 125.50,284.00 125.50,283.00 125.50,282.00 125.50,281.00 125.50,280.00 125.50,279.00 125.50,278.00 125.50,277.00 125.50,276.00 125.50,275.00 125.50,274.00 125.50,273.00 125.50,272.00 125.50,271.00 125.50,270.00 125.50,269.00 125.50,268.00 125.50,267.00 125.50,266.00 125.50,265.00 125.50,264.00 125.50,263.00 125.50,262.00 125.50,261.00 125.50,260.00 125.50,259.00 125.50,258.00 125.50,257.00 125.50,256.00 125.50,255.00 125.50,254.00 125.50,253.00 125.50,252.00 125.50,251.00 125.50,250.00 125.50,249.00 125.50,248.00 125.50,247.00 125.50,246.00 125.50,245.00 125.50,244.00 125.50,243.00 125.50,242.00 125.50,241.00 125.50,240.00 125.50,239.00 125.50,238.00 125.50,237.00 125.50,236.00 125.50,235.00 125.50,234.00 125.50,233.00 125.50,232.00 125.50,231.00 125.50,230.00 125.50,229.00 125.50,228.00 125.50,227.00 125.50,226.00 125.50,225.00 125.50,224.00 125.50,223.00 125.50,222.00 125.50,221.00 125.50,220.00 125.50,219.00 125.50,218.00 125.50,217.00 125.50,216.00 125.50,215.00 125.50,214.00 125.50,213.00 125.50,212.00 125.50,211.00 125.50,210.00 125.50,209.00 125.50,208.00 125.50,207.00 125.50,206.00 125.50,205.00 125.50,204.00 125.50,203.00 125.50,202.00 125.50,201.00 125.50,200.00 125.50,199.00 125.50,198.00 125.50,197.00 125.50,196.00 125.50,195.00 125.50,194.00 125.50,193.00 125.50,192.00 125.50,191.00 125.50,190.00 125.50,189.00 125.50,188.00 125.50,187.00 125.50,186.00 125.50,185.00 125.50,184.00 125.50,183.00 125.50,182.00 125.50,181.00 125.50,180.00 125.50,179.00 125.50,178.00 125.50,177.00 125.50,176.00 125.50,175.00 125.50,174.00 125.50,173.00 125.50,172.00 125.50,171.00 125.50,170.00 125.50,169.00 125.50,168.00 125.50,167.00 125.50,166.00 125.50,165.00 125.50,164.00 125.50,163.00 125.50,162.00 125.50,161.00 125.50,160.00 125.50,159.00 125.50,158.00 125.50,157.00 125.50,156.00 125.50,155.00 125.50,154.00 125.50,153.00 125.50,152.00 125.50,151.00 125.00,150.50 124.00,150.50 123.50,150.00 123.00,149.50 122.00,149.50 121.00,149.50 120.00,149.50 119.50,149.00 119.00,148.50 118.00,148.50 117.00,148.50 116.00,148.50 115.50,148.00 115.00,147.50 114.00,147.50 113.00,147.50 112.00,147.50 111.50,147.00 111.00,146.50 110.00,146.50 109.00,146.50 108.00,146.50 107.00,146.50 106.50,146.00 106.00,145.50 105.00,145.50 104.00,145.50 103.00,145.50 102.50,145.00 102.00,144.50 101.50,144.00 101.50,143.00 101.50,142.00 101.50,141.00 101.50,140.00 101.50,139.00 101.50,138.00 101.50,137.00 101.50,136.00 101.50,135.00 101.50,134.00 101.50,133.00 101.50,132.00 101.50,131.00 101.50,130.00 101.50,129.00 101.50,128.00 101.50,127.00 101.50,126.00 101.50,125.00 101.50,124.00 101.50,123.00 101.50,122.00 101.50,121.00 101.50,120.00 101.50,119.00 101.50,118.00 101.50,117.00 102.00,116.50 103.00,116.50 104.00,116.50 105.00,116.50 106.00,116.50 107.00,116.50 108.00,116.50 109.00,116.50 110.00,116.50 111.00,116.50 112.00,116.50 113.00,116.50 114.00,116.50 115.00,116.50 116.00,116.50 117.00,116.50 118.00,116.50 119.00,116.50 120.00,116.50 121.00,116.50 122.00,116.50 123.00,116.50 124.00,116.50 125.00,116.50 126.00,116.50 127.00,116.50 128.00,116.50 129.00,116.50 130.00,116.50 131.00,116.50 132.00,116.50 133.00,116.50 134.00,116.50 135.00,116.50 136.00,116.50 137.00,116.50 138.00,116.50 139.00,116.50 140.00,116.50 141.00,116.50 142.00,116.50 143.00,116.50 144.00,116.50 145.00,116.50 146.00,116.50 147.00,116.50 148.00,116.50 149.00,116.50 150.00,116.50 151.00,116.50 152.00,116.50 153.00,116.50 154.00,116.50 155.00,116.50 156.00,116.50 157.00,116.50 158.00,116.50 159.00,116.50 160.00,116.50 161.00,116.50 162.00,116.50 163.00,116.50 164.00,116.50 165.00,116.50 166.00,116.50 167.00,116.50 168.00,116.50 169.00,116.50 170.00,116.50 171.00,116.50 172.00,116.50 173.00,116.50 174.00,116.50 175.00,116.50 176.00,116.50 177.00,116.50 178.00,116.50 179.00,116.50 180.00,116.50 181.00,116.50 182.00,116.50 183.00,116.50 184.00,116.50 185.00,116.50 186.00,116.50 187.00,116.50 188.00,116.50 189.00,116.50 190.00,116.50 191.00,116.50 192.00,116.50 193.00,116.50 194.00,116.50 195.00,116.50 196.00,116.50 197.00,116.50 198.00,116.50 199.00,116.50 200.00,116.50 201.00,116.50 202.00,116.50 203.00,116.50 204.00,116.50 205.00,116.50 206.00,116.50 207.00,116.50 208.00,116.50 209.00,116.50 210.00,116.50 211.00,116.50 212.00,116.50 213.00,116.50 214.00,116.50 215.00,116.50 216.00,116.50 217.00,116.50 218.00,116.50 219.00,116.50 220.00,116.50 221.00,116.50 222.00,116.50 223.00,116.50 224.00,116.50 225.00,116.50 226.00,116.50 227.00,116.50 228.00,116.50 229.00,116.50 230.00,116.50 231.00,116.50 232.00,116.50 233.00,116.50 233.50,117.00 234.00,117.50 235.00,117.50 236.00,117.50 237.00,117.50 238.00,117.50 239.00,117.50 240.00,117.50 241.00,117.50 242.00,117.50 243.00,117.50 243.50,118.00 244.00,118.50 245.00,118.50 246.00,118.50 247.00,118.50 248.00,118.50 249.00,118.50 249.50,119.00 250.00,119.50 251.00,119.50 252.00,119.50 253.00,119.50 254.00,119.50 254.50,120.00 255.00,120.50 256.00,120.50 257.00,120.50 258.00,120.50 259.00,120.50 259.50,121.00 260.00,121.50 261.00,121.50 262.00,121.50 262.50,122.00 263.00,122.50 264.00,122.50 265.00,122.50 265.50,123.00 266.00,123.50 267.00,123.50 268.00,123.50 268.50,124.00 269.00,124.50 270.00,124.50 271.00,124.50 271.50,125.00 272.00,125.50 273.00,125.50 273.50,126.00 274.00,126.50 275.00,126.50 275.50,127.00 276.00,127.50 277.00,127.50 277.50,128.00 278.00,128.50 279.00,128.50 279.50,129.00 280.00,129.50 281.00,129.50 281.50,130.00 282.00,130.50 283.00,130.50 283.50,131.00 284.00,131.50 284.50,132.00 285.00,132.50 286.00,132.50 286.50,133.00 287.00,133.50 287.50,134.00 288.00,134.50 288.50,135.00 289.00,135.50 290.00,135.50 290.50,136.00 291.00,136.50 291.50,137.00 292.00,137.50 292.50,138.00 293.00,138.50 293.50,139.00 294.00,139.50 294.50,140.00 295.00,140.50 295.50,141.00 296.00,141.50 296.50,142.00 297.00,142.50 297.50,143.00 298.00,143.50 298.50,144.00 299.00,144.50 299.50,145.00 299.50,146.00 300.00,146.50 300.50,147.00 301.00,147.50 301.50,148.00 301.50,149.00 302.00,149.50 302.50,150.00 303.00,150.50 303.50,151.00 303.50,152.00 304.00,152.50 304.50,153.00 304.50,154.00 305.00,154.50 305.50,155.00 305.50,156.00 306.00,156.50 306.50,157.00 306.50,158.00 307.00,158.50 307.50,159.00 307.50,160.00 308.00,160.50 308.50,161.00 308.50,162.00 308.50,163.00 309.00,163.50 309.50,164.00 309.50,165.00 309.50,166.00 310.00,166.50 310.50,167.00 310.50,168.00 310.50,169.00 310.50,170.00 311.00,170.50 311.50,171.00 311.50,172.00 311.50,173.00 311.50,174.00 311.50,175.00 312.00,175.50 312.50,176.00 312.50,177.00 312.50,178.00 312.50,179.00 312.50,180.00 312.50,181.00 312.50,182.00 313.00,182.50 313.50,183.00 313.50,184.00 313.50,185.00 313.50,186.00 313.50,187.00 313.50,188.00 313.50,189.00 313.50,190.00 313.50,191.00 313.50,192.00 313.50,193.00 313.50,194.00 313.50,195.00 313.50,196.00 313.50,197.00 313.50,198.00 313.50,199.00 313.50,200.00 313.50,201.00 313.50,202.00 313.50,203.00 313.50,204.00 313.00,204.50 312.50,205.00 312.50,206.00 312.50,207.00 312.50,208.00 312.50,209.00 312.50,210.00 312.50,211.00 312.50,212.00 312.00,212.50 311.50,213.00 311.50,214.00 311.50,215.00 311.50,216.00 311.50,217.00 311.00,217.50 310.50,218.00 310.50,219.00 310.50,220.00 310.50,221.00 310.00,221.50 309.50,222.00 309.50,223.00 309.50,224.00 309.50,225.00 309.00,225.50 308.50,226.00 308.50,227.00 308.50,228.00 308.00,228.50 307.50,229.00 307.50,230.00 307.00,230.50 306.50,231.00 306.50,232.00 306.00,232.50 305.50,233.00 305.50,234.00 305.00,234.50 304.50,235.00 304.50,236.00 304.00,236.50 303.50,237.00 303.50,238.00 303.00,238.50 302.50,239.00 302.50,240.00 302.00,240.50 301.50,241.00 301.00,241.50 300.50,242.00 300.50,243.00 300.00,243.50 299.50,244.00 299.00,244.50 298.50,245.00 298.50,246.00 298.00,246.50 297.50,247.00 297.00,247.50 296.50,248.00 296.00,248.50 295.50,249.00 295.00,249.50 294.50,250.00 294.00,250.50 293.50,251.00 293.00,251.50 292.50,252.00 292.00,252.50 291.50,253.00 291.00,253.50 290.50,254.00 290.00,254.50 289.50,255.00 289.00,255.50 288.50,256.00 288.00,256.50 287.00,256.50 286.50,257.00 286.00,257.50 285.50,258.00 285.00,258.50 284.00,258.50 283.50,259.00 283.00,259.50 282.50,260.00 282.00,260.50 281.00,260.50 280.50,261.00 280.00,261.50 279.50,262.00 279.00,262.50 278.00,262.50 277.50,263.00 277.00,263.50 276.00,263.50 275.50,264.00 275.00,264.50 274.00,264.50 273.00,264.50 272.50,265.00 272.00,265.50 271.00,265.50 270.50,266.00 270.00,266.50 269.00,266.50 268.00,266.50 267.50,267.00 267.00,267.50 266.00,267.50 265.00,267.50 264.50,268.00 264.00,268.50 263.00,268.50 262.00,268.50 261.50,269.00 261.00,269.50 260.00,269.50 259.00,269.50 258.00,269.50 257.00,269.50 256.50,270.00 256.00,270.50 255.00,270.50 254.00,270.50 253.00,270.50 252.00,270.50 251.50,271.00 251.00,271.50 250.00,271.50 249.00,271.50 248.00,271.50 247.00,271.50 246.00,271.50 245.00,271.50 244.00,271.50 243.50,272.00 243.00,272.50 242.00,272.50 241.00,272.50 240.00,272.50 239.00,272.50 238.00,272.50 237.00,272.50 236.00,272.50 235.00,272.50 234.00,272.50 233.00,272.50 232.00,272.50 231.00,272.50 230.00,272.50 229.00,272.50 228.00,272.50 227.00,272.50 226.00,272.50 225.00,272.50 224.00,272.50 223.00,272.50 222.00,272.50 221.00,272.50 220.00,272.50 219.00,272.50 218.00,272.50 217.00,272.50 216.50,272.00 216.00,271.50 215.00,271.50 214.00,271.50 213.00,271.50 212.00,271.50 211.00,271.50 210.00,271.50 209.00,271.50 208.00,271.50 207.50,271.00 207.00,270.50 206.00,270.50 205.00,270.50 204.00,270.50 203.00,270.50 202.00,270.50 201.50,270.00 201.00,269.50 200.00,269.50 199.00,269.50 198.00,269.50 197.50,269.00 197.00,268.50 196.00,268.50 195.50,269.00 195.50,270.00 195.50,271.00 195.50,272.00 195.50,273.00 195.50,274.00 195.50,275.00 195.50,276.00 195.50,277.00 195.50,278.00 195.50,279.00 195.50,280.00 195.50,281.00 195.50,282.00 195.50,283.00 195.50,284.00 195.50,285.00 195.50,286.00 195.50,287.00 195.50,288.00 195.50,289.00 195.50,290.00 195.50,291.00 195.50,292.00 195.50,293.00 195.50,294.00 195.50,295.00 195.50,296.00 195.50,297.00 195.50,298.00 195.50,299.00 195.50,300.00 195.50,301.00 195.50,302.00 195.50,303.00 195.50,304.00 195.50,305.00 195.50,306.00 195.50,307.00 195.50,308.00 195.50,309.00 195.50,310.00 195.50,311.00 195.50,312.00 195.50,313.00 195.50,314.00 195.50,315.00 195.50,316.00 195.50,317.00 195.50,318.00 195.50,319.00 195.50,320.00 195.50,321.00 195.50,322.00 195.50,323.00 195.50,324.00 195.50,325.00 195.50,326.00 195.50,327.00 195.50,328.00 195.50,329.00 195.50,330.00 195.50,331.00 195.50,332.00 196.00,332.50 197.00,332.50 198.00,332.50 198.50,333.00 199.00,333.50 200.00,333.50 201.00,333.50 202.00,333.50 202.50,334.00 203.00,334.50 204.00,334.50 205.00,334.50 206.00,334.50 207.00,334.50 207.50,335.00 208.00,335.50 209.00,335.50 210.00,335.50 211.00,335.50 212.00,335.50 212.50,336.00 213.00,336.50 214.00,336.50 215.00,336.50 216.00,336.50 217.00,336.50 217.50,337.00 218.00,337.50 219.00,337.50 220.00,337.50 221.00,337.50 222.00,337.50 222.50,338.00 223.00,338.50 223.50,339.00 223.50,340.00 223.50,341.00 223.50,342.00 223.50,343.00 223.50,344.00 223.50,345.00 223.50,346.00 223.50,347.00 223.50,348.00 223.50,349.00 223.50,350.00 223.50,351.00 223.50,352.00 223.50,353.00 223.50,354.00 223.50,355.00 223.50,356.00 223.50,357.00 223.50,358.00 223.50,359.00 223.50,360.00 223.50,361.00 223.50,362.00 223.50,363.00 223.50,364.00 223.50,365.00 223.50,366.00 223.00,366.50" />
<polyline fill="none" stroke="#00aa00" stroke-width="1" stroke-dasharray="3,2" points="116.00,130.50 115.50,130.00 116.00,129.50 116.50,130.00 116.00,130.50" />
<polyline fill="none" stroke="#00aa00" stroke-width="1" stroke-dasharray="3,2" points="126.00,131.50 125.00,131.50 124.00,131.50 123.00,131.50 122.00,131.50 121.00,131.50 120.00,131.50 119.00,131.50 118.00,131.50 117.00,131.50 116.50,131.00 117.00,130.50 118.00,130.50 119.00,130.50 120.00,130.50 121.00,130.50 122.00,130.50 123.00,130.50 124.00,130.50 125.00,130.50 126.00,130.50 126.50,131.00 126.00,131.50" />
<polyline fill="none" stroke="#00aa00" stroke-width="1" stroke-dasharray="3,2" points="135.00,132.50 134.00,132.50 133.00,132.50 132.00,132.50 131.00,132.50 130.00,132.50 129.00,132.50 128.00,132.50 127.00,132.50 126.50,132.00 127.00,131.50 128.00,131.50 129.00,131.50 130.00,131.50 131.00,131.50 132.00,131.50 133.00,131.50 134.00,131.50 135.00,131.50 135.50,132.00 135.00,132.50" />
<polyline fill="none" stroke="#00aa00" stroke-width="1" stroke-dasharray="3,2" points="142.00,133.50 141.00,133.50 140.00,133.50 139.00,133.50 138.00,133.50 137.00,133.50 136.00,133.50 135.50,133.00 136.00,132.50 137.00,132.50 138.00,132.50 139.00,132.50 140.00,132.50 141.00,132.50 142.00,132.50 142.50,133.00 142.00,133.50" />
<polyline fill="none" stroke="#00aa00" stroke-width="1" stroke-dasharray="3,2" points="143.00,134.50 142.50,134.00 143.00,133.50 143.50,134.00 143.00,134.50" />
<polyline fill="none" stroke="#00aa00" stroke-width="1" stroke-dasharray="3,2" points="215.00,134.50 214.00,134.50 213.00,134.50 212.00,134.50 211.00,134.50 210.00,134.50 209.00,134.50 208.00,134.50 207.00,134.50 206.00,134.50 205.00,134.50 204.00,134.50 203.00,134.50 202.00,134.50 201.00,134.50 200.00,134.50 199.00,134.50 198.00,134.50 197.00,134.50 196.00,134.50 195.00,134.50 194.00,134.50 193.00,134.50 192.00,134.50 191.00,134.50 190.00,134.50 189.00,134.50 188.00,134.50 187.00,134.50 186.00,134.50 185.00,134.50 184.00,134.50 183.00,134.50 182.00,134.50 181.00,134.50 180.00,134.50 179.00,134.50 178.00,134.50 177.50,134.00 178.00,133.50 179.00,133.50 180.00,133.50 181.00,133.50 182.00,133.50 183.00,133.50 184.00,133.50 185.00,133.50 186.00,133.50 187.00,133.50 188.00,133.50 189.00,133.50 190.00,133.50 191.00,133.50 192.00,133.50 193.00,133.50 194.00,133.50 195.00,133.50 196.00,133.50 197.00,133.50 198.00,133.50 199.00,133.50 200.00,133.50 201.00,133.50 202.00,133.50 203.00,133.50 204.00,133.50 205.00,133.50 206.00,133.50 207.00,133.50 208.00,133.50 209.00,133.50 210.00,133.50 211.00,133.50 212.00,133.50 213.00,133.50 214.00,133.50 215.00,133.50 215.50,134.00 215.00,134.50" />
<polyline fill="none" stroke="#00aa00" stroke-width="1" stroke-dasharray="3,2" points="144.00,135.50 143.50,135.00 144.00,134.50 144.50,135.00 144.00,135.50" />
<polyline fill="none" stroke="#00aa00" stroke-width="1" stroke-dasharray="3,2" points="177.00,135.50 176.50,135.00 177.00,134.50 177.50,135.00 177.00,135.50" />
<polyline fill="none" stroke="#00aa00" stroke-width="1" stroke-dasharray="3,2" points="231.00,135.50 230.00,135.50 229.00,135.50 228.00,135.50 227.00,135.50 226.00,135.50 225.00,135.50 224.00,135.50 223.00,135.50 222.00,135.50 221.00,135.50 220.00,135.50 219.00,135.50 218.00,135.50 217.00,135.50 216.00,135.50 215.50,135.00 216.00,134.50 217.00,134.50 218.00,134.50 219.00,134.50 220.00,134.50 221.00,134.50 222.00,134.50 223.00,134.50 224.00,134.50 225.00,134.50 226.00,134.50 227.00,134.50 228.00,134.50 229.00,134.50 230.00,134.50 231.00,134.50 231.50,135.00 231.00,135.50" />
<polyline fill="none" stroke="#00aa00" stroke-width="1" stroke-dasharray="3,2" points="145.00,136.50 144.50,136.00 145.00,135.50 145.50,136.00 145.00,136.50" />
<polyline fill="none" stroke="#00aa00" stroke-width="1" stroke-dasharray="3,2" points="176.00,136.50 175.50,136.00 176.00,135.50 176.50,136.00 176.00,136.50" />
<polyline fill="none" stroke="#00aa00" stroke-width="1" stroke-dasharray="3,2" points="237.00,136.50 236.00,136.50 235.00,136.50 234.00,136.50 233.00,136.50 232.00,136.50 231.50,136.00 232.00,135.50 233.00,135.50 234.00,135.50 235.00,135.50 236.00,135.50 237.00,135.50 237.50,136.00 237.00,136.50" />
<polyline fill="none" stroke="#00aa00" stroke-width="1" stroke-dasharray="3,2" points="146.00,137.50 145.50,137.00 146.00,136.50 146.50,137.00 146.00,137.50" />
<polyline fill="none" stroke="#00aa00" stroke-width="1" stroke-dasharray="3,2" points="175.00,137.50 174.50,137.00 175.00,136.50 175.50,137.00 175.00,137.50" />
<polyline fill="none" stroke="#00aa00" stroke-width="1" stroke-dasharray="3,2" points="242.00,137.50 241.00,137.50 240.00,137.50 239.00,137.50 238.00,137.50 237.50,137.00 238.00,136.50 239.00,136.50 240.00,136.50 241.00,136.50 242.00,136.50 242.50,137.00 242.00,137.50" />
<polyline fill="none" stroke="#00aa00" stroke-width="1" stroke-dasharray="3,2" points="147.00,138.50 146.50,138.00 147.00,137.50 147.50,138.00 147.00,138.50" />
<polyline fill="none" stroke="#00aa00" stroke-width="1" stroke-dasharray="3,2" points="174.00,138.50 173.50,138.00 174.00,137.50 174.50,138.00 174.00,138.50" />
<polyline fill="none" stroke="#00aa00" stroke-width="1" stroke-dasharray="3,2" points="244.00,138.50 243.00,138.50 242.50,138.00 243.00,137.50 244.00,137.50 244.50,138.00 244.00,138.50" />
<polyline fill="none" stroke="#00aa00" stroke-width="1" stroke-dasharray="3,2" points="148.00,139.50 147.50,139.00 148.00,138.50 148.50,139.00 148.00,139.50" />
<polyline fill="none" stroke="#00aa00" stroke-width="1" stroke-dasharray="3,2" points="173.00,139.50 172.50,139.00 173.00,138.50 173.50,139.00 173.00,139.50" />
<polyline fill="none" stroke="#00aa00" stroke-width="1" stroke-dasharray="3,2" points="247.00,139.50 246.00,139.50 245.00,139.50 244.50,139.00 245.00,138.50 246.00,138.50 247.00,138.50 247.50,139.00 247.00,139.50" />
<polyline fill="none" stroke="#00aa00" stroke-width="1" stroke-dasharray="3,2" points="149.00,140.50 148.50,140.00 149.00,139.50 149.50,140.00 149.00,140.50" />
<polyline fill="none" stroke="#00aa00" stroke-width="1" stroke-dasharray="3,2" points="172.00,140.50 171.50,140.00 172.00,139.50 172.50,140.00 172.00,140.50" />
<polyline fill="none" stroke="#00aa00" stroke-width="1" stroke-dasharray="3,2" points="248.00,140.50 247.50,140.00 248.00,139.50 248.50,140.00 248.00,140.50" />
<polyline fill="none" stroke="#00aa00" stroke-width="1" stroke-dasharray="3,2" points="150.00,141.50 149.50,141.00 150.00,140.50 150.50,141.00 150.00,141.50" />
<polyline fill="none" stroke="#00aa00" stroke-width="1" stroke-dasharray="3,2" points="171.00,141.50 170.50,141.00 171.00,140.50 171.50,141.00 171.00,141.50" />
<polyline fill="none" stroke="#00aa00" stroke-width="1" stroke-dasharray="3,2" points="250.00,141.50 249.00,141.50 248.50,141.00 249.00,140.50 250.00,140.50 250.50,141.00 250.00,141.50" />
<polyline fill="none" stroke="#00aa00" stroke-width="1" stroke-dasharray="3,2" points="151.00,142.50 150.50,142.00 151.00,141.50 151.50,142.00 151.00,142.50" />
<polyline fill="none" stroke="#00aa00" stroke-width="1" stroke-dasharray="3,2" points="170.00,142.50 169.50,142.00 170.00,141.50 170.50,142.00 170.00,142.50" />
<polyline fill="none" stroke="#00aa00" stroke-width="1" stroke-dasharray="3,2" points="252.00,142.50 251.00,142.50 250.50,142.00 251.00,141.50 252.00,141.50 252.50,142.00 252.00,142.50" />
<polyline fill="none" stroke="#00aa00" stroke-width="1" stroke-dasharray="3,2" points="152.00,143.50 151.50,143.00 152.00,142.50 152.50,143.00 152.00,143.50" />
<polyline fill="none" stroke="#00aa00" stroke-width="1" stroke-dasharray="3,2" points="169.00,143.50 168.50,143.00 169.00,142.50 169.50,143.00 169.00,143.50" />
<polyline fill="none" stroke="#00aa00" stroke-width="1" stroke-dasharray="3,2" points="253.00,143.50 252.50,143.00 253.00,142.50 253.50,143.00 253.00,143.50" />
<polyline fill="none" stroke="#00aa00" stroke-width="1" stroke-dasharray="3,2" points="153.00,144.50 152.50,144.00 153.00,143.50 153.50,144.00 153.00,144.50" />
<polyline fill="none" stroke="#00aa00" stroke-width="1" stroke-dasharray="3,2" points="168.00,144.50 167.50,144.00 168.00,143.50 168.50,144.00 168.00,144.50" />
<polyline fill="none" stroke="#00aa00" stroke-width="1" stroke-dasharray="3,2" points="254.00,144.50 253.50,144.00 254.00,143.50 254.50,144.00 254.00,144.50" />
<polyline fill="none" stroke="#00aa00" stroke-width="1" stroke-dasharray="3,2" points="154.00,145.50 153.50,145.00 154.00,144.50 154.50,145.00 154.00,145.50" />
<polyline fill="none" stroke="#00aa00" stroke-width="1" stroke-dasharray="3,2" points="167.00,145.50 166.50,145.00 167.00,144.50 167.50,145.00 167.00,145.50" />
<polyline fill="none" stroke="#00aa00" stroke-width="1" stroke-dasharray="3,2" points="256.00,145.50 255.00,145.50 254.50,145.00 255.00,144.50 256.00,144.50 256.50,145.00 256.00,145.50" />
<polyline fill="none" stroke="#00aa00" stroke-width="1" stroke-dasharray="3,2" points="155.00,146.50 154.50,146.00 155.00,145.50 155.50,146.00 155.00,146.50" />
<polyline fill="none" stroke="#00aa00" stroke-width="1" stroke-dasharray="3,2" points="166.00,146.50 165.50,146.00 166.00,145.50 166.50,146.00 166.00,146.50" />
<polyline fill="none" stroke="#00aa00" stroke-width="1" stroke-dasharray="3,2" points="257.00,146.50 256.50,146.00 257.00,145.50 257.50,146.00 257.00,146.50" />
<polyline fill="none" stroke="#00aa00" stroke-width="1" stroke-dasharray="3,2" points="156.00,147.50 155.50,147.00 156.00,146.50 156.50,147.00 156.00,147.50" />
<polyline fill="none" stroke="#00aa00" stroke-width="1" stroke-dasharray="3,2" points="165.00,147.50 164.50,147.00 165.00,146.50 165.50,147.00 165.00,147.50" />
<polyline fill="none" stroke="#00aa00" stroke-width="1" stroke-dasharray="3,2" points="258.00,147.50 257.50,147.00 258.00,146.50 258.50,147.00 258.00,147.50" />
<polyline fill="none" stroke="#00aa00" stroke-width="1" stroke-dasharray="3,2" points="157.00,148.50 156.50,148.00 157.00,147.50 157.50,148.00 157.00,148.50" />
<polyline fill="none" stroke="#00aa00" stroke-width="1" stroke-dasharray="3,2" points="164.00,148.50 163.50,148.00 164.00,147.50 164.50,148.00 164.00,148.50" />
<polyline fill="none" stroke="#00aa00" stroke-width="1" stroke-dasharray="3,2" points="259.00,148.50 258.50,148.00 259.00,147.50 259.50,148.00 259.00,148.50" />
<polyline fill="none" stroke="#00aa00" stroke-width="1" stroke-dasharray="3,2" points="158.00,149.50 157.50,149.00 158.00,148.50 158.50,149.00 158.00,149.50" />
<polyline fill="none" stroke="#00aa00" stroke-width="1" stroke-dasharray="3,2" points="163.00,149.50 162.50,149.00 163.00,148.50 163.50,149.00 163.00,149.50" />
<polyline fill="none" stroke="#00aa00" stroke-width="1" stroke-dasharray="3,2" points="260.00,149.50 259.50,149.00 260.00,148.50 260.50,149.00 260.00,149.50" />
<polyline fill="none" stroke="#00aa00" stroke-width="1" stroke-dasharray="3,2" points="159.00,150.50 158.50,150.00 159.00,149.50 159.50,150.00 159.00,150.50" />
<polyline fill="none" stroke="#00aa00" stroke-width="1" stroke-dasharray="3,2" points="162.00,150.50 161.50,150.00 162.00,149.50 162.50,150.00 162.00,150.50" />
<polyline fill="none" stroke="#00aa00" stroke-width="1" stroke-dasharray="3,2" points="261.00,150.50 260.50,150.00 261.00,149.50 261.50,150.00 261.00,150.50" />
<polyline fill="none" stroke="#00aa00" stroke-width="1" stroke-dasharray="3,2" points="161.00,332.50 160.00,332.50 159.00,332.50 158.50,332.00 159.00,331.50 159.50,331.00 159.50,330.00 159.50,329.00 159.50,328.00 159.50,327.00 159.50,326.00 159.50,325.00 159.50,324.00 159.50,323.00 159.50,322.00 159.50,321.00 159.50,320.00 159.50,319.00 159.50,318.00 159.50,317.00 159.50,316.00 159.50,315.00 159.50,314.00 159.50,313.00 159.50,312.00 159.50,311.00 159.50,310.00 159.50,309.00 159.50,308.00 159.50,307.00 159.50,306.00 159.50,305.00 159.50,304.00 159.50,303.00 159.50,302.00 159.50,301.00 159.50,300.00 159.50,299.00 159.50,298.00 159.50,297.00 159.50,296.00 159.50,295.00 159.50,294.00 159.50,293.00 159.50,292.00 159.50,291.00 159.50,290.00 159.50,289.00 159.50,288.00 159.50,287.00 159.50,286.00 159.50,285.00 159.50,284.00 159.50,283.00 159.50,282.00 159.50,281.00 159.50,280.00 159.50,279.00 159.50,278.00 159.50,277.00 159.50,276.00 159.50,275.00 159.50,274.00 159.50,273.00 159.50,272.00 159.50,271.00 159.50,270.00 159.50,269.00 159.50,268.00 159.50,267.00 159.50,266.00 159.50,265.00 159.50,264.00 159.50,263.00 159.50,262.00 159.50,261.00 159.50,260.00 159.50,259.00 159.50,258.00 159.50,257.00 159.50,256.00 159.50,255.00 159.50,254.00 159.50,253.00 159.50,252.00 159.50,251.00 159.50,250.00 159.50,249.00 159.50,248.00 159.50,247.00 159.50,246.00 159.50,245.00 159.50,244.00 159.50,243.00 159.50,242.00 159.50,241.00 159.50,240.00 159.50,239.00 159.50,238.00 159.50,237.00 159.50,236.00 159.50,235.00 159.50,234.00 159.50,233.00 159.50,232.00 159.50,231.00 159.50,230.00 159.50,229.00 159.50,228.00 159.50,227.00 159.50,226.00 159.50,225.00 159.50,224.00 159.50,223.00 159.50,222.00 159.50,221.00 159.50,220.00 159.50,219.00 159.50,218.00 159.50,217.00 159.50,216.00 159.50,215.00 159.50,214.00 159.50,213.00 159.50,212.00 159.50,211.00 159.50,210.00 159.50,209.00 159.50,208.00 159.50,207.00 159.50,206.00 159.50,205.00 159.50,204.00 159.50,203.00 159.50,202.00 159.50,201.00 159.50,200.00 159.50,199.00 159.50,198.00 159.50,197.00 159.50,196.00 159.50,195.00 159.50,194.00 159.50,193.00 159.50,192.00 159.50,191.00 159.50,190.00 159.50,189.00 159.50,188.00 159.50,187.00 159.50,186.00 159.50,185.00 159.50,184.00 159.50,183.00 159.50,182.00 159.50,181.00 159.50,180.00 159.50,179.00 159.50,178.00 159.50,177.00 159.50,176.00 159.50,175.00 159.50,174.00 159.50,173.00 159.50,172.00 159.50,171.00 159.50,170.00 159.50,169.00 159.50,168.00 159.50,167.00 159.50,166.00 159.50,165.00 159.50,164.00 159.50,163.00 159.50,162.00 159.50,161.00 159.50,160.00 159.50,159.00 159.50,158.00 159.50,157.00 159.50,156.00 159.50,155.00 159.50,154.00 159.50,153.00 159.50,152.00 159.50,151.00 160.00,150.50 161.00,150.50 161.50,151.00 161.00,151.50 160.50,152.00 160.50,153.00 160.50,154.00 160.50,155.00 160.50,156.00 160.50,157.00 160.50,158.00 160.50,159.00 160.50,160.00 160.50,161.00 160.50,162.00 160.50,163.00 160.50,164.00 160.50,165.00 160.50,166.00 160.50,167.00 160.50,168.00 160.50,169.00 160.50,170.00 160.50,171.00 160.50,172.00 160.50,173.00 160.50,174.00 160.50,175.00 160.50,176.00 160.50,177.00 160.50,178.00 160.50,179.00 160.50,180.00 160.50,181.00 160.50,182.00 160.50,183.00 160.50,184.00 160.50,185.00 160.50,186.00 160.50,187.00 160.50,188.00 160.50,189.00 160.50,190.00 160.50,191.00 160.50,192.00 160.50,193.00 160.50,194.00 160.50,195.00 160.50,196.00 160.50,197.00 160.50,198.00 160.50,199.00 160.50,200.00 160.50,201.00 160.50,202.00 160.50,203.00 160.50,204.00 160.50,205.00 160.50,206.00 160.50,207.00 160.50,208.00 160.50,209.00 160.50,210.00 160.50,211.00 160.50,212.00 160.50,213.00 160.50,214.00 160.50,215.00 160.50,216.00 160.50,217.00 160.50,218.00 160.50,219.00 160.50,220.00 160.50,221.00 160.50,222.00 160.50,223.00 160.50,224.00 160.50,225.00 160.50,226.00 160.50,227.00 160.50,228.00 160.50,229.00 160.50,230.00 160.50,231.00 160.50,232.00 160.50,233.00 160.50,234.00 160.50,235.00 160.50,236.00 160.50,237.00 160.50,238.00 160.50,239.00 160.50,240.00 160.50,241.00 160.50,242.00 160.50,243.00 160.50,244.00 160.50,245.00 160.50,246.00 160.50,247.00 160.50,248.00 160.50,249.00 160.50,250.00 160.50,251.00 160.50,252.00 161.00,252.50 162.00,252.50 163.00,252.50 164.00,252.50 165.00,252.50 166.00,252.50 167.00,252.50 168.00,252.50 169.00,252.50 170.00,252.50 171.00,252.50 172.00,252.50 173.00,252.50 174.00,252.50 175.00,252.50 176.00,252.50 177.00,252.50 178.00,252.50 179.00,252.50 180.00,252.50 181.00,252.50 182.00,252.50 183.00,252.50 184.00,252.50 185.00,252.50 186.00,252.50 187.00,252.50 188.00,252.50 189.00,252.50 190.00,252.50 191.00,252.50 192.00,252.50 193.00,252.50 194.00,252.50 195.00,252.50 196.00,252.50 197.00,252.50 198.00,252.50 199.00,252.50 200.00,252.50 201.00,252.50 202.00,252.50 203.00,252.50 204.00,252.50 205.00,252.50 206.00,252.50 207.00,252.50 208.00,252.50 209.00,252.50 210.00,252.50 211.00,252.50 212.00,252.50 212.50,253.00 212.00,253.50 211.00,253.50 210.00,253.50 209.00,253.50 208.00,253.50 207.00,253.50 206.00,253.50 205.00,253.50 204.00,253.50 203.00,253.50 202.00,253.50 201.00,253.50 200.00,253.50 199.00,253.50 198.00,253.50 197.00,253.50 196.00,253.50 195.00,253.50 194.00,253.50 193.00,253.50 192.00,253.50 191.00,253.50 190.00,253.50 189.00,253.50 188.00,253.50 187.00,253.50 186.00,253.50 185.00,253.50 184.00,253.50 183.00,253.50 182.00,253.50 181.00,253.50 180.00,253.50 179.00,253.50 178.00,253.50 177.00,253.50 176.00,253.50 175.00,253.50 174.00,253.50 173.00,253.50 172.00,253.50 171.00,253.50 170.00,253.50 169.00,253.50 168.00,253.50 167.00,253.50 166.00,253.50 165.00,253.50 164.00,253.50 163.00,253.50 162.00,253.50 161.00,253.50 160.50,254.00 160.50,255.00 160.50,256.00 160.50,257.00 160.50,258.00 160.50,259.00 160.50,260.00 160.50,261.00 160.50,262.00 160.50,263.00 160.50,264.00 160.50,265.00 160.50,266.00 160.50,267.00 160.50,268.00 160.50,269.00 160.50,270.00 160.50,271.00 160.50,272.00 160.50,273.00 160.50,274.00 160.50,275.00 160.50,276.00 160.50,277.00 160.50,278.00 160.50,279.00 160.50,280.00 160.50,281.00 160.50,282.00 160.50,283.00 160.50,284.00 160.50,285.00 160.50,286.00 160.50,287.00 160.50,288.00 160.50,289.00 160.50,290.00 160.50,291.00 160.50,292.00 160.50,293.00 160.50,294.00 160.50,295.00 160.50,296.00 160.50,297.00 160.50,298.00 160.50,299.00 160.50,300.00 160.50,301.00 160.50,302.00 160.50,303.00 160.50,304.00 160.50,305.00 160.50,306.00 160.50,307.00 160.50,308.00 160.50,309.00 160.50,310.00 160.50,311.00 160.50,312.00 160.50,313.00 160.50,314.00 160.50,315.00 160.50,316.00 160.50,317.00 160.50,318.00 160.50,319.00 160.50,320.00 160.50,321.00 160.50,322.00 160.50,323.00 160.50,324.00 160.50,325.00 160.50,326.00 160.50,327.00 160.50,328.00 160.50,329.00 160.50,330.00 160.50,331.00 161.00,331.50 161.50,332.00 161.00,332.50" />
<polyline fill="none" stroke="#00aa00" stroke-width="1" stroke-dasharray="3,2" points="262.00,152.50 261.50,152.00 261.50,151.00 262.00,150.50 262.50,151.00 262.50,152.00 262.00,152.50" />
<polyline fill="none" stroke="#00aa00" stroke-width="1" stroke-dasharray="3,2" points="263.00,153.50 262.50,153.00 263.00,152.50 263.50,153.00 263.00,153.50" />
<polyline fill="none" stroke="#00aa00" stroke-width="1" stroke-dasharray="3,2" points="264.00,155.50 263.50,155.00 263.50,154.00 264.00,153.50 264.50,154.00 264.50,155.00 264.00,155.50" />
<polyline fill="none" stroke="#00aa00" stroke-width="1" stroke-dasharray="3,2" points="265.00,157.50 264.50,157.00 264.50,156.00 265.00,155.50 265.50,156.00 265.50,157.00 265.00,157.50" />
<polyline fill="none" stroke="#00aa00" stroke-width="1" stroke-dasharray="3,2" points="266.00,158.50 265.50,158.00 266.00,157.50 266.50,158.00 266.00,158.50" />
<polyline fill="none" stroke="#00aa00" stroke-width="1" stroke-dasharray="3,2" points="267.00,161.50 266.50,161.00 266.50,160.00 266.50,159.00 267.00,158.50 267.50,159.00 267.50,160.00 267.50,161.00 267.00,161.50" />
<polyline fill="none" stroke="#00aa00" stroke-width="1" stroke-dasharray="3,2" points="268.00,164.50 267.50,164.00 267.50,163.00 267.50,162.00 268.00,161.50 268.50,162.00 268.50,163.00 268.50,164.00 268.00,164.50" />
<polyline fill="none" stroke="#00aa00" stroke-width="1" stroke-dasharray="3,2" points="269.00,166.50 268.50,166.00 268.50,165.00 269.00,164.50 269.50,165.00 269.50,166.00 269.00,166.50" />
<polyline fill="none" stroke="#00aa00" stroke-width="1" stroke-dasharray="3,2" points="270.00,168.50 269.50,168.00 269.50,167.00 270.00,166.50 270.50,167.00 270.50,168.00 270.00,168.50" />
<polyline fill="none" stroke="#00aa00" stroke-width="1" stroke-dasharray="3,2" points="271.00,171.50 270.50,171.00 270.50,170.00 270.50,169.00 271.00,168.50 271.50,169.00 271.50,170.00 271.50,171.00 271.00,171.50" />
<polyline fill="none" stroke="#00aa00" stroke-width="1" stroke-dasharray="3,2" points="272.00,175.50 271.50,175.00 271.50,174.00 271.50,173.00 271.50,172.00 272.00,171.50 272.50,172.00 272.50,173.00 272.50,174.00 272.50,175.00 272.00,175.50" />
<polyline fill="none" stroke="#00aa00" stroke-width="1" stroke-dasharray="3,2" points="273.00,179.50 272.50,179.00 272.50,178.00 272.50,177.00 272.50,176.00 273.00,175.50 273.50,176.00 273.50,177.00 273.50,178.00 273.50,179.00 273.00,179.50" />
<polyline fill="none" stroke="#00aa00" stroke-width="1" stroke-dasharray="3,2" points="274.00,184.50 273.50,184.00 273.50,183.00 273.50,182.00 273.50,181.00 273.50,180.00 274.00,179.50 274.50,180.00 274.50,181.00 274.50,182.00 274.50,183.00 274.50,184.00 274.00,184.50" />
<polyline fill="none" stroke="#00aa00" stroke-width="1" stroke-dasharray="3,2" points="275.00,189.50 274.50,189.00 274.50,188.00 274.50,187.00 274.50,186.00 274.50,185.00 275.00,184.50 275.50,185.00 275.50,186.00 275.50,187.00 275.50,188.00 275.50,189.00 275.00,189.50" />
<polyline fill="none" stroke="#00aa00" stroke-width="1" stroke-dasharray="3,2" points="276.00,199.50 275.50,199.00 275.50,198.00 275.50,197.00 275.50,196.00 275.50,195.00 275.50,194.00 275.50,193.00 275.50,192.00 275.50,191.00 275.50,190.00 276.00,189.50 276.50,190.00 276.50,191.00 276.50,192.00 276.50,193.00 276.50,194.00 276.50,195.00 276.50,196.00 276.50,197.00 276.50,198.00 276.50,199.00 276.00,199.50" />
<polyline fill="none" stroke="#00aa00" stroke-width="1" stroke-dasharray="3,2" points="275.00,204.50 274.50,204.00 274.50,203.00 274.50,202.00 274.50,201.00 274.50,200.00 275.00,199.50 275.50,200.00 275.50,201.00 275.50,202.00 275.50,203.00 275.50,204.00 275.00,204.50" />
<polyline fill="none" stroke="#00aa00" stroke-width="1" stroke-dasharray="3,2" points="274.00,209.50 273.50,209.00 273.50,208.00 273.50,207.00 273.50,206.00 273.50,205.00 274.00,204.50 274.50,205.00 274.50,206.00 274.50,207.00 274.50,208.00 274.50,209.00 274.00,209.50" />
<polyline fill="none" stroke="#00aa00" stroke-width="1" stroke-dasharray="3,2" points="273.00,213.50 272.50,213.00 272.50,212.00 272.50,211.00 272.50,210.00 273.00,209.50 273.50,210.00 273.50,211.00 273.50,212.00 273.50,213.00 273.00,213.50" />
<polyline fill="none" stroke="#00aa00" stroke-width="1" stroke-dasharray="3,2" points="272.00,217.50 271.50,217.00 271.50,216.00 271.50,215.00 271.50,214.00 272.00,213.50 272.50,214.00 272.50,215.00 272.50,216.00 272.50,217.00 272.00,217.50" />
<polyline fill="none" stroke="#00aa00" stroke-width="1" stroke-dasharray="3,2" points="271.00,221.50 270.50,221.00 270.50,220.00 270.50,219.00 270.50,218.00 271.00,217.50 271.50,218.00 271.50,219.00 271.50,220.00 271.50,221.00 271.00,221.50" />
<polyline fill="none" stroke="#00aa00" stroke-width="1" stroke-dasharray="3,2" points="270.00,223.50 269.50,223.00 269.50,222.00 270.00,221.50 270.50,222.00 270.50,223.00 270.00,223.50" />
<polyline fill="none" stroke="#00aa00" stroke-width="1" stroke-dasharray="3,2" points="269.00,225.50 268.50,225.00 268.50,224.00 269.00,223.50 269.50,224.00 269.50,225.00 269.00,225.50" />
<polyline fill="none" stroke="#00aa00" stroke-width="1" stroke-dasharray="3,2" points="268.00,228.50 267.50,228.00 267.50,227.00 267.50,226.00 268.00,225.50 268.50,226.00 268.50,227.00 268.50,228.00 268.00,228.50" />
<polyline fill="none" stroke="#00aa00" stroke-width="1" stroke-dasharray="3,2" points="267.00,231.50 266.50,231.00 266.50,230.00 266.50,229.00 267.00,228.50 267.50,229.00 267.50,230.00 267.50,231.00 267.00,231.50" />
<polyline fill="none" stroke="#00aa00" stroke-width="1" stroke-dasharray="3,2" points="266.00,233.50 265.50,233.00 265.50,232.00 266.00,231.50 266.50,232.00 266.50,233.00 266.00,233.50" />
<polyline fill="none" stroke="#00aa00" stroke-width="1" stroke-dasharray="3,2" points="265.00,234.50 264.50,234.00 265.00,233.50 265.50,234.00 265.00,234.50" />
<polyline fill="none" stroke="#00aa00" stroke-width="1" stroke-dasharray="3,2" points="264.00,236.50 263.50,236.00 263.50,235.00 264.00,234.50 264.50,235.00 264.50,236.00 264.00,236.50" />
<polyline fill="none" stroke="#00aa00" stroke-width="1" stroke-dasharray="3,2" points="263.00,237.50 262.50,237.00 263.00,236.50 263.50,237.00 263.00,237.50" />
<polyline fill="none" stroke="#00aa00" stroke-width="1" stroke-dasharray="3,2" points="262.00,239.50 261.50,239.00 261.50,238.00 262.00,237.50 262.50,238.00 262.50,239.00 262.00,239.50" />
<polyline fill="none" stroke="#00aa00" stroke-width="1" stroke-dasharray="3,2" points="261.00,240.50 260.50,240.00 261.00,239.50 261.50,240.00 261.00,240.50" />
<polyline fill="none" stroke="#00aa00" stroke-width="1" stroke-dasharray="3,2" points="260.00,242.50 259.50,242.00 259.50,241.00 260.00,240.50 260.50,241.00 260.50,242.00 260.00,242.50" />
<polyline fill="none" stroke="#00aa00" stroke-width="1" stroke-dasharray="3,2" points="259.00,243.50 258.50,243.00 259.00,242.50 259.50,243.00 259.00,243.50" />
<polyline fill="none" stroke="#00aa00" stroke-width="1" stroke-dasharray="3,2" points="258.00,244.50 257.50,244.00 258.00,243.50 258.50,244.00 258.00,244.50" />
<polyline fill="none" stroke="#00aa00" stroke-width="1" stroke-dasharray="3,2" points="257.00,245.50 256.50,245.00 257.00,244.50 257.50,245.00 257.00,245.50" />
<polyline fill="none" stroke="#00aa00" stroke-width="1" stroke-dasharray="3,2" points="256.00,246.50 255.50,246.00 256.00,245.50 256.50,246.00 256.00,246.50" />
<polyline fill="none" stroke="#00aa00" stroke-width="1" stroke-dasharray="3,2" points="255.00,247.50 254.50,247.00 255.00,246.50 255.50,247.00 255.00,247.50" />
<polyline fill="none" stroke="#00aa00" stroke-width="1" stroke-dasharray="3,2" points="254.00,248.50 253.00,248.50 252.50,248.00 253.00,247.50 254.00,247.50 254.50,248.00 254.00,248.50" />
<polyline fill="none" stroke="#00aa00" stroke-width="1" stroke-dasharray="3,2" points="252.00,249.50 251.50,249.00 252.00,248.50 252.50,249.00 252.00,249.50" />
<polyline fill="none" stroke="#00aa00" stroke-width="1" stroke-dasharray="3,2" points="251.00,250.50 250.00,250.50 249.50,250.00 250.00,249.50 251.00,249.50 251.50,250.00 251.00,250.50" />
<polyline fill="none" stroke="#00aa00" stroke-width="1" stroke-dasharray="3,2" points="249.00,251.50 248.00,251.50 247.50,251.00 248.00,250.50 249.00,250.50 249.50,251.00 249.00,251.50" />
<polyline fill="none" stroke="#00aa00" stroke-width="1" stroke-dasharray="3,2" points="247.00,252.50 246.00,252.50 245.00,252.50 244.50,252.00 245.00,251.50 246.00,251.50 247.00,251.50 247.50,252.00 247.00,252.50" />
<polyline fill="none" stroke="#00aa00" stroke-width="1" stroke-dasharray="3,2" points="244.00,253.50 243.00,253.50 242.00,253.50 241.00,253.50 240.50,253.00 241.00,252.50 242.00,252.50 243.00,252.50 244.00,252.50 244.50,253.00 244.00,253.50" />
<polyline fill="none" stroke="#00aa00" stroke-width="1" stroke-dasharray="3,2" points="223.00,254.50 222.00,254.50 221.00,254.50 220.00,254.50 219.00,254.50 218.00,254.50 217.00,254.50 216.00,254.50 215.00,254.50 214.00,254.50 213.00,254.50 212.50,254.00 213.00,253.50 214.00,253.50 215.00,253.50 216.00,253.50 217.00,253.50 218.00,253.50 219.00,253.50 220.00,253.50 221.00,253.50 222.00,253.50 223.00,253.50 223.50,254.00 223.00,254.50" />
<polyline fill="none" stroke="#00aa00" stroke-width="1" stroke-dasharray="3,2" points="240.00,254.50 239.00,254.50 238.00,254.50 237.00,254.50 236.00,254.50 235.50,254.00 236.00,253.50 237.00,253.50 238.00,253.50 239.00,253.50 240.00,253.50 240.50,254.00 240.00,254.50" />
<polyline fill="none" stroke="#00aa00" stroke-width="1" stroke-dasharray="3,2" points="235.00,255.50 234.00,255.50 233.00,255.50 232.00,255.50 231.00,255.50 230.00,255.50 229.00,255.50 228.00,255.50 227.00,255.50 226.00,255.50 225.00,255.50 224.00,255.50 223.50,255.00 224.00,254.50 225.00,254.50 226.00,254.50 227.00,254.50 228.00,254.50 229.00,254.50 230.00,254.50 231.00,254.50 232.00,254.50 233.00,254.50 234.00,254.50 235.00,254.50 235.50,255.00 235.00,255.50" />
<polyline fill="none" stroke="#00aa00" stroke-width="1" stroke-dasharray="3,2" points="158.00,333.50 157.50,333.00 158.00,332.50 158.50,333.00 158.00,333.50" />
<polyline fill="none" stroke="#00aa00" stroke-width="1" stroke-dasharray="3,2" points="162.00,333.50 161.50,333.00 162.00,332.50 162.50,333.00 162.00,333.50" />
<polyline fill="none" stroke="#00aa00" stroke-width="1" stroke-dasharray="3,2" points="157.00,334.50 156.50,334.00 157.00,333.50 157.50,334.00 157.00,334.50" />
<polyline fill="none" stroke="#00aa00" stroke-width="1" stroke-dasharray="3,2" points="163.00,334.50 162.50,334.00 163.00,333.50 163.50,334.00 163.00,334.50" />
<polyline fill="none" stroke="#00aa00" stroke-width="1" stroke-dasharray="3,2" points="156.00,335.50 155.50,335.00 156.00,334.50 156.50,335.00 156.00,335.50" />
<polyline fill="none" stroke="#00aa00" stroke-width="1" stroke-dasharray="3,2" points="164.00,335.50 163.50,335.00 164.00,334.50 164.50,335.00 164.00,335.50" />
<polyline fill="none" stroke="#00aa00" stroke-width="1" stroke-dasharray="3,2" points="155.00,336.50 154.50,336.00 155.00,335.50 155.50,336.00 155.00,336.50" />
<polyline fill="none" stroke="#00aa00" stroke-width="1" stroke-dasharray="3,2" points="165.00,336.50 164.50,336.00 165.00,335.50 165.50,336.00 165.00,336.50" />
<polyline fill="none" stroke="#00aa00" stroke-width="1" stroke-dasharray="3,2" points="154.00,337.50 153.50,337.00 154.00,336.50 154.50,337.00 154.00,337.50" />
<polyline fill="none" stroke="#00aa00" stroke-width="1" stroke-dasharray="3,2" points="166.00,337.50 165.50,337.00 166.00,336.50 166.50,337.00 166.00,337.50" />
<polyline fill="none" stroke="#00aa00" stroke-width="1" stroke-dasharray="3,2" points="153.00,338.50 152.50,338.00 153.00,337.50 153.50,338.00 153.00,338.50" />
<polyline fill="none" stroke="#00aa00" stroke-width="1" stroke-dasharray="3,2" points="167.00,338.50 166.50,338.00 167.00,337.50 167.50,338.00 167.00,338.50" />
<polyline fill="none" stroke="#00aa00" stroke-width="1" stroke-dasharray="3,2" points="152.00,339.50 151.50,339.00 152.00,338.50 152.50,339.00 152.00,339.50" />
<polyline fill="none" stroke="#00aa00" stroke-width="1" stroke-dasharray="3,2" points="168.00,339.50 167.50,339.00 168.00,338.50 168.50,339.00 168.00,339.50" />
<polyline fill="none" stroke="#00aa00" stroke-width="1" stroke-dasharray="3,2" points="151.00,340.50 150.50,340.00 151.00,339.50 151.50,340.00 151.00,340.50" />
<polyline fill="none" stroke="#00aa00" stroke-width="1" stroke-dasharray="3,2" points="169.00,340.50 168.50,340.00 169.00,339.50 169.50,340.00 169.00,340.50" />
<polyline fill="none" stroke="#00aa00" stroke-width="1" stroke-dasharray="3,2" points="150.00,341.50 149.50,341.00 150.00,340.50 150.50,341.00 150.00,341.50" />
<polyline fill="none" stroke="#00aa00" stroke-width="1" stroke-dasharray="3,2" points="170.00,341.50 169.50,341.00 170.00,340.50 170.50,341.00 170.00,341.50" />
<polyline fill="none" stroke="#00aa00" stroke-width="1" stroke-dasharray="3,2" points="149.00,342.50 148.50,342.00 149.00,341.50 149.50,342.00 149.00,342.50" />
<polyline fill="none" stroke="#00aa00" stroke-width="1" stroke-dasharray="3,2" points="171.00,342.50 170.50,342.00 171.00,341.50 171.50,342.00 171.00,342.50" />
<polyline fill="none" stroke="#00aa00" stroke-width="1" stroke-dasharray="3,2" points="148.00,343.50 147.50,343.00 148.00,342.50 148.50,343.00 148.00,343.50" />
<polyline fill="none" stroke="#00aa00" stroke-width="1" stroke-dasharray="3,2" points="172.00,343.50 171.50,343.00 172.00,342.50 172.50,343.00 172.00,343.50" />
<polyline fill="none" stroke="#00aa00" stroke-width="1" stroke-dasharray="3,2" points="147.00,344.50 146.50,344.00 147.00,343.50 147.50,344.00 147.00,344.50" />
<polyline fill="none" stroke="#00aa00" stroke-width="1" stroke-dasharray="3,2" points="173.00,344.50 172.50,344.00 173.00,343.50 173.50,344.00 173.00,344.50" />
<polyline fill="none" stroke="#00aa00" stroke-width="1" stroke-dasharray="3,2" points="146.00,345.50 145.50,345.00 146.00,344.50 146.50,345.00 146.00,345.50" />
<polyline fill="none" stroke="#00aa00" stroke-width="1" stroke-dasharray="3,2" points="174.00,345.50 173.50,345.00 174.00,344.50 174.50,345.00 174.00,345.50" />
<polyline fill="none" stroke="#00aa00" stroke-width="1" stroke-dasharray="3,2" points="145.00,346.50 144.50,346.00 145.00,345.50 145.50,346.00 145.00,346.50" />
<polyline fill="none" stroke="#00aa00" stroke-width="1" stroke-dasharray="3,2" points="175.00,346.50 174.50,346.00 175.00,345.50 175.50,346.00 175.00,346.50" />
<polyline fill="none" stroke="#00aa00" stroke-width="1" stroke-dasharray="3,2" points="144.00,347.50 143.50,347.00 144.00,346.50 144.50,347.00 144.00,347.50" />
<polyline fill="none" stroke="#00aa00" stroke-width="1" stroke-dasharray="3,2" points="176.00,347.50 175.50,347.00 176.00,346.50 176.50,347.00 176.00,347.50" />
<polyline fill="none" stroke="#00aa00" stroke-width="1" stroke-dasharray="3,2" points="143.00,348.50 142.50,348.00 143.00,347.50 143.50,348.00 143.00,348.50" />
<polyline fill="none" stroke="#00aa00" stroke-width="1" stroke-dasharray="3,2" points="177.00,348.50 176.50,348.00 177.00,347.50 177.50,348.00 177.00,348.50" />
<polyline fill="none" stroke="#00aa00" stroke-width="1" stroke-dasharray="3,2" points="142.00,349.50 141.00,349.50 140.00,349.50 139.00,349.50 138.50,349.00 139.00,348.50 140.00,348.50 141.00,348.50 142.00,348.50 142.50,349.00 142.00,349.50" />
<polyline fill="none" stroke="#00aa00" stroke-width="1" stroke-dasharray="3,2" points="181.00,349.50 180.00,349.50 179.00,349.50 178.00,349.50 177.50,349.00 178.00,348.50 179.00,348.50 180.00,348.50 181.00,348.50 181.50,349.00 181.00,349.50" />
<polyline fill="none" stroke="#00aa00" stroke-width="1" stroke-dasharray="3,2" points="138.00,350.50 137.00,350.50 136.00,350.50 135.00,350.50 134.00,350.50 133.00,350.50 132.00,350.50 131.00,350.50 130.50,350.00 131.00,349.50 132.00,349.50 133.00,349.50 134.00,349.50 135.00,349.50 136.00,349.50 137.00,349.50 138.00,349.50 138.50,350.00 138.00,350.50" />
<polyline fill="none" stroke="#00aa00" stroke-width="1" stroke-dasharray="3,2" points="191.00,350.50 190.00,350.50 189.00,350.50 188.00,350.50 187.00,350.50 186.00,350.50 185.00,350.50 184.00,350.50 183.00,350.50 182.00,350.50 181.50,350.00 182.00,349.50 183.00,349.50 184.00,349.50 185.00,349.50 186.00,349.50 187.00,349.50 188.00,349.50 189.00,349.50 190.00,349.50 191.00,349.50 191.50,350.00 191.00,350.50" />
<polyline fill="none" stroke="#00aa00" stroke-width="1" stroke-dasharray="3,2" points="130.00,351.50 129.00,351.50 128.00,351.50 127.00,351.50 126.00,351.50 125.00,351.50 124.00,351.50 123.00,351.50 122.00,351.50 121.50,351.00 122.00,350.50 123.00,350.50 124.00,350.50 125.00,350.50 126.00,350.50 127.00,350.50 128.00,350.50 129.00,350.50 130.00,350.50 130.50,351.00 130.00,351.50" />
<polyline fill="none" stroke="#00aa00" stroke-width="1" stroke-dasharray="3,2" points="202.00,351.50 201.00,351.50 200.00,351.50 199.00,351.50 198.00,351.50 197.00,351.50 196.00,351.50 195.00,351.50 194.00,351.50 193.00,351.50 192.00,351.50 191.50,351.00 192.00,350.50 193.00,350.50 194.00,350.50 195.00,350.50 196.00,350.50 197.00,350.50 198.00,350.50 199.00,350.50 200.00,350.50 201.00,350.50 202.00,350.50 202.50,351.00 202.00,351.50" />
<polyline fill="none" stroke="#00aa00" stroke-width="1" stroke-dasharray="3,2" points="121.00,352.50 120.00,352.50 119.00,352.50 118.00,352.50 117.00,352.50 116.00,352.50 115.50,352.00 116.00,351.50 117.00,351.50 118.00,351.50 119.00,351.50 120.00,351.50 121.00,351.50 121.50,352.00 121.00,352.50" />
<polyline fill="none" stroke="#00aa00" stroke-width="1" stroke-dasharray="3,2" points="209.00,352.50 208.00,352.50 207.00,352.50 206.00,352.50 205.00,352.50 204.00,352.50 203.00,352.50 202.50,352.00 203.00,351.50 204.00,351.50 205.00,351.50 206.00,351.50 207.00,351.50 208.00,351.50 209.00,351.50 209.50,352.00 209.00,352.50" />
<polyline fill="none" stroke="#00aa00" stroke-width="1" stroke-dasharray="3,2" points="115.00,353.50 114.00,353.50 113.50,353.00 114.00,352.50 115.00,352.50 115.50,353.00 115.00,353.50" />
<circle cx="160.00" cy="151.00" r="3" fill="none" stroke="#ff00ff" stroke-width="1"/>
<circle cx="161.00" cy="151.00" r="3" fill="none" stroke="#ff00ff" stroke-width="1"/>
<circle cx="160.00" cy="152.00" r="3" fill="none" stroke="#ff00ff" stroke-width="1"/>
<circle cx="160.00" cy="252.00" r="3" fill="none" stroke="#ff00ff" stroke-width="1"/>
<circle cx="160.00" cy="253.00" r="3" fill="none" stroke="#ff00ff" stroke-width="1"/>
<circle cx="161.00" cy="253.00" r="3" fill="none" stroke="#ff00ff" stroke-width="1"/>
<circle cx="160.00" cy="254.00" r="3" fill="none" stroke="#ff00ff" stroke-width="1"/>
<circle cx="160.00" cy="331.00" r="3" fill="none" stroke="#ff00ff" stroke-width="1"/>
<circle cx="159.00" cy="332.00" r="3" fill="none" stroke="#ff00ff" stroke-width="1"/>
<circle cx="160.00" cy="332.00" r="3" fill="none" stroke="#ff00ff" stroke-width="1"/>
<circle cx="161.00" cy="332.00" r="3" fill="none" stroke="#ff00ff" stroke-width="1"/>
<polyline fill="none" stroke="#3366ff" stroke-width="1" points="223.00,366.50 222.00,366.50 221.00,366.50 220.00,366.50 219.00,366.50 218.00,366.50 217.00,366.50 216.00,366.50 215.00,366.50 214.00,366.50 213.00,366.50 212.00,366.50 211.00,366.50 210.00,366.50 209.00,366.50 208.00,366.50 207.00,366.50 206.00,366.50 205.00,366.50 204.00,366.50 203.00,366.50 202.00,366.50 201.00,366.50 200.00,366.50 199.00,366.50 198.00,366.50 197.00,366.50 196.00,366.50 195.00,366.50 194.00,366.50 193.00,366.50 192.00,366.50 191.00,366.50 190.00,366.50 189.00,366.50 188.00,366.50 187.00,366.50 186.00,366.50 185.00,366.50 184.00,366.50 183.00,366.50 182.00,366.50 181.00,366.50 180.00,366.50 179.00,366.50 178.00,366.50 177.00,366.50 176.00,366.50 175.00,366.50 174.00,366.50 173.00,366.50 172.00,366.50 171.00,366.50 170.00,366.50 169.00,366.50 168.00,366.50 167.00,366.50 166.00,366.50 165.00,366.50 164.00,366.50 163.00,366.50 162.00,366.50 161.00,366.50 160.00,366.50 159.00,366.50 158.00,366.50 157.00,366.50 156.00,366.50 155.00,366.50 154.00,366.50 153.00,366.50 152.00,366.50 151.00,366.50 150.00,366.50 149.00,366.50 148.00,366.50 147.00,366.50 146.00,366.50 145.00,366.50 144.00,366.50 143.00,366.50 142.00,366.50 141.00,366.50 140.00,366.50 139.00,366.50 138.00,366.50 137.00,366.50 136.00,366.50 135.00,366.50 134.00,366.50 133.00,366.50 132.00,366.50 131.00,366.50 130.00,366.50 129.00,366.50 128.00,366.50 127.00,366.50 126.00,366.50 125.00,366.50 124.00,366.50 123.00,366.50 122.00,366.50 121.00,366.50 120.00,366.50 119.00,366.50 118.00,366.50 117.00,366.50 116.00,366.50 115.00,366.50 114.00,366.50 113.00,366.50 112.00,366.50 111.00,366.50 110.00,366.50 109.00,366.50 108.00,366.50 107.00,366.50 106.00,366.50 105.00,366.50 104.00,366.50 103.00,366.50 102.00,366.50 101.50,366.00 101.50,365.00 101.50,364.00 101.50,363.00 101.50,362.00 101.50,361.00 101.50,360.00 101.50,359.00 101.50,358.00 101.50,357.00 101.50,356.00 101.50,355.00 101.50,354.00 101.50,353.00 101.50,352.00 101.50,351.00 101.50,350.00 101.50,349.00 101.50,348.00 101.50,347.00 101.50,346.00 101.50,345.00 101.50,344.00 101.50,343.00 101.50,342.00 101.50,341.00 101.50,340.00 101.50,339.00 102.00,338.50 102.50,338.00 103.00,337.50 104.00,337.50 105.00,337.50 106.00,337.50 106.50,337.00 107.00,336.50 108.00,336.50 109.00,336.50 110.00,336.50 110.50,336.00 111.00,335.50 112.00,335.50 113.00,335.50 114.00,335.50 114.50,335.00 115.00,334.50 116.00,334.50 117.00,334.50 118.00,334.50 118.50,334.00 119.00,333.50 120.00,333.50 121.00,333.50 121.50,333.00 122.00,332.50 123.00,332.50 124.00,332.50 125.00,332.50 125.50,332.00 125.50,331.00 125.50,330.00 125.50,329.00 125.50,328.00 125.50,327.00 125.50,326.00 125.50,325.00 125.50,324.00 125.50,323.00 125.50,322.00 125.50,321.00 125.50,320.00 125.50,319.00 125.50,318.00 125.50,317.00 125.50,316.00 125.50,315.00 125.50,314.00 125.50,313.00 125.50,312.00 125.50,311.00 125.50,310.00 125.50,309.00 125.50,308.00 125.50,307.00 125.50,306.00 125.50,305.00 125.50,304.00 125.50,303.00 125.50,302.00 125.50,301.00 125.50,300.00 125.50,299.00 125.50,298.00 125.50,297.00 125.50,296.00 125.50,295.00 125.50,294.00 125.50,293.00 125.50,292.00 125.50,291.00 125.50,290.00 125.50,289.00 125.50,288.00 125.50,287.00 125.50,286.00 125.50,285.00 125.50,284.00 125.50,283.00 125.50,282.00 125.50,281.00 125.50,280.00 125.50,279.00 125.50,278.00 125.50,277.00 125.50,276.00 125.50,275.00 125.50,274.00 125.50,273.00 125.50,272.00 125.50,271.00 125.50,270.00 125.50,269.00 125.50,268.00 125.50,267.00 125.50,266.00 125.50,265.00 125.50,264.00 125.50,263.00 125.50,262.00 125.50,261.00 125.50,260.00 125.50,259.00 125.50,258.00 125.50,257.00 125.50,256.00 125.50,255.00 125.50,254.00 125.50,253.00 125.50,252.00 125.50,251.00 125.50,250.00 125.50,249.00 125.50,248.00 125.50,247.00 125.50,246.00 125.50,245.00 125.50,244.00 125.50,243.00 125.50,242.00 125.50,241.00 125.50,240.00 125.50,239.00 125.50,238.00 125.50,237.00 125.50,236.00 125.50,235.00 125.50,234.00 125.50,233.00 125.50,232.00 125.50,231.00 125.50,230.00 125.50,229.00 125.50,228.00 125.50,227.00 125.50,226.00 125.50,225.00 125.50,224.00 125.50,223.00 125.50,222.00 125.50,221.00 125.50,220.00 125.50,219.00 125.50,218.00 125.50,217.00 125.50,216.00 125.50,215.00 125.50,214.00 125.50,213.00 125.50,212.00 125.50,211.00 125.50,210.00 125.50,209.00 125.50,208.00 125.50,207.00 125.50,206.00 125.50,205.00 125.50,204.00 125.50,203.00 125.50,202.00 125.50,201.00 125.50,200.00 125.50,199.00 125.50,198.00 125.50,197.00 125.50,196.00 125.50,195.00 125.50,194.00 125.50,193.00 125.50,192.00 125.50,191.00 125.50,190.00 125.50,189.00 125.50,188.00 125.50,187.00 125.50,186.00 125.50,185.00 125.50,184.00 125.50,183.00 125.50,182.00 125.50,181.00 125.50,180.00 125.50,179.00 125.50,178.00 125.50,177.00 125.50,176.00 125.50,175.00 125.50,174.00 125.50,173.00 125.50,172.00 125.50,171.00 125.50,170.00 125.50,169.00 125.50,168.00 125.50,167.00 125.50,166.00 125.50,165.00 125.50,164.00 125.50,163.00 125.50,162.00 125.50,161.00 125.50,160.00 125.50,159.00 125.50,158.00 125.50,157.00 125.50,156.00 125.50,155.00 125.50,154.00 125.50,153.00 125.50,152.00 125.50,151.00 125.00,150.50 124.00,150.50 123.50,150.00 123.00,149.50 122.00,149.50 121.00,149.50 120.00,149.50 119.50,149.00 119.00,148.50 118.00,148.50 117.00,148.50 116.00,148.50 115.50,148.00 115.00,147.50 114.00,147.50 113.00,147.50 112.00,147.50 111.50,147.00 111.00,146.50 110.00,146.50 109.00,146.50 108.00,146.50 107.00,146.50 106.50,146.00 106.00,145.50 105.00,145.50 104.00,145.50 103.00,145.50 102.50,145.00 102.00,144.50 101.50,144.00 101.50,143.00 101.50,142.00 101.50,141.00 101.50,140.00 101.50,139.00 101.50,138.00 101.50,137.00 101.50,136.00 101.50,135.00 101.50,134.00 101.50,133.00 101.50,132.00 101.50,131.00 101.50,130.00 101.50,129.00 101.50,128.00 101.50,127.00 101.50,126.00 101.50,125.00 101.50,124.00 101.50,123.00 101.50,122.00 101.50,121.00 101.50,120.00 101.50,119.00 101.50,118.00 101.50,117.00 102.00,116.50 103.00,116.50 104.00,116.50 105.00,116.50 106.00,116.50 107.00,116.50 108.00,116.50 109.00,116.50 110.00,116.50 111.00,116.50 112.00,116.50 113.00,116.50 114.00,116.50 115.00,116.50 116.00,116.50 117.00,116.50 118.00,116.50 119.00,116.50 120.00,116.50 121.00,116.50 122.00,116.50 123.00,116.50 124.00,116.50 125.00,116.50 126.00,116.50 127.00,116.50 128.00,116.50 129.00,116.50 130.00,116.50 131.00,116.50 132.00,116.50 133.00,116.50 134.00,116.50 135.00,116.50 136.00,116.50 137.00,116.50 138.00,116.50 139.00,116.50 140.00,116.50 141.00,116.50 142.00,116.50 143.00,116.50 144.00,116.50 145.00,116.50 146.00,116.50 147.00,116.50 148.00,116.50 149.00,116.50 150.00,116.50 151.00,116.50 152.00,116.50 153.00,116.50 154.00,116.50 155.00,116.50 156.00,116.50 157.00,116.50 158.00,116.50 159.00,116.50 160.00,116.50 161.00,116.50 162.00,116.50 163.00,116.50 164.00,116.50 165.00,116.50 166.00,116.50 167.00,116.50 168.00,116.50 169.00,116.50 170.00,116.50 171.00,116.50 172.00,116.50 173.00,116.50 174.00,116.50 175.00,116.50 176.00,116.50 177.00,116.50 178.00,116.50 179.00,116.50 180.00,116.50 181.00,116.50 182.00,116.50 183.00,116.50 184.00,116.50 185.00,116.50 186.00,116.50 187.00,116.50 188.00,116.50 189.00,116.50 190.00,116.50 191.00,116.50 192.00,116.50 193.00,116.50 194.00,116.50 195.00,116.50 196.00,116.50 197.00,116.50 198.00,116.50 199.00,116.50 200.00,116.50 201.00,116.50 202.00,116.50 203.00,116.50 204.00,116.50 205.00,116.50 206.00,116.50 207.00,116.50 208.00,116.50 209.00,116.50 210.00,116.50 211.00,116.50 212.00,116.50 213.00,116.50 214.00,116.50 215.00,116.50 216.00,116.50 217.00,116.50 218.00,116.50 219.00,116.50 220.00,116.50 221.00,116.50 222.00,116.50 223.00,116.50 224.00,116.50 225.00,116.50 226.00,116.50 227.00,116.50 228.00,116.50 229.00,116.50 230.00,116.50 231.00,116.50 232.00,116.50 233.00,116.50 233.50,117.00 234.00,117.50 235.00,117.50 236.00,117.50 237.00,117.50 238.00,117.50 239.00,117.50 240.00,117.50 241.00,117.50 242.00,117.50 243.00,117.50 243.50,118.00 244.00,118.50 245.00,118.50 246.00,118.50 247.00,118.50 248.00,118.50 249.00,118.50 249.50,119.00 250.00,119.50 251.00,119.50 252.00,119.50 253.00,119.50 254.00,119.50 254.50,120.00 255.00,120.50 256.00,120.50 257.00,120.50 258.00,120.50 259.00,120.50 259.50,121.00 260.00,121.50 261.00,121.50 262.00,121.50 262.50,122.00 263.00,122.50 264.00,122.50 265.00,122.50 265.50,123.00 266.00,123.50 267.00,123.50 268.00,123.50 268.50,124.00 269.00,124.50 270.00,124.50 271.00,124.50 271.50,125.00 272.00,125.50 273.00,125.50 273.50,126.00 274.00,126.50 275.00,126.50 275.50,127.00 276.00,127.50 277.00,127.50 277.50,128.00 278.00,128.50 279.00,128.50 279.50,129.00 280.00,129.50 281.00,129.50 281.50,130.00 282.00,130.50 283.00,130.50 283.50,131.00 284.00,131.50 284.50,132.00 285.00,132.50 286.00,132.50 286.50,133.00 287.00,133.50 287.50,134.00 288.00,134.50 288.50,135.00 289.00,135.50 290.00,135.50 290.50,136.00 291.00,136.50 291.50,137.00 292.00,137.50 292.50,138.00 293.00,138.50 293.50,139.00 294.00,139.50 294.50,140.00 295.00,140.50 295.50,141.00 296.00,141.50 296.50,142.00 297.00,142.50 297.50,143.00 298.00,143.50 298.50,144.00 299.00,144.50 299.50,145.00 299.50,146.00 300.00,146.50 300.50,147.00 301.00,147.50 301.50,148.00 301.50,149.00 302.00,149.50 302.50,150.00 303.00,150.50 303.50,151.00 303.50,152.00 304.00,152.50 304.50,153.00 304.50,154.00 305.00,154.50 305.50,155.00 305.50,156.00 306.00,156.50 306.50,157.00 306.50,158.00 307.00,158.50 307.50,159.00 307.50,160.00 308.00,160.50 308.50,161.00 308.50,162.00 308.50,163.00 309.00,163.50 309.50,164.00 309.50,165.00 309.50,166.00 310.00,166.50 310.50,167.00 310.50,168.00 310.50,169.00 310.50,170.00 311.00,170.50 311.50,171.00 311.50,172.00 311.50,173.00 311.50,174.00 311.50,175.00 312.00,175.50 312.50,176.00 312.50,177.00 312.50,178.00 312.50,179.00 312.50,180.00 312.50,181.00 312.50,182.00 313.00,182.50 313.50,183.00 313.50,184.00 313.50,185.00 313.50,186.00 313.50,187.00 313.50,188.00 313.50,189.00 313.50,190.00 313.50,191.00 313.50,192.00 313.50,193.00 313.50,194.00 313.50,195.00 313.50,196.00 313.50,197.00 313.50,198.00 313.50,199.00 313.50,200.00 313.50,201.00 313.50,202.00 313.50,203.00 313.50,204.00 313.00,204.50 312.50,205.00 312.50,206.00 312.50,207.00 312.50,208.00 312.50,209.00 312.50,210.00 312.50,211.00 312.50,212.00 312.00,212.50 311.50,213.00 311.50,214.00 311.50,215.00 311.50,216.00 311.50,217.00 311.00,217.50 310.50,218.00 310.50,219.00 310.50,220.00 310.50,221.00 310.00,221.50 309.50,222.00 309.50,223.00 309.50,224.00 309.50,225.00 309.00,225.50 308.50,226.00 308.50,227.00 308.50,228.00 308.00,228.50 307.50,229.00 307.50,230.00 307.00,230.50 306.50,231.00 306.50,232.00 306.00,232.50 305.50,233.00 305.50,234.00 305.00,234.50 304.50,235.00 304.50,236.00 304.00,236.50 303.50,237.00 303.50,238.00 303.00,238.50 302.50,239.00 302.50,240.00 302.00,240.50 301.50,241.00 301.00,241.50 300.50,242.00 300.50,243.00 300.00,243.50 299.50,244.00 299.00,244.50 298.50,245.00 298.50,246.00 298.00,246.50 297.50,247.00 297.00,247.50 296.50,248.00 296.00,248.50 295.50,249.00 295.00,249.50 294.50,250.00 294.00,250.50 293.50,251.00 293.00,251.50 292.50,252.00 292.00,252.50 291.50,253.00 291.00,253.50 290.50,254.00 290.00,254.50 289.50,255.00 289.00,255.50 288.50,256.00 288.00,256.50 287.00,256.50 286.50,257.00 286.00,257.50 285.50,258.00 285.00,258.50 284.00,258.50 283.50,259.00 283.00,259.50 282.50,260.00 282.00,260.50 281.00,260.50 280.50,261.00 280.00,261.50 279.50,262.00 279.00,262.50 278.00,262.50 277.50,263.00 277.00,263.50 276.00,263.50 275.50,264.00 275.00,264.50 274.00,264.50 273.00,264.50 272.50,265.00 272.00,265.50 271.00,265.50 270.50,266.00 270.00,266.50 269.00,266.50 268.00,266.50 267.50,267.00 267.00,267.50 266.00,267.50 265.00,267.50 264.50,268.00 264.00,268.50 263.00,268.50 262.00,268.50 261.50,269.00 261.00,269.50 260.00,269.50 259.00,269.50 258.00,269.50 257.00,269.50 256.50,270.00 256.00,270.50 255.00,270.50 254.00,270.50 253.00,270.50 252.00,270.50 251.50,271.00 251.00,271.50 250.00,271.50 249.00,271.50 248.00,271.50 247.00,271.50 246.00,271.50 245.00,271.50 244.00,271.50 243.50,272.00 243.00,272.50 242.00,272.50 241.00,272.50 240.00,272.50 239.00,272.50 238.00,272.50 237.00,272.50 236.00,272.50 235.00,272.50 234.00,272.50 233.00,272.50 232.00,272.50 231.00,272.50 230.00,272.50 229.00,272.50 228.00,272.50 227.00,272.50 226.00,272.50 225.00,272.50 224.00,272.50 223.00,272.50 222.00,272.50 221.00,272.50 220.00,272.50 219.00,272.50 218.00,272.50 217.00,272.50 216.50,272.00 216.00,271.50 215.00,271.50 214.00,271.50 213.00,271.50 212.00,271.50 211.00,271.50 210.00,271.50 209.00,271.50 208.00,271.50 207.50,271.00 207.00,270.50 206.00,270.50 205.00,270.50 204.00,270.50 203.00,270.50 202.00,270.50 201.50,270.00 201.00,269.50 200.00,269.50 199.00,269.50 198.00,269.50 197.50,269.00 197.00,268.50 196.00,268.50 195.50,269.00 195.50,270.00 195.50,271.00 195.50,272.00 195.50,273.00 195.50,274.00 195.50,275.00 195.50,276.00 195.50,277.00 195.50,278.00 195.50,279.00 195.50,280.00 195.50,281.00 195.50,282.00 195.50,283.00 195.50,284.00 195.50,285.00 195.50,286.00 195.50,287.00 195.50,288.00 195.50,289.00 195.50,290.00 195.50,291.00 195.50,292.00 195.50,293.00 195.50,294.00 195.50,295.00 195.50,296.00 195.50,297.00 195.50,298.00 195.50,299.00 195.50,300.00 195.50,301.00 195.50,302.00 195.50,303.00 195.50,304.00 195.50,305.00 195.50,306.00 195.50,307.00 195.50,308.00 195.50,309.00 195.50,310.00 195.50,311.00 195.50,312.00 195.50,313.00 195.50,314.00 195.50,315.00 195.50,316.00 195.50,317.00 195.50,318.00 195.50,319.00 195.50,320.00 195.50,321.00 195.50,322.00 195.50,323.00 195.50,324.00 195.50,325.00 195.50,326.00 195.50,327.00 195.50,328.00 195.50,329.00 195.50,330.00 195.50,331.00 195.50,332.00 196.00,332.50 197.00,332.50 198.00,332.50 198.50,333.00 199.00,333.50 200.00,333.50 201.00,333.50 202.00,333.50 202.50,334.00 203.00,334.50 204.00,334.50 205.00,334.50 206.00,334.50 207.00,334.50 207.50,335.00 208.00,335.50 209.00,335.50 210.00,335.50 211.00,335.50 212.00,335.50 212.50,336.00 213.00,336.50 214.00,336.50 215.00,336.50 216.00,336.50 217.00,336.50 217.50,337.00 218.00,337.50 219.00,337.50 220.00,337.50 221.00,337.50 222.00,337.50 222.50,338.00 223.00,338.50 223.50,339.00 223.50,340.00 223.50,341.00 223.50,342.00 223.50,343.00 223.50,344.00 223.50,345.00 223.50,346.00 223.50,347.00 223.50,348.00 223.50,349.00 223.50,350.00 223.50,351.00 223.50,352.00 223.50,353.00 223.50,354.00 223.50,355.00 223.50,356.00 223.50,357.00 223.50,358.00 223.50,359.00 223.50,360.00 223.50,361.00 223.50,362.00 223.50,363.00 223.50,364.00 223.50,365.00 223.50,366.00 223.00,366.50" />
</svg>