<svg xmlns="http://www.w3.org/2000/svg" width="283" height="283" viewBox="0 0 283 283">
<polyline fill="none" stroke="#222" stroke-width="1" points="188.00,216.50 187.00,216.50 186.00,216.50 185.00,216.50 184.00,216.50 183.00,216.50 182.00,216.50 181.00,216.50 180.00,216.50 179.00,216.50 178.00,216.50 177.00,216.50 176.00,216.50 175.00,216.50 174.00,216.50 173.00,216.50 172.00,216.50 171.00,216.50 170.00,216.50 169.00,216.50 168.00,216.50 167.00,216.50 166.00,216.50 165.00,216.50 164.00,216.50 163.00,216.50 162.00,216.50 161.00,216.50 160.00,216.50 159.00,216.50 158.00,216.50 157.00,216.50 156.00,216.50 155.00,216.50 154.00,216.50 153.00,216.50 152.00,216.50 151.00,216.50 150.00,216.50 149.00,216.50 148.00,216.50 147.00,216.50 146.00,216.50 145.00,216.50 144.00,216.50 143.00,216.50 142.00,216.50 141.00,216.50 140.00,216.50 139.00,216.50 138.00,216.50 137.00,216.50 136.00,216.50 135.00,216.50 134.00,216.50 133.00,216.50 132.00,216.50 131.00,216.50 130.00,216.50 129.00,216.50 128.00,216.50 127.00,216.50 126.00,216.50 125.00,216.50 124.00,216.50 123.00,216.50 122.00,216.50 121.00,216.50 120.00,216.50 119.00,216.50 118.00,216.50 117.00,216.50 116.00,216.50 115.00,216.50 114.00,216.50 113.00,216.50 112.00,216.50 111.00,216.50 110.00,216.50 109.00,216.50 108.00,216.50 107.00,216.50 106.00,216.50 105.00,216.50 104.00,216.50 103.00,216.50 102.00,216.50 101.00,216.50 100.00,216.50 99.00,216.50 98.00,216.50 97.00,216.50 96.00,216.50 95.00,216.50 94.00,216.50 93.00,216.50 92.00,216.50 91.00,216.50 90.00,216.50 89.00,216.50 88.00,216.50 87.00,216.50 86.00,216.50 85.00,216.50 84.00,216.50 83.00,216.50 82.00,216.50 81.00,216.50 80.00,216.50 79.00,216.50 78.00,216.50 77.00,216.50 76.00,216.50 75.00,216.50 74.00,216.50 73.00,216.50 72.00,216.50 71.50,216.00 71.50,215.00 71.50,214.00 71.50,213.00 72.00,212.50 72.50,212.00 72.50,211.00 72.50,210.00 72.50,209.00 73.00,208.50 73.50,208.00 73.50,207.00 73.50,206.00 73.50,205.00 73.50,204.00 74.00,203.50 74.50,203.00 74.50,202.00 74.50,201.00 75.00,200.50 76.00,200.50 77.00,200.50 78.00,200.50 79.00,200.50 80.00,200.50 81.00,200.50 82.00,200.50 83.00,200.50 84.00,200.50 85.00,200.50 86.00,200.50 87.00,200.50 88.00,200.50 89.00,200.50 90.00,200.50 91.00,200.50 92.00,200.50 93.00,200.50 94.00,200.50 95.00,200.50 96.00,200.50 97.00,200.50 98.00,200.50 99.00,200.50 100.00,200.50 101.00,200.50 102.00,200.50 103.00,200.50 104.00,200.50 105.00,200.50 106.00,200.50 107.00,200.50 108.00,200.50 109.00,200.50 110.00,200.50 111.00,200.50 112.00,200.50 113.00,200.50 114.00,200.50 115.00,200.50 116.00,200.50 117.00,200.50 118.00,200.50 119.00,200.50 120.00,200.50 121.00,200.50 122.00,200.50 123.00,200.50 124.00,200.50 125.00,200.50 126.00,200.50 127.00,200.50 128.00,200.50 129.00,200.50 130.00,200.50 131.00,200.50 132.00,200.50 133.00,200.50 134.00,200.50 135.00,200.50 136.00,200.50 137.00,200.50 138.00,200.50 139.00,200.50 140.00,200.50 141.00,200.50 142.00,200.50 143.00,200.50 144.00,200.50 145.00,200.50 146.00,200.50 147.00,200.50 148.00,200.50 149.00,200.50 150.00,200.50 151.00,200.50 152.00,200.50 153.00,200.50 154.00,200.50 155.00,200.50 156.00,200.50 157.00,200.50 158.00,200.50 159.00,200.50 160.00,200.50 161.00,200.50 162.00,200.50 163.00,200.50 164.00,200.50 165.00,200.50 166.00,200.50 167.00,200.50 168.00,200.50 169.00,200.50 170.00,200.50 171.00,200.50 172.00,200.50 173.00,200.50 174.00,200.50 175.00,200.50 176.00,200.50 177.00,200.50 178.00,200.50 179.00,200.50 179.50,200.00 180.00,199.50 180.50,199.00 180.50,198.00 180.50,197.00 180.50,196.00 181.00,195.50 181.50,195.00 181.50,194.00 181.50,193.00 181.50,192.00 181.50,191.00 182.00,190.50 182.50,190.00 182.50,189.00 182.50,188.00 182.50,187.00 183.00,186.50 183.50,186.00 183.50,185.00 183.50,184.00 183.50,183.00 183.50,182.00 184.00,181.50 184.50,181.00 184.50,180.00 184.50,179.00 184.50,178.00 184.50,177.00 185.00,176.50 185.50,176.00 185.50,175.00 185.50,174.00 185.50,173.00 186.00,172.50 186.50,172.00 186.50,171.00 186.50,170.00 186.50,169.00 186.50,168.00 187.00,167.50 187.50,167.00 187.50,166.00 187.50,165.00 187.50,164.00 187.50,163.00 188.00,162.50 188.50,162.00 188.50,161.00 188.50,160.00 188.50,159.00 189.00,158.50 189.50,158.00 189.50,157.00 189.50,156.00 189.50,155.00 189.50,154.00 190.00,153.50 190.50,153.00 190.50,152.00 190.50,151.00 190.50,150.00 191.00,149.50 191.50,149.00 191.50,148.00 191.50,147.00 191.50,146.00 191.50,145.00 192.00,144.50 192.50,144.00 192.50,143.00 192.50,142.00 192.50,141.00 192.50,140.00 193.00,139.50 193.50,139.00 193.50,138.00 193.50,137.00 193.50,136.00 194.00,135.50 194.50,135.00 194.50,134.00 194.50,133.00 194.50,132.00 194.50,131.00 195.00,130.50 195.50,130.00 195.50,129.00 195.50,128.00 195.50,127.00 196.00,126.50 196.50,126.00 196.50,125.00 196.50,124.00 196.50,123.00 196.50,122.00 197.00,121.50 197.50,121.00 197.50,120.00 197.50,119.00 197.50,118.00 197.50,117.00 198.00,116.50 198.50,116.00 198.50,115.00 198.50,114.00 198.50,113.00 199.00,112.50 199.50,112.00 199.50,111.00 199.00,110.50 198.50,110.00 198.00,109.50 197.50,110.00 197.00,110.50 196.00,110.50 195.00,110.50 194.00,110.50 193.00,110.50 192.00,110.50 191.00,110.50 190.00,110.50 189.00,110.50 188.00,110.50 187.00,110.50 186.00,110.50 185.00,110.50 184.00,110.50 183.00,110.50 182.00,110.50 181.00,110.50 180.00,110.50 179.00,110.50 178.00,110.50 177.00,110.50 176.00,110.50 175.00,110.50 174.00,110.50 173.00,110.50 172.00,110.50 171.00,110.50 170.00,110.50 169.00,110.50 168.00,110.50 167.00,110.50 166.00,110.50 165.00,110.50 164.00,110.50 163.00,110.50 162.00,110.50 161.00,110.50 160.00,110.50 159.00,110.50 158.00,110.50 157.00,110.50 156.00,110.50 155.00,110.50 154.00,110.50 153.00,110.50 152.00,110.50 151.00,110.50 150.00,110.50 149.00,110.50 148.00,110.50 147.00,110.50 146.00,110.50 145.00,110.50 144.00,110.50 143.00,110.50 142.00,110.50 141.00,110.50 140.00,110.50 139.00,110.50 138.00,110.50 137.00,110.50 136.00,110.50 135.00,110.50 134.00,110.50 133.00,110.50 132.00,110.50 131.00,110.50 130.00,110.50 129.00,110.50 128.00,110.50 127.00,110.50 126.00,110.50 125.00,110.50 124.00,110.50 123.00,110.50 122.00,110.50 121.00,110.50 120.00,110.50 119.00,110.50 118.00,110.50 117.00,110.50 116.00,110.50 115.00,110.50 114.00,110.50 113.00,110.50 112.00,110.50 111.00,110.50 110.00,110.50 109.00,110.50 108.00,110.50 107.00,110.50 106.00,110.50 105.00,110.50 104.00,110.50 103.00,110.50 102.00,110.50 101.00,110.50 100.00,110.50 99.00,110.50 98.00,110.50 97.00,110.50 96.00,110.50 95.00,110.50 94.00,110.50 93.50,111.00 93.50,112.00 93.50,113.00 93.00,113.50 92.50,114.00 92.50,115.00 92.50,116.00 92.50,117.00 92.50,118.00 92.00,118.50 91.50,119.00 91.50,120.00 91.50,121.00 91.50,122.00 91.00,122.50 90.50,123.00 90.50,124.00 90.50,125.00 90.50,126.00 90.50,127.00 90.00,127.50 89.50,128.00 89.50,129.00 89.50,130.00 89.50,131.00 89.50,132.00 89.00,132.50 88.50,133.00 88.50,134.00 88.50,135.00 88.50,136.00 88.00,136.50 87.50,137.00 87.50,138.00 87.50,139.00 87.50,140.00 87.50,141.00 87.00,141.50 86.50,142.00 86.50,143.00 86.50,144.00 86.50,145.00 86.00,145.50 85.50,146.00 85.50,147.00 85.50,148.00 85.50,149.00 85.50,150.00 85.00,150.50 84.50,151.00 84.50,152.00 84.50,153.00 84.50,154.00 84.50,155.00 84.00,155.50 83.50,156.00 83.50,157.00 83.50,158.00 83.50,159.00 83.00,159.50 82.50,160.00 82.50,161.00 82.50,162.00 82.50,163.00 82.50,164.00 82.00,164.50 81.50,165.00 81.50,166.00 81.50,167.00 81.50,168.00 81.00,168.50 80.50,169.00 80.00,169.50 79.00,169.50 78.00,169.50 77.00,169.50 76.00,169.50 75.00,169.50 74.00,169.50 73.00,169.50 72.00,169.50 71.00,169.50 70.00,169.50 69.00,169.50 68.00,169.50 67.00,169.50 66.00,169.50 65.50,169.00 65.50,168.00 65.50,167.00 65.50,166.00 65.50,165.00 65.50,164.00 66.00,163.50 66.50,163.00 66.50,162.00 66.50,161.00 66.50,160.00 67.00,159.50 67.50,159.00 67.50,158.00 67.50,157.00 67.50,156.00 67.50,155.00 68.00,154.50 68.50,154.00 68.50,153.00 68.50,152.00 68.50,151.00 68.50,150.00 69.00,149.50 69.50,149.00 69.50,148.00 69.50,147.00 69.50,146.00 70.00,145.50 70.50,145.00 70.50,144.00 70.50,143.00 70.50,142.00 70.50,141.00 71.00,140.50 71.50,140.00 71.50,139.00 71.50,138.00 71.50,137.00 72.00,136.50 72.50,136.00 72.50,135.00 72.50,134.00 72.50,133.00 72.50,132.00 73.00,131.50 73.50,131.00 73.50,130.00 73.50,129.00 73.50,128.00 73.50,127.00 74.00,126.50 74.50,126.00 74.50,125.00 74.50,124.00 74.50,123.00 75.00,122.50 75.50,122.00 75.50,121.00 75.50,120.00 75.50,119.00 75.50,118.00 76.00,117.50 76.50,117.00 76.50,116.00 76.50,115.00 76.50,114.00 77.00,113.50 77.50,113.00 77.50,112.00 77.50,111.00 77.50,110.00 77.50,109.00 78.00,108.50 78.50,108.00 78.50,107.00 78.50,106.00 78.50,105.00 78.50,104.00 79.00,103.50 79.50,103.00 79.50,102.00 79.50,101.00 79.50,100.00 80.00,99.50 80.50,99.00 80.50,98.00 80.50,97.00 80.50,96.00 80.50,95.00 81.00,94.50 82.00,94.50 83.00,94.50 84.00,94.50 85.00,94.50 86.00,94.50 87.00,94.50 88.00,94.50 89.00,94.50 90.00,94.50 91.00,94.50 92.00,94.50 93.00,94.50 94.00,94.50 95.00,94.50 96.00,94.50 97.00,94.50 98.00,94.50 99.00,94.50 100.00,94.50 101.00,94.50 102.00,94.50 103.00,94.50 104.00,94.50 105.00,94.50 106.00,94.50 107.00,94.50 108.00,94.50 109.00,94.50 110.00,94.50 111.00,94.50 112.00,94.50 113.00,94.50 114.00,94.50 115.00,94.50 116.00,94.50 117.00,94.50 118.00,94.50 119.00,94.50 120.00,94.50 121.00,94.50 122.00,94.50 123.00,94.50 124.00,94.50 125.00,94.50 126.00,94.50 127.00,94.50 128.00,94.50 129.00,94.50 130.00,94.50 131.00,94.50 132.00,94.50 133.00,94.50 134.00,94.50 135.00,94.50 136.00,94.50 137.00,94.50 138.00,94.50 139.00,94.50 140.00,94.50 141.00,94.50 142.00,94.50 143.00,94.50 144.00,94.50 145.00,94.50 146.00,94.50 147.00,94.50 148.00,94.50 149.00,94.50 150.00,94.50 151.00,94.50 152.00,94.50 153.00,94.50 154.00,94.50 155.00,94.50 156.00,94.50 157.00,94.50 158.00,94.50 159.00,94.50 160.00,94.50 161.00,94.50 162.00,94.50 163.00,94.50 164.00,94.50 165.00,94.50 166.00,94.50 167.00,94.50 168.00,94.50 169.00,94.50 170.00,94.50 171.00,94.50 172.00,94.50 173.00,94.50 174.00,94.50 175.00,94.50 176.00,94.50 177.00,94.50 178.00,94.50 179.00,94.50 180.00,94.50 181.00,94.50 182.00,94.50 183.00,94.50 184.00,94.50 185.00,94.50 186.00,94.50 187.00,94.50 188.00,94.50 189.00,94.50 190.00,94.50 191.00,94.50 192.00,94.50 193.00,94.50 194.00,94.50 195.00,94.50 196.00,94.50 197.00,94.50 198.00,94.50 199.00,94.50 200.00,94.50 201.00,94.50 202.00,94.50 203.00,94.50 204.00,94.50 205.00,94.50 206.00,94.50 207.00,94.50 208.00,94.50 209.00,94.50 210.00,94.50 211.00,94.50 212.00,94.50 213.00,94.50 213.50,95.00 214.00,95.50 215.00,95.50 215.50,96.00 216.00,96.50 216.50,97.00 216.50,98.00 217.00,98.50 217.50,99.00 217.50,100.00 217.50,101.00 217.50,102.00 217.50,103.00 217.00,103.50 216.50,104.00 216.50,105.00 216.50,106.00 216.50,107.00 216.50,108.00 216.00,108.50 215.50,109.00 215.50,110.00 215.50,111.00 215.50,112.00 215.00,112.50 214.50,113.00 214.50,114.00 214.50,115.00 214.50,116.00 214.50,117.00 214.00,117.50 213.50,118.00 213.50,119.00 213.50,120.00 213.50,121.00 213.50,122.00 213.00,122.50 212.50,123.00 212.50,124.00 212.50,125.00 212.50,126.00 212.00,126.50 211.50,127.00 211.50,128.00 211.50,129.00 211.50,130.00 211.50,131.00 211.00,131.50 210.50,132.00 210.50,133.00 210.50,134.00 210.50,135.00 210.00,135.50 209.50,136.00 209.50,137.00 209.50,138.00 209.50,139.00 209.50,140.00 209.00,140.50 208.50,141.00 208.50,142.00 208.50,143.00 208.50,144.00 208.50,145.00 208.00,145.50 207.50,146.00 207.50,147.00 207.50,148.00 207.50,149.00 207.00,149.50 206.50,150.00 206.50,151.00 206.50,152.00 206.50,153.00 206.50,154.00 206.00,154.50 205.50,155.00 205.50,156.00 205.50,157.00 205.50,158.00 205.00,158.50 204.50,159.00 204.50,160.00 204.50,161.00 204.50,162.00 204.50,163.00 204.00,163.50 203.50,164.00 203.50,165.00 203.50,166.00 203.50,167.00 203.00,167.50 202.50,168.00 202.50,169.00 202.50,170.00 202.50,171.00 202.50,172.00 202.00,172.50 201.50,173.00 201.50,174.00 201.50,175.00 201.50,176.00 201.50,177.00 201.00,177.50 200.50,178.00 200.50,179.00 200.50,180.00 200.50,181.00 200.00,181.50 199.50,182.00 199.50,183.00 199.50,184.00 199.50,185.00 199.50,186.00 199.00,186.50 198.50,187.00 198.50,188.00 198.50,189.00 198.50,190.00 198.50,191.00 198.00,191.50 197.50,192.00 197.50,193.00 197.50,194.00 197.50,195.00 197.00,195.50 196.50,196.00 196.50,197.00 196.50,198.00 196.50,199.00 196.50,200.00 196.00,200.50 195.50,201.00 195.50,202.00 195.50,203.00 195.50,204.00 195.00,204.50 194.50,205.00 194.50,206.00 194.50,207.00 194.50,208.00 194.50,209.00 194.00,209.50 193.50,210.00 193.50,211.00 193.50,212.00 193.00,212.50 192.50,213.00 192.50,214.00 192.00,214.50 191.00,214.50 190.50,215.00 190.00,215.50 189.00,215.50 188.50,216.00 188.00,216.50" />
<polyline fill="none" stroke="#090" stroke-width="1" stroke-dasharray="3,2" points="170.00,39.50 169.00,39.50 168.50,39.00 169.00,38.50 170.00,38.50 170.50,39.00 170.00,39.50" />
<polyline fill="none" stroke="#090" stroke-width="1" stroke-dasharray="3,2" points="200.00,39.50 199.00,39.50 198.50,39.00 199.00,38.50 200.00,38.50 200.50,39.00 200.00,39.50" />
<polyline fill="none" stroke="#090" stroke-width="1" stroke-dasharray="3,2" points="168.00,40.50 167.50,40.00 168.00,39.50 168.50,40.00 168.00,40.50" />
<polyline fill="none" stroke="#090" stroke-width="1" stroke-dasharray="3,2" points="198.00,40.50 197.50,40.00 198.00,39.50 198.50,40.00 198.00,40.50" />
<polyline fill="none" stroke="#090" stroke-width="1" stroke-dasharray="3,2" points="167.00,41.50 166.00,41.50 165.50,41.00 166.00,40.50 167.00,40.50 167.50,41.00 167.00,41.50" />
<polyline fill="none" stroke="#090" stroke-width="1" stroke-dasharray="3,2" points="197.00,41.50 196.00,41.50 195.50,41.00 196.00,40.50 197.00,40.50 197.50,41.00 197.00,41.50" />
<polyline fill="none" stroke="#090" stroke-width="1" stroke-dasharray="3,2" points="165.00,42.50 164.50,42.00 165.00,41.50 165.50,42.00 165.00,42.50" />
<polyline fill="none" stroke="#090" stroke-width="1" stroke-dasharray="3,2" points="195.00,42.50 194.50,42.00 195.00,41.50 195.50,42.00 195.00,42.50" />
<polyline fill="none" stroke="#090" stroke-width="1" stroke-dasharray="3,2" points="164.00,43.50 163.50,43.00 164.00,42.50 164.50,43.00 164.00,43.50" />
<polyline fill="none" stroke="#090" stroke-width="1" stroke-dasharray="3,2" points="194.00,43.50 193.50,43.00 194.00,42.50 194.50,43.00 194.00,43.50" />
<polyline fill="none" stroke="#090" stroke-width="1" stroke-dasharray="3,2" points="163.00,44.50 162.50,44.00 163.00,43.50 163.50,44.00 163.00,44.50" />
<polyline fill="none" stroke="#090" stroke-width="1" stroke-dasharray="3,2" points="193.00,44.50 192.50,44.00 193.00,43.50 193.50,44.00 193.00,44.50" />
<polyline fill="none" stroke="#090" stroke-width="1" stroke-dasharray="3,2" points="162.00,48.50 161.50,48.00 161.50,47.00 161.50,46.00 161.50,45.00 162.00,44.50 162.50,45.00 162.50,46.00 162.50,47.00 162.50,48.00 162.00,48.50" />
<polyline fill="none" stroke="#090" stroke-width="1" stroke-dasharray="3,2" points="192.00,48.50 191.50,48.00 191.50,47.00 191.50,46.00 191.50,45.00 192.00,44.50 192.50,45.00 192.50,46.00 192.50,47.00 192.50,48.00 192.00,48.50" />
<polyline fill="none" stroke="#090" stroke-width="1" stroke-dasharray="3,2" points="161.00,53.50 160.50,53.00 160.50,52.00 160.50,51.00 160.50,50.00 160.50,49.00 161.00,48.50 161.50,49.00 161.50,50.00 161.50,51.00 161.50,52.00 161.50,53.00 161.00,53.50" />
<polyline fill="none" stroke="#090" stroke-width="1" stroke-dasharray="3,2" points="191.00,53.50 190.50,53.00 190.50,52.00 190.50,51.00 190.50,50.00 190.50,49.00 191.00,48.50 191.50,49.00 191.50,50.00 191.50,51.00 191.50,52.00 191.50,53.00 191.00,53.50" />
<polyline fill="none" stroke="#090" stroke-width="1" stroke-dasharray="3,2" points="160.00,57.50 159.50,57.00 159.50,56.00 159.50,55.00 159.50,54.00 160.00,53.50 160.50,54.00 160.50,55.00 160.50,56.00 160.50,57.00 160.00,57.50" />
<polyline fill="none" stroke="#090" stroke-width="1" stroke-dasharray="3,2" points="190.00,57.50 189.50,57.00 189.50,56.00 189.50,55.00 189.50,54.00 190.00,53.50 190.50,54.00 190.50,55.00 190.50,56.00 190.50,57.00 190.00,57.50" />
<polyline fill="none" stroke="#090" stroke-width="1" stroke-dasharray="3,2" points="159.00,62.50 158.50,62.00 158.50,61.00 158.50,60.00 158.50,59.00 158.50,58.00 159.00,57.50 159.50,58.00 159.50,59.00 159.50,60.00 159.50,61.00 159.50,62.00 159.00,62.50" />
<polyline fill="none" stroke="#090" stroke-width="1" stroke-dasharray="3,2" points="189.00,68.50 188.50,68.00 188.50,67.00 188.50,66.00 188.50,65.00 188.50,64.00 188.50,63.00 188.50,62.00 188.50,61.00 188.50,60.00 188.50,59.00 188.50,58.00 189.00,57.50 189.50,58.00 189.50,59.00 189.50,60.00 189.50,61.00 189.50,62.00 189.50,63.00 189.50,64.00 189.50,65.00 189.50,66.00 189.50,67.00 189.50,68.00 189.00,68.50" />
<polyline fill="none" stroke="#090" stroke-width="1" stroke-dasharray="3,2" points="158.00,67.50 157.50,67.00 157.50,66.00 157.50,65.00 157.50,64.00 157.50,63.00 158.00,62.50 158.50,63.00 158.50,64.00 158.50,65.00 158.50,66.00 158.50,67.00 158.00,67.50" />
<polyline fill="none" stroke="#090" stroke-width="1" stroke-dasharray="3,2" points="157.00,71.50 156.50,71.00 156.50,70.00 156.50,69.00 156.50,68.00 157.00,67.50 157.50,68.00 157.50,69.00 157.50,70.00 157.50,71.00 157.00,71.50" />
<polyline fill="none" stroke="#090" stroke-width="1" stroke-dasharray="3,2" points="188.00,72.50 187.50,72.00 187.50,71.00 187.50,70.00 187.50,69.00 188.00,68.50 188.50,69.00 188.50,70.00 188.50,71.00 188.50,72.00 188.00,72.50" />
<polyline fill="none" stroke="#090" stroke-width="1" stroke-dasharray="3,2" points="105.00,72.50 104.00,72.50 103.00,72.50 102.00,72.50 101.00,72.50 100.00,72.50 99.00,72.50 98.00,72.50 97.00,72.50 96.00,72.50 95.00,72.50 94.00,72.50 93.00,72.50 92.00,72.50 91.00,72.50 90.00,72.50 89.00,72.50 88.00,72.50 87.00,72.50 86.00,72.50 85.00,72.50 84.00,72.50 83.00,72.50 82.00,72.50 81.00,72.50 80.00,72.50 79.00,72.50 78.00,72.50 77.00,72.50 76.00,72.50 75.50,72.00 76.00,71.50 77.00,71.50 78.00,71.50 79.00,71.50 80.00,71.50 81.00,71.50 82.00,71.50 83.00,71.50 84.00,71.50 85.00,71.50 86.00,71.50 87.00,71.50 88.00,71.50 89.00,71.50 90.00,71.50 91.00,71.50 92.00,71.50 93.00,71.50 94.00,71.50 95.00,71.50 96.00,71.50 97.00,71.50 98.00,71.50 99.00,71.50 100.00,71.50 101.00,71.50 102.00,71.50 103.00,71.50 104.00,71.50 105.00,71.50 105.50,72.00 105.00,72.50" />
<polyline fill="none" stroke="#090" stroke-width="1" stroke-dasharray="3,2" points="136.00,72.50 135.00,72.50 134.00,72.50 133.00,72.50 132.00,72.50 131.00,72.50 130.00,72.50 129.00,72.50 128.00,72.50 127.00,72.50 126.00,72.50 125.00,72.50 124.50,72.00 125.00,71.50 126.00,71.50 127.00,71.50 128.00,71.50 129.00,71.50 130.00,71.50 131.00,71.50 132.00,71.50 133.00,71.50 134.00,71.50 135.00,71.50 136.00,71.50 136.50,72.00 136.00,72.50" />
<polyline fill="none" stroke="#090" stroke-width="1" stroke-dasharray="3,2" points="156.00,72.50 155.50,72.00 156.00,71.50 156.50,72.00 156.00,72.50" />
<polyline fill="none" stroke="#090" stroke-width="1" stroke-dasharray="3,2" points="75.00,73.50 74.00,73.50 73.00,73.50 72.00,73.50 71.00,73.50 70.00,73.50 69.50,73.00 70.00,72.50 71.00,72.50 72.00,72.50 73.00,72.50 74.00,72.50 75.00,72.50 75.50,73.00 75.00,73.50" />
<polyline fill="none" stroke="#090" stroke-width="1" stroke-dasharray="3,2" points="124.00,73.50 123.00,73.50 122.00,73.50 121.00,73.50 120.00,73.50 119.00,73.50 118.00,73.50 117.00,73.50 116.00,73.50 115.00,73.50 114.00,73.50 113.00,73.50 112.00,73.50 111.00,73.50 110.00,73.50 109.00,73.50 108.00,73.50 107.00,73.50 106.00,73.50 105.50,73.00 106.00,72.50 107.00,72.50 108.00,72.50 109.00,72.50 110.00,72.50 111.00,72.50 112.00,72.50 113.00,72.50 114.00,72.50 115.00,72.50 116.00,72.50 117.00,72.50 118.00,72.50 119.00,72.50 120.00,72.50 121.00,72.50 122.00,72.50 123.00,72.50 124.00,72.50 124.50,73.00 124.00,73.50" />
<polyline fill="none" stroke="#090" stroke-width="1" stroke-dasharray="3,2" points="155.00,73.50 154.00,73.50 153.00,73.50 152.00,73.50 151.00,73.50 150.00,73.50 149.00,73.50 148.00,73.50 147.00,73.50 146.00,73.50 145.00,73.50 144.00,73.50 143.00,73.50 142.00,73.50 141.00,73.50 140.00,73.50 139.00,73.50 138.00,73.50 137.00,73.50 136.50,73.00 137.00,72.50 138.00,72.50 139.00,72.50 140.00,72.50 141.00,72.50 142.00,72.50 143.00,72.50 144.00,72.50 145.00,72.50 146.00,72.50 147.00,72.50 148.00,72.50 149.00,72.50 150.00,72.50 151.00,72.50 152.00,72.50 153.00,72.50 154.00,72.50 155.00,72.50 155.50,73.00 155.00,73.50" />
<polyline fill="none" stroke="#090" stroke-width="1" stroke-dasharray="3,2" points="187.00,73.50 186.00,73.50 185.50,73.00 186.00,72.50 187.00,72.50 187.50,73.00 187.00,73.50" />
<polyline fill="none" stroke="#090" stroke-width="1" stroke-dasharray="3,2" points="217.00,73.50 216.00,73.50 215.00,73.50 214.00,73.50 213.00,73.50 212.00,73.50 211.00,73.50 210.00,73.50 209.00,73.50 208.00,73.50 207.00,73.50 206.00,73.50 205.00,73.50 204.00,73.50 203.00,73.50 202.00,73.50 201.00,73.50 200.00,73.50 199.00,73.50 198.00,73.50 197.00,73.50 196.00,73.50 195.00,73.50 194.00,73.50 193.00,73.50 192.00,73.50 191.00,73.50 190.00,73.50 189.00,73.50 188.50,73.00 189.00,72.50 190.00,72.50 191.00,72.50 192.00,72.50 193.00,72.50 194.00,72.50 195.00,72.50 196.00,72.50 197.00,72.50 198.00,72.50 199.00,72.50 200.00,72.50 201.00,72.50 202.00,72.50 203.00,72.50 204.00,72.50 205.00,72.50 206.00,72.50 207.00,72.50 208.00,72.50 209.00,72.50 210.00,72.50 211.00,72.50 212.00,72.50 213.00,72.50 214.00,72.50 215.00,72.50 216.00,72.50 217.00,72.50 217.50,73.00 217.00,73.50" />
<polyline fill="none" stroke="#090" stroke-width="1" stroke-dasharray="3,2" points="69.00,74.50 68.00,74.50 67.00,74.50 66.00,74.50 65.50,74.00 66.00,73.50 67.00,73.50 68.00,73.50 69.00,73.50 69.50,74.00 69.00,74.50" />
<polyline fill="none" stroke="#090" stroke-width="1" stroke-dasharray="3,2" points="185.00,74.50 184.50,74.00 185.00,73.50 185.50,74.00 185.00,74.50" />
<polyline fill="none" stroke="#090" stroke-width="1" stroke-dasharray="3,2" points="221.00,74.50 220.00,74.50 219.00,74.50 218.00,74.50 217.50,74.00 218.00,73.50 219.00,73.50 220.00,73.50 221.00,73.50 221.50,74.00 221.00,74.50" />
<polyline fill="none" stroke="#090" stroke-width="1" stroke-dasharray="3,2" points="65.00,75.50 64.50,75.00 65.00,74.50 65.50,75.00 65.00,75.50" />
<polyline fill="none" stroke="#090" stroke-width="1" stroke-dasharray="3,2" points="184.00,75.50 183.50,75.00 184.00,74.50 184.50,75.00 184.00,75.50" />
<polyline fill="none" stroke="#090" stroke-width="1" stroke-dasharray="3,2" points="225.00,75.50 224.00,75.50 223.00,75.50 222.00,75.50 221.50,75.00 222.00,74.50 223.00,74.50 224.00,74.50 225.00,74.50 225.50,75.00 225.00,75.50" />
<polyline fill="none" stroke="#090" stroke-width="1" stroke-dasharray="3,2" points="64.00,76.50 63.50,76.00 64.00,75.50 64.50,76.00 64.00,76.50" />
<polyline fill="none" stroke="#090" stroke-width="1" stroke-dasharray="3,2" points="183.00,76.50 182.00,76.50 181.50,76.00 182.00,75.50 183.00,75.50 183.50,76.00 183.00,76.50" />
<polyline fill="none" stroke="#090" stroke-width="1" stroke-dasharray="3,2" points="226.00,76.50 225.50,76.00 226.00,75.50 226.50,76.00 226.00,76.50" />
<polyline fill="none" stroke="#090" stroke-width="1" stroke-dasharray="3,2" points="63.00,79.50 62.50,79.00 62.50,78.00 62.50,77.00 63.00,76.50 63.50,77.00 63.50,78.00 63.50,79.00 63.00,79.50" />
<polyline fill="none" stroke="#090" stroke-width="1" stroke-dasharray="3,2" points="181.00,77.50 180.50,77.00 181.00,76.50 181.50,77.00 181.00,77.50" />
<polyline fill="none" stroke="#090" stroke-width="1" stroke-dasharray="3,2" points="228.00,77.50 227.00,77.50 226.50,77.00 227.00,76.50 228.00,76.50 228.50,77.00 228.00,77.50" />
<polyline fill="none" stroke="#090" stroke-width="1" stroke-dasharray="3,2" points="180.00,78.50 179.00,78.50 178.50,78.00 179.00,77.50 180.00,77.50 180.50,78.00 180.00,78.50" />
<polyline fill="none" stroke="#090" stroke-width="1" stroke-dasharray="3,2" points="229.00,78.50 228.50,78.00 229.00,77.50 229.50,78.00 229.00,78.50" />
<polyline fill="none" stroke="#090" stroke-width="1" stroke-dasharray="3,2" points="230.00,79.50 229.50,79.00 230.00,78.50 230.50,79.00 230.00,79.50" />
<polyline fill="none" stroke="#090" stroke-width="1" stroke-dasharray="3,2" points="62.00,83.50 61.50,83.00 61.50,82.00 61.50,81.00 61.50,80.00 62.00,79.50 62.50,80.00 62.50,81.00 62.50,82.00 62.50,83.00 62.00,83.50" />
<polyline fill="none" stroke="#090" stroke-width="1" stroke-dasharray="3,2" points="231.00,80.50 230.50,80.00 231.00,79.50 231.50,80.00 231.00,80.50" />
<polyline fill="none" stroke="#090" stroke-width="1" stroke-dasharray="3,2" points="232.00,81.50 231.50,81.00 232.00,80.50 232.50,81.00 232.00,81.50" />
<polyline fill="none" stroke="#090" stroke-width="1" stroke-dasharray="3,2" points="233.00,82.50 232.50,82.00 233.00,81.50 233.50,82.00 233.00,82.50" />
<polyline fill="none" stroke="#090" stroke-width="1" stroke-dasharray="3,2" points="234.00,83.50 233.50,83.00 234.00,82.50 234.50,83.00 234.00,83.50" />
<polyline fill="none" stroke="#090" stroke-width="1" stroke-dasharray="3,2" points="61.00,87.50 60.50,87.00 60.50,86.00 60.50,85.00 60.50,84.00 61.00,83.50 61.50,84.00 61.50,85.00 61.50,86.00 61.50,87.00 61.00,87.50" />
<polyline fill="none" stroke="#090" stroke-width="1" stroke-dasharray="3,2" points="235.00,84.50 234.50,84.00 235.00,83.50 235.50,84.00 235.00,84.50" />
<polyline fill="none" stroke="#090" stroke-width="1" stroke-dasharray="3,2" points="236.00,86.50 235.50,86.00 235.50,85.00 236.00,84.50 236.50,85.00 236.50,86.00 236.00,86.50" />
<polyline fill="none" stroke="#090" stroke-width="1" stroke-dasharray="3,2" points="237.00,89.50 236.50,89.00 236.50,88.00 236.50,87.00 237.00,86.50 237.50,87.00 237.50,88.00 237.50,89.00 237.00,89.50" />
<polyline fill="none" stroke="#090" stroke-width="1" stroke-dasharray="3,2" points="60.00,92.50 59.50,92.00 59.50,91.00 59.50,90.00 59.50,89.00 59.50,88.00 60.00,87.50 60.50,88.00 60.50,89.00 60.50,90.00 60.50,91.00 60.50,92.00 60.00,92.50" />
<polyline fill="none" stroke="#090" stroke-width="1" stroke-dasharray="3,2" points="238.00,95.50 237.50,95.00 237.50,94.00 237.50,93.00 237.50,92.00 237.50,91.00 237.50,90.00 238.00,89.50 238.50,90.00 238.50,91.00 238.50,92.00 238.50,93.00 238.50,94.00 238.50,95.00 238.00,95.50" />
<polyline fill="none" stroke="#090" stroke-width="1" stroke-dasharray="3,2" points="59.00,96.50 58.50,96.00 58.50,95.00 58.50,94.00 58.50,93.00 59.00,92.50 59.50,93.00 59.50,94.00 59.50,95.00 59.50,96.00 59.00,96.50" />
<polyline fill="none" stroke="#090" stroke-width="1" stroke-dasharray="3,2" points="239.00,102.50 238.50,102.00 238.50,101.00 238.50,100.00 238.50,99.00 238.50,98.00 238.50,97.00 238.50,96.00 239.00,95.50 239.50,96.00 239.50,97.00 239.50,98.00 239.50,99.00 239.50,100.00 239.50,101.00 239.50,102.00 239.00,102.50" />
<polyline fill="none" stroke="#090" stroke-width="1" stroke-dasharray="3,2" points="58.00,101.50 57.50,101.00 57.50,100.00 57.50,99.00 57.50,98.00 57.50,97.00 58.00,96.50 58.50,97.00 58.50,98.00 58.50,99.00 58.50,100.00 58.50,101.00 58.00,101.50" />
<polyline fill="none" stroke="#090" stroke-width="1" stroke-dasharray="3,2" points="57.00,106.50 56.50,106.00 56.50,105.00 56.50,104.00 56.50,103.00 56.50,102.00 57.00,101.50 57.50,102.00 57.50,103.00 57.50,104.00 57.50,105.00 57.50,106.00 57.00,106.50" />
<polyline fill="none" stroke="#090" stroke-width="1" stroke-dasharray="3,2" points="205.00,102.50 204.00,102.50 203.00,102.50 202.00,102.50 201.00,102.50 200.00,102.50 199.00,102.50 198.00,102.50 197.00,102.50 196.00,102.50 195.00,102.50 194.00,102.50 193.00,102.50 192.00,102.50 191.00,102.50 190.00,102.50 189.00,102.50 188.00,102.50 187.00,102.50 186.00,102.50 185.00,102.50 184.00,102.50 183.00,102.50 182.00,102.50 181.00,102.50 180.00,102.50 179.00,102.50 178.00,102.50 177.00,102.50 176.00,102.50 175.00,102.50 174.00,102.50 173.00,102.50 172.00,102.50 171.00,102.50 170.00,102.50 169.00,102.50 168.00,102.50 167.00,102.50 166.00,102.50 165.00,102.50 164.00,102.50 163.00,102.50 162.00,102.50 161.00,102.50 160.00,102.50 159.00,102.50 158.00,102.50 157.00,102.50 156.00,102.50 155.00,102.50 154.00,102.50 153.00,102.50 152.00,102.50 151.00,102.50 150.00,102.50 149.00,102.50 148.00,102.50 147.00,102.50 146.00,102.50 145.00,102.50 144.00,102.50 143.00,102.50 142.00,102.50 141.00,102.50 140.00,102.50 139.00,102.50 138.00,102.50 137.00,102.50 136.00,102.50 135.00,102.50 134.00,102.50 133.00,102.50 132.00,102.50 131.00,102.50 130.00,102.50 129.00,102.50 128.00,102.50 127.00,102.50 126.00,102.50 125.00,102.50 124.00,102.50 123.00,102.50 122.00,102.50 121.00,102.50 120.00,102.50 119.00,102.50 118.00,102.50 117.00,102.50 116.00,102.50 115.00,102.50 114.00,102.50 113.00,102.50 112.00,102.50 111.00,102.50 110.00,102.50 109.00,102.50 108.00,102.50 107.00,102.50 106.00,102.50 105.00,102.50 104.00,102.50 103.00,102.50 102.00,102.50 101.00,102.50 100.00,102.50 99.00,102.50 98.00,102.50 97.00,102.50 96.00,102.50 95.00,102.50 94.00,102.50 93.00,102.50 92.00,102.50 91.00,102.50 90.00,102.50 89.00,102.50 88.50,102.00 89.00,101.50 90.00,101.50 91.00,101.50 92.00,101.50 93.00,101.50 94.00,101.50 95.00,101.50 96.00,101.50 97.00,101.50 98.00,101.50 99.00,101.50 100.00,101.50 101.00,101.50 102.00,101.50 103.00,101.50 104.00,101.50 105.00,101.50 106.00,101.50 107.00,101.50 108.00,101.50 109.00,101.50 110.00,101.50 111.00,101.50 112.00,101.50 113.00,101.50 114.00,101.50 115.00,101.50 116.00,101.50 117.00,101.50 118.00,101.50 119.00,101.50 120.00,101.50 121.00,101.50 122.00,101.50 123.00,101.50 124.00,101.50 125.00,101.50 126.00,101.50 127.00,101.50 128.00,101.50 129.00,101.50 130.00,101.50 131.00,101.50 132.00,101.50 133.00,101.50 134.00,101.50 135.00,101.50 136.00,101.50 137.00,101.50 138.00,101.50 139.00,101.50 140.00,101.50 141.00,101.50 142.00,101.50 143.00,101.50 144.00,101.50 145.00,101.50 146.00,101.50 147.00,101.50 148.00,101.50 149.00,101.50 150.00,101.50 151.00,101.50 152.00,101.50 153.00,101.50 154.00,101.50 155.00,101.50 156.00,101.50 157.00,101.50 158.00,101.50 159.00,101.50 160.00,101.50 161.00,101.50 162.00,101.50 163.00,101.50 164.00,101.50 165.00,101.50 166.00,101.50 167.00,101.50 168.00,101.50 169.00,101.50 170.00,101.50 171.00,101.50 172.00,101.50 173.00,101.50 174.00,101.50 175.00,101.50 176.00,101.50 177.00,101.50 178.00,101.50 179.00,101.50 180.00,101.50 181.00,101.50 182.00,101.50 183.00,101.50 184.00,101.50 185.00,101.50 186.00,101.50 187.00,101.50 188.00,101.50 189.00,101.50 190.00,101.50 191.00,101.50 192.00,101.50 193.00,101.50 194.00,101.50 195.00,101.50 196.00,101.50 197.00,101.50 198.00,101.50 199.00,101.50 200.00,101.50 201.00,101.50 202.00,101.50 203.00,101.50 204.00,101.50 205.00,101.50 205.50,102.00 205.00,102.50" />
<polyline fill="none" stroke="#090" stroke-width="1" stroke-dasharray="3,2" points="88.00,103.50 87.50,103.00 88.00,102.50 88.50,103.00 88.00,103.50" />
<polyline fill="none" stroke="#090" stroke-width="1" stroke-dasharray="3,2" points="206.00,103.50 205.50,103.00 206.00,102.50 206.50,103.00 206.00,103.50" />
<polyline fill="none" stroke="#090" stroke-width="1" stroke-dasharray="3,2" points="238.00,111.50 237.50,111.00 237.50,110.00 237.50,109.00 237.50,108.00 237.50,107.00 237.50,106.00 237.50,105.00 237.50,104.00 237.50,103.00 238.00,102.50 238.50,103.00 238.50,104.00 238.50,105.00 238.50,106.00 238.50,107.00 238.50,108.00 238.50,109.00 238.50,110.00 238.50,111.00 238.00,111.50" />
<polyline fill="none" stroke="#090" stroke-width="1" stroke-dasharray="3,2" points="87.00,106.50 86.50,106.00 86.50,105.00 86.50,104.00 87.00,103.50 87.50,104.00 87.50,105.00 87.50,106.00 87.00,106.50" />
<polyline fill="none" stroke="#090" stroke-width="1" stroke-dasharray="3,2" points="207.00,110.50 206.50,110.00 206.50,109.00 206.50,108.00 206.50,107.00 206.50,106.00 206.50,105.00 206.50,104.00 207.00,103.50 207.50,104.00 207.50,105.00 207.50,106.00 207.50,107.00 207.50,108.00 207.50,109.00 207.50,110.00 207.00,110.50" />
<polyline fill="none" stroke="#090" stroke-width="1" stroke-dasharray="3,2" points="56.00,110.50 55.50,110.00 55.50,109.00 55.50,108.00 55.50,107.00 56.00,106.50 56.50,107.00 56.50,108.00 56.50,109.00 56.50,110.00 56.00,110.50" />
<polyline fill="none" stroke="#090" stroke-width="1" stroke-dasharray="3,2" points="86.00,110.50 85.50,110.00 85.50,109.00 85.50,108.00 85.50,107.00 86.00,106.50 86.50,107.00 86.50,108.00 86.50,109.00 86.50,110.00 86.00,110.50" />
<polyline fill="none" stroke="#090" stroke-width="1" stroke-dasharray="3,2" points="55.00,115.50 54.50,115.00 54.50,114.00 54.50,113.00 54.50,112.00 54.50,111.00 55.00,110.50 55.50,111.00 55.50,112.00 55.50,113.00 55.50,114.00 55.50,115.00 55.00,115.50" />
<polyline fill="none" stroke="#090" stroke-width="1" stroke-dasharray="3,2" points="85.00,115.50 84.50,115.00 84.50,114.00 84.50,113.00 84.50,112.00 84.50,111.00 85.00,110.50 85.50,111.00 85.50,112.00 85.50,113.00 85.50,114.00 85.50,115.00 85.00,115.50" />
<polyline fill="none" stroke="#090" stroke-width="1" stroke-dasharray="3,2" points="206.00,119.50 205.50,119.00 205.50,118.00 205.50,117.00 205.50,116.00 205.50,115.00 205.50,114.00 205.50,113.00 205.50,112.00 205.50,111.00 206.00,110.50 206.50,111.00 206.50,112.00 206.50,113.00 206.50,114.00 206.50,115.00 206.50,116.00 206.50,117.00 206.50,118.00 206.50,119.00 206.00,119.50" />
<polyline fill="none" stroke="#090" stroke-width="1" stroke-dasharray="3,2" points="237.00,116.50 236.50,116.00 236.50,115.00 236.50,114.00 236.50,113.00 236.50,112.00 237.00,111.50 237.50,112.00 237.50,113.00 237.50,114.00 237.50,115.00 237.50,116.00 237.00,116.50" />
<polyline fill="none" stroke="#090" stroke-width="1" stroke-dasharray="3,2" points="54.00,119.50 53.50,119.00 53.50,118.00 53.50,117.00 53.50,116.00 54.00,115.50 54.50,116.00 54.50,117.00 54.50,118.00 54.50,119.00 54.00,119.50" />
<polyline fill="none" stroke="#090" stroke-width="1" stroke-dasharray="3,2" points="84.00,120.50 83.50,120.00 83.50,119.00 83.50,118.00 83.50,117.00 83.50,116.00 84.00,115.50 84.50,116.00 84.50,117.00 84.50,118.00 84.50,119.00 84.50,120.00 84.00,120.50" />
<polyline fill="none" stroke="#090" stroke-width="1" stroke-dasharray="3,2" points="236.00,120.50 235.50,120.00 235.50,119.00 235.50,118.00 235.50,117.00 236.00,116.50 236.50,117.00 236.50,118.00 236.50,119.00 236.50,120.00 236.00,120.50" />
<polyline fill="none" stroke="#090" stroke-width="1" stroke-dasharray="3,2" points="53.00,124.50 52.50,124.00 52.50,123.00 52.50,122.00 52.50,121.00 52.50,120.00 53.00,119.50 53.50,120.00 53.50,121.00 53.50,122.00 53.50,123.00 53.50,124.00 53.00,124.50" />
<polyline fill="none" stroke="#090" stroke-width="1" stroke-dasharray="3,2" points="205.00,123.50 204.50,123.00 204.50,122.00 204.50,121.00 204.50,120.00 205.00,119.50 205.50,120.00 205.50,121.00 205.50,122.00 205.50,123.00 205.00,123.50" />
<polyline fill="none" stroke="#090" stroke-width="1" stroke-dasharray="3,2" points="83.00,124.50 82.50,124.00 82.50,123.00 82.50,122.00 82.50,121.00 83.00,120.50 83.50,121.00 83.50,122.00 83.50,123.00 83.50,124.00 83.00,124.50" />
<polyline fill="none" stroke="#090" stroke-width="1" stroke-dasharray="3,2" points="235.00,125.50 234.50,125.00 234.50,124.00 234.50,123.00 234.50,122.00 234.50,121.00 235.00,120.50 235.50,121.00 235.50,122.00 235.50,123.00 235.50,124.00 235.50,125.00 235.00,125.50" />
<polyline fill="none" stroke="#090" stroke-width="1" stroke-dasharray="3,2" points="204.00,128.50 203.50,128.00 203.50,127.00 203.50,126.00 203.50,125.00 203.50,124.00 204.00,123.50 204.50,124.00 204.50,125.00 204.50,126.00 204.50,127.00 204.50,128.00 204.00,128.50" />
<polyline fill="none" stroke="#090" stroke-width="1" stroke-dasharray="3,2" points="52.00,129.50 51.50,129.00 51.50,128.00 51.50,127.00 51.50,126.00 51.50,125.00 52.00,124.50 52.50,125.00 52.50,126.00 52.50,127.00 52.50,128.00 52.50,129.00 52.00,129.50" />
<polyline fill="none" stroke="#090" stroke-width="1" stroke-dasharray="3,2" points="82.00,129.50 81.50,129.00 81.50,128.00 81.50,127.00 81.50,126.00 81.50,125.00 82.00,124.50 82.50,125.00 82.50,126.00 82.50,127.00 82.50,128.00 82.50,129.00 82.00,129.50" />
<polyline fill="none" stroke="#090" stroke-width="1" stroke-dasharray="3,2" points="234.00,129.50 233.50,129.00 233.50,128.00 233.50,127.00 233.50,126.00 234.00,125.50 234.50,126.00 234.50,127.00 234.50,128.00 234.50,129.00 234.00,129.50" />
<polyline fill="none" stroke="#090" stroke-width="1" stroke-dasharray="3,2" points="203.00,133.50 202.50,133.00 202.50,132.00 202.50,131.00 202.50,130.00 202.50,129.00 203.00,128.50 203.50,129.00 203.50,130.00 203.50,131.00 203.50,132.00 203.50,133.00 203.00,133.50" />
<polyline fill="none" stroke="#090" stroke-width="1" stroke-dasharray="3,2" points="51.00,133.50 50.50,133.00 50.50,132.00 50.50,131.00 50.50,130.00 51.00,129.50 51.50,130.00 51.50,131.00 51.50,132.00 51.50,133.00 51.00,133.50" />
<polyline fill="none" stroke="#090" stroke-width="1" stroke-dasharray="3,2" points="81.00,133.50 80.50,133.00 80.50,132.00 80.50,131.00 80.50,130.00 81.00,129.50 81.50,130.00 81.50,131.00 81.50,132.00 81.50,133.00 81.00,133.50" />
<polyline fill="none" stroke="#090" stroke-width="1" stroke-dasharray="3,2" points="233.00,134.50 232.50,134.00 232.50,133.00 232.50,132.00 232.50,131.00 232.50,130.00 233.00,129.50 233.50,130.00 233.50,131.00 233.50,132.00 233.50,133.00 233.50,134.00 233.00,134.50" />
<polyline fill="none" stroke="#090" stroke-width="1" stroke-dasharray="3,2" points="50.00,138.50 49.50,138.00 49.50,137.00 49.50,136.00 49.50,135.00 49.50,134.00 50.00,133.50 50.50,134.00 50.50,135.00 50.50,136.00 50.50,137.00 50.50,138.00 50.00,138.50" />
<polyline fill="none" stroke="#090" stroke-width="1" stroke-dasharray="3,2" points="80.00,138.50 79.50,138.00 79.50,137.00 79.50,136.00 79.50,135.00 79.50,134.00 80.00,133.50 80.50,134.00 80.50,135.00 80.50,136.00 80.50,137.00 80.50,138.00 80.00,138.50" />
<polyline fill="none" stroke="#090" stroke-width="1" stroke-dasharray="3,2" points="202.00,137.50 201.50,137.00 201.50,136.00 201.50,135.00 201.50,134.00 202.00,133.50 202.50,134.00 202.50,135.00 202.50,136.00 202.50,137.00 202.00,137.50" />
<polyline fill="none" stroke="#090" stroke-width="1" stroke-dasharray="3,2" points="232.00,138.50 231.50,138.00 231.50,137.00 231.50,136.00 231.50,135.00 232.00,134.50 232.50,135.00 232.50,136.00 232.50,137.00 232.50,138.00 232.00,138.50" />
<polyline fill="none" stroke="#090" stroke-width="1" stroke-dasharray="3,2" points="201.00,142.50 200.50,142.00 200.50,141.00 200.50,140.00 200.50,139.00 200.50,138.00 201.00,137.50 201.50,138.00 201.50,139.00 201.50,140.00 201.50,141.00 201.50,142.00 201.00,142.50" />
<polyline fill="none" stroke="#090" stroke-width="1" stroke-dasharray="3,2" points="49.00,142.50 48.50,142.00 48.50,141.00 48.50,140.00 48.50,139.00 49.00,138.50 49.50,139.00 49.50,140.00 49.50,141.00 49.50,142.00 49.00,142.50" />
<polyline fill="none" stroke="#090" stroke-width="1" stroke-dasharray="3,2" points="79.00,143.50 78.50,143.00 78.50,142.00 78.50,141.00 78.50,140.00 78.50,139.00 79.00,138.50 79.50,139.00 79.50,140.00 79.50,141.00 79.50,142.00 79.50,143.00 79.00,143.50" />
<polyline fill="none" stroke="#090" stroke-width="1" stroke-dasharray="3,2" points="231.00,143.50 230.50,143.00 230.50,142.00 230.50,141.00 230.50,140.00 230.50,139.00 231.00,138.50 231.50,139.00 231.50,140.00 231.50,141.00 231.50,142.00 231.50,143.00 231.00,143.50" />
<polyline fill="none" stroke="#090" stroke-width="1" stroke-dasharray="3,2" points="48.00,147.50 47.50,147.00 47.50,146.00 47.50,145.00 47.50,144.00 47.50,143.00 48.00,142.50 48.50,143.00 48.50,144.00 48.50,145.00 48.50,146.00 48.50,147.00 48.00,147.50" />
<polyline fill="none" stroke="#090" stroke-width="1" stroke-dasharray="3,2" points="200.00,146.50 199.50,146.00 199.50,145.00 199.50,144.00 199.50,143.00 200.00,142.50 200.50,143.00 200.50,144.00 200.50,145.00 200.50,146.00 200.00,146.50" />
<polyline fill="none" stroke="#090" stroke-width="1" stroke-dasharray="3,2" points="78.00,147.50 77.50,147.00 77.50,146.00 77.50,145.00 77.50,144.00 78.00,143.50 78.50,144.00 78.50,145.00 78.50,146.00 78.50,147.00 78.00,147.50" />
<polyline fill="none" stroke="#090" stroke-width="1" stroke-dasharray="3,2" points="230.00,147.50 229.50,147.00 229.50,146.00 229.50,145.00 229.50,144.00 230.00,143.50 230.50,144.00 230.50,145.00 230.50,146.00 230.50,147.00 230.00,147.50" />
<polyline fill="none" stroke="#090" stroke-width="1" stroke-dasharray="3,2" points="199.00,151.50 198.50,151.00 198.50,150.00 198.50,149.00 198.50,148.00 198.50,147.00 199.00,146.50 199.50,147.00 199.50,148.00 199.50,149.00 199.50,150.00 199.50,151.00 199.00,151.50" />
<polyline fill="none" stroke="#090" stroke-width="1" stroke-dasharray="3,2" points="47.00,152.50 46.50,152.00 46.50,151.00 46.50,150.00 46.50,149.00 46.50,148.00 47.00,147.50 47.50,148.00 47.50,149.00 47.50,150.00 47.50,151.00 47.50,152.00 47.00,152.50" />
<polyline fill="none" stroke="#090" stroke-width="1" stroke-dasharray="3,2" points="77.00,152.50 76.50,152.00 76.50,151.00 76.50,150.00 76.50,149.00 76.50,148.00 77.00,147.50 77.50,148.00 77.50,149.00 77.50,150.00 77.50,151.00 77.50,152.00 77.00,152.50" />
<polyline fill="none" stroke="#090" stroke-width="1" stroke-dasharray="3,2" points="229.00,152.50 228.50,152.00 228.50,151.00 228.50,150.00 228.50,149.00 228.50,148.00 229.00,147.50 229.50,148.00 229.50,149.00 229.50,150.00 229.50,151.00 229.50,152.00 229.00,152.50" />
<polyline fill="none" stroke="#090" stroke-width="1" stroke-dasharray="3,2" points="198.00,156.50 197.50,156.00 197.50,155.00 197.50,154.00 197.50,153.00 197.50,152.00 198.00,151.50 198.50,152.00 198.50,153.00 198.50,154.00 198.50,155.00 198.50,156.00 198.00,156.50" />
<polyline fill="none" stroke="#090" stroke-width="1" stroke-dasharray="3,2" points="46.00,156.50 45.50,156.00 45.50,155.00 45.50,154.00 45.50,153.00 46.00,152.50 46.50,153.00 46.50,154.00 46.50,155.00 46.50,156.00 46.00,156.50" />
<polyline fill="none" stroke="#090" stroke-width="1" stroke-dasharray="3,2" points="76.00,156.50 75.50,156.00 75.50,155.00 75.50,154.00 75.50,153.00 76.00,152.50 76.50,153.00 76.50,154.00 76.50,155.00 76.50,156.00 76.00,156.50" />
<polyline fill="none" stroke="#090" stroke-width="1" stroke-dasharray="3,2" points="228.00,156.50 227.50,156.00 227.50,155.00 227.50,154.00 227.50,153.00 228.00,152.50 228.50,153.00 228.50,154.00 228.50,155.00 228.50,156.00 228.00,156.50" />
<polyline fill="none" stroke="#090" stroke-width="1" stroke-dasharray="3,2" points="45.00,161.50 44.50,161.00 44.50,160.00 44.50,159.00 44.50,158.00 44.50,157.00 45.00,156.50 45.50,157.00 45.50,158.00 45.50,159.00 45.50,160.00 45.50,161.00 45.00,161.50" />
<polyline fill="none" stroke="#090" stroke-width="1" stroke-dasharray="3,2" points="75.00,161.50 74.50,161.00 74.50,160.00 74.50,159.00 74.50,158.00 74.50,157.00 75.00,156.50 75.50,157.00 75.50,158.00 75.50,159.00 75.50,160.00 75.50,161.00 75.00,161.50" />
<polyline fill="none" stroke="#090" stroke-width="1" stroke-dasharray="3,2" points="197.00,160.50 196.50,160.00 196.50,159.00 196.50,158.00 196.50,157.00 197.00,156.50 197.50,157.00 197.50,158.00 197.50,159.00 197.50,160.00 197.00,160.50" />
<polyline fill="none" stroke="#090" stroke-width="1" stroke-dasharray="3,2" points="227.00,161.50 226.50,161.00 226.50,160.00 226.50,159.00 226.50,158.00 226.50,157.00 227.00,156.50 227.50,157.00 227.50,158.00 227.50,159.00 227.50,160.00 227.50,161.00 227.00,161.50" />
<polyline fill="none" stroke="#090" stroke-width="1" stroke-dasharray="3,2" points="196.00,165.50 195.50,165.00 195.50,164.00 195.50,163.00 195.50,162.00 195.50,161.00 196.00,160.50 196.50,161.00 196.50,162.00 196.50,163.00 196.50,164.00 196.50,165.00 196.00,165.50" />
<polyline fill="none" stroke="#090" stroke-width="1" stroke-dasharray="3,2" points="44.00,162.50 43.50,162.00 44.00,161.50 44.50,162.00 44.00,162.50" />
<polyline fill="none" stroke="#090" stroke-width="1" stroke-dasharray="3,2" points="74.00,162.50 73.50,162.00 74.00,161.50 74.50,162.00 74.00,162.50" />
<polyline fill="none" stroke="#090" stroke-width="1" stroke-dasharray="3,2" points="226.00,165.50 225.50,165.00 225.50,164.00 225.50,163.00 225.50,162.00 226.00,161.50 226.50,162.00 226.50,163.00 226.50,164.00 226.50,165.00 226.00,165.50" />
<polyline fill="none" stroke="#090" stroke-width="1" stroke-dasharray="3,2" points="43.00,163.50 42.50,163.00 43.00,162.50 43.50,163.00 43.00,163.50" />
<polyline fill="none" stroke="#090" stroke-width="1" stroke-dasharray="3,2" points="73.00,163.50 72.50,163.00 73.00,162.50 73.50,163.00 73.00,163.50" />
<polyline fill="none" stroke="#090" stroke-width="1" stroke-dasharray="3,2" points="42.00,164.50 41.50,164.00 42.00,163.50 42.50,164.00 42.00,164.50" />
<polyline fill="none" stroke="#090" stroke-width="1" stroke-dasharray="3,2" points="72.00,164.50 71.50,164.00 72.00,163.50 72.50,164.00 72.00,164.50" />
<polyline fill="none" stroke="#090" stroke-width="1" stroke-dasharray="3,2" points="41.00,165.50 40.00,165.50 39.50,165.00 40.00,164.50 41.00,164.50 41.50,165.00 41.00,165.50" />
<polyline fill="none" stroke="#090" stroke-width="1" stroke-dasharray="3,2" points="71.00,165.50 70.00,165.50 69.50,165.00 70.00,164.50 71.00,164.50 71.50,165.00 71.00,165.50" />
<polyline fill="none" stroke="#090" stroke-width="1" stroke-dasharray="3,2" points="39.00,166.50 38.50,166.00 39.00,165.50 39.50,166.00 39.00,166.50" />
<polyline fill="none" stroke="#090" stroke-width="1" stroke-dasharray="3,2" points="69.00,166.50 68.50,166.00 69.00,165.50 69.50,166.00 69.00,166.50" />
<polyline fill="none" stroke="#090" stroke-width="1" stroke-dasharray="3,2" points="195.00,169.50 194.50,169.00 194.50,168.00 194.50,167.00 194.50,166.00 195.00,165.50 195.50,166.00 195.50,167.00 195.50,168.00 195.50,169.00 195.00,169.50" />
<polyline fill="none" stroke="#090" stroke-width="1" stroke-dasharray="3,2" points="225.00,169.50 224.50,169.00 224.50,168.00 224.50,167.00 224.50,166.00 225.00,165.50 225.50,166.00 225.50,167.00 225.50,168.00 225.50,169.00 225.00,169.50" />
<polyline fill="none" stroke="#090" stroke-width="1" stroke-dasharray="3,2" points="38.00,167.50 37.00,167.50 36.50,167.00 37.00,166.50 38.00,166.50 38.50,167.00 38.00,167.50" />
<polyline fill="none" stroke="#090" stroke-width="1" stroke-dasharray="3,2" points="68.00,167.50 67.00,167.50 66.50,167.00 67.00,166.50 68.00,166.50 68.50,167.00 68.00,167.50" />
<polyline fill="none" stroke="#090" stroke-width="1" stroke-dasharray="3,2" points="194.00,174.50 193.50,174.00 193.50,173.00 193.50,172.00 193.50,171.00 193.50,170.00 194.00,169.50 194.50,170.00 194.50,171.00 194.50,172.00 194.50,173.00 194.50,174.00 194.00,174.50" />
<polyline fill="none" stroke="#090" stroke-width="1" stroke-dasharray="3,2" points="224.00,174.50 223.50,174.00 223.50,173.00 223.50,172.00 223.50,171.00 223.50,170.00 224.00,169.50 224.50,170.00 224.50,171.00 224.50,172.00 224.50,173.00 224.50,174.00 224.00,174.50" />
<polyline fill="none" stroke="#090" stroke-width="1" stroke-dasharray="3,2" points="193.00,179.50 192.50,179.00 192.50,178.00 192.50,177.00 192.50,176.00 192.50,175.00 193.00,174.50 193.50,175.00 193.50,176.00 193.50,177.00 193.50,178.00 193.50,179.00 193.00,179.50" />
<polyline fill="none" stroke="#090" stroke-width="1" stroke-dasharray="3,2" points="223.00,178.50 222.50,178.00 222.50,177.00 222.50,176.00 222.50,175.00 223.00,174.50 223.50,175.00 223.50,176.00 223.50,177.00 223.50,178.00 223.00,178.50" />
<polyline fill="none" stroke="#090" stroke-width="1" stroke-dasharray="3,2" points="222.00,183.50 221.50,183.00 221.50,182.00 221.50,181.00 221.50,180.00 221.50,179.00 222.00,178.50 222.50,179.00 222.50,180.00 222.50,181.00 222.50,182.00 222.50,183.00 222.00,183.50" />
<polyline fill="none" stroke="#090" stroke-width="1" stroke-dasharray="3,2" points="192.00,183.50 191.50,183.00 191.50,182.00 191.50,181.00 191.50,180.00 192.00,179.50 192.50,180.00 192.50,181.00 192.50,182.00 192.50,183.00 192.00,183.50" />
<polyline fill="none" stroke="#090" stroke-width="1" stroke-dasharray="3,2" points="191.00,188.50 190.50,188.00 190.50,187.00 190.50,186.00 190.50,185.00 190.50,184.00 191.00,183.50 191.50,184.00 191.50,185.00 191.50,186.00 191.50,187.00 191.50,188.00 191.00,188.50" />
<polyline fill="none" stroke="#090" stroke-width="1" stroke-dasharray="3,2" points="221.00,187.50 220.50,187.00 220.50,186.00 220.50,185.00 220.50,184.00 221.00,183.50 221.50,184.00 221.50,185.00 221.50,186.00 221.50,187.00 221.00,187.50" />
<polyline fill="none" stroke="#090" stroke-width="1" stroke-dasharray="3,2" points="220.00,192.50 219.50,192.00 219.50,191.00 219.50,190.00 219.50,189.00 219.50,188.00 220.00,187.50 220.50,188.00 220.50,189.00 220.50,190.00 220.50,191.00 220.50,192.00 220.00,192.50" />
<polyline fill="none" stroke="#090" stroke-width="1" stroke-dasharray="3,2" points="190.00,193.50 189.50,193.00 189.50,192.00 189.50,191.00 189.50,190.00 189.50,189.00 190.00,188.50 190.50,189.00 190.50,190.00 190.50,191.00 190.50,192.00 190.50,193.00 190.00,193.50" />
<polyline fill="none" stroke="#090" stroke-width="1" stroke-dasharray="3,2" points="219.00,196.50 218.50,196.00 218.50,195.00 218.50,194.00 218.50,193.00 219.00,192.50 219.50,193.00 219.50,194.00 219.50,195.00 219.50,196.00 219.00,196.50" />
<polyline fill="none" stroke="#090" stroke-width="1" stroke-dasharray="3,2" points="189.00,197.50 188.50,197.00 188.50,196.00 188.50,195.00 188.50,194.00 189.00,193.50 189.50,194.00 189.50,195.00 189.50,196.00 189.50,197.00 189.00,197.50" />
<polyline fill="none" stroke="#090" stroke-width="1" stroke-dasharray="3,2" points="218.00,201.50 217.50,201.00 217.50,200.00 217.50,199.00 217.50,198.00 217.50,197.00 218.00,196.50 218.50,197.00 218.50,198.00 218.50,199.00 218.50,200.00 218.50,201.00 218.00,201.50" />
<polyline fill="none" stroke="#090" stroke-width="1" stroke-dasharray="3,2" points="188.00,202.50 187.50,202.00 187.50,201.00 187.50,200.00 187.50,199.00 187.50,198.00 188.00,197.50 188.50,198.00 188.50,199.00 188.50,200.00 188.50,201.00 188.50,202.00 188.00,202.50" />
<polyline fill="none" stroke="#090" stroke-width="1" stroke-dasharray="3,2" points="217.00,205.50 216.50,205.00 216.50,204.00 216.50,203.00 216.50,202.00 217.00,201.50 217.50,202.00 217.50,203.00 217.50,204.00 217.50,205.00 217.00,205.50" />
<polyline fill="none" stroke="#090" stroke-width="1" stroke-dasharray="3,2" points="187.00,205.50 186.50,205.00 186.50,204.00 186.50,203.00 187.00,202.50 187.50,203.00 187.50,204.00 187.50,205.00 187.00,205.50" />
<polyline fill="none" stroke="#090" stroke-width="1" stroke-dasharray="3,2" points="186.00,206.50 185.50,206.00 186.00,205.50 186.50,206.00 186.00,206.50" />
<polyline fill="none" stroke="#090" stroke-width="1" stroke-dasharray="3,2" points="216.00,210.50 215.50,210.00 215.50,209.00 215.50,208.00 215.50,207.00 215.50,206.00 216.00,205.50 216.50,206.00 216.50,207.00 216.50,208.00 216.50,209.00 216.50,210.00 216.00,210.50" />
<polyline fill="none" stroke="#090" stroke-width="1" stroke-dasharray="3,2" points="185.00,207.50 184.00,207.50 183.50,207.00 184.00,206.50 185.00,206.50 185.50,207.00 185.00,207.50" />
<polyline fill="none" stroke="#090" stroke-width="1" stroke-dasharray="3,2" points="183.00,208.50 182.00,208.50 181.00,208.50 180.00,208.50 179.00,208.50 178.00,208.50 177.00,208.50 176.00,208.50 175.00,208.50 174.00,208.50 173.00,208.50 172.00,208.50 171.00,208.50 170.00,208.50 169.00,208.50 168.00,208.50 167.00,208.50 166.00,208.50 165.00,208.50 164.00,208.50 163.00,208.50 162.00,208.50 161.00,208.50 160.00,208.50 159.00,208.50 158.00,208.50 157.00,208.50 156.00,208.50 155.00,208.50 154.00,208.50 153.00,208.50 152.00,208.50 151.00,208.50 150.00,208.50 149.00,208.50 148.00,208.50 147.00,208.50 146.00,208.50 145.00,208.50 144.00,208.50 143.00,208.50 142.00,208.50 141.00,208.50 140.00,208.50 139.00,208.50 138.00,208.50 137.00,208.50 136.00,208.50 135.00,208.50 134.00,208.50 133.00,208.50 132.00,208.50 131.00,208.50 130.00,208.50 129.00,208.50 128.00,208.50 127.00,208.50 126.00,208.50 125.00,208.50 124.00,208.50 123.00,208.50 122.00,208.50 121.00,208.50 120.00,208.50 119.00,208.50 118.00,208.50 117.00,208.50 116.00,208.50 115.00,208.50 114.00,208.50 113.00,208.50 112.00,208.50 111.00,208.50 110.00,208.50 109.00,208.50 108.00,208.50 107.00,208.50 106.00,208.50 105.00,208.50 104.00,208.50 103.00,208.50 102.00,208.50 101.00,208.50 100.00,208.50 99.00,208.50 98.00,208.50 97.00,208.50 96.00,208.50 95.00,208.50 94.00,208.50 93.00,208.50 92.00,208.50 91.00,208.50 90.00,208.50 89.00,208.50 88.00,208.50 87.00,208.50 86.00,208.50 85.00,208.50 84.00,208.50 83.00,208.50 82.50,208.00 83.00,207.50 84.00,207.50 85.00,207.50 86.00,207.50 87.00,207.50 88.00,207.50 89.00,207.50 90.00,207.50 91.00,207.50 92.00,207.50 93.00,207.50 94.00,207.50 95.00,207.50 96.00,207.50 97.00,207.50 98.00,207.50 99.00,207.50 100.00,207.50 101.00,207.50 102.00,207.50 103.00,207.50 104.00,207.50 105.00,207.50 106.00,207.50 107.00,207.50 108.00,207.50 109.00,207.50 110.00,207.50 111.00,207.50 112.00,207.50 113.00,207.50 114.00,207.50 115.00,207.50 116.00,207.50 117.00,207.50 118.00,207.50 119.00,207.50 120.00,207.50 121.00,207.50 122.00,207.50 123.00,207.50 124.00,207.50 125.00,207.50 126.00,207.50 127.00,207.50 128.00,207.50 129.00,207.50 130.00,207.50 131.00,207.50 132.00,207.50 133.00,207.50 134.00,207.50 135.00,207.50 136.00,207.50 137.00,207.50 138.00,207.50 139.00,207.50 140.00,207.50 141.00,207.50 142.00,207.50 143.00,207.50 144.00,207.50 145.00,207.50 146.00,207.50 147.00,207.50 148.00,207.50 149.00,207.50 150.00,207.50 151.00,207.50 152.00,207.50 153.00,207.50 154.00,207.50 155.00,207.50 156.00,207.50 157.00,207.50 158.00,207.50 159.00,207.50 160.00,207.50 161.00,207.50 162.00,207.50 163.00,207.50 164.00,207.50 165.00,207.50 166.00,207.50 167.00,207.50 168.00,207.50 169.00,207.50 170.00,207.50 171.00,207.50 172.00,207.50 173.00,207.50 174.00,207.50 175.00,207.50 176.00,207.50 177.00,207.50 178.00,207.50 179.00,207.50 180.00,207.50 181.00,207.50 182.00,207.50 183.00,207.50 183.50,208.00 183.00,208.50" />
<polyline fill="none" stroke="#090" stroke-width="1" stroke-dasharray="3,2" points="82.00,209.50 81.00,209.50 80.50,209.00 81.00,208.50 82.00,208.50 82.50,209.00 82.00,209.50" />
<polyline fill="none" stroke="#090" stroke-width="1" stroke-dasharray="3,2" points="80.00,210.50 79.50,210.00 80.00,209.50 80.50,210.00 80.00,210.50" />
<polyline fill="none" stroke="#090" stroke-width="1" stroke-dasharray="3,2" points="79.00,211.50 78.00,211.50 77.50,211.00 78.00,210.50 79.00,210.50 79.50,211.00 79.00,211.50" />
<polyline fill="none" stroke="#090" stroke-width="1" stroke-dasharray="3,2" points="215.00,214.50 214.50,214.00 214.50,213.00 214.50,212.00 214.50,211.00 215.00,210.50 215.50,211.00 215.50,212.00 215.50,213.00 215.50,214.00 215.00,214.50" />
<polyline fill="none" stroke="#090" stroke-width="1" stroke-dasharray="3,2" points="77.00,212.50 76.50,212.00 77.00,211.50 77.50,212.00 77.00,212.50" />
<polyline fill="none" stroke="#090" stroke-width="1" stroke-dasharray="3,2" points="76.00,213.50 75.00,213.50 74.50,213.00 75.00,212.50 76.00,212.50 76.50,213.00 76.00,213.50" />
<polyline fill="none" stroke="#090" stroke-width="1" stroke-dasharray="3,2" points="74.00,214.50 73.50,214.00 74.00,213.50 74.50,214.00 74.00,214.50" />
<polyline fill="none" stroke="#090" stroke-width="1" stroke-dasharray="3,2" points="73.00,215.50 72.50,215.00 73.00,214.50 73.50,215.00 73.00,215.50" />
<polyline fill="none" stroke="#090" stroke-width="1" stroke-dasharray="3,2" points="214.00,217.50 213.50,217.00 213.50,216.00 213.50,215.00 214.00,214.50 214.50,215.00 214.50,216.00 214.50,217.00 214.00,217.50" />
<polyline fill="none" stroke="#090" stroke-width="1" stroke-dasharray="3,2" points="213.00,220.50 212.50,220.00 212.50,219.00 212.50,218.00 213.00,217.50 213.50,218.00 213.50,219.00 213.50,220.00 213.00,220.50" />
<polyline fill="none" stroke="#090" stroke-width="1" stroke-dasharray="3,2" points="212.00,222.50 211.50,222.00 211.50,221.00 212.00,220.50 212.50,221.00 212.50,222.00 212.00,222.50" />
<polyline fill="none" stroke="#090" stroke-width="1" stroke-dasharray="3,2" points="211.00,224.50 210.50,224.00 210.50,223.00 211.00,222.50 211.50,223.00 211.50,224.00 211.00,224.50" />
<polyline fill="none" stroke="#090" stroke-width="1" stroke-dasharray="3,2" points="210.00,226.50 209.50,226.00 209.50,225.00 210.00,224.50 210.50,225.00 210.50,226.00 210.00,226.50" />
<polyline fill="none" stroke="#090" stroke-width="1" stroke-dasharray="3,2" points="209.00,227.50 208.50,227.00 209.00,226.50 209.50,227.00 209.00,227.50" />
<polyline fill="none" stroke="#090" stroke-width="1" stroke-dasharray="3,2" points="208.00,228.50 207.50,228.00 208.00,227.50 208.50,228.00 208.00,228.50" />
<polyline fill="none" stroke="#090" stroke-width="1" stroke-dasharray="3,2" points="207.00,229.50 206.50,229.00 207.00,228.50 207.50,229.00 207.00,229.50" />
<polyline fill="none" stroke="#090" stroke-width="1" stroke-dasharray="3,2" points="206.00,230.50 205.50,230.00 206.00,229.50 206.50,230.00 206.00,230.50" />
<polyline fill="none" stroke="#090" stroke-width="1" stroke-dasharray="3,2" points="205.00,231.50 204.50,231.00 205.00,230.50 205.50,231.00 205.00,231.50" />
<polyline fill="none" stroke="#090" stroke-width="1" stroke-dasharray="3,2" points="204.00,232.50 203.50,232.00 204.00,231.50 204.50,232.00 204.00,232.50" />
<polyline fill="none" stroke="#090" stroke-width="1" stroke-dasharray="3,2" points="203.00,233.50 202.00,233.50 201.50,233.00 202.00,232.50 203.00,232.50 203.50,233.00 203.00,233.50" />
<polyline fill="none" stroke="#090" stroke-width="1" stroke-dasharray="3,2" points="201.00,234.50 200.00,234.50 199.50,234.00 200.00,233.50 201.00,233.50 201.50,234.00 201.00,234.50" />
<polyline fill="none" stroke="#090" stroke-width="1" stroke-dasharray="3,2" points="199.00,235.50 198.00,235.50 197.50,235.00 198.00,234.50 199.00,234.50 199.50,235.00 199.00,235.50" />
<polyline fill="none" stroke="#090" stroke-width="1" stroke-dasharray="3,2" points="197.00,236.50 196.00,236.50 195.00,236.50 194.00,236.50 193.00,236.50 192.00,236.50 191.00,236.50 190.50,236.00 191.00,235.50 192.00,235.50 193.00,235.50 194.00,235.50 195.00,235.50 196.00,235.50 197.00,235.50 197.50,236.00 197.00,236.50" />
<polyline fill="none" stroke="#090" stroke-width="1" stroke-dasharray="3,2" points="190.00,237.50 189.00,237.50 188.00,237.50 187.00,237.50 186.00,237.50 185.00,237.50 184.00,237.50 183.00,237.50 182.00,237.50 181.00,237.50 180.00,237.50 179.00,237.50 178.00,237.50 177.00,237.50 176.00,237.50 175.00,237.50 174.00,237.50 173.00,237.50 172.00,237.50 171.00,237.50 170.00,237.50 169.00,237.50 168.00,237.50 167.00,237.50 166.00,237.50 165.00,237.50 164.00,237.50 163.00,237.50 162.00,237.50 161.00,237.50 160.00,237.50 159.00,237.50 158.00,237.50 157.00,237.50 156.00,237.50 155.00,237.50 154.00,237.50 153.00,237.50 152.00,237.50 151.00,237.50 150.00,237.50 149.00,237.50 148.00,237.50 147.00,237.50 146.00,237.50 145.00,237.50 144.00,237.50 143.00,237.50 142.00,237.50 141.00,237.50 140.00,237.50 139.00,237.50 138.00,237.50 137.00,237.50 136.00,237.50 135.00,237.50 134.00,237.50 133.00,237.50 132.00,237.50 131.00,237.50 130.00,237.50 129.00,237.50 128.00,237.50 127.00,237.50 126.00,237.50 125.00,237.50 124.00,237.50 123.00,237.50 122.00,237.50 121.00,237.50 120.00,237.50 119.00,237.50 118.00,237.50 117.00,237.50 116.00,237.50 115.00,237.50 114.00,237.50 113.00,237.50 112.00,237.50 111.00,237.50 110.00,237.50 109.00,237.50 108.00,237.50 107.00,237.50 106.00,237.50 105.00,237.50 104.00,237.50 103.00,237.50 102.00,237.50 101.00,237.50 100.00,237.50 99.00,237.50 98.00,237.50 97.00,237.50 96.00,237.50 95.00,237.50 94.00,237.50 93.00,237.50 92.00,237.50 91.00,237.50 90.00,237.50 89.00,237.50 88.00,237.50 87.00,237.50 86.00,237.50 85.00,237.50 84.00,237.50 83.00,237.50 82.00,237.50 81.00,237.50 80.00,237.50 79.00,237.50 78.00,237.50 77.00,237.50 76.50,237.00 77.00,236.50 78.00,236.50 79.00,236.50 80.00,236.50 81.00,236.50 82.00,236.50 83.00,236.50 84.00,236.50 85.00,236.50 86.00,236.50 87.00,236.50 88.00,236.50 89.00,236.50 90.00,236.50 91.00,236.50 92.00,236.50 93.00,236.50 94.00,236.50 95.00,236.50 96.00,236.50 97.00,236.50 98.00,236.50 99.00,236.50 100.00,236.50 101.00,236.50 102.00,236.50 103.00,236.50 104.00,236.50 105.00,236.50 106.00,236.50 107.00,236.50 108.00,236.50 109.00,236.50 110.00,236.50 111.00,236.50 112.00,236.50 113.00,236.50 114.00,236.50 115.00,236.50 116.00,236.50 117.00,236.50 118.00,236.50 119.00,236.50 120.00,236.50 121.00,236.50 122.00,236.50 123.00,236.50 124.00,236.50 125.00,236.50 126.00,236.50 127.00,236.50 128.00,236.50 129.00,236.50 130.00,236.50 131.00,236.50 132.00,236.50 133.00,236.50 134.00,236.50 135.00,236.50 136.00,236.50 137.00,236.50 138.00,236.50 139.00,236.50 140.00,236.50 141.00,236.50 142.00,236.50 143.00,236.50 144.00,236.50 145.00,236.50 146.00,236.50 147.00,236.50 148.00,236.50 149.00,236.50 150.00,236.50 151.00,236.50 152.00,236.50 153.00,236.50 154.00,236.50 155.00,236.50 156.00,236.50 157.00,236.50 158.00,236.50 159.00,236.50 160.00,236.50 161.00,236.50 162.00,236.50 163.00,236.50 164.00,236.50 165.00,236.50 166.00,236.50 167.00,236.50 168.00,236.50 169.00,236.50 170.00,236.50 171.00,236.50 172.00,236.50 173.00,236.50 174.00,236.50 175.00,236.50 176.00,236.50 177.00,236.50 178.00,236.50 179.00,236.50 180.00,236.50 181.00,236.50 182.00,236.50 183.00,236.50 184.00,236.50 185.00,236.50 186.00,236.50 187.00,236.50 188.00,236.50 189.00,236.50 190.00,236.50 190.50,237.00 190.00,237.50" />
<polyline fill="none" stroke="#090" stroke-width="1" stroke-dasharray="3,2" points="76.00,238.50 75.00,238.50 74.50,238.00 75.00,237.50 76.00,237.50 76.50,238.00 76.00,238.50" />
<polyline fill="none" stroke="#090" stroke-width="1" stroke-dasharray="3,2" points="74.00,239.50 73.00,239.50 72.50,239.00 73.00,238.50 74.00,238.50 74.50,239.00 74.00,239.50" />
<polyline fill="none" stroke="#090" stroke-width="1" stroke-dasharray="3,2" points="72.00,240.50 71.50,240.00 72.00,239.50 72.50,240.00 72.00,240.50" />
<polyline fill="none" stroke="#090" stroke-width="1" stroke-dasharray="3,2" points="71.00,241.50 70.00,241.50 69.50,241.00 70.00,240.50 71.00,240.50 71.50,241.00 71.00,241.50" />
<circle cx="188.00" cy="72.00" r="8.00" fill="none" stroke="#f0f" stroke-width="1"/>
<polyline fill="none" stroke="#36f" stroke-width="1" points="188.00,216.50 187.00,216.50 186.00,216.50 185.00,216.50 184.00,216.50 183.00,216.50 182.00,216.50 181.00,216.50 180.00,216.50 179.00,216.50 178.00,216.50 177.00,216.50 176.00,216.50 175.00,216.50 174.00,216.50 173.00,216.50 172.00,216.50 171.00,216.50 170.00,216.50 169.00,216.50 168.00,216.50 167.00,216.50 166.00,216.50 165.00,216.50 164.00,216.50 163.00,216.50 162.00,216.50 161.00,216.50 160.00,216.50 159.00,216.50 158.00,216.50 157.00,216.50 156.00,216.50 155.00,216.50 154.00,216.50 153.00,216.50 152.00,216.50 151.00,216.50 150.00,216.50 149.00,216.50 148.00,216.50 147.00,216.50 146.00,216.50 145.00,216.50 144.00,216.50 143.00,216.50 142.00,216.50 141.00,216.50 140.00,216.50 139.00,216.50 138.00,216.50 137.00,216.50 136.00,216.50 135.00,216.50 134.00,216.50 133.00,216.50 132.00,216.50 131.00,216.50 130.00,216.50 129.00,216.50 128.00,216.50 127.00,216.50 126.00,216.50 125.00,216.50 124.00,216.50 123.00,216.50 122.00,216.50 121.00,216.50 120.00,216.50 119.00,216.50 118.00,216.50 117.00,216.50 116.00,216.50 115.00,216.50 114.00,216.50 113.00,216.50 112.00,216.50 111.00,216.50 110.00,216.50 109.00,216.50 108.00,216.50 107.00,216.50 106.00,216.50 105.00,216.50 104.00,216.50 103.00,216.50 102.00,216.50 101.00,216.50 100.00,216.50 99.00,216.50 98.00,216.50 97.00,216.50 96.00,216.50 95.00,216.50 94.00,216.50 93.00,216.50 92.00,216.50 91.00,216.50 90.00,216.50 89.00,216.50 88.00,216.50 87.00,216.50 86.00,216.50 85.00,216.50 84.00,216.50 83.00,216.50 82.00,216.50 81.00,216.50 80.00,216.50 79.00,216.50 78.00,216.50 77.00,216.50 76.00,216.50 75.00,216.50 74.00,216.50 73.00,216.50 72.00,216.50 71.50,216.00 71.50,215.00 71.50,214.00 71.50,213.00 72.00,212.50 72.50,212.00 72.50,211.00 72.50,210.00 72.50,209.00 73.00,208.50 73.50,208.00 73.50,207.00 73.50,206.00 73.50,205.00 73.50,204.00 74.00,203.50 74.50,203.00 74.50,202.00 74.50,201.00 75.00,200.50 76.00,200.50 77.00,200.50 78.00,200.50 79.00,200.50 80.00,200.50 81.00,200.50 82.00,200.50 83.00,200.50 84.00,200.50 85.00,200.50 86.00,200.50 87.00,200.50 88.00,200.50 89.00,200.50 90.00,200.50 91.00,200.50 92.00,200.50 93.00,200.50 94.00,200.50 95.00,200.50 96.00,200.50 97.00,200.50 98.00,200.50 99.00,200.50 100.00,200.50 101.00,200.50 102.00,200.50 103.00,200.50 104.00,200.50 105.00,200.50 106.00,200.50 107.00,200.50 108.00,200.50 109.00,200.50 110.00,200.50 111.00,200.50 112.00,200.50 113.00,200.50 114.00,200.50 115.00,200.50 116.00,200.50 117.00,200.50 118.00,200.50 119.00,200.50 120.00,200.50 121.00,200.50 122.00,200.50 123.00,200.50 124.00,200.50 125.00,200.50 126.00,200.50 127.00,200.50 128.00,200.50 129.00,200.50 130.00,200.50 131.00,200.50 132.00,200.50 133.00,200.50 134.00,200.50 135.00,200.50 136.00,200.50 137.00,200.50 138.00,200.50 139.00,200.50 140.00,200.50 141.00,200.50 142.00,200.50 143.00,200.50 144.00,200.50 145.00,200.50 146.00,200.50 147.00,200.50 148.00,200.50 149.00,200.50 150.00,200.50 151.00,200.50 152.00,200.50 153.00,200.50 154.00,200.50 155.00,200.50 156.00,200.50 157.00,200.50 158.00,200.50 159.00,200.50 160.00,200.50 161.00,200.50 162.00,200.50 163.00,200.50 164.00,200.50 165.00,200.50 166.00,200.50 167.00,200.50 168.00,200.50 169.00,200.50 170.00,200.50 171.00,200.50 172.00,200.50 173.00,200.50 174.00,200.50 175.00,200.50 176.00,200.50 177.00,200.50 178.00,200.50 179.00,200.50 179.50,200.00 180.00,199.50 180.50,199.00 180.50,198.00 180.50,197.00 180.50,196.00 181.00,195.50 181.50,195.00 181.50,194.00 181.50,193.00 181.50,192.00 181.50,191.00 182.00,190.50 182.50,190.00 182.50,189.00 182.50,188.00 182.50,187.00 183.00,186.50 183.50,186.00 183.50,185.00 183.50,184.00 183.50,183.00 183.50,182.00 184.00,181.50 184.50,181.00 184.50,180.00 184.50,179.00 184.50,178.00 184.50,177.00 185.00,176.50 185.50,176.00 185.50,175.00 185.50,174.00 185.50,173.00 186.00,172.50 186.50,172.00 186.50,171.00 186.50,170.00 186.50,169.00 186.50,168.00 187.00,167.50 187.50,167.00 187.50,166.00 187.50,165.00 187.50,164.00 187.50,163.00 188.00,162.50 188.50,162.00 188.50,161.00 188.50,160.00 188.50,159.00 189.00,158.50 189.50,158.00 189.50,157.00 189.50,156.00 189.50,155.00 189.50,154.00 190.00,153.50 190.50,153.00 190.50,152.00 190.50,151.00 190.50,150.00 191.00,149.50 191.50,149.00 191.50,148.00 191.50,147.00 191.50,146.00 191.50,145.00 192.00,144.50 192.50,144.00 192.50,143.00 192.50,142.00 192.50,141.00 192.50,140.00 193.00,139.50 193.50,139.00 193.50,138.00 193.50,137.00 193.50,136.00 194.00,135.50 194.50,135.00 194.50,134.00 194.50,133.00 194.50,132.00 194.50,131.00 195.00,130.50 195.50,130.00 195.50,129.00 195.50,128.00 195.50,127.00 196.00,126.50 196.50,126.00 196.50,125.00 196.50,124.00 196.50,123.00 196.50,122.00 197.00,121.50 197.50,121.00 197.50,120.00 197.50,119.00 197.50,118.00 197.50,117.00 198.00,116.50 198.50,116.00 198.50,115.00 198.50,114.00 198.50,113.00 199.00,112.50 199.50,112.00 199.50,111.00 199.00,110.50 198.50,110.00 198.00,109.50 197.50,110.00 197.00,110.50 196.00,110.50 195.00,110.50 194.00,110.50 193.00,110.50 192.00,110.50 191.00,110.50 190.00,110.50 189.00,110.50 188.00,110.50 187.00,110.50 186.00,110.50 185.00,110.50 184.00,110.50 183.00,110.50 182.00,110.50 181.00,110.50 180.00,110.50 179.00,110.50 178.00,110.50 177.00,110.50 176.00,110.50 175.00,110.50 174.00,110.50 173.00,110.50 172.00,110.50 171.00,110.50 170.00,110.50 169.00,110.50 168.00,110.50 167.00,110.50 166.00,110.50 165.00,110.50 164.00,110.50 163.00,110.50 162.00,110.50 161.00,110.50 160.00,110.50 159.00,110.50 158.00,110.50 157.00,110.50 156.00,110.50 155.00,110.50 154.00,110.50 153.00,110.50 152.00,110.50 151.00,110.50 150.00,110.50 149.00,110.50 148.00,110.50 147.00,110.50 146.00,110.50 145.00,110.50 144.00,110.50 143.00,110.50 142.00,110.50 141.00,110.50 140.00,110.50 139.00,110.50 138.00,110.50 137.00,110.50 136.00,110.50 135.00,110.50 134.00,110.50 133.00,110.50 132.00,110.50 131.00,110.50 130.00,110.50 129.00,110.50 128.00,110.50 127.00,110.50 126.00,110.50 125.00,110.50 124.00,110.50 123.00,110.50 122.00,110.50 121.00,110.50 120.00,110.50 119.00,110.50 118.00,110.50 117.00,110.50 116.00,110.50 115.00,110.50 114.00,110.50 113.00,110.50 112.00,110.50 111.00,110.50 110.00,110.50 109.00,110.50 108.00,110.50 107.00,110.50 106.00,110.50 105.00,110.50 104.00,110.50 103.00,110.50 102.00,110.50 101.00,110.50 100.00,110.50 99.00,110.50 98.00,110.50 97.00,110.50 96.00,110.50 95.00,110.50 94.00,110.50 93.50,111.00 93.50,112.00 93.50,113.00 93.00,113.50 92.50,114.00 92.50,115.00 92.50,116.00 92.50,117.00 92.50,118.00 92.00,118.50 91.50,119.00 91.50,120.00 91.50,121.00 91.50,122.00 91.00,122.50 90.50,123.00 90.50,124.00 90.50,125.00 90.50,126.00 90.50,127.00 90.00,127.50 89.50,128.00 89.50,129.00 89.50,130.00 89.50,131.00 89.50,132.00 89.00,132.50 88.50,133.00 88.50,134.00 88.50,135.00 88.50,136.00 88.00,136.50 87.50,137.00 87.50,138.00 87.50,139.00 87.50,140.00 87.50,141.00 87.00,141.50 86.50,142.00 86.50,143.00 86.50,144.00 86.50,145.00 86.00,145.50 85.50,146.00 85.50,147.00 85.50,148.00 85.50,149.00 85.50,150.00 85.00,150.50 84.50,151.00 84.50,152.00 84.50,153.00 84.50,154.00 84.50,155.00 84.00,155.50 83.50,156.00 83.50,157.00 83.50,158.00 83.50,159.00 83.00,159.50 82.50,160.00 82.50,161.00 82.50,162.00 82.50,163.00 82.50,164.00 82.00,164.50 81.50,165.00 81.50,166.00 81.50,167.00 81.50,168.00 81.00,168.50 80.50,169.00 80.00,169.50 79.00,169.50 78.00,169.50 77.00,169.50 76.00,169.50 75.00,169.50 74.00,169.50 73.00,169.50 72.00,169.50 71.00,169.50 70.00,169.50 69.00,169.50 68.00,169.50 67.00,169.50 66.00,169.50 65.50,169.00 65.50,168.00 65.50,167.00 65.50,166.00 65.50,165.00 65.50,164.00 66.00,163.50 66.50,163.00 66.50,162.00 66.50,161.00 66.50,160.00 67.00,159.50 67.50,159.00 67.50,158.00 67.50,157.00 67.50,156.00 67.50,155.00 68.00,154.50 68.50,154.00 68.50,153.00 68.50,152.00 68.50,151.00 68.50,150.00 69.00,149.50 69.50,149.00 69.50,148.00 69.50,147.00 69.50,146.00 70.00,145.50 70.50,145.00 70.50,144.00 70.50,143.00 70.50,142.00 70.50,141.00 71.00,140.50 71.50,140.00 71.50,139.00 71.50,138.00 71.50,137.00 72.00,136.50 72.50,136.00 72.50,135.00 72.50,134.00 72.50,133.00 72.50,132.00 73.00,131.50 73.50,131.00 73.50,130.00 73.50,129.00 73.50,128.00 73.50,127.00 74.00,126.50 74.50,126.00 74.50,125.00 74.50,124.00 74.50,123.00 75.00,122.50 75.50,122.00 75.50,121.00 75.50,120.00 75.50,119.00 75.50,118.00 76.00,117.50 76.50,117.00 76.50,116.00 76.50,115.00 76.50,114.00 77.00,113.50 77.50,113.00 77.50,112.00 77.50,111.00 77.50,110.00 77.50,109.00 78.00,108.50 78.50,108.00 78.50,107.00 78.50,106.00 78.50,105.00 78.50,104.00 79.00,103.50 79.50,103.00 79.50,102.00 79.50,101.00 79.50,100.00 80.00,99.50 80.50,99.00 80.50,98.00 80.50,97.00 80.50,96.00 80.50,95.00 81.00,94.50 82.00,94.50 83.00,94.50 84.00,94.50 85.00,94.50 86.00,94.50 87.00,94.50 88.00,94.50 89.00,94.50 90.00,94.50 91.00,94.50 92.00,94.50 93.00,94.50 94.00,94.50 95.00,94.50 96.00,94.50 97.00,94.50 98.00,94.50 99.00,94.50 100.00,94.50 101.00,94.50 102.00,94.50 103.00,94.50 104.00,94.50 105.00,94.50 106.00,94.50 107.00,94.50 108.00,94.50 109.00,94.50 110.00,94.50 111.00,94.50 112.00,94.50 113.00,94.50 114.00,94.50 115.00,94.50 116.00,94.50 117.00,94.50 118.00,94.50 119.00,94.50 120.00,94.50 121.00,94.50 122.00,94.50 123.00,94.50 124.00,94.50 125.00,94.50 126.00,94.50 127.00,94.50 128.00,94.50 129.00,94.50 130.00,94.50 131.00,94.50 132.00,94.50 133.00,94.50 134.00,94.50 135.00,94.50 136.00,94.50 137.00,94.50 138.00,94.50 139.00,94.50 140.00,94.50 141.00,94.50 142.00,94.50 143.00,94.50 144.00,94.50 145.00,94.50 146.00,94.50 147.00,94.50 148.00,94.50 149.00,94.50 150.00,94.50 151.00,94.50 152.00,94.50 153.00,94.50 154.00,94.50 155.00,94.50 156.00,94.50 157.00,94.50 158.00,94.50 159.00,94.50 160.00,94.50 161.00,94.50 162.00,94.50 163.00,94.50 164.00,94.50 165.00,94.50 166.00,94.50 167.00,94.50 168.00,94.50 169.00,94.50 170.00,94.50 171.00,94.50 172.00,94.50 173.00,94.50 174.00,94.50 175.00,94.50 176.00,94.50 177.00,94.50 178.00,94.50 179.00,94.50 180.00,94.50 181.00,94.50 182.00,94.50 183.00,94.50 184.00,94.50 185.00,94.50 186.00,94.50 187.00,94.50 188.00,94.50 189.00,94.50 190.00,94.50 191.00,94.50 192.00,94.50 193.00,94.50 194.00,94.50 195.00,94.50 196.00,94.50 197.00,94.50 198.00,94.50 199.00,94.50 200.00,94.50 201.00,94.50 202.00,94.50 203.00,94.50 204.00,94.50 205.00,94.50 206.00,94.50 207.00,94.50 208.00,94.50 209.00,94.50 210.00,94.50 211.00,94.50 212.00,94.50 213.00,94.50 213.50,95.00 214.00,95.50 215.00,95.50 215.50,96.00 216.00,96.50 216.50,97.00 216.50,98.00 217.00,98.50 217.50,99.00 217.50,100.00 217.50,101.00 217.50,102.00 217.50,103.00 217.00,103.50 216.50,104.00 216.50,105.00 216.50,106.00 216.50,107.00 216.50,108.00 216.00,108.50 215.50,109.00 215.50,110.00 215.50,111.00 215.50,112.00 215.00,112.50 214.50,113.00 214.50,114.00 214.50,115.00 214.50,116.00 214.50,117.00 214.00,117.50 213.50,118.00 213.50,119.00 213.50,120.00 213.50,121.00 213.50,122.00 213.00,122.50 212.50,123.00 212.50,124.00 212.50,125.00 212.50,126.00 212.00,126.50 211.50,127.00 211.50,128.00 211.50,129.00 211.50,130.00 211.50,131.00 211.00,131.50 210.50,132.00 210.50,133.00 210.50,134.00 210.50,135.00 210.00,135.50 209.50,136.00 209.50,137.00 209.50,138.00 209.50,139.00 209.50,140.00 209.00,140.50 208.50,141.00 208.50,142.00 208.50,143.00 208.50,144.00 208.50,145.00 208.00,145.50 207.50,146.00 207.50,147.00 207.50,148.00 207.50,149.00 207.00,149.50 206.50,150.00 206.50,151.00 206.50,152.00 206.50,153.00 206.50,154.00 206.00,154.50 205.50,155.00 205.50,156.00 205.50,157.00 205.50,158.00 205.00,158.50 204.50,159.00 204.50,160.00 204.50,161.00 204.50,162.00 204.50,163.00 204.00,163.50 203.50,164.00 203.50,165.00 203.50,166.00 203.50,167.00 203.00,167.50 202.50,168.00 202.50,169.00 202.50,170.00 202.50,171.00 202.50,172.00 202.00,172.50 201.50,173.00 201.50,174.00 201.50,175.00 201.50,176.00 201.50,177.00 201.00,177.50 200.50,178.00 200.50,179.00 200.50,180.00 200.50,181.00 200.00,181.50 199.50,182.00 199.50,183.00 199.50,184.00 199.50,185.00 199.50,186.00 199.00,186.50 198.50,187.00 198.50,188.00 198.50,189.00 198.50,190.00 198.50,191.00 198.00,191.50 197.50,192.00 197.50,193.00 197.50,194.00 197.50,195.00 197.00,195.50 196.50,196.00 196.50,197.00 196.50,198.00 196.50,199.00 196.50,200.00 196.00,200.50 195.50,201.00 195.50,202.00 195.50,203.00 195.50,204.00 195.00,204.50 194.50,205.00 194.50,206.00 194.50,207.00 194.50,208.00 194.50,209.00 194.00,209.50 193.50,210.00 193.50,211.00 193.50,212.00 193.00,212.50 192.50,213.00 192.50,214.00 192.00,214.50 191.00,214.50 190.50,215.00 190.00,215.50 189.00,215.50 188.50,216.00 188.00,216.50" />
</svg>