<svg xmlns="http://www.w3.org/2000/svg" width="500" height="500" viewBox="0 0 500 500">
<polyline fill="none" stroke="#222" stroke-width="1" points="267.00,398.50 266.00,398.50 265.00,398.50 264.00,398.50 263.00,398.50 262.00,398.50 261.00,398.50 260.00,398.50 259.00,398.50 258.00,398.50 257.00,398.50 256.00,398.50 255.00,398.50 254.00,398.50 253.00,398.50 252.00,398.50 251.00,398.50 250.00,398.50 249.00,398.50 248.00,398.50 247.00,398.50 246.00,398.50 245.00,398.50 244.00,398.50 243.00,398.50 242.00,398.50 241.00,398.50 240.00,398.50 239.00,398.50 238.00,398.50 237.00,398.50 236.00,398.50 235.00,398.50 234.00,398.50 233.00,398.50 232.00,398.50 231.00,398.50 230.00,398.50 229.00,398.50 228.00,398.50 227.00,398.50 226.00,398.50 225.00,398.50 224.00,398.50 223.00,398.50 222.00,398.50 221.00,398.50 220.00,398.50 219.00,398.50 218.00,398.50 217.00,398.50 216.00,398.50 215.50,398.00 215.50,397.00 215.50,396.00 215.50,395.00 215.50,394.00 215.50,393.00 215.50,392.00 215.50,391.00 215.50,390.00 215.50,389.00 215.50,388.00 215.50,387.00 215.50,386.00 215.50,385.00 215.50,384.00 215.50,383.00 215.50,382.00 215.50,381.00 215.50,380.00 215.50,379.00 215.50,378.00 215.50,377.00 215.50,376.00 215.50,375.00 215.50,374.00 215.50,373.00 215.50,372.00 215.50,371.00 215.50,370.00 215.50,369.00 215.50,368.00 215.50,367.00 215.50,366.00 215.50,365.00 215.50,364.00 215.50,363.00 215.50,362.00 215.50,361.00 215.50,360.00 215.50,359.00 215.50,358.00 215.50,357.00 215.50,356.00 215.50,355.00 215.50,354.00 215.50,353.00 215.50,352.00 215.50,351.00 215.50,350.00 215.50,349.00 215.50,348.00 215.50,347.00 215.50,346.00 215.50,345.00 215.50,344.00 215.50,343.00 215.50,342.00 215.50,341.00 215.50,340.00 215.50,339.00 215.50,338.00 215.50,337.00 215.50,336.00 215.50,335.00 215.50,334.00 215.50,333.00 215.50,332.00 215.50,331.00 215.50,330.00 215.50,329.00 215.50,328.00 215.50,327.00 215.50,326.00 215.50,325.00 215.50,324.00 215.50,323.00 215.50,322.00 215.50,321.00 215.50,320.00 215.50,319.00 215.50,318.00 215.50,317.00 215.50,316.00 215.50,315.00 215.50,314.00 215.50,313.00 215.50,312.00 215.50,311.00 215.50,310.00 215.50,309.00 215.50,308.00 215.50,307.00 215.50,306.00 215.50,305.00 215.50,304.00 215.50,303.00 215.50,302.00 215.50,301.00 215.50,300.00 215.50,299.00 215.50,298.00 215.50,297.00 215.50,296.00 215.50,295.00 215.50,294.00 215.50,293.00 215.50,292.00 215.50,291.00 215.50,290.00 215.50,289.00 215.50,288.00 215.50,287.00 215.50,286.00 215.00,285.50 214.50,285.00 214.50,284.00 214.00,283.50 213.50,283.00 213.50,282.00 213.00,281.50 212.50,281.00 212.50,280.00 212.00,279.50 211.50,279.00 211.00,278.50 210.50,278.00 210.50,277.00 210.00,276.50 209.50,276.00 209.50,275.00 209.00,274.50 208.50,274.00 208.00,273.50 207.50,273.00 207.50,272.00 207.00,271.50 206.50,271.00 206.50,270.00 206.00,269.50 205.50,269.00 205.50,268.00 205.00,267.50 204.50,267.00 204.00,266.50 203.50,266.00 203.50,265.00 203.00,264.50 202.50,264.00 202.50,263.00 202.00,262.50 201.50,262.00 201.50,261.00 201.00,260.50 200.50,260.00 200.00,259.50 199.50,259.00 199.50,258.00 199.00,257.50 198.50,257.00 198.50,256.00 198.00,255.50 197.50,255.00 197.50,254.00 197.00,253.50 196.50,253.00 196.00,252.50 195.50,252.00 195.50,251.00 195.00,250.50 194.50,250.00 194.50,249.00 194.00,248.50 193.50,248.00 193.00,247.50 192.50,247.00 192.50,246.00 192.00,245.50 191.50,245.00 191.50,244.00 191.00,243.50 190.50,243.00 190.50,242.00 190.00,241.50 189.50,241.00 189.00,240.50 188.50,240.00 188.50,239.00 188.00,238.50 187.50,238.00 187.50,237.00 187.00,236.50 186.50,236.00 186.50,235.00 186.00,234.50 185.50,234.00 185.00,233.50 184.50,233.00 184.50,232.00 184.00,231.50 183.50,231.00 183.50,230.00 183.00,229.50 182.50,229.00 182.50,228.00 182.00,227.50 181.50,227.00 181.00,226.50 180.50,226.00 180.50,225.00 180.00,224.50 179.50,224.00 179.50,223.00 179.00,222.50 178.50,222.00 178.00,221.50 177.50,221.00 177.50,220.00 177.00,219.50 176.50,219.00 176.50,218.00 176.00,217.50 175.50,217.00 175.50,216.00 175.00,215.50 174.50,215.00 174.00,214.50 173.50,214.00 173.50,213.00 173.00,212.50 172.50,212.00 172.50,211.00 172.00,210.50 171.50,210.00 171.50,209.00 171.00,208.50 170.50,208.00 170.00,207.50 169.50,207.00 169.50,206.00 169.00,205.50 168.50,205.00 168.50,204.00 168.00,203.50 167.50,203.00 167.50,202.00 167.00,201.50 166.50,201.00 166.00,200.50 165.50,200.00 165.50,199.00 165.00,198.50 164.50,198.00 164.50,197.00 164.00,196.50 163.50,196.00 163.00,195.50 162.50,195.00 162.50,194.00 162.00,193.50 161.50,193.00 161.50,192.00 161.00,191.50 160.50,191.00 160.50,190.00 160.00,189.50 159.50,189.00 159.00,188.50 158.50,188.00 158.50,187.00 158.00,186.50 157.50,186.00 157.50,185.00 157.00,184.50 156.50,184.00 156.50,183.00 156.00,182.50 155.50,182.00 155.00,181.50 154.50,181.00 154.50,180.00 154.00,179.50 153.50,179.00 153.50,178.00 153.00,177.50 152.50,177.00 152.00,176.50 151.50,176.00 151.50,175.00 151.00,174.50 150.50,174.00 150.50,173.00 150.00,172.50 149.50,172.00 149.50,171.00 149.00,170.50 148.50,170.00 148.00,169.50 147.50,169.00 147.50,168.00 147.00,167.50 146.50,167.00 146.50,166.00 146.00,165.50 145.50,165.00 145.50,164.00 145.00,163.50 144.50,163.00 144.00,162.50 143.50,162.00 143.50,161.00 143.00,160.50 142.50,160.00 142.50,159.00 142.00,158.50 141.50,158.00 141.50,157.00 141.00,156.50 140.50,156.00 140.00,155.50 139.50,155.00 139.50,154.00 139.00,153.50 138.50,153.00 138.50,152.00 138.00,151.50 137.50,151.00 137.00,150.50 136.50,150.00 136.50,149.00 136.00,148.50 135.50,148.00 135.50,147.00 135.00,146.50 134.50,146.00 134.50,145.00 134.00,144.50 133.50,144.00 133.00,143.50 132.50,143.00 132.50,142.00 132.00,141.50 131.50,141.00 131.50,140.00 131.00,139.50 130.50,139.00 130.50,138.00 130.00,137.50 129.50,137.00 129.00,136.50 128.50,136.00 128.50,135.00 128.00,134.50 127.50,134.00 127.50,133.00 127.00,132.50 126.50,132.00 126.50,131.00 126.00,130.50 125.50,130.00 125.00,129.50 124.50,129.00 124.50,128.00 124.00,127.50 123.50,127.00 123.50,126.00 123.00,125.50 122.50,125.00 122.00,124.50 121.50,124.00 121.50,123.00 121.00,122.50 120.50,122.00 120.50,121.00 120.00,120.50 119.50,120.00 119.50,119.00 119.00,118.50 118.50,118.00 118.00,117.50 117.50,117.00 117.50,116.00 117.00,115.50 116.50,115.00 116.50,114.00 116.00,113.50 115.50,113.00 115.50,112.00 115.00,111.50 114.50,111.00 114.00,110.50 113.50,110.00 113.50,109.00 113.00,108.50 112.50,108.00 112.50,107.00 112.00,106.50 111.50,106.00 111.50,105.00 111.00,104.50 110.50,104.00 110.00,103.50 109.50,103.00 109.50,102.00 109.00,101.50 108.50,101.00 108.50,100.00 108.00,99.50 107.50,99.00 107.00,98.50 106.50,98.00 106.50,97.00 106.00,96.50 105.50,96.00 105.50,95.00 105.00,94.50 104.50,94.00 104.50,93.00 104.00,92.50 103.50,92.00 103.00,91.50 102.50,91.00 102.50,90.00 102.00,89.50 101.50,89.00 101.50,88.00 101.00,87.50 100.50,87.00 100.50,86.00 101.00,85.50 102.00,85.50 103.00,85.50 104.00,85.50 105.00,85.50 106.00,85.50 107.00,85.50 108.00,85.50 109.00,85.50 110.00,85.50 111.00,85.50 112.00,85.50 113.00,85.50 114.00,85.50 115.00,85.50 116.00,85.50 117.00,85.50 118.00,85.50 119.00,85.50 120.00,85.50 121.00,85.50 122.00,85.50 123.00,85.50 124.00,85.50 125.00,85.50 126.00,85.50 127.00,85.50 128.00,85.50 129.00,85.50 130.00,85.50 131.00,85.50 132.00,85.50 133.00,85.50 134.00,85.50 135.00,85.50 136.00,85.50 137.00,85.50 138.00,85.50 139.00,85.50 140.00,85.50 141.00,85.50 142.00,85.50 143.00,85.50 144.00,85.50 145.00,85.50 146.00,85.50 147.00,85.50 148.00,85.50 149.00,85.50 150.00,85.50 151.00,85.50 152.00,85.50 153.00,85.50 154.00,85.50 155.00,85.50 156.00,85.50 157.00,85.50 158.00,85.50 159.00,85.50 160.00,85.50 161.00,85.50 162.00,85.50 163.00,85.50 164.00,85.50 165.00,85.50 166.00,85.50 167.00,85.50 168.00,85.50 169.00,85.50 169.50,86.00 170.00,86.50 170.50,87.00 170.50,88.00 171.00,88.50 171.50,89.00 171.50,90.00 172.00,90.50 172.50,91.00 173.00,91.50 173.50,92.00 173.50,93.00 174.00,93.50 174.50,94.00 174.50,95.00 175.00,95.50 175.50,96.00 176.00,96.50 176.50,97.00 176.50,98.00 177.00,98.50 177.50,99.00 177.50,100.00 178.00,100.50 178.50,101.00 178.50,102.00 179.00,102.50 179.50,103.00 180.00,103.50 180.50,104.00 180.50,105.00 181.00,105.50 181.50,106.00 181.50,107.00 182.00,107.50 182.50,108.00 182.50,109.00 183.00,109.50 183.50,110.00 184.00,110.50 184.50,111.00 184.50,112.00 185.00,112.50 185.50,113.00 185.50,114.00 186.00,114.50 186.50,115.00 186.50,116.00 187.00,116.50 187.50,117.00 188.00,117.50 188.50,118.00 188.50,119.00 189.00,119.50 189.50,120.00 189.50,121.00 190.00,121.50 190.50,122.00 191.00,122.50 191.50,123.00 191.50,124.00 192.00,124.50 192.50,125.00 192.50,126.00 193.00,126.50 193.50,127.00 193.50,128.00 194.00,128.50 194.50,129.00 195.00,129.50 195.50,130.00 195.50,131.00 196.00,131.50 196.50,132.00 196.50,133.00 197.00,133.50 197.50,134.00 197.50,135.00 198.00,135.50 198.50,136.00 199.00,136.50 199.50,137.00 199.50,138.00 200.00,138.50 200.50,139.00 200.50,140.00 201.00,140.50 201.50,141.00 202.00,141.50 202.50,142.00 202.50,143.00 203.00,143.50 203.50,144.00 203.50,145.00 204.00,145.50 204.50,146.00 204.50,147.00 205.00,147.50 205.50,148.00 206.00,148.50 206.50,149.00 206.50,150.00 207.00,150.50 207.50,151.00 207.50,152.00 208.00,152.50 208.50,153.00 208.50,154.00 209.00,154.50 209.50,155.00 210.00,155.50 210.50,156.00 210.50,157.00 211.00,157.50 211.50,158.00 211.50,159.00 212.00,159.50 212.50,160.00 212.50,161.00 213.00,161.50 213.50,162.00 214.00,162.50 214.50,163.00 214.50,164.00 215.00,164.50 215.50,165.00 215.50,166.00 216.00,166.50 216.50,167.00 217.00,167.50 217.50,168.00 217.50,169.00 218.00,169.50 218.50,170.00 218.50,171.00 219.00,171.50 219.50,172.00 219.50,173.00 220.00,173.50 220.50,174.00 221.00,174.50 221.50,175.00 221.50,176.00 222.00,176.50 222.50,177.00 222.50,178.00 223.00,178.50 223.50,179.00 223.50,180.00 224.00,180.50 224.50,181.00 225.00,181.50 225.50,182.00 225.50,183.00 226.00,183.50 226.50,184.00 226.50,185.00 227.00,185.50 227.50,186.00 227.50,187.00 228.00,187.50 228.50,188.00 229.00,188.50 229.50,189.00 229.50,190.00 230.00,190.50 230.50,191.00 230.50,192.00 231.00,192.50 231.50,193.00 232.00,193.50 232.50,194.00 232.50,195.00 233.00,195.50 233.50,196.00 233.50,197.00 234.00,197.50 234.50,198.00 234.50,199.00 235.00,199.50 235.50,200.00 236.00,200.50 236.50,201.00 236.50,202.00 237.00,202.50 237.50,203.00 237.50,204.00 238.00,204.50 238.50,205.00 238.50,206.00 239.00,206.50 239.50,207.00 240.00,207.50 240.50,208.00 240.50,209.00 241.00,209.50 242.00,209.50 242.50,209.00 243.00,208.50 243.50,208.00 243.50,207.00 244.00,206.50 244.50,206.00 244.50,205.00 245.00,204.50 245.50,204.00 245.50,203.00 246.00,202.50 246.50,202.00 247.00,201.50 247.50,201.00 247.50,200.00 248.00,199.50 248.50,199.00 248.50,198.00 249.00,197.50 249.50,197.00 250.00,196.50 250.50,196.00 250.50,195.00 251.00,194.50 251.50,194.00 251.50,193.00 252.00,192.50 252.50,192.00 252.50,191.00 253.00,190.50 253.50,190.00 254.00,189.50 254.50,189.00 254.50,188.00 255.00,187.50 255.50,187.00 255.50,186.00 256.00,185.50 256.50,185.00 256.50,184.00 257.00,183.50 257.50,183.00 258.00,182.50 258.50,182.00 258.50,181.00 259.00,180.50 259.50,180.00 259.50,179.00 260.00,178.50 260.50,178.00 260.50,177.00 261.00,176.50 261.50,176.00 262.00,175.50 262.50,175.00 262.50,174.00 263.00,173.50 263.50,173.00 263.50,172.00 264.00,171.50 264.50,171.00 265.00,170.50 265.50,170.00 265.50,169.00 266.00,168.50 266.50,168.00 266.50,167.00 267.00,166.50 267.50,166.00 267.50,165.00 268.00,164.50 268.50,164.00 269.00,163.50 269.50,163.00 269.50,162.00 270.00,161.50 270.50,161.00 270.50,160.00 271.00,159.50 271.50,159.00 271.50,158.00 272.00,157.50 272.50,157.00 273.00,156.50 273.50,156.00 273.50,155.00 274.00,154.50 274.50,154.00 274.50,153.00 275.00,152.50 275.50,152.00 275.50,151.00 276.00,150.50 276.50,150.00 277.00,149.50 277.50,149.00 277.50,148.00 278.00,147.50 278.50,147.00 278.50,146.00 279.00,145.50 279.50,145.00 280.00,144.50 280.50,144.00 280.50,143.00 281.00,142.50 281.50,142.00 281.50,141.00 282.00,140.50 282.50,140.00 282.50,139.00 283.00,138.50 283.50,138.00 284.00,137.50 284.50,137.00 284.50,136.00 285.00,135.50 285.50,135.00 285.50,134.00 286.00,133.50 286.50,133.00 286.50,132.00 287.00,131.50 287.50,131.00 288.00,130.50 288.50,130.00 288.50,129.00 289.00,128.50 289.50,128.00 289.50,127.00 290.00,126.50 290.50,126.00 291.00,125.50 291.50,125.00 291.50,124.00 292.00,123.50 292.50,123.00 292.50,122.00 293.00,121.50 293.50,121.00 293.50,120.00 294.00,119.50 294.50,119.00 295.00,118.50 295.50,118.00 295.50,117.00 296.00,116.50 296.50,116.00 296.50,115.00 297.00,114.50 297.50,114.00 297.50,113.00 298.00,112.50 298.50,112.00 299.00,111.50 299.50,111.00 299.50,110.00 300.00,109.50 300.50,109.00 300.50,108.00 301.00,107.50 301.50,107.00 301.50,106.00 302.00,105.50 302.50,105.00 303.00,104.50 303.50,104.00 303.50,103.00 304.00,102.50 304.50,102.00 304.50,101.00 305.00,100.50 305.50,100.00 306.00,99.50 306.50,99.00 306.50,98.00 307.00,97.50 307.50,97.00 307.50,96.00 308.00,95.50 308.50,95.00 308.50,94.00 309.00,93.50 309.50,93.00 310.00,92.50 310.50,92.00 310.50,91.00 311.00,90.50 311.50,90.00 311.50,89.00 312.00,88.50 312.50,88.00 312.50,87.00 313.00,86.50 313.50,86.00 314.00,85.50 315.00,85.50 316.00,85.50 317.00,85.50 318.00,85.50 319.00,85.50 320.00,85.50 321.00,85.50 322.00,85.50 323.00,85.50 324.00,85.50 325.00,85.50 326.00,85.50 327.00,85.50 328.00,85.50 329.00,85.50 330.00,85.50 331.00,85.50 332.00,85.50 333.00,85.50 334.00,85.50 335.00,85.50 336.00,85.50 337.00,85.50 338.00,85.50 339.00,85.50 340.00,85.50 341.00,85.50 342.00,85.50 343.00,85.50 344.00,85.50 345.00,85.50 346.00,85.50 347.00,85.50 348.00,85.50 349.00,85.50 350.00,85.50 351.00,85.50 352.00,85.50 353.00,85.50 354.00,85.50 355.00,85.50 356.00,85.50 357.00,85.50 358.00,85.50 359.00,85.50 360.00,85.50 361.00,85.50 362.00,85.50 363.00,85.50 364.00,85.50 365.00,85.50 366.00,85.50 367.00,85.50 368.00,85.50 369.00,85.50 370.00,85.50 371.00,85.50 372.00,85.50 373.00,85.50 374.00,85.50 375.00,85.50 376.00,85.50 377.00,85.50 378.00,85.50 379.00,85.50 380.00,85.50 381.00,85.50 382.00,85.50 383.00,85.50 383.50,86.00 383.00,86.50 382.50,87.00 382.50,88.00 382.00,88.50 381.50,89.00 381.00,89.50 380.50,90.00 380.50,91.00 380.00,91.50 379.50,92.00 379.50,93.00 379.00,93.50 378.50,94.00 378.00,94.50 377.50,95.00 377.50,96.00 377.00,96.50 376.50,97.00 376.50,98.00 376.00,98.50 375.50,99.00 375.50,100.00 375.00,100.50 374.50,101.00 374.00,101.50 373.50,102.00 373.50,103.00 373.00,103.50 372.50,104.00 372.50,105.00 372.00,105.50 371.50,106.00 371.50,107.00 371.00,107.50 370.50,108.00 370.00,108.50 369.50,109.00 369.50,110.00 369.00,110.50 368.50,111.00 368.50,112.00 368.00,112.50 367.50,113.00 367.50,114.00 367.00,114.50 366.50,115.00 366.00,115.50 365.50,116.00 365.50,117.00 365.00,117.50 364.50,118.00 364.50,119.00 364.00,119.50 363.50,120.00 363.00,120.50 362.50,121.00 362.50,122.00 362.00,122.50 361.50,123.00 361.50,124.00 361.00,124.50 360.50,125.00 360.50,126.00 360.00,126.50 359.50,127.00 359.00,127.50 358.50,128.00 358.50,129.00 358.00,129.50 357.50,130.00 357.50,131.00 357.00,131.50 356.50,132.00 356.50,133.00 356.00,133.50 355.50,134.00 355.00,134.50 354.50,135.00 354.50,136.00 354.00,136.50 353.50,137.00 353.50,138.00 353.00,138.50 352.50,139.00 352.00,139.50 351.50,140.00 351.50,141.00 351.00,141.50 350.50,142.00 350.50,143.00 350.00,143.50 349.50,144.00 349.50,145.00 349.00,145.50 348.50,146.00 348.00,146.50 347.50,147.00 347.50,148.00 347.00,148.50 346.50,149.00 346.50,150.00 346.00,150.50 345.50,151.00 345.50,152.00 345.00,152.50 344.50,153.00 344.00,153.50 343.50,154.00 343.50,155.00 343.00,155.50 342.50,156.00 342.50,157.00 342.00,157.50 341.50,158.00 341.50,159.00 341.00,159.50 340.50,160.00 340.00,160.50 339.50,161.00 339.50,162.00 339.00,162.50 338.50,163.00 338.50,164.00 338.00,164.50 337.50,165.00 337.00,165.50 336.50,166.00 336.50,167.00 336.00,167.50 335.50,168.00 335.50,169.00 335.00,169.50 334.50,170.00 334.50,171.00 334.00,171.50 333.50,172.00 333.00,172.50 332.50,173.00 332.50,174.00 332.00,174.50 331.50,175.00 331.50,176.00 331.00,176.50 330.50,177.00 330.50,178.00 330.00,178.50 329.50,179.00 329.00,179.50 328.50,180.00 328.50,181.00 328.00,181.50 327.50,182.00 327.50,183.00 327.00,183.50 326.50,184.00 326.50,185.00 326.00,185.50 325.50,186.00 325.00,186.50 324.50,187.00 324.50,188.00 324.00,188.50 323.50,189.00 323.50,190.00 323.00,190.50 322.50,191.00 322.00,191.50 321.50,192.00 321.50,193.00 321.00,193.50 320.50,194.00 320.50,195.00 320.00,195.50 319.50,196.00 319.50,197.00 319.00,197.50 318.50,198.00 318.00,198.50 317.50,199.00 317.50,200.00 317.00,200.50 316.50,201.00 316.50,202.00 316.00,202.50 315.50,203.00 315.50,204.00 315.00,204.50 314.50,205.00 314.00,205.50 313.50,206.00 313.50,207.00 313.00,207.50 312.50,208.00 312.50,209.00 312.00,209.50 311.50,210.00 311.00,210.50 310.50,211.00 310.50,212.00 310.00,212.50 309.50,213.00 309.50,214.00 309.00,214.50 308.50,215.00 308.50,216.00 308.00,216.50 307.50,217.00 307.00,217.50 306.50,218.00 306.50,219.00 306.00,219.50 305.50,220.00 305.50,221.00 305.00,221.50 304.50,222.00 304.50,223.00 304.00,223.50 303.50,224.00 303.00,224.50 302.50,225.00 302.50,226.00 302.00,226.50 301.50,227.00 301.50,228.00 301.00,228.50 300.50,229.00 300.50,230.00 300.00,230.50 299.50,231.00 299.00,231.50 298.50,232.00 298.50,233.00 298.00,233.50 297.50,234.00 297.50,235.00 297.00,235.50 296.50,236.00 296.00,236.50 295.50,237.00 295.50,238.00 295.00,238.50 294.50,239.00 294.50,240.00 294.00,240.50 293.50,241.00 293.50,242.00 293.00,242.50 292.50,243.00 292.00,243.50 291.50,244.00 291.50,245.00 291.00,245.50 290.50,246.00 290.50,247.00 290.00,247.50 289.50,248.00 289.50,249.00 289.00,249.50 288.50,250.00 288.00,250.50 287.50,251.00 287.50,252.00 287.00,252.50 286.50,253.00 286.50,254.00 286.00,254.50 285.50,255.00 285.50,256.00 285.00,256.50 284.50,257.00 284.00,257.50 283.50,258.00 283.50,259.00 283.00,259.50 282.50,260.00 282.50,261.00 282.00,261.50 281.50,262.00 281.00,262.50 280.50,263.00 280.50,264.00 280.00,264.50 279.50,265.00 279.50,266.00 279.00,266.50 278.50,267.00 278.50,268.00 278.00,268.50 277.50,269.00 277.00,269.50 276.50,270.00 276.50,271.00 276.00,271.50 275.50,272.00 275.50,273.00 275.00,273.50 274.50,274.00 274.50,275.00 274.00,275.50 273.50,276.00 273.00,276.50 272.50,277.00 272.50,278.00 272.00,278.50 271.50,279.00 271.50,280.00 271.00,280.50 270.50,281.00 270.50,282.00 270.00,282.50 269.50,283.00 269.00,283.50 268.50,284.00 268.50,285.00 268.00,285.50 267.50,286.00 267.50,287.00 267.50,288.00 267.50,289.00 267.50,290.00 267.50,291.00 267.50,292.00 267.50,293.00 267.50,294.00 267.50,295.00 267.50,296.00 267.50,297.00 267.50,298.00 267.50,299.00 267.50,300.00 267.50,301.00 267.50,302.00 267.50,303.00 267.50,304.00 267.50,305.00 267.50,306.00 267.50,307.00 267.50,308.00 267.50,309.00 267.50,310.00 267.50,311.00 267.50,312.00 267.50,313.00 267.50,314.00 267.50,315.00 267.50,316.00 267.50,317.00 267.50,318.00 267.50,319.00 267.50,320.00 267.50,321.00 267.50,322.00 267.50,323.00 267.50,324.00 267.50,325.00 267.50,326.00 267.50,327.00 267.50,328.00 267.50,329.00 267.50,330.00 267.50,331.00 267.50,332.00 267.50,333.00 267.50,334.00 267.50,335.00 267.50,336.00 267.50,337.00 267.50,338.00 267.50,339.00 267.50,340.00 267.50,341.00 267.50,342.00 267.50,343.00 267.50,344.00 267.50,345.00 267.50,346.00 267.50,347.00 267.50,348.00 267.50,349.00 267.50,350.00 267.50,351.00 267.50,352.00 267.50,353.00 267.50,354.00 267.50,355.00 267.50,356.00 267.50,357.00 267.50,358.00 267.50,359.00 267.50,360.00 267.50,361.00 267.50,362.00 267.50,363.00 267.50,364.00 267.50,365.00 267.50,366.00 267.50,367.00 267.50,368.00 267.50,369.00 267.50,370.00 267.50,371.00 267.50,372.00 267.50,373.00 267.50,374.00 267.50,375.00 267.50,376.00 267.50,377.00 267.50,378.00 267.50,379.00 267.50,380.00 267.50,381.00 267.50,382.00 267.50,383.00 267.50,384.00 267.50,385.00 267.50,386.00 267.50,387.00 267.50,388.00 267.50,389.00 267.50,390.00 267.50,391.00 267.50,392.00 267.50,393.00 267.50,394.00 267.50,395.00 267.50,396.00 267.50,397.00 267.50,398.00 267.00,398.50" />
<polyline fill="none" stroke="#090" stroke-width="1" stroke-dasharray="3,2" points="102.00,86.50 101.50,86.00 102.00,85.50 102.50,86.00 102.00,86.50" />
<polyline fill="none" stroke="#090" stroke-width="1" stroke-dasharray="3,2" points="381.00,86.50 380.50,86.00 381.00,85.50 381.50,86.00 381.00,86.50" />
<polyline fill="none" stroke="#090" stroke-width="1" stroke-dasharray="3,2" points="104.00,87.50 103.00,87.50 102.50,87.00 103.00,86.50 104.00,86.50 104.50,87.00 104.00,87.50" />
<polyline fill="none" stroke="#090" stroke-width="1" stroke-dasharray="3,2" points="380.00,87.50 379.00,87.50 378.50,87.00 379.00,86.50 380.00,86.50 380.50,87.00 380.00,87.50" />
<polyline fill="none" stroke="#090" stroke-width="1" stroke-dasharray="3,2" points="106.00,88.50 105.00,88.50 104.50,88.00 105.00,87.50 106.00,87.50 106.50,88.00 106.00,88.50" />
<polyline fill="none" stroke="#090" stroke-width="1" stroke-dasharray="3,2" points="378.00,88.50 377.00,88.50 376.50,88.00 377.00,87.50 378.00,87.50 378.50,88.00 378.00,88.50" />
<polyline fill="none" stroke="#090" stroke-width="1" stroke-dasharray="3,2" points="108.00,89.50 107.00,89.50 106.50,89.00 107.00,88.50 108.00,88.50 108.50,89.00 108.00,89.50" />
<polyline fill="none" stroke="#090" stroke-width="1" stroke-dasharray="3,2" points="376.00,89.50 375.00,89.50 374.50,89.00 375.00,88.50 376.00,88.50 376.50,89.00 376.00,89.50" />
<polyline fill="none" stroke="#090" stroke-width="1" stroke-dasharray="3,2" points="110.00,90.50 109.00,90.50 108.50,90.00 109.00,89.50 110.00,89.50 110.50,90.00 110.00,90.50" />
<polyline fill="none" stroke="#090" stroke-width="1" stroke-dasharray="3,2" points="374.00,90.50 373.00,90.50 372.00,90.50 371.50,90.00 372.00,89.50 373.00,89.50 374.00,89.50 374.50,90.00 374.00,90.50" />
<polyline fill="none" stroke="#090" stroke-width="1" stroke-dasharray="3,2" points="112.00,91.50 111.00,91.50 110.50,91.00 111.00,90.50 112.00,90.50 112.50,91.00 112.00,91.50" />
<polyline fill="none" stroke="#090" stroke-width="1" stroke-dasharray="3,2" points="371.00,91.50 370.00,91.50 369.50,91.00 370.00,90.50 371.00,90.50 371.50,91.00 371.00,91.50" />
<polyline fill="none" stroke="#090" stroke-width="1" stroke-dasharray="3,2" points="115.00,92.50 114.00,92.50 113.00,92.50 112.50,92.00 113.00,91.50 114.00,91.50 115.00,91.50 115.50,92.00 115.00,92.50" />
<polyline fill="none" stroke="#090" stroke-width="1" stroke-dasharray="3,2" points="369.00,92.50 368.00,92.50 367.50,92.00 368.00,91.50 369.00,91.50 369.50,92.00 369.00,92.50" />
<polyline fill="none" stroke="#090" stroke-width="1" stroke-dasharray="3,2" points="117.00,93.50 116.00,93.50 115.50,93.00 116.00,92.50 117.00,92.50 117.50,93.00 117.00,93.50" />
<polyline fill="none" stroke="#090" stroke-width="1" stroke-dasharray="3,2" points="367.00,93.50 366.00,93.50 365.50,93.00 366.00,92.50 367.00,92.50 367.50,93.00 367.00,93.50" />
<polyline fill="none" stroke="#090" stroke-width="1" stroke-dasharray="3,2" points="119.00,94.50 118.00,94.50 117.50,94.00 118.00,93.50 119.00,93.50 119.50,94.00 119.00,94.50" />
<polyline fill="none" stroke="#090" stroke-width="1" stroke-dasharray="3,2" points="365.00,94.50 364.00,94.50 363.50,94.00 364.00,93.50 365.00,93.50 365.50,94.00 365.00,94.50" />
<polyline fill="none" stroke="#090" stroke-width="1" stroke-dasharray="3,2" points="121.00,95.50 120.00,95.50 119.50,95.00 120.00,94.50 121.00,94.50 121.50,95.00 121.00,95.50" />
<polyline fill="none" stroke="#090" stroke-width="1" stroke-dasharray="3,2" points="363.00,95.50 362.00,95.50 361.50,95.00 362.00,94.50 363.00,94.50 363.50,95.00 363.00,95.50" />
<polyline fill="none" stroke="#090" stroke-width="1" stroke-dasharray="3,2" points="123.00,96.50 122.00,96.50 121.50,96.00 122.00,95.50 123.00,95.50 123.50,96.00 123.00,96.50" />
<polyline fill="none" stroke="#090" stroke-width="1" stroke-dasharray="3,2" points="361.00,96.50 360.00,96.50 359.50,96.00 360.00,95.50 361.00,95.50 361.50,96.00 361.00,96.50" />
<polyline fill="none" stroke="#090" stroke-width="1" stroke-dasharray="3,2" points="125.00,97.50 124.00,97.50 123.50,97.00 124.00,96.50 125.00,96.50 125.50,97.00 125.00,97.50" />
<polyline fill="none" stroke="#090" stroke-width="1" stroke-dasharray="3,2" points="359.00,97.50 358.00,97.50 357.00,97.50 356.50,97.00 357.00,96.50 358.00,96.50 359.00,96.50 359.50,97.00 359.00,97.50" />
<polyline fill="none" stroke="#090" stroke-width="1" stroke-dasharray="3,2" points="128.00,98.50 127.00,98.50 126.00,98.50 125.50,98.00 126.00,97.50 127.00,97.50 128.00,97.50 128.50,98.00 128.00,98.50" />
<polyline fill="none" stroke="#090" stroke-width="1" stroke-dasharray="3,2" points="356.00,98.50 355.00,98.50 354.50,98.00 355.00,97.50 356.00,97.50 356.50,98.00 356.00,98.50" />
<polyline fill="none" stroke="#090" stroke-width="1" stroke-dasharray="3,2" points="130.00,99.50 129.00,99.50 128.50,99.00 129.00,98.50 130.00,98.50 130.50,99.00 130.00,99.50" />
<polyline fill="none" stroke="#090" stroke-width="1" stroke-dasharray="3,2" points="354.00,99.50 353.00,99.50 352.50,99.00 353.00,98.50 354.00,98.50 354.50,99.00 354.00,99.50" />
<polyline fill="none" stroke="#090" stroke-width="1" stroke-dasharray="3,2" points="132.00,100.50 131.00,100.50 130.50,100.00 131.00,99.50 132.00,99.50 132.50,100.00 132.00,100.50" />
<polyline fill="none" stroke="#090" stroke-width="1" stroke-dasharray="3,2" points="352.00,100.50 351.00,100.50 350.50,100.00 351.00,99.50 352.00,99.50 352.50,100.00 352.00,100.50" />
<polyline fill="none" stroke="#090" stroke-width="1" stroke-dasharray="3,2" points="134.00,101.50 133.00,101.50 132.50,101.00 133.00,100.50 134.00,100.50 134.50,101.00 134.00,101.50" />
<polyline fill="none" stroke="#090" stroke-width="1" stroke-dasharray="3,2" points="350.00,101.50 349.00,101.50 348.50,101.00 349.00,100.50 350.00,100.50 350.50,101.00 350.00,101.50" />
<polyline fill="none" stroke="#090" stroke-width="1" stroke-dasharray="3,2" points="136.00,102.50 135.00,102.50 134.50,102.00 135.00,101.50 136.00,101.50 136.50,102.00 136.00,102.50" />
<polyline fill="none" stroke="#090" stroke-width="1" stroke-dasharray="3,2" points="348.00,102.50 347.00,102.50 346.50,102.00 347.00,101.50 348.00,101.50 348.50,102.00 348.00,102.50" />
<polyline fill="none" stroke="#090" stroke-width="1" stroke-dasharray="3,2" points="138.00,103.50 137.00,103.50 136.50,103.00 137.00,102.50 138.00,102.50 138.50,103.00 138.00,103.50" />
<polyline fill="none" stroke="#090" stroke-width="1" stroke-dasharray="3,2" points="346.00,103.50 345.00,103.50 344.00,103.50 343.50,103.00 344.00,102.50 345.00,102.50 346.00,102.50 346.50,103.00 346.00,103.50" />
<polyline fill="none" stroke="#090" stroke-width="1" stroke-dasharray="3,2" points="140.00,104.50 139.00,104.50 138.50,104.00 139.00,103.50 140.00,103.50 140.50,104.00 140.00,104.50" />
<polyline fill="none" stroke="#090" stroke-width="1" stroke-dasharray="3,2" points="343.00,104.50 342.00,104.50 341.50,104.00 342.00,103.50 343.00,103.50 343.50,104.00 343.00,104.50" />
<polyline fill="none" stroke="#090" stroke-width="1" stroke-dasharray="3,2" points="143.00,105.50 142.00,105.50 141.00,105.50 140.50,105.00 141.00,104.50 142.00,104.50 143.00,104.50 143.50,105.00 143.00,105.50" />
<polyline fill="none" stroke="#090" stroke-width="1" stroke-dasharray="3,2" points="341.00,105.50 340.00,105.50 339.50,105.00 340.00,104.50 341.00,104.50 341.50,105.00 341.00,105.50" />
<polyline fill="none" stroke="#090" stroke-width="1" stroke-dasharray="3,2" points="145.00,106.50 144.00,106.50 143.50,106.00 144.00,105.50 145.00,105.50 145.50,106.00 145.00,106.50" />
<polyline fill="none" stroke="#090" stroke-width="1" stroke-dasharray="3,2" points="339.00,106.50 338.00,106.50 337.50,106.00 338.00,105.50 339.00,105.50 339.50,106.00 339.00,106.50" />
<polyline fill="none" stroke="#090" stroke-width="1" stroke-dasharray="3,2" points="146.00,107.50 145.50,107.00 146.00,106.50 146.50,107.00 146.00,107.50" />
<polyline fill="none" stroke="#090" stroke-width="1" stroke-dasharray="3,2" points="337.00,107.50 336.50,107.00 337.00,106.50 337.50,107.00 337.00,107.50" />
<polyline fill="none" stroke="#090" stroke-width="1" stroke-dasharray="3,2" points="147.00,108.50 146.50,108.00 147.00,107.50 147.50,108.00 147.00,108.50" />
<polyline fill="none" stroke="#090" stroke-width="1" stroke-dasharray="3,2" points="336.00,108.50 335.50,108.00 336.00,107.50 336.50,108.00 336.00,108.50" />
<polyline fill="none" stroke="#090" stroke-width="1" stroke-dasharray="3,2" points="148.00,109.50 147.50,109.00 148.00,108.50 148.50,109.00 148.00,109.50" />
<polyline fill="none" stroke="#090" stroke-width="1" stroke-dasharray="3,2" points="335.00,109.50 334.50,109.00 335.00,108.50 335.50,109.00 335.00,109.50" />
<polyline fill="none" stroke="#090" stroke-width="1" stroke-dasharray="3,2" points="149.00,111.50 148.50,111.00 148.50,110.00 149.00,109.50 149.50,110.00 149.50,111.00 149.00,111.50" />
<polyline fill="none" stroke="#090" stroke-width="1" stroke-dasharray="3,2" points="334.00,111.50 333.50,111.00 333.50,110.00 334.00,109.50 334.50,110.00 334.50,111.00 334.00,111.50" />
<polyline fill="none" stroke="#090" stroke-width="1" stroke-dasharray="3,2" points="150.00,113.50 149.50,113.00 149.50,112.00 150.00,111.50 150.50,112.00 150.50,113.00 150.00,113.50" />
<polyline fill="none" stroke="#090" stroke-width="1" stroke-dasharray="3,2" points="333.00,112.50 332.50,112.00 333.00,111.50 333.50,112.00 333.00,112.50" />
<polyline fill="none" stroke="#090" stroke-width="1" stroke-dasharray="3,2" points="332.00,115.50 331.50,115.00 331.50,114.00 331.50,113.00 332.00,112.50 332.50,113.00 332.50,114.00 332.50,115.00 332.00,115.50" />
<polyline fill="none" stroke="#090" stroke-width="1" stroke-dasharray="3,2" points="151.00,115.50 150.50,115.00 150.50,114.00 151.00,113.50 151.50,114.00 151.50,115.00 151.00,115.50" />
<polyline fill="none" stroke="#090" stroke-width="1" stroke-dasharray="3,2" points="152.00,116.50 151.50,116.00 152.00,115.50 152.50,116.00 152.00,116.50" />
<polyline fill="none" stroke="#090" stroke-width="1" stroke-dasharray="3,2" points="331.00,116.50 330.50,116.00 331.00,115.50 331.50,116.00 331.00,116.50" />
<polyline fill="none" stroke="#090" stroke-width="1" stroke-dasharray="3,2" points="153.00,118.50 152.50,118.00 152.50,117.00 153.00,116.50 153.50,117.00 153.50,118.00 153.00,118.50" />
<polyline fill="none" stroke="#090" stroke-width="1" stroke-dasharray="3,2" points="330.00,117.50 329.50,117.00 330.00,116.50 330.50,117.00 330.00,117.50" />
<polyline fill="none" stroke="#090" stroke-width="1" stroke-dasharray="3,2" points="329.00,119.50 328.50,119.00 328.50,118.00 329.00,117.50 329.50,118.00 329.50,119.00 329.00,119.50" />
<polyline fill="none" stroke="#090" stroke-width="1" stroke-dasharray="3,2" points="154.00,120.50 153.50,120.00 153.50,119.00 154.00,118.50 154.50,119.00 154.50,120.00 154.00,120.50" />
<polyline fill="none" stroke="#090" stroke-width="1" stroke-dasharray="3,2" points="328.00,122.50 327.50,122.00 327.50,121.00 327.50,120.00 328.00,119.50 328.50,120.00 328.50,121.00 328.50,122.00 328.00,122.50" />
<polyline fill="none" stroke="#090" stroke-width="1" stroke-dasharray="3,2" points="155.00,122.50 154.50,122.00 154.50,121.00 155.00,120.50 155.50,121.00 155.50,122.00 155.00,122.50" />
<polyline fill="none" stroke="#090" stroke-width="1" stroke-dasharray="3,2" points="156.00,123.50 155.50,123.00 156.00,122.50 156.50,123.00 156.00,123.50" />
<polyline fill="none" stroke="#090" stroke-width="1" stroke-dasharray="3,2" points="327.00,123.50 326.50,123.00 327.00,122.50 327.50,123.00 327.00,123.50" />
<polyline fill="none" stroke="#090" stroke-width="1" stroke-dasharray="3,2" points="157.00,125.50 156.50,125.00 156.50,124.00 157.00,123.50 157.50,124.00 157.50,125.00 157.00,125.50" />
<polyline fill="none" stroke="#090" stroke-width="1" stroke-dasharray="3,2" points="326.00,124.50 325.50,124.00 326.00,123.50 326.50,124.00 326.00,124.50" />
<polyline fill="none" stroke="#090" stroke-width="1" stroke-dasharray="3,2" points="325.00,127.50 324.50,127.00 324.50,126.00 324.50,125.00 325.00,124.50 325.50,125.00 325.50,126.00 325.50,127.00 325.00,127.50" />
<polyline fill="none" stroke="#090" stroke-width="1" stroke-dasharray="3,2" points="158.00,127.50 157.50,127.00 157.50,126.00 158.00,125.50 158.50,126.00 158.50,127.00 158.00,127.50" />
<polyline fill="none" stroke="#090" stroke-width="1" stroke-dasharray="3,2" points="159.00,129.50 158.50,129.00 158.50,128.00 159.00,127.50 159.50,128.00 159.50,129.00 159.00,129.50" />
<polyline fill="none" stroke="#090" stroke-width="1" stroke-dasharray="3,2" points="324.00,128.50 323.50,128.00 324.00,127.50 324.50,128.00 324.00,128.50" />
<polyline fill="none" stroke="#090" stroke-width="1" stroke-dasharray="3,2" points="323.00,130.50 322.50,130.00 322.50,129.00 323.00,128.50 323.50,129.00 323.50,130.00 323.00,130.50" />
<polyline fill="none" stroke="#090" stroke-width="1" stroke-dasharray="3,2" points="160.00,130.50 159.50,130.00 160.00,129.50 160.50,130.00 160.00,130.50" />
<polyline fill="none" stroke="#090" stroke-width="1" stroke-dasharray="3,2" points="161.00,132.50 160.50,132.00 160.50,131.00 161.00,130.50 161.50,131.00 161.50,132.00 161.00,132.50" />
<polyline fill="none" stroke="#090" stroke-width="1" stroke-dasharray="3,2" points="322.00,131.50 321.50,131.00 322.00,130.50 322.50,131.00 322.00,131.50" />
<polyline fill="none" stroke="#090" stroke-width="1" stroke-dasharray="3,2" points="321.00,134.50 320.50,134.00 320.50,133.00 320.50,132.00 321.00,131.50 321.50,132.00 321.50,133.00 321.50,134.00 321.00,134.50" />
<polyline fill="none" stroke="#090" stroke-width="1" stroke-dasharray="3,2" points="162.00,134.50 161.50,134.00 161.50,133.00 162.00,132.50 162.50,133.00 162.50,134.00 162.00,134.50" />
<polyline fill="none" stroke="#090" stroke-width="1" stroke-dasharray="3,2" points="163.00,135.50 162.50,135.00 163.00,134.50 163.50,135.00 163.00,135.50" />
<polyline fill="none" stroke="#090" stroke-width="1" stroke-dasharray="3,2" points="320.00,135.50 319.50,135.00 320.00,134.50 320.50,135.00 320.00,135.50" />
<polyline fill="none" stroke="#090" stroke-width="1" stroke-dasharray="3,2" points="164.00,137.50 163.50,137.00 163.50,136.00 164.00,135.50 164.50,136.00 164.50,137.00 164.00,137.50" />
<polyline fill="none" stroke="#090" stroke-width="1" stroke-dasharray="3,2" points="319.00,137.50 318.50,137.00 318.50,136.00 319.00,135.50 319.50,136.00 319.50,137.00 319.00,137.50" />
<polyline fill="none" stroke="#090" stroke-width="1" stroke-dasharray="3,2" points="165.00,139.50 164.50,139.00 164.50,138.00 165.00,137.50 165.50,138.00 165.50,139.00 165.00,139.50" />
<polyline fill="none" stroke="#090" stroke-width="1" stroke-dasharray="3,2" points="318.00,138.50 317.50,138.00 318.00,137.50 318.50,138.00 318.00,138.50" />
<polyline fill="none" stroke="#090" stroke-width="1" stroke-dasharray="3,2" points="317.00,141.50 316.50,141.00 316.50,140.00 316.50,139.00 317.00,138.50 317.50,139.00 317.50,140.00 317.50,141.00 317.00,141.50" />
<polyline fill="none" stroke="#090" stroke-width="1" stroke-dasharray="3,2" points="166.00,141.50 165.50,141.00 165.50,140.00 166.00,139.50 166.50,140.00 166.50,141.00 166.00,141.50" />
<polyline fill="none" stroke="#090" stroke-width="1" stroke-dasharray="3,2" points="167.00,142.50 166.50,142.00 167.00,141.50 167.50,142.00 167.00,142.50" />
<polyline fill="none" stroke="#090" stroke-width="1" stroke-dasharray="3,2" points="316.00,142.50 315.50,142.00 316.00,141.50 316.50,142.00 316.00,142.50" />
<polyline fill="none" stroke="#090" stroke-width="1" stroke-dasharray="3,2" points="168.00,144.50 167.50,144.00 167.50,143.00 168.00,142.50 168.50,143.00 168.50,144.00 168.00,144.50" />
<polyline fill="none" stroke="#090" stroke-width="1" stroke-dasharray="3,2" points="315.00,143.50 314.50,143.00 315.00,142.50 315.50,143.00 315.00,143.50" />
<polyline fill="none" stroke="#090" stroke-width="1" stroke-dasharray="3,2" points="314.00,145.50 313.50,145.00 313.50,144.00 314.00,143.50 314.50,144.00 314.50,145.00 314.00,145.50" />
<polyline fill="none" stroke="#090" stroke-width="1" stroke-dasharray="3,2" points="169.00,146.50 168.50,146.00 168.50,145.00 169.00,144.50 169.50,145.00 169.50,146.00 169.00,146.50" />
<polyline fill="none" stroke="#090" stroke-width="1" stroke-dasharray="3,2" points="313.00,148.50 312.50,148.00 312.50,147.00 312.50,146.00 313.00,145.50 313.50,146.00 313.50,147.00 313.50,148.00 313.00,148.50" />
<polyline fill="none" stroke="#090" stroke-width="1" stroke-dasharray="3,2" points="170.00,148.50 169.50,148.00 169.50,147.00 170.00,146.50 170.50,147.00 170.50,148.00 170.00,148.50" />
<polyline fill="none" stroke="#090" stroke-width="1" stroke-dasharray="3,2" points="171.00,149.50 170.50,149.00 171.00,148.50 171.50,149.00 171.00,149.50" />
<polyline fill="none" stroke="#090" stroke-width="1" stroke-dasharray="3,2" points="312.00,149.50 311.50,149.00 312.00,148.50 312.50,149.00 312.00,149.50" />
<polyline fill="none" stroke="#090" stroke-width="1" stroke-dasharray="3,2" points="172.00,151.50 171.50,151.00 171.50,150.00 172.00,149.50 172.50,150.00 172.50,151.00 172.00,151.50" />
<polyline fill="none" stroke="#090" stroke-width="1" stroke-dasharray="3,2" points="311.00,150.50 310.50,150.00 311.00,149.50 311.50,150.00 311.00,150.50" />
<polyline fill="none" stroke="#090" stroke-width="1" stroke-dasharray="3,2" points="310.00,153.50 309.50,153.00 309.50,152.00 309.50,151.00 310.00,150.50 310.50,151.00 310.50,152.00 310.50,153.00 310.00,153.50" />
<polyline fill="none" stroke="#090" stroke-width="1" stroke-dasharray="3,2" points="173.00,153.50 172.50,153.00 172.50,152.00 173.00,151.50 173.50,152.00 173.50,153.00 173.00,153.50" />
<polyline fill="none" stroke="#090" stroke-width="1" stroke-dasharray="3,2" points="174.00,155.50 173.50,155.00 173.50,154.00 174.00,153.50 174.50,154.00 174.50,155.00 174.00,155.50" />
<polyline fill="none" stroke="#090" stroke-width="1" stroke-dasharray="3,2" points="309.00,154.50 308.50,154.00 309.00,153.50 309.50,154.00 309.00,154.50" />
<polyline fill="none" stroke="#090" stroke-width="1" stroke-dasharray="3,2" points="308.00,156.50 307.50,156.00 307.50,155.00 308.00,154.50 308.50,155.00 308.50,156.00 308.00,156.50" />
<polyline fill="none" stroke="#090" stroke-width="1" stroke-dasharray="3,2" points="175.00,156.50 174.50,156.00 175.00,155.50 175.50,156.00 175.00,156.50" />
<polyline fill="none" stroke="#090" stroke-width="1" stroke-dasharray="3,2" points="176.00,158.50 175.50,158.00 175.50,157.00 176.00,156.50 176.50,157.00 176.50,158.00 176.00,158.50" />
<polyline fill="none" stroke="#090" stroke-width="1" stroke-dasharray="3,2" points="307.00,157.50 306.50,157.00 307.00,156.50 307.50,157.00 307.00,157.50" />
<polyline fill="none" stroke="#090" stroke-width="1" stroke-dasharray="3,2" points="306.00,160.50 305.50,160.00 305.50,159.00 305.50,158.00 306.00,157.50 306.50,158.00 306.50,159.00 306.50,160.00 306.00,160.50" />
<polyline fill="none" stroke="#090" stroke-width="1" stroke-dasharray="3,2" points="177.00,160.50 176.50,160.00 176.50,159.00 177.00,158.50 177.50,159.00 177.50,160.00 177.00,160.50" />
<polyline fill="none" stroke="#090" stroke-width="1" stroke-dasharray="3,2" points="178.00,161.50 177.50,161.00 178.00,160.50 178.50,161.00 178.00,161.50" />
<polyline fill="none" stroke="#090" stroke-width="1" stroke-dasharray="3,2" points="305.00,161.50 304.50,161.00 305.00,160.50 305.50,161.00 305.00,161.50" />
<polyline fill="none" stroke="#090" stroke-width="1" stroke-dasharray="3,2" points="179.00,163.50 178.50,163.00 178.50,162.00 179.00,161.50 179.50,162.00 179.50,163.00 179.00,163.50" />
<polyline fill="none" stroke="#090" stroke-width="1" stroke-dasharray="3,2" points="304.00,163.50 303.50,163.00 303.50,162.00 304.00,161.50 304.50,162.00 304.50,163.00 304.00,163.50" />
<polyline fill="none" stroke="#090" stroke-width="1" stroke-dasharray="3,2" points="180.00,165.50 179.50,165.00 179.50,164.00 180.00,163.50 180.50,164.00 180.50,165.00 180.00,165.50" />
<polyline fill="none" stroke="#090" stroke-width="1" stroke-dasharray="3,2" points="303.00,164.50 302.50,164.00 303.00,163.50 303.50,164.00 303.00,164.50" />
<polyline fill="none" stroke="#090" stroke-width="1" stroke-dasharray="3,2" points="302.00,167.50 301.50,167.00 301.50,166.00 301.50,165.00 302.00,164.50 302.50,165.00 302.50,166.00 302.50,167.00 302.00,167.50" />
<polyline fill="none" stroke="#090" stroke-width="1" stroke-dasharray="3,2" points="181.00,167.50 180.50,167.00 180.50,166.00 181.00,165.50 181.50,166.00 181.50,167.00 181.00,167.50" />
<polyline fill="none" stroke="#090" stroke-width="1" stroke-dasharray="3,2" points="182.00,168.50 181.50,168.00 182.00,167.50 182.50,168.00 182.00,168.50" />
<polyline fill="none" stroke="#090" stroke-width="1" stroke-dasharray="3,2" points="301.00,168.50 300.50,168.00 301.00,167.50 301.50,168.00 301.00,168.50" />
<polyline fill="none" stroke="#090" stroke-width="1" stroke-dasharray="3,2" points="183.00,170.50 182.50,170.00 182.50,169.00 183.00,168.50 183.50,169.00 183.50,170.00 183.00,170.50" />
<polyline fill="none" stroke="#090" stroke-width="1" stroke-dasharray="3,2" points="300.00,169.50 299.50,169.00 300.00,168.50 300.50,169.00 300.00,169.50" />
<polyline fill="none" stroke="#090" stroke-width="1" stroke-dasharray="3,2" points="299.00,172.50 298.50,172.00 298.50,171.00 298.50,170.00 299.00,169.50 299.50,170.00 299.50,171.00 299.50,172.00 299.00,172.50" />
<polyline fill="none" stroke="#090" stroke-width="1" stroke-dasharray="3,2" points="184.00,172.50 183.50,172.00 183.50,171.00 184.00,170.50 184.50,171.00 184.50,172.00 184.00,172.50" />
<polyline fill="none" stroke="#090" stroke-width="1" stroke-dasharray="3,2" points="185.00,174.50 184.50,174.00 184.50,173.00 185.00,172.50 185.50,173.00 185.50,174.00 185.00,174.50" />
<polyline fill="none" stroke="#090" stroke-width="1" stroke-dasharray="3,2" points="298.00,173.50 297.50,173.00 298.00,172.50 298.50,173.00 298.00,173.50" />
<polyline fill="none" stroke="#090" stroke-width="1" stroke-dasharray="3,2" points="297.00,175.50 296.50,175.00 296.50,174.00 297.00,173.50 297.50,174.00 297.50,175.00 297.00,175.50" />
<polyline fill="none" stroke="#090" stroke-width="1" stroke-dasharray="3,2" points="186.00,175.50 185.50,175.00 186.00,174.50 186.50,175.00 186.00,175.50" />
<polyline fill="none" stroke="#090" stroke-width="1" stroke-dasharray="3,2" points="187.00,177.50 186.50,177.00 186.50,176.00 187.00,175.50 187.50,176.00 187.50,177.00 187.00,177.50" />
<polyline fill="none" stroke="#090" stroke-width="1" stroke-dasharray="3,2" points="296.00,176.50 295.50,176.00 296.00,175.50 296.50,176.00 296.00,176.50" />
<polyline fill="none" stroke="#090" stroke-width="1" stroke-dasharray="3,2" points="295.00,179.50 294.50,179.00 294.50,178.00 294.50,177.00 295.00,176.50 295.50,177.00 295.50,178.00 295.50,179.00 295.00,179.50" />
<polyline fill="none" stroke="#090" stroke-width="1" stroke-dasharray="3,2" points="188.00,179.50 187.50,179.00 187.50,178.00 188.00,177.50 188.50,178.00 188.50,179.00 188.00,179.50" />
<polyline fill="none" stroke="#090" stroke-width="1" stroke-dasharray="3,2" points="189.00,180.50 188.50,180.00 189.00,179.50 189.50,180.00 189.00,180.50" />
<polyline fill="none" stroke="#090" stroke-width="1" stroke-dasharray="3,2" points="294.00,180.50 293.50,180.00 294.00,179.50 294.50,180.00 294.00,180.50" />
<polyline fill="none" stroke="#090" stroke-width="1" stroke-dasharray="3,2" points="190.00,182.50 189.50,182.00 189.50,181.00 190.00,180.50 190.50,181.00 190.50,182.00 190.00,182.50" />
<polyline fill="none" stroke="#090" stroke-width="1" stroke-dasharray="3,2" points="293.00,182.50 292.50,182.00 292.50,181.00 293.00,180.50 293.50,181.00 293.50,182.00 293.00,182.50" />
<polyline fill="none" stroke="#090" stroke-width="1" stroke-dasharray="3,2" points="191.00,184.50 190.50,184.00 190.50,183.00 191.00,182.50 191.50,183.00 191.50,184.00 191.00,184.50" />
<polyline fill="none" stroke="#090" stroke-width="1" stroke-dasharray="3,2" points="292.00,183.50 291.50,183.00 292.00,182.50 292.50,183.00 292.00,183.50" />
<polyline fill="none" stroke="#090" stroke-width="1" stroke-dasharray="3,2" points="291.00,186.50 290.50,186.00 290.50,185.00 290.50,184.00 291.00,183.50 291.50,184.00 291.50,185.00 291.50,186.00 291.00,186.50" />
<polyline fill="none" stroke="#090" stroke-width="1" stroke-dasharray="3,2" points="192.00,186.50 191.50,186.00 191.50,185.00 192.00,184.50 192.50,185.00 192.50,186.00 192.00,186.50" />
<polyline fill="none" stroke="#090" stroke-width="1" stroke-dasharray="3,2" points="193.00,187.50 192.50,187.00 193.00,186.50 193.50,187.00 193.00,187.50" />
<polyline fill="none" stroke="#090" stroke-width="1" stroke-dasharray="3,2" points="290.00,187.50 289.50,187.00 290.00,186.50 290.50,187.00 290.00,187.50" />
<polyline fill="none" stroke="#090" stroke-width="1" stroke-dasharray="3,2" points="194.00,189.50 193.50,189.00 193.50,188.00 194.00,187.50 194.50,188.00 194.50,189.00 194.00,189.50" />
<polyline fill="none" stroke="#090" stroke-width="1" stroke-dasharray="3,2" points="289.00,188.50 288.50,188.00 289.00,187.50 289.50,188.00 289.00,188.50" />
<polyline fill="none" stroke="#090" stroke-width="1" stroke-dasharray="3,2" points="288.00,190.50 287.50,190.00 287.50,189.00 288.00,188.50 288.50,189.00 288.50,190.00 288.00,190.50" />
<polyline fill="none" stroke="#090" stroke-width="1" stroke-dasharray="3,2" points="195.00,191.50 194.50,191.00 194.50,190.00 195.00,189.50 195.50,190.00 195.50,191.00 195.00,191.50" />
<polyline fill="none" stroke="#090" stroke-width="1" stroke-dasharray="3,2" points="287.00,193.50 286.50,193.00 286.50,192.00 286.50,191.00 287.00,190.50 287.50,191.00 287.50,192.00 287.50,193.00 287.00,193.50" />
<polyline fill="none" stroke="#090" stroke-width="1" stroke-dasharray="3,2" points="196.00,193.50 195.50,193.00 195.50,192.00 196.00,191.50 196.50,192.00 196.50,193.00 196.00,193.50" />
<polyline fill="none" stroke="#090" stroke-width="1" stroke-dasharray="3,2" points="197.00,194.50 196.50,194.00 197.00,193.50 197.50,194.00 197.00,194.50" />
<polyline fill="none" stroke="#090" stroke-width="1" stroke-dasharray="3,2" points="286.00,194.50 285.50,194.00 286.00,193.50 286.50,194.00 286.00,194.50" />
<polyline fill="none" stroke="#090" stroke-width="1" stroke-dasharray="3,2" points="198.00,196.50 197.50,196.00 197.50,195.00 198.00,194.50 198.50,195.00 198.50,196.00 198.00,196.50" />
<polyline fill="none" stroke="#090" stroke-width="1" stroke-dasharray="3,2" points="285.00,195.50 284.50,195.00 285.00,194.50 285.50,195.00 285.00,195.50" />
<polyline fill="none" stroke="#090" stroke-width="1" stroke-dasharray="3,2" points="284.00,198.50 283.50,198.00 283.50,197.00 283.50,196.00 284.00,195.50 284.50,196.00 284.50,197.00 284.50,198.00 284.00,198.50" />
<polyline fill="none" stroke="#090" stroke-width="1" stroke-dasharray="3,2" points="199.00,198.50 198.50,198.00 198.50,197.00 199.00,196.50 199.50,197.00 199.50,198.00 199.00,198.50" />
<polyline fill="none" stroke="#090" stroke-width="1" stroke-dasharray="3,2" points="200.00,200.50 199.50,200.00 199.50,199.00 200.00,198.50 200.50,199.00 200.50,200.00 200.00,200.50" />
<polyline fill="none" stroke="#090" stroke-width="1" stroke-dasharray="3,2" points="283.00,199.50 282.50,199.00 283.00,198.50 283.50,199.00 283.00,199.50" />
<polyline fill="none" stroke="#090" stroke-width="1" stroke-dasharray="3,2" points="282.00,201.50 281.50,201.00 281.50,200.00 282.00,199.50 282.50,200.00 282.50,201.00 282.00,201.50" />
<polyline fill="none" stroke="#090" stroke-width="1" stroke-dasharray="3,2" points="201.00,201.50 200.50,201.00 201.00,200.50 201.50,201.00 201.00,201.50" />
<polyline fill="none" stroke="#090" stroke-width="1" stroke-dasharray="3,2" points="202.00,203.50 201.50,203.00 201.50,202.00 202.00,201.50 202.50,202.00 202.50,203.00 202.00,203.50" />
<polyline fill="none" stroke="#090" stroke-width="1" stroke-dasharray="3,2" points="281.00,202.50 280.50,202.00 281.00,201.50 281.50,202.00 281.00,202.50" />
<polyline fill="none" stroke="#090" stroke-width="1" stroke-dasharray="3,2" points="280.00,205.50 279.50,205.00 279.50,204.00 279.50,203.00 280.00,202.50 280.50,203.00 280.50,204.00 280.50,205.00 280.00,205.50" />
<polyline fill="none" stroke="#090" stroke-width="1" stroke-dasharray="3,2" points="203.00,205.50 202.50,205.00 202.50,204.00 203.00,203.50 203.50,204.00 203.50,205.00 203.00,205.50" />
<polyline fill="none" stroke="#090" stroke-width="1" stroke-dasharray="3,2" points="204.00,206.50 203.50,206.00 204.00,205.50 204.50,206.00 204.00,206.50" />
<polyline fill="none" stroke="#090" stroke-width="1" stroke-dasharray="3,2" points="279.00,206.50 278.50,206.00 279.00,205.50 279.50,206.00 279.00,206.50" />
<polyline fill="none" stroke="#090" stroke-width="1" stroke-dasharray="3,2" points="205.00,208.50 204.50,208.00 204.50,207.00 205.00,206.50 205.50,207.00 205.50,208.00 205.00,208.50" />
<polyline fill="none" stroke="#090" stroke-width="1" stroke-dasharray="3,2" points="278.00,208.50 277.50,208.00 277.50,207.00 278.00,206.50 278.50,207.00 278.50,208.00 278.00,208.50" />
<polyline fill="none" stroke="#090" stroke-width="1" stroke-dasharray="3,2" points="206.00,210.50 205.50,210.00 205.50,209.00 206.00,208.50 206.50,209.00 206.50,210.00 206.00,210.50" />
<polyline fill="none" stroke="#090" stroke-width="1" stroke-dasharray="3,2" points="277.00,209.50 276.50,209.00 277.00,208.50 277.50,209.00 277.00,209.50" />
<polyline fill="none" stroke="#090" stroke-width="1" stroke-dasharray="3,2" points="276.00,212.50 275.50,212.00 275.50,211.00 275.50,210.00 276.00,209.50 276.50,210.00 276.50,211.00 276.50,212.00 276.00,212.50" />
<polyline fill="none" stroke="#090" stroke-width="1" stroke-dasharray="3,2" points="207.00,212.50 206.50,212.00 206.50,211.00 207.00,210.50 207.50,211.00 207.50,212.00 207.00,212.50" />
<polyline fill="none" stroke="#090" stroke-width="1" stroke-dasharray="3,2" points="208.00,213.50 207.50,213.00 208.00,212.50 208.50,213.00 208.00,213.50" />
<polyline fill="none" stroke="#090" stroke-width="1" stroke-dasharray="3,2" points="275.00,213.50 274.50,213.00 275.00,212.50 275.50,213.00 275.00,213.50" />
<polyline fill="none" stroke="#090" stroke-width="1" stroke-dasharray="3,2" points="209.00,215.50 208.50,215.00 208.50,214.00 209.00,213.50 209.50,214.00 209.50,215.00 209.00,215.50" />
<polyline fill="none" stroke="#090" stroke-width="1" stroke-dasharray="3,2" points="274.00,214.50 273.50,214.00 274.00,213.50 274.50,214.00 274.00,214.50" />
<polyline fill="none" stroke="#090" stroke-width="1" stroke-dasharray="3,2" points="273.00,216.50 272.50,216.00 272.50,215.00 273.00,214.50 273.50,215.00 273.50,216.00 273.00,216.50" />
<polyline fill="none" stroke="#090" stroke-width="1" stroke-dasharray="3,2" points="210.00,217.50 209.50,217.00 209.50,216.00 210.00,215.50 210.50,216.00 210.50,217.00 210.00,217.50" />
<polyline fill="none" stroke="#090" stroke-width="1" stroke-dasharray="3,2" points="272.00,219.50 271.50,219.00 271.50,218.00 271.50,217.00 272.00,216.50 272.50,217.00 272.50,218.00 272.50,219.00 272.00,219.50" />
<polyline fill="none" stroke="#090" stroke-width="1" stroke-dasharray="3,2" points="211.00,219.50 210.50,219.00 210.50,218.00 211.00,217.50 211.50,218.00 211.50,219.00 211.00,219.50" />
<polyline fill="none" stroke="#090" stroke-width="1" stroke-dasharray="3,2" points="212.00,220.50 211.50,220.00 212.00,219.50 212.50,220.00 212.00,220.50" />
<polyline fill="none" stroke="#090" stroke-width="1" stroke-dasharray="3,2" points="271.00,220.50 270.50,220.00 271.00,219.50 271.50,220.00 271.00,220.50" />
<polyline fill="none" stroke="#090" stroke-width="1" stroke-dasharray="3,2" points="213.00,222.50 212.50,222.00 212.50,221.00 213.00,220.50 213.50,221.00 213.50,222.00 213.00,222.50" />
<polyline fill="none" stroke="#090" stroke-width="1" stroke-dasharray="3,2" points="270.00,221.50 269.50,221.00 270.00,220.50 270.50,221.00 270.00,221.50" />
<polyline fill="none" stroke="#090" stroke-width="1" stroke-dasharray="3,2" points="269.00,224.50 268.50,224.00 268.50,223.00 268.50,222.00 269.00,221.50 269.50,222.00 269.50,223.00 269.50,224.00 269.00,224.50" />
<polyline fill="none" stroke="#090" stroke-width="1" stroke-dasharray="3,2" points="214.00,224.50 213.50,224.00 213.50,223.00 214.00,222.50 214.50,223.00 214.50,224.00 214.00,224.50" />
<polyline fill="none" stroke="#090" stroke-width="1" stroke-dasharray="3,2" points="215.00,226.50 214.50,226.00 214.50,225.00 215.00,224.50 215.50,225.00 215.50,226.00 215.00,226.50" />
<polyline fill="none" stroke="#090" stroke-width="1" stroke-dasharray="3,2" points="268.00,225.50 267.50,225.00 268.00,224.50 268.50,225.00 268.00,225.50" />
<polyline fill="none" stroke="#090" stroke-width="1" stroke-dasharray="3,2" points="267.00,227.50 266.50,227.00 266.50,226.00 267.00,225.50 267.50,226.00 267.50,227.00 267.00,227.50" />
<polyline fill="none" stroke="#090" stroke-width="1" stroke-dasharray="3,2" points="216.00,227.50 215.50,227.00 216.00,226.50 216.50,227.00 216.00,227.50" />
<polyline fill="none" stroke="#090" stroke-width="1" stroke-dasharray="3,2" points="217.00,229.50 216.50,229.00 216.50,228.00 217.00,227.50 217.50,228.00 217.50,229.00 217.00,229.50" />
<polyline fill="none" stroke="#090" stroke-width="1" stroke-dasharray="3,2" points="266.00,228.50 265.50,228.00 266.00,227.50 266.50,228.00 266.00,228.50" />
<polyline fill="none" stroke="#090" stroke-width="1" stroke-dasharray="3,2" points="265.00,230.50 264.50,230.00 264.50,229.00 265.00,228.50 265.50,229.00 265.50,230.00 265.00,230.50" />
<polyline fill="none" stroke="#090" stroke-width="1" stroke-dasharray="3,2" points="218.00,230.50 217.50,230.00 218.00,229.50 218.50,230.00 218.00,230.50" />
<polyline fill="none" stroke="#090" stroke-width="1" stroke-dasharray="3,2" points="219.00,231.50 218.50,231.00 219.00,230.50 219.50,231.00 219.00,231.50" />
<polyline fill="none" stroke="#090" stroke-width="1" stroke-dasharray="3,2" points="264.00,231.50 263.50,231.00 264.00,230.50 264.50,231.00 264.00,231.50" />
<polyline fill="none" stroke="#090" stroke-width="1" stroke-dasharray="3,2" points="221.00,232.50 220.00,232.50 219.50,232.00 220.00,231.50 221.00,231.50 221.50,232.00 221.00,232.50" />
<polyline fill="none" stroke="#090" stroke-width="1" stroke-dasharray="3,2" points="263.00,232.50 262.00,232.50 261.50,232.00 262.00,231.50 263.00,231.50 263.50,232.00 263.00,232.50" />
<polyline fill="none" stroke="#090" stroke-width="1" stroke-dasharray="3,2" points="223.00,233.50 222.00,233.50 221.50,233.00 222.00,232.50 223.00,232.50 223.50,233.00 223.00,233.50" />
<polyline fill="none" stroke="#090" stroke-width="1" stroke-dasharray="3,2" points="261.00,233.50 260.00,233.50 259.50,233.00 260.00,232.50 261.00,232.50 261.50,233.00 261.00,233.50" />
<polyline fill="none" stroke="#090" stroke-width="1" stroke-dasharray="3,2" points="225.00,234.50 224.00,234.50 223.50,234.00 224.00,233.50 225.00,233.50 225.50,234.00 225.00,234.50" />
<polyline fill="none" stroke="#090" stroke-width="1" stroke-dasharray="3,2" points="259.00,234.50 258.00,234.50 257.50,234.00 258.00,233.50 259.00,233.50 259.50,234.00 259.00,234.50" />
<polyline fill="none" stroke="#090" stroke-width="1" stroke-dasharray="3,2" points="227.00,235.50 226.00,235.50 225.50,235.00 226.00,234.50 227.00,234.50 227.50,235.00 227.00,235.50" />
<polyline fill="none" stroke="#090" stroke-width="1" stroke-dasharray="3,2" points="257.00,235.50 256.00,235.50 255.50,235.00 256.00,234.50 257.00,234.50 257.50,235.00 257.00,235.50" />
<polyline fill="none" stroke="#090" stroke-width="1" stroke-dasharray="3,2" points="229.00,236.50 228.00,236.50 227.50,236.00 228.00,235.50 229.00,235.50 229.50,236.00 229.00,236.50" />
<polyline fill="none" stroke="#090" stroke-width="1" stroke-dasharray="3,2" points="255.00,236.50 254.00,236.50 253.00,236.50 252.50,236.00 253.00,235.50 254.00,235.50 255.00,235.50 255.50,236.00 255.00,236.50" />
<polyline fill="none" stroke="#090" stroke-width="1" stroke-dasharray="3,2" points="231.00,237.50 230.00,237.50 229.50,237.00 230.00,236.50 231.00,236.50 231.50,237.00 231.00,237.50" />
<polyline fill="none" stroke="#090" stroke-width="1" stroke-dasharray="3,2" points="252.00,237.50 251.00,237.50 250.50,237.00 251.00,236.50 252.00,236.50 252.50,237.00 252.00,237.50" />
<polyline fill="none" stroke="#090" stroke-width="1" stroke-dasharray="3,2" points="234.00,238.50 233.00,238.50 232.00,238.50 231.50,238.00 232.00,237.50 233.00,237.50 234.00,237.50 234.50,238.00 234.00,238.50" />
<polyline fill="none" stroke="#090" stroke-width="1" stroke-dasharray="3,2" points="250.00,238.50 249.00,238.50 248.50,238.00 249.00,237.50 250.00,237.50 250.50,238.00 250.00,238.50" />
<polyline fill="none" stroke="#090" stroke-width="1" stroke-dasharray="3,2" points="236.00,239.50 235.00,239.50 234.50,239.00 235.00,238.50 236.00,238.50 236.50,239.00 236.00,239.50" />
<polyline fill="none" stroke="#090" stroke-width="1" stroke-dasharray="3,2" points="248.00,239.50 247.00,239.50 246.50,239.00 247.00,238.50 248.00,238.50 248.50,239.00 248.00,239.50" />
<polyline fill="none" stroke="#090" stroke-width="1" stroke-dasharray="3,2" points="238.00,240.50 237.00,240.50 236.50,240.00 237.00,239.50 238.00,239.50 238.50,240.00 238.00,240.50" />
<polyline fill="none" stroke="#090" stroke-width="1" stroke-dasharray="3,2" points="246.00,240.50 245.00,240.50 244.50,240.00 245.00,239.50 246.00,239.50 246.50,240.00 246.00,240.50" />
<polyline fill="none" stroke="#090" stroke-width="1" stroke-dasharray="3,2" points="240.00,241.50 239.00,241.50 238.50,241.00 239.00,240.50 240.00,240.50 240.50,241.00 240.00,241.50" />
<polyline fill="none" stroke="#090" stroke-width="1" stroke-dasharray="3,2" points="244.00,241.50 243.00,241.50 242.50,241.00 243.00,240.50 244.00,240.50 244.50,241.00 244.00,241.50" />
<polyline fill="none" stroke="#090" stroke-width="1" stroke-dasharray="3,2" points="242.00,243.50 241.50,243.00 241.00,242.50 240.50,242.00 241.00,241.50 242.00,241.50 242.50,242.00 242.50,243.00 242.00,243.50" />
<polyline fill="none" stroke="#090" stroke-width="1" stroke-dasharray="3,2" points="241.00,247.50 240.50,247.00 240.50,246.00 240.50,245.00 240.50,244.00 241.00,243.50 241.50,244.00 241.50,245.00 241.50,246.00 241.50,247.00 241.00,247.50" />
<polyline fill="none" stroke="#090" stroke-width="1" stroke-dasharray="3,2" points="242.00,254.50 241.50,254.00 241.50,253.00 241.50,252.00 241.50,251.00 241.50,250.00 241.50,249.00 241.50,248.00 242.00,247.50 242.50,248.00 242.50,249.00 242.50,250.00 242.50,251.00 242.50,252.00 242.50,253.00 242.50,254.00 242.00,254.50" />
<polyline fill="none" stroke="#090" stroke-width="1" stroke-dasharray="3,2" points="241.00,372.50 240.50,372.00 240.50,371.00 240.50,370.00 240.50,369.00 240.50,368.00 240.50,367.00 240.50,366.00 240.50,365.00 240.50,364.00 240.50,363.00 240.50,362.00 240.50,361.00 240.50,360.00 240.50,359.00 240.50,358.00 240.50,357.00 240.50,356.00 240.50,355.00 240.50,354.00 240.50,353.00 240.50,352.00 240.50,351.00 240.50,350.00 240.50,349.00 240.50,348.00 240.50,347.00 240.50,346.00 240.50,345.00 240.50,344.00 240.50,343.00 240.50,342.00 240.50,341.00 240.50,340.00 240.50,339.00 240.50,338.00 240.50,337.00 240.50,336.00 240.50,335.00 240.50,334.00 240.50,333.00 240.50,332.00 240.50,331.00 240.50,330.00 240.50,329.00 240.50,328.00 240.50,327.00 240.50,326.00 240.50,325.00 240.50,324.00 240.50,323.00 240.50,322.00 240.50,321.00 240.50,320.00 240.50,319.00 240.50,318.00 240.50,317.00 240.50,316.00 240.50,315.00 240.50,314.00 240.50,313.00 240.50,312.00 240.50,311.00 240.50,310.00 240.50,309.00 240.50,308.00 240.50,307.00 240.50,306.00 240.50,305.00 240.50,304.00 240.50,303.00 240.50,302.00 240.50,301.00 240.50,300.00 240.50,299.00 240.50,298.00 240.50,297.00 240.50,296.00 240.50,295.00 240.50,294.00 240.50,293.00 240.50,292.00 240.50,291.00 240.50,290.00 240.50,289.00 240.50,288.00 240.50,287.00 240.50,286.00 240.50,285.00 240.50,284.00 240.50,283.00 240.50,282.00 240.50,281.00 240.50,280.00 240.50,279.00 240.50,278.00 240.50,277.00 240.50,276.00 240.50,275.00 240.50,274.00 240.50,273.00 240.50,272.00 240.50,271.00 240.50,270.00 240.50,269.00 240.50,268.00 240.50,267.00 240.50,266.00 240.50,265.00 240.50,264.00 240.50,263.00 240.50,262.00 240.50,261.00 240.50,260.00 240.50,259.00 240.50,258.00 240.50,257.00 240.50,256.00 240.50,255.00 241.00,254.50 241.50,255.00 241.50,256.00 241.50,257.00 241.50,258.00 241.50,259.00 241.50,260.00 241.50,261.00 241.50,262.00 241.50,263.00 241.50,264.00 241.50,265.00 241.50,266.00 241.50,267.00 241.50,268.00 241.50,269.00 241.50,270.00 241.50,271.00 241.50,272.00 241.50,273.00 241.50,274.00 241.50,275.00 241.50,276.00 241.50,277.00 241.50,278.00 241.50,279.00 241.50,280.00 241.50,281.00 241.50,282.00 241.50,283.00 241.50,284.00 241.50,285.00 241.50,286.00 241.50,287.00 241.50,288.00 241.50,289.00 241.50,290.00 241.50,291.00 241.50,292.00 241.50,293.00 241.50,294.00 241.50,295.00 241.50,296.00 241.50,297.00 241.50,298.00 241.50,299.00 241.50,300.00 241.50,301.00 241.50,302.00 241.50,303.00 241.50,304.00 241.50,305.00 241.50,306.00 241.50,307.00 241.50,308.00 241.50,309.00 241.50,310.00 241.50,311.00 241.50,312.00 241.50,313.00 241.50,314.00 241.50,315.00 241.50,316.00 241.50,317.00 241.50,318.00 241.50,319.00 241.50,320.00 241.50,321.00 241.50,322.00 241.50,323.00 241.50,324.00 241.50,325.00 241.50,326.00 241.50,327.00 241.50,328.00 241.50,329.00 241.50,330.00 241.50,331.00 241.50,332.00 241.50,333.00 241.50,334.00 241.50,335.00 241.50,336.00 241.50,337.00 241.50,338.00 241.50,339.00 241.50,340.00 241.50,341.00 241.50,342.00 241.50,343.00 241.50,344.00 241.50,345.00 241.50,346.00 241.50,347.00 241.50,348.00 241.50,349.00 241.50,350.00 241.50,351.00 241.50,352.00 241.50,353.00 241.50,354.00 241.50,355.00 241.50,356.00 241.50,357.00 241.50,358.00 241.50,359.00 241.50,360.00 241.50,361.00 241.50,362.00 241.50,363.00 241.50,364.00 241.50,365.00 241.50,366.00 241.50,367.00 241.50,368.00 241.50,369.00 241.50,370.00 241.50,371.00 241.50,372.00 241.00,372.50" />
<polyline fill="none" stroke="#090" stroke-width="1" stroke-dasharray="3,2" points="240.00,373.50 239.50,373.00 240.00,372.50 240.50,373.00 240.00,373.50" />
<circle cx="241.00" cy="242.00" r="30.00" fill="none" stroke="#f0f" stroke-width="1"/>
<circle cx="242.00" cy="242.00" r="30.00" fill="none" stroke="#f0f" stroke-width="1"/>
<circle cx="242.00" cy="243.00" r="31.00" fill="none" stroke="#f0f" stroke-width="1"/>
<polyline fill="none" stroke="#36f" stroke-width="1" points="267.00,398.50 266.00,398.50 265.00,398.50 264.00,398.50 263.00,398.50 262.00,398.50 261.00,398.50 260.00,398.50 259.00,398.50 258.00,398.50 257.00,398.50 256.00,398.50 255.00,398.50 254.00,398.50 253.00,398.50 252.00,398.50 251.00,398.50 250.00,398.50 249.00,398.50 248.00,398.50 247.00,398.50 246.00,398.50 245.00,398.50 244.00,398.50 243.00,398.50 242.00,398.50 241.00,398.50 240.00,398.50 239.00,398.50 238.00,398.50 237.00,398.50 236.00,398.50 235.00,398.50 234.00,398.50 233.00,398.50 232.00,398.50 231.00,398.50 230.00,398.50 229.00,398.50 228.00,398.50 227.00,398.50 226.00,398.50 225.00,398.50 224.00,398.50 223.00,398.50 222.00,398.50 221.00,398.50 220.00,398.50 219.00,398.50 218.00,398.50 217.00,398.50 216.00,398.50 215.50,398.00 215.50,397.00 215.50,396.00 215.50,395.00 215.50,394.00 215.50,393.00 215.50,392.00 215.50,391.00 215.50,390.00 215.50,389.00 215.50,388.00 215.50,387.00 215.50,386.00 215.50,385.00 215.50,384.00 215.50,383.00 215.50,382.00 215.50,381.00 215.50,380.00 215.50,379.00 215.50,378.00 215.50,377.00 215.50,376.00 215.50,375.00 215.50,374.00 215.50,373.00 215.50,372.00 215.50,371.00 215.50,370.00 215.50,369.00 215.50,368.00 215.50,367.00 215.50,366.00 215.50,365.00 215.50,364.00 215.50,363.00 215.50,362.00 215.50,361.00 215.50,360.00 215.50,359.00 215.50,358.00 215.50,357.00 215.50,356.00 215.50,355.00 215.50,354.00 215.50,353.00 215.50,352.00 215.50,351.00 215.50,350.00 215.50,349.00 215.50,348.00 215.50,347.00 215.50,346.00 215.50,345.00 215.50,344.00 215.50,343.00 215.50,342.00 215.50,341.00 215.50,340.00 215.50,339.00 215.50,338.00 215.50,337.00 215.50,336.00 215.50,335.00 215.50,334.00 215.50,333.00 215.50,332.00 215.50,331.00 215.50,330.00 215.50,329.00 215.50,328.00 215.50,327.00 215.50,326.00 215.50,325.00 215.50,324.00 215.50,323.00 215.50,322.00 215.50,321.00 215.50,320.00 215.50,319.00 215.50,318.00 215.50,317.00 215.50,316.00 215.50,315.00 215.50,314.00 215.50,313.00 215.50,312.00 215.50,311.00 215.50,310.00 215.50,309.00 215.50,308.00 215.50,307.00 215.50,306.00 215.50,305.00 215.50,304.00 215.50,303.00 215.50,302.00 215.50,301.00 215.50,300.00 215.50,299.00 215.50,298.00 215.50,297.00 215.50,296.00 215.50,295.00 215.50,294.00 215.50,293.00 215.50,292.00 215.50,291.00 215.50,290.00 215.50,289.00 215.50,288.00 215.50,287.00 215.50,286.00 215.00,285.50 214.50,285.00 214.50,284.00 214.00,283.50 213.50,283.00 213.50,282.00 213.00,281.50 212.50,281.00 212.50,280.00 212.00,279.50 211.50,279.00 211.00,278.50 210.50,278.00 210.50,277.00 210.00,276.50 209.50,276.00 209.50,275.00 209.00,274.50 208.50,274.00 208.00,273.50 207.50,273.00 207.50,272.00 207.00,271.50 206.50,271.00 206.50,270.00 206.00,269.50 205.50,269.00 205.50,268.00 205.00,267.50 204.50,267.00 204.00,266.50 203.50,266.00 203.50,265.00 203.00,264.50 202.50,264.00 202.50,263.00 202.00,262.50 201.50,262.00 201.50,261.00 201.00,260.50 200.50,260.00 200.00,259.50 199.50,259.00 199.50,258.00 199.00,257.50 198.50,257.00 198.50,256.00 198.00,255.50 197.50,255.00 197.50,254.00 197.00,253.50 196.50,253.00 196.00,252.50 195.50,252.00 195.50,251.00 195.00,250.50 194.50,250.00 194.50,249.00 194.00,248.50 193.50,248.00 193.00,247.50 192.50,247.00 192.50,246.00 192.00,245.50 191.50,245.00 191.50,244.00 191.00,243.50 190.50,243.00 190.50,242.00 190.00,241.50 189.50,241.00 189.00,240.50 188.50,240.00 188.50,239.00 188.00,238.50 187.50,238.00 187.50,237.00 187.00,236.50 186.50,236.00 186.50,235.00 186.00,234.50 185.50,234.00 185.00,233.50 184.50,233.00 184.50,232.00 184.00,231.50 183.50,231.00 183.50,230.00 183.00,229.50 182.50,229.00 182.50,228.00 182.00,227.50 181.50,227.00 181.00,226.50 180.50,226.00 180.50,225.00 180.00,224.50 179.50,224.00 179.50,223.00 179.00,222.50 178.50,222.00 178.00,221.50 177.50,221.00 177.50,220.00 177.00,219.50 176.50,219.00 176.50,218.00 176.00,217.50 175.50,217.00 175.50,216.00 175.00,215.50 174.50,215.00 174.00,214.50 173.50,214.00 173.50,213.00 173.00,212.50 172.50,212.00 172.50,211.00 172.00,210.50 171.50,210.00 171.50,209.00 171.00,208.50 170.50,208.00 170.00,207.50 169.50,207.00 169.50,206.00 169.00,205.50 168.50,205.00 168.50,204.00 168.00,203.50 167.50,203.00 167.50,202.00 167.00,201.50 166.50,201.00 166.00,200.50 165.50,200.00 165.50,199.00 165.00,198.50 164.50,198.00 164.50,197.00 164.00,196.50 163.50,196.00 163.00,195.50 162.50,195.00 162.50,194.00 162.00,193.50 161.50,193.00 161.50,192.00 161.00,191.50 160.50,191.00 160.50,190.00 160.00,189.50 159.50,189.00 159.00,188.50 158.50,188.00 158.50,187.00 158.00,186.50 157.50,186.00 157.50,185.00 157.00,184.50 156.50,184.00 156.50,183.00 156.00,182.50 155.50,182.00 155.00,181.50 154.50,181.00 154.50,180.00 154.00,179.50 153.50,179.00 153.50,178.00 153.00,177.50 152.50,177.00 152.00,176.50 151.50,176.00 151.50,175.00 151.00,174.50 150.50,174.00 150.50,173.00 150.00,172.50 149.50,172.00 149.50,171.00 149.00,170.50 148.50,170.00 148.00,169.50 147.50,169.00 147.50,168.00 147.00,167.50 146.50,167.00 146.50,166.00 146.00,165.50 145.50,165.00 145.50,164.00 145.00,163.50 144.50,163.00 144.00,162.50 143.50,162.00 143.50,161.00 143.00,160.50 142.50,160.00 142.50,159.00 142.00,158.50 141.50,158.00 141.50,157.00 141.00,156.50 140.50,156.00 140.00,155.50 139.50,155.00 139.50,154.00 139.00,153.50 138.50,153.00 138.50,152.00 138.00,151.50 137.50,151.00 137.00,150.50 136.50,150.00 136.50,149.00 136.00,148.50 135.50,148.00 135.50,147.00 135.00,146.50 134.50,146.00 134.50,145.00 134.00,144.50 133.50,144.00 133.00,143.50 132.50,143.00 132.50,142.00 132.00,141.50 131.50,141.00 131.50,140.00 131.00,139.50 130.50,139.00 130.50,138.00 130.00,137.50 129.50,137.00 129.00,136.50 128.50,136.00 128.50,135.00 128.00,134.50 127.50,134.00 127.50,133.00 127.00,132.50 126.50,132.00 126.50,131.00 126.00,130.50 125.50,130.00 125.00,129.50 124.50,129.00 124.50,128.00 124.00,127.50 123.50,127.00 123.50,126.00 123.00,125.50 122.50,125.00 122.00,124.50 121.50,124.00 121.50,123.00 121.00,122.50 120.50,122.00 120.50,121.00 120.00,120.50 119.50,120.00 119.50,119.00 119.00,118.50 118.50,118.00 118.00,117.50 117.50,117.00 117.50,116.00 117.00,115.50 116.50,115.00 116.50,114.00 116.00,113.50 115.50,113.00 115.50,112.00 115.00,111.50 114.50,111.00 114.00,110.50 113.50,110.00 113.50,109.00 113.00,108.50 112.50,108.00 112.50,107.00 112.00,106.50 111.50,106.00 111.50,105.00 111.00,104.50 110.50,104.00 110.00,103.50 109.50,103.00 109.50,102.00 109.00,101.50 108.50,101.00 108.50,100.00 108.00,99.50 107.50,99.00 107.00,98.50 106.50,98.00 106.50,97.00 106.00,96.50 105.50,96.00 105.50,95.00 105.00,94.50 104.50,94.00 104.50,93.00 104.00,92.50 103.50,92.00 103.00,91.50 102.50,91.00 102.50,90.00 102.00,89.50 101.50,89.00 101.50,88.00 101.00,87.50 100.50,87.00 100.50,86.00 101.00,85.50 102.00,85.50 103.00,85.50 104.00,85.50 105.00,85.50 106.00,85.50 107.00,85.50 108.00,85.50 109.00,85.50 110.00,85.50 111.00,85.50 112.00,85.50 113.00,85.50 114.00,85.50 115.00,85.50 116.00,85.50 117.00,85.50 118.00,85.50 119.00,85.50 120.00,85.50 121.00,85.50 122.00,85.50 123.00,85.50 124.00,85.50 125.00,85.50 126.00,85.50 127.00,85.50 128.00,85.50 129.00,85.50 130.00,85.50 131.00,85.50 132.00,85.50 133.00,85.50 134.00,85.50 135.00,85.50 136.00,85.50 137.00,85.50 138.00,85.50 139.00,85.50 140.00,85.50 141.00,85.50 142.00,85.50 143.00,85.50 144.00,85.50 145.00,85.50 146.00,85.50 147.00,85.50 148.00,85.50 149.00,85.50 150.00,85.50 151.00,85.50 152.00,85.50 153.00,85.50 154.00,85.50 155.00,85.50 156.00,85.50 157.00,85.50 158.00,85.50 159.00,85.50 160.00,85.50 161.00,85.50 162.00,85.50 163.00,85.50 164.00,85.50 165.00,85.50 166.00,85.50 167.00,85.50 168.00,85.50 169.00,85.50 169.50,86.00 170.00,86.50 170.50,87.00 170.50,88.00 171.00,88.50 171.50,89.00 171.50,90.00 172.00,90.50 172.50,91.00 173.00,91.50 173.50,92.00 173.50,93.00 174.00,93.50 174.50,94.00 174.50,95.00 175.00,95.50 175.50,96.00 176.00,96.50 176.50,97.00 176.50,98.00 177.00,98.50 177.50,99.00 177.50,100.00 178.00,100.50 178.50,101.00 178.50,102.00 179.00,102.50 179.50,103.00 180.00,103.50 180.50,104.00 180.50,105.00 181.00,105.50 181.50,106.00 181.50,107.00 182.00,107.50 182.50,108.00 182.50,109.00 183.00,109.50 183.50,110.00 184.00,110.50 184.50,111.00 184.50,112.00 185.00,112.50 185.50,113.00 185.50,114.00 186.00,114.50 186.50,115.00 186.50,116.00 187.00,116.50 187.50,117.00 188.00,117.50 188.50,118.00 188.50,119.00 189.00,119.50 189.50,120.00 189.50,121.00 190.00,121.50 190.50,122.00 191.00,122.50 191.50,123.00 191.50,124.00 192.00,124.50 192.50,125.00 192.50,126.00 193.00,126.50 193.50,127.00 193.50,128.00 194.00,128.50 194.50,129.00 195.00,129.50 195.50,130.00 195.50,131.00 196.00,131.50 196.50,132.00 196.50,133.00 197.00,133.50 197.50,134.00 197.50,135.00 198.00,135.50 198.50,136.00 199.00,136.50 199.50,137.00 199.50,138.00 200.00,138.50 200.50,139.00 200.50,140.00 201.00,140.50 201.50,141.00 202.00,141.50 202.50,142.00 202.50,143.00 203.00,143.50 203.50,144.00 203.50,145.00 204.00,145.50 204.50,146.00 204.50,147.00 205.00,147.50 205.50,148.00 206.00,148.50 206.50,149.00 206.50,150.00 207.00,150.50 207.50,151.00 207.50,152.00 208.00,152.50 208.50,153.00 208.50,154.00 209.00,154.50 209.50,155.00 210.00,155.50 210.50,156.00 210.50,157.00 211.00,157.50 211.50,158.00 211.50,159.00 212.00,159.50 212.50,160.00 212.50,161.00 213.00,161.50 213.50,162.00 214.00,162.50 214.50,163.00 214.50,164.00 215.00,164.50 215.50,165.00 215.50,166.00 216.00,166.50 216.50,167.00 217.00,167.50 217.50,168.00 217.50,169.00 218.00,169.50 218.50,170.00 218.50,171.00 219.00,171.50 219.50,172.00 219.50,173.00 220.00,173.50 220.50,174.00 221.00,174.50 221.50,175.00 221.50,176.00 222.00,176.50 222.50,177.00 222.50,178.00 223.00,178.50 223.50,179.00 223.50,180.00 224.00,180.50 224.50,181.00 225.00,181.50 225.50,182.00 225.50,183.00 226.00,183.50 226.50,184.00 226.50,185.00 227.00,185.50 227.50,186.00 227.50,187.00 228.00,187.50 228.50,188.00 229.00,188.50 229.50,189.00 229.50,190.00 230.00,190.50 230.50,191.00 230.50,192.00 231.00,192.50 231.50,193.00 232.00,193.50 232.50,194.00 232.50,195.00 233.00,195.50 233.50,196.00 233.50,197.00 234.00,197.50 234.50,198.00 234.50,199.00 235.00,199.50 235.50,200.00 236.00,200.50 236.50,201.00 236.50,202.00 237.00,202.50 237.50,203.00 237.50,204.00 238.00,204.50 238.50,205.00 238.50,206.00 239.00,206.50 239.50,207.00 240.00,207.50 240.50,208.00 240.50,209.00 241.00,209.50 242.00,209.50 242.50,209.00 243.00,208.50 243.50,208.00 243.50,207.00 244.00,206.50 244.50,206.00 244.50,205.00 245.00,204.50 245.50,204.00 245.50,203.00 246.00,202.50 246.50,202.00 247.00,201.50 247.50,201.00 247.50,200.00 248.00,199.50 248.50,199.00 248.50,198.00 249.00,197.50 249.50,197.00 250.00,196.50 250.50,196.00 250.50,195.00 251.00,194.50 251.50,194.00 251.50,193.00 252.00,192.50 252.50,192.00 252.50,191.00 253.00,190.50 253.50,190.00 254.00,189.50 254.50,189.00 254.50,188.00 255.00,187.50 255.50,187.00 255.50,186.00 256.00,185.50 256.50,185.00 256.50,184.00 257.00,183.50 257.50,183.00 258.00,182.50 258.50,182.00 258.50,181.00 259.00,180.50 259.50,180.00 259.50,179.00 260.00,178.50 260.50,178.00 260.50,177.00 261.00,176.50 261.50,176.00 262.00,175.50 262.50,175.00 262.50,174.00 263.00,173.50 263.50,173.00 263.50,172.00 264.00,171.50 264.50,171.00 265.00,170.50 265.50,170.00 265.50,169.00 266.00,168.50 266.50,168.00 266.50,167.00 267.00,166.50 267.50,166.00 267.50,165.00 268.00,164.50 268.50,164.00 269.00,163.50 269.50,163.00 269.50,162.00 270.00,161.50 270.50,161.00 270.50,160.00 271.00,159.50 271.50,159.00 271.50,158.00 272.00,157.50 272.50,157.00 273.00,156.50 273.50,156.00 273.50,155.00 274.00,154.50 274.50,154.00 274.50,153.00 275.00,152.50 275.50,152.00 275.50,151.00 276.00,150.50 276.50,150.00 277.00,149.50 277.50,149.00 277.50,148.00 278.00,147.50 278.50,147.00 278.50,146.00 279.00,145.50 279.50,145.00 280.00,144.50 280.50,144.00 280.50,143.00 281.00,142.50 281.50,142.00 281.50,141.00 282.00,140.50 282.50,140.00 282.50,139.00 283.00,138.50 283.50,138.00 284.00,137.50 284.50,137.00 284.50,136.00 285.00,135.50 285.50,135.00 285.50,134.00 286.00,133.50 286.50,133.00 286.50,132.00 287.00,131.50 287.50,131.00 288.00,130.50 288.50,130.00 288.50,129.00 289.00,128.50 289.50,128.00 289.50,127.00 290.00,126.50 290.50,126.00 291.00,125.50 291.50,125.00 291.50,124.00 292.00,123.50 292.50,123.00 292.50,122.00 293.00,121.50 293.50,121.00 293.50,120.00 294.00,119.50 294.50,119.00 295.00,118.50 295.50,118.00 295.50,117.00 296.00,116.50 296.50,116.00 296.50,115.00 297.00,114.50 297.50,114.00 297.50,113.00 298.00,112.50 298.50,112.00 299.00,111.50 299.50,111.00 299.50,110.00 300.00,109.50 300.50,109.00 300.50,108.00 301.00,107.50 301.50,107.00 301.50,106.00 302.00,105.50 302.50,105.00 303.00,104.50 303.50,104.00 303.50,103.00 304.00,102.50 304.50,102.00 304.50,101.00 305.00,100.50 305.50,100.00 306.00,99.50 306.50,99.00 306.50,98.00 307.00,97.50 307.50,97.00 307.50,96.00 308.00,95.50 308.50,95.00 308.50,94.00 309.00,93.50 309.50,93.00 310.00,92.50 310.50,92.00 310.50,91.00 311.00,90.50 311.50,90.00 311.50,89.00 312.00,88.50 312.50,88.00 312.50,87.00 313.00,86.50 313.50,86.00 314.00,85.50 315.00,85.50 316.00,85.50 317.00,85.50 318.00,85.50 319.00,85.50 320.00,85.50 321.00,85.50 322.00,85.50 323.00,85.50 324.00,85.50 325.00,85.50 326.00,85.50 327.00,85.50 328.00,85.50 329.00,85.50 330.00,85.50 331.00,85.50 332.00,85.50 333.00,85.50 334.00,85.50 335.00,85.50 336.00,85.50 337.00,85.50 338.00,85.50 339.00,85.50 340.00,85.50 341.00,85.50 342.00,85.50 343.00,85.50 344.00,85.50 345.00,85.50 346.00,85.50 347.00,85.50 348.00,85.50 349.00,85.50 350.00,85.50 351.00,85.50 352.00,85.50 353.00,85.50 354.00,85.50 355.00,85.50 356.00,85.50 357.00,85.50 358.00,85.50 359.00,85.50 360.00,85.50 361.00,85.50 362.00,85.50 363.00,85.50 364.00,85.50 365.00,85.50 366.00,85.50 367.00,85.50 368.00,85.50 369.00,85.50 370.00,85.50 371.00,85.50 372.00,85.50 373.00,85.50 374.00,85.50 375.00,85.50 376.00,85.50 377.00,85.50 378.00,85.50 379.00,85.50 380.00,85.50 381.00,85.50 382.00,85.50 383.00,85.50 383.50,86.00 383.00,86.50 382.50,87.00 382.50,88.00 382.00,88.50 381.50,89.00 381.00,89.50 380.50,90.00 380.50,91.00 380.00,91.50 379.50,92.00 379.50,93.00 379.00,93.50 378.50,94.00 378.00,94.50 377.50,95.00 377.50,96.00 377.00,96.50 376.50,97.00 376.50,98.00 376.00,98.50 375.50,99.00 375.50,100.00 375.00,100.50 374.50,101.00 374.00,101.50 373.50,102.00 373.50,103.00 373.00,103.50 372.50,104.00 372.50,105.00 372.00,105.50 371.50,106.00 371.50,107.00 371.00,107.50 370.50,108.00 370.00,108.50 369.50,109.00 369.50,110.00 369.00,110.50 368.50,111.00 368.50,112.00 368.00,112.50 367.50,113.00 367.50,114.00 367.00,114.50 366.50,115.00 366.00,115.50 365.50,116.00 365.50,117.00 365.00,117.50 364.50,118.00 364.50,119.00 364.00,119.50 363.50,120.00 363.00,120.50 362.50,121.00 362.50,122.00 362.00,122.50 361.50,123.00 361.50,124.00 361.00,124.50 360.50,125.00 360.50,126.00 360.00,126.50 359.50,127.00 359.00,127.50 358.50,128.00 358.50,129.00 358.00,129.50 357.50,130.00 357.50,131.00 357.00,131.50 356.50,132.00 356.50,133.00 356.00,133.50 355.50,134.00 355.00,134.50 354.50,135.00 354.50,136.00 354.00,136.50 353.50,137.00 353.50,138.00 353.00,138.50 352.50,139.00 352.00,139.50 351.50,140.00 351.50,141.00 351.00,141.50 350.50,142.00 350.50,143.00 350.00,143.50 349.50,144.00 349.50,145.00 349.00,145.50 348.50,146.00 348.00,146.50 347.50,147.00 347.50,148.00 347.00,148.50 346.50,149.00 346.50,150.00 346.00,150.50 345.50,151.00 345.50,152.00 345.00,152.50 344.50,153.00 344.00,153.50 343.50,154.00 343.50,155.00 343.00,155.50 342.50,156.00 342.50,157.00 342.00,157.50 341.50,158.00 341.50,159.00 341.00,159.50 340.50,160.00 340.00,160.50 339.50,161.00 339.50,162.00 339.00,162.50 338.50,163.00 338.50,164.00 338.00,164.50 337.50,165.00 337.00,165.50 336.50,166.00 336.50,167.00 336.00,167.50 335.50,168.00 335.50,169.00 335.00,169.50 334.50,170.00 334.50,171.00 334.00,171.50 333.50,172.00 333.00,172.50 332.50,173.00 332.50,174.00 332.00,174.50 331.50,175.00 331.50,176.00 331.00,176.50 330.50,177.00 330.50,178.00 330.00,178.50 329.50,179.00 329.00,179.50 328.50,180.00 328.50,181.00 328.00,181.50 327.50,182.00 327.50,183.00 327.00,183.50 326.50,184.00 326.50,185.00 326.00,185.50 325.50,186.00 325.00,186.50 324.50,187.00 324.50,188.00 324.00,188.50 323.50,189.00 323.50,190.00 323.00,190.50 322.50,191.00 322.00,191.50 321.50,192.00 321.50,193.00 321.00,193.50 320.50,194.00 320.50,195.00 320.00,195.50 319.50,196.00 319.50,197.00 319.00,197.50 318.50,198.00 318.00,198.50 317.50,199.00 317.50,200.00 317.00,200.50 316.50,201.00 316.50,202.00 316.00,202.50 315.50,203.00 315.50,204.00 315.00,204.50 314.50,205.00 314.00,205.50 313.50,206.00 313.50,207.00 313.00,207.50 312.50,208.00 312.50,209.00 312.00,209.50 311.50,210.00 311.00,210.50 310.50,211.00 310.50,212.00 310.00,212.50 309.50,213.00 309.50,214.00 309.00,214.50 308.50,215.00 308.50,216.00 308.00,216.50 307.50,217.00 307.00,217.50 306.50,218.00 306.50,219.00 306.00,219.50 305.50,220.00 305.50,221.00 305.00,221.50 304.50,222.00 304.50,223.00 304.00,223.50 303.50,224.00 303.00,224.50 302.50,225.00 302.50,226.00 302.00,226.50 301.50,227.00 301.50,228.00 301.00,228.50 300.50,229.00 300.50,230.00 300.00,230.50 299.50,231.00 299.00,231.50 298.50,232.00 298.50,233.00 298.00,233.50 297.50,234.00 297.50,235.00 297.00,235.50 296.50,236.00 296.00,236.50 295.50,237.00 295.50,238.00 295.00,238.50 294.50,239.00 294.50,240.00 294.00,240.50 293.50,241.00 293.50,242.00 293.00,242.50 292.50,243.00 292.00,243.50 291.50,244.00 291.50,245.00 291.00,245.50 290.50,246.00 290.50,247.00 290.00,247.50 289.50,248.00 289.50,249.00 289.00,249.50 288.50,250.00 288.00,250.50 287.50,251.00 287.50,252.00 287.00,252.50 286.50,253.00 286.50,254.00 286.00,254.50 285.50,255.00 285.50,256.00 285.00,256.50 284.50,257.00 284.00,257.50 283.50,258.00 283.50,259.00 283.00,259.50 282.50,260.00 282.50,261.00 282.00,261.50 281.50,262.00 281.00,262.50 280.50,263.00 280.50,264.00 280.00,264.50 279.50,265.00 279.50,266.00 279.00,266.50 278.50,267.00 278.50,268.00 278.00,268.50 277.50,269.00 277.00,269.50 276.50,270.00 276.50,271.00 276.00,271.50 275.50,272.00 275.50,273.00 275.00,273.50 274.50,274.00 274.50,275.00 274.00,275.50 273.50,276.00 273.00,276.50 272.50,277.00 272.50,278.00 272.00,278.50 271.50,279.00 271.50,280.00 271.00,280.50 270.50,281.00 270.50,282.00 270.00,282.50 269.50,283.00 269.00,283.50 268.50,284.00 268.50,285.00 268.00,285.50 267.50,286.00 267.50,287.00 267.50,288.00 267.50,289.00 267.50,290.00 267.50,291.00 267.50,292.00 267.50,293.00 267.50,294.00 267.50,295.00 267.50,296.00 267.50,297.00 267.50,298.00 267.50,299.00 267.50,300.00 267.50,301.00 267.50,302.00 267.50,303.00 267.50,304.00 267.50,305.00 267.50,306.00 267.50,307.00 267.50,308.00 267.50,309.00 267.50,310.00 267.50,311.00 267.50,312.00 267.50,313.00 267.50,314.00 267.50,315.00 267.50,316.00 267.50,317.00 267.50,318.00 267.50,319.00 267.50,320.00 267.50,321.00 267.50,322.00 267.50,323.00 267.50,324.00 267.50,325.00 267.50,326.00 267.50,327.00 267.50,328.00 267.50,329.00 267.50,330.00 267.50,331.00 267.50,332.00 267.50,333.00 267.50,334.00 267.50,335.00 267.50,336.00 267.50,337.00 267.50,338.00 267.50,339.00 267.50,340.00 267.50,341.00 267.50,342.00 267.50,343.00 267.50,344.00 267.50,345.00 267.50,346.00 267.50,347.00 267.50,348.00 267.50,349.00 267.50,350.00 267.50,351.00 267.50,352.00 267.50,353.00 267.50,354.00 267.50,355.00 267.50,356.00 267.50,357.00 267.50,358.00 267.50,359.00 267.50,360.00 267.50,361.00 267.50,362.00 267.50,363.00 267.50,364.00 267.50,365.00 267.50,366.00 267.50,367.00 267.50,368.00 267.50,369.00 267.50,370.00 267.50,371.00 267.50,372.00 267.50,373.00 267.50,374.00 267.50,375.00 267.50,376.00 267.50,377.00 267.50,378.00 267.50,379.00 267.50,380.00 267.50,381.00 267.50,382.00 267.50,383.00 267.50,384.00 267.50,385.00 267.50,386.00 267.50,387.00 267.50,388.00 267.50,389.00 267.50,390.00 267.50,391.00 267.50,392.00 267.50,393.00 267.50,394.00 267.50,395.00 267.50,396.00 267.50,397.00 267.50,398.00 267.00,398.50" />
</svg>