<svg xmlns="http://www.w3.org/2000/svg" width="283" height="283" viewBox="0 0 283 283">
<polyline fill="none" stroke="#222" stroke-width="1" points="136.00,231.50 135.00,231.50 134.00,231.50 133.00,231.50 132.00,231.50 131.00,231.50 130.00,231.50 129.00,231.50 128.00,231.50 127.00,231.50 126.00,231.50 125.00,231.50 124.00,231.50 123.00,231.50 122.00,231.50 121.00,231.50 120.00,231.50 119.00,231.50 118.00,231.50 117.00,231.50 116.00,231.50 115.00,231.50 114.00,231.50 113.00,231.50 112.00,231.50 111.00,231.50 110.00,231.50 109.00,231.50 108.00,231.50 107.00,231.50 106.00,231.50 105.00,231.50 104.00,231.50 103.00,231.50 102.00,231.50 101.00,231.50 100.00,231.50 99.00,231.50 98.00,231.50 97.00,231.50 96.00,231.50 95.00,231.50 94.00,231.50 93.00,231.50 92.00,231.50 91.00,231.50 90.00,231.50 89.00,231.50 88.00,231.50 87.00,231.50 86.00,231.50 85.00,231.50 84.00,231.50 83.00,231.50 82.00,231.50 81.00,231.50 80.00,231.50 79.00,231.50 78.00,231.50 77.00,231.50 76.00,231.50 75.00,231.50 74.00,231.50 73.00,231.50 72.00,231.50 71.00,231.50 70.00,231.50 69.00,231.50 68.00,231.50 67.00,231.50 66.00,231.50 65.00,231.50 64.00,231.50 63.00,231.50 62.00,231.50 61.00,231.50 60.00,231.50 59.00,231.50 58.00,231.50 57.00,231.50 56.00,231.50 55.00,231.50 54.00,231.50 53.00,231.50 52.00,231.50 51.00,231.50 50.00,231.50 49.00,231.50 48.00,231.50 47.00,231.50 46.00,231.50 45.00,231.50 44.00,231.50 43.00,231.50 42.00,231.50 41.00,231.50 40.00,231.50 39.00,231.50 38.00,231.50 37.00,231.50 36.00,231.50 35.00,231.50 34.00,231.50 33.50,231.00 33.50,230.00 33.50,229.00 33.50,228.00 34.00,227.50 34.50,227.00 34.50,226.00 34.50,225.00 34.50,224.00 34.50,223.00 35.00,222.50 35.50,222.00 35.50,221.00 35.50,220.00 35.50,219.00 36.00,218.50 36.50,218.00 36.50,217.00 36.50,216.00 37.00,215.50 38.00,215.50 39.00,215.50 40.00,215.50 41.00,215.50 42.00,215.50 43.00,215.50 44.00,215.50 45.00,215.50 46.00,215.50 47.00,215.50 48.00,215.50 49.00,215.50 50.00,215.50 51.00,215.50 52.00,215.50 53.00,215.50 54.00,215.50 55.00,215.50 56.00,215.50 57.00,215.50 58.00,215.50 59.00,215.50 60.00,215.50 61.00,215.50 62.00,215.50 63.00,215.50 64.00,215.50 65.00,215.50 66.00,215.50 67.00,215.50 68.00,215.50 69.00,215.50 70.00,215.50 71.00,215.50 72.00,215.50 73.00,215.50 74.00,215.50 75.00,215.50 76.00,215.50 77.00,215.50 78.00,215.50 79.00,215.50 80.00,215.50 81.00,215.50 82.00,215.50 83.00,215.50 84.00,215.50 85.00,215.50 86.00,215.50 87.00,215.50 88.00,215.50 89.00,215.50 90.00,215.50 91.00,215.50 92.00,215.50 93.00,215.50 94.00,215.50 95.00,215.50 96.00,215.50 97.00,215.50 98.00,215.50 99.00,215.50 100.00,215.50 101.00,215.50 102.00,215.50 103.00,215.50 104.00,215.50 105.00,215.50 106.00,215.50 107.00,215.50 108.00,215.50 109.00,215.50 110.00,215.50 111.00,215.50 112.00,215.50 113.00,215.50 114.00,215.50 115.00,215.50 116.00,215.50 117.00,215.50 118.00,215.50 119.00,215.50 120.00,215.50 121.00,215.50 122.00,215.50 123.00,215.50 124.00,215.50 125.00,215.50 126.00,215.50 127.00,215.50 128.00,215.50 129.00,215.50 130.00,215.50 131.00,215.50 132.00,215.50 133.00,215.50 134.00,215.50 135.00,215.50 136.00,215.50 136.50,215.00 137.00,214.50 138.00,214.50 139.00,214.50 140.00,214.50 140.50,214.00 141.00,213.50 142.00,213.50 142.50,213.00 143.00,212.50 144.00,212.50 144.50,212.00 145.00,211.50 145.50,211.00 146.00,210.50 146.50,210.00 147.00,209.50 147.50,209.00 148.00,208.50 148.50,208.00 149.00,207.50 149.50,207.00 150.00,206.50 150.50,206.00 151.00,205.50 151.50,205.00 151.50,204.00 152.00,203.50 152.50,203.00 152.50,202.00 153.00,201.50 153.50,201.00 153.50,200.00 153.50,199.00 154.00,198.50 154.50,198.00 154.50,197.00 154.50,196.00 154.50,195.00 154.50,194.00 155.00,193.50 155.50,193.00 155.50,192.00 155.50,191.00 155.50,190.00 156.00,189.50 156.50,189.00 156.50,188.00 156.50,187.00 156.50,186.00 157.00,185.50 157.50,185.00 157.50,184.00 157.50,183.00 157.50,182.00 157.50,181.00 158.00,180.50 158.50,180.00 158.50,179.00 158.50,178.00 158.50,177.00 159.00,176.50 159.50,176.00 159.50,175.00 159.50,174.00 159.50,173.00 159.50,172.00 160.00,171.50 160.50,171.00 160.50,170.00 160.50,169.00 160.50,168.00 161.00,167.50 161.50,167.00 161.50,166.00 161.50,165.00 161.50,164.00 161.50,163.00 162.00,162.50 162.50,162.00 162.50,161.00 162.50,160.00 162.50,159.00 162.50,158.00 163.00,157.50 163.50,157.00 163.50,156.00 163.50,155.00 163.50,154.00 164.00,153.50 164.50,153.00 164.50,152.00 164.50,151.00 164.50,150.00 164.50,149.00 165.00,148.50 165.50,148.00 165.50,147.00 165.50,146.00 166.00,145.50 167.00,145.50 168.00,145.50 169.00,145.50 170.00,145.50 171.00,145.50 172.00,145.50 173.00,145.50 174.00,145.50 175.00,145.50 176.00,145.50 177.00,145.50 178.00,145.50 179.00,145.50 180.00,145.50 181.00,145.50 182.00,145.50 183.00,145.50 184.00,145.50 185.00,145.50 186.00,145.50 187.00,145.50 188.00,145.50 189.00,145.50 190.00,145.50 191.00,145.50 192.00,145.50 193.00,145.50 194.00,145.50 195.00,145.50 196.00,145.50 197.00,145.50 198.00,145.50 199.00,145.50 200.00,145.50 201.00,145.50 202.00,145.50 203.00,145.50 204.00,145.50 205.00,145.50 206.00,145.50 207.00,145.50 208.00,145.50 209.00,145.50 210.00,145.50 211.00,145.50 212.00,145.50 213.00,145.50 214.00,145.50 215.00,145.50 216.00,145.50 217.00,145.50 218.00,145.50 219.00,145.50 220.00,145.50 221.00,145.50 222.00,145.50 223.00,145.50 224.00,145.50 225.00,145.50 226.00,145.50 227.00,145.50 228.00,145.50 229.00,145.50 230.00,145.50 231.00,145.50 232.00,145.50 233.00,145.50 234.00,145.50 235.00,145.50 236.00,145.50 237.00,145.50 238.00,145.50 239.00,145.50 240.00,145.50 241.00,145.50 242.00,145.50 243.00,145.50 243.50,146.00 243.50,147.00 243.00,147.50 242.50,148.00 242.50,149.00 242.50,150.00 242.50,151.00 242.00,151.50 241.50,152.00 241.50,153.00 241.50,154.00 241.50,155.00 241.50,156.00 241.00,156.50 240.50,157.00 240.50,158.00 240.50,159.00 240.50,160.00 240.50,161.00 240.00,161.50 239.00,161.50 238.00,161.50 237.00,161.50 236.00,161.50 235.00,161.50 234.00,161.50 233.00,161.50 232.00,161.50 231.00,161.50 230.00,161.50 229.00,161.50 228.00,161.50 227.00,161.50 226.00,161.50 225.00,161.50 224.00,161.50 223.00,161.50 222.00,161.50 221.00,161.50 220.00,161.50 219.00,161.50 218.00,161.50 217.00,161.50 216.00,161.50 215.00,161.50 214.00,161.50 213.00,161.50 212.00,161.50 211.00,161.50 210.00,161.50 209.00,161.50 208.00,161.50 207.00,161.50 206.00,161.50 205.00,161.50 204.00,161.50 203.00,161.50 202.00,161.50 201.00,161.50 200.00,161.50 199.00,161.50 198.00,161.50 197.00,161.50 196.00,161.50 195.00,161.50 194.00,161.50 193.00,161.50 192.00,161.50 191.00,161.50 190.00,161.50 189.00,161.50 188.00,161.50 187.00,161.50 186.00,161.50 185.00,161.50 184.00,161.50 183.00,161.50 182.00,161.50 181.00,161.50 180.00,161.50 179.00,161.50 178.50,162.00 178.00,162.50 177.50,163.00 177.50,164.00 177.50,165.00 177.50,166.00 177.50,167.00 177.00,167.50 176.50,168.00 176.50,169.00 176.50,170.00 176.50,171.00 176.50,172.00 176.00,172.50 175.50,173.00 175.50,174.00 175.50,175.00 175.50,176.00 175.00,176.50 174.50,177.00 174.50,178.00 174.50,179.00 174.50,180.00 174.00,180.50 173.50,181.00 173.50,182.00 173.50,183.00 173.50,184.00 173.50,185.00 173.00,185.50 172.50,186.00 172.50,187.00 172.50,188.00 172.50,189.00 172.50,190.00 172.00,190.50 171.50,191.00 171.50,192.00 171.50,193.00 171.50,194.00 171.00,194.50 170.50,195.00 170.50,196.00 170.50,197.00 170.50,198.00 170.50,199.00 170.00,199.50 169.50,200.00 169.50,201.00 169.50,202.00 169.50,203.00 169.00,203.50 168.50,204.00 168.50,205.00 168.50,206.00 168.00,206.50 167.50,207.00 167.50,208.00 167.00,208.50 166.50,209.00 166.50,210.00 166.00,210.50 165.50,211.00 165.50,212.00 165.00,212.50 164.50,213.00 164.00,213.50 163.50,214.00 163.50,215.00 163.00,215.50 162.50,216.00 162.00,216.50 161.50,217.00 161.00,217.50 160.50,218.00 160.50,219.00 160.00,219.50 159.50,220.00 159.00,220.50 158.50,221.00 158.00,221.50 157.00,221.50 156.50,222.00 156.00,222.50 155.50,223.00 155.00,223.50 154.50,224.00 154.00,224.50 153.50,225.00 153.00,225.50 152.00,225.50 151.50,226.00 151.00,226.50 150.00,226.50 149.50,227.00 149.00,227.50 148.00,227.50 147.50,228.00 147.00,228.50 146.00,228.50 145.00,228.50 144.50,229.00 144.00,229.50 143.00,229.50 142.00,229.50 141.50,230.00 141.00,230.50 140.00,230.50 139.00,230.50 138.00,230.50 137.00,230.50 136.50,231.00 136.00,231.50" />
<polyline fill="none" stroke="#090" stroke-width="1" stroke-dasharray="3,2" points="245.00,53.50 244.00,53.50 243.50,53.00 244.00,52.50 245.00,52.50 245.50,53.00 245.00,53.50" />
<polyline fill="none" stroke="#090" stroke-width="1" stroke-dasharray="3,2" points="243.00,54.50 242.50,54.00 243.00,53.50 243.50,54.00 243.00,54.50" />
<polyline fill="none" stroke="#090" stroke-width="1" stroke-dasharray="3,2" points="242.00,55.50 241.00,55.50 240.50,55.00 241.00,54.50 242.00,54.50 242.50,55.00 242.00,55.50" />
<polyline fill="none" stroke="#090" stroke-width="1" stroke-dasharray="3,2" points="240.00,56.50 239.50,56.00 240.00,55.50 240.50,56.00 240.00,56.50" />
<polyline fill="none" stroke="#090" stroke-width="1" stroke-dasharray="3,2" points="239.00,57.50 238.50,57.00 239.00,56.50 239.50,57.00 239.00,57.50" />
<polyline fill="none" stroke="#090" stroke-width="1" stroke-dasharray="3,2" points="238.00,58.50 237.00,58.50 236.50,58.00 237.00,57.50 238.00,57.50 238.50,58.00 238.00,58.50" />
<polyline fill="none" stroke="#090" stroke-width="1" stroke-dasharray="3,2" points="236.00,59.50 235.00,59.50 234.00,59.50 233.00,59.50 232.00,59.50 231.00,59.50 230.00,59.50 229.00,59.50 228.00,59.50 227.00,59.50 226.00,59.50 225.00,59.50 224.00,59.50 223.00,59.50 222.00,59.50 221.00,59.50 220.00,59.50 219.00,59.50 218.00,59.50 217.00,59.50 216.00,59.50 215.00,59.50 214.00,59.50 213.00,59.50 212.00,59.50 211.00,59.50 210.00,59.50 209.00,59.50 208.00,59.50 207.00,59.50 206.00,59.50 205.00,59.50 204.00,59.50 203.00,59.50 202.00,59.50 201.00,59.50 200.00,59.50 199.00,59.50 198.00,59.50 197.00,59.50 196.00,59.50 195.00,59.50 194.00,59.50 193.00,59.50 192.00,59.50 191.00,59.50 190.00,59.50 189.00,59.50 188.00,59.50 187.00,59.50 186.00,59.50 185.00,59.50 184.00,59.50 183.00,59.50 182.00,59.50 181.00,59.50 180.00,59.50 179.00,59.50 178.00,59.50 177.00,59.50 176.00,59.50 175.00,59.50 174.00,59.50 173.00,59.50 172.00,59.50 171.00,59.50 170.00,59.50 169.00,59.50 168.00,59.50 167.00,59.50 166.00,59.50 165.00,59.50 164.00,59.50 163.00,59.50 162.00,59.50 161.00,59.50 160.00,59.50 159.00,59.50 158.00,59.50 157.00,59.50 156.00,59.50 155.00,59.50 154.00,59.50 153.00,59.50 152.00,59.50 151.00,59.50 150.00,59.50 149.00,59.50 148.00,59.50 147.00,59.50 146.00,59.50 145.00,59.50 144.00,59.50 143.00,59.50 142.00,59.50 141.00,59.50 140.00,59.50 139.00,59.50 138.00,59.50 137.00,59.50 136.00,59.50 135.00,59.50 134.00,59.50 133.00,59.50 132.00,59.50 131.00,59.50 130.00,59.50 129.00,59.50 128.00,59.50 127.00,59.50 126.00,59.50 125.00,59.50 124.00,59.50 123.00,59.50 122.00,59.50 121.00,59.50 120.00,59.50 119.00,59.50 118.00,59.50 117.00,59.50 116.00,59.50 115.00,59.50 114.00,59.50 113.00,59.50 112.00,59.50 111.00,59.50 110.00,59.50 109.00,59.50 108.00,59.50 107.00,59.50 106.00,59.50 105.00,59.50 104.00,59.50 103.00,59.50 102.00,59.50 101.00,59.50 100.50,59.00 101.00,58.50 102.00,58.50 103.00,58.50 104.00,58.50 105.00,58.50 106.00,58.50 107.00,58.50 108.00,58.50 109.00,58.50 110.00,58.50 111.00,58.50 112.00,58.50 113.00,58.50 114.00,58.50 115.00,58.50 116.00,58.50 117.00,58.50 118.00,58.50 119.00,58.50 120.00,58.50 121.00,58.50 122.00,58.50 123.00,58.50 124.00,58.50 125.00,58.50 126.00,58.50 127.00,58.50 128.00,58.50 129.00,58.50 130.00,58.50 131.00,58.50 132.00,58.50 133.00,58.50 134.00,58.50 135.00,58.50 136.00,58.50 137.00,58.50 138.00,58.50 139.00,58.50 140.00,58.50 141.00,58.50 142.00,58.50 143.00,58.50 144.00,58.50 145.00,58.50 146.00,58.50 147.00,58.50 148.00,58.50 149.00,58.50 150.00,58.50 151.00,58.50 152.00,58.50 153.00,58.50 154.00,58.50 155.00,58.50 156.00,58.50 157.00,58.50 158.00,58.50 159.00,58.50 160.00,58.50 161.00,58.50 162.00,58.50 163.00,58.50 164.00,58.50 165.00,58.50 166.00,58.50 167.00,58.50 168.00,58.50 169.00,58.50 170.00,58.50 171.00,58.50 172.00,58.50 173.00,58.50 174.00,58.50 175.00,58.50 176.00,58.50 177.00,58.50 178.00,58.50 179.00,58.50 180.00,58.50 181.00,58.50 182.00,58.50 183.00,58.50 184.00,58.50 185.00,58.50 186.00,58.50 187.00,58.50 188.00,58.50 189.00,58.50 190.00,58.50 191.00,58.50 192.00,58.50 193.00,58.50 194.00,58.50 195.00,58.50 196.00,58.50 197.00,58.50 198.00,58.50 199.00,58.50 200.00,58.50 201.00,58.50 202.00,58.50 203.00,58.50 204.00,58.50 205.00,58.50 206.00,58.50 207.00,58.50 208.00,58.50 209.00,58.50 210.00,58.50 211.00,58.50 212.00,58.50 213.00,58.50 214.00,58.50 215.00,58.50 216.00,58.50 217.00,58.50 218.00,58.50 219.00,58.50 220.00,58.50 221.00,58.50 222.00,58.50 223.00,58.50 224.00,58.50 225.00,58.50 226.00,58.50 227.00,58.50 228.00,58.50 229.00,58.50 230.00,58.50 231.00,58.50 232.00,58.50 233.00,58.50 234.00,58.50 235.00,58.50 236.00,58.50 236.50,59.00 236.00,59.50" />
<polyline fill="none" stroke="#090" stroke-width="1" stroke-dasharray="3,2" points="100.00,60.50 99.50,60.00 100.00,59.50 100.50,60.00 100.00,60.50" />
<polyline fill="none" stroke="#090" stroke-width="1" stroke-dasharray="3,2" points="99.00,61.50 98.50,61.00 99.00,60.50 99.50,61.00 99.00,61.50" />
<polyline fill="none" stroke="#090" stroke-width="1" stroke-dasharray="3,2" points="98.00,62.50 97.00,62.50 96.50,62.00 97.00,61.50 98.00,61.50 98.50,62.00 98.00,62.50" />
<polyline fill="none" stroke="#090" stroke-width="1" stroke-dasharray="3,2" points="96.00,63.50 95.50,63.00 96.00,62.50 96.50,63.00 96.00,63.50" />
<polyline fill="none" stroke="#090" stroke-width="1" stroke-dasharray="3,2" points="95.00,64.50 94.00,64.50 93.50,64.00 94.00,63.50 95.00,63.50 95.50,64.00 95.00,64.50" />
<polyline fill="none" stroke="#090" stroke-width="1" stroke-dasharray="3,2" points="239.00,81.50 238.50,81.00 239.00,80.50 239.50,81.00 239.00,81.50" />
<polyline fill="none" stroke="#090" stroke-width="1" stroke-dasharray="3,2" points="164.00,82.50 163.00,82.50 162.50,82.00 163.00,81.50 164.00,81.50 164.50,82.00 164.00,82.50" />
<polyline fill="none" stroke="#090" stroke-width="1" stroke-dasharray="3,2" points="238.00,82.50 237.50,82.00 238.00,81.50 238.50,82.00 238.00,82.50" />
<polyline fill="none" stroke="#090" stroke-width="1" stroke-dasharray="3,2" points="162.00,83.50 161.50,83.00 162.00,82.50 162.50,83.00 162.00,83.50" />
<polyline fill="none" stroke="#090" stroke-width="1" stroke-dasharray="3,2" points="237.00,83.50 236.50,83.00 237.00,82.50 237.50,83.00 237.00,83.50" />
<polyline fill="none" stroke="#090" stroke-width="1" stroke-dasharray="3,2" points="161.00,84.50 160.00,84.50 159.50,84.00 160.00,83.50 161.00,83.50 161.50,84.00 161.00,84.50" />
<polyline fill="none" stroke="#090" stroke-width="1" stroke-dasharray="3,2" points="236.00,84.50 235.00,84.50 234.50,84.00 235.00,83.50 236.00,83.50 236.50,84.00 236.00,84.50" />
<polyline fill="none" stroke="#090" stroke-width="1" stroke-dasharray="3,2" points="159.00,85.50 158.50,85.00 159.00,84.50 159.50,85.00 159.00,85.50" />
<polyline fill="none" stroke="#090" stroke-width="1" stroke-dasharray="3,2" points="234.00,85.50 233.50,85.00 234.00,84.50 234.50,85.00 234.00,85.50" />
<polyline fill="none" stroke="#090" stroke-width="1" stroke-dasharray="3,2" points="158.00,86.50 157.00,86.50 156.50,86.00 157.00,85.50 158.00,85.50 158.50,86.00 158.00,86.50" />
<polyline fill="none" stroke="#090" stroke-width="1" stroke-dasharray="3,2" points="233.00,86.50 232.00,86.50 231.50,86.00 232.00,85.50 233.00,85.50 233.50,86.00 233.00,86.50" />
<polyline fill="none" stroke="#090" stroke-width="1" stroke-dasharray="3,2" points="156.00,87.50 155.50,87.00 156.00,86.50 156.50,87.00 156.00,87.50" />
<polyline fill="none" stroke="#090" stroke-width="1" stroke-dasharray="3,2" points="231.00,87.50 230.50,87.00 231.00,86.50 231.50,87.00 231.00,87.50" />
<polyline fill="none" stroke="#090" stroke-width="1" stroke-dasharray="3,2" points="154.00,90.50 153.50,90.00 153.50,89.00 153.00,88.50 152.00,88.50 151.00,88.50 150.00,88.50 149.00,88.50 148.00,88.50 147.00,88.50 146.00,88.50 145.00,88.50 144.00,88.50 143.00,88.50 142.00,88.50 141.00,88.50 140.00,88.50 139.00,88.50 138.00,88.50 137.00,88.50 136.00,88.50 135.00,88.50 134.00,88.50 133.00,88.50 132.00,88.50 131.00,88.50 130.00,88.50 129.00,88.50 128.00,88.50 127.00,88.50 126.00,88.50 125.00,88.50 124.00,88.50 123.00,88.50 122.00,88.50 121.00,88.50 120.00,88.50 119.00,88.50 118.00,88.50 117.00,88.50 116.00,88.50 115.00,88.50 114.00,88.50 113.00,88.50 112.00,88.50 111.00,88.50 110.00,88.50 109.00,88.50 108.00,88.50 107.00,88.50 106.00,88.50 105.00,88.50 104.00,88.50 103.00,88.50 102.00,88.50 101.00,88.50 100.00,88.50 99.00,88.50 98.00,88.50 97.00,88.50 96.50,88.00 97.00,87.50 98.00,87.50 99.00,87.50 100.00,87.50 101.00,87.50 102.00,87.50 103.00,87.50 104.00,87.50 105.00,87.50 106.00,87.50 107.00,87.50 108.00,87.50 109.00,87.50 110.00,87.50 111.00,87.50 112.00,87.50 113.00,87.50 114.00,87.50 115.00,87.50 116.00,87.50 117.00,87.50 118.00,87.50 119.00,87.50 120.00,87.50 121.00,87.50 122.00,87.50 123.00,87.50 124.00,87.50 125.00,87.50 126.00,87.50 127.00,87.50 128.00,87.50 129.00,87.50 130.00,87.50 131.00,87.50 132.00,87.50 133.00,87.50 134.00,87.50 135.00,87.50 136.00,87.50 137.00,87.50 138.00,87.50 139.00,87.50 140.00,87.50 141.00,87.50 142.00,87.50 143.00,87.50 144.00,87.50 145.00,87.50 146.00,87.50 147.00,87.50 148.00,87.50 149.00,87.50 150.00,87.50 151.00,87.50 152.00,87.50 153.00,87.50 154.00,87.50 155.00,87.50 155.50,88.00 155.00,88.50 154.50,89.00 154.50,90.00 154.00,90.50" />
<polyline fill="none" stroke="#090" stroke-width="1" stroke-dasharray="3,2" points="230.00,88.50 229.00,88.50 228.00,88.50 227.00,88.50 226.00,88.50 225.00,88.50 224.00,88.50 223.00,88.50 222.00,88.50 221.00,88.50 220.00,88.50 219.00,88.50 218.00,88.50 217.00,88.50 216.00,88.50 215.00,88.50 214.00,88.50 213.00,88.50 212.00,88.50 211.00,88.50 210.00,88.50 209.00,88.50 208.00,88.50 207.00,88.50 206.00,88.50 205.00,88.50 204.00,88.50 203.00,88.50 202.00,88.50 201.00,88.50 200.00,88.50 199.00,88.50 198.00,88.50 197.00,88.50 196.00,88.50 195.00,88.50 194.00,88.50 193.00,88.50 192.00,88.50 191.00,88.50 190.00,88.50 189.00,88.50 188.00,88.50 187.50,88.00 188.00,87.50 189.00,87.50 190.00,87.50 191.00,87.50 192.00,87.50 193.00,87.50 194.00,87.50 195.00,87.50 196.00,87.50 197.00,87.50 198.00,87.50 199.00,87.50 200.00,87.50 201.00,87.50 202.00,87.50 203.00,87.50 204.00,87.50 205.00,87.50 206.00,87.50 207.00,87.50 208.00,87.50 209.00,87.50 210.00,87.50 211.00,87.50 212.00,87.50 213.00,87.50 214.00,87.50 215.00,87.50 216.00,87.50 217.00,87.50 218.00,87.50 219.00,87.50 220.00,87.50 221.00,87.50 222.00,87.50 223.00,87.50 224.00,87.50 225.00,87.50 226.00,87.50 227.00,87.50 228.00,87.50 229.00,87.50 230.00,87.50 230.50,88.00 230.00,88.50" />
<polyline fill="none" stroke="#090" stroke-width="1" stroke-dasharray="3,2" points="96.00,89.50 95.00,89.50 94.50,89.00 95.00,88.50 96.00,88.50 96.50,89.00 96.00,89.50" />
<polyline fill="none" stroke="#090" stroke-width="1" stroke-dasharray="3,2" points="187.00,89.50 186.50,89.00 187.00,88.50 187.50,89.00 187.00,89.50" />
<polyline fill="none" stroke="#090" stroke-width="1" stroke-dasharray="3,2" points="94.00,90.50 93.50,90.00 94.00,89.50 94.50,90.00 94.00,90.50" />
<polyline fill="none" stroke="#090" stroke-width="1" stroke-dasharray="3,2" points="186.00,91.50 185.50,91.00 185.50,90.00 186.00,89.50 186.50,90.00 186.50,91.00 186.00,91.50" />
<polyline fill="none" stroke="#090" stroke-width="1" stroke-dasharray="3,2" points="93.00,91.50 92.00,91.50 91.50,91.00 92.00,90.50 93.00,90.50 93.50,91.00 93.00,91.50" />
<polyline fill="none" stroke="#090" stroke-width="1" stroke-dasharray="3,2" points="153.00,100.50 152.50,100.00 152.50,99.00 152.50,98.00 152.50,97.00 152.50,96.00 152.50,95.00 152.50,94.00 152.50,93.00 152.50,92.00 152.50,91.00 153.00,90.50 153.50,91.00 153.50,92.00 153.50,93.00 153.50,94.00 153.50,95.00 153.50,96.00 153.50,97.00 153.50,98.00 153.50,99.00 153.50,100.00 153.00,100.50" />
<polyline fill="none" stroke="#090" stroke-width="1" stroke-dasharray="3,2" points="91.00,92.50 90.50,92.00 91.00,91.50 91.50,92.00 91.00,92.50" />
<polyline fill="none" stroke="#090" stroke-width="1" stroke-dasharray="3,2" points="185.00,95.50 184.50,95.00 184.50,94.00 184.50,93.00 184.50,92.00 185.00,91.50 185.50,92.00 185.50,93.00 185.50,94.00 185.50,95.00 185.00,95.50" />
<polyline fill="none" stroke="#090" stroke-width="1" stroke-dasharray="3,2" points="90.00,93.50 89.00,93.50 88.50,93.00 89.00,92.50 90.00,92.50 90.50,93.00 90.00,93.50" />
<polyline fill="none" stroke="#090" stroke-width="1" stroke-dasharray="3,2" points="88.00,94.50 87.50,94.00 88.00,93.50 88.50,94.00 88.00,94.50" />
<polyline fill="none" stroke="#090" stroke-width="1" stroke-dasharray="3,2" points="87.00,95.50 86.50,95.00 87.00,94.50 87.50,95.00 87.00,95.50" />
<polyline fill="none" stroke="#090" stroke-width="1" stroke-dasharray="3,2" points="184.00,100.50 183.50,100.00 183.50,99.00 183.50,98.00 183.50,97.00 183.50,96.00 184.00,95.50 184.50,96.00 184.50,97.00 184.50,98.00 184.50,99.00 184.50,100.00 184.00,100.50" />
<polyline fill="none" stroke="#090" stroke-width="1" stroke-dasharray="3,2" points="152.00,109.50 151.50,109.00 151.50,108.00 151.50,107.00 151.50,106.00 151.50,105.00 151.50,104.00 151.50,103.00 151.50,102.00 151.50,101.00 152.00,100.50 152.50,101.00 152.50,102.00 152.50,103.00 152.50,104.00 152.50,105.00 152.50,106.00 152.50,107.00 152.50,108.00 152.50,109.00 152.00,109.50" />
<polyline fill="none" stroke="#090" stroke-width="1" stroke-dasharray="3,2" points="183.00,104.50 182.50,104.00 182.50,103.00 182.50,102.00 182.50,101.00 183.00,100.50 183.50,101.00 183.50,102.00 183.50,103.00 183.50,104.00 183.00,104.50" />
<polyline fill="none" stroke="#090" stroke-width="1" stroke-dasharray="3,2" points="182.00,109.50 181.50,109.00 181.50,108.00 181.50,107.00 181.50,106.00 181.50,105.00 182.00,104.50 182.50,105.00 182.50,106.00 182.50,107.00 182.50,108.00 182.50,109.00 182.00,109.50" />
<polyline fill="none" stroke="#090" stroke-width="1" stroke-dasharray="3,2" points="151.00,114.50 150.50,114.00 150.50,113.00 150.50,112.00 150.50,111.00 150.50,110.00 151.00,109.50 151.50,110.00 151.50,111.00 151.50,112.00 151.50,113.00 151.50,114.00 151.00,114.50" />
<polyline fill="none" stroke="#090" stroke-width="1" stroke-dasharray="3,2" points="181.00,119.50 180.50,119.00 180.50,118.00 180.50,117.00 180.50,116.00 180.50,115.00 180.50,114.00 180.50,113.00 180.50,112.00 180.50,111.00 180.50,110.00 181.00,109.50 181.50,110.00 181.50,111.00 181.50,112.00 181.50,113.00 181.50,114.00 181.50,115.00 181.50,116.00 181.50,117.00 181.50,118.00 181.50,119.00 181.00,119.50" />
<polyline fill="none" stroke="#090" stroke-width="1" stroke-dasharray="3,2" points="150.00,118.50 149.50,118.00 149.50,117.00 149.50,116.00 149.50,115.00 150.00,114.50 150.50,115.00 150.50,116.00 150.50,117.00 150.50,118.00 150.00,118.50" />
<polyline fill="none" stroke="#090" stroke-width="1" stroke-dasharray="3,2" points="248.00,117.50 247.50,117.00 248.00,116.50 248.50,117.00 248.00,117.50" />
<polyline fill="none" stroke="#090" stroke-width="1" stroke-dasharray="3,2" points="247.00,118.50 246.50,118.00 247.00,117.50 247.50,118.00 247.00,118.50" />
<polyline fill="none" stroke="#090" stroke-width="1" stroke-dasharray="3,2" points="149.00,122.50 148.50,122.00 148.50,121.00 148.50,120.00 148.50,119.00 149.00,118.50 149.50,119.00 149.50,120.00 149.50,121.00 149.50,122.00 149.00,122.50" />
<polyline fill="none" stroke="#090" stroke-width="1" stroke-dasharray="3,2" points="246.00,119.50 245.00,119.50 244.50,119.00 245.00,118.50 246.00,118.50 246.50,119.00 246.00,119.50" />
<polyline fill="none" stroke="#090" stroke-width="1" stroke-dasharray="3,2" points="239.00,124.50 238.00,124.50 237.00,124.50 236.00,124.50 235.00,124.50 234.00,124.50 233.00,124.50 232.00,124.50 231.00,124.50 230.00,124.50 229.00,124.50 228.00,124.50 227.00,124.50 226.00,124.50 225.00,124.50 224.00,124.50 223.00,124.50 222.00,124.50 221.00,124.50 220.00,124.50 219.00,124.50 218.00,124.50 217.00,124.50 216.00,124.50 215.00,124.50 214.00,124.50 213.00,124.50 212.00,124.50 211.00,124.50 210.00,124.50 209.00,124.50 208.00,124.50 207.00,124.50 206.00,124.50 205.00,124.50 204.00,124.50 203.00,124.50 202.00,124.50 201.00,124.50 200.00,124.50 199.00,124.50 198.00,124.50 197.00,124.50 196.00,124.50 195.00,124.50 194.00,124.50 193.00,124.50 192.00,124.50 191.00,124.50 190.00,124.50 189.00,124.50 188.00,124.50 187.00,124.50 186.00,124.50 185.00,124.50 184.00,124.50 183.00,124.50 182.00,124.50 181.00,124.50 180.00,124.50 179.50,124.00 179.50,123.00 179.50,122.00 179.50,121.00 179.50,120.00 180.00,119.50 180.50,120.00 180.50,121.00 180.50,122.00 180.50,123.00 181.00,123.50 182.00,123.50 183.00,123.50 184.00,123.50 185.00,123.50 186.00,123.50 187.00,123.50 188.00,123.50 189.00,123.50 190.00,123.50 191.00,123.50 192.00,123.50 193.00,123.50 194.00,123.50 195.00,123.50 196.00,123.50 197.00,123.50 198.00,123.50 199.00,123.50 200.00,123.50 201.00,123.50 202.00,123.50 203.00,123.50 204.00,123.50 205.00,123.50 206.00,123.50 207.00,123.50 208.00,123.50 209.00,123.50 210.00,123.50 211.00,123.50 212.00,123.50 213.00,123.50 214.00,123.50 215.00,123.50 216.00,123.50 217.00,123.50 218.00,123.50 219.00,123.50 220.00,123.50 221.00,123.50 222.00,123.50 223.00,123.50 224.00,123.50 225.00,123.50 226.00,123.50 227.00,123.50 228.00,123.50 229.00,123.50 230.00,123.50 231.00,123.50 232.00,123.50 233.00,123.50 234.00,123.50 235.00,123.50 236.00,123.50 237.00,123.50 238.00,123.50 239.00,123.50 239.50,124.00 239.00,124.50" />
<polyline fill="none" stroke="#090" stroke-width="1" stroke-dasharray="3,2" points="244.00,120.50 243.50,120.00 244.00,119.50 244.50,120.00 244.00,120.50" />
<polyline fill="none" stroke="#090" stroke-width="1" stroke-dasharray="3,2" points="243.00,121.50 242.50,121.00 243.00,120.50 243.50,121.00 243.00,121.50" />
<polyline fill="none" stroke="#090" stroke-width="1" stroke-dasharray="3,2" points="242.00,122.50 241.00,122.50 240.50,122.00 241.00,121.50 242.00,121.50 242.50,122.00 242.00,122.50" />
<polyline fill="none" stroke="#090" stroke-width="1" stroke-dasharray="3,2" points="148.00,123.50 147.50,123.00 148.00,122.50 148.50,123.00 148.00,123.50" />
<polyline fill="none" stroke="#090" stroke-width="1" stroke-dasharray="3,2" points="240.00,123.50 239.50,123.00 240.00,122.50 240.50,123.00 240.00,123.50" />
<polyline fill="none" stroke="#090" stroke-width="1" stroke-dasharray="3,2" points="147.00,124.50 146.00,124.50 145.00,124.50 144.00,124.50 143.00,124.50 142.00,124.50 141.00,124.50 140.00,124.50 139.00,124.50 138.00,124.50 137.00,124.50 136.00,124.50 135.00,124.50 134.00,124.50 133.00,124.50 132.00,124.50 131.00,124.50 130.00,124.50 129.00,124.50 128.00,124.50 127.00,124.50 126.00,124.50 125.00,124.50 124.00,124.50 123.00,124.50 122.00,124.50 121.00,124.50 120.00,124.50 119.00,124.50 118.00,124.50 117.00,124.50 116.00,124.50 115.00,124.50 114.00,124.50 113.00,124.50 112.00,124.50 111.00,124.50 110.00,124.50 109.00,124.50 108.00,124.50 107.00,124.50 106.00,124.50 105.00,124.50 104.00,124.50 103.00,124.50 102.00,124.50 101.00,124.50 100.00,124.50 99.00,124.50 98.00,124.50 97.00,124.50 96.00,124.50 95.00,124.50 94.00,124.50 93.00,124.50 92.00,124.50 91.00,124.50 90.00,124.50 89.00,124.50 88.00,124.50 87.00,124.50 86.00,124.50 85.00,124.50 84.00,124.50 83.00,124.50 82.00,124.50 81.00,124.50 80.00,124.50 79.00,124.50 78.00,124.50 77.00,124.50 76.00,124.50 75.00,124.50 74.00,124.50 73.00,124.50 72.00,124.50 71.00,124.50 70.00,124.50 69.50,124.00 70.00,123.50 71.00,123.50 72.00,123.50 73.00,123.50 74.00,123.50 75.00,123.50 76.00,123.50 77.00,123.50 78.00,123.50 79.00,123.50 80.00,123.50 81.00,123.50 82.00,123.50 83.00,123.50 84.00,123.50 85.00,123.50 86.00,123.50 87.00,123.50 88.00,123.50 89.00,123.50 90.00,123.50 91.00,123.50 92.00,123.50 93.00,123.50 94.00,123.50 95.00,123.50 96.00,123.50 97.00,123.50 98.00,123.50 99.00,123.50 100.00,123.50 101.00,123.50 102.00,123.50 103.00,123.50 104.00,123.50 105.00,123.50 106.00,123.50 107.00,123.50 108.00,123.50 109.00,123.50 110.00,123.50 111.00,123.50 112.00,123.50 113.00,123.50 114.00,123.50 115.00,123.50 116.00,123.50 117.00,123.50 118.00,123.50 119.00,123.50 120.00,123.50 121.00,123.50 122.00,123.50 123.00,123.50 124.00,123.50 125.00,123.50 126.00,123.50 127.00,123.50 128.00,123.50 129.00,123.50 130.00,123.50 131.00,123.50 132.00,123.50 133.00,123.50 134.00,123.50 135.00,123.50 136.00,123.50 137.00,123.50 138.00,123.50 139.00,123.50 140.00,123.50 141.00,123.50 142.00,123.50 143.00,123.50 144.00,123.50 145.00,123.50 146.00,123.50 147.00,123.50 147.50,124.00 147.00,124.50" />
<polyline fill="none" stroke="#090" stroke-width="1" stroke-dasharray="3,2" points="69.00,125.50 68.00,125.50 67.50,125.00 68.00,124.50 69.00,124.50 69.50,125.00 69.00,125.50" />
<polyline fill="none" stroke="#090" stroke-width="1" stroke-dasharray="3,2" points="179.00,125.50 178.00,125.50 177.50,125.00 178.00,124.50 179.00,124.50 179.50,125.00 179.00,125.50" />
<polyline fill="none" stroke="#090" stroke-width="1" stroke-dasharray="3,2" points="67.00,126.50 66.50,126.00 67.00,125.50 67.50,126.00 67.00,126.50" />
<polyline fill="none" stroke="#090" stroke-width="1" stroke-dasharray="3,2" points="177.00,126.50 176.50,126.00 177.00,125.50 177.50,126.00 177.00,126.50" />
<polyline fill="none" stroke="#090" stroke-width="1" stroke-dasharray="3,2" points="66.00,127.50 65.00,127.50 64.50,127.00 65.00,126.50 66.00,126.50 66.50,127.00 66.00,127.50" />
<polyline fill="none" stroke="#090" stroke-width="1" stroke-dasharray="3,2" points="176.00,127.50 175.00,127.50 174.50,127.00 175.00,126.50 176.00,126.50 176.50,127.00 176.00,127.50" />
<polyline fill="none" stroke="#090" stroke-width="1" stroke-dasharray="3,2" points="64.00,128.50 63.50,128.00 64.00,127.50 64.50,128.00 64.00,128.50" />
<polyline fill="none" stroke="#090" stroke-width="1" stroke-dasharray="3,2" points="174.00,128.50 173.50,128.00 174.00,127.50 174.50,128.00 174.00,128.50" />
<polyline fill="none" stroke="#090" stroke-width="1" stroke-dasharray="3,2" points="63.00,129.50 62.00,129.50 61.50,129.00 62.00,128.50 63.00,128.50 63.50,129.00 63.00,129.50" />
<polyline fill="none" stroke="#090" stroke-width="1" stroke-dasharray="3,2" points="173.00,129.50 172.50,129.00 173.00,128.50 173.50,129.00 173.00,129.50" />
<polyline fill="none" stroke="#090" stroke-width="1" stroke-dasharray="3,2" points="61.00,130.50 60.50,130.00 61.00,129.50 61.50,130.00 61.00,130.50" />
<polyline fill="none" stroke="#090" stroke-width="1" stroke-dasharray="3,2" points="172.00,130.50 171.00,130.50 170.50,130.00 171.00,129.50 172.00,129.50 172.50,130.00 172.00,130.50" />
<polyline fill="none" stroke="#090" stroke-width="1" stroke-dasharray="3,2" points="60.00,131.50 59.00,131.50 58.50,131.00 59.00,130.50 60.00,130.50 60.50,131.00 60.00,131.50" />
<polyline fill="none" stroke="#090" stroke-width="1" stroke-dasharray="3,2" points="242.00,146.50 241.50,146.00 242.00,145.50 242.50,146.00 242.00,146.50" />
<polyline fill="none" stroke="#090" stroke-width="1" stroke-dasharray="3,2" points="150.00,147.50 149.00,147.50 148.50,147.00 149.00,146.50 150.00,146.50 150.50,147.00 150.00,147.50" />
<polyline fill="none" stroke="#090" stroke-width="1" stroke-dasharray="3,2" points="241.00,147.50 240.50,147.00 241.00,146.50 241.50,147.00 241.00,147.50" />
<polyline fill="none" stroke="#090" stroke-width="1" stroke-dasharray="3,2" points="148.00,148.50 147.50,148.00 148.00,147.50 148.50,148.00 148.00,148.50" />
<polyline fill="none" stroke="#090" stroke-width="1" stroke-dasharray="3,2" points="240.00,148.50 239.00,148.50 238.50,148.00 239.00,147.50 240.00,147.50 240.50,148.00 240.00,148.50" />
<polyline fill="none" stroke="#090" stroke-width="1" stroke-dasharray="3,2" points="147.00,149.50 146.00,149.50 145.50,149.00 146.00,148.50 147.00,148.50 147.50,149.00 147.00,149.50" />
<polyline fill="none" stroke="#090" stroke-width="1" stroke-dasharray="3,2" points="238.00,149.50 237.50,149.00 238.00,148.50 238.50,149.00 238.00,149.50" />
<polyline fill="none" stroke="#090" stroke-width="1" stroke-dasharray="3,2" points="145.00,150.50 144.50,150.00 145.00,149.50 145.50,150.00 145.00,150.50" />
<polyline fill="none" stroke="#090" stroke-width="1" stroke-dasharray="3,2" points="237.00,150.50 236.00,150.50 235.50,150.00 236.00,149.50 237.00,149.50 237.50,150.00 237.00,150.50" />
<polyline fill="none" stroke="#090" stroke-width="1" stroke-dasharray="3,2" points="144.00,151.50 143.00,151.50 142.50,151.00 143.00,150.50 144.00,150.50 144.50,151.00 144.00,151.50" />
<polyline fill="none" stroke="#090" stroke-width="1" stroke-dasharray="3,2" points="235.00,151.50 234.50,151.00 235.00,150.50 235.50,151.00 235.00,151.50" />
<polyline fill="none" stroke="#090" stroke-width="1" stroke-dasharray="3,2" points="142.00,152.50 141.50,152.00 142.00,151.50 142.50,152.00 142.00,152.50" />
<polyline fill="none" stroke="#090" stroke-width="1" stroke-dasharray="3,2" points="234.00,152.50 233.50,152.00 234.00,151.50 234.50,152.00 234.00,152.50" />
<polyline fill="none" stroke="#090" stroke-width="1" stroke-dasharray="3,2" points="140.00,154.50 139.50,154.00 139.00,153.50 138.00,153.50 137.00,153.50 136.00,153.50 135.00,153.50 134.00,153.50 133.00,153.50 132.00,153.50 131.00,153.50 130.00,153.50 129.00,153.50 128.00,153.50 127.00,153.50 126.00,153.50 125.00,153.50 124.00,153.50 123.00,153.50 122.00,153.50 121.00,153.50 120.00,153.50 119.00,153.50 118.00,153.50 117.00,153.50 116.00,153.50 115.00,153.50 114.00,153.50 113.00,153.50 112.00,153.50 111.00,153.50 110.00,153.50 109.00,153.50 108.00,153.50 107.00,153.50 106.00,153.50 105.00,153.50 104.00,153.50 103.00,153.50 102.00,153.50 101.00,153.50 100.00,153.50 99.00,153.50 98.00,153.50 97.00,153.50 96.00,153.50 95.00,153.50 94.00,153.50 93.00,153.50 92.00,153.50 91.00,153.50 90.00,153.50 89.00,153.50 88.00,153.50 87.00,153.50 86.00,153.50 85.00,153.50 84.00,153.50 83.00,153.50 82.00,153.50 81.00,153.50 80.00,153.50 79.00,153.50 78.00,153.50 77.00,153.50 76.00,153.50 75.00,153.50 74.00,153.50 73.00,153.50 72.00,153.50 71.00,153.50 70.00,153.50 69.00,153.50 68.00,153.50 67.00,153.50 66.00,153.50 65.00,153.50 64.00,153.50 63.50,153.00 64.00,152.50 65.00,152.50 66.00,152.50 67.00,152.50 68.00,152.50 69.00,152.50 70.00,152.50 71.00,152.50 72.00,152.50 73.00,152.50 74.00,152.50 75.00,152.50 76.00,152.50 77.00,152.50 78.00,152.50 79.00,152.50 80.00,152.50 81.00,152.50 82.00,152.50 83.00,152.50 84.00,152.50 85.00,152.50 86.00,152.50 87.00,152.50 88.00,152.50 89.00,152.50 90.00,152.50 91.00,152.50 92.00,152.50 93.00,152.50 94.00,152.50 95.00,152.50 96.00,152.50 97.00,152.50 98.00,152.50 99.00,152.50 100.00,152.50 101.00,152.50 102.00,152.50 103.00,152.50 104.00,152.50 105.00,152.50 106.00,152.50 107.00,152.50 108.00,152.50 109.00,152.50 110.00,152.50 111.00,152.50 112.00,152.50 113.00,152.50 114.00,152.50 115.00,152.50 116.00,152.50 117.00,152.50 118.00,152.50 119.00,152.50 120.00,152.50 121.00,152.50 122.00,152.50 123.00,152.50 124.00,152.50 125.00,152.50 126.00,152.50 127.00,152.50 128.00,152.50 129.00,152.50 130.00,152.50 131.00,152.50 132.00,152.50 133.00,152.50 134.00,152.50 135.00,152.50 136.00,152.50 137.00,152.50 138.00,152.50 139.00,152.50 140.00,152.50 141.00,152.50 141.50,153.00 141.00,153.50 140.50,154.00 140.00,154.50" />
<polyline fill="none" stroke="#090" stroke-width="1" stroke-dasharray="3,2" points="233.00,153.50 232.00,153.50 231.00,153.50 230.00,153.50 229.00,153.50 228.00,153.50 227.00,153.50 226.00,153.50 225.00,153.50 224.00,153.50 223.00,153.50 222.00,153.50 221.00,153.50 220.00,153.50 219.00,153.50 218.00,153.50 217.00,153.50 216.00,153.50 215.00,153.50 214.00,153.50 213.00,153.50 212.00,153.50 211.00,153.50 210.00,153.50 209.00,153.50 208.00,153.50 207.00,153.50 206.00,153.50 205.00,153.50 204.00,153.50 203.00,153.50 202.00,153.50 201.00,153.50 200.00,153.50 199.00,153.50 198.00,153.50 197.00,153.50 196.00,153.50 195.00,153.50 194.00,153.50 193.00,153.50 192.00,153.50 191.00,153.50 190.00,153.50 189.00,153.50 188.00,153.50 187.00,153.50 186.00,153.50 185.00,153.50 184.00,153.50 183.00,153.50 182.00,153.50 181.00,153.50 180.00,153.50 179.00,153.50 178.00,153.50 177.00,153.50 176.00,153.50 175.00,153.50 174.00,153.50 173.50,153.00 174.00,152.50 175.00,152.50 176.00,152.50 177.00,152.50 178.00,152.50 179.00,152.50 180.00,152.50 181.00,152.50 182.00,152.50 183.00,152.50 184.00,152.50 185.00,152.50 186.00,152.50 187.00,152.50 188.00,152.50 189.00,152.50 190.00,152.50 191.00,152.50 192.00,152.50 193.00,152.50 194.00,152.50 195.00,152.50 196.00,152.50 197.00,152.50 198.00,152.50 199.00,152.50 200.00,152.50 201.00,152.50 202.00,152.50 203.00,152.50 204.00,152.50 205.00,152.50 206.00,152.50 207.00,152.50 208.00,152.50 209.00,152.50 210.00,152.50 211.00,152.50 212.00,152.50 213.00,152.50 214.00,152.50 215.00,152.50 216.00,152.50 217.00,152.50 218.00,152.50 219.00,152.50 220.00,152.50 221.00,152.50 222.00,152.50 223.00,152.50 224.00,152.50 225.00,152.50 226.00,152.50 227.00,152.50 228.00,152.50 229.00,152.50 230.00,152.50 231.00,152.50 232.00,152.50 233.00,152.50 233.50,153.00 233.00,153.50" />
<polyline fill="none" stroke="#090" stroke-width="1" stroke-dasharray="3,2" points="63.00,154.50 62.00,154.50 61.50,154.00 62.00,153.50 63.00,153.50 63.50,154.00 63.00,154.50" />
<polyline fill="none" stroke="#090" stroke-width="1" stroke-dasharray="3,2" points="173.00,154.50 172.50,154.00 173.00,153.50 173.50,154.00 173.00,154.50" />
<polyline fill="none" stroke="#090" stroke-width="1" stroke-dasharray="3,2" points="61.00,155.50 60.50,155.00 61.00,154.50 61.50,155.00 61.00,155.50" />
<polyline fill="none" stroke="#090" stroke-width="1" stroke-dasharray="3,2" points="139.00,165.50 138.50,165.00 138.50,164.00 138.50,163.00 138.50,162.00 138.50,161.00 138.50,160.00 138.50,159.00 138.50,158.00 138.50,157.00 138.50,156.00 138.50,155.00 139.00,154.50 139.50,155.00 139.50,156.00 139.50,157.00 139.50,158.00 139.50,159.00 139.50,160.00 139.50,161.00 139.50,162.00 139.50,163.00 139.50,164.00 139.50,165.00 139.00,165.50" />
<polyline fill="none" stroke="#090" stroke-width="1" stroke-dasharray="3,2" points="172.00,155.50 171.50,155.00 172.00,154.50 172.50,155.00 172.00,155.50" />
<polyline fill="none" stroke="#090" stroke-width="1" stroke-dasharray="3,2" points="60.00,156.50 59.00,156.50 58.50,156.00 59.00,155.50 60.00,155.50 60.50,156.00 60.00,156.50" />
<polyline fill="none" stroke="#090" stroke-width="1" stroke-dasharray="3,2" points="171.00,160.50 170.50,160.00 170.50,159.00 170.50,158.00 170.50,157.00 170.50,156.00 171.00,155.50 171.50,156.00 171.50,157.00 171.50,158.00 171.50,159.00 171.50,160.00 171.00,160.50" />
<polyline fill="none" stroke="#090" stroke-width="1" stroke-dasharray="3,2" points="58.00,157.50 57.50,157.00 58.00,156.50 58.50,157.00 58.00,157.50" />
<polyline fill="none" stroke="#090" stroke-width="1" stroke-dasharray="3,2" points="57.00,158.50 56.00,158.50 55.50,158.00 56.00,157.50 57.00,157.50 57.50,158.00 57.00,158.50" />
<polyline fill="none" stroke="#090" stroke-width="1" stroke-dasharray="3,2" points="170.00,164.50 169.50,164.00 169.50,163.00 169.50,162.00 169.50,161.00 170.00,160.50 170.50,161.00 170.50,162.00 170.50,163.00 170.50,164.00 170.00,164.50" />
<polyline fill="none" stroke="#090" stroke-width="1" stroke-dasharray="3,2" points="169.00,169.50 168.50,169.00 168.50,168.00 168.50,167.00 168.50,166.00 168.50,165.00 169.00,164.50 169.50,165.00 169.50,166.00 169.50,167.00 169.50,168.00 169.50,169.00 169.00,169.50" />
<polyline fill="none" stroke="#090" stroke-width="1" stroke-dasharray="3,2" points="138.00,173.50 137.50,173.00 137.50,172.00 137.50,171.00 137.50,170.00 137.50,169.00 137.50,168.00 137.50,167.00 137.50,166.00 138.00,165.50 138.50,166.00 138.50,167.00 138.50,168.00 138.50,169.00 138.50,170.00 138.50,171.00 138.50,172.00 138.50,173.00 138.00,173.50" />
<polyline fill="none" stroke="#090" stroke-width="1" stroke-dasharray="3,2" points="168.00,173.50 167.50,173.00 167.50,172.00 167.50,171.00 167.50,170.00 168.00,169.50 168.50,170.00 168.50,171.00 168.50,172.00 168.50,173.00 168.00,173.50" />
<polyline fill="none" stroke="#090" stroke-width="1" stroke-dasharray="3,2" points="137.00,178.50 136.50,178.00 136.50,177.00 136.50,176.00 136.50,175.00 136.50,174.00 137.00,173.50 137.50,174.00 137.50,175.00 137.50,176.00 137.50,177.00 137.50,178.00 137.00,178.50" />
<polyline fill="none" stroke="#090" stroke-width="1" stroke-dasharray="3,2" points="167.00,178.50 166.50,178.00 166.50,177.00 166.50,176.00 166.50,175.00 166.50,174.00 167.00,173.50 167.50,174.00 167.50,175.00 167.50,176.00 167.50,177.00 167.50,178.00 167.00,178.50" />
<polyline fill="none" stroke="#090" stroke-width="1" stroke-dasharray="3,2" points="136.00,183.50 135.50,183.00 135.50,182.00 135.50,181.00 135.50,180.00 135.50,179.00 136.00,178.50 136.50,179.00 136.50,180.00 136.50,181.00 136.50,182.00 136.50,183.00 136.00,183.50" />
<polyline fill="none" stroke="#090" stroke-width="1" stroke-dasharray="3,2" points="166.00,183.50 165.50,183.00 165.50,182.00 165.50,181.00 165.50,180.00 165.50,179.00 166.00,178.50 166.50,179.00 166.50,180.00 166.50,181.00 166.50,182.00 166.50,183.00 166.00,183.50" />
<polyline fill="none" stroke="#090" stroke-width="1" stroke-dasharray="3,2" points="135.00,187.50 134.50,187.00 134.50,186.00 134.50,185.00 134.50,184.00 135.00,183.50 135.50,184.00 135.50,185.00 135.50,186.00 135.50,187.00 135.00,187.50" />
<polyline fill="none" stroke="#090" stroke-width="1" stroke-dasharray="3,2" points="165.00,187.50 164.50,187.00 164.50,186.00 164.50,185.00 164.50,184.00 165.00,183.50 165.50,184.00 165.50,185.00 165.50,186.00 165.50,187.00 165.00,187.50" />
<polyline fill="none" stroke="#090" stroke-width="1" stroke-dasharray="3,2" points="134.00,191.50 133.50,191.00 133.50,190.00 133.50,189.00 133.50,188.00 134.00,187.50 134.50,188.00 134.50,189.00 134.50,190.00 134.50,191.00 134.00,191.50" />
<polyline fill="none" stroke="#090" stroke-width="1" stroke-dasharray="3,2" points="164.00,192.50 163.50,192.00 163.50,191.00 163.50,190.00 163.50,189.00 163.50,188.00 164.00,187.50 164.50,188.00 164.50,189.00 164.50,190.00 164.50,191.00 164.50,192.00 164.00,192.50" />
<polyline fill="none" stroke="#090" stroke-width="1" stroke-dasharray="3,2" points="133.00,192.50 132.50,192.00 133.00,191.50 133.50,192.00 133.00,192.50" />
<polyline fill="none" stroke="#090" stroke-width="1" stroke-dasharray="3,2" points="132.00,193.50 131.00,193.50 130.00,193.50 129.50,193.00 130.00,192.50 131.00,192.50 132.00,192.50 132.50,193.00 132.00,193.50" />
<polyline fill="none" stroke="#090" stroke-width="1" stroke-dasharray="3,2" points="163.00,196.50 162.50,196.00 162.50,195.00 162.50,194.00 162.50,193.00 163.00,192.50 163.50,193.00 163.50,194.00 163.50,195.00 163.50,196.00 163.00,196.50" />
<polyline fill="none" stroke="#090" stroke-width="1" stroke-dasharray="3,2" points="129.00,194.50 128.00,194.50 127.00,194.50 126.00,194.50 125.00,194.50 124.00,194.50 123.00,194.50 122.00,194.50 121.00,194.50 120.00,194.50 119.00,194.50 118.00,194.50 117.00,194.50 116.00,194.50 115.00,194.50 114.00,194.50 113.00,194.50 112.00,194.50 111.00,194.50 110.00,194.50 109.00,194.50 108.00,194.50 107.00,194.50 106.00,194.50 105.00,194.50 104.00,194.50 103.00,194.50 102.00,194.50 101.00,194.50 100.00,194.50 99.00,194.50 98.00,194.50 97.00,194.50 96.00,194.50 95.00,194.50 94.00,194.50 93.00,194.50 92.00,194.50 91.00,194.50 90.00,194.50 89.00,194.50 88.00,194.50 87.00,194.50 86.00,194.50 85.00,194.50 84.00,194.50 83.00,194.50 82.00,194.50 81.00,194.50 80.00,194.50 79.00,194.50 78.00,194.50 77.00,194.50 76.00,194.50 75.00,194.50 74.00,194.50 73.00,194.50 72.00,194.50 71.00,194.50 70.00,194.50 69.00,194.50 68.00,194.50 67.00,194.50 66.00,194.50 65.00,194.50 64.00,194.50 63.00,194.50 62.00,194.50 61.00,194.50 60.00,194.50 59.00,194.50 58.00,194.50 57.00,194.50 56.00,194.50 55.00,194.50 54.00,194.50 53.00,194.50 52.00,194.50 51.00,194.50 50.50,194.00 51.00,193.50 52.00,193.50 53.00,193.50 54.00,193.50 55.00,193.50 56.00,193.50 57.00,193.50 58.00,193.50 59.00,193.50 60.00,193.50 61.00,193.50 62.00,193.50 63.00,193.50 64.00,193.50 65.00,193.50 66.00,193.50 67.00,193.50 68.00,193.50 69.00,193.50 70.00,193.50 71.00,193.50 72.00,193.50 73.00,193.50 74.00,193.50 75.00,193.50 76.00,193.50 77.00,193.50 78.00,193.50 79.00,193.50 80.00,193.50 81.00,193.50 82.00,193.50 83.00,193.50 84.00,193.50 85.00,193.50 86.00,193.50 87.00,193.50 88.00,193.50 89.00,193.50 90.00,193.50 91.00,193.50 92.00,193.50 93.00,193.50 94.00,193.50 95.00,193.50 96.00,193.50 97.00,193.50 98.00,193.50 99.00,193.50 100.00,193.50 101.00,193.50 102.00,193.50 103.00,193.50 104.00,193.50 105.00,193.50 106.00,193.50 107.00,193.50 108.00,193.50 109.00,193.50 110.00,193.50 111.00,193.50 112.00,193.50 113.00,193.50 114.00,193.50 115.00,193.50 116.00,193.50 117.00,193.50 118.00,193.50 119.00,193.50 120.00,193.50 121.00,193.50 122.00,193.50 123.00,193.50 124.00,193.50 125.00,193.50 126.00,193.50 127.00,193.50 128.00,193.50 129.00,193.50 129.50,194.00 129.00,194.50" />
<polyline fill="none" stroke="#090" stroke-width="1" stroke-dasharray="3,2" points="50.00,195.50 49.00,195.50 48.50,195.00 49.00,194.50 50.00,194.50 50.50,195.00 50.00,195.50" />
<polyline fill="none" stroke="#090" stroke-width="1" stroke-dasharray="3,2" points="48.00,196.50 47.00,196.50 46.50,196.00 47.00,195.50 48.00,195.50 48.50,196.00 48.00,196.50" />
<polyline fill="none" stroke="#090" stroke-width="1" stroke-dasharray="3,2" points="46.00,197.50 45.00,197.50 44.50,197.00 45.00,196.50 46.00,196.50 46.50,197.00 46.00,197.50" />
<polyline fill="none" stroke="#090" stroke-width="1" stroke-dasharray="3,2" points="162.00,199.50 161.50,199.00 161.50,198.00 161.50,197.00 162.00,196.50 162.50,197.00 162.50,198.00 162.50,199.00 162.00,199.50" />
<polyline fill="none" stroke="#090" stroke-width="1" stroke-dasharray="3,2" points="44.00,198.50 43.50,198.00 44.00,197.50 44.50,198.00 44.00,198.50" />
<polyline fill="none" stroke="#090" stroke-width="1" stroke-dasharray="3,2" points="43.00,199.50 42.00,199.50 41.50,199.00 42.00,198.50 43.00,198.50 43.50,199.00 43.00,199.50" />
<polyline fill="none" stroke="#090" stroke-width="1" stroke-dasharray="3,2" points="161.00,202.50 160.50,202.00 160.50,201.00 160.50,200.00 161.00,199.50 161.50,200.00 161.50,201.00 161.50,202.00 161.00,202.50" />
<polyline fill="none" stroke="#090" stroke-width="1" stroke-dasharray="3,2" points="160.00,204.50 159.50,204.00 159.50,203.00 160.00,202.50 160.50,203.00 160.50,204.00 160.00,204.50" />
<polyline fill="none" stroke="#090" stroke-width="1" stroke-dasharray="3,2" points="159.00,207.50 158.50,207.00 158.50,206.00 158.50,205.00 159.00,204.50 159.50,205.00 159.50,206.00 159.50,207.00 159.00,207.50" />
<polyline fill="none" stroke="#090" stroke-width="1" stroke-dasharray="3,2" points="158.00,209.50 157.50,209.00 157.50,208.00 158.00,207.50 158.50,208.00 158.50,209.00 158.00,209.50" />
<polyline fill="none" stroke="#090" stroke-width="1" stroke-dasharray="3,2" points="157.00,210.50 156.50,210.00 157.00,209.50 157.50,210.00 157.00,210.50" />
<polyline fill="none" stroke="#090" stroke-width="1" stroke-dasharray="3,2" points="156.00,211.50 155.50,211.00 156.00,210.50 156.50,211.00 156.00,211.50" />
<polyline fill="none" stroke="#090" stroke-width="1" stroke-dasharray="3,2" points="155.00,213.50 154.50,213.00 154.50,212.00 155.00,211.50 155.50,212.00 155.50,213.00 155.00,213.50" />
<polyline fill="none" stroke="#090" stroke-width="1" stroke-dasharray="3,2" points="154.00,214.50 153.50,214.00 154.00,213.50 154.50,214.00 154.00,214.50" />
<polyline fill="none" stroke="#090" stroke-width="1" stroke-dasharray="3,2" points="153.00,215.50 152.50,215.00 153.00,214.50 153.50,215.00 153.00,215.50" />
<polyline fill="none" stroke="#090" stroke-width="1" stroke-dasharray="3,2" points="152.00,216.50 151.00,216.50 150.50,216.00 151.00,215.50 152.00,215.50 152.50,216.00 152.00,216.50" />
<polyline fill="none" stroke="#090" stroke-width="1" stroke-dasharray="3,2" points="150.00,217.50 149.50,217.00 150.00,216.50 150.50,217.00 150.00,217.50" />
<polyline fill="none" stroke="#090" stroke-width="1" stroke-dasharray="3,2" points="149.00,218.50 148.50,218.00 149.00,217.50 149.50,218.00 149.00,218.50" />
<polyline fill="none" stroke="#090" stroke-width="1" stroke-dasharray="3,2" points="148.00,219.50 147.00,219.50 146.50,219.00 147.00,218.50 148.00,218.50 148.50,219.00 148.00,219.50" />
<polyline fill="none" stroke="#090" stroke-width="1" stroke-dasharray="3,2" points="146.00,220.50 145.00,220.50 144.00,220.50 143.50,220.00 144.00,219.50 145.00,219.50 146.00,219.50 146.50,220.00 146.00,220.50" />
<polyline fill="none" stroke="#090" stroke-width="1" stroke-dasharray="3,2" points="143.00,221.50 142.00,221.50 141.50,221.00 142.00,220.50 143.00,220.50 143.50,221.00 143.00,221.50" />
<polyline fill="none" stroke="#090" stroke-width="1" stroke-dasharray="3,2" points="141.00,222.50 140.00,222.50 139.00,222.50 138.00,222.50 137.00,222.50 136.00,222.50 135.00,222.50 134.50,222.00 135.00,221.50 136.00,221.50 137.00,221.50 138.00,221.50 139.00,221.50 140.00,221.50 141.00,221.50 141.50,222.00 141.00,222.50" />
<polyline fill="none" stroke="#090" stroke-width="1" stroke-dasharray="3,2" points="134.00,223.50 133.00,223.50 132.00,223.50 131.00,223.50 130.00,223.50 129.00,223.50 128.00,223.50 127.00,223.50 126.00,223.50 125.00,223.50 124.00,223.50 123.00,223.50 122.00,223.50 121.00,223.50 120.00,223.50 119.00,223.50 118.00,223.50 117.00,223.50 116.00,223.50 115.00,223.50 114.00,223.50 113.00,223.50 112.00,223.50 111.00,223.50 110.00,223.50 109.00,223.50 108.00,223.50 107.00,223.50 106.00,223.50 105.00,223.50 104.00,223.50 103.00,223.50 102.00,223.50 101.00,223.50 100.00,223.50 99.00,223.50 98.00,223.50 97.00,223.50 96.00,223.50 95.00,223.50 94.00,223.50 93.00,223.50 92.00,223.50 91.00,223.50 90.00,223.50 89.00,223.50 88.00,223.50 87.00,223.50 86.00,223.50 85.00,223.50 84.00,223.50 83.00,223.50 82.00,223.50 81.00,223.50 80.00,223.50 79.00,223.50 78.00,223.50 77.00,223.50 76.00,223.50 75.00,223.50 74.00,223.50 73.00,223.50 72.00,223.50 71.00,223.50 70.00,223.50 69.00,223.50 68.00,223.50 67.00,223.50 66.00,223.50 65.00,223.50 64.00,223.50 63.00,223.50 62.00,223.50 61.00,223.50 60.00,223.50 59.00,223.50 58.00,223.50 57.00,223.50 56.00,223.50 55.00,223.50 54.00,223.50 53.00,223.50 52.00,223.50 51.00,223.50 50.00,223.50 49.00,223.50 48.00,223.50 47.00,223.50 46.00,223.50 45.00,223.50 44.50,223.00 45.00,222.50 46.00,222.50 47.00,222.50 48.00,222.50 49.00,222.50 50.00,222.50 51.00,222.50 52.00,222.50 53.00,222.50 54.00,222.50 55.00,222.50 56.00,222.50 57.00,222.50 58.00,222.50 59.00,222.50 60.00,222.50 61.00,222.50 62.00,222.50 63.00,222.50 64.00,222.50 65.00,222.50 66.00,222.50 67.00,222.50 68.00,222.50 69.00,222.50 70.00,222.50 71.00,222.50 72.00,222.50 73.00,222.50 74.00,222.50 75.00,222.50 76.00,222.50 77.00,222.50 78.00,222.50 79.00,222.50 80.00,222.50 81.00,222.50 82.00,222.50 83.00,222.50 84.00,222.50 85.00,222.50 86.00,222.50 87.00,222.50 88.00,222.50 89.00,222.50 90.00,222.50 91.00,222.50 92.00,222.50 93.00,222.50 94.00,222.50 95.00,222.50 96.00,222.50 97.00,222.50 98.00,222.50 99.00,222.50 100.00,222.50 101.00,222.50 102.00,222.50 103.00,222.50 104.00,222.50 105.00,222.50 106.00,222.50 107.00,222.50 108.00,222.50 109.00,222.50 110.00,222.50 111.00,222.50 112.00,222.50 113.00,222.50 114.00,222.50 115.00,222.50 116.00,222.50 117.00,222.50 118.00,222.50 119.00,222.50 120.00,222.50 121.00,222.50 122.00,222.50 123.00,222.50 124.00,222.50 125.00,222.50 126.00,222.50 127.00,222.50 128.00,222.50 129.00,222.50 130.00,222.50 131.00,222.50 132.00,222.50 133.00,222.50 134.00,222.50 134.50,223.00 134.00,223.50" />
<polyline fill="none" stroke="#090" stroke-width="1" stroke-dasharray="3,2" points="44.00,224.50 43.00,224.50 42.50,224.00 43.00,223.50 44.00,223.50 44.50,224.00 44.00,224.50" />
<polyline fill="none" stroke="#090" stroke-width="1" stroke-dasharray="3,2" points="42.00,225.50 41.50,225.00 42.00,224.50 42.50,225.00 42.00,225.50" />
<polyline fill="none" stroke="#090" stroke-width="1" stroke-dasharray="3,2" points="41.00,226.50 40.00,226.50 39.50,226.00 40.00,225.50 41.00,225.50 41.50,226.00 41.00,226.50" />
<polyline fill="none" stroke="#090" stroke-width="1" stroke-dasharray="3,2" points="39.00,227.50 38.50,227.00 39.00,226.50 39.50,227.00 39.00,227.50" />
<polyline fill="none" stroke="#090" stroke-width="1" stroke-dasharray="3,2" points="38.00,228.50 37.00,228.50 36.50,228.00 37.00,227.50 38.00,227.50 38.50,228.00 38.00,228.50" />
<polyline fill="none" stroke="#090" stroke-width="1" stroke-dasharray="3,2" points="36.00,229.50 35.50,229.00 36.00,228.50 36.50,229.00 36.00,229.50" />
<polyline fill="none" stroke="#090" stroke-width="1" stroke-dasharray="3,2" points="35.00,230.50 34.50,230.00 35.00,229.50 35.50,230.00 35.00,230.50" />
<circle cx="153.00" cy="88.00" r="7.00" fill="none" stroke="#f0f" stroke-width="1"/>
<circle cx="154.00" cy="88.00" r="7.00" fill="none" stroke="#f0f" stroke-width="1"/>
<circle cx="155.00" cy="88.00" r="7.00" fill="none" stroke="#f0f" stroke-width="1"/>
<circle cx="154.00" cy="89.00" r="8.00" fill="none" stroke="#f0f" stroke-width="1"/>
<circle cx="180.00" cy="123.00" r="9.00" fill="none" stroke="#f0f" stroke-width="1"/>
<circle cx="180.00" cy="124.00" r="8.00" fill="none" stroke="#f0f" stroke-width="1"/>
<circle cx="181.00" cy="124.00" r="8.00" fill="none" stroke="#f0f" stroke-width="1"/>
<circle cx="139.00" cy="153.00" r="7.00" fill="none" stroke="#f0f" stroke-width="1"/>
<circle cx="140.00" cy="153.00" r="7.00" fill="none" stroke="#f0f" stroke-width="1"/>
<circle cx="141.00" cy="153.00" r="7.00" fill="none" stroke="#f0f" stroke-width="1"/>
<circle cx="140.00" cy="154.00" r="8.00" fill="none" stroke="#f0f" stroke-width="1"/>
<polyline fill="none" stroke="#36f" stroke-width="1" points="136.00,231.50 135.00,231.50 134.00,231.50 133.00,231.50 132.00,231.50 131.00,231.50 130.00,231.50 129.00,231.50 128.00,231.50 127.00,231.50 126.00,231.50 125.00,231.50 124.00,231.50 123.00,231.50 122.00,231.50 121.00,231.50 120.00,231.50 119.00,231.50 118.00,231.50 117.00,231.50 116.00,231.50 115.00,231.50 114.00,231.50 113.00,231.50 112.00,231.50 111.00,231.50 110.00,231.50 109.00,231.50 108.00,231.50 107.00,231.50 106.00,231.50 105.00,231.50 104.00,231.50 103.00,231.50 102.00,231.50 101.00,231.50 100.00,231.50 99.00,231.50 98.00,231.50 97.00,231.50 96.00,231.50 95.00,231.50 94.00,231.50 93.00,231.50 92.00,231.50 91.00,231.50 90.00,231.50 89.00,231.50 88.00,231.50 87.00,231.50 86.00,231.50 85.00,231.50 84.00,231.50 83.00,231.50 82.00,231.50 81.00,231.50 80.00,231.50 79.00,231.50 78.00,231.50 77.00,231.50 76.00,231.50 75.00,231.50 74.00,231.50 73.00,231.50 72.00,231.50 71.00,231.50 70.00,231.50 69.00,231.50 68.00,231.50 67.00,231.50 66.00,231.50 65.00,231.50 64.00,231.50 63.00,231.50 62.00,231.50 61.00,231.50 60.00,231.50 59.00,231.50 58.00,231.50 57.00,231.50 56.00,231.50 55.00,231.50 54.00,231.50 53.00,231.50 52.00,231.50 51.00,231.50 50.00,231.50 49.00,231.50 48.00,231.50 47.00,231.50 46.00,231.50 45.00,231.50 44.00,231.50 43.00,231.50 42.00,231.50 41.00,231.50 40.00,231.50 39.00,231.50 38.00,231.50 37.00,231.50 36.00,231.50 35.00,231.50 34.00,231.50 33.50,231.00 33.50,230.00 33.50,229.00 33.50,228.00 34.00,227.50 34.50,227.00 34.50,226.00 34.50,225.00 34.50,224.00 34.50,223.00 35.00,222.50 35.50,222.00 35.50,221.00 35.50,220.00 35.50,219.00 36.00,218.50 36.50,218.00 36.50,217.00 36.50,216.00 37.00,215.50 38.00,215.50 39.00,215.50 40.00,215.50 41.00,215.50 42.00,215.50 43.00,215.50 44.00,215.50 45.00,215.50 46.00,215.50 47.00,215.50 48.00,215.50 49.00,215.50 50.00,215.50 51.00,215.50 52.00,215.50 53.00,215.50 54.00,215.50 55.00,215.50 56.00,215.50 57.00,215.50 58.00,215.50 59.00,215.50 60.00,215.50 61.00,215.50 62.00,215.50 63.00,215.50 64.00,215.50 65.00,215.50 66.00,215.50 67.00,215.50 68.00,215.50 69.00,215.50 70.00,215.50 71.00,215.50 72.00,215.50 73.00,215.50 74.00,215.50 75.00,215.50 76.00,215.50 77.00,215.50 78.00,215.50 79.00,215.50 80.00,215.50 81.00,215.50 82.00,215.50 83.00,215.50 84.00,215.50 85.00,215.50 86.00,215.50 87.00,215.50 88.00,215.50 89.00,215.50 90.00,215.50 91.00,215.50 92.00,215.50 93.00,215.50 94.00,215.50 95.00,215.50 96.00,215.50 97.00,215.50 98.00,215.50 99.00,215.50 100.00,215.50 101.00,215.50 102.00,215.50 103.00,215.50 104.00,215.50 105.00,215.50 106.00,215.50 107.00,215.50 108.00,215.50 109.00,215.50 110.00,215.50 111.00,215.50 112.00,215.50 113.00,215.50 114.00,215.50 115.00,215.50 116.00,215.50 117.00,215.50 118.00,215.50 119.00,215.50 120.00,215.50 121.00,215.50 122.00,215.50 123.00,215.50 124.00,215.50 125.00,215.50 126.00,215.50 127.00,215.50 128.00,215.50 129.00,215.50 130.00,215.50 131.00,215.50 132.00,215.50 133.00,215.50 134.00,215.50 135.00,215.50 136.00,215.50 136.50,215.00 137.00,214.50 138.00,214.50 139.00,214.50 140.00,214.50 140.50,214.00 141.00,213.50 142.00,213.50 142.50,213.00 143.00,212.50 144.00,212.50 144.50,212.00 145.00,211.50 145.50,211.00 146.00,210.50 146.50,210.00 147.00,209.50 147.50,209.00 148.00,208.50 148.50,208.00 149.00,207.50 149.50,207.00 150.00,206.50 150.50,206.00 151.00,205.50 151.50,205.00 151.50,204.00 152.00,203.50 152.50,203.00 152.50,202.00 153.00,201.50 153.50,201.00 153.50,200.00 153.50,199.00 154.00,198.50 154.50,198.00 154.50,197.00 154.50,196.00 154.50,195.00 154.50,194.00 155.00,193.50 155.50,193.00 155.50,192.00 155.50,191.00 155.50,190.00 156.00,189.50 156.50,189.00 156.50,188.00 156.50,187.00 156.50,186.00 157.00,185.50 157.50,185.00 157.50,184.00 157.50,183.00 157.50,182.00 157.50,181.00 158.00,180.50 158.50,180.00 158.50,179.00 158.50,178.00 158.50,177.00 159.00,176.50 159.50,176.00 159.50,175.00 159.50,174.00 159.50,173.00 159.50,172.00 160.00,171.50 160.50,171.00 160.50,170.00 160.50,169.00 160.50,168.00 161.00,167.50 161.50,167.00 161.50,166.00 161.50,165.00 161.50,164.00 161.50,163.00 162.00,162.50 162.50,162.00 162.50,161.00 162.50,160.00 162.50,159.00 162.50,158.00 163.00,157.50 163.50,157.00 163.50,156.00 163.50,155.00 163.50,154.00 164.00,153.50 164.50,153.00 164.50,152.00 164.50,151.00 164.50,150.00 164.50,149.00 165.00,148.50 165.50,148.00 165.50,147.00 165.50,146.00 166.00,145.50 167.00,145.50 168.00,145.50 169.00,145.50 170.00,145.50 171.00,145.50 172.00,145.50 173.00,145.50 174.00,145.50 175.00,145.50 176.00,145.50 177.00,145.50 178.00,145.50 179.00,145.50 180.00,145.50 181.00,145.50 182.00,145.50 183.00,145.50 184.00,145.50 185.00,145.50 186.00,145.50 187.00,145.50 188.00,145.50 189.00,145.50 190.00,145.50 191.00,145.50 192.00,145.50 193.00,145.50 194.00,145.50 195.00,145.50 196.00,145.50 197.00,145.50 198.00,145.50 199.00,145.50 200.00,145.50 201.00,145.50 202.00,145.50 203.00,145.50 204.00,145.50 205.00,145.50 206.00,145.50 207.00,145.50 208.00,145.50 209.00,145.50 210.00,145.50 211.00,145.50 212.00,145.50 213.00,145.50 214.00,145.50 215.00,145.50 216.00,145.50 217.00,145.50 218.00,145.50 219.00,145.50 220.00,145.50 221.00,145.50 222.00,145.50 223.00,145.50 224.00,145.50 225.00,145.50 226.00,145.50 227.00,145.50 228.00,145.50 229.00,145.50 230.00,145.50 231.00,145.50 232.00,145.50 233.00,145.50 234.00,145.50 235.00,145.50 236.00,145.50 237.00,145.50 238.00,145.50 239.00,145.50 240.00,145.50 241.00,145.50 242.00,145.50 243.00,145.50 243.50,146.00 243.50,147.00 243.00,147.50 242.50,148.00 242.50,149.00 242.50,150.00 242.50,151.00 242.00,151.50 241.50,152.00 241.50,153.00 241.50,154.00 241.50,155.00 241.50,156.00 241.00,156.50 240.50,157.00 240.50,158.00 240.50,159.00 240.50,160.00 240.50,161.00 240.00,161.50 239.00,161.50 238.00,161.50 237.00,161.50 236.00,161.50 235.00,161.50 234.00,161.50 233.00,161.50 232.00,161.50 231.00,161.50 230.00,161.50 229.00,161.50 228.00,161.50 227.00,161.50 226.00,161.50 225.00,161.50 224.00,161.50 223.00,161.50 222.00,161.50 221.00,161.50 220.00,161.50 219.00,161.50 218.00,161.50 217.00,161.50 216.00,161.50 215.00,161.50 214.00,161.50 213.00,161.50 212.00,161.50 211.00,161.50 210.00,161.50 209.00,161.50 208.00,161.50 207.00,161.50 206.00,161.50 205.00,161.50 204.00,161.50 203.00,161.50 202.00,161.50 201.00,161.50 200.00,161.50 199.00,161.50 198.00,161.50 197.00,161.50 196.00,161.50 195.00,161.50 194.00,161.50 193.00,161.50 192.00,161.50 191.00,161.50 190.00,161.50 189.00,161.50 188.00,161.50 187.00,161.50 186.00,161.50 185.00,161.50 184.00,161.50 183.00,161.50 182.00,161.50 181.00,161.50 180.00,161.50 179.00,161.50 178.50,162.00 178.00,162.50 177.50,163.00 177.50,164.00 177.50,165.00 177.50,166.00 177.50,167.00 177.00,167.50 176.50,168.00 176.50,169.00 176.50,170.00 176.50,171.00 176.50,172.00 176.00,172.50 175.50,173.00 175.50,174.00 175.50,175.00 175.50,176.00 175.00,176.50 174.50,177.00 174.50,178.00 174.50,179.00 174.50,180.00 174.00,180.50 173.50,181.00 173.50,182.00 173.50,183.00 173.50,184.00 173.50,185.00 173.00,185.50 172.50,186.00 172.50,187.00 172.50,188.00 172.50,189.00 172.50,190.00 172.00,190.50 171.50,191.00 171.50,192.00 171.50,193.00 171.50,194.00 171.00,194.50 170.50,195.00 170.50,196.00 170.50,197.00 170.50,198.00 170.50,199.00 170.00,199.50 169.50,200.00 169.50,201.00 169.50,202.00 169.50,203.00 169.00,203.50 168.50,204.00 168.50,205.00 168.50,206.00 168.00,206.50 167.50,207.00 167.50,208.00 167.00,208.50 166.50,209.00 166.50,210.00 166.00,210.50 165.50,211.00 165.50,212.00 165.00,212.50 164.50,213.00 164.00,213.50 163.50,214.00 163.50,215.00 163.00,215.50 162.50,216.00 162.00,216.50 161.50,217.00 161.00,217.50 160.50,218.00 160.50,219.00 160.00,219.50 159.50,220.00 159.00,220.50 158.50,221.00 158.00,221.50 157.00,221.50 156.50,222.00 156.00,222.50 155.50,223.00 155.00,223.50 154.50,224.00 154.00,224.50 153.50,225.00 153.00,225.50 152.00,225.50 151.50,226.00 151.00,226.50 150.00,226.50 149.50,227.00 149.00,227.50 148.00,227.50 147.50,228.00 147.00,228.50 146.00,228.50 145.00,228.50 144.50,229.00 144.00,229.50 143.00,229.50 142.00,229.50 141.50,230.00 141.00,230.50 140.00,230.50 139.00,230.50 138.00,230.50 137.00,230.50 136.50,231.00 136.00,231.50" />
</svg>