<svg xmlns="http://www.w3.org/2000/svg" width="283" height="283" viewBox="0 0 283 283">
<polyline fill="none" stroke="#222" stroke-width="1" points="187.00,231.50 186.00,231.50 185.00,231.50 184.00,231.50 183.00,231.50 182.00,231.50 181.00,231.50 180.00,231.50 179.00,231.50 178.00,231.50 177.00,231.50 176.00,231.50 175.00,231.50 174.00,231.50 173.00,231.50 172.00,231.50 171.00,231.50 170.00,231.50 169.00,231.50 168.00,231.50 167.00,231.50 166.00,231.50 165.00,231.50 164.00,231.50 163.00,231.50 162.00,231.50 161.00,231.50 160.00,231.50 159.00,231.50 158.00,231.50 157.00,231.50 156.00,231.50 155.00,231.50 154.00,231.50 153.00,231.50 152.00,231.50 151.00,231.50 150.00,231.50 149.00,231.50 148.00,231.50 147.00,231.50 146.00,231.50 145.00,231.50 144.00,231.50 143.00,231.50 142.00,231.50 141.00,231.50 140.00,231.50 139.00,231.50 138.00,231.50 137.00,231.50 136.00,231.50 135.00,231.50 134.00,231.50 133.00,231.50 132.00,231.50 131.00,231.50 130.00,231.50 129.00,231.50 128.00,231.50 127.00,231.50 126.00,231.50 125.00,231.50 124.00,231.50 123.00,231.50 122.00,231.50 121.00,231.50 120.00,231.50 119.00,231.50 118.00,231.50 117.00,231.50 116.00,231.50 115.00,231.50 114.00,231.50 113.00,231.50 112.00,231.50 111.00,231.50 110.00,231.50 109.00,231.50 108.00,231.50 107.00,231.50 106.00,231.50 105.00,231.50 104.00,231.50 103.00,231.50 102.00,231.50 101.00,231.50 100.00,231.50 99.00,231.50 98.00,231.50 97.00,231.50 96.00,231.50 95.00,231.50 94.00,231.50 93.00,231.50 92.00,231.50 91.00,231.50 90.00,231.50 89.00,231.50 88.00,231.50 87.00,231.50 86.00,231.50 85.00,231.50 84.00,231.50 83.00,231.50 82.00,231.50 81.00,231.50 80.00,231.50 79.00,231.50 78.00,231.50 77.00,231.50 76.00,231.50 75.00,231.50 74.00,231.50 73.00,231.50 72.00,231.50 71.00,231.50 70.00,231.50 69.00,231.50 68.00,231.50 67.00,231.50 66.00,231.50 65.00,231.50 64.00,231.50 63.00,231.50 62.00,231.50 61.00,231.50 60.00,231.50 59.00,231.50 58.00,231.50 57.00,231.50 56.00,231.50 55.00,231.50 54.00,231.50 53.00,231.50 52.00,231.50 51.00,231.50 50.00,231.50 49.00,231.50 48.00,231.50 47.00,231.50 46.00,231.50 45.00,231.50 44.00,231.50 43.50,231.00 44.00,230.50 44.50,230.00 44.50,229.00 44.50,228.00 44.50,227.00 44.50,226.00 45.00,225.50 45.50,225.00 45.50,224.00 45.50,223.00 45.50,222.00 46.00,221.50 46.50,221.00 46.50,220.00 46.50,219.00 46.50,218.00 46.50,217.00 47.00,216.50 47.50,216.00 48.00,215.50 49.00,215.50 50.00,215.50 51.00,215.50 52.00,215.50 53.00,215.50 54.00,215.50 55.00,215.50 56.00,215.50 57.00,215.50 58.00,215.50 59.00,215.50 60.00,215.50 61.00,215.50 62.00,215.50 63.00,215.50 64.00,215.50 65.00,215.50 66.00,215.50 67.00,215.50 68.00,215.50 69.00,215.50 70.00,215.50 71.00,215.50 72.00,215.50 73.00,215.50 74.00,215.50 75.00,215.50 76.00,215.50 77.00,215.50 78.00,215.50 79.00,215.50 80.00,215.50 81.00,215.50 82.00,215.50 83.00,215.50 84.00,215.50 85.00,215.50 86.00,215.50 87.00,215.50 88.00,215.50 89.00,215.50 90.00,215.50 91.00,215.50 92.00,215.50 93.00,215.50 94.00,215.50 95.00,215.50 96.00,215.50 97.00,215.50 98.00,215.50 99.00,215.50 100.00,215.50 101.00,215.50 102.00,215.50 103.00,215.50 104.00,215.50 105.00,215.50 106.00,215.50 107.00,215.50 108.00,215.50 109.00,215.50 110.00,215.50 111.00,215.50 112.00,215.50 113.00,215.50 114.00,215.50 115.00,215.50 116.00,215.50 117.00,215.50 118.00,215.50 119.00,215.50 120.00,215.50 121.00,215.50 122.00,215.50 123.00,215.50 124.00,215.50 125.00,215.50 126.00,215.50 127.00,215.50 128.00,215.50 129.00,215.50 130.00,215.50 131.00,215.50 132.00,215.50 133.00,215.50 134.00,215.50 135.00,215.50 136.00,215.50 137.00,215.50 138.00,215.50 139.00,215.50 140.00,215.50 141.00,215.50 142.00,215.50 143.00,215.50 144.00,215.50 145.00,215.50 146.00,215.50 147.00,215.50 148.00,215.50 149.00,215.50 150.00,215.50 151.00,215.50 152.00,215.50 153.00,215.50 154.00,215.50 155.00,215.50 156.00,215.50 157.00,215.50 158.00,215.50 159.00,215.50 160.00,215.50 161.00,215.50 162.00,215.50 163.00,215.50 164.00,215.50 165.00,215.50 166.00,215.50 167.00,215.50 168.00,215.50 169.00,215.50 170.00,215.50 171.00,215.50 172.00,215.50 173.00,215.50 174.00,215.50 175.00,215.50 176.00,215.50 177.00,215.50 178.00,215.50 179.00,215.50 180.00,215.50 181.00,215.50 182.00,215.50 183.00,215.50 184.00,215.50 185.00,215.50 186.00,215.50 186.50,215.00 187.00,214.50 188.00,214.50 189.00,214.50 189.50,214.00 190.00,213.50 191.00,213.50 191.50,213.00 192.00,212.50 192.50,212.00 193.00,211.50 193.50,211.00 194.00,210.50 195.00,210.50 195.50,210.00 196.00,209.50 196.50,209.00 196.50,208.00 197.00,207.50 197.50,207.00 198.00,206.50 198.50,206.00 198.50,205.00 199.00,204.50 199.50,204.00 199.50,203.00 200.00,202.50 200.50,202.00 200.50,201.00 200.50,200.00 201.00,199.50 201.50,199.00 201.50,198.00 201.50,197.00 201.50,196.00 202.00,195.50 202.50,195.00 202.50,194.00 202.50,193.00 202.50,192.00 202.50,191.00 203.00,190.50 203.50,190.00 203.50,189.00 203.50,188.00 203.50,187.00 204.00,186.50 204.50,186.00 204.50,185.00 204.50,184.00 204.50,183.00 204.50,182.00 205.00,181.50 205.50,181.00 205.50,180.00 205.50,179.00 205.50,178.00 206.00,177.50 206.50,177.00 206.50,176.00 206.50,175.00 206.50,174.00 206.50,173.00 207.00,172.50 207.50,172.00 207.50,171.00 207.50,170.00 207.50,169.00 208.00,168.50 208.50,168.00 208.50,167.00 208.50,166.00 208.50,165.00 209.00,164.50 209.50,164.00 209.50,163.00 209.50,162.00 209.50,161.00 209.50,160.00 210.00,159.50 210.50,159.00 210.50,158.00 210.50,157.00 210.50,156.00 211.00,155.50 211.50,155.00 211.50,154.00 211.50,153.00 211.50,152.00 211.50,151.00 212.00,150.50 212.50,150.00 212.50,149.00 212.50,148.00 212.50,147.00 213.00,146.50 213.50,146.00 213.50,145.00 213.50,144.00 213.50,143.00 213.50,142.00 214.00,141.50 214.50,141.00 214.50,140.00 214.50,139.00 214.50,138.00 215.00,137.50 215.50,137.00 215.50,136.00 215.50,135.00 215.50,134.00 215.50,133.00 216.00,132.50 216.50,132.00 216.50,131.00 216.50,130.00 216.50,129.00 217.00,128.50 217.50,128.00 217.50,127.00 217.50,126.00 217.50,125.00 218.00,124.50 218.50,124.00 218.50,123.00 218.50,122.00 218.50,121.00 218.50,120.00 219.00,119.50 219.50,119.00 219.50,118.00 219.50,117.00 219.50,116.00 220.00,115.50 220.50,115.00 220.50,114.00 220.50,113.00 220.50,112.00 220.50,111.00 221.00,110.50 221.50,110.00 221.50,109.00 221.50,108.00 221.50,107.00 222.00,106.50 222.50,106.00 222.50,105.00 222.50,104.00 222.50,103.00 222.50,102.00 223.00,101.50 223.50,101.00 223.50,100.00 223.50,99.00 223.50,98.00 224.00,97.50 224.50,97.00 224.50,96.00 224.50,95.00 224.50,94.00 225.00,93.50 225.50,93.00 225.50,92.00 225.50,91.00 225.50,90.00 225.50,89.00 226.00,88.50 226.50,88.00 226.50,87.00 226.50,86.00 226.50,85.00 226.50,84.00 226.50,83.00 226.50,82.00 226.50,81.00 226.50,80.00 226.00,79.50 225.50,79.00 225.50,78.00 225.00,77.50 224.50,77.00 224.50,76.00 224.00,75.50 223.50,75.00 223.50,74.00 223.00,73.50 222.50,73.00 222.00,72.50 221.50,72.00 221.00,71.50 220.50,71.00 220.00,70.50 219.50,70.00 219.00,69.50 218.00,69.50 217.50,69.00 217.00,68.50 216.00,68.50 215.50,68.00 215.00,67.50 214.00,67.50 213.00,67.50 212.50,67.00 212.00,66.50 211.00,66.50 210.00,66.50 209.00,66.50 208.00,66.50 207.00,66.50 206.00,66.50 205.00,66.50 204.00,66.50 203.00,66.50 202.00,66.50 201.00,66.50 200.00,66.50 199.00,66.50 198.00,66.50 197.00,66.50 196.00,66.50 195.00,66.50 194.00,66.50 193.00,66.50 192.00,66.50 191.00,66.50 190.00,66.50 189.00,66.50 188.00,66.50 187.00,66.50 186.00,66.50 185.00,66.50 184.00,66.50 183.00,66.50 182.00,66.50 181.00,66.50 180.00,66.50 179.00,66.50 178.00,66.50 177.00,66.50 176.00,66.50 175.00,66.50 174.00,66.50 173.00,66.50 172.00,66.50 171.00,66.50 170.00,66.50 169.00,66.50 168.00,66.50 167.00,66.50 166.00,66.50 165.00,66.50 164.00,66.50 163.00,66.50 162.00,66.50 161.00,66.50 160.00,66.50 159.00,66.50 158.00,66.50 157.00,66.50 156.00,66.50 155.00,66.50 154.00,66.50 153.00,66.50 152.00,66.50 151.00,66.50 150.00,66.50 149.00,66.50 148.00,66.50 147.00,66.50 146.00,66.50 145.00,66.50 144.00,66.50 143.00,66.50 142.00,66.50 141.00,66.50 140.00,66.50 139.00,66.50 138.00,66.50 137.00,66.50 136.00,66.50 135.00,66.50 134.00,66.50 133.00,66.50 132.00,66.50 131.00,66.50 130.00,66.50 129.00,66.50 128.00,66.50 127.00,66.50 126.00,66.50 125.00,66.50 124.00,66.50 123.00,66.50 122.00,66.50 121.00,66.50 120.00,66.50 119.00,66.50 118.00,66.50 117.00,66.50 116.00,66.50 115.00,66.50 114.00,66.50 113.00,66.50 112.00,66.50 111.00,66.50 110.00,66.50 109.00,66.50 108.00,66.50 107.00,66.50 106.00,66.50 105.00,66.50 104.00,66.50 103.00,66.50 102.00,66.50 101.00,66.50 100.00,66.50 99.00,66.50 98.00,66.50 97.00,66.50 96.50,67.00 96.50,68.00 96.00,68.50 95.50,69.00 95.50,70.00 95.50,71.00 95.50,72.00 95.00,72.50 94.50,73.00 94.50,74.00 94.50,75.00 94.50,76.00 94.50,77.00 94.00,77.50 93.50,78.00 93.50,79.00 93.50,80.00 93.50,81.00 93.00,81.50 92.50,82.00 92.50,83.00 92.50,84.00 92.50,85.00 92.50,86.00 92.00,86.50 91.50,87.00 91.50,88.00 91.50,89.00 91.50,90.00 91.50,91.00 91.00,91.50 90.50,92.00 90.50,93.00 90.50,94.00 90.50,95.00 90.00,95.50 89.50,96.00 89.50,97.00 89.50,98.00 89.50,99.00 89.50,100.00 89.00,100.50 88.50,101.00 88.50,102.00 88.50,103.00 88.50,104.00 88.00,104.50 87.50,105.00 87.50,106.00 87.50,107.00 87.50,108.00 87.50,109.00 87.00,109.50 86.50,110.00 86.50,111.00 86.50,112.00 86.50,113.00 86.50,114.00 86.00,114.50 85.50,115.00 85.50,116.00 85.50,117.00 85.50,118.00 85.00,118.50 84.50,119.00 84.50,120.00 84.50,121.00 84.50,122.00 84.50,123.00 84.00,123.50 83.50,124.00 83.50,125.00 83.50,126.00 83.50,127.00 83.00,127.50 82.50,128.00 82.50,129.00 82.50,130.00 82.50,131.00 82.50,132.00 82.00,132.50 81.00,132.50 80.00,132.50 79.00,132.50 78.00,132.50 77.00,132.50 76.00,132.50 75.00,132.50 74.00,132.50 73.00,132.50 72.00,132.50 71.00,132.50 70.00,132.50 69.00,132.50 68.00,132.50 67.00,132.50 66.00,132.50 65.00,132.50 64.00,132.50 63.00,132.50 62.00,132.50 61.00,132.50 60.00,132.50 59.00,132.50 58.00,132.50 57.00,132.50 56.00,132.50 55.00,132.50 54.00,132.50 53.00,132.50 52.00,132.50 51.00,132.50 50.00,132.50 49.00,132.50 48.00,132.50 47.00,132.50 46.50,132.00 46.50,131.00 47.00,130.50 47.50,130.00 47.50,129.00 47.50,128.00 47.50,127.00 47.50,126.00 48.00,125.50 48.50,125.00 48.50,124.00 48.50,123.00 48.50,122.00 49.00,121.50 49.50,121.00 49.50,120.00 49.50,119.00 49.50,118.00 50.00,117.50 50.50,117.00 51.00,116.50 52.00,116.50 53.00,116.50 54.00,116.50 55.00,116.50 56.00,116.50 57.00,116.50 58.00,116.50 59.00,116.50 60.00,116.50 61.00,116.50 62.00,116.50 63.00,116.50 64.00,116.50 65.00,116.50 66.00,116.50 67.00,116.50 68.00,116.50 69.00,116.50 69.50,116.00 69.50,115.00 69.50,114.00 70.00,113.50 70.50,113.00 70.50,112.00 70.50,111.00 70.50,110.00 70.50,109.00 71.00,108.50 71.50,108.00 71.50,107.00 71.50,106.00 71.50,105.00 72.00,104.50 72.50,104.00 72.50,103.00 72.50,102.00 72.50,101.00 72.50,100.00 73.00,99.50 73.50,99.00 73.50,98.00 73.50,97.00 73.50,96.00 74.00,95.50 74.50,95.00 74.50,94.00 74.50,93.00 74.50,92.00 74.50,91.00 75.00,90.50 75.50,90.00 75.50,89.00 75.50,88.00 75.50,87.00 75.50,86.00 76.00,85.50 76.50,85.00 76.50,84.00 76.50,83.00 76.50,82.00 77.00,81.50 77.50,81.00 77.50,80.00 77.50,79.00 77.50,78.00 77.50,77.00 78.00,76.50 78.50,76.00 78.50,75.00 78.50,74.00 78.50,73.00 79.00,72.50 79.50,72.00 79.50,71.00 79.50,70.00 79.50,69.00 79.50,68.00 80.00,67.50 80.50,67.00 80.50,66.00 80.50,65.00 80.50,64.00 80.50,63.00 81.00,62.50 81.50,62.00 81.50,61.00 81.50,60.00 82.00,59.50 82.50,59.00 83.00,58.50 83.50,58.00 83.50,57.00 84.00,56.50 84.50,56.00 85.00,55.50 85.50,55.00 86.00,54.50 86.50,54.00 87.00,53.50 88.00,53.50 88.50,53.00 89.00,52.50 90.00,52.50 90.50,52.00 91.00,51.50 92.00,51.50 93.00,51.50 94.00,51.50 94.50,51.00 95.00,50.50 96.00,50.50 97.00,50.50 98.00,50.50 99.00,50.50 100.00,50.50 101.00,50.50 102.00,50.50 103.00,50.50 104.00,50.50 105.00,50.50 106.00,50.50 107.00,50.50 108.00,50.50 109.00,50.50 110.00,50.50 111.00,50.50 112.00,50.50 113.00,50.50 114.00,50.50 115.00,50.50 116.00,50.50 117.00,50.50 118.00,50.50 119.00,50.50 120.00,50.50 121.00,50.50 122.00,50.50 123.00,50.50 124.00,50.50 125.00,50.50 126.00,50.50 127.00,50.50 128.00,50.50 129.00,50.50 130.00,50.50 131.00,50.50 132.00,50.50 133.00,50.50 134.00,50.50 135.00,50.50 136.00,50.50 137.00,50.50 138.00,50.50 139.00,50.50 140.00,50.50 141.00,50.50 142.00,50.50 143.00,50.50 144.00,50.50 145.00,50.50 146.00,50.50 147.00,50.50 148.00,50.50 149.00,50.50 150.00,50.50 151.00,50.50 152.00,50.50 153.00,50.50 154.00,50.50 155.00,50.50 156.00,50.50 157.00,50.50 158.00,50.50 159.00,50.50 160.00,50.50 161.00,50.50 162.00,50.50 163.00,50.50 164.00,50.50 165.00,50.50 166.00,50.50 167.00,50.50 168.00,50.50 169.00,50.50 170.00,50.50 171.00,50.50 172.00,50.50 173.00,50.50 174.00,50.50 175.00,50.50 176.00,50.50 177.00,50.50 178.00,50.50 179.00,50.50 180.00,50.50 181.00,50.50 182.00,50.50 183.00,50.50 184.00,50.50 185.00,50.50 186.00,50.50 187.00,50.50 188.00,50.50 189.00,50.50 190.00,50.50 191.00,50.50 192.00,50.50 193.00,50.50 194.00,50.50 195.00,50.50 196.00,50.50 197.00,50.50 198.00,50.50 199.00,50.50 200.00,50.50 201.00,50.50 202.00,50.50 203.00,50.50 204.00,50.50 205.00,50.50 206.00,50.50 207.00,50.50 208.00,50.50 209.00,50.50 210.00,50.50 211.00,50.50 211.50,51.00 212.00,51.50 213.00,51.50 214.00,51.50 215.00,51.50 216.00,51.50 217.00,51.50 217.50,52.00 218.00,52.50 219.00,52.50 220.00,52.50 220.50,53.00 221.00,53.50 222.00,53.50 222.50,54.00 223.00,54.50 224.00,54.50 224.50,55.00 225.00,55.50 226.00,55.50 226.50,56.00 227.00,56.50 228.00,56.50 228.50,57.00 229.00,57.50 229.50,58.00 230.00,58.50 230.50,59.00 231.00,59.50 231.50,60.00 232.00,60.50 232.50,61.00 233.00,61.50 233.50,62.00 234.00,62.50 234.50,63.00 235.00,63.50 235.50,64.00 236.00,64.50 236.50,65.00 236.50,66.00 237.00,66.50 237.50,67.00 238.00,67.50 238.50,68.00 238.50,69.00 239.00,69.50 239.50,70.00 239.50,71.00 239.50,72.00 240.00,72.50 240.50,73.00 240.50,74.00 240.50,75.00 241.00,75.50 241.50,76.00 241.50,77.00 241.50,78.00 241.50,79.00 242.00,79.50 242.50,80.00 242.50,81.00 242.50,82.00 242.50,83.00 242.50,84.00 242.50,85.00 242.50,86.00 242.50,87.00 242.50,88.00 242.00,88.50 241.50,89.00 241.50,90.00 241.50,91.00 241.50,92.00 241.50,93.00 241.00,93.50 240.50,94.00 240.50,95.00 240.50,96.00 240.50,97.00 240.50,98.00 240.00,98.50 239.50,99.00 239.50,100.00 239.50,101.00 239.50,102.00 239.00,102.50 238.50,103.00 238.50,104.00 238.50,105.00 238.50,106.00 238.50,107.00 238.00,107.50 237.50,108.00 237.50,109.00 237.50,110.00 237.50,111.00 237.00,111.50 236.50,112.00 236.50,113.00 236.50,114.00 236.50,115.00 236.00,115.50 235.50,116.00 235.50,117.00 235.50,118.00 235.50,119.00 235.50,120.00 235.00,120.50 234.50,121.00 234.50,122.00 234.50,123.00 234.50,124.00 234.00,124.50 233.50,125.00 233.50,126.00 233.50,127.00 233.50,128.00 233.50,129.00 233.00,129.50 232.50,130.00 232.50,131.00 232.50,132.00 232.50,133.00 232.00,133.50 231.50,134.00 231.50,135.00 231.50,136.00 231.50,137.00 231.50,138.00 231.00,138.50 230.50,139.00 230.50,140.00 230.50,141.00 230.50,142.00 230.00,142.50 229.50,143.00 229.50,144.00 229.50,145.00 229.50,146.00 229.00,146.50 228.50,147.00 228.50,148.00 228.50,149.00 228.50,150.00 228.50,151.00 228.00,151.50 227.50,152.00 227.50,153.00 227.50,154.00 227.50,155.00 227.00,155.50 226.50,156.00 226.50,157.00 226.50,158.00 226.50,159.00 226.50,160.00 226.00,160.50 225.50,161.00 225.50,162.00 225.50,163.00 225.50,164.00 225.00,164.50 224.50,165.00 224.50,166.00 224.50,167.00 224.50,168.00 224.50,169.00 224.00,169.50 223.50,170.00 223.50,171.00 223.50,172.00 223.50,173.00 223.00,173.50 222.50,174.00 222.50,175.00 222.50,176.00 222.50,177.00 222.00,177.50 221.50,178.00 221.50,179.00 221.50,180.00 221.50,181.00 221.50,182.00 221.00,182.50 220.50,183.00 220.50,184.00 220.50,185.00 220.50,186.00 220.00,186.50 219.50,187.00 219.50,188.00 219.50,189.00 219.50,190.00 219.50,191.00 219.00,191.50 218.50,192.00 218.50,193.00 218.50,194.00 218.50,195.00 218.00,195.50 217.50,196.00 217.50,197.00 217.50,198.00 217.50,199.00 217.50,200.00 217.00,200.50 216.50,201.00 216.50,202.00 216.50,203.00 216.50,204.00 216.00,204.50 215.50,205.00 215.50,206.00 215.50,207.00 215.00,207.50 214.50,208.00 214.50,209.00 214.50,210.00 214.00,210.50 213.50,211.00 213.50,212.00 213.00,212.50 212.50,213.00 212.00,213.50 211.50,214.00 211.50,215.00 211.00,215.50 210.50,216.00 210.00,216.50 209.50,217.00 209.50,218.00 209.00,218.50 208.50,219.00 208.00,219.50 207.50,220.00 207.00,220.50 206.50,221.00 206.00,221.50 205.50,222.00 205.00,222.50 204.50,223.00 204.00,223.50 203.00,223.50 202.50,224.00 202.00,224.50 201.50,225.00 201.00,225.50 200.50,226.00 200.00,226.50 199.00,226.50 198.50,227.00 198.00,227.50 197.00,227.50 196.50,228.00 196.00,228.50 195.00,228.50 194.50,229.00 194.00,229.50 193.00,229.50 192.00,229.50 191.50,230.00 191.00,230.50 190.00,230.50 189.00,230.50 188.00,230.50 187.50,231.00 187.00,231.50" />
<polyline fill="none" stroke="#090" stroke-width="1" stroke-dasharray="3,2" points="203.00,58.50 202.00,58.50 201.00,58.50 200.00,58.50 199.00,58.50 198.00,58.50 197.00,58.50 196.00,58.50 195.00,58.50 194.00,58.50 193.00,58.50 192.00,58.50 191.00,58.50 190.00,58.50 189.00,58.50 188.00,58.50 187.00,58.50 186.00,58.50 185.00,58.50 184.00,58.50 183.00,58.50 182.00,58.50 181.00,58.50 180.00,58.50 179.00,58.50 178.00,58.50 177.00,58.50 176.00,58.50 175.00,58.50 174.00,58.50 173.00,58.50 172.00,58.50 171.00,58.50 170.00,58.50 169.00,58.50 168.00,58.50 167.00,58.50 166.00,58.50 165.00,58.50 164.00,58.50 163.00,58.50 162.00,58.50 161.00,58.50 160.00,58.50 159.00,58.50 158.00,58.50 157.00,58.50 156.00,58.50 155.00,58.50 154.00,58.50 153.00,58.50 152.00,58.50 151.00,58.50 150.00,58.50 149.00,58.50 148.00,58.50 147.00,58.50 146.00,58.50 145.00,58.50 144.00,58.50 143.00,58.50 142.00,58.50 141.00,58.50 140.00,58.50 139.00,58.50 138.00,58.50 137.00,58.50 136.00,58.50 135.00,58.50 134.00,58.50 133.00,58.50 132.00,58.50 131.00,58.50 130.00,58.50 129.00,58.50 128.00,58.50 127.00,58.50 126.00,58.50 125.00,58.50 124.00,58.50 123.00,58.50 122.00,58.50 121.00,58.50 120.00,58.50 119.00,58.50 118.00,58.50 117.00,58.50 116.00,58.50 115.00,58.50 114.00,58.50 113.00,58.50 112.00,58.50 111.00,58.50 110.00,58.50 109.00,58.50 108.00,58.50 107.00,58.50 106.00,58.50 105.00,58.50 104.00,58.50 103.00,58.50 102.50,58.00 103.00,57.50 104.00,57.50 105.00,57.50 106.00,57.50 107.00,57.50 108.00,57.50 109.00,57.50 110.00,57.50 111.00,57.50 112.00,57.50 113.00,57.50 114.00,57.50 115.00,57.50 116.00,57.50 117.00,57.50 118.00,57.50 119.00,57.50 120.00,57.50 121.00,57.50 122.00,57.50 123.00,57.50 124.00,57.50 125.00,57.50 126.00,57.50 127.00,57.50 128.00,57.50 129.00,57.50 130.00,57.50 131.00,57.50 132.00,57.50 133.00,57.50 134.00,57.50 135.00,57.50 136.00,57.50 137.00,57.50 138.00,57.50 139.00,57.50 140.00,57.50 141.00,57.50 142.00,57.50 143.00,57.50 144.00,57.50 145.00,57.50 146.00,57.50 147.00,57.50 148.00,57.50 149.00,57.50 150.00,57.50 151.00,57.50 152.00,57.50 153.00,57.50 154.00,57.50 155.00,57.50 156.00,57.50 157.00,57.50 158.00,57.50 159.00,57.50 160.00,57.50 161.00,57.50 162.00,57.50 163.00,57.50 164.00,57.50 165.00,57.50 166.00,57.50 167.00,57.50 168.00,57.50 169.00,57.50 170.00,57.50 171.00,57.50 172.00,57.50 173.00,57.50 174.00,57.50 175.00,57.50 176.00,57.50 177.00,57.50 178.00,57.50 179.00,57.50 180.00,57.50 181.00,57.50 182.00,57.50 183.00,57.50 184.00,57.50 185.00,57.50 186.00,57.50 187.00,57.50 188.00,57.50 189.00,57.50 190.00,57.50 191.00,57.50 192.00,57.50 193.00,57.50 194.00,57.50 195.00,57.50 196.00,57.50 197.00,57.50 198.00,57.50 199.00,57.50 200.00,57.50 201.00,57.50 202.00,57.50 203.00,57.50 203.50,58.00 203.00,58.50" />
<polyline fill="none" stroke="#090" stroke-width="1" stroke-dasharray="3,2" points="102.00,59.50 101.00,59.50 100.00,59.50 99.00,59.50 98.00,59.50 97.00,59.50 96.00,59.50 95.50,59.00 96.00,58.50 97.00,58.50 98.00,58.50 99.00,58.50 100.00,58.50 101.00,58.50 102.00,58.50 102.50,59.00 102.00,59.50" />
<polyline fill="none" stroke="#090" stroke-width="1" stroke-dasharray="3,2" points="213.00,59.50 212.00,59.50 211.00,59.50 210.00,59.50 209.00,59.50 208.00,59.50 207.00,59.50 206.00,59.50 205.00,59.50 204.00,59.50 203.50,59.00 204.00,58.50 205.00,58.50 206.00,58.50 207.00,58.50 208.00,58.50 209.00,58.50 210.00,58.50 211.00,58.50 212.00,58.50 213.00,58.50 213.50,59.00 213.00,59.50" />
<polyline fill="none" stroke="#090" stroke-width="1" stroke-dasharray="3,2" points="95.00,60.50 94.00,60.50 93.00,60.50 92.00,60.50 91.50,60.00 92.00,59.50 93.00,59.50 94.00,59.50 95.00,59.50 95.50,60.00 95.00,60.50" />
<polyline fill="none" stroke="#090" stroke-width="1" stroke-dasharray="3,2" points="217.00,60.50 216.00,60.50 215.00,60.50 214.00,60.50 213.50,60.00 214.00,59.50 215.00,59.50 216.00,59.50 217.00,59.50 217.50,60.00 217.00,60.50" />
<polyline fill="none" stroke="#090" stroke-width="1" stroke-dasharray="3,2" points="91.00,61.50 90.50,61.00 91.00,60.50 91.50,61.00 91.00,61.50" />
<polyline fill="none" stroke="#090" stroke-width="1" stroke-dasharray="3,2" points="220.00,61.50 219.00,61.50 218.00,61.50 217.50,61.00 218.00,60.50 219.00,60.50 220.00,60.50 220.50,61.00 220.00,61.50" />
<polyline fill="none" stroke="#090" stroke-width="1" stroke-dasharray="3,2" points="90.00,62.50 89.50,62.00 90.00,61.50 90.50,62.00 90.00,62.50" />
<polyline fill="none" stroke="#090" stroke-width="1" stroke-dasharray="3,2" points="222.00,62.50 221.00,62.50 220.50,62.00 221.00,61.50 222.00,61.50 222.50,62.00 222.00,62.50" />
<polyline fill="none" stroke="#090" stroke-width="1" stroke-dasharray="3,2" points="89.00,65.50 88.50,65.00 88.50,64.00 88.50,63.00 89.00,62.50 89.50,63.00 89.50,64.00 89.50,65.00 89.00,65.50" />
<polyline fill="none" stroke="#090" stroke-width="1" stroke-dasharray="3,2" points="223.00,63.50 222.50,63.00 223.00,62.50 223.50,63.00 223.00,63.50" />
<polyline fill="none" stroke="#090" stroke-width="1" stroke-dasharray="3,2" points="224.00,64.50 223.50,64.00 224.00,63.50 224.50,64.00 224.00,64.50" />
<polyline fill="none" stroke="#090" stroke-width="1" stroke-dasharray="3,2" points="225.00,65.50 224.50,65.00 225.00,64.50 225.50,65.00 225.00,65.50" />
<polyline fill="none" stroke="#090" stroke-width="1" stroke-dasharray="3,2" points="88.00,69.50 87.50,69.00 87.50,68.00 87.50,67.00 87.50,66.00 88.00,65.50 88.50,66.00 88.50,67.00 88.50,68.00 88.50,69.00 88.00,69.50" />
<polyline fill="none" stroke="#090" stroke-width="1" stroke-dasharray="3,2" points="226.00,66.50 225.50,66.00 226.00,65.50 226.50,66.00 226.00,66.50" />
<polyline fill="none" stroke="#090" stroke-width="1" stroke-dasharray="3,2" points="227.00,67.50 226.50,67.00 227.00,66.50 227.50,67.00 227.00,67.50" />
<polyline fill="none" stroke="#090" stroke-width="1" stroke-dasharray="3,2" points="228.00,68.50 227.50,68.00 228.00,67.50 228.50,68.00 228.00,68.50" />
<polyline fill="none" stroke="#090" stroke-width="1" stroke-dasharray="3,2" points="229.00,69.50 228.50,69.00 229.00,68.50 229.50,69.00 229.00,69.50" />
<polyline fill="none" stroke="#090" stroke-width="1" stroke-dasharray="3,2" points="87.00,74.50 86.50,74.00 86.50,73.00 86.50,72.00 86.50,71.00 86.50,70.00 87.00,69.50 87.50,70.00 87.50,71.00 87.50,72.00 87.50,73.00 87.50,74.00 87.00,74.50" />
<polyline fill="none" stroke="#090" stroke-width="1" stroke-dasharray="3,2" points="230.00,71.50 229.50,71.00 229.50,70.00 230.00,69.50 230.50,70.00 230.50,71.00 230.00,71.50" />
<polyline fill="none" stroke="#090" stroke-width="1" stroke-dasharray="3,2" points="231.00,72.50 230.50,72.00 231.00,71.50 231.50,72.00 231.00,72.50" />
<polyline fill="none" stroke="#090" stroke-width="1" stroke-dasharray="3,2" points="232.00,75.50 231.50,75.00 231.50,74.00 231.50,73.00 232.00,72.50 232.50,73.00 232.50,74.00 232.50,75.00 232.00,75.50" />
<polyline fill="none" stroke="#090" stroke-width="1" stroke-dasharray="3,2" points="86.00,79.50 85.50,79.00 85.50,78.00 85.50,77.00 85.50,76.00 85.50,75.00 86.00,74.50 86.50,75.00 86.50,76.00 86.50,77.00 86.50,78.00 86.50,79.00 86.00,79.50" />
<polyline fill="none" stroke="#090" stroke-width="1" stroke-dasharray="3,2" points="233.00,82.50 232.50,82.00 232.50,81.00 232.50,80.00 232.50,79.00 232.50,78.00 232.50,77.00 232.50,76.00 233.00,75.50 233.50,76.00 233.50,77.00 233.50,78.00 233.50,79.00 233.50,80.00 233.50,81.00 233.50,82.00 233.00,82.50" />
<polyline fill="none" stroke="#090" stroke-width="1" stroke-dasharray="3,2" points="85.00,83.50 84.50,83.00 84.50,82.00 84.50,81.00 84.50,80.00 85.00,79.50 85.50,80.00 85.50,81.00 85.50,82.00 85.50,83.00 85.00,83.50" />
<polyline fill="none" stroke="#090" stroke-width="1" stroke-dasharray="3,2" points="234.00,86.50 233.50,86.00 233.50,85.00 233.50,84.00 233.50,83.00 234.00,82.50 234.50,83.00 234.50,84.00 234.50,85.00 234.50,86.00 234.00,86.50" />
<polyline fill="none" stroke="#090" stroke-width="1" stroke-dasharray="3,2" points="84.00,88.50 83.50,88.00 83.50,87.00 83.50,86.00 83.50,85.00 83.50,84.00 84.00,83.50 84.50,84.00 84.50,85.00 84.50,86.00 84.50,87.00 84.50,88.00 84.00,88.50" />
<polyline fill="none" stroke="#090" stroke-width="1" stroke-dasharray="3,2" points="233.00,95.50 232.50,95.00 232.50,94.00 232.50,93.00 232.50,92.00 232.50,91.00 232.50,90.00 232.50,89.00 232.50,88.00 232.50,87.00 233.00,86.50 233.50,87.00 233.50,88.00 233.50,89.00 233.50,90.00 233.50,91.00 233.50,92.00 233.50,93.00 233.50,94.00 233.50,95.00 233.00,95.50" />
<polyline fill="none" stroke="#090" stroke-width="1" stroke-dasharray="3,2" points="197.00,88.50 196.00,88.50 195.00,88.50 194.00,88.50 193.00,88.50 192.00,88.50 191.00,88.50 190.00,88.50 189.00,88.50 188.00,88.50 187.00,88.50 186.00,88.50 185.00,88.50 184.00,88.50 183.00,88.50 182.00,88.50 181.00,88.50 180.00,88.50 179.00,88.50 178.00,88.50 177.00,88.50 176.00,88.50 175.00,88.50 174.00,88.50 173.00,88.50 172.00,88.50 171.00,88.50 170.00,88.50 169.00,88.50 168.00,88.50 167.00,88.50 166.00,88.50 165.00,88.50 164.00,88.50 163.00,88.50 162.00,88.50 161.00,88.50 160.00,88.50 159.00,88.50 158.00,88.50 157.00,88.50 156.00,88.50 155.00,88.50 154.00,88.50 153.00,88.50 152.00,88.50 151.00,88.50 150.00,88.50 149.00,88.50 148.00,88.50 147.00,88.50 146.00,88.50 145.00,88.50 144.00,88.50 143.00,88.50 142.00,88.50 141.00,88.50 140.00,88.50 139.00,88.50 138.00,88.50 137.00,88.50 136.00,88.50 135.00,88.50 134.00,88.50 133.00,88.50 132.00,88.50 131.00,88.50 130.00,88.50 129.00,88.50 128.00,88.50 127.00,88.50 126.00,88.50 125.00,88.50 124.00,88.50 123.00,88.50 122.00,88.50 121.00,88.50 120.00,88.50 119.00,88.50 118.00,88.50 117.00,88.50 116.00,88.50 115.50,88.00 116.00,87.50 117.00,87.50 118.00,87.50 119.00,87.50 120.00,87.50 121.00,87.50 122.00,87.50 123.00,87.50 124.00,87.50 125.00,87.50 126.00,87.50 127.00,87.50 128.00,87.50 129.00,87.50 130.00,87.50 131.00,87.50 132.00,87.50 133.00,87.50 134.00,87.50 135.00,87.50 136.00,87.50 137.00,87.50 138.00,87.50 139.00,87.50 140.00,87.50 141.00,87.50 142.00,87.50 143.00,87.50 144.00,87.50 145.00,87.50 146.00,87.50 147.00,87.50 148.00,87.50 149.00,87.50 150.00,87.50 151.00,87.50 152.00,87.50 153.00,87.50 154.00,87.50 155.00,87.50 156.00,87.50 157.00,87.50 158.00,87.50 159.00,87.50 160.00,87.50 161.00,87.50 162.00,87.50 163.00,87.50 164.00,87.50 165.00,87.50 166.00,87.50 167.00,87.50 168.00,87.50 169.00,87.50 170.00,87.50 171.00,87.50 172.00,87.50 173.00,87.50 174.00,87.50 175.00,87.50 176.00,87.50 177.00,87.50 178.00,87.50 179.00,87.50 180.00,87.50 181.00,87.50 182.00,87.50 183.00,87.50 184.00,87.50 185.00,87.50 186.00,87.50 187.00,87.50 188.00,87.50 189.00,87.50 190.00,87.50 191.00,87.50 192.00,87.50 193.00,87.50 194.00,87.50 195.00,87.50 196.00,87.50 197.00,87.50 197.50,88.00 197.00,88.50" />
<polyline fill="none" stroke="#090" stroke-width="1" stroke-dasharray="3,2" points="83.00,92.50 82.50,92.00 82.50,91.00 82.50,90.00 82.50,89.00 83.00,88.50 83.50,89.00 83.50,90.00 83.50,91.00 83.50,92.00 83.00,92.50" />
<polyline fill="none" stroke="#090" stroke-width="1" stroke-dasharray="3,2" points="115.00,89.50 114.00,89.50 113.50,89.00 114.00,88.50 115.00,88.50 115.50,89.00 115.00,89.50" />
<polyline fill="none" stroke="#090" stroke-width="1" stroke-dasharray="3,2" points="201.00,89.50 200.00,89.50 199.00,89.50 198.00,89.50 197.50,89.00 198.00,88.50 199.00,88.50 200.00,88.50 201.00,88.50 201.50,89.00 201.00,89.50" />
<polyline fill="none" stroke="#090" stroke-width="1" stroke-dasharray="3,2" points="113.00,93.50 112.50,93.00 112.50,92.00 112.50,91.00 112.50,90.00 113.00,89.50 113.50,90.00 113.50,91.00 113.50,92.00 113.50,93.00 113.00,93.50" />
<polyline fill="none" stroke="#090" stroke-width="1" stroke-dasharray="3,2" points="202.00,96.50 201.50,96.00 201.50,95.00 201.50,94.00 201.50,93.00 201.50,92.00 201.50,91.00 201.50,90.00 202.00,89.50 202.50,90.00 202.50,91.00 202.50,92.00 202.50,93.00 202.50,94.00 202.50,95.00 202.50,96.00 202.00,96.50" />
<polyline fill="none" stroke="#090" stroke-width="1" stroke-dasharray="3,2" points="82.00,97.50 81.50,97.00 81.50,96.00 81.50,95.00 81.50,94.00 81.50,93.00 82.00,92.50 82.50,93.00 82.50,94.00 82.50,95.00 82.50,96.00 82.50,97.00 82.00,97.50" />
<polyline fill="none" stroke="#090" stroke-width="1" stroke-dasharray="3,2" points="112.00,97.50 111.50,97.00 111.50,96.00 111.50,95.00 111.50,94.00 112.00,93.50 112.50,94.00 112.50,95.00 112.50,96.00 112.50,97.00 112.00,97.50" />
<polyline fill="none" stroke="#090" stroke-width="1" stroke-dasharray="3,2" points="232.00,100.50 231.50,100.00 231.50,99.00 231.50,98.00 231.50,97.00 231.50,96.00 232.00,95.50 232.50,96.00 232.50,97.00 232.50,98.00 232.50,99.00 232.50,100.00 232.00,100.50" />
<polyline fill="none" stroke="#090" stroke-width="1" stroke-dasharray="3,2" points="201.00,105.50 200.50,105.00 200.50,104.00 200.50,103.00 200.50,102.00 200.50,101.00 200.50,100.00 200.50,99.00 200.50,98.00 200.50,97.00 201.00,96.50 201.50,97.00 201.50,98.00 201.50,99.00 201.50,100.00 201.50,101.00 201.50,102.00 201.50,103.00 201.50,104.00 201.50,105.00 201.00,105.50" />
<polyline fill="none" stroke="#090" stroke-width="1" stroke-dasharray="3,2" points="81.00,102.50 80.50,102.00 80.50,101.00 80.50,100.00 80.50,99.00 80.50,98.00 81.00,97.50 81.50,98.00 81.50,99.00 81.50,100.00 81.50,101.00 81.50,102.00 81.00,102.50" />
<polyline fill="none" stroke="#090" stroke-width="1" stroke-dasharray="3,2" points="111.00,102.50 110.50,102.00 110.50,101.00 110.50,100.00 110.50,99.00 110.50,98.00 111.00,97.50 111.50,98.00 111.50,99.00 111.50,100.00 111.50,101.00 111.50,102.00 111.00,102.50" />
<polyline fill="none" stroke="#090" stroke-width="1" stroke-dasharray="3,2" points="231.00,104.50 230.50,104.00 230.50,103.00 230.50,102.00 230.50,101.00 231.00,100.50 231.50,101.00 231.50,102.00 231.50,103.00 231.50,104.00 231.00,104.50" />
<polyline fill="none" stroke="#090" stroke-width="1" stroke-dasharray="3,2" points="80.00,106.50 79.50,106.00 79.50,105.00 79.50,104.00 79.50,103.00 80.00,102.50 80.50,103.00 80.50,104.00 80.50,105.00 80.50,106.00 80.00,106.50" />
<polyline fill="none" stroke="#090" stroke-width="1" stroke-dasharray="3,2" points="110.00,106.50 109.50,106.00 109.50,105.00 109.50,104.00 109.50,103.00 110.00,102.50 110.50,103.00 110.50,104.00 110.50,105.00 110.50,106.00 110.00,106.50" />
<polyline fill="none" stroke="#090" stroke-width="1" stroke-dasharray="3,2" points="230.00,108.50 229.50,108.00 229.50,107.00 229.50,106.00 229.50,105.00 230.00,104.50 230.50,105.00 230.50,106.00 230.50,107.00 230.50,108.00 230.00,108.50" />
<polyline fill="none" stroke="#090" stroke-width="1" stroke-dasharray="3,2" points="200.00,110.50 199.50,110.00 199.50,109.00 199.50,108.00 199.50,107.00 199.50,106.00 200.00,105.50 200.50,106.00 200.50,107.00 200.50,108.00 200.50,109.00 200.50,110.00 200.00,110.50" />
<polyline fill="none" stroke="#090" stroke-width="1" stroke-dasharray="3,2" points="79.00,111.50 78.50,111.00 78.50,110.00 78.50,109.00 78.50,108.00 78.50,107.00 79.00,106.50 79.50,107.00 79.50,108.00 79.50,109.00 79.50,110.00 79.50,111.00 79.00,111.50" />
<polyline fill="none" stroke="#090" stroke-width="1" stroke-dasharray="3,2" points="109.00,111.50 108.50,111.00 108.50,110.00 108.50,109.00 108.50,108.00 108.50,107.00 109.00,106.50 109.50,107.00 109.50,108.00 109.50,109.00 109.50,110.00 109.50,111.00 109.00,111.50" />
<polyline fill="none" stroke="#090" stroke-width="1" stroke-dasharray="3,2" points="229.00,113.50 228.50,113.00 228.50,112.00 228.50,111.00 228.50,110.00 228.50,109.00 229.00,108.50 229.50,109.00 229.50,110.00 229.50,111.00 229.50,112.00 229.50,113.00 229.00,113.50" />
<polyline fill="none" stroke="#090" stroke-width="1" stroke-dasharray="3,2" points="199.00,114.50 198.50,114.00 198.50,113.00 198.50,112.00 198.50,111.00 199.00,110.50 199.50,111.00 199.50,112.00 199.50,113.00 199.50,114.00 199.00,114.50" />
<polyline fill="none" stroke="#090" stroke-width="1" stroke-dasharray="3,2" points="78.00,115.50 77.50,115.00 77.50,114.00 77.50,113.00 77.50,112.00 78.00,111.50 78.50,112.00 78.50,113.00 78.50,114.00 78.50,115.00 78.00,115.50" />
<polyline fill="none" stroke="#090" stroke-width="1" stroke-dasharray="3,2" points="108.00,116.50 107.50,116.00 107.50,115.00 107.50,114.00 107.50,113.00 107.50,112.00 108.00,111.50 108.50,112.00 108.50,113.00 108.50,114.00 108.50,115.00 108.50,116.00 108.00,116.50" />
<polyline fill="none" stroke="#090" stroke-width="1" stroke-dasharray="3,2" points="228.00,117.50 227.50,117.00 227.50,116.00 227.50,115.00 227.50,114.00 228.00,113.50 228.50,114.00 228.50,115.00 228.50,116.00 228.50,117.00 228.00,117.50" />
<polyline fill="none" stroke="#090" stroke-width="1" stroke-dasharray="3,2" points="198.00,119.50 197.50,119.00 197.50,118.00 197.50,117.00 197.50,116.00 197.50,115.00 198.00,114.50 198.50,115.00 198.50,116.00 198.50,117.00 198.50,118.00 198.50,119.00 198.00,119.50" />
<polyline fill="none" stroke="#090" stroke-width="1" stroke-dasharray="3,2" points="77.00,120.50 76.50,120.00 76.50,119.00 76.50,118.00 76.50,117.00 76.50,116.00 77.00,115.50 77.50,116.00 77.50,117.00 77.50,118.00 77.50,119.00 77.50,120.00 77.00,120.50" />
<polyline fill="none" stroke="#090" stroke-width="1" stroke-dasharray="3,2" points="107.00,120.50 106.50,120.00 106.50,119.00 106.50,118.00 106.50,117.00 107.00,116.50 107.50,117.00 107.50,118.00 107.50,119.00 107.50,120.00 107.00,120.50" />
<polyline fill="none" stroke="#090" stroke-width="1" stroke-dasharray="3,2" points="227.00,122.50 226.50,122.00 226.50,121.00 226.50,120.00 226.50,119.00 226.50,118.00 227.00,117.50 227.50,118.00 227.50,119.00 227.50,120.00 227.50,121.00 227.50,122.00 227.00,122.50" />
<polyline fill="none" stroke="#090" stroke-width="1" stroke-dasharray="3,2" points="197.00,122.50 196.50,122.00 196.50,121.00 196.50,120.00 197.00,119.50 197.50,120.00 197.50,121.00 197.50,122.00 197.00,122.50" />
<polyline fill="none" stroke="#090" stroke-width="1" stroke-dasharray="3,2" points="76.00,122.50 75.50,122.00 75.50,121.00 76.00,120.50 76.50,121.00 76.50,122.00 76.00,122.50" />
<polyline fill="none" stroke="#090" stroke-width="1" stroke-dasharray="3,2" points="106.00,125.50 105.50,125.00 105.50,124.00 105.50,123.00 105.50,122.00 105.50,121.00 106.00,120.50 106.50,121.00 106.50,122.00 106.50,123.00 106.50,124.00 106.50,125.00 106.00,125.50" />
<polyline fill="none" stroke="#090" stroke-width="1" stroke-dasharray="3,2" points="75.00,123.50 74.50,123.00 75.00,122.50 75.50,123.00 75.00,123.50" />
<polyline fill="none" stroke="#090" stroke-width="1" stroke-dasharray="3,2" points="196.00,123.50 195.50,123.00 196.00,122.50 196.50,123.00 196.00,123.50" />
<polyline fill="none" stroke="#090" stroke-width="1" stroke-dasharray="3,2" points="226.00,126.50 225.50,126.00 225.50,125.00 225.50,124.00 225.50,123.00 226.00,122.50 226.50,123.00 226.50,124.00 226.50,125.00 226.50,126.00 226.00,126.50" />
<polyline fill="none" stroke="#090" stroke-width="1" stroke-dasharray="3,2" points="74.00,124.50 73.00,124.50 72.00,124.50 71.00,124.50 70.00,124.50 69.00,124.50 68.00,124.50 67.00,124.50 66.00,124.50 65.00,124.50 64.00,124.50 63.00,124.50 62.00,124.50 61.00,124.50 60.00,124.50 59.00,124.50 58.50,124.00 59.00,123.50 60.00,123.50 61.00,123.50 62.00,123.50 63.00,123.50 64.00,123.50 65.00,123.50 66.00,123.50 67.00,123.50 68.00,123.50 69.00,123.50 70.00,123.50 71.00,123.50 72.00,123.50 73.00,123.50 74.00,123.50 74.50,124.00 74.00,124.50" />
<polyline fill="none" stroke="#090" stroke-width="1" stroke-dasharray="3,2" points="195.00,124.50 194.00,124.50 193.00,124.50 192.00,124.50 191.00,124.50 190.00,124.50 189.00,124.50 188.00,124.50 187.00,124.50 186.00,124.50 185.00,124.50 184.00,124.50 183.00,124.50 182.00,124.50 181.00,124.50 180.00,124.50 179.00,124.50 178.00,124.50 177.00,124.50 176.00,124.50 175.00,124.50 174.00,124.50 173.00,124.50 172.00,124.50 171.00,124.50 170.00,124.50 169.00,124.50 168.00,124.50 167.00,124.50 166.00,124.50 165.00,124.50 164.00,124.50 163.00,124.50 162.00,124.50 161.00,124.50 160.00,124.50 159.00,124.50 158.00,124.50 157.00,124.50 156.00,124.50 155.00,124.50 154.00,124.50 153.00,124.50 152.00,124.50 151.00,124.50 150.00,124.50 149.00,124.50 148.00,124.50 147.00,124.50 146.00,124.50 145.00,124.50 144.00,124.50 143.00,124.50 142.00,124.50 141.00,124.50 140.00,124.50 139.00,124.50 138.00,124.50 137.00,124.50 136.00,124.50 135.00,124.50 134.50,124.00 135.00,123.50 136.00,123.50 137.00,123.50 138.00,123.50 139.00,123.50 140.00,123.50 141.00,123.50 142.00,123.50 143.00,123.50 144.00,123.50 145.00,123.50 146.00,123.50 147.00,123.50 148.00,123.50 149.00,123.50 150.00,123.50 151.00,123.50 152.00,123.50 153.00,123.50 154.00,123.50 155.00,123.50 156.00,123.50 157.00,123.50 158.00,123.50 159.00,123.50 160.00,123.50 161.00,123.50 162.00,123.50 163.00,123.50 164.00,123.50 165.00,123.50 166.00,123.50 167.00,123.50 168.00,123.50 169.00,123.50 170.00,123.50 171.00,123.50 172.00,123.50 173.00,123.50 174.00,123.50 175.00,123.50 176.00,123.50 177.00,123.50 178.00,123.50 179.00,123.50 180.00,123.50 181.00,123.50 182.00,123.50 183.00,123.50 184.00,123.50 185.00,123.50 186.00,123.50 187.00,123.50 188.00,123.50 189.00,123.50 190.00,123.50 191.00,123.50 192.00,123.50 193.00,123.50 194.00,123.50 195.00,123.50 195.50,124.00 195.00,124.50" />
<polyline fill="none" stroke="#090" stroke-width="1" stroke-dasharray="3,2" points="58.00,125.50 57.00,125.50 56.50,125.00 57.00,124.50 58.00,124.50 58.50,125.00 58.00,125.50" />
<polyline fill="none" stroke="#090" stroke-width="1" stroke-dasharray="3,2" points="134.00,125.50 133.00,125.50 132.50,125.00 133.00,124.50 134.00,124.50 134.50,125.00 134.00,125.50" />
<polyline fill="none" stroke="#090" stroke-width="1" stroke-dasharray="3,2" points="56.00,126.50 55.00,126.50 54.50,126.00 55.00,125.50 56.00,125.50 56.50,126.00 56.00,126.50" />
<polyline fill="none" stroke="#090" stroke-width="1" stroke-dasharray="3,2" points="105.00,129.50 104.50,129.00 104.50,128.00 104.50,127.00 104.50,126.00 105.00,125.50 105.50,126.00 105.50,127.00 105.50,128.00 105.50,129.00 105.00,129.50" />
<polyline fill="none" stroke="#090" stroke-width="1" stroke-dasharray="3,2" points="132.00,126.50 131.00,126.50 130.50,126.00 131.00,125.50 132.00,125.50 132.50,126.00 132.00,126.50" />
<polyline fill="none" stroke="#090" stroke-width="1" stroke-dasharray="3,2" points="54.00,127.50 53.50,127.00 54.00,126.50 54.50,127.00 54.00,127.50" />
<polyline fill="none" stroke="#090" stroke-width="1" stroke-dasharray="3,2" points="130.00,127.50 129.00,127.50 128.50,127.00 129.00,126.50 130.00,126.50 130.50,127.00 130.00,127.50" />
<polyline fill="none" stroke="#090" stroke-width="1" stroke-dasharray="3,2" points="225.00,131.50 224.50,131.00 224.50,130.00 224.50,129.00 224.50,128.00 224.50,127.00 225.00,126.50 225.50,127.00 225.50,128.00 225.50,129.00 225.50,130.00 225.50,131.00 225.00,131.50" />
<polyline fill="none" stroke="#090" stroke-width="1" stroke-dasharray="3,2" points="53.00,128.50 52.00,128.50 51.50,128.00 52.00,127.50 53.00,127.50 53.50,128.00 53.00,128.50" />
<polyline fill="none" stroke="#090" stroke-width="1" stroke-dasharray="3,2" points="128.00,128.50 127.50,128.00 128.00,127.50 128.50,128.00 128.00,128.50" />
<polyline fill="none" stroke="#090" stroke-width="1" stroke-dasharray="3,2" points="51.00,129.50 50.50,129.00 51.00,128.50 51.50,129.00 51.00,129.50" />
<polyline fill="none" stroke="#090" stroke-width="1" stroke-dasharray="3,2" points="127.00,129.50 126.50,129.00 127.00,128.50 127.50,129.00 127.00,129.50" />
<polyline fill="none" stroke="#090" stroke-width="1" stroke-dasharray="3,2" points="50.00,130.50 49.00,130.50 48.50,130.00 49.00,129.50 50.00,129.50 50.50,130.00 50.00,130.50" />
<polyline fill="none" stroke="#090" stroke-width="1" stroke-dasharray="3,2" points="104.00,134.50 103.50,134.00 103.50,133.00 103.50,132.00 103.50,131.00 103.50,130.00 104.00,129.50 104.50,130.00 104.50,131.00 104.50,132.00 104.50,133.00 104.50,134.00 104.00,134.50" />
<polyline fill="none" stroke="#090" stroke-width="1" stroke-dasharray="3,2" points="126.00,130.50 125.00,130.50 124.50,130.00 125.00,129.50 126.00,129.50 126.50,130.00 126.00,130.50" />
<polyline fill="none" stroke="#090" stroke-width="1" stroke-dasharray="3,2" points="124.00,131.50 123.00,131.50 122.50,131.00 123.00,130.50 124.00,130.50 124.50,131.00 124.00,131.50" />
<polyline fill="none" stroke="#090" stroke-width="1" stroke-dasharray="3,2" points="224.00,135.50 223.50,135.00 223.50,134.00 223.50,133.00 223.50,132.00 224.00,131.50 224.50,132.00 224.50,133.00 224.50,134.00 224.50,135.00 224.00,135.50" />
<polyline fill="none" stroke="#090" stroke-width="1" stroke-dasharray="3,2" points="103.00,139.50 102.50,139.00 102.50,138.00 102.50,137.00 102.50,136.00 102.50,135.00 103.00,134.50 103.50,135.00 103.50,136.00 103.50,137.00 103.50,138.00 103.50,139.00 103.00,139.50" />
<polyline fill="none" stroke="#090" stroke-width="1" stroke-dasharray="3,2" points="223.00,139.50 222.50,139.00 222.50,138.00 222.50,137.00 222.50,136.00 223.00,135.50 223.50,136.00 223.50,137.00 223.50,138.00 223.50,139.00 223.00,139.50" />
<polyline fill="none" stroke="#090" stroke-width="1" stroke-dasharray="3,2" points="102.00,143.50 101.50,143.00 101.50,142.00 101.50,141.00 101.50,140.00 102.00,139.50 102.50,140.00 102.50,141.00 102.50,142.00 102.50,143.00 102.00,143.50" />
<polyline fill="none" stroke="#090" stroke-width="1" stroke-dasharray="3,2" points="222.00,144.50 221.50,144.00 221.50,143.00 221.50,142.00 221.50,141.00 221.50,140.00 222.00,139.50 222.50,140.00 222.50,141.00 222.50,142.00 222.50,143.00 222.50,144.00 222.00,144.50" />
<polyline fill="none" stroke="#090" stroke-width="1" stroke-dasharray="3,2" points="101.00,147.50 100.50,147.00 100.50,146.00 100.50,145.00 100.50,144.00 101.00,143.50 101.50,144.00 101.50,145.00 101.50,146.00 101.50,147.00 101.00,147.50" />
<polyline fill="none" stroke="#090" stroke-width="1" stroke-dasharray="3,2" points="221.00,148.50 220.50,148.00 220.50,147.00 220.50,146.00 220.50,145.00 221.00,144.50 221.50,145.00 221.50,146.00 221.50,147.00 221.50,148.00 221.00,148.50" />
<polyline fill="none" stroke="#090" stroke-width="1" stroke-dasharray="3,2" points="45.00,148.50 44.50,148.00 44.50,147.00 45.00,146.50 45.50,147.00 45.50,148.00 45.00,148.50" />
<polyline fill="none" stroke="#090" stroke-width="1" stroke-dasharray="3,2" points="198.00,147.50 197.00,147.50 196.50,147.00 197.00,146.50 198.00,146.50 198.50,147.00 198.00,147.50" />
<polyline fill="none" stroke="#090" stroke-width="1" stroke-dasharray="3,2" points="100.00,149.50 99.50,149.00 99.50,148.00 100.00,147.50 100.50,148.00 100.50,149.00 100.00,149.50" />
<polyline fill="none" stroke="#090" stroke-width="1" stroke-dasharray="3,2" points="196.00,148.50 195.50,148.00 196.00,147.50 196.50,148.00 196.00,148.50" />
<polyline fill="none" stroke="#090" stroke-width="1" stroke-dasharray="3,2" points="46.00,149.50 45.50,149.00 46.00,148.50 46.50,149.00 46.00,149.50" />
<polyline fill="none" stroke="#090" stroke-width="1" stroke-dasharray="3,2" points="195.00,149.50 194.00,149.50 193.50,149.00 194.00,148.50 195.00,148.50 195.50,149.00 195.00,149.50" />
<polyline fill="none" stroke="#090" stroke-width="1" stroke-dasharray="3,2" points="220.00,153.50 219.50,153.00 219.50,152.00 219.50,151.00 219.50,150.00 219.50,149.00 220.00,148.50 220.50,149.00 220.50,150.00 220.50,151.00 220.50,152.00 220.50,153.00 220.00,153.50" />
<polyline fill="none" stroke="#090" stroke-width="1" stroke-dasharray="3,2" points="47.00,150.50 46.50,150.00 47.00,149.50 47.50,150.00 47.00,150.50" />
<polyline fill="none" stroke="#090" stroke-width="1" stroke-dasharray="3,2" points="99.00,151.50 98.50,151.00 98.50,150.00 99.00,149.50 99.50,150.00 99.50,151.00 99.00,151.50" />
<polyline fill="none" stroke="#090" stroke-width="1" stroke-dasharray="3,2" points="193.00,150.50 192.50,150.00 193.00,149.50 193.50,150.00 193.00,150.50" />
<polyline fill="none" stroke="#090" stroke-width="1" stroke-dasharray="3,2" points="48.00,151.50 47.50,151.00 48.00,150.50 48.50,151.00 48.00,151.50" />
<polyline fill="none" stroke="#090" stroke-width="1" stroke-dasharray="3,2" points="192.00,151.50 191.50,151.00 192.00,150.50 192.50,151.00 192.00,151.50" />
<polyline fill="none" stroke="#090" stroke-width="1" stroke-dasharray="3,2" points="49.00,152.50 48.50,152.00 49.00,151.50 49.50,152.00 49.00,152.50" />
<polyline fill="none" stroke="#090" stroke-width="1" stroke-dasharray="3,2" points="98.00,152.50 97.00,152.50 96.50,152.00 97.00,151.50 98.00,151.50 98.50,152.00 98.00,152.50" />
<polyline fill="none" stroke="#090" stroke-width="1" stroke-dasharray="3,2" points="191.00,152.50 190.00,152.50 189.50,152.00 190.00,151.50 191.00,151.50 191.50,152.00 191.00,152.50" />
<polyline fill="none" stroke="#090" stroke-width="1" stroke-dasharray="3,2" points="92.00,154.50 91.00,154.50 90.00,154.50 89.00,154.50 88.00,154.50 87.00,154.50 86.00,154.50 85.00,154.50 84.00,154.50 83.00,154.50 82.00,154.50 81.00,154.50 80.00,154.50 79.00,154.50 78.00,154.50 77.00,154.50 76.00,154.50 75.00,154.50 74.00,154.50 73.00,154.50 72.00,154.50 71.00,154.50 70.00,154.50 69.00,154.50 68.00,154.50 67.00,154.50 66.00,154.50 65.00,154.50 64.00,154.50 63.00,154.50 62.00,154.50 61.00,154.50 60.00,154.50 59.00,154.50 58.00,154.50 57.00,154.50 56.00,154.50 55.00,154.50 54.00,154.50 53.00,154.50 52.00,154.50 51.00,154.50 50.00,154.50 49.50,154.00 49.50,153.00 50.00,152.50 50.50,153.00 51.00,153.50 52.00,153.50 53.00,153.50 54.00,153.50 55.00,153.50 56.00,153.50 57.00,153.50 58.00,153.50 59.00,153.50 60.00,153.50 61.00,153.50 62.00,153.50 63.00,153.50 64.00,153.50 65.00,153.50 66.00,153.50 67.00,153.50 68.00,153.50 69.00,153.50 70.00,153.50 71.00,153.50 72.00,153.50 73.00,153.50 74.00,153.50 75.00,153.50 76.00,153.50 77.00,153.50 78.00,153.50 79.00,153.50 80.00,153.50 81.00,153.50 82.00,153.50 83.00,153.50 84.00,153.50 85.00,153.50 86.00,153.50 87.00,153.50 88.00,153.50 89.00,153.50 90.00,153.50 91.00,153.50 92.00,153.50 92.50,154.00 92.00,154.50" />
<polyline fill="none" stroke="#090" stroke-width="1" stroke-dasharray="3,2" points="96.00,153.50 95.00,153.50 94.00,153.50 93.00,153.50 92.50,153.00 93.00,152.50 94.00,152.50 95.00,152.50 96.00,152.50 96.50,153.00 96.00,153.50" />
<polyline fill="none" stroke="#090" stroke-width="1" stroke-dasharray="3,2" points="188.00,161.50 187.50,161.00 187.50,160.00 187.50,159.00 187.50,158.00 187.50,157.00 187.50,156.00 187.50,155.00 187.50,154.00 187.00,153.50 186.00,153.50 185.00,153.50 184.00,153.50 183.00,153.50 182.00,153.50 181.00,153.50 180.00,153.50 179.00,153.50 178.00,153.50 177.00,153.50 176.00,153.50 175.00,153.50 174.00,153.50 173.00,153.50 172.00,153.50 171.00,153.50 170.00,153.50 169.00,153.50 168.00,153.50 167.00,153.50 166.00,153.50 165.00,153.50 164.00,153.50 163.00,153.50 162.00,153.50 161.00,153.50 160.00,153.50 159.00,153.50 158.00,153.50 157.00,153.50 156.00,153.50 155.00,153.50 154.00,153.50 153.00,153.50 152.00,153.50 151.00,153.50 150.00,153.50 149.00,153.50 148.00,153.50 147.00,153.50 146.00,153.50 145.00,153.50 144.00,153.50 143.00,153.50 142.00,153.50 141.00,153.50 140.00,153.50 139.00,153.50 138.00,153.50 137.00,153.50 136.00,153.50 135.00,153.50 134.00,153.50 133.00,153.50 132.00,153.50 131.00,153.50 130.00,153.50 129.00,153.50 128.00,153.50 127.50,153.00 128.00,152.50 129.00,152.50 130.00,152.50 131.00,152.50 132.00,152.50 133.00,152.50 134.00,152.50 135.00,152.50 136.00,152.50 137.00,152.50 138.00,152.50 139.00,152.50 140.00,152.50 141.00,152.50 142.00,152.50 143.00,152.50 144.00,152.50 145.00,152.50 146.00,152.50 147.00,152.50 148.00,152.50 149.00,152.50 150.00,152.50 151.00,152.50 152.00,152.50 153.00,152.50 154.00,152.50 155.00,152.50 156.00,152.50 157.00,152.50 158.00,152.50 159.00,152.50 160.00,152.50 161.00,152.50 162.00,152.50 163.00,152.50 164.00,152.50 165.00,152.50 166.00,152.50 167.00,152.50 168.00,152.50 169.00,152.50 170.00,152.50 171.00,152.50 172.00,152.50 173.00,152.50 174.00,152.50 175.00,152.50 176.00,152.50 177.00,152.50 178.00,152.50 179.00,152.50 180.00,152.50 181.00,152.50 182.00,152.50 183.00,152.50 184.00,152.50 185.00,152.50 186.00,152.50 187.00,152.50 188.00,152.50 189.00,152.50 189.50,153.00 189.00,153.50 188.50,154.00 188.50,155.00 188.50,156.00 188.50,157.00 188.50,158.00 188.50,159.00 188.50,160.00 188.50,161.00 188.00,161.50" />
<polyline fill="none" stroke="#090" stroke-width="1" stroke-dasharray="3,2" points="127.00,154.50 126.00,154.50 125.50,154.00 126.00,153.50 127.00,153.50 127.50,154.00 127.00,154.50" />
<polyline fill="none" stroke="#090" stroke-width="1" stroke-dasharray="3,2" points="219.00,157.50 218.50,157.00 218.50,156.00 218.50,155.00 218.50,154.00 219.00,153.50 219.50,154.00 219.50,155.00 219.50,156.00 219.50,157.00 219.00,157.50" />
<polyline fill="none" stroke="#090" stroke-width="1" stroke-dasharray="3,2" points="49.00,155.50 48.50,155.00 49.00,154.50 49.50,155.00 49.00,155.50" />
<polyline fill="none" stroke="#090" stroke-width="1" stroke-dasharray="3,2" points="125.00,155.50 124.50,155.00 125.00,154.50 125.50,155.00 125.00,155.50" />
<polyline fill="none" stroke="#090" stroke-width="1" stroke-dasharray="3,2" points="48.00,156.50 47.00,156.50 46.50,156.00 47.00,155.50 48.00,155.50 48.50,156.00 48.00,156.50" />
<polyline fill="none" stroke="#090" stroke-width="1" stroke-dasharray="3,2" points="124.00,156.50 123.00,156.50 122.50,156.00 123.00,155.50 124.00,155.50 124.50,156.00 124.00,156.50" />
<polyline fill="none" stroke="#090" stroke-width="1" stroke-dasharray="3,2" points="46.00,157.50 45.50,157.00 46.00,156.50 46.50,157.00 46.00,157.50" />
<polyline fill="none" stroke="#090" stroke-width="1" stroke-dasharray="3,2" points="122.00,157.50 121.50,157.00 122.00,156.50 122.50,157.00 122.00,157.50" />
<polyline fill="none" stroke="#090" stroke-width="1" stroke-dasharray="3,2" points="45.00,158.50 44.00,158.50 43.50,158.00 44.00,157.50 45.00,157.50 45.50,158.00 45.00,158.50" />
<polyline fill="none" stroke="#090" stroke-width="1" stroke-dasharray="3,2" points="121.00,158.50 120.00,158.50 119.50,158.00 120.00,157.50 121.00,157.50 121.50,158.00 121.00,158.50" />
<polyline fill="none" stroke="#090" stroke-width="1" stroke-dasharray="3,2" points="218.00,162.50 217.50,162.00 217.50,161.00 217.50,160.00 217.50,159.00 217.50,158.00 218.00,157.50 218.50,158.00 218.50,159.00 218.50,160.00 218.50,161.00 218.50,162.00 218.00,162.50" />
<polyline fill="none" stroke="#090" stroke-width="1" stroke-dasharray="3,2" points="43.00,159.50 42.50,159.00 43.00,158.50 43.50,159.00 43.00,159.50" />
<polyline fill="none" stroke="#090" stroke-width="1" stroke-dasharray="3,2" points="119.00,159.50 118.50,159.00 119.00,158.50 119.50,159.00 119.00,159.50" />
<polyline fill="none" stroke="#090" stroke-width="1" stroke-dasharray="3,2" points="42.00,160.50 41.50,160.00 42.00,159.50 42.50,160.00 42.00,160.50" />
<polyline fill="none" stroke="#090" stroke-width="1" stroke-dasharray="3,2" points="118.00,160.50 117.50,160.00 118.00,159.50 118.50,160.00 118.00,160.50" />
<polyline fill="none" stroke="#090" stroke-width="1" stroke-dasharray="3,2" points="187.00,170.50 186.50,170.00 186.50,169.00 186.50,168.00 186.50,167.00 186.50,166.00 186.50,165.00 186.50,164.00 186.50,163.00 186.50,162.00 187.00,161.50 187.50,162.00 187.50,163.00 187.50,164.00 187.50,165.00 187.50,166.00 187.50,167.00 187.50,168.00 187.50,169.00 187.50,170.00 187.00,170.50" />
<polyline fill="none" stroke="#090" stroke-width="1" stroke-dasharray="3,2" points="217.00,166.50 216.50,166.00 216.50,165.00 216.50,164.00 216.50,163.00 217.00,162.50 217.50,163.00 217.50,164.00 217.50,165.00 217.50,166.00 217.00,166.50" />
<polyline fill="none" stroke="#090" stroke-width="1" stroke-dasharray="3,2" points="216.00,170.50 215.50,170.00 215.50,169.00 215.50,168.00 215.50,167.00 216.00,166.50 216.50,167.00 216.50,168.00 216.50,169.00 216.50,170.00 216.00,170.50" />
<polyline fill="none" stroke="#090" stroke-width="1" stroke-dasharray="3,2" points="186.00,174.50 185.50,174.00 185.50,173.00 185.50,172.00 185.50,171.00 186.00,170.50 186.50,171.00 186.50,172.00 186.50,173.00 186.50,174.00 186.00,174.50" />
<polyline fill="none" stroke="#090" stroke-width="1" stroke-dasharray="3,2" points="215.00,175.50 214.50,175.00 214.50,174.00 214.50,173.00 214.50,172.00 214.50,171.00 215.00,170.50 215.50,171.00 215.50,172.00 215.50,173.00 215.50,174.00 215.50,175.00 215.00,175.50" />
<polyline fill="none" stroke="#090" stroke-width="1" stroke-dasharray="3,2" points="185.00,179.50 184.50,179.00 184.50,178.00 184.50,177.00 184.50,176.00 184.50,175.00 185.00,174.50 185.50,175.00 185.50,176.00 185.50,177.00 185.50,178.00 185.50,179.00 185.00,179.50" />
<polyline fill="none" stroke="#090" stroke-width="1" stroke-dasharray="3,2" points="214.00,179.50 213.50,179.00 213.50,178.00 213.50,177.00 213.50,176.00 214.00,175.50 214.50,176.00 214.50,177.00 214.50,178.00 214.50,179.00 214.00,179.50" />
<polyline fill="none" stroke="#090" stroke-width="1" stroke-dasharray="3,2" points="184.00,183.50 183.50,183.00 183.50,182.00 183.50,181.00 183.50,180.00 184.00,179.50 184.50,180.00 184.50,181.00 184.50,182.00 184.50,183.00 184.00,183.50" />
<polyline fill="none" stroke="#090" stroke-width="1" stroke-dasharray="3,2" points="213.00,184.50 212.50,184.00 212.50,183.00 212.50,182.00 212.50,181.00 212.50,180.00 213.00,179.50 213.50,180.00 213.50,181.00 213.50,182.00 213.50,183.00 213.50,184.00 213.00,184.50" />
<polyline fill="none" stroke="#090" stroke-width="1" stroke-dasharray="3,2" points="183.00,188.50 182.50,188.00 182.50,187.00 182.50,186.00 182.50,185.00 182.50,184.00 183.00,183.50 183.50,184.00 183.50,185.00 183.50,186.00 183.50,187.00 183.50,188.00 183.00,188.50" />
<polyline fill="none" stroke="#090" stroke-width="1" stroke-dasharray="3,2" points="212.00,188.50 211.50,188.00 211.50,187.00 211.50,186.00 211.50,185.00 212.00,184.50 212.50,185.00 212.50,186.00 212.50,187.00 212.50,188.00 212.00,188.50" />
<polyline fill="none" stroke="#090" stroke-width="1" stroke-dasharray="3,2" points="182.00,191.50 181.50,191.00 181.50,190.00 181.50,189.00 182.00,188.50 182.50,189.00 182.50,190.00 182.50,191.00 182.00,191.50" />
<polyline fill="none" stroke="#090" stroke-width="1" stroke-dasharray="3,2" points="211.00,193.50 210.50,193.00 210.50,192.00 210.50,191.00 210.50,190.00 210.50,189.00 211.00,188.50 211.50,189.00 211.50,190.00 211.50,191.00 211.50,192.00 211.50,193.00 211.00,193.50" />
<polyline fill="none" stroke="#090" stroke-width="1" stroke-dasharray="3,2" points="181.00,192.50 180.50,192.00 181.00,191.50 181.50,192.00 181.00,192.50" />
<polyline fill="none" stroke="#090" stroke-width="1" stroke-dasharray="3,2" points="180.00,193.50 179.00,193.50 178.00,193.50 177.50,193.00 178.00,192.50 179.00,192.50 180.00,192.50 180.50,193.00 180.00,193.50" />
<polyline fill="none" stroke="#090" stroke-width="1" stroke-dasharray="3,2" points="177.00,194.50 176.00,194.50 175.00,194.50 174.00,194.50 173.00,194.50 172.00,194.50 171.00,194.50 170.00,194.50 169.00,194.50 168.00,194.50 167.00,194.50 166.00,194.50 165.00,194.50 164.00,194.50 163.00,194.50 162.00,194.50 161.00,194.50 160.00,194.50 159.00,194.50 158.00,194.50 157.00,194.50 156.00,194.50 155.00,194.50 154.00,194.50 153.00,194.50 152.00,194.50 151.00,194.50 150.00,194.50 149.00,194.50 148.00,194.50 147.00,194.50 146.00,194.50 145.00,194.50 144.00,194.50 143.00,194.50 142.00,194.50 141.00,194.50 140.00,194.50 139.00,194.50 138.00,194.50 137.00,194.50 136.00,194.50 135.00,194.50 134.00,194.50 133.00,194.50 132.00,194.50 131.00,194.50 130.00,194.50 129.00,194.50 128.00,194.50 127.00,194.50 126.00,194.50 125.00,194.50 124.00,194.50 123.00,194.50 122.00,194.50 121.00,194.50 120.00,194.50 119.00,194.50 118.00,194.50 117.00,194.50 116.00,194.50 115.00,194.50 114.00,194.50 113.00,194.50 112.00,194.50 111.00,194.50 110.00,194.50 109.00,194.50 108.00,194.50 107.00,194.50 106.00,194.50 105.00,194.50 104.00,194.50 103.00,194.50 102.00,194.50 101.00,194.50 100.00,194.50 99.00,194.50 98.00,194.50 97.00,194.50 96.00,194.50 95.00,194.50 94.00,194.50 93.00,194.50 92.00,194.50 91.00,194.50 90.00,194.50 89.00,194.50 88.00,194.50 87.00,194.50 86.00,194.50 85.00,194.50 84.00,194.50 83.00,194.50 82.00,194.50 81.00,194.50 80.00,194.50 79.00,194.50 78.00,194.50 77.00,194.50 76.00,194.50 75.00,194.50 74.00,194.50 73.00,194.50 72.00,194.50 71.00,194.50 70.00,194.50 69.00,194.50 68.00,194.50 67.00,194.50 66.00,194.50 65.00,194.50 64.00,194.50 63.00,194.50 62.00,194.50 61.50,194.00 62.00,193.50 63.00,193.50 64.00,193.50 65.00,193.50 66.00,193.50 67.00,193.50 68.00,193.50 69.00,193.50 70.00,193.50 71.00,193.50 72.00,193.50 73.00,193.50 74.00,193.50 75.00,193.50 76.00,193.50 77.00,193.50 78.00,193.50 79.00,193.50 80.00,193.50 81.00,193.50 82.00,193.50 83.00,193.50 84.00,193.50 85.00,193.50 86.00,193.50 87.00,193.50 88.00,193.50 89.00,193.50 90.00,193.50 91.00,193.50 92.00,193.50 93.00,193.50 94.00,193.50 95.00,193.50 96.00,193.50 97.00,193.50 98.00,193.50 99.00,193.50 100.00,193.50 101.00,193.50 102.00,193.50 103.00,193.50 104.00,193.50 105.00,193.50 106.00,193.50 107.00,193.50 108.00,193.50 109.00,193.50 110.00,193.50 111.00,193.50 112.00,193.50 113.00,193.50 114.00,193.50 115.00,193.50 116.00,193.50 117.00,193.50 118.00,193.50 119.00,193.50 120.00,193.50 121.00,193.50 122.00,193.50 123.00,193.50 124.00,193.50 125.00,193.50 126.00,193.50 127.00,193.50 128.00,193.50 129.00,193.50 130.00,193.50 131.00,193.50 132.00,193.50 133.00,193.50 134.00,193.50 135.00,193.50 136.00,193.50 137.00,193.50 138.00,193.50 139.00,193.50 140.00,193.50 141.00,193.50 142.00,193.50 143.00,193.50 144.00,193.50 145.00,193.50 146.00,193.50 147.00,193.50 148.00,193.50 149.00,193.50 150.00,193.50 151.00,193.50 152.00,193.50 153.00,193.50 154.00,193.50 155.00,193.50 156.00,193.50 157.00,193.50 158.00,193.50 159.00,193.50 160.00,193.50 161.00,193.50 162.00,193.50 163.00,193.50 164.00,193.50 165.00,193.50 166.00,193.50 167.00,193.50 168.00,193.50 169.00,193.50 170.00,193.50 171.00,193.50 172.00,193.50 173.00,193.50 174.00,193.50 175.00,193.50 176.00,193.50 177.00,193.50 177.50,194.00 177.00,194.50" />
<polyline fill="none" stroke="#090" stroke-width="1" stroke-dasharray="3,2" points="210.00,197.50 209.50,197.00 209.50,196.00 209.50,195.00 209.50,194.00 210.00,193.50 210.50,194.00 210.50,195.00 210.50,196.00 210.50,197.00 210.00,197.50" />
<polyline fill="none" stroke="#090" stroke-width="1" stroke-dasharray="3,2" points="61.00,195.50 60.00,195.50 59.50,195.00 60.00,194.50 61.00,194.50 61.50,195.00 61.00,195.50" />
<polyline fill="none" stroke="#090" stroke-width="1" stroke-dasharray="3,2" points="59.00,196.50 58.50,196.00 59.00,195.50 59.50,196.00 59.00,196.50" />
<polyline fill="none" stroke="#090" stroke-width="1" stroke-dasharray="3,2" points="58.00,197.50 57.00,197.50 56.50,197.00 57.00,196.50 58.00,196.50 58.50,197.00 58.00,197.50" />
<polyline fill="none" stroke="#090" stroke-width="1" stroke-dasharray="3,2" points="56.00,198.50 55.50,198.00 56.00,197.50 56.50,198.00 56.00,198.50" />
<polyline fill="none" stroke="#090" stroke-width="1" stroke-dasharray="3,2" points="209.00,201.50 208.50,201.00 208.50,200.00 208.50,199.00 208.50,198.00 209.00,197.50 209.50,198.00 209.50,199.00 209.50,200.00 209.50,201.00 209.00,201.50" />
<polyline fill="none" stroke="#090" stroke-width="1" stroke-dasharray="3,2" points="55.00,199.50 54.00,199.50 53.50,199.00 54.00,198.50 55.00,198.50 55.50,199.00 55.00,199.50" />
<polyline fill="none" stroke="#090" stroke-width="1" stroke-dasharray="3,2" points="53.00,200.50 52.50,200.00 53.00,199.50 53.50,200.00 53.00,200.50" />
<polyline fill="none" stroke="#090" stroke-width="1" stroke-dasharray="3,2" points="52.00,201.50 51.50,201.00 52.00,200.50 52.50,201.00 52.00,201.50" />
<polyline fill="none" stroke="#090" stroke-width="1" stroke-dasharray="3,2" points="208.00,204.50 207.50,204.00 207.50,203.00 207.50,202.00 208.00,201.50 208.50,202.00 208.50,203.00 208.50,204.00 208.00,204.50" />
<polyline fill="none" stroke="#090" stroke-width="1" stroke-dasharray="3,2" points="207.00,206.50 206.50,206.00 206.50,205.00 207.00,204.50 207.50,205.00 207.50,206.00 207.00,206.50" />
<polyline fill="none" stroke="#090" stroke-width="1" stroke-dasharray="3,2" points="206.00,208.50 205.50,208.00 205.50,207.00 206.00,206.50 206.50,207.00 206.50,208.00 206.00,208.50" />
<polyline fill="none" stroke="#090" stroke-width="1" stroke-dasharray="3,2" points="205.00,210.50 204.50,210.00 204.50,209.00 205.00,208.50 205.50,209.00 205.50,210.00 205.00,210.50" />
<polyline fill="none" stroke="#090" stroke-width="1" stroke-dasharray="3,2" points="204.00,212.50 203.50,212.00 203.50,211.00 204.00,210.50 204.50,211.00 204.50,212.00 204.00,212.50" />
<polyline fill="none" stroke="#090" stroke-width="1" stroke-dasharray="3,2" points="203.00,213.50 202.50,213.00 203.00,212.50 203.50,213.00 203.00,213.50" />
<polyline fill="none" stroke="#090" stroke-width="1" stroke-dasharray="3,2" points="202.00,214.50 201.50,214.00 202.00,213.50 202.50,214.00 202.00,214.50" />
<polyline fill="none" stroke="#090" stroke-width="1" stroke-dasharray="3,2" points="201.00,215.50 200.50,215.00 201.00,214.50 201.50,215.00 201.00,215.50" />
<polyline fill="none" stroke="#090" stroke-width="1" stroke-dasharray="3,2" points="200.00,216.50 199.50,216.00 200.00,215.50 200.50,216.00 200.00,216.50" />
<polyline fill="none" stroke="#090" stroke-width="1" stroke-dasharray="3,2" points="199.00,217.50 198.50,217.00 199.00,216.50 199.50,217.00 199.00,217.50" />
<polyline fill="none" stroke="#090" stroke-width="1" stroke-dasharray="3,2" points="198.00,218.50 197.00,218.50 196.50,218.00 197.00,217.50 198.00,217.50 198.50,218.00 198.00,218.50" />
<polyline fill="none" stroke="#090" stroke-width="1" stroke-dasharray="3,2" points="196.00,219.50 195.50,219.00 196.00,218.50 196.50,219.00 196.00,219.50" />
<polyline fill="none" stroke="#090" stroke-width="1" stroke-dasharray="3,2" points="195.00,220.50 194.00,220.50 193.50,220.00 194.00,219.50 195.00,219.50 195.50,220.00 195.00,220.50" />
<polyline fill="none" stroke="#090" stroke-width="1" stroke-dasharray="3,2" points="193.00,221.50 192.00,221.50 191.00,221.50 190.50,221.00 191.00,220.50 192.00,220.50 193.00,220.50 193.50,221.00 193.00,221.50" />
<polyline fill="none" stroke="#090" stroke-width="1" stroke-dasharray="3,2" points="190.00,222.50 189.00,222.50 188.00,222.50 187.00,222.50 186.00,222.50 185.00,222.50 184.50,222.00 185.00,221.50 186.00,221.50 187.00,221.50 188.00,221.50 189.00,221.50 190.00,221.50 190.50,222.00 190.00,222.50" />
<polyline fill="none" stroke="#090" stroke-width="1" stroke-dasharray="3,2" points="184.00,223.50 183.00,223.50 182.00,223.50 181.00,223.50 180.00,223.50 179.00,223.50 178.00,223.50 177.00,223.50 176.00,223.50 175.00,223.50 174.00,223.50 173.00,223.50 172.00,223.50 171.00,223.50 170.00,223.50 169.00,223.50 168.00,223.50 167.00,223.50 166.00,223.50 165.00,223.50 164.00,223.50 163.00,223.50 162.00,223.50 161.00,223.50 160.00,223.50 159.00,223.50 158.00,223.50 157.00,223.50 156.00,223.50 155.00,223.50 154.00,223.50 153.00,223.50 152.00,223.50 151.00,223.50 150.00,223.50 149.00,223.50 148.00,223.50 147.00,223.50 146.00,223.50 145.00,223.50 144.00,223.50 143.00,223.50 142.00,223.50 141.00,223.50 140.00,223.50 139.00,223.50 138.00,223.50 137.00,223.50 136.00,223.50 135.00,223.50 134.00,223.50 133.00,223.50 132.00,223.50 131.00,223.50 130.00,223.50 129.00,223.50 128.00,223.50 127.00,223.50 126.00,223.50 125.00,223.50 124.00,223.50 123.00,223.50 122.00,223.50 121.00,223.50 120.00,223.50 119.00,223.50 118.00,223.50 117.00,223.50 116.00,223.50 115.00,223.50 114.00,223.50 113.00,223.50 112.00,223.50 111.00,223.50 110.00,223.50 109.00,223.50 108.00,223.50 107.00,223.50 106.00,223.50 105.00,223.50 104.00,223.50 103.00,223.50 102.00,223.50 101.00,223.50 100.00,223.50 99.00,223.50 98.00,223.50 97.00,223.50 96.00,223.50 95.00,223.50 94.00,223.50 93.00,223.50 92.00,223.50 91.00,223.50 90.00,223.50 89.00,223.50 88.00,223.50 87.00,223.50 86.00,223.50 85.00,223.50 84.00,223.50 83.00,223.50 82.00,223.50 81.00,223.50 80.00,223.50 79.00,223.50 78.00,223.50 77.00,223.50 76.00,223.50 75.00,223.50 74.00,223.50 73.00,223.50 72.00,223.50 71.00,223.50 70.00,223.50 69.00,223.50 68.00,223.50 67.00,223.50 66.00,223.50 65.00,223.50 64.00,223.50 63.00,223.50 62.00,223.50 61.00,223.50 60.00,223.50 59.00,223.50 58.00,223.50 57.00,223.50 56.00,223.50 55.50,223.00 56.00,222.50 57.00,222.50 58.00,222.50 59.00,222.50 60.00,222.50 61.00,222.50 62.00,222.50 63.00,222.50 64.00,222.50 65.00,222.50 66.00,222.50 67.00,222.50 68.00,222.50 69.00,222.50 70.00,222.50 71.00,222.50 72.00,222.50 73.00,222.50 74.00,222.50 75.00,222.50 76.00,222.50 77.00,222.50 78.00,222.50 79.00,222.50 80.00,222.50 81.00,222.50 82.00,222.50 83.00,222.50 84.00,222.50 85.00,222.50 86.00,222.50 87.00,222.50 88.00,222.50 89.00,222.50 90.00,222.50 91.00,222.50 92.00,222.50 93.00,222.50 94.00,222.50 95.00,222.50 96.00,222.50 97.00,222.50 98.00,222.50 99.00,222.50 100.00,222.50 101.00,222.50 102.00,222.50 103.00,222.50 104.00,222.50 105.00,222.50 106.00,222.50 107.00,222.50 108.00,222.50 109.00,222.50 110.00,222.50 111.00,222.50 112.00,222.50 113.00,222.50 114.00,222.50 115.00,222.50 116.00,222.50 117.00,222.50 118.00,222.50 119.00,222.50 120.00,222.50 121.00,222.50 122.00,222.50 123.00,222.50 124.00,222.50 125.00,222.50 126.00,222.50 127.00,222.50 128.00,222.50 129.00,222.50 130.00,222.50 131.00,222.50 132.00,222.50 133.00,222.50 134.00,222.50 135.00,222.50 136.00,222.50 137.00,222.50 138.00,222.50 139.00,222.50 140.00,222.50 141.00,222.50 142.00,222.50 143.00,222.50 144.00,222.50 145.00,222.50 146.00,222.50 147.00,222.50 148.00,222.50 149.00,222.50 150.00,222.50 151.00,222.50 152.00,222.50 153.00,222.50 154.00,222.50 155.00,222.50 156.00,222.50 157.00,222.50 158.00,222.50 159.00,222.50 160.00,222.50 161.00,222.50 162.00,222.50 163.00,222.50 164.00,222.50 165.00,222.50 166.00,222.50 167.00,222.50 168.00,222.50 169.00,222.50 170.00,222.50 171.00,222.50 172.00,222.50 173.00,222.50 174.00,222.50 175.00,222.50 176.00,222.50 177.00,222.50 178.00,222.50 179.00,222.50 180.00,222.50 181.00,222.50 182.00,222.50 183.00,222.50 184.00,222.50 184.50,223.00 184.00,223.50" />
<polyline fill="none" stroke="#090" stroke-width="1" stroke-dasharray="3,2" points="55.00,224.50 54.00,224.50 53.50,224.00 54.00,223.50 55.00,223.50 55.50,224.00 55.00,224.50" />
<polyline fill="none" stroke="#090" stroke-width="1" stroke-dasharray="3,2" points="53.00,225.50 52.00,225.50 51.50,225.00 52.00,224.50 53.00,224.50 53.50,225.00 53.00,225.50" />
<polyline fill="none" stroke="#090" stroke-width="1" stroke-dasharray="3,2" points="51.00,226.50 50.50,226.00 51.00,225.50 51.50,226.00 51.00,226.50" />
<polyline fill="none" stroke="#090" stroke-width="1" stroke-dasharray="3,2" points="50.00,227.50 49.00,227.50 48.50,227.00 49.00,226.50 50.00,226.50 50.50,227.00 50.00,227.50" />
<polyline fill="none" stroke="#090" stroke-width="1" stroke-dasharray="3,2" points="48.00,228.50 47.50,228.00 48.00,227.50 48.50,228.00 48.00,228.50" />
<polyline fill="none" stroke="#090" stroke-width="1" stroke-dasharray="3,2" points="47.00,229.50 46.00,229.50 45.50,229.00 46.00,228.50 47.00,228.50 47.50,229.00 47.00,229.50" />
<circle cx="50.00" cy="153.00" r="6.00" fill="none" stroke="#f0f" stroke-width="1"/>
<circle cx="187.00" cy="153.00" r="7.00" fill="none" stroke="#f0f" stroke-width="1"/>
<circle cx="188.00" cy="153.00" r="7.00" fill="none" stroke="#f0f" stroke-width="1"/>
<circle cx="189.00" cy="153.00" r="7.00" fill="none" stroke="#f0f" stroke-width="1"/>
<circle cx="50.00" cy="154.00" r="7.00" fill="none" stroke="#f0f" stroke-width="1"/>
<circle cx="51.00" cy="154.00" r="7.00" fill="none" stroke="#f0f" stroke-width="1"/>
<circle cx="188.00" cy="154.00" r="8.00" fill="none" stroke="#f0f" stroke-width="1"/>
<polyline fill="none" stroke="#36f" stroke-width="1" points="187.00,231.50 186.00,231.50 185.00,231.50 184.00,231.50 183.00,231.50 182.00,231.50 181.00,231.50 180.00,231.50 179.00,231.50 178.00,231.50 177.00,231.50 176.00,231.50 175.00,231.50 174.00,231.50 173.00,231.50 172.00,231.50 171.00,231.50 170.00,231.50 169.00,231.50 168.00,231.50 167.00,231.50 166.00,231.50 165.00,231.50 164.00,231.50 163.00,231.50 162.00,231.50 161.00,231.50 160.00,231.50 159.00,231.50 158.00,231.50 157.00,231.50 156.00,231.50 155.00,231.50 154.00,231.50 153.00,231.50 152.00,231.50 151.00,231.50 150.00,231.50 149.00,231.50 148.00,231.50 147.00,231.50 146.00,231.50 145.00,231.50 144.00,231.50 143.00,231.50 142.00,231.50 141.00,231.50 140.00,231.50 139.00,231.50 138.00,231.50 137.00,231.50 136.00,231.50 135.00,231.50 134.00,231.50 133.00,231.50 132.00,231.50 131.00,231.50 130.00,231.50 129.00,231.50 128.00,231.50 127.00,231.50 126.00,231.50 125.00,231.50 124.00,231.50 123.00,231.50 122.00,231.50 121.00,231.50 120.00,231.50 119.00,231.50 118.00,231.50 117.00,231.50 116.00,231.50 115.00,231.50 114.00,231.50 113.00,231.50 112.00,231.50 111.00,231.50 110.00,231.50 109.00,231.50 108.00,231.50 107.00,231.50 106.00,231.50 105.00,231.50 104.00,231.50 103.00,231.50 102.00,231.50 101.00,231.50 100.00,231.50 99.00,231.50 98.00,231.50 97.00,231.50 96.00,231.50 95.00,231.50 94.00,231.50 93.00,231.50 92.00,231.50 91.00,231.50 90.00,231.50 89.00,231.50 88.00,231.50 87.00,231.50 86.00,231.50 85.00,231.50 84.00,231.50 83.00,231.50 82.00,231.50 81.00,231.50 80.00,231.50 79.00,231.50 78.00,231.50 77.00,231.50 76.00,231.50 75.00,231.50 74.00,231.50 73.00,231.50 72.00,231.50 71.00,231.50 70.00,231.50 69.00,231.50 68.00,231.50 67.00,231.50 66.00,231.50 65.00,231.50 64.00,231.50 63.00,231.50 62.00,231.50 61.00,231.50 60.00,231.50 59.00,231.50 58.00,231.50 57.00,231.50 56.00,231.50 55.00,231.50 54.00,231.50 53.00,231.50 52.00,231.50 51.00,231.50 50.00,231.50 49.00,231.50 48.00,231.50 47.00,231.50 46.00,231.50 45.00,231.50 44.00,231.50 43.50,231.00 44.00,230.50 44.50,230.00 44.50,229.00 44.50,228.00 44.50,227.00 44.50,226.00 45.00,225.50 45.50,225.00 45.50,224.00 45.50,223.00 45.50,222.00 46.00,221.50 46.50,221.00 46.50,220.00 46.50,219.00 46.50,218.00 46.50,217.00 47.00,216.50 47.50,216.00 48.00,215.50 49.00,215.50 50.00,215.50 51.00,215.50 52.00,215.50 53.00,215.50 54.00,215.50 55.00,215.50 56.00,215.50 57.00,215.50 58.00,215.50 59.00,215.50 60.00,215.50 61.00,215.50 62.00,215.50 63.00,215.50 64.00,215.50 65.00,215.50 66.00,215.50 67.00,215.50 68.00,215.50 69.00,215.50 70.00,215.50 71.00,215.50 72.00,215.50 73.00,215.50 74.00,215.50 75.00,215.50 76.00,215.50 77.00,215.50 78.00,215.50 79.00,215.50 80.00,215.50 81.00,215.50 82.00,215.50 83.00,215.50 84.00,215.50 85.00,215.50 86.00,215.50 87.00,215.50 88.00,215.50 89.00,215.50 90.00,215.50 91.00,215.50 92.00,215.50 93.00,215.50 94.00,215.50 95.00,215.50 96.00,215.50 97.00,215.50 98.00,215.50 99.00,215.50 100.00,215.50 101.00,215.50 102.00,215.50 103.00,215.50 104.00,215.50 105.00,215.50 106.00,215.50 107.00,215.50 108.00,215.50 109.00,215.50 110.00,215.50 111.00,215.50 112.00,215.50 113.00,215.50 114.00,215.50 115.00,215.50 116.00,215.50 117.00,215.50 118.00,215.50 119.00,215.50 120.00,215.50 121.00,215.50 122.00,215.50 123.00,215.50 124.00,215.50 125.00,215.50 126.00,215.50 127.00,215.50 128.00,215.50 129.00,215.50 130.00,215.50 131.00,215.50 132.00,215.50 133.00,215.50 134.00,215.50 135.00,215.50 136.00,215.50 137.00,215.50 138.00,215.50 139.00,215.50 140.00,215.50 141.00,215.50 142.00,215.50 143.00,215.50 144.00,215.50 145.00,215.50 146.00,215.50 147.00,215.50 148.00,215.50 149.00,215.50 150.00,215.50 151.00,215.50 152.00,215.50 153.00,215.50 154.00,215.50 155.00,215.50 156.00,215.50 157.00,215.50 158.00,215.50 159.00,215.50 160.00,215.50 161.00,215.50 162.00,215.50 163.00,215.50 164.00,215.50 165.00,215.50 166.00,215.50 167.00,215.50 168.00,215.50 169.00,215.50 170.00,215.50 171.00,215.50 172.00,215.50 173.00,215.50 174.00,215.50 175.00,215.50 176.00,215.50 177.00,215.50 178.00,215.50 179.00,215.50 180.00,215.50 181.00,215.50 182.00,215.50 183.00,215.50 184.00,215.50 185.00,215.50 186.00,215.50 186.50,215.00 187.00,214.50 188.00,214.50 189.00,214.50 189.50,214.00 190.00,213.50 191.00,213.50 191.50,213.00 192.00,212.50 192.50,212.00 193.00,211.50 193.50,211.00 194.00,210.50 195.00,210.50 195.50,210.00 196.00,209.50 196.50,209.00 196.50,208.00 197.00,207.50 197.50,207.00 198.00,206.50 198.50,206.00 198.50,205.00 199.00,204.50 199.50,204.00 199.50,203.00 200.00,202.50 200.50,202.00 200.50,201.00 200.50,200.00 201.00,199.50 201.50,199.00 201.50,198.00 201.50,197.00 201.50,196.00 202.00,195.50 202.50,195.00 202.50,194.00 202.50,193.00 202.50,192.00 202.50,191.00 203.00,190.50 203.50,190.00 203.50,189.00 203.50,188.00 203.50,187.00 204.00,186.50 204.50,186.00 204.50,185.00 204.50,184.00 204.50,183.00 204.50,182.00 205.00,181.50 205.50,181.00 205.50,180.00 205.50,179.00 205.50,178.00 206.00,177.50 206.50,177.00 206.50,176.00 206.50,175.00 206.50,174.00 206.50,173.00 207.00,172.50 207.50,172.00 207.50,171.00 207.50,170.00 207.50,169.00 208.00,168.50 208.50,168.00 208.50,167.00 208.50,166.00 208.50,165.00 209.00,164.50 209.50,164.00 209.50,163.00 209.50,162.00 209.50,161.00 209.50,160.00 210.00,159.50 210.50,159.00 210.50,158.00 210.50,157.00 210.50,156.00 211.00,155.50 211.50,155.00 211.50,154.00 211.50,153.00 211.50,152.00 211.50,151.00 212.00,150.50 212.50,150.00 212.50,149.00 212.50,148.00 212.50,147.00 213.00,146.50 213.50,146.00 213.50,145.00 213.50,144.00 213.50,143.00 213.50,142.00 214.00,141.50 214.50,141.00 214.50,140.00 214.50,139.00 214.50,138.00 215.00,137.50 215.50,137.00 215.50,136.00 215.50,135.00 215.50,134.00 215.50,133.00 216.00,132.50 216.50,132.00 216.50,131.00 216.50,130.00 216.50,129.00 217.00,128.50 217.50,128.00 217.50,127.00 217.50,126.00 217.50,125.00 218.00,124.50 218.50,124.00 218.50,123.00 218.50,122.00 218.50,121.00 218.50,120.00 219.00,119.50 219.50,119.00 219.50,118.00 219.50,117.00 219.50,116.00 220.00,115.50 220.50,115.00 220.50,114.00 220.50,113.00 220.50,112.00 220.50,111.00 221.00,110.50 221.50,110.00 221.50,109.00 221.50,108.00 221.50,107.00 222.00,106.50 222.50,106.00 222.50,105.00 222.50,104.00 222.50,103.00 222.50,102.00 223.00,101.50 223.50,101.00 223.50,100.00 223.50,99.00 223.50,98.00 224.00,97.50 224.50,97.00 224.50,96.00 224.50,95.00 224.50,94.00 225.00,93.50 225.50,93.00 225.50,92.00 225.50,91.00 225.50,90.00 225.50,89.00 226.00,88.50 226.50,88.00 226.50,87.00 226.50,86.00 226.50,85.00 226.50,84.00 226.50,83.00 226.50,82.00 226.50,81.00 226.50,80.00 226.00,79.50 225.50,79.00 225.50,78.00 225.00,77.50 224.50,77.00 224.50,76.00 224.00,75.50 223.50,75.00 223.50,74.00 223.00,73.50 222.50,73.00 222.00,72.50 221.50,72.00 221.00,71.50 220.50,71.00 220.00,70.50 219.50,70.00 219.00,69.50 218.00,69.50 217.50,69.00 217.00,68.50 216.00,68.50 215.50,68.00 215.00,67.50 214.00,67.50 213.00,67.50 212.50,67.00 212.00,66.50 211.00,66.50 210.00,66.50 209.00,66.50 208.00,66.50 207.00,66.50 206.00,66.50 205.00,66.50 204.00,66.50 203.00,66.50 202.00,66.50 201.00,66.50 200.00,66.50 199.00,66.50 198.00,66.50 197.00,66.50 196.00,66.50 195.00,66.50 194.00,66.50 193.00,66.50 192.00,66.50 191.00,66.50 190.00,66.50 189.00,66.50 188.00,66.50 187.00,66.50 186.00,66.50 185.00,66.50 184.00,66.50 183.00,66.50 182.00,66.50 181.00,66.50 180.00,66.50 179.00,66.50 178.00,66.50 177.00,66.50 176.00,66.50 175.00,66.50 174.00,66.50 173.00,66.50 172.00,66.50 171.00,66.50 170.00,66.50 169.00,66.50 168.00,66.50 167.00,66.50 166.00,66.50 165.00,66.50 164.00,66.50 163.00,66.50 162.00,66.50 161.00,66.50 160.00,66.50 159.00,66.50 158.00,66.50 157.00,66.50 156.00,66.50 155.00,66.50 154.00,66.50 153.00,66.50 152.00,66.50 151.00,66.50 150.00,66.50 149.00,66.50 148.00,66.50 147.00,66.50 146.00,66.50 145.00,66.50 144.00,66.50 143.00,66.50 142.00,66.50 141.00,66.50 140.00,66.50 139.00,66.50 138.00,66.50 137.00,66.50 136.00,66.50 135.00,66.50 134.00,66.50 133.00,66.50 132.00,66.50 131.00,66.50 130.00,66.50 129.00,66.50 128.00,66.50 127.00,66.50 126.00,66.50 125.00,66.50 124.00,66.50 123.00,66.50 122.00,66.50 121.00,66.50 120.00,66.50 119.00,66.50 118.00,66.50 117.00,66.50 116.00,66.50 115.00,66.50 114.00,66.50 113.00,66.50 112.00,66.50 111.00,66.50 110.00,66.50 109.00,66.50 108.00,66.50 107.00,66.50 106.00,66.50 105.00,66.50 104.00,66.50 103.00,66.50 102.00,66.50 101.00,66.50 100.00,66.50 99.00,66.50 98.00,66.50 97.00,66.50 96.50,67.00 96.50,68.00 96.00,68.50 95.50,69.00 95.50,70.00 95.50,71.00 95.50,72.00 95.00,72.50 94.50,73.00 94.50,74.00 94.50,75.00 94.50,76.00 94.50,77.00 94.00,77.50 93.50,78.00 93.50,79.00 93.50,80.00 93.50,81.00 93.00,81.50 92.50,82.00 92.50,83.00 92.50,84.00 92.50,85.00 92.50,86.00 92.00,86.50 91.50,87.00 91.50,88.00 91.50,89.00 91.50,90.00 91.50,91.00 91.00,91.50 90.50,92.00 90.50,93.00 90.50,94.00 90.50,95.00 90.00,95.50 89.50,96.00 89.50,97.00 89.50,98.00 89.50,99.00 89.50,100.00 89.00,100.50 88.50,101.00 88.50,102.00 88.50,103.00 88.50,104.00 88.00,104.50 87.50,105.00 87.50,106.00 87.50,107.00 87.50,108.00 87.50,109.00 87.00,109.50 86.50,110.00 86.50,111.00 86.50,112.00 86.50,113.00 86.50,114.00 86.00,114.50 85.50,115.00 85.50,116.00 85.50,117.00 85.50,118.00 85.00,118.50 84.50,119.00 84.50,120.00 84.50,121.00 84.50,122.00 84.50,123.00 84.00,123.50 83.50,124.00 83.50,125.00 83.50,126.00 83.50,127.00 83.00,127.50 82.50,128.00 82.50,129.00 82.50,130.00 82.50,131.00 82.50,132.00 82.00,132.50 81.00,132.50 80.00,132.50 79.00,132.50 78.00,132.50 77.00,132.50 76.00,132.50 75.00,132.50 74.00,132.50 73.00,132.50 72.00,132.50 71.00,132.50 70.00,132.50 69.00,132.50 68.00,132.50 67.00,132.50 66.00,132.50 65.00,132.50 64.00,132.50 63.00,132.50 62.00,132.50 61.00,132.50 60.00,132.50 59.00,132.50 58.00,132.50 57.00,132.50 56.00,132.50 55.00,132.50 54.00,132.50 53.00,132.50 52.00,132.50 51.00,132.50 50.00,132.50 49.00,132.50 48.00,132.50 47.00,132.50 46.50,132.00 46.50,131.00 47.00,130.50 47.50,130.00 47.50,129.00 47.50,128.00 47.50,127.00 47.50,126.00 48.00,125.50 48.50,125.00 48.50,124.00 48.50,123.00 48.50,122.00 49.00,121.50 49.50,121.00 49.50,120.00 49.50,119.00 49.50,118.00 50.00,117.50 50.50,117.00 51.00,116.50 52.00,116.50 53.00,116.50 54.00,116.50 55.00,116.50 56.00,116.50 57.00,116.50 58.00,116.50 59.00,116.50 60.00,116.50 61.00,116.50 62.00,116.50 63.00,116.50 64.00,116.50 65.00,116.50 66.00,116.50 67.00,116.50 68.00,116.50 69.00,116.50 69.50,116.00 69.50,115.00 69.50,114.00 70.00,113.50 70.50,113.00 70.50,112.00 70.50,111.00 70.50,110.00 70.50,109.00 71.00,108.50 71.50,108.00 71.50,107.00 71.50,106.00 71.50,105.00 72.00,104.50 72.50,104.00 72.50,103.00 72.50,102.00 72.50,101.00 72.50,100.00 73.00,99.50 73.50,99.00 73.50,98.00 73.50,97.00 73.50,96.00 74.00,95.50 74.50,95.00 74.50,94.00 74.50,93.00 74.50,92.00 74.50,91.00 75.00,90.50 75.50,90.00 75.50,89.00 75.50,88.00 75.50,87.00 75.50,86.00 76.00,85.50 76.50,85.00 76.50,84.00 76.50,83.00 76.50,82.00 77.00,81.50 77.50,81.00 77.50,80.00 77.50,79.00 77.50,78.00 77.50,77.00 78.00,76.50 78.50,76.00 78.50,75.00 78.50,74.00 78.50,73.00 79.00,72.50 79.50,72.00 79.50,71.00 79.50,70.00 79.50,69.00 79.50,68.00 80.00,67.50 80.50,67.00 80.50,66.00 80.50,65.00 80.50,64.00 80.50,63.00 81.00,62.50 81.50,62.00 81.50,61.00 81.50,60.00 82.00,59.50 82.50,59.00 83.00,58.50 83.50,58.00 83.50,57.00 84.00,56.50 84.50,56.00 85.00,55.50 85.50,55.00 86.00,54.50 86.50,54.00 87.00,53.50 88.00,53.50 88.50,53.00 89.00,52.50 90.00,52.50 90.50,52.00 91.00,51.50 92.00,51.50 93.00,51.50 94.00,51.50 94.50,51.00 95.00,50.50 96.00,50.50 97.00,50.50 98.00,50.50 99.00,50.50 100.00,50.50 101.00,50.50 102.00,50.50 103.00,50.50 104.00,50.50 105.00,50.50 106.00,50.50 107.00,50.50 108.00,50.50 109.00,50.50 110.00,50.50 111.00,50.50 112.00,50.50 113.00,50.50 114.00,50.50 115.00,50.50 116.00,50.50 117.00,50.50 118.00,50.50 119.00,50.50 120.00,50.50 121.00,50.50 122.00,50.50 123.00,50.50 124.00,50.50 125.00,50.50 126.00,50.50 127.00,50.50 128.00,50.50 129.00,50.50 130.00,50.50 131.00,50.50 132.00,50.50 133.00,50.50 134.00,50.50 135.00,50.50 136.00,50.50 137.00,50.50 138.00,50.50 139.00,50.50 140.00,50.50 141.00,50.50 142.00,50.50 143.00,50.50 144.00,50.50 145.00,50.50 146.00,50.50 147.00,50.50 148.00,50.50 149.00,50.50 150.00,50.50 151.00,50.50 152.00,50.50 153.00,50.50 154.00,50.50 155.00,50.50 156.00,50.50 157.00,50.50 158.00,50.50 159.00,50.50 160.00,50.50 161.00,50.50 162.00,50.50 163.00,50.50 164.00,50.50 165.00,50.50 166.00,50.50 167.00,50.50 168.00,50.50 169.00,50.50 170.00,50.50 171.00,50.50 172.00,50.50 173.00,50.50 174.00,50.50 175.00,50.50 176.00,50.50 177.00,50.50 178.00,50.50 179.00,50.50 180.00,50.50 181.00,50.50 182.00,50.50 183.00,50.50 184.00,50.50 185.00,50.50 186.00,50.50 187.00,50.50 188.00,50.50 189.00,50.50 190.00,50.50 191.00,50.50 192.00,50.50 193.00,50.50 194.00,50.50 195.00,50.50 196.00,50.50 197.00,50.50 198.00,50.50 199.00,50.50 200.00,50.50 201.00,50.50 202.00,50.50 203.00,50.50 204.00,50.50 205.00,50.50 206.00,50.50 207.00,50.50 208.00,50.50 209.00,50.50 210.00,50.50 211.00,50.50 211.50,51.00 212.00,51.50 213.00,51.50 214.00,51.50 215.00,51.50 216.00,51.50 217.00,51.50 217.50,52.00 218.00,52.50 219.00,52.50 220.00,52.50 220.50,53.00 221.00,53.50 222.00,53.50 222.50,54.00 223.00,54.50 224.00,54.50 224.50,55.00 225.00,55.50 226.00,55.50 226.50,56.00 227.00,56.50 228.00,56.50 228.50,57.00 229.00,57.50 229.50,58.00 230.00,58.50 230.50,59.00 231.00,59.50 231.50,60.00 232.00,60.50 232.50,61.00 233.00,61.50 233.50,62.00 234.00,62.50 234.50,63.00 235.00,63.50 235.50,64.00 236.00,64.50 236.50,65.00 236.50,66.00 237.00,66.50 237.50,67.00 238.00,67.50 238.50,68.00 238.50,69.00 239.00,69.50 239.50,70.00 239.50,71.00 239.50,72.00 240.00,72.50 240.50,73.00 240.50,74.00 240.50,75.00 241.00,75.50 241.50,76.00 241.50,77.00 241.50,78.00 241.50,79.00 242.00,79.50 242.50,80.00 242.50,81.00 242.50,82.00 242.50,83.00 242.50,84.00 242.50,85.00 242.50,86.00 242.50,87.00 242.50,88.00 242.00,88.50 241.50,89.00 241.50,90.00 241.50,91.00 241.50,92.00 241.50,93.00 241.00,93.50 240.50,94.00 240.50,95.00 240.50,96.00 240.50,97.00 240.50,98.00 240.00,98.50 239.50,99.00 239.50,100.00 239.50,101.00 239.50,102.00 239.00,102.50 238.50,103.00 238.50,104.00 238.50,105.00 238.50,106.00 238.50,107.00 238.00,107.50 237.50,108.00 237.50,109.00 237.50,110.00 237.50,111.00 237.00,111.50 236.50,112.00 236.50,113.00 236.50,114.00 236.50,115.00 236.00,115.50 235.50,116.00 235.50,117.00 235.50,118.00 235.50,119.00 235.50,120.00 235.00,120.50 234.50,121.00 234.50,122.00 234.50,123.00 234.50,124.00 234.00,124.50 233.50,125.00 233.50,126.00 233.50,127.00 233.50,128.00 233.50,129.00 233.00,129.50 232.50,130.00 232.50,131.00 232.50,132.00 232.50,133.00 232.00,133.50 231.50,134.00 231.50,135.00 231.50,136.00 231.50,137.00 231.50,138.00 231.00,138.50 230.50,139.00 230.50,140.00 230.50,141.00 230.50,142.00 230.00,142.50 229.50,143.00 229.50,144.00 229.50,145.00 229.50,146.00 229.00,146.50 228.50,147.00 228.50,148.00 228.50,149.00 228.50,150.00 228.50,151.00 228.00,151.50 227.50,152.00 227.50,153.00 227.50,154.00 227.50,155.00 227.00,155.50 226.50,156.00 226.50,157.00 226.50,158.00 226.50,159.00 226.50,160.00 226.00,160.50 225.50,161.00 225.50,162.00 225.50,163.00 225.50,164.00 225.00,164.50 224.50,165.00 224.50,166.00 224.50,167.00 224.50,168.00 224.50,169.00 224.00,169.50 223.50,170.00 223.50,171.00 223.50,172.00 223.50,173.00 223.00,173.50 222.50,174.00 222.50,175.00 222.50,176.00 222.50,177.00 222.00,177.50 221.50,178.00 221.50,179.00 221.50,180.00 221.50,181.00 221.50,182.00 221.00,182.50 220.50,183.00 220.50,184.00 220.50,185.00 220.50,186.00 220.00,186.50 219.50,187.00 219.50,188.00 219.50,189.00 219.50,190.00 219.50,191.00 219.00,191.50 218.50,192.00 218.50,193.00 218.50,194.00 218.50,195.00 218.00,195.50 217.50,196.00 217.50,197.00 217.50,198.00 217.50,199.00 217.50,200.00 217.00,200.50 216.50,201.00 216.50,202.00 216.50,203.00 216.50,204.00 216.00,204.50 215.50,205.00 215.50,206.00 215.50,207.00 215.00,207.50 214.50,208.00 214.50,209.00 214.50,210.00 214.00,210.50 213.50,211.00 213.50,212.00 213.00,212.50 212.50,213.00 212.00,213.50 211.50,214.00 211.50,215.00 211.00,215.50 210.50,216.00 210.00,216.50 209.50,217.00 209.50,218.00 209.00,218.50 208.50,219.00 208.00,219.50 207.50,220.00 207.00,220.50 206.50,221.00 206.00,221.50 205.50,222.00 205.00,222.50 204.50,223.00 204.00,223.50 203.00,223.50 202.50,224.00 202.00,224.50 201.50,225.00 201.00,225.50 200.50,226.00 200.00,226.50 199.00,226.50 198.50,227.00 198.00,227.50 197.00,227.50 196.50,228.00 196.00,228.50 195.00,228.50 194.50,229.00 194.00,229.50 193.00,229.50 192.00,229.50 191.50,230.00 191.00,230.50 190.00,230.50 189.00,230.50 188.00,230.50 187.50,231.00 187.00,231.50" />
</svg>