<svg xmlns="http://www.w3.org/2000/svg" width="500" height="500" viewBox="0 0 500 500">
<polyline fill="none" stroke="#666" stroke-width="1" stroke-dasharray="2,3" points="286.00,431.50 285.00,431.50 284.00,431.50 283.00,431.50 282.00,431.50 281.00,431.50 280.00,431.50 279.00,431.50 278.00,431.50 277.00,431.50 276.00,431.50 275.00,431.50 274.00,431.50 273.00,431.50 272.00,431.50 271.00,431.50 270.00,431.50 269.00,431.50 268.00,431.50 267.00,431.50 266.00,431.50 265.00,431.50 264.00,431.50 263.00,431.50 262.00,431.50 261.00,431.50 260.00,431.50 259.00,431.50 258.00,431.50 257.00,431.50 256.00,431.50 255.00,431.50 254.00,431.50 253.00,431.50 252.00,431.50 251.00,431.50 250.00,431.50 249.50,431.00 249.00,430.50 248.00,430.50 247.00,430.50 246.00,430.50 245.00,430.50 244.00,430.50 243.00,430.50 242.00,430.50 241.00,430.50 240.00,430.50 239.00,430.50 238.00,430.50 237.50,430.00 237.00,429.50 236.00,429.50 235.00,429.50 234.00,429.50 233.00,429.50 232.00,429.50 231.00,429.50 230.50,429.00 230.00,428.50 229.00,428.50 228.00,428.50 227.00,428.50 226.00,428.50 225.00,428.50 224.50,428.00 224.00,427.50 223.00,427.50 222.00,427.50 221.00,427.50 220.00,427.50 219.00,427.50 218.50,427.00 218.00,426.50 217.00,426.50 216.00,426.50 215.00,426.50 214.50,426.00 214.00,425.50 213.00,425.50 212.00,425.50 211.00,425.50 210.50,425.00 210.00,424.50 209.00,424.50 208.00,424.50 207.00,424.50 206.50,424.00 206.00,423.50 205.00,423.50 204.00,423.50 203.50,423.00 203.00,422.50 202.00,422.50 201.00,422.50 200.50,422.00 200.00,421.50 199.00,421.50 198.00,421.50 197.50,421.00 197.00,420.50 196.00,420.50 195.50,420.00 195.00,419.50 194.00,419.50 193.00,419.50 192.50,419.00 192.00,418.50 191.00,418.50 190.50,418.00 190.00,417.50 189.00,417.50 188.50,417.00 188.00,416.50 187.00,416.50 186.50,416.00 186.00,415.50 185.00,415.50 184.50,415.00 184.00,414.50 183.00,414.50 182.50,414.00 182.00,413.50 181.00,413.50 180.50,413.00 180.00,412.50 179.00,412.50 178.50,412.00 178.00,411.50 177.50,411.00 177.00,410.50 176.00,410.50 175.50,410.00 175.00,409.50 174.00,409.50 173.50,409.00 173.00,408.50 172.50,408.00 172.00,407.50 171.00,407.50 170.50,407.00 170.00,406.50 169.50,406.00 169.00,405.50 168.50,405.00 168.00,404.50 167.00,404.50 166.50,404.00 166.00,403.50 165.50,403.00 165.00,402.50 164.50,402.00 164.00,401.50 163.00,401.50 162.50,402.00 162.50,403.00 162.00,403.50 161.50,404.00 161.00,404.50 160.50,405.00 160.00,405.50 159.50,406.00 159.00,406.50 158.50,407.00 158.50,408.00 158.00,408.50 157.50,409.00 157.00,409.50 156.50,410.00 156.00,410.50 155.50,411.00 155.50,412.00 155.00,412.50 154.50,413.00 154.00,413.50 153.50,414.00 153.00,414.50 152.50,415.00 152.50,416.00 152.00,416.50 151.50,417.00 151.00,417.50 150.50,418.00 150.00,418.50 149.50,419.00 149.50,420.00 149.00,420.50 148.50,421.00 148.00,421.50 147.50,422.00 147.00,422.50 146.50,423.00 146.50,424.00 146.00,424.50 145.50,425.00 145.00,425.50 144.50,426.00 144.00,426.50 143.00,426.50 142.00,426.50 141.00,426.50 140.00,426.50 139.00,426.50 138.00,426.50 137.00,426.50 136.00,426.50 135.00,426.50 134.00,426.50 133.00,426.50 132.00,426.50 131.00,426.50 130.00,426.50 129.00,426.50 128.00,426.50 127.00,426.50 126.00,426.50 125.00,426.50 124.00,426.50 123.00,426.50 122.00,426.50 121.00,426.50 120.00,426.50 119.00,426.50 118.00,426.50 117.00,426.50 116.00,426.50 115.00,426.50 114.00,426.50 113.00,426.50 112.00,426.50 111.00,426.50 110.00,426.50 109.00,426.50 108.00,426.50 107.00,426.50 106.00,426.50 105.00,426.50 104.00,426.50 103.00,426.50 102.00,426.50 101.00,426.50 100.00,426.50 99.00,426.50 98.00,426.50 97.00,426.50 96.00,426.50 95.00,426.50 94.00,426.50 93.00,426.50 92.00,426.50 91.00,426.50 90.00,426.50 89.00,426.50 88.50,426.00 88.50,425.00 88.50,424.00 88.50,423.00 88.50,422.00 88.50,421.00 88.50,420.00 88.50,419.00 88.50,418.00 88.50,417.00 88.50,416.00 88.50,415.00 88.50,414.00 88.50,413.00 88.50,412.00 88.50,411.00 88.50,410.00 88.50,409.00 88.50,408.00 88.50,407.00 88.50,406.00 88.50,405.00 88.50,404.00 88.50,403.00 88.50,402.00 88.50,401.00 88.50,400.00 88.50,399.00 88.50,398.00 88.50,397.00 88.50,396.00 88.50,395.00 88.50,394.00 88.50,393.00 88.50,392.00 88.50,391.00 88.50,390.00 88.50,389.00 88.50,388.00 88.50,387.00 88.50,386.00 88.50,385.00 88.50,384.00 88.50,383.00 88.50,382.00 88.50,381.00 88.50,380.00 88.50,379.00 88.50,378.00 88.50,377.00 88.50,376.00 88.50,375.00 88.50,374.00 88.50,373.00 88.50,372.00 88.50,371.00 88.50,370.00 88.50,369.00 88.50,368.00 88.50,367.00 88.50,366.00 88.50,365.00 88.50,364.00 88.50,363.00 88.50,362.00 88.50,361.00 88.50,360.00 88.50,359.00 88.50,358.00 88.50,357.00 88.50,356.00 88.50,355.00 88.50,354.00 88.50,353.00 88.50,352.00 88.50,351.00 88.50,350.00 88.50,349.00 88.50,348.00 88.50,347.00 88.50,346.00 88.50,345.00 88.50,344.00 88.50,343.00 88.50,342.00 88.50,341.00 88.50,340.00 88.50,339.00 88.50,338.00 88.50,337.00 88.50,336.00 88.50,335.00 88.50,334.00 88.50,333.00 88.50,332.00 88.50,331.00 88.50,330.00 88.50,329.00 88.50,328.00 88.50,327.00 88.50,326.00 88.50,325.00 88.50,324.00 88.50,323.00 88.50,322.00 88.50,321.00 88.50,320.00 88.50,319.00 88.50,318.00 88.50,317.00 88.50,316.00 88.50,315.00 88.50,314.00 88.50,313.00 88.50,312.00 88.50,311.00 88.50,310.00 88.50,309.00 88.50,308.00 88.50,307.00 88.50,306.00 88.50,305.00 88.50,304.00 88.50,303.00 88.50,302.00 88.50,301.00 88.50,300.00 88.50,299.00 88.50,298.00 88.50,297.00 88.50,296.00 88.50,295.00 88.50,294.00 88.50,293.00 88.50,292.00 88.50,291.00 88.50,290.00 88.50,289.00 88.50,288.00 88.50,287.00 88.50,286.00 88.50,285.00 88.50,284.00 88.50,283.00 88.50,282.00 88.50,281.00 88.50,280.00 88.50,279.00 88.50,278.00 88.50,277.00 88.50,276.00 88.50,275.00 88.50,274.00 88.50,273.00 88.50,272.00 88.50,271.00 88.50,270.00 88.50,269.00 89.00,268.50 90.00,268.50 91.00,268.50 92.00,268.50 93.00,268.50 94.00,268.50 95.00,268.50 96.00,268.50 97.00,268.50 98.00,268.50 99.00,268.50 100.00,268.50 101.00,268.50 102.00,268.50 103.00,268.50 104.00,268.50 105.00,268.50 106.00,268.50 107.00,268.50 108.00,268.50 109.00,268.50 110.00,268.50 111.00,268.50 112.00,268.50 113.00,268.50 114.00,268.50 115.00,268.50 116.00,268.50 117.00,268.50 118.00,268.50 119.00,268.50 120.00,268.50 121.00,268.50 122.00,268.50 123.00,268.50 124.00,268.50 125.00,268.50 126.00,268.50 127.00,268.50 128.00,268.50 129.00,268.50 130.00,268.50 131.00,268.50 132.00,268.50 133.00,268.50 134.00,268.50 135.00,268.50 136.00,268.50 137.00,268.50 138.00,268.50 139.00,268.50 140.00,268.50 141.00,268.50 142.00,268.50 143.00,268.50 144.00,268.50 145.00,268.50 146.00,268.50 147.00,268.50 148.00,268.50 149.00,268.50 150.00,268.50 151.00,268.50 152.00,268.50 153.00,268.50 154.00,268.50 155.00,268.50 156.00,268.50 157.00,268.50 158.00,268.50 159.00,268.50 160.00,268.50 161.00,268.50 162.00,268.50 163.00,268.50 164.00,268.50 165.00,268.50 166.00,268.50 167.00,268.50 168.00,268.50 169.00,268.50 170.00,268.50 171.00,268.50 172.00,268.50 173.00,268.50 174.00,268.50 175.00,268.50 176.00,268.50 177.00,268.50 178.00,268.50 179.00,268.50 180.00,268.50 181.00,268.50 182.00,268.50 183.00,268.50 184.00,268.50 185.00,268.50 186.00,268.50 187.00,268.50 188.00,268.50 189.00,268.50 190.00,268.50 191.00,268.50 192.00,268.50 193.00,268.50 194.00,268.50 195.00,268.50 196.00,268.50 197.00,268.50 198.00,268.50 199.00,268.50 200.00,268.50 201.00,268.50 202.00,268.50 203.00,268.50 204.00,268.50 205.00,268.50 206.00,268.50 207.00,268.50 208.00,268.50 209.00,268.50 210.00,268.50 211.00,268.50 212.00,268.50 213.00,268.50 214.00,268.50 215.00,268.50 216.00,268.50 217.00,268.50 218.00,268.50 219.00,268.50 220.00,268.50 220.50,269.00 220.50,270.00 220.50,271.00 220.50,272.00 220.50,273.00 220.50,274.00 220.50,275.00 220.50,276.00 220.50,277.00 221.00,277.50 221.50,278.00 221.50,279.00 221.50,280.00 221.50,281.00 222.00,281.50 222.50,282.00 222.50,283.00 222.50,284.00 223.00,284.50 223.50,285.00 223.50,286.00 223.50,287.00 224.00,287.50 224.50,288.00 224.50,289.00 225.00,289.50 225.50,290.00 226.00,290.50 226.50,291.00 226.50,292.00 227.00,292.50 227.50,293.00 228.00,293.50 228.50,294.00 229.00,294.50 229.50,295.00 230.00,295.50 230.50,296.00 231.00,296.50 231.50,297.00 232.00,297.50 232.50,298.00 233.00,298.50 233.50,299.00 234.00,299.50 235.00,299.50 235.50,300.00 236.00,300.50 237.00,300.50 237.50,301.00 238.00,301.50 239.00,301.50 239.50,302.00 240.00,302.50 241.00,302.50 242.00,302.50 242.50,303.00 243.00,303.50 244.00,303.50 245.00,303.50 245.50,304.00 246.00,304.50 247.00,304.50 248.00,304.50 249.00,304.50 250.00,304.50 251.00,304.50 252.00,304.50 252.50,305.00 253.00,305.50 254.00,305.50 255.00,305.50 256.00,305.50 257.00,305.50 258.00,305.50 259.00,305.50 260.00,305.50 261.00,305.50 262.00,305.50 262.50,305.00 263.00,304.50 264.00,304.50 265.00,304.50 266.00,304.50 267.00,304.50 268.00,304.50 268.50,304.00 269.00,303.50 270.00,303.50 271.00,303.50 271.50,303.00 272.00,302.50 273.00,302.50 274.00,302.50 274.50,302.00 275.00,301.50 276.00,301.50 276.50,301.00 277.00,300.50 278.00,300.50 278.50,300.00 279.00,299.50 279.50,299.00 280.00,298.50 281.00,298.50 281.50,298.00 282.00,297.50 282.50,297.00 283.00,296.50 283.50,296.00 284.00,295.50 284.50,295.00 284.50,294.00 285.00,293.50 285.50,293.00 286.00,292.50 286.50,292.00 286.50,291.00 287.00,290.50 287.50,290.00 287.50,289.00 287.50,288.00 288.00,287.50 288.50,287.00 288.50,286.00 288.50,285.00 288.50,284.00 288.50,283.00 288.50,282.00 288.50,281.00 288.50,280.00 288.50,279.00 288.00,278.50 287.50,278.00 287.50,277.00 287.00,276.50 286.50,276.00 286.50,275.00 286.00,274.50 285.50,274.00 285.50,273.00 285.00,272.50 284.50,272.00 284.00,271.50 283.50,271.00 283.00,270.50 282.00,270.50 281.50,270.00 281.00,269.50 280.50,269.00 280.00,268.50 279.00,268.50 278.50,268.00 278.00,267.50 277.00,267.50 276.50,267.00 276.00,266.50 275.00,266.50 274.50,266.00 274.00,265.50 273.00,265.50 272.00,265.50 271.50,265.00 271.00,264.50 270.00,264.50 269.00,264.50 268.00,264.50 267.50,264.00 267.00,263.50 266.00,263.50 265.00,263.50 264.00,263.50 263.00,263.50 262.50,263.00 262.00,262.50 261.00,262.50 260.00,262.50 259.00,262.50 258.00,262.50 257.00,262.50 256.00,262.50 255.00,262.50 254.50,262.00 254.00,261.50 253.00,261.50 252.00,261.50 251.00,261.50 250.00,261.50 249.00,261.50 248.00,261.50 247.00,261.50 246.00,261.50 245.00,261.50 244.00,261.50 243.00,261.50 242.50,261.00 242.00,260.50 241.00,260.50 240.00,260.50 239.00,260.50 238.00,260.50 237.00,260.50 236.00,260.50 235.00,260.50 234.00,260.50 233.00,260.50 232.00,260.50 231.00,260.50 230.00,260.50 229.00,260.50 228.00,260.50 227.00,260.50 226.00,260.50 225.00,260.50 224.00,260.50 223.00,260.50 222.00,260.50 221.00,260.50 220.00,260.50 219.00,260.50 218.00,260.50 217.00,260.50 216.00,260.50 215.00,260.50 214.00,260.50 213.50,260.00 213.00,259.50 212.00,259.50 211.00,259.50 210.00,259.50 209.00,259.50 208.00,259.50 207.00,259.50 206.00,259.50 205.00,259.50 204.00,259.50 203.00,259.50 202.00,259.50 201.00,259.50 200.00,259.50 199.00,259.50 198.00,259.50 197.00,259.50 196.00,259.50 195.00,259.50 194.00,259.50 193.00,259.50 192.00,259.50 191.00,259.50 190.00,259.50 189.00,259.50 188.50,259.00 188.00,258.50 187.00,258.50 186.00,258.50 185.00,258.50 184.00,258.50 183.00,258.50 182.00,258.50 181.00,258.50 180.00,258.50 179.00,258.50 178.00,258.50 177.00,258.50 176.00,258.50 175.50,258.00 175.00,257.50 174.00,257.50 173.00,257.50 172.00,257.50 171.00,257.50 170.00,257.50 169.00,257.50 168.00,257.50 167.00,257.50 166.50,257.00 166.00,256.50 165.00,256.50 164.00,256.50 163.00,256.50 162.00,256.50 161.00,256.50 160.00,256.50 159.50,256.00 159.00,255.50 158.00,255.50 157.00,255.50 156.00,255.50 155.00,255.50 154.50,255.00 154.00,254.50 153.00,254.50 152.00,254.50 151.00,254.50 150.00,254.50 149.50,254.00 149.00,253.50 148.00,253.50 147.00,253.50 146.00,253.50 145.50,253.00 145.00,252.50 144.00,252.50 143.00,252.50 142.00,252.50 141.50,252.00 141.00,251.50 140.00,251.50 139.00,251.50 138.00,251.50 137.50,251.00 137.00,250.50 136.00,250.50 135.00,250.50 134.50,250.00 134.00,249.50 133.00,249.50 132.50,249.00 132.00,248.50 131.00,248.50 130.00,248.50 129.50,248.00 129.00,247.50 128.00,247.50 127.50,247.00 127.00,246.50 126.00,246.50 125.50,246.00 125.00,245.50 124.00,245.50 123.50,245.00 123.00,244.50 122.00,244.50 121.50,244.00 121.00,243.50 120.00,243.50 119.50,243.00 119.00,242.50 118.00,242.50 117.50,242.00 117.00,241.50 116.50,241.00 116.00,240.50 115.00,240.50 114.50,240.00 114.00,239.50 113.50,239.00 113.00,238.50 112.00,238.50 111.50,238.00 111.00,237.50 110.50,237.00 110.00,236.50 109.50,236.00 109.00,235.50 108.50,235.00 108.00,234.50 107.50,234.00 107.00,233.50 106.50,233.00 106.00,232.50 105.50,232.00 105.00,231.50 104.50,231.00 104.00,230.50 103.50,230.00 103.00,229.50 102.50,229.00 102.00,228.50 101.50,228.00 101.00,227.50 100.50,227.00 100.50,226.00 100.00,225.50 99.50,225.00 99.00,224.50 98.50,224.00 98.50,223.00 98.00,222.50 97.50,222.00 97.00,221.50 96.50,221.00 96.50,220.00 96.00,219.50 95.50,219.00 95.50,218.00 95.00,217.50 94.50,217.00 94.50,216.00 94.00,215.50 93.50,215.00 93.50,214.00 93.00,213.50 92.50,213.00 92.50,212.00 92.50,211.00 92.00,210.50 91.50,210.00 91.50,209.00 91.50,208.00 91.00,207.50 90.50,207.00 90.50,206.00 90.50,205.00 90.50,204.00 90.00,203.50 89.50,203.00 89.50,202.00 89.50,201.00 89.50,200.00 89.50,199.00 89.50,198.00 89.00,197.50 88.50,197.00 88.50,196.00 88.50,195.00 88.50,194.00 88.50,193.00 88.50,192.00 88.50,191.00 88.50,190.00 88.50,189.00 88.50,188.00 88.50,187.00 88.50,186.00 88.50,185.00 88.50,184.00 88.50,183.00 88.50,182.00 88.50,181.00 88.50,180.00 88.50,179.00 88.50,178.00 88.50,177.00 88.50,176.00 88.50,175.00 88.50,174.00 88.50,173.00 88.50,172.00 88.50,171.00 88.50,170.00 88.50,169.00 89.00,168.50 89.50,168.00 89.50,167.00 89.50,166.00 89.50,165.00 89.50,164.00 90.00,163.50 90.50,163.00 90.50,162.00 90.50,161.00 90.50,160.00 91.00,159.50 91.50,159.00 91.50,158.00 91.50,157.00 91.50,156.00 92.00,155.50 92.50,155.00 92.50,154.00 92.50,153.00 93.00,152.50 93.50,152.00 93.50,151.00 94.00,150.50 94.50,150.00 94.50,149.00 94.50,148.00 95.00,147.50 95.50,147.00 95.50,146.00 96.00,145.50 96.50,145.00 96.50,144.00 97.00,143.50 97.50,143.00 97.50,142.00 98.00,141.50 98.50,141.00 98.50,140.00 99.00,139.50 99.50,139.00 100.00,138.50 100.50,138.00 100.50,137.00 101.00,136.50 101.50,136.00 102.00,135.50 102.50,135.00 102.50,134.00 103.00,133.50 103.50,133.00 104.00,132.50 104.50,132.00 104.50,131.00 105.00,130.50 105.50,130.00 106.00,129.50 106.50,129.00 107.00,128.50 107.50,128.00 108.00,127.50 108.50,127.00 109.00,126.50 109.50,126.00 109.50,125.00 110.00,124.50 110.50,124.00 111.00,123.50 111.50,123.00 112.00,122.50 112.50,122.00 113.00,121.50 113.50,121.00 114.00,120.50 114.50,120.00 115.00,119.50 116.00,119.50 116.50,119.00 117.00,118.50 117.50,118.00 118.00,117.50 118.50,117.00 119.00,116.50 119.50,116.00 120.00,115.50 120.50,115.00 121.00,114.50 122.00,114.50 122.50,114.00 123.00,113.50 123.50,113.00 124.00,112.50 124.50,112.00 125.00,111.50 126.00,111.50 126.50,111.00 127.00,110.50 127.50,110.00 128.00,109.50 129.00,109.50 129.50,109.00 130.00,108.50 131.00,108.50 131.50,108.00 132.00,107.50 132.50,107.00 133.00,106.50 134.00,106.50 134.50,106.00 135.00,105.50 136.00,105.50 136.50,105.00 137.00,104.50 138.00,104.50 138.50,104.00 139.00,103.50 140.00,103.50 140.50,103.00 141.00,102.50 142.00,102.50 142.50,102.00 143.00,101.50 144.00,101.50 144.50,101.00 145.00,100.50 146.00,100.50 146.50,100.00 147.00,99.50 148.00,99.50 148.50,99.00 149.00,98.50 150.00,98.50 151.00,98.50 151.50,98.00 152.00,97.50 153.00,97.50 153.50,97.00 154.00,96.50 155.00,96.50 156.00,96.50 156.50,96.00 157.00,95.50 158.00,95.50 159.00,95.50 159.50,95.00 160.00,94.50 161.00,94.50 162.00,94.50 162.50,94.00 163.00,93.50 164.00,93.50 165.00,93.50 165.50,93.00 166.00,92.50 167.00,92.50 168.00,92.50 169.00,92.50 169.50,92.00 170.00,91.50 171.00,91.50 172.00,91.50 172.50,91.00 173.00,90.50 174.00,90.50 175.00,90.50 176.00,90.50 176.50,90.00 177.00,89.50 178.00,89.50 179.00,89.50 180.00,89.50 181.00,89.50 181.50,89.00 182.00,88.50 183.00,88.50 184.00,88.50 185.00,88.50 186.00,88.50 186.50,88.00 187.00,87.50 188.00,87.50 189.00,87.50 190.00,87.50 191.00,87.50 192.00,87.50 192.50,87.00 193.00,86.50 194.00,86.50 195.00,86.50 196.00,86.50 197.00,86.50 198.00,86.50 199.00,86.50 199.50,86.00 200.00,85.50 201.00,85.50 202.00,85.50 203.00,85.50 204.00,85.50 205.00,85.50 206.00,85.50 207.00,85.50 208.00,85.50 208.50,85.00 209.00,84.50 210.00,84.50 211.00,84.50 212.00,84.50 213.00,84.50 214.00,84.50 215.00,84.50 216.00,84.50 217.00,84.50 218.00,84.50 219.00,84.50 220.00,84.50 221.00,84.50 221.50,84.00 222.00,83.50 223.00,83.50 224.00,83.50 225.00,83.50 226.00,83.50 227.00,83.50 228.00,83.50 229.00,83.50 230.00,83.50 231.00,83.50 232.00,83.50 233.00,83.50 234.00,83.50 235.00,83.50 236.00,83.50 237.00,83.50 238.00,83.50 239.00,83.50 240.00,83.50 241.00,83.50 242.00,83.50 243.00,83.50 244.00,83.50 245.00,83.50 246.00,83.50 247.00,83.50 248.00,83.50 249.00,83.50 250.00,83.50 251.00,83.50 252.00,83.50 253.00,83.50 254.00,83.50 255.00,83.50 256.00,83.50 257.00,83.50 258.00,83.50 258.50,84.00 259.00,84.50 260.00,84.50 261.00,84.50 262.00,84.50 263.00,84.50 264.00,84.50 265.00,84.50 266.00,84.50 267.00,84.50 268.00,84.50 269.00,84.50 270.00,84.50 270.50,85.00 271.00,85.50 272.00,85.50 273.00,85.50 274.00,85.50 275.00,85.50 276.00,85.50 277.00,85.50 278.00,85.50 278.50,86.00 279.00,86.50 280.00,86.50 281.00,86.50 282.00,86.50 283.00,86.50 284.00,86.50 284.50,87.00 285.00,87.50 286.00,87.50 287.00,87.50 288.00,87.50 289.00,87.50 289.50,88.00 290.00,88.50 291.00,88.50 292.00,88.50 293.00,88.50 294.00,88.50 294.50,89.00 295.00,89.50 296.00,89.50 297.00,89.50 298.00,89.50 298.50,90.00 299.00,90.50 300.00,90.50 301.00,90.50 302.00,90.50 302.50,91.00 303.00,91.50 304.00,91.50 305.00,91.50 305.50,92.00 306.00,92.50 307.00,92.50 308.00,92.50 309.00,92.50 309.50,93.00 310.00,93.50 311.00,93.50 312.00,93.50 312.50,94.00 313.00,94.50 314.00,94.50 314.50,95.00 315.00,95.50 316.00,95.50 317.00,95.50 317.50,96.00 318.00,96.50 319.00,96.50 319.50,97.00 320.00,97.50 321.00,97.50 322.00,97.50 322.50,98.00 323.00,98.50 324.00,98.50 324.50,99.00 325.00,99.50 326.00,99.50 326.50,100.00 327.00,100.50 328.00,100.50 328.50,101.00 329.00,101.50 330.00,101.50 330.50,102.00 331.00,102.50 332.00,102.50 332.50,103.00 333.00,103.50 334.00,103.50 334.50,104.00 335.00,104.50 335.50,105.00 336.00,105.50 337.00,105.50 337.50,106.00 338.00,106.50 339.00,106.50 339.50,107.00 340.00,107.50 340.50,108.00 341.00,108.50 342.00,108.50 342.50,109.00 343.00,109.50 343.50,110.00 344.00,110.50 344.50,111.00 345.00,111.50 346.00,111.50 346.50,112.00 347.00,112.50 347.50,113.00 348.00,113.50 349.00,113.50 349.50,113.00 349.50,112.00 350.00,111.50 350.50,111.00 351.00,110.50 351.50,110.00 352.00,109.50 352.50,109.00 353.00,108.50 353.50,108.00 353.50,107.00 354.00,106.50 354.50,106.00 355.00,105.50 355.50,105.00 356.00,104.50 356.50,104.00 356.50,103.00 357.00,102.50 357.50,102.00 358.00,101.50 358.50,101.00 359.00,100.50 359.50,100.00 359.50,99.00 360.00,98.50 360.50,98.00 361.00,97.50 361.50,97.00 362.00,96.50 362.50,96.00 362.50,95.00 363.00,94.50 363.50,94.00 364.00,93.50 364.50,93.00 365.00,92.50 365.50,92.00 365.50,91.00 366.00,90.50 366.50,90.00 367.00,89.50 367.50,89.00 368.00,88.50 369.00,88.50 370.00,88.50 371.00,88.50 372.00,88.50 373.00,88.50 374.00,88.50 375.00,88.50 376.00,88.50 377.00,88.50 378.00,88.50 379.00,88.50 380.00,88.50 381.00,88.50 382.00,88.50 383.00,88.50 384.00,88.50 385.00,88.50 386.00,88.50 387.00,88.50 388.00,88.50 389.00,88.50 390.00,88.50 391.00,88.50 392.00,88.50 393.00,88.50 394.00,88.50 395.00,88.50 396.00,88.50 397.00,88.50 398.00,88.50 399.00,88.50 400.00,88.50 401.00,88.50 402.00,88.50 403.00,88.50 404.00,88.50 405.00,88.50 406.00,88.50 407.00,88.50 408.00,88.50 409.00,88.50 410.00,88.50 411.00,88.50 412.00,88.50 413.00,88.50 414.00,88.50 415.00,88.50 416.00,88.50 417.00,88.50 418.00,88.50 419.00,88.50 420.00,88.50 421.00,88.50 422.00,88.50 423.00,88.50 423.50,89.00 423.50,90.00 423.50,91.00 423.50,92.00 423.50,93.00 423.50,94.00 423.50,95.00 423.50,96.00 423.50,97.00 423.50,98.00 423.50,99.00 423.50,100.00 423.50,101.00 423.50,102.00 423.50,103.00 423.50,104.00 423.50,105.00 423.50,106.00 423.50,107.00 423.50,108.00 423.50,109.00 423.50,110.00 423.50,111.00 423.50,112.00 423.50,113.00 423.50,114.00 423.50,115.00 423.50,116.00 423.50,117.00 423.50,118.00 423.50,119.00 423.50,120.00 423.50,121.00 423.50,122.00 423.50,123.00 423.50,124.00 423.50,125.00 423.50,126.00 423.50,127.00 423.50,128.00 423.50,129.00 423.50,130.00 423.50,131.00 423.50,132.00 423.50,133.00 423.50,134.00 423.50,135.00 423.50,136.00 423.50,137.00 423.50,138.00 423.50,139.00 423.50,140.00 423.50,141.00 423.50,142.00 423.50,143.00 423.50,144.00 423.50,145.00 423.50,146.00 423.50,147.00 423.50,148.00 423.50,149.00 423.50,150.00 423.50,151.00 423.50,152.00 423.50,153.00 423.50,154.00 423.50,155.00 423.50,156.00 423.50,157.00 423.50,158.00 423.50,159.00 423.50,160.00 423.50,161.00 423.50,162.00 423.50,163.00 423.50,164.00 423.50,165.00 423.50,166.00 423.50,167.00 423.50,168.00 423.50,169.00 423.50,170.00 423.50,171.00 423.50,172.00 423.50,173.00 423.50,174.00 423.50,175.00 423.50,176.00 423.50,177.00 423.50,178.00 423.50,179.00 423.50,180.00 423.50,181.00 423.50,182.00 423.50,183.00 423.50,184.00 423.50,185.00 423.50,186.00 423.50,187.00 423.50,188.00 423.50,189.00 423.50,190.00 423.50,191.00 423.50,192.00 423.50,193.00 423.50,194.00 423.50,195.00 423.50,196.00 423.50,197.00 423.50,198.00 423.50,199.00 423.50,200.00 423.50,201.00 423.50,202.00 423.50,203.00 423.50,204.00 423.50,205.00 423.50,206.00 423.50,207.00 423.50,208.00 423.50,209.00 423.50,210.00 423.50,211.00 423.50,212.00 423.50,213.00 423.50,214.00 423.50,215.00 423.50,216.00 423.50,217.00 423.50,218.00 423.50,219.00 423.50,220.00 423.50,221.00 423.50,222.00 423.50,223.00 423.50,224.00 423.50,225.00 423.50,226.00 423.50,227.00 423.50,228.00 423.50,229.00 423.50,230.00 423.50,231.00 423.50,232.00 423.50,233.00 423.50,234.00 423.50,235.00 423.50,236.00 423.50,237.00 423.50,238.00 423.50,239.00 423.50,240.00 423.50,241.00 423.50,242.00 423.50,243.00 423.50,244.00 423.50,245.00 423.50,246.00 423.00,246.50 422.00,246.50 421.00,246.50 420.00,246.50 419.00,246.50 418.00,246.50 417.00,246.50 416.00,246.50 415.00,246.50 414.00,246.50 413.00,246.50 412.00,246.50 411.00,246.50 410.00,246.50 409.00,246.50 408.00,246.50 407.00,246.50 406.00,246.50 405.00,246.50 404.00,246.50 403.00,246.50 402.00,246.50 401.00,246.50 400.00,246.50 399.00,246.50 398.00,246.50 397.00,246.50 396.00,246.50 395.00,246.50 394.00,246.50 393.00,246.50 392.00,246.50 391.00,246.50 390.00,246.50 389.00,246.50 388.00,246.50 387.00,246.50 386.00,246.50 385.00,246.50 384.00,246.50 383.00,246.50 382.00,246.50 381.00,246.50 380.00,246.50 379.00,246.50 378.00,246.50 377.00,246.50 376.00,246.50 375.00,246.50 374.00,246.50 373.00,246.50 372.00,246.50 371.00,246.50 370.00,246.50 369.00,246.50 368.00,246.50 367.00,246.50 366.00,246.50 365.00,246.50 364.00,246.50 363.00,246.50 362.00,246.50 361.00,246.50 360.00,246.50 359.00,246.50 358.00,246.50 357.00,246.50 356.00,246.50 355.00,246.50 354.00,246.50 353.00,246.50 352.00,246.50 351.00,246.50 350.00,246.50 349.00,246.50 348.00,246.50 347.00,246.50 346.00,246.50 345.00,246.50 344.00,246.50 343.00,246.50 342.00,246.50 341.00,246.50 340.00,246.50 339.00,246.50 338.00,246.50 337.00,246.50 336.00,246.50 335.00,246.50 334.00,246.50 333.00,246.50 332.00,246.50 331.00,246.50 330.00,246.50 329.00,246.50 328.00,246.50 327.00,246.50 326.00,246.50 325.00,246.50 324.00,246.50 323.00,246.50 322.00,246.50 321.00,246.50 320.00,246.50 319.00,246.50 318.00,246.50 317.00,246.50 316.00,246.50 315.00,246.50 314.00,246.50 313.00,246.50 312.00,246.50 311.00,246.50 310.00,246.50 309.00,246.50 308.00,246.50 307.00,246.50 306.00,246.50 305.00,246.50 304.00,246.50 303.00,246.50 302.00,246.50 301.00,246.50 300.00,246.50 299.00,246.50 298.00,246.50 297.00,246.50 296.00,246.50 295.00,246.50 294.00,246.50 293.00,246.50 292.00,246.50 291.50,246.00 291.50,245.00 291.50,244.00 291.50,243.00 291.50,242.00 291.50,241.00 291.50,240.00 291.50,239.00 291.50,238.00 291.00,237.50 290.50,237.00 290.50,236.00 290.50,235.00 290.50,234.00 290.00,233.50 289.50,233.00 289.50,232.00 289.50,231.00 289.00,230.50 288.50,230.00 288.50,229.00 288.50,228.00 288.00,227.50 287.50,227.00 287.50,226.00 287.00,225.50 286.50,225.00 286.00,224.50 285.50,224.00 285.50,223.00 285.00,222.50 284.50,222.00 284.00,221.50 283.50,221.00 283.00,220.50 282.50,220.00 282.00,219.50 281.50,219.00 281.00,218.50 280.50,218.00 280.00,217.50 279.50,217.00 279.00,216.50 278.50,216.00 278.00,215.50 277.00,215.50 276.50,215.00 276.00,214.50 275.00,214.50 274.50,214.00 274.00,213.50 273.00,213.50 272.50,213.00 272.00,212.50 271.00,212.50 270.00,212.50 269.50,212.00 269.00,211.50 268.00,211.50 267.00,211.50 266.50,211.00 266.00,210.50 265.00,210.50 264.00,210.50 263.00,210.50 262.00,210.50 261.00,210.50 260.00,210.50 259.50,210.00 259.00,209.50 258.00,209.50 257.00,209.50 256.00,209.50 255.00,209.50 254.00,209.50 253.00,209.50 252.00,209.50 251.00,209.50 250.00,209.50 249.50,210.00 249.00,210.50 248.00,210.50 247.00,210.50 246.00,210.50 245.00,210.50 244.00,210.50 243.50,211.00 243.00,211.50 242.00,211.50 241.00,211.50 240.50,212.00 240.00,212.50 239.00,212.50 238.00,212.50 237.50,213.00 237.00,213.50 236.00,213.50 235.50,214.00 235.00,214.50 234.00,214.50 233.50,215.00 233.00,215.50 232.50,216.00 232.00,216.50 231.00,216.50 230.50,217.00 230.00,217.50 229.50,218.00 229.00,218.50 228.50,219.00 228.00,219.50 227.50,220.00 227.50,221.00 227.00,221.50 226.50,222.00 226.00,222.50 225.50,223.00 225.50,224.00 225.00,224.50 224.50,225.00 224.50,226.00 224.50,227.00 224.00,227.50 223.50,228.00 223.50,229.00 223.50,230.00 223.50,231.00 223.50,232.00 223.50,233.00 223.50,234.00 223.50,235.00 223.50,236.00 224.00,236.50 224.50,237.00 224.50,238.00 224.50,239.00 225.00,239.50 225.50,240.00 226.00,240.50 226.50,241.00 226.50,242.00 227.00,242.50 227.50,243.00 228.00,243.50 228.50,244.00 229.00,244.50 229.50,245.00 230.00,245.50 231.00,245.50 231.50,246.00 232.00,246.50 232.50,247.00 233.00,247.50 234.00,247.50 234.50,248.00 235.00,248.50 236.00,248.50 237.00,248.50 237.50,249.00 238.00,249.50 239.00,249.50 240.00,249.50 240.50,250.00 241.00,250.50 242.00,250.50 243.00,250.50 244.00,250.50 244.50,251.00 245.00,251.50 246.00,251.50 247.00,251.50 248.00,251.50 249.00,251.50 249.50,252.00 250.00,252.50 251.00,252.50 252.00,252.50 253.00,252.50 254.00,252.50 255.00,252.50 256.00,252.50 256.50,253.00 257.00,253.50 258.00,253.50 259.00,253.50 260.00,253.50 261.00,253.50 262.00,253.50 263.00,253.50 264.00,253.50 265.00,253.50 266.00,253.50 267.00,253.50 268.00,253.50 269.00,253.50 270.00,253.50 271.00,253.50 271.50,254.00 272.00,254.50 273.00,254.50 274.00,254.50 275.00,254.50 276.00,254.50 277.00,254.50 278.00,254.50 279.00,254.50 280.00,254.50 281.00,254.50 282.00,254.50 283.00,254.50 284.00,254.50 285.00,254.50 286.00,254.50 287.00,254.50 288.00,254.50 289.00,254.50 290.00,254.50 291.00,254.50 292.00,254.50 293.00,254.50 294.00,254.50 295.00,254.50 296.00,254.50 297.00,254.50 298.00,254.50 299.00,254.50 300.00,254.50 301.00,254.50 302.00,254.50 303.00,254.50 304.00,254.50 305.00,254.50 306.00,254.50 307.00,254.50 308.00,254.50 309.00,254.50 310.00,254.50 310.50,255.00 311.00,255.50 312.00,255.50 313.00,255.50 314.00,255.50 315.00,255.50 316.00,255.50 317.00,255.50 318.00,255.50 319.00,255.50 320.00,255.50 321.00,255.50 322.00,255.50 323.00,255.50 324.00,255.50 325.00,255.50 326.00,255.50 327.00,255.50 328.00,255.50 329.00,255.50 330.00,255.50 330.50,256.00 331.00,256.50 332.00,256.50 333.00,256.50 334.00,256.50 335.00,256.50 336.00,256.50 337.00,256.50 338.00,256.50 339.00,256.50 340.00,256.50 341.00,256.50 341.50,257.00 342.00,257.50 343.00,257.50 344.00,257.50 345.00,257.50 346.00,257.50 347.00,257.50 348.00,257.50 349.00,257.50 349.50,258.00 350.00,258.50 351.00,258.50 352.00,258.50 353.00,258.50 354.00,258.50 355.00,258.50 355.50,259.00 356.00,259.50 357.00,259.50 358.00,259.50 359.00,259.50 360.00,259.50 360.50,260.00 361.00,260.50 362.00,260.50 363.00,260.50 364.00,260.50 364.50,261.00 365.00,261.50 366.00,261.50 367.00,261.50 368.00,261.50 368.50,262.00 369.00,262.50 370.00,262.50 371.00,262.50 372.00,262.50 372.50,263.00 373.00,263.50 374.00,263.50 375.00,263.50 375.50,264.00 376.00,264.50 377.00,264.50 378.00,264.50 378.50,265.00 379.00,265.50 380.00,265.50 380.50,266.00 381.00,266.50 382.00,266.50 383.00,266.50 383.50,267.00 384.00,267.50 385.00,267.50 385.50,268.00 386.00,268.50 387.00,268.50 387.50,269.00 388.00,269.50 389.00,269.50 389.50,270.00 390.00,270.50 391.00,270.50 391.50,271.00 392.00,271.50 392.50,272.00 393.00,272.50 394.00,272.50 394.50,273.00 395.00,273.50 396.00,273.50 396.50,274.00 397.00,274.50 397.50,275.00 398.00,275.50 398.50,276.00 399.00,276.50 400.00,276.50 400.50,277.00 401.00,277.50 401.50,278.00 402.00,278.50 402.50,279.00 403.00,279.50 403.50,280.00 404.00,280.50 404.50,281.00 405.00,281.50 405.50,282.00 406.00,282.50 406.50,283.00 407.00,283.50 407.50,284.00 408.00,284.50 408.50,285.00 409.00,285.50 409.50,286.00 410.00,286.50 410.50,287.00 410.50,288.00 411.00,288.50 411.50,289.00 412.00,289.50 412.50,290.00 413.00,290.50 413.50,291.00 413.50,292.00 414.00,292.50 414.50,293.00 414.50,294.00 415.00,294.50 415.50,295.00 415.50,296.00 416.00,296.50 416.50,297.00 416.50,298.00 417.00,298.50 417.50,299.00 417.50,300.00 418.00,300.50 418.50,301.00 418.50,302.00 419.00,302.50 419.50,303.00 419.50,304.00 419.50,305.00 420.00,305.50 420.50,306.00 420.50,307.00 420.50,308.00 421.00,308.50 421.50,309.00 421.50,310.00 421.50,311.00 421.50,312.00 422.00,312.50 422.50,313.00 422.50,314.00 422.50,315.00 422.50,316.00 422.50,317.00 422.50,318.00 423.00,318.50 423.50,319.00 423.50,320.00 423.50,321.00 423.50,322.00 423.50,323.00 423.50,324.00 423.50,325.00 423.50,326.00 423.50,327.00 423.50,328.00 423.50,329.00 423.50,330.00 423.50,331.00 423.50,332.00 423.50,333.00 423.50,334.00 423.50,335.00 423.50,336.00 423.50,337.00 423.50,338.00 423.50,339.00 423.50,340.00 423.50,341.00 423.50,342.00 423.50,343.00 423.50,344.00 423.50,345.00 423.50,346.00 423.50,347.00 423.00,347.50 422.50,348.00 422.50,349.00 422.50,350.00 422.50,351.00 422.50,352.00 422.50,353.00 422.00,353.50 421.50,354.00 421.50,355.00 421.50,356.00 421.50,357.00 421.00,357.50 420.50,358.00 420.50,359.00 420.50,360.00 420.00,360.50 419.50,361.00 419.50,362.00 419.50,363.00 419.00,363.50 418.50,364.00 418.50,365.00 418.50,366.00 418.00,366.50 417.50,367.00 417.50,368.00 417.00,368.50 416.50,369.00 416.50,370.00 416.00,370.50 415.50,371.00 415.50,372.00 415.00,372.50 414.50,373.00 414.50,374.00 414.00,374.50 413.50,375.00 413.50,376.00 413.00,376.50 412.50,377.00 412.00,377.50 411.50,378.00 411.50,379.00 411.00,379.50 410.50,380.00 410.00,380.50 409.50,381.00 409.50,382.00 409.00,382.50 408.50,383.00 408.00,383.50 407.50,384.00 407.00,384.50 406.50,385.00 406.50,386.00 406.00,386.50 405.50,387.00 405.00,387.50 404.50,388.00 404.00,388.50 403.50,389.00 403.00,389.50 402.50,390.00 402.00,390.50 401.50,391.00 401.00,391.50 400.50,392.00 400.00,392.50 399.50,393.00 399.00,393.50 398.50,394.00 398.00,394.50 397.50,395.00 397.00,395.50 396.50,396.00 396.00,396.50 395.50,397.00 395.00,397.50 394.50,398.00 394.00,398.50 393.00,398.50 392.50,399.00 392.00,399.50 391.50,400.00 391.00,400.50 390.50,401.00 390.00,401.50 389.00,401.50 388.50,402.00 388.00,402.50 387.50,403.00 387.00,403.50 386.00,403.50 385.50,404.00 385.00,404.50 384.50,405.00 384.00,405.50 383.00,405.50 382.50,406.00 382.00,406.50 381.50,407.00 381.00,407.50 380.00,407.50 379.50,408.00 379.00,408.50 378.00,408.50 377.50,409.00 377.00,409.50 376.00,409.50 375.50,410.00 375.00,410.50 374.00,410.50 373.50,411.00 373.00,411.50 372.00,411.50 371.50,412.00 371.00,412.50 370.00,412.50 369.50,413.00 369.00,413.50 368.00,413.50 367.50,414.00 367.00,414.50 366.00,414.50 365.50,415.00 365.00,415.50 364.00,415.50 363.50,416.00 363.00,416.50 362.00,416.50 361.00,416.50 360.50,417.00 360.00,417.50 359.00,417.50 358.00,417.50 357.50,418.00 357.00,418.50 356.00,418.50 355.50,419.00 355.00,419.50 354.00,419.50 353.00,419.50 352.50,420.00 352.00,420.50 351.00,420.50 350.00,420.50 349.50,421.00 349.00,421.50 348.00,421.50 347.00,421.50 346.00,421.50 345.50,422.00 345.00,422.50 344.00,422.50 343.00,422.50 342.00,422.50 341.50,423.00 341.00,423.50 340.00,423.50 339.00,423.50 338.50,424.00 338.00,424.50 337.00,424.50 336.00,424.50 335.00,424.50 334.00,424.50 333.50,425.00 333.00,425.50 332.00,425.50 331.00,425.50 330.00,425.50 329.00,425.50 328.50,426.00 328.00,426.50 327.00,426.50 326.00,426.50 325.00,426.50 324.00,426.50 323.50,427.00 323.00,427.50 322.00,427.50 321.00,427.50 320.00,427.50 319.00,427.50 318.00,427.50 317.50,428.00 317.00,428.50 316.00,428.50 315.00,428.50 314.00,428.50 313.00,428.50 312.00,428.50 311.00,428.50 310.50,429.00 310.00,429.50 309.00,429.50 308.00,429.50 307.00,429.50 306.00,429.50 305.00,429.50 304.00,429.50 303.00,429.50 302.00,429.50 301.00,429.50 300.50,430.00 300.00,430.50 299.00,430.50 298.00,430.50 297.00,430.50 296.00,430.50 295.00,430.50 294.00,430.50 293.00,430.50 292.00,430.50 291.00,430.50 290.00,430.50 289.00,430.50 288.00,430.50 287.00,430.50 286.50,431.00 286.00,431.50" />
<polyline fill="none" stroke="#09f" stroke-width="1" points="396.00,116.00 395.00,117.00 395.00,118.00 395.00,119.00 394.00,120.00 394.00,121.00 394.00,122.00 394.00,123.00 393.00,124.00 393.00,125.00 393.00,126.00 393.00,127.00 392.00,128.00 392.00,129.00 392.00,130.00 391.00,131.00 391.00,132.00 391.00,133.00 391.00,134.00 390.00,135.00 390.00,136.00 390.00,137.00 390.00,138.00 389.00,139.00 389.00,140.00 389.00,141.00 388.00,142.00 388.00,143.00 388.00,144.00 388.00,145.00 387.00,146.00 387.00,147.00 387.00,148.00 386.00,149.00 386.00,150.00 385.00,151.00 384.00,152.00 383.00,153.00 382.00,154.00 381.00,155.00 380.00,156.00 379.00,157.00 378.00,158.00 377.00,159.00 376.00,160.00 375.00,161.00 374.00,162.00 373.00,163.00 372.00,164.00 371.00,165.00 370.00,166.00 369.00,167.00 368.00,168.00 367.00,169.00 366.00,170.00 365.00,171.00 364.00,172.00 363.00,173.00 362.00,174.00 361.00,175.00 360.00,176.00 359.00,177.00 358.00,178.00 357.00,179.00 356.00,178.00 355.00,177.00 354.00,176.00 353.00,175.00 352.00,175.00 351.00,174.00 350.00,173.00 349.00,173.00 348.00,172.00 347.00,172.00 346.00,171.00 345.00,170.00 344.00,170.00 343.00,169.00 342.00,169.00 341.00,169.00 340.00,168.00 339.00,168.00 338.00,167.00 337.00,167.00 336.00,167.00 335.00,166.00 334.00,166.00 333.00,166.00 332.00,165.00 331.00,165.00 330.00,165.00 329.00,164.00 328.00,164.00 327.00,164.00 326.00,164.00 325.00,164.00 324.00,163.00 323.00,163.00 322.00,163.00 321.00,163.00 320.00,163.00 319.00,163.00 318.00,162.00 317.00,162.00 316.00,162.00 315.00,162.00 314.00,162.00 313.00,162.00 312.00,162.00 311.00,162.00 310.00,162.00 309.00,162.00 308.00,162.00 307.00,161.00 306.00,161.00 305.00,161.00 304.00,161.00 303.00,161.00 302.00,161.00 301.00,161.00 300.00,161.00 299.00,161.00 298.00,161.00 297.00,160.00 296.00,160.00 295.00,160.00 294.00,160.00 293.00,159.00 292.00,159.00 291.00,159.00 290.00,159.00 289.00,158.00 288.00,158.00 287.00,158.00 286.00,158.00 285.00,157.00 284.00,157.00 283.00,157.00 282.00,157.00 281.00,156.00 280.00,156.00 279.00,156.00 278.00,156.00 277.00,156.00 276.00,155.00 275.00,155.00 274.00,155.00 273.00,155.00 272.00,155.00 271.00,154.00 270.00,154.00 269.00,154.00 268.00,154.00 267.00,154.00 266.00,153.00 265.00,153.00 264.00,153.00 263.00,153.00 262.00,153.00 261.00,153.00 260.00,152.00 259.00,152.00 258.00,152.00 257.00,152.00 256.00,152.00 255.00,152.00 254.00,151.00 253.00,151.00 252.00,151.00 251.00,151.00 250.00,151.00 249.00,151.00 248.00,151.00 247.00,151.00 246.00,150.00 245.00,150.00 244.00,150.00 243.00,150.00 242.00,150.00 241.00,150.00 240.00,150.00 239.00,150.00 238.00,149.00 237.00,149.00 236.00,150.00 235.00,150.00 234.00,150.00 233.00,150.00 232.00,150.00 231.00,150.00 230.00,150.00 229.00,150.00 228.00,151.00 227.00,151.00 226.00,151.00 225.00,151.00 224.00,151.00 223.00,151.00 222.00,151.00 221.00,151.00 220.00,152.00 219.00,152.00 218.00,152.00 217.00,152.00 216.00,152.00 215.00,152.00 214.00,152.00 213.00,153.00 212.00,153.00 211.00,153.00 210.00,153.00 209.00,153.00 208.00,153.00 207.00,154.00 206.00,154.00 205.00,154.00 204.00,154.00 203.00,154.00 202.00,154.00 201.00,155.00 200.00,155.00 199.00,155.00 198.00,155.00 197.00,155.00 196.00,156.00 195.00,156.00 194.00,157.00 193.00,157.00 192.00,157.00 191.00,157.00 190.00,158.00 189.00,158.00 188.00,159.00 187.00,159.00 186.00,159.00 185.00,160.00 184.00,161.00 183.00,161.00 182.00,162.00 181.00,162.00 180.00,163.00 179.00,164.00 178.00,164.00 177.00,165.00 176.00,166.00 175.00,167.00 174.00,168.00 173.00,169.00 172.00,170.00 171.00,171.00 171.00,172.00 170.00,173.00 169.00,174.00 169.00,175.00 168.00,176.00 168.00,177.00 168.00,178.00 167.00,179.00 167.00,180.00 167.00,181.00 167.00,182.00 168.00,183.00 168.00,184.00 169.00,185.00 169.00,186.00 170.00,187.00 170.00,188.00 170.00,189.00 171.00,190.00 171.00,191.00 172.00,192.00 172.00,193.00 173.00,194.00 173.00,195.00 174.00,196.00 174.00,197.00 175.00,198.00 175.00,199.00 176.00,200.00 176.00,201.00 177.00,202.00 178.00,203.00 178.00,204.00 179.00,205.00 179.00,206.00 180.00,207.00 180.00,208.00 181.00,209.00 182.00,210.00 182.00,211.00 183.00,212.00 184.00,213.00 184.00,214.00 185.00,215.00 186.00,216.00 186.00,217.00 187.00,218.00 188.00,219.00 189.00,220.00 189.00,221.00 190.00,222.00 191.00,223.00 191.00,224.00 192.00,225.00 193.00,226.00 194.00,227.00 195.00,228.00 195.00,229.00 196.00,230.00 197.00,231.00 198.00,232.00 199.00,233.00 199.00,234.00 200.00,235.00 201.00,236.00 202.00,237.00 203.00,238.00 204.00,239.00 205.00,240.00 206.00,241.00 206.00,242.00 207.00,243.00 208.00,244.00 209.00,245.00 210.00,246.00 211.00,247.00 212.00,248.00 213.00,248.00 214.00,249.00 215.00,249.00 216.00,250.00 217.00,250.00 218.00,251.00 219.00,251.00 220.00,251.00 221.00,252.00 222.00,253.00 223.00,253.00 224.00,253.00 225.00,253.00 226.00,254.00 227.00,254.00 228.00,254.00 229.00,254.00 230.00,254.00 231.00,254.00 232.00,255.00 233.00,255.00 234.00,255.00 235.00,255.00 236.00,255.00 237.00,255.00 238.00,255.00 239.00,255.00 240.00,256.00 241.00,256.00 242.00,256.00 243.00,256.00 244.00,256.00 245.00,256.00 246.00,256.00 247.00,257.00 248.00,257.00 249.00,257.00 250.00,257.00 251.00,257.00 252.00,257.00 253.00,257.00 254.00,257.00 255.00,257.00 256.00,257.00 257.00,257.00 258.00,257.00 259.00,258.00 260.00,258.00 261.00,258.00 262.00,258.00 263.00,258.00 264.00,258.00 265.00,258.00 266.00,258.00 267.00,258.00 268.00,259.00 269.00,259.00 270.00,259.00 271.00,259.00 272.00,259.00 273.00,259.00 274.00,259.00 275.00,259.00 276.00,259.00 277.00,260.00 278.00,260.00 279.00,260.00 280.00,260.00 281.00,260.00 282.00,260.00 283.00,261.00 284.00,261.00 285.00,261.00 286.00,261.00 287.00,261.00 288.00,262.00 289.00,262.00 290.00,262.00 291.00,262.00 292.00,263.00 293.00,263.00 294.00,263.00 295.00,264.00 296.00,264.00 297.00,265.00 298.00,265.00 299.00,266.00 300.00,267.00 301.00,268.00 302.00,269.00 303.00,270.00 304.00,271.00 305.00,272.00 306.00,273.00 307.00,274.00 308.00,275.00 309.00,276.00 309.00,277.00 310.00,278.00 311.00,279.00 312.00,280.00 313.00,281.00 314.00,282.00 315.00,283.00 315.00,284.00 316.00,285.00 317.00,286.00 318.00,287.00 319.00,288.00 319.00,289.00 320.00,290.00 321.00,291.00 322.00,292.00 322.00,293.00 323.00,294.00 324.00,295.00 324.00,296.00 325.00,297.00 326.00,298.00 326.00,299.00 327.00,300.00 328.00,301.00 328.00,302.00 329.00,303.00 330.00,304.00 330.00,305.00 331.00,306.00 332.00,307.00 332.00,308.00 333.00,309.00 333.00,310.00 334.00,311.00 334.00,312.00 335.00,313.00 336.00,314.00 336.00,315.00 337.00,316.00 337.00,317.00 338.00,318.00 338.00,319.00 339.00,320.00 339.00,321.00 340.00,322.00 340.00,323.00 340.00,324.00 341.00,325.00 341.00,326.00 342.00,327.00 342.00,328.00 343.00,329.00 343.00,330.00 343.00,331.00 344.00,332.00 344.00,333.00 345.00,334.00 345.00,335.00 344.00,336.00 344.00,337.00 344.00,338.00 343.00,339.00 343.00,340.00 343.00,341.00 342.00,342.00 341.00,343.00 341.00,344.00 340.00,345.00 339.00,346.00 338.00,347.00 337.00,348.00 336.00,349.00 335.00,350.00 334.00,351.00 333.00,351.00 332.00,352.00 331.00,353.00 330.00,353.00 329.00,354.00 328.00,354.00 327.00,355.00 326.00,355.00 325.00,356.00 324.00,356.00 323.00,356.00 322.00,357.00 321.00,357.00 320.00,358.00 319.00,358.00 318.00,358.00 317.00,358.00 316.00,359.00 315.00,359.00 314.00,359.00 313.00,360.00 312.00,360.00 311.00,360.00 310.00,360.00 309.00,360.00 308.00,361.00 307.00,361.00 306.00,361.00 305.00,361.00 304.00,361.00 303.00,361.00 302.00,361.00 301.00,362.00 300.00,362.00 299.00,362.00 298.00,362.00 297.00,362.00 296.00,362.00 295.00,363.00 294.00,363.00 293.00,363.00 292.00,363.00 291.00,363.00 290.00,363.00 289.00,363.00 288.00,363.00 287.00,364.00 286.00,364.00 285.00,364.00 284.00,364.00 283.00,364.00 282.00,364.00 281.00,364.00 280.00,364.00 279.00,365.00 278.00,365.00 277.00,365.00 276.00,365.00 275.00,365.00 274.00,365.00 273.00,365.00 272.00,365.00 271.00,365.00 270.00,365.00 269.00,365.00 268.00,365.00 267.00,365.00 266.00,365.00 265.00,364.00 264.00,364.00 263.00,364.00 262.00,364.00 261.00,364.00 260.00,364.00 259.00,364.00 258.00,363.00 257.00,363.00 256.00,363.00 255.00,363.00 254.00,363.00 253.00,363.00 252.00,362.00 251.00,362.00 250.00,362.00 249.00,362.00 248.00,362.00 247.00,362.00 246.00,361.00 245.00,361.00 244.00,361.00 243.00,361.00 242.00,361.00 241.00,360.00 240.00,360.00 239.00,360.00 238.00,360.00 237.00,360.00 236.00,359.00 235.00,359.00 234.00,359.00 233.00,359.00 232.00,359.00 231.00,358.00 230.00,358.00 229.00,358.00 228.00,358.00 227.00,357.00 226.00,357.00 225.00,357.00 224.00,357.00 223.00,356.00 222.00,356.00 221.00,356.00 220.00,356.00 219.00,355.00 218.00,355.00 217.00,355.00 216.00,355.00 215.00,354.00 214.00,354.00 213.00,354.00 212.00,353.00 211.00,353.00 210.00,353.00 209.00,353.00 208.00,353.00 207.00,353.00 206.00,353.00 205.00,353.00 204.00,353.00 203.00,353.00 202.00,353.00 201.00,353.00 200.00,353.00 199.00,353.00 198.00,353.00 197.00,353.00 196.00,352.00 195.00,352.00 194.00,352.00 193.00,352.00 192.00,352.00 191.00,352.00 190.00,352.00 189.00,351.00 188.00,351.00 187.00,351.00 186.00,351.00 185.00,351.00 184.00,350.00 183.00,350.00 182.00,350.00 181.00,350.00 180.00,349.00 179.00,349.00 178.00,349.00 177.00,348.00 176.00,348.00 175.00,348.00 174.00,347.00 173.00,347.00 172.00,347.00 171.00,346.00 170.00,346.00 169.00,345.00 168.00,345.00 167.00,344.00 166.00,344.00 165.00,343.00 164.00,343.00 163.00,342.00 162.00,341.00 161.00,341.00 160.00,340.00 159.00,339.00 158.00,339.00 157.00,338.00 156.00,337.00 155.00,336.00 154.00,335.00 153.00,336.00 154.00,336.00" />
<circle cx="396.00" cy="116.00" r="2.00" fill="none" stroke="#09f" stroke-width="1"/>
<circle cx="154.00" cy="336.00" r="2.00" fill="none" stroke="#09f" stroke-width="1"/>
<polyline fill="none" stroke="#09f" stroke-width="1" points="116.00,398.00 117.00,397.00 117.00,396.00 117.00,395.00 117.00,394.00 118.00,393.00 118.00,392.00 118.00,391.00 119.00,390.00 119.00,389.00 119.00,388.00 119.00,387.00 120.00,386.00 120.00,385.00 120.00,384.00 120.00,383.00 121.00,382.00 121.00,381.00 121.00,380.00 122.00,379.00 122.00,378.00 122.00,377.00 122.00,376.00 123.00,375.00 123.00,374.00 123.00,373.00 123.00,372.00 124.00,371.00 124.00,370.00 124.00,369.00 125.00,368.00 125.00,367.00 125.00,366.00 125.00,365.00 126.00,364.00 126.00,363.00 127.00,362.00 128.00,361.00 129.00,360.00 130.00,359.00 131.00,358.00 132.00,357.00 133.00,356.00 134.00,355.00 135.00,354.00 136.00,353.00 137.00,352.00 138.00,351.00 139.00,350.00 140.00,349.00 141.00,348.00 142.00,347.00 143.00,346.00 144.00,345.00 145.00,344.00 146.00,343.00 147.00,342.00 148.00,341.00 149.00,340.00 150.00,339.00 151.00,338.00 152.00,337.00" />
<circle cx="116.00" cy="398.00" r="2.00" fill="none" stroke="#09f" stroke-width="1"/>
<circle cx="152.00" cy="337.00" r="2.00" fill="none" stroke="#09f" stroke-width="1"/>
</svg>