<svg xmlns="http://www.w3.org/2000/svg" width="500" height="500" viewBox="0 0 500 500">
<polyline fill="none" stroke="#666" stroke-width="1" stroke-dasharray="2,3" points="419.00,330.50 418.00,330.50 417.00,330.50 416.00,330.50 415.00,330.50 414.00,330.50 413.00,330.50 412.00,330.50 411.00,330.50 410.00,330.50 409.00,330.50 408.00,330.50 407.00,330.50 406.00,330.50 405.00,330.50 404.00,330.50 403.00,330.50 402.00,330.50 401.00,330.50 400.00,330.50 399.00,330.50 398.00,330.50 397.00,330.50 396.00,330.50 395.00,330.50 394.00,330.50 393.00,330.50 392.00,330.50 391.00,330.50 390.00,330.50 389.00,330.50 388.00,330.50 387.00,330.50 386.00,330.50 385.00,330.50 384.00,330.50 383.00,330.50 382.00,330.50 381.00,330.50 380.00,330.50 379.00,330.50 378.00,330.50 377.00,330.50 376.00,330.50 375.00,330.50 374.00,330.50 373.00,330.50 372.00,330.50 371.00,330.50 370.00,330.50 369.00,330.50 368.00,330.50 367.00,330.50 366.00,330.50 365.00,330.50 364.00,330.50 363.00,330.50 362.00,330.50 361.00,330.50 360.00,330.50 359.00,330.50 358.00,330.50 357.00,330.50 356.00,330.50 355.00,330.50 354.00,330.50 353.00,330.50 352.00,330.50 351.00,330.50 350.00,330.50 349.00,330.50 348.00,330.50 347.00,330.50 346.00,330.50 345.00,330.50 344.00,330.50 343.00,330.50 342.00,330.50 341.00,330.50 340.00,330.50 339.00,330.50 338.00,330.50 337.00,330.50 336.00,330.50 335.00,330.50 334.00,330.50 333.00,330.50 332.00,330.50 331.00,330.50 330.00,330.50 329.00,330.50 328.00,330.50 327.00,330.50 326.00,330.50 325.00,330.50 324.00,330.50 323.00,330.50 322.00,330.50 321.00,330.50 320.00,330.50 319.00,330.50 318.00,330.50 317.00,330.50 316.00,330.50 315.00,330.50 314.00,330.50 313.00,330.50 312.00,330.50 311.00,330.50 310.00,330.50 309.00,330.50 308.00,330.50 307.00,330.50 306.00,330.50 305.00,330.50 304.00,330.50 303.50,330.00 303.00,329.50 302.00,329.50 301.50,329.00 301.00,328.50 300.50,328.00 300.00,327.50 299.50,327.00 299.00,326.50 298.50,326.00 298.00,325.50 297.50,325.00 297.00,324.50 296.50,324.00 296.00,323.50 295.50,323.00 295.00,322.50 294.50,322.00 294.00,321.50 293.50,321.00 293.50,320.00 293.00,319.50 292.50,319.00 292.00,318.50 291.50,318.00 291.00,317.50 290.50,317.00 290.00,316.50 289.50,316.00 289.00,315.50 288.50,315.00 288.00,314.50 287.50,314.00 287.00,313.50 286.50,313.00 286.00,312.50 285.50,312.00 285.00,311.50 284.50,311.00 284.00,310.50 283.50,310.00 283.00,309.50 282.50,309.00 282.00,308.50 281.50,308.00 281.00,307.50 280.50,307.00 280.00,306.50 279.50,306.00 279.00,305.50 278.50,305.00 278.00,304.50 277.50,304.00 277.00,303.50 276.50,303.00 276.00,302.50 275.50,302.00 275.50,301.00 275.00,300.50 274.50,300.00 274.00,299.50 273.50,299.00 273.00,298.50 272.50,298.00 272.00,297.50 271.50,297.00 271.00,296.50 270.50,296.00 270.00,295.50 269.50,295.00 269.00,294.50 268.50,294.00 268.00,293.50 267.50,293.00 267.00,292.50 266.50,292.00 266.00,291.50 265.50,291.00 265.00,290.50 264.50,290.00 264.00,289.50 263.50,289.00 263.00,288.50 262.50,288.00 262.00,287.50 261.50,287.00 261.00,286.50 260.50,286.00 260.00,285.50 259.50,285.00 259.00,284.50 258.50,284.00 258.50,283.00 258.00,282.50 257.50,282.00 257.00,281.50 256.50,281.00 256.00,280.50 255.50,280.00 255.00,279.50 254.50,279.00 254.00,278.50 253.50,278.00 253.00,277.50 252.50,277.00 252.00,276.50 251.50,276.00 251.00,275.50 250.50,275.00 250.00,274.50 249.50,274.00 249.00,273.50 248.50,273.00 248.00,272.50 247.50,272.00 247.00,271.50 246.50,271.00 246.00,270.50 245.50,270.00 245.00,269.50 244.50,269.00 244.00,268.50 243.50,268.00 243.00,267.50 242.50,267.00 242.00,266.50 241.50,266.00 241.00,265.50 240.50,265.00 240.50,264.00 240.00,263.50 239.50,263.00 239.00,262.50 238.50,262.00 238.00,261.50 237.50,261.00 237.00,260.50 236.50,260.00 236.00,259.50 235.50,259.00 235.00,258.50 234.50,258.00 234.00,257.50 233.50,257.00 233.00,256.50 232.50,256.00 232.00,255.50 231.50,255.00 231.00,254.50 230.50,254.00 230.00,253.50 229.50,253.00 229.00,252.50 228.50,252.00 228.00,251.50 227.50,251.00 227.00,250.50 226.50,250.00 226.00,249.50 225.50,249.00 225.00,248.50 224.50,248.00 224.00,247.50 223.50,247.00 223.00,246.50 222.50,246.00 222.50,245.00 222.00,244.50 221.50,244.00 221.00,243.50 220.50,243.00 220.00,242.50 219.50,242.00 219.00,241.50 218.50,241.00 218.00,240.50 217.50,240.00 217.00,239.50 216.50,239.00 216.00,238.50 215.50,238.00 215.00,237.50 214.50,237.00 214.00,236.50 213.50,236.00 213.00,235.50 212.50,235.00 212.00,234.50 211.50,234.00 211.00,233.50 210.50,233.00 210.00,232.50 209.50,232.00 209.00,231.50 208.50,231.00 208.00,230.50 207.50,230.00 207.00,229.50 206.50,229.00 206.00,228.50 205.50,228.00 205.50,227.00 205.00,226.50 204.50,226.00 204.00,225.50 203.50,225.00 203.00,224.50 202.50,224.00 202.00,223.50 201.50,223.00 201.00,222.50 200.50,222.00 200.00,221.50 199.50,221.00 199.00,220.50 198.50,220.00 198.00,219.50 197.50,219.00 197.00,218.50 196.50,218.00 196.00,217.50 195.50,217.00 195.00,216.50 194.50,216.00 194.00,215.50 193.50,215.00 193.00,214.50 192.50,214.00 192.00,213.50 191.50,213.00 191.00,212.50 190.50,212.00 190.00,211.50 189.50,211.00 189.00,210.50 188.50,210.00 188.00,209.50 187.50,209.00 187.50,208.00 187.00,207.50 186.50,207.00 186.00,206.50 185.50,206.00 185.00,205.50 184.50,205.00 184.00,204.50 183.50,204.00 183.00,203.50 182.50,203.00 182.00,202.50 181.50,202.00 181.00,201.50 180.50,201.00 180.00,200.50 179.50,200.00 179.00,199.50 178.50,199.00 178.00,198.50 177.50,198.00 177.00,197.50 176.50,197.00 176.00,196.50 175.50,196.00 175.00,195.50 174.50,195.00 174.00,194.50 173.50,195.00 173.50,196.00 173.50,197.00 173.50,198.00 173.50,199.00 173.50,200.00 173.50,201.00 173.50,202.00 173.50,203.00 173.50,204.00 173.50,205.00 173.50,206.00 173.50,207.00 173.50,208.00 173.50,209.00 173.50,210.00 173.50,211.00 173.50,212.00 173.50,213.00 173.50,214.00 173.50,215.00 173.50,216.00 173.50,217.00 173.50,218.00 173.50,219.00 173.50,220.00 173.50,221.00 173.50,222.00 173.50,223.00 173.50,224.00 173.50,225.00 173.50,226.00 173.50,227.00 173.50,228.00 173.50,229.00 173.50,230.00 173.50,231.00 173.50,232.00 173.50,233.00 173.50,234.00 173.50,235.00 173.50,236.00 173.50,237.00 173.50,238.00 173.50,239.00 173.50,240.00 173.50,241.00 173.50,242.00 173.50,243.00 173.50,244.00 173.50,245.00 173.50,246.00 173.50,247.00 173.50,248.00 173.50,249.00 173.50,250.00 173.50,251.00 173.50,252.00 173.50,253.00 173.50,254.00 173.50,255.00 173.50,256.00 173.50,257.00 173.50,258.00 173.50,259.00 173.50,260.00 173.50,261.00 173.50,262.00 173.50,263.00 173.50,264.00 173.50,265.00 173.50,266.00 173.50,267.00 173.50,268.00 173.50,269.00 173.50,270.00 173.50,271.00 173.50,272.00 173.50,273.00 173.50,274.00 173.50,275.00 173.50,276.00 173.50,277.00 173.50,278.00 173.50,279.00 173.50,280.00 173.50,281.00 173.50,282.00 173.50,283.00 173.50,284.00 173.50,285.00 173.50,286.00 173.50,287.00 173.50,288.00 173.50,289.00 173.50,290.00 173.50,291.00 173.50,292.00 173.50,293.00 173.50,294.00 173.50,295.00 173.50,296.00 173.50,297.00 173.50,298.00 173.50,299.00 173.50,300.00 173.50,301.00 173.50,302.00 173.50,303.00 173.50,304.00 173.50,305.00 173.50,306.00 173.50,307.00 173.50,308.00 173.50,309.00 173.50,310.00 173.50,311.00 173.50,312.00 173.50,313.00 173.50,314.00 173.50,315.00 173.50,316.00 173.50,317.00 173.50,318.00 173.50,319.00 173.50,320.00 173.50,321.00 173.50,322.00 173.50,323.00 173.50,324.00 173.50,325.00 173.50,326.00 173.50,327.00 173.50,328.00 173.50,329.00 173.50,330.00 173.00,330.50 172.00,330.50 171.00,330.50 170.00,330.50 169.00,330.50 168.00,330.50 167.00,330.50 166.00,330.50 165.00,330.50 164.00,330.50 163.00,330.50 162.00,330.50 161.00,330.50 160.00,330.50 159.00,330.50 158.00,330.50 157.00,330.50 156.00,330.50 155.00,330.50 154.00,330.50 153.00,330.50 152.00,330.50 151.00,330.50 150.00,330.50 149.00,330.50 148.00,330.50 147.00,330.50 146.00,330.50 145.00,330.50 144.00,330.50 143.00,330.50 142.00,330.50 141.00,330.50 140.00,330.50 139.00,330.50 138.00,330.50 137.00,330.50 136.00,330.50 135.00,330.50 134.00,330.50 133.00,330.50 132.00,330.50 131.00,330.50 130.00,330.50 129.00,330.50 128.00,330.50 127.00,330.50 126.00,330.50 125.00,330.50 124.00,330.50 123.00,330.50 122.00,330.50 121.00,330.50 120.00,330.50 119.00,330.50 118.00,330.50 117.00,330.50 116.00,330.50 115.00,330.50 114.00,330.50 113.00,330.50 112.00,330.50 111.00,330.50 110.00,330.50 109.00,330.50 108.00,330.50 107.00,330.50 106.00,330.50 105.00,330.50 104.00,330.50 103.00,330.50 102.00,330.50 101.00,330.50 100.00,330.50 99.00,330.50 98.00,330.50 97.00,330.50 96.00,330.50 95.00,330.50 94.00,330.50 93.00,330.50 92.00,330.50 91.00,330.50 90.00,330.50 89.00,330.50 88.00,330.50 87.00,330.50 86.00,330.50 85.00,330.50 84.00,330.50 83.00,330.50 82.00,330.50 81.00,330.50 80.00,330.50 79.00,330.50 78.00,330.50 77.00,330.50 76.00,330.50 75.00,330.50 74.00,330.50 73.00,330.50 72.00,330.50 71.00,330.50 70.00,330.50 69.00,330.50 68.00,330.50 67.00,330.50 66.00,330.50 65.00,330.50 64.00,330.50 63.00,330.50 62.00,330.50 61.00,330.50 60.00,330.50 59.00,330.50 58.50,330.00 58.50,329.00 58.50,328.00 58.50,327.00 58.50,326.00 58.50,325.00 58.50,324.00 58.50,323.00 58.50,322.00 58.50,321.00 58.50,320.00 58.50,319.00 58.50,318.00 58.50,317.00 58.50,316.00 58.50,315.00 58.50,314.00 58.50,313.00 58.50,312.00 58.50,311.00 58.50,310.00 58.50,309.00 58.50,308.00 58.50,307.00 58.50,306.00 58.50,305.00 58.50,304.00 58.50,303.00 58.50,302.00 58.50,301.00 58.50,300.00 58.50,299.00 58.50,298.00 58.50,297.00 58.50,296.00 58.50,295.00 58.50,294.00 58.50,293.00 58.50,292.00 58.50,291.00 58.50,290.00 58.50,289.00 58.50,288.00 58.50,287.00 58.50,286.00 58.50,285.00 58.50,284.00 58.50,283.00 58.50,282.00 58.50,281.00 58.50,280.00 58.50,279.00 58.50,278.00 58.50,277.00 58.50,276.00 58.50,275.00 58.50,274.00 58.50,273.00 58.50,272.00 58.50,271.00 58.50,270.00 58.50,269.00 58.50,268.00 58.50,267.00 58.50,266.00 58.50,265.00 58.50,264.00 58.50,263.00 58.50,262.00 58.50,261.00 58.50,260.00 58.50,259.00 58.50,258.00 58.50,257.00 58.50,256.00 58.50,255.00 58.50,254.00 58.50,253.00 58.50,252.00 58.50,251.00 58.50,250.00 58.50,249.00 58.50,248.00 58.50,247.00 58.50,246.00 58.50,245.00 58.50,244.00 58.50,243.00 58.50,242.00 58.50,241.00 58.50,240.00 58.50,239.00 58.50,238.00 58.50,237.00 58.50,236.00 58.50,235.00 58.50,234.00 58.50,233.00 58.50,232.00 58.50,231.00 58.50,230.00 58.50,229.00 58.50,228.00 58.50,227.00 58.50,226.00 58.50,225.00 58.50,224.00 58.50,223.00 58.50,222.00 58.50,221.00 58.50,220.00 58.50,219.00 58.50,218.00 58.50,217.00 58.50,216.00 58.50,215.00 58.50,214.00 58.50,213.00 58.50,212.00 58.50,211.00 58.50,210.00 58.50,209.00 58.50,208.00 58.50,207.00 58.50,206.00 58.50,205.00 58.50,204.00 58.50,203.00 58.50,202.00 58.50,201.00 58.50,200.00 58.50,199.00 58.50,198.00 58.50,197.00 58.50,196.00 58.50,195.00 58.50,194.00 58.50,193.00 58.50,192.00 58.50,191.00 58.50,190.00 58.50,189.00 58.50,188.00 58.50,187.00 58.50,186.00 58.50,185.00 58.50,184.00 58.50,183.00 58.50,182.00 58.50,181.00 58.50,180.00 58.50,179.00 58.50,178.00 58.50,177.00 58.50,176.00 58.50,175.00 58.50,174.00 58.50,173.00 58.50,172.00 58.50,171.00 58.50,170.00 58.50,169.00 58.50,168.00 58.50,167.00 58.50,166.00 58.50,165.00 58.50,164.00 58.50,163.00 58.50,162.00 58.50,161.00 58.50,160.00 58.50,159.00 58.50,158.00 58.50,157.00 58.50,156.00 58.50,155.00 58.50,154.00 58.50,153.00 58.50,152.00 58.50,151.00 58.50,150.00 58.50,149.00 58.50,148.00 58.50,147.00 58.50,146.00 58.50,145.00 58.50,144.00 58.50,143.00 58.50,142.00 58.50,141.00 58.50,140.00 58.50,139.00 58.50,138.00 58.50,137.00 58.50,136.00 58.50,135.00 58.50,134.00 58.50,133.00 58.50,132.00 58.50,131.00 58.50,130.00 58.50,129.00 58.50,128.00 58.50,127.00 58.50,126.00 58.50,125.00 58.50,124.00 58.50,123.00 58.50,122.00 58.50,121.00 58.50,120.00 58.50,119.00 58.50,118.00 58.50,117.00 59.00,116.50 60.00,116.50 61.00,116.50 62.00,116.50 63.00,116.50 64.00,116.50 65.00,116.50 66.00,116.50 67.00,116.50 68.00,116.50 69.00,116.50 70.00,116.50 71.00,116.50 72.00,116.50 73.00,116.50 74.00,116.50 75.00,116.50 76.00,116.50 77.00,116.50 78.00,116.50 79.00,116.50 80.00,116.50 81.00,116.50 82.00,116.50 83.00,116.50 84.00,116.50 85.00,116.50 86.00,116.50 87.00,116.50 88.00,116.50 89.00,116.50 90.00,116.50 91.00,116.50 92.00,116.50 93.00,116.50 94.00,116.50 95.00,116.50 96.00,116.50 97.00,116.50 98.00,116.50 99.00,116.50 100.00,116.50 101.00,116.50 102.00,116.50 103.00,116.50 104.00,116.50 105.00,116.50 106.00,116.50 107.00,116.50 108.00,116.50 109.00,116.50 110.00,116.50 111.00,116.50 112.00,116.50 113.00,116.50 114.00,116.50 115.00,116.50 116.00,116.50 117.00,116.50 118.00,116.50 119.00,116.50 120.00,116.50 121.00,116.50 122.00,116.50 123.00,116.50 124.00,116.50 125.00,116.50 126.00,116.50 127.00,116.50 128.00,116.50 129.00,116.50 130.00,116.50 131.00,116.50 132.00,116.50 133.00,116.50 134.00,116.50 135.00,116.50 136.00,116.50 137.00,116.50 138.00,116.50 139.00,116.50 140.00,116.50 141.00,116.50 142.00,116.50 143.00,116.50 144.00,116.50 145.00,116.50 146.00,116.50 147.00,116.50 148.00,116.50 149.00,116.50 150.00,116.50 151.00,116.50 152.00,116.50 153.00,116.50 154.00,116.50 155.00,116.50 156.00,116.50 157.00,116.50 158.00,116.50 159.00,116.50 160.00,116.50 161.00,116.50 162.00,116.50 163.00,116.50 164.00,116.50 165.00,116.50 166.00,116.50 167.00,116.50 168.00,116.50 169.00,116.50 170.00,116.50 171.00,116.50 172.00,116.50 173.00,116.50 173.50,117.00 173.50,118.00 174.00,118.50 174.50,119.00 175.00,119.50 175.50,120.00 176.00,120.50 176.50,121.00 177.00,121.50 177.50,122.00 178.00,122.50 178.50,123.00 179.00,123.50 179.50,124.00 180.00,124.50 180.50,125.00 181.00,125.50 181.50,126.00 182.00,126.50 182.50,127.00 183.00,127.50 183.50,128.00 184.00,128.50 184.50,129.00 185.00,129.50 185.50,130.00 186.00,130.50 186.50,131.00 186.50,132.00 187.00,132.50 187.50,133.00 188.00,133.50 188.50,134.00 189.00,134.50 189.50,135.00 190.00,135.50 190.50,136.00 191.00,136.50 191.50,137.00 192.00,137.50 192.50,138.00 193.00,138.50 193.50,139.00 194.00,139.50 194.50,140.00 195.00,140.50 195.50,141.00 196.00,141.50 196.50,142.00 197.00,142.50 197.50,143.00 198.00,143.50 198.50,144.00 199.00,144.50 199.50,145.00 200.00,145.50 200.50,146.00 201.00,146.50 201.50,147.00 202.00,147.50 202.50,148.00 203.00,148.50 203.50,149.00 204.00,149.50 204.50,150.00 204.50,151.00 205.00,151.50 205.50,152.00 206.00,152.50 206.50,153.00 207.00,153.50 207.50,154.00 208.00,154.50 208.50,155.00 209.00,155.50 209.50,156.00 210.00,156.50 210.50,157.00 211.00,157.50 211.50,158.00 212.00,158.50 212.50,159.00 213.00,159.50 213.50,160.00 214.00,160.50 214.50,161.00 215.00,161.50 215.50,162.00 216.00,162.50 216.50,163.00 217.00,163.50 217.50,164.00 218.00,164.50 218.50,165.00 219.00,165.50 219.50,166.00 220.00,166.50 220.50,167.00 221.00,167.50 221.50,168.00 221.50,169.00 222.00,169.50 222.50,170.00 223.00,170.50 223.50,171.00 224.00,171.50 224.50,172.00 225.00,172.50 225.50,173.00 226.00,173.50 226.50,174.00 227.00,174.50 227.50,175.00 228.00,175.50 228.50,176.00 229.00,176.50 229.50,177.00 230.00,177.50 230.50,178.00 231.00,178.50 231.50,179.00 232.00,179.50 232.50,180.00 233.00,180.50 233.50,181.00 234.00,181.50 234.50,182.00 235.00,182.50 235.50,183.00 236.00,183.50 236.50,184.00 237.00,184.50 237.50,185.00 238.00,185.50 238.50,186.00 239.00,186.50 239.50,187.00 239.50,188.00 240.00,188.50 240.50,189.00 241.00,189.50 241.50,190.00 242.00,190.50 242.50,191.00 243.00,191.50 243.50,192.00 244.00,192.50 244.50,193.00 245.00,193.50 245.50,194.00 246.00,194.50 246.50,195.00 247.00,195.50 247.50,196.00 248.00,196.50 248.50,197.00 249.00,197.50 249.50,198.00 250.00,198.50 250.50,199.00 251.00,199.50 251.50,200.00 252.00,200.50 252.50,201.00 253.00,201.50 253.50,202.00 254.00,202.50 254.50,203.00 255.00,203.50 255.50,204.00 256.00,204.50 256.50,205.00 257.00,205.50 257.50,206.00 257.50,207.00 258.00,207.50 258.50,208.00 259.00,208.50 259.50,209.00 260.00,209.50 260.50,210.00 261.00,210.50 261.50,211.00 262.00,211.50 262.50,212.00 263.00,212.50 263.50,213.00 264.00,213.50 264.50,214.00 265.00,214.50 265.50,215.00 266.00,215.50 266.50,216.00 267.00,216.50 267.50,217.00 268.00,217.50 268.50,218.00 269.00,218.50 269.50,219.00 270.00,219.50 270.50,220.00 271.00,220.50 271.50,221.00 272.00,221.50 272.50,222.00 273.00,222.50 273.50,223.00 274.00,223.50 274.50,224.00 275.00,224.50 275.50,225.00 275.50,226.00 276.00,226.50 276.50,227.00 277.00,227.50 277.50,228.00 278.00,228.50 278.50,229.00 279.00,229.50 279.50,230.00 280.00,230.50 280.50,231.00 281.00,231.50 281.50,232.00 282.00,232.50 282.50,233.00 283.00,233.50 283.50,234.00 284.00,234.50 284.50,235.00 285.00,235.50 285.50,236.00 286.00,236.50 286.50,237.00 287.00,237.50 287.50,238.00 288.00,238.50 288.50,239.00 289.00,239.50 289.50,240.00 290.00,240.50 290.50,241.00 291.00,241.50 291.50,242.00 292.00,242.50 292.50,243.00 292.50,244.00 293.00,244.50 293.50,245.00 294.00,245.50 294.50,246.00 295.00,246.50 295.50,247.00 296.00,247.50 296.50,248.00 297.00,248.50 297.50,249.00 298.00,249.50 298.50,250.00 299.00,250.50 299.50,251.00 300.00,251.50 300.50,252.00 301.00,252.50 301.50,253.00 302.00,253.50 302.50,254.00 303.00,254.50 303.50,254.00 303.50,253.00 303.50,252.00 303.50,251.00 303.50,250.00 303.50,249.00 303.50,248.00 303.50,247.00 303.50,246.00 303.50,245.00 303.50,244.00 303.50,243.00 303.50,242.00 303.50,241.00 303.50,240.00 303.50,239.00 303.50,238.00 303.50,237.00 303.50,236.00 303.50,235.00 303.50,234.00 303.50,233.00 303.50,232.00 303.50,231.00 303.50,230.00 303.50,229.00 303.50,228.00 303.50,227.00 303.50,226.00 303.50,225.00 303.50,224.00 303.50,223.00 303.50,222.00 303.50,221.00 303.50,220.00 303.50,219.00 303.50,218.00 303.50,217.00 303.50,216.00 303.50,215.00 303.50,214.00 303.50,213.00 303.50,212.00 303.50,211.00 303.50,210.00 303.50,209.00 303.50,208.00 303.50,207.00 303.50,206.00 303.50,205.00 303.50,204.00 303.50,203.00 303.50,202.00 303.50,201.00 303.50,200.00 303.50,199.00 303.50,198.00 303.50,197.00 303.50,196.00 303.50,195.00 303.50,194.00 303.50,193.00 303.50,192.00 303.50,191.00 303.50,190.00 303.50,189.00 303.50,188.00 303.50,187.00 303.50,186.00 303.50,185.00 303.50,184.00 303.50,183.00 303.50,182.00 303.50,181.00 303.50,180.00 303.50,179.00 303.50,178.00 303.50,177.00 303.50,176.00 303.50,175.00 303.50,174.00 303.50,173.00 303.50,172.00 303.50,171.00 303.50,170.00 303.50,169.00 303.50,168.00 303.50,167.00 303.50,166.00 303.50,165.00 303.50,164.00 303.50,163.00 303.50,162.00 303.50,161.00 303.50,160.00 303.50,159.00 303.50,158.00 303.50,157.00 303.50,156.00 303.50,155.00 303.50,154.00 303.50,153.00 303.50,152.00 303.50,151.00 303.50,150.00 303.50,149.00 303.50,148.00 303.50,147.00 303.50,146.00 303.50,145.00 303.50,144.00 303.50,143.00 303.50,142.00 303.50,141.00 303.50,140.00 303.50,139.00 303.50,138.00 303.50,137.00 303.50,136.00 303.50,135.00 303.50,134.00 303.50,133.00 303.50,132.00 303.50,131.00 303.50,130.00 303.50,129.00 303.50,128.00 303.50,127.00 303.50,126.00 303.50,125.00 303.50,124.00 303.50,123.00 303.50,122.00 303.50,121.00 303.50,120.00 303.50,119.00 303.50,118.00 303.50,117.00 304.00,116.50 305.00,116.50 306.00,116.50 307.00,116.50 308.00,116.50 309.00,116.50 310.00,116.50 311.00,116.50 312.00,116.50 313.00,116.50 314.00,116.50 315.00,116.50 316.00,116.50 317.00,116.50 318.00,116.50 319.00,116.50 320.00,116.50 321.00,116.50 322.00,116.50 323.00,116.50 324.00,116.50 325.00,116.50 326.00,116.50 327.00,116.50 328.00,116.50 329.00,116.50 330.00,116.50 331.00,116.50 332.00,116.50 333.00,116.50 334.00,116.50 335.00,116.50 336.00,116.50 337.00,116.50 338.00,116.50 339.00,116.50 340.00,116.50 341.00,116.50 342.00,116.50 343.00,116.50 344.00,116.50 345.00,116.50 346.00,116.50 347.00,116.50 348.00,116.50 349.00,116.50 350.00,116.50 351.00,116.50 352.00,116.50 353.00,116.50 354.00,116.50 355.00,116.50 356.00,116.50 357.00,116.50 358.00,116.50 359.00,116.50 360.00,116.50 361.00,116.50 362.00,116.50 363.00,116.50 364.00,116.50 365.00,116.50 366.00,116.50 367.00,116.50 368.00,116.50 369.00,116.50 370.00,116.50 371.00,116.50 372.00,116.50 373.00,116.50 374.00,116.50 375.00,116.50 376.00,116.50 377.00,116.50 378.00,116.50 379.00,116.50 380.00,116.50 381.00,116.50 382.00,116.50 383.00,116.50 384.00,116.50 385.00,116.50 386.00,116.50 387.00,116.50 388.00,116.50 389.00,116.50 390.00,116.50 391.00,116.50 392.00,116.50 393.00,116.50 394.00,116.50 395.00,116.50 396.00,116.50 397.00,116.50 398.00,116.50 399.00,116.50 400.00,116.50 401.00,116.50 402.00,116.50 403.00,116.50 404.00,116.50 405.00,116.50 406.00,116.50 407.00,116.50 408.00,116.50 409.00,116.50 410.00,116.50 411.00,116.50 412.00,116.50 413.00,116.50 414.00,116.50 415.00,116.50 416.00,116.50 417.00,116.50 418.00,116.50 419.00,116.50 419.50,117.00 419.50,118.00 419.50,119.00 419.50,120.00 419.50,121.00 419.50,122.00 419.50,123.00 419.50,124.00 419.50,125.00 419.50,126.00 419.50,127.00 419.50,128.00 419.50,129.00 419.50,130.00 419.50,131.00 419.50,132.00 419.50,133.00 419.50,134.00 419.50,135.00 419.50,136.00 419.50,137.00 419.50,138.00 419.50,139.00 419.50,140.00 419.50,141.00 419.50,142.00 419.50,143.00 419.50,144.00 419.50,145.00 419.50,146.00 419.50,147.00 419.50,148.00 419.50,149.00 419.50,150.00 419.50,151.00 419.50,152.00 419.50,153.00 419.50,154.00 419.50,155.00 419.50,156.00 419.50,157.00 419.50,158.00 419.50,159.00 419.50,160.00 419.50,161.00 419.50,162.00 419.50,163.00 419.50,164.00 419.50,165.00 419.50,166.00 419.50,167.00 419.50,168.00 419.50,169.00 419.50,170.00 419.50,171.00 419.50,172.00 419.50,173.00 419.50,174.00 419.50,175.00 419.50,176.00 419.50,177.00 419.50,178.00 419.50,179.00 419.50,180.00 419.50,181.00 419.50,182.00 419.50,183.00 419.50,184.00 419.50,185.00 419.50,186.00 419.50,187.00 419.50,188.00 419.50,189.00 419.50,190.00 419.50,191.00 419.50,192.00 419.50,193.00 419.50,194.00 419.50,195.00 419.50,196.00 419.50,197.00 419.50,198.00 419.50,199.00 419.50,200.00 419.50,201.00 419.50,202.00 419.50,203.00 419.50,204.00 419.50,205.00 419.50,206.00 419.50,207.00 419.50,208.00 419.50,209.00 419.50,210.00 419.50,211.00 419.50,212.00 419.50,213.00 419.50,214.00 419.50,215.00 419.50,216.00 419.50,217.00 419.50,218.00 419.50,219.00 419.50,220.00 419.50,221.00 419.50,222.00 419.50,223.00 419.50,224.00 419.50,225.00 419.50,226.00 419.50,227.00 419.50,228.00 419.50,229.00 419.50,230.00 419.50,231.00 419.50,232.00 419.50,233.00 419.50,234.00 419.50,235.00 419.50,236.00 419.50,237.00 419.50,238.00 419.50,239.00 419.50,240.00 419.50,241.00 419.50,242.00 419.50,243.00 419.50,244.00 419.50,245.00 419.50,246.00 419.50,247.00 419.50,248.00 419.50,249.00 419.50,250.00 419.50,251.00 419.50,252.00 419.50,253.00 419.50,254.00 419.50,255.00 419.50,256.00 419.50,257.00 419.50,258.00 419.50,259.00 419.50,260.00 419.50,261.00 419.50,262.00 419.50,263.00 419.50,264.00 419.50,265.00 419.50,266.00 419.50,267.00 419.50,268.00 419.50,269.00 419.50,270.00 419.50,271.00 419.50,272.00 419.50,273.00 419.50,274.00 419.50,275.00 419.50,276.00 419.50,277.00 419.50,278.00 419.50,279.00 419.50,280.00 419.50,281.00 419.50,282.00 419.50,283.00 419.50,284.00 419.50,285.00 419.50,286.00 419.50,287.00 419.50,288.00 419.50,289.00 419.50,290.00 419.50,291.00 419.50,292.00 419.50,293.00 419.50,294.00 419.50,295.00 419.50,296.00 419.50,297.00 419.50,298.00 419.50,299.00 419.50,300.00 419.50,301.00 419.50,302.00 419.50,303.00 419.50,304.00 419.50,305.00 419.50,306.00 419.50,307.00 419.50,308.00 419.50,309.00 419.50,310.00 419.50,311.00 419.50,312.00 419.50,313.00 419.50,314.00 419.50,315.00 419.50,316.00 419.50,317.00 419.50,318.00 419.50,319.00 419.50,320.00 419.50,321.00 419.50,322.00 419.50,323.00 419.50,324.00 419.50,325.00 419.50,326.00 419.50,327.00 419.50,328.00 419.50,329.00 419.50,330.00 419.00,330.50" />
<polyline fill="none" stroke="#09f" stroke-width="1" points="362.00,174.00 361.00,175.00 361.00,176.00 361.00,177.00 361.00,178.00 361.00,179.00 361.00,180.00 361.00,181.00 361.00,182.00 361.00,183.00 361.00,184.00 361.00,185.00 361.00,186.00 361.00,187.00 361.00,188.00 361.00,189.00 361.00,190.00 361.00,191.00 361.00,192.00 361.00,193.00 361.00,194.00 361.00,195.00 361.00,196.00 361.00,197.00 361.00,198.00 361.00,199.00 361.00,200.00 361.00,201.00 361.00,202.00 361.00,203.00 361.00,204.00 361.00,205.00 361.00,206.00 361.00,207.00 361.00,208.00 361.00,209.00 361.00,210.00 361.00,211.00 361.00,212.00 361.00,213.00 361.00,214.00 361.00,215.00 361.00,216.00 361.00,217.00 361.00,218.00 361.00,219.00 361.00,220.00 361.00,221.00 361.00,222.00 361.00,223.00 361.00,224.00 361.00,225.00 361.00,226.00 361.00,227.00 361.00,228.00 361.00,229.00 361.00,230.00 361.00,231.00 361.00,232.00 361.00,233.00 361.00,234.00 361.00,235.00 361.00,236.00 361.00,237.00 361.00,238.00 361.00,239.00 361.00,240.00 361.00,241.00 361.00,242.00 361.00,243.00 361.00,244.00 361.00,245.00 361.00,246.00 361.00,247.00 361.00,248.00 361.00,249.00 361.00,250.00 361.00,251.00 361.00,252.00 361.00,253.00 361.00,254.00 361.00,255.00 361.00,256.00 361.00,257.00 361.00,258.00 361.00,259.00 361.00,260.00 361.00,261.00 361.00,262.00 361.00,263.00 361.00,264.00 361.00,265.00 361.00,266.00 361.00,267.00 361.00,268.00 361.00,269.00 361.00,270.00 361.00,271.00 361.00,272.00 360.00,273.00 359.00,274.00 358.00,275.00 357.00,276.00 356.00,277.00 355.00,278.00 354.00,279.00 353.00,280.00 352.00,281.00 351.00,282.00 350.00,283.00 349.00,284.00 348.00,285.00 347.00,286.00 346.00,287.00 345.00,288.00 344.00,289.00 343.00,290.00 342.00,291.00 341.00,291.00 340.00,291.00 339.00,291.00 338.00,291.00 337.00,290.00 336.00,290.00 335.00,290.00 334.00,289.00 333.00,289.00 332.00,289.00 331.00,288.00 330.00,288.00 329.00,288.00 328.00,287.00 327.00,287.00 326.00,286.00 325.00,286.00 324.00,286.00 323.00,285.00 322.00,285.00 321.00,285.00 320.00,284.00 319.00,284.00 318.00,284.00 317.00,283.00 316.00,283.00 315.00,283.00 314.00,282.00 313.00,282.00 312.00,282.00 311.00,281.00 310.00,281.00 309.00,281.00 308.00,280.00 307.00,280.00 306.00,280.00 305.00,279.00 304.00,279.00 303.00,279.00 302.00,278.00 301.00,278.00 300.00,278.00 299.00,277.00 298.00,277.00 297.00,276.00 296.00,276.00 295.00,276.00 294.00,275.00 293.00,275.00 292.00,275.00 291.00,274.00 290.00,274.00 289.00,274.00 288.00,273.00 287.00,273.00 286.00,273.00 285.00,272.00 284.00,272.00 283.00,271.00 282.00,270.00 281.00,269.00 280.00,268.00 279.00,267.00 278.00,266.00 277.00,265.00 276.00,264.00 275.00,263.00 274.00,262.00 273.00,261.00 272.00,260.00 271.00,259.00 270.00,258.00 269.00,257.00 268.00,256.00 267.00,255.00 266.00,254.00 266.00,253.00 265.00,252.00 264.00,251.00 263.00,250.00 262.00,249.00 261.00,248.00 260.00,247.00 259.00,246.00 258.00,245.00 257.00,244.00 256.00,243.00 255.00,242.00 254.00,241.00 253.00,240.00 252.00,239.00 251.00,238.00 250.00,237.00 249.00,236.00 249.00,235.00 248.00,234.00 247.00,233.00 246.00,232.00 245.00,231.00 244.00,230.00 243.00,229.00 242.00,228.00 241.00,227.00 240.00,226.00 239.00,225.00 238.00,224.00 237.00,223.00 236.00,222.00 235.00,221.00 234.00,220.00 233.00,219.00 232.00,218.00 231.00,217.00 231.00,216.00 230.00,215.00 229.00,214.00 228.00,213.00 227.00,212.00 226.00,211.00 225.00,210.00 224.00,209.00 223.00,208.00 222.00,207.00 221.00,206.00 220.00,205.00 219.00,204.00 218.00,203.00 217.00,202.00 216.00,201.00 215.00,200.00 214.00,199.00 213.00,198.00 213.00,197.00 212.00,196.00 211.00,195.00 210.00,194.00 209.00,193.00 208.00,192.00 207.00,191.00 206.00,190.00 205.00,189.00 204.00,188.00 203.00,187.00 202.00,186.00 201.00,185.00 200.00,184.00 199.00,183.00 198.00,182.00 197.00,181.00 196.00,180.00 195.00,179.00 194.00,178.00 193.00,177.00 192.00,176.00 191.00,176.00 190.00,176.00 189.00,175.00 188.00,175.00 187.00,175.00 186.00,174.00 185.00,174.00 184.00,174.00 183.00,173.00 182.00,173.00 181.00,172.00 180.00,172.00 179.00,172.00 178.00,171.00 177.00,171.00 176.00,171.00 175.00,170.00 174.00,170.00 173.00,170.00 172.00,169.00 171.00,169.00 170.00,169.00 169.00,168.00 168.00,168.00 167.00,168.00 166.00,167.00 165.00,167.00 164.00,167.00 163.00,166.00 162.00,166.00 161.00,166.00 160.00,165.00 159.00,165.00 158.00,165.00 157.00,164.00 156.00,164.00 155.00,164.00 154.00,163.00 153.00,163.00 152.00,162.00 151.00,162.00 150.00,162.00 149.00,161.00 148.00,161.00 147.00,161.00 146.00,160.00 145.00,160.00 144.00,160.00 143.00,159.00 142.00,159.00 141.00,159.00 140.00,158.00 139.00,158.00 138.00,158.00 137.00,157.00 136.00,157.00 135.00,157.00 134.00,157.00 133.00,157.00 132.00,158.00 131.00,159.00 130.00,160.00 129.00,161.00 128.00,162.00 127.00,163.00 126.00,164.00 125.00,165.00 124.00,166.00 123.00,167.00 122.00,168.00 121.00,169.00 120.00,170.00 119.00,171.00 118.00,172.00 117.00,173.00 116.00,174.00 116.00,175.00 116.00,176.00 116.00,177.00 116.00,178.00 116.00,179.00 116.00,180.00 116.00,181.00 116.00,182.00 116.00,183.00 116.00,184.00 116.00,185.00 116.00,186.00 116.00,187.00 116.00,188.00 116.00,189.00 116.00,190.00 116.00,191.00 116.00,192.00 116.00,193.00 116.00,194.00 116.00,195.00 116.00,196.00 116.00,197.00 116.00,198.00 116.00,199.00 116.00,200.00 116.00,201.00 116.00,202.00 116.00,203.00 116.00,204.00 116.00,205.00 116.00,206.00 116.00,207.00 116.00,208.00 116.00,209.00 116.00,210.00 116.00,211.00 116.00,212.00 116.00,213.00 116.00,214.00 116.00,215.00 116.00,216.00 116.00,217.00 116.00,218.00 116.00,219.00 116.00,220.00 116.00,221.00 116.00,222.00 116.00,223.00 116.00,224.00 116.00,225.00 116.00,226.00 116.00,227.00 116.00,228.00 116.00,229.00 116.00,230.00 116.00,231.00 116.00,232.00 116.00,233.00 116.00,234.00 116.00,235.00 116.00,236.00 116.00,237.00 116.00,238.00 116.00,239.00 116.00,240.00 116.00,241.00 116.00,242.00 116.00,243.00 116.00,244.00 116.00,245.00 116.00,246.00 116.00,247.00 116.00,248.00 116.00,249.00 116.00,250.00 116.00,251.00 116.00,252.00 116.00,253.00 116.00,254.00 116.00,255.00 116.00,256.00 116.00,257.00 116.00,258.00 116.00,259.00 116.00,260.00 116.00,261.00 116.00,262.00 116.00,263.00 116.00,264.00 116.00,265.00 116.00,266.00 116.00,267.00 116.00,268.00 116.00,269.00 116.00,270.00 116.00,271.00 116.00,272.00 115.00,273.00" />
<circle cx="362.00" cy="174.00" r="2.00" fill="none" stroke="#09f" stroke-width="1"/>
<circle cx="115.00" cy="273.00" r="2.00" fill="none" stroke="#09f" stroke-width="1"/>
</svg>