<svg xmlns="http://www.w3.org/2000/svg" width="283" height="283" viewBox="0 0 283 283">
<polyline fill="none" stroke="#666" stroke-width="1" stroke-dasharray="2,3" points="153.00,254.50 152.00,254.50 151.00,254.50 150.00,254.50 149.00,254.50 148.00,254.50 147.00,254.50 146.00,254.50 145.00,254.50 144.00,254.50 143.00,254.50 142.00,254.50 141.00,254.50 140.00,254.50 139.00,254.50 138.00,254.50 137.00,254.50 136.00,254.50 135.00,254.50 134.00,254.50 133.00,254.50 132.00,254.50 131.00,254.50 130.00,254.50 129.00,254.50 128.00,254.50 127.00,254.50 126.00,254.50 125.00,254.50 124.00,254.50 123.00,254.50 122.00,254.50 121.00,254.50 120.00,254.50 119.00,254.50 118.00,254.50 117.00,254.50 116.00,254.50 115.00,254.50 114.00,254.50 113.00,254.50 112.00,254.50 111.00,254.50 110.00,254.50 109.00,254.50 108.00,254.50 107.00,254.50 106.00,254.50 105.50,254.00 105.00,253.50 104.50,253.00 104.50,252.00 104.50,251.00 104.50,250.00 104.50,249.00 104.50,248.00 104.50,247.00 104.50,246.00 104.50,245.00 104.50,244.00 104.50,243.00 104.50,242.00 104.50,241.00 104.50,240.00 104.50,239.00 104.50,238.00 104.50,237.00 104.50,236.00 104.50,235.00 104.50,234.00 104.50,233.00 104.50,232.00 104.50,231.00 104.50,230.00 104.50,229.00 104.50,228.00 104.50,227.00 104.50,226.00 104.50,225.00 105.00,224.50 105.50,224.00 106.00,223.50 107.00,223.50 108.00,223.50 109.00,223.50 110.00,223.50 111.00,223.50 112.00,223.50 113.00,223.50 114.00,223.50 115.00,223.50 116.00,223.50 117.00,223.50 118.00,223.50 119.00,223.50 120.00,223.50 121.00,223.50 122.00,223.50 123.00,223.50 124.00,223.50 125.00,223.50 126.00,223.50 127.00,223.50 128.00,223.50 129.00,223.50 130.00,223.50 131.00,223.50 132.00,223.50 133.00,223.50 134.00,223.50 135.00,223.50 136.00,223.50 137.00,223.50 137.50,223.00 138.00,222.50 139.00,222.50 140.00,222.50 141.00,222.50 142.00,222.50 142.50,222.00 143.00,221.50 144.00,221.50 145.00,221.50 145.50,221.00 146.00,220.50 147.00,220.50 147.50,220.00 148.00,219.50 149.00,219.50 149.50,219.00 150.00,218.50 151.00,218.50 151.50,218.00 152.00,217.50 152.50,217.00 153.00,216.50 154.00,216.50 154.50,216.00 155.00,215.50 155.50,215.00 156.00,214.50 156.50,214.00 157.00,213.50 157.50,213.00 158.00,212.50 158.50,212.00 159.00,211.50 159.50,211.00 160.00,210.50 160.50,210.00 161.00,209.50 161.50,209.00 162.00,208.50 162.50,208.00 162.50,207.00 163.00,206.50 163.50,206.00 163.50,205.00 164.00,204.50 164.50,204.00 164.50,203.00 165.00,202.50 165.50,202.00 165.50,201.00 166.00,200.50 166.50,200.00 166.50,199.00 166.50,198.00 167.00,197.50 167.50,197.00 167.50,196.00 167.50,195.00 167.50,194.00 168.00,193.50 168.50,193.00 168.50,192.00 168.50,191.00 168.50,190.00 168.50,189.00 168.50,188.00 168.50,187.00 168.50,186.00 168.50,185.00 168.50,184.00 168.50,183.00 168.50,182.00 168.50,181.00 168.50,180.00 168.50,179.00 168.50,178.00 168.50,177.00 168.50,176.00 168.50,175.00 168.50,174.00 168.50,173.00 168.50,172.00 168.50,171.00 168.50,170.00 168.50,169.00 168.50,168.00 168.50,167.00 168.50,166.00 168.50,165.00 168.50,164.00 168.50,163.00 168.50,162.00 168.50,161.00 168.50,160.00 168.50,159.00 168.50,158.00 168.50,157.00 168.50,156.00 168.50,155.00 168.50,154.00 168.50,153.00 168.50,152.00 168.50,151.00 168.50,150.00 168.50,149.00 168.50,148.00 168.50,147.00 168.50,146.00 168.50,145.00 168.50,144.00 168.50,143.00 168.50,142.00 168.50,141.00 168.50,140.00 168.50,139.00 168.50,138.00 168.50,137.00 168.50,136.00 168.50,135.00 168.50,134.00 168.50,133.00 168.50,132.00 168.50,131.00 168.50,130.00 168.50,129.00 168.50,128.00 168.50,127.00 168.50,126.00 168.50,125.00 168.50,124.00 168.50,123.00 168.50,122.00 168.50,121.00 168.50,120.00 168.50,119.00 168.50,118.00 168.50,117.00 168.50,116.00 168.50,115.00 168.50,114.00 168.50,113.00 168.50,112.00 168.50,111.00 168.50,110.00 168.50,109.00 168.50,108.00 168.50,107.00 168.50,106.00 168.50,105.00 168.50,104.00 168.50,103.00 168.50,102.00 168.50,101.00 168.50,100.00 168.50,99.00 168.50,98.00 168.50,97.00 168.50,96.00 168.50,95.00 168.50,94.00 168.50,93.00 168.50,92.00 168.50,91.00 168.50,90.00 168.50,89.00 168.50,88.00 168.50,87.00 168.50,86.00 168.50,85.00 168.50,84.00 168.50,83.00 168.50,82.00 168.50,81.00 168.50,80.00 168.50,79.00 168.50,78.00 168.50,77.00 168.50,76.00 168.50,75.00 168.50,74.00 168.50,73.00 168.50,72.00 168.50,71.00 168.50,70.00 168.50,69.00 168.50,68.00 168.50,67.00 168.50,66.00 168.50,65.00 168.50,64.00 168.50,63.00 168.50,62.00 168.50,61.00 168.50,60.00 168.50,59.00 168.50,58.00 168.50,57.00 168.50,56.00 168.50,55.00 168.50,54.00 168.50,53.00 168.50,52.00 168.50,51.00 168.50,50.00 168.50,49.00 168.50,48.00 168.50,47.00 168.50,46.00 168.50,45.00 168.50,44.00 168.50,43.00 168.50,42.00 168.50,41.00 168.50,40.00 168.50,39.00 168.50,38.00 168.50,37.00 168.50,36.00 168.50,35.00 168.50,34.00 168.50,33.00 168.50,32.00 168.50,31.00 168.50,30.00 168.50,29.00 169.00,28.50 169.50,28.00 170.00,27.50 171.00,27.50 172.00,27.50 173.00,27.50 174.00,27.50 175.00,27.50 176.00,27.50 177.00,27.50 178.00,27.50 179.00,27.50 180.00,27.50 181.00,27.50 182.00,27.50 183.00,27.50 184.00,27.50 185.00,27.50 186.00,27.50 187.00,27.50 188.00,27.50 189.00,27.50 190.00,27.50 191.00,27.50 192.00,27.50 193.00,27.50 194.00,27.50 195.00,27.50 196.00,27.50 197.00,27.50 198.00,27.50 198.50,28.00 199.00,28.50 199.50,29.00 199.50,30.00 199.50,31.00 199.50,32.00 199.50,33.00 199.50,34.00 199.50,35.00 199.50,36.00 199.50,37.00 199.50,38.00 199.50,39.00 199.50,40.00 199.50,41.00 199.50,42.00 199.50,43.00 199.50,44.00 199.50,45.00 199.50,46.00 199.50,47.00 199.50,48.00 199.50,49.00 199.50,50.00 199.50,51.00 199.50,52.00 199.50,53.00 199.50,54.00 199.50,55.00 199.50,56.00 199.50,57.00 199.50,58.00 199.50,59.00 199.50,60.00 199.50,61.00 199.50,62.00 199.50,63.00 199.50,64.00 199.50,65.00 199.50,66.00 199.50,67.00 199.50,68.00 199.50,69.00 199.50,70.00 199.50,71.00 199.50,72.00 199.50,73.00 199.50,74.00 199.50,75.00 199.50,76.00 199.50,77.00 199.50,78.00 199.50,79.00 199.50,80.00 199.50,81.00 199.50,82.00 199.50,83.00 199.50,84.00 199.50,85.00 199.50,86.00 199.50,87.00 199.50,88.00 199.50,89.00 199.50,90.00 199.50,91.00 199.50,92.00 199.50,93.00 199.50,94.00 199.50,95.00 199.50,96.00 199.50,97.00 199.50,98.00 199.50,99.00 199.50,100.00 199.50,101.00 199.50,102.00 199.50,103.00 199.50,104.00 199.50,105.00 199.50,106.00 199.50,107.00 199.50,108.00 199.50,109.00 199.50,110.00 199.50,111.00 199.50,112.00 199.50,113.00 199.50,114.00 199.50,115.00 199.50,116.00 199.50,117.00 199.50,118.00 199.50,119.00 199.50,120.00 199.50,121.00 199.50,122.00 199.50,123.00 199.50,124.00 199.50,125.00 199.50,126.00 199.50,127.00 199.50,128.00 199.50,129.00 199.50,130.00 199.50,131.00 199.50,132.00 199.50,133.00 199.50,134.00 199.50,135.00 199.50,136.00 199.50,137.00 199.50,138.00 199.50,139.00 199.50,140.00 199.50,141.00 199.50,142.00 199.50,143.00 199.50,144.00 199.50,145.00 199.50,146.00 199.50,147.00 199.50,148.00 199.50,149.00 199.50,150.00 199.50,151.00 199.50,152.00 199.50,153.00 199.50,154.00 199.50,155.00 199.50,156.00 199.50,157.00 199.50,158.00 199.50,159.00 199.50,160.00 199.50,161.00 199.50,162.00 199.50,163.00 199.50,164.00 199.50,165.00 199.50,166.00 199.50,167.00 199.50,168.00 199.50,169.00 199.50,170.00 199.50,171.00 199.50,172.00 199.50,173.00 199.50,174.00 199.50,175.00 199.50,176.00 199.50,177.00 199.50,178.00 199.50,179.00 199.50,180.00 199.50,181.00 199.50,182.00 199.50,183.00 199.50,184.00 199.50,185.00 199.50,186.00 199.50,187.00 199.50,188.00 199.50,189.00 199.50,190.00 199.50,191.00 199.50,192.00 199.50,193.00 199.50,194.00 199.50,195.00 199.50,196.00 199.50,197.00 199.50,198.00 199.50,199.00 199.50,200.00 199.50,201.00 199.50,202.00 199.50,203.00 199.50,204.00 199.50,205.00 199.50,206.00 199.50,207.00 199.50,208.00 199.50,209.00 199.00,209.50 198.50,210.00 198.50,211.00 198.50,212.00 198.50,213.00 198.00,213.50 197.50,214.00 197.50,215.00 197.50,216.00 197.00,216.50 196.50,217.00 196.50,218.00 196.50,219.00 196.00,219.50 195.50,220.00 195.50,221.00 195.00,221.50 194.50,222.00 194.50,223.00 194.00,223.50 193.50,224.00 193.50,225.00 193.00,225.50 192.50,226.00 192.50,227.00 192.00,227.50 191.50,228.00 191.50,229.00 191.00,229.50 190.50,230.00 190.00,230.50 189.50,231.00 189.50,232.00 189.00,232.50 188.50,233.00 188.00,233.50 187.50,234.00 187.00,234.50 186.50,235.00 186.00,235.50 185.50,236.00 185.00,236.50 184.50,237.00 184.00,237.50 183.50,238.00 183.00,238.50 182.50,239.00 182.00,239.50 181.50,240.00 181.00,240.50 180.50,241.00 180.00,241.50 179.50,242.00 179.00,242.50 178.50,243.00 178.00,243.50 177.50,244.00 177.00,244.50 176.00,244.50 175.50,245.00 175.00,245.50 174.50,246.00 174.00,246.50 173.00,246.50 172.50,247.00 172.00,247.50 171.00,247.50 170.50,248.00 170.00,248.50 169.00,248.50 168.50,249.00 168.00,249.50 167.00,249.50 166.50,250.00 166.00,250.50 165.00,250.50 164.50,251.00 164.00,251.50 163.00,251.50 162.00,251.50 161.50,252.00 161.00,252.50 160.00,252.50 159.00,252.50 158.50,253.00 158.00,253.50 157.00,253.50 156.00,253.50 155.00,253.50 154.00,253.50 153.50,254.00 153.00,254.50" />
<polyline fill="none" stroke="#09f" stroke-width="1" points="184.00,44.00 184.00,45.00 184.00,46.00 184.00,47.00 184.00,48.00 184.00,49.00 184.00,50.00 184.00,51.00 184.00,52.00 184.00,53.00 184.00,54.00 184.00,55.00 184.00,56.00 184.00,57.00 184.00,58.00 184.00,59.00 184.00,60.00 184.00,61.00 184.00,62.00 184.00,63.00 184.00,64.00 184.00,65.00 184.00,66.00 184.00,67.00 184.00,68.00 184.00,69.00 184.00,70.00 184.00,71.00 184.00,72.00 184.00,73.00 184.00,74.00 184.00,75.00 184.00,76.00 184.00,77.00 184.00,78.00 184.00,79.00 184.00,80.00 184.00,81.00 184.00,82.00 184.00,83.00 184.00,84.00 184.00,85.00 184.00,86.00 184.00,87.00 184.00,88.00 184.00,89.00 184.00,90.00 184.00,91.00 184.00,92.00 184.00,93.00 184.00,94.00 184.00,95.00 184.00,96.00 184.00,97.00 184.00,98.00 184.00,99.00 184.00,100.00 184.00,101.00 184.00,102.00 184.00,103.00 184.00,104.00 184.00,105.00 184.00,106.00 184.00,107.00 184.00,108.00 184.00,109.00 184.00,110.00 184.00,111.00 184.00,112.00 184.00,113.00 184.00,114.00 184.00,115.00 184.00,116.00 184.00,117.00 184.00,118.00 184.00,119.00 184.00,120.00 184.00,121.00 184.00,122.00 184.00,123.00 184.00,124.00 184.00,125.00 184.00,126.00 184.00,127.00 184.00,128.00 184.00,129.00 184.00,130.00 184.00,131.00 184.00,132.00 184.00,133.00 184.00,134.00 184.00,135.00 184.00,136.00 184.00,137.00 184.00,138.00 184.00,139.00 184.00,140.00 184.00,141.00 184.00,142.00 184.00,143.00 184.00,144.00 184.00,145.00 184.00,146.00 184.00,147.00 184.00,148.00 184.00,149.00 184.00,150.00 184.00,151.00 184.00,152.00 184.00,153.00 184.00,154.00 184.00,155.00 184.00,156.00 184.00,157.00 184.00,158.00 184.00,159.00 184.00,160.00 184.00,161.00 184.00,162.00 184.00,163.00 184.00,164.00 184.00,165.00 184.00,166.00 184.00,167.00 184.00,168.00 184.00,169.00 184.00,170.00 184.00,171.00 184.00,172.00 184.00,173.00 184.00,174.00 184.00,175.00 184.00,176.00 184.00,177.00 184.00,178.00 184.00,179.00 184.00,180.00 184.00,181.00 184.00,182.00 184.00,183.00 184.00,184.00 184.00,185.00 184.00,186.00 184.00,187.00 184.00,188.00 184.00,189.00 184.00,190.00 184.00,191.00 184.00,192.00 184.00,193.00 184.00,194.00 183.00,195.00 183.00,196.00 183.00,197.00 183.00,198.00 183.00,199.00 183.00,200.00 183.00,201.00 183.00,202.00 182.00,203.00 182.00,204.00 182.00,205.00 182.00,206.00 182.00,207.00 181.00,208.00 181.00,209.00 181.00,210.00 180.00,211.00 180.00,212.00 179.00,213.00 179.00,214.00 178.00,215.00 178.00,216.00 177.00,217.00 176.00,218.00 176.00,219.00 175.00,220.00 175.00,221.00 174.00,222.00 173.00,223.00 172.00,224.00 171.00,225.00 170.00,226.00 169.00,227.00 168.00,228.00 167.00,229.00 166.00,230.00 165.00,231.00 164.00,231.00 163.00,232.00 162.00,232.00 161.00,233.00 160.00,233.00 159.00,234.00 158.00,234.00 157.00,235.00 156.00,235.00 155.00,236.00 154.00,236.00 153.00,236.00 152.00,236.00 151.00,237.00 150.00,237.00 149.00,237.00 148.00,237.00 147.00,238.00 146.00,238.00 145.00,238.00 144.00,238.00 143.00,238.00 142.00,238.00 141.00,238.00 140.00,238.00 139.00,238.00 138.00,239.00 137.00,239.00 136.00,239.00 135.00,239.00 134.00,239.00 133.00,239.00 132.00,239.00 131.00,239.00 130.00,239.00 129.00,239.00 128.00,239.00 127.00,239.00 126.00,239.00 125.00,239.00 124.00,239.00 123.00,239.00 122.00,239.00 121.00,239.00 120.00,239.00" />
<circle cx="184.00" cy="44.00" r="2.00" fill="none" stroke="#09f" stroke-width="1"/>
<circle cx="120.00" cy="239.00" r="2.00" fill="none" stroke="#09f" stroke-width="1"/>
<polyline fill="none" stroke="#09f" stroke-width="1" points="98.00,45.00 98.00,46.00 98.00,47.00 98.00,48.00 98.00,49.00 98.00,50.00 98.00,51.00 98.00,52.00 98.00,53.00 98.00,54.00 98.00,55.00 98.00,56.00 98.00,57.00 98.00,58.00 98.00,59.00 98.00,60.00 98.00,61.00 98.00,62.00 98.00,63.00 98.00,64.00 98.00,65.00 98.00,66.00 98.00,67.00 98.00,68.00 98.00,69.00 98.00,70.00 98.00,71.00 98.00,72.00 98.00,73.00 98.00,74.00 98.00,75.00 98.00,76.00 98.00,77.00 98.00,78.00 98.00,79.00 98.00,80.00 98.00,81.00 98.00,82.00 98.00,83.00 98.00,84.00 98.00,85.00 98.00,86.00 98.00,87.00 98.00,88.00 98.00,89.00 98.00,90.00 98.00,91.00 98.00,92.00 98.00,93.00 98.00,94.00 98.00,95.00 98.00,96.00 98.00,97.00 98.00,98.00 98.00,99.00 98.00,100.00 98.00,101.00 98.00,102.00 98.00,103.00 98.00,104.00 98.00,105.00 98.00,106.00 98.00,107.00 98.00,108.00 98.00,109.00 98.00,110.00 98.00,111.00 98.00,112.00 98.00,113.00 98.00,114.00 98.00,115.00 98.00,116.00 98.00,117.00 98.00,118.00 98.00,119.00 98.00,120.00 98.00,121.00 98.00,122.00 98.00,123.00 98.00,124.00 98.00,125.00 98.00,126.00 98.00,127.00" />
<circle cx="98.00" cy="45.00" r="2.00" fill="none" stroke="#09f" stroke-width="1"/>
<circle cx="98.00" cy="127.00" r="2.00" fill="none" stroke="#09f" stroke-width="1"/>
</svg>