<svg xmlns="http://www.w3.org/2000/svg" width="500" height="500" viewBox="0 0 500 500">
<g fill="none" stroke="red" stroke-width="1">
<path d="M 88 121 L 89 121 L 90 121 L 91 121 L 92 121 L 93 121 L 94 121 L 95 121 L 96 121 L 97 121 L 98 121 L 99 121 L 100 121 L 101 121 L 102 121 L 103 121 L 104 121 L 105 121 L 106 121 L 107 121 L 108 121 L 109 121 L 110 121 L 111 121 L 112 121 L 113 121 L 114 121 L 115 121 L 116 121 L 117 121 L 118 121 L 119 121 L 120 121 L 121 121 L 122 121 L 123 121 L 124 121 L 125 121 L 126 121 L 127 121 L 128 121 L 129 121 L 130 121 L 131 121 L 132 121 L 133 121 L 134 121 L 135 121 L 136 121 L 137 121 L 138 121 L 139 121 L 140 121 L 141 121 L 142 121 L 143 121 L 144 121 L 145 121 L 146 121 L 147 121 L 148 121 L 149 121 L 150 121 L 151 121 L 152 121 L 153 121 L 154 121 L 155 121 L 156 121 L 157 121 L 158 121 L 159 121 L 160 121 L 161 121 L 162 121 L 163 121 L 164 121 L 165 121 L 166 121 L 167 121 L 168 121 L 169 121 L 170 121 L 171 121 L 172 121 L 173 121 L 174 121 L 175 121 L 176 121 L 177 121 L 178 121 L 179 121 L 180 121 L 181 121 L 182 121 L 183 121 L 184 121 L 185 121 L 186 121 L 187 121 L 188 121 L 189 121 L 190 121 L 191 121 L 192 121 L 193 121 L 194 121 L 195 121 L 196 121 L 197 121 L 198 121 L 199 121 L 200 121 L 201 121 L 202 121 L 203 121 L 204 121 L 205 121 L 206 121 L 207 121 L 208 121 L 209 121 L 210 121 L 211 121 L 212 121 L 213 121 L 214 121 L 215 121 L 216 121 L 217 121 L 218 121 L 219 121 L 220 121 L 221 121 L 222 121 L 223 121 L 224 121 L 225 121 L 226 121 L 227 121 L 228 121 L 229 121 L 230 121 L 231 121 L 232 121 L 233 121 L 234 121 L 235 121 L 236 121 L 237 121 L 238 121 L 239 121 L 240 121 L 241 121 L 242 121 L 243 121 L 244 121 L 245 121 L 246 121 L 247 121 L 248 121 L 249 121 L 250 121 L 251 121 L 252 121 L 253 121 L 254 121 L 255 121 L 256 121 L 257 121 L 258 121 L 259 121 L 260 121 L 261 121 L 262 121 L 263 121 L 264 121 L 265 121 L 266 121 L 267 121 L 268 121 L 269 121 L 270 121 L 271 121 L 272 121 L 273 121 L 274 121 L 275 121 L 276 121 L 277 121 L 278 121 L 279 121 L 280 121 L 281 121 L 282 121 L 283 121 L 284 121 L 285 121 L 286 121 L 287 121 L 288 121 L 289 121 L 290 121 L 291 121 L 292 121 L 293 121 L 294 121 L 295 121 L 296 121 L 297 121 L 298 121 L 299 121 L 300 121 L 301 121 L 302 121 L 303 121 L 304 121 L 305 121 L 306 121 L 307 121 L 308 121 L 309 121 L 310 121 L 311 121 L 312 121 L 313 121 L 314 121 L 315 121 L 316 121 L 317 121 L 318 121 L 319 121 L 320 121 L 321 121 L 322 121 L 323 121 L 324 121 L 325 121 L 326 121 L 327 121 L 328 121 L 329 121 L 330 121 L 331 121 L 332 121 L 333 121 L 334 121 L 335 121 L 336 121 L 337 121 L 338 121 L 339 121 L 340 121 L 341 121 L 342 121 L 343 121 L 344 121 L 345 121 L 346 121 L 347 121 L 348 121 L 349 121 L 350 121 L 351 121 L 352 121 L 353 121 L 354 121 L 355 121 L 356 121 L 357 121 L 358 121 L 359 121 L 360 121 L 361 121 L 362 121 L 363 121 L 364 121 L 365 121 L 366 121 L 367 121 L 368 121 L 369 121 L 370 121 L 371 121 L 372 121 L 373 121 L 374 121 L 375 121 L 376 121 L 377 121 L 378 121 L 379 121 L 380 121 L 381 121 L 382 121 L 383 121 L 384 121 L 385 121 L 386 121 L 387 121 L 388 121 L 389 121 L 390 121 L 391 121 L 392 121 L 393 121 L 394 121 L 395 121 L 395 122 L 396 123 L 397 124 L 397 125 L 398 126 L 399 127 L 399 128 L 400 129 L 401 130 L 401 131 L 402 132 L 402 133 L 403 134 L 404 135 L 404 136 L 405 137 L 406 138 L 406 139 L 407 140 L 408 141 L 408 142 L 409 143 L 409 144 L 410 145 L 411 146 L 411 147 L 412 148 L 413 149 L 413 150 L 414 151 L 415 152 L 415 153 L 416 154 L 416 155 L 417 156 L 418 157 L 418 158 L 419 159 L 420 160 L 420 161 L 421 162 L 422 163 L 422 164 L 423 165 L 423 166 L 424 167 L 425 168 L 425 169 L 426 170 L 427 171 L 427 172 L 428 173 L 429 174 L 429 175 L 430 176 L 430 177 L 431 178 L 432 179 L 432 180 L 433 181 L 434 182 L 434 183 L 435 184 L 436 185 L 436 186 L 435 186 L 434 186 L 433 186 L 432 186 L 431 186 L 430 186 L 429 186 L 428 186 L 427 186 L 426 186 L 425 186 L 424 186 L 423 186 L 422 186 L 421 186 L 420 186 L 419 186 L 418 186 L 417 186 L 416 186 L 415 186 L 414 186 L 413 186 L 412 186 L 411 186 L 410 186 L 409 186 L 408 186 L 407 186 L 406 186 L 405 186 L 404 186 L 403 186 L 402 186 L 401 186 L 400 186 L 399 186 L 398 186 L 397 186 L 396 186 L 395 186 L 394 186 L 393 187 L 392 188 L 392 189 L 392 190 L 392 191 L 392 192 L 392 193 L 392 194 L 392 195 L 392 196 L 392 197 L 392 198 L 392 199 L 392 200 L 392 201 L 392 202 L 392 203 L 392 204 L 392 205 L 392 206 L 392 207 L 392 208 L 392 209 L 392 210 L 392 211 L 392 212 L 392 213 L 392 214 L 392 215 L 392 216 L 392 217 L 392 218 L 392 219 L 392 220 L 392 221 L 392 222 L 392 223 L 392 224 L 392 225 L 392 226 L 392 227 L 392 228 L 392 229 L 392 230 L 392 231 L 392 232 L 392 233 L 392 234 L 392 235 L 392 236 L 392 237 L 392 238 L 392 239 L 392 240 L 392 241 L 392 242 L 392 243 L 392 244 L 392 245 L 392 246 L 392 247 L 392 248 L 392 249 L 392 250 L 392 251 L 392 252 L 392 253 L 392 254 L 392 255 L 392 256 L 392 257 L 392 258 L 392 259 L 392 260 L 392 261 L 392 262 L 392 263 L 392 264 L 392 265 L 392 266 L 392 267 L 392 268 L 392 269 L 392 270 L 392 271 L 392 272 L 392 273 L 392 274 L 392 275 L 392 276 L 392 277 L 392 278 L 392 279 L 392 280 L 392 281 L 392 282 L 392 283 L 392 284 L 392 285 L 392 286 L 392 287 L 392 288 L 392 289 L 392 290 L 392 291 L 392 292 L 392 293 L 392 294 L 392 295 L 392 296 L 392 297 L 392 298 L 392 299 L 392 300 L 392 301 L 392 302 L 392 303 L 392 304 L 392 305 L 392 306 L 392 307 L 392 308 L 392 309 L 392 310 L 392 311 L 392 312 L 392 313 L 392 314 L 392 315 L 392 316 L 392 317 L 392 318 L 392 319 L 392 320 L 392 321 L 392 322 L 392 323 L 392 324 L 392 325 L 392 326 L 392 327 L 392 328 L 392 329 L 392 330 L 392 331 L 392 332 L 392 333 L 392 334 L 392 335 L 392 336 L 392 337 L 392 338 L 392 339 L 392 340 L 392 341 L 392 342 L 392 343 L 392 344 L 392 345 L 392 346 L 392 347 L 392 348 L 392 349 L 392 350 L 392 351 L 392 352 L 392 353 L 392 354 L 392 355 L 392 356 L 392 357 L 392 358 L 392 359 L 392 360 L 392 361 L 392 362 L 392 363 L 392 364 L 392 365 L 392 366 L 392 367 L 392 368 L 392 369 L 392 370 L 392 371 L 392 372 L 392 373 L 392 374 L 392 375 L 392 376 L 392 377 L 392 378 L 391 378 L 390 378 L 389 378 L 388 378 L 387 378 L 386 378 L 385 378 L 384 378 L 383 378 L 382 378 L 381 378 L 380 378 L 379 378 L 378 378 L 377 378 L 376 378 L 375 378 L 374 378 L 373 378 L 372 378 L 371 378 L 370 378 L 369 378 L 368 378 L 367 378 L 366 378 L 365 378 L 364 378 L 363 378 L 362 378 L 361 378 L 360 378 L 359 378 L 358 378 L 357 378 L 356 378 L 355 378 L 354 378 L 353 378 L 352 378 L 351 378 L 350 378 L 349 378 L 348 378 L 347 378 L 346 378 L 345 378 L 344 378 L 343 378 L 342 378 L 341 378 L 340 378 L 339 378 L 338 378 L 337 378 L 336 378 L 335 378 L 334 378 L 333 378 L 332 378 L 331 378 L 330 378 L 329 378 L 328 378 L 327 378 L 326 378 L 325 378 L 324 378 L 323 378 L 322 378 L 321 378 L 320 378 L 319 378 L 318 378 L 317 378 L 316 378 L 315 378 L 314 378 L 313 378 L 312 378 L 311 378 L 310 378 L 309 378 L 308 378 L 307 378 L 306 378 L 305 378 L 304 378 L 303 378 L 302 378 L 301 378 L 300 378 L 299 378 L 298 378 L 297 378 L 296 378 L 295 378 L 294 378 L 293 378 L 292 378 L 291 378 L 290 378 L 289 378 L 288 378 L 287 378 L 286 378 L 285 378 L 284 378 L 283 378 L 282 378 L 281 378 L 280 378 L 279 378 L 278 378 L 277 378 L 276 378 L 275 378 L 274 378 L 273 378 L 272 378 L 271 378 L 270 378 L 269 378 L 268 378 L 267 378 L 266 378 L 265 378 L 264 378 L 263 378 L 262 378 L 261 378 L 260 378 L 259 378 L 258 378 L 257 378 L 256 378 L 255 378 L 254 378 L 253 378 L 252 378 L 251 378 L 250 378 L 249 378 L 248 378 L 247 378 L 246 378 L 245 378 L 244 378 L 243 378 L 242 378 L 241 378 L 240 378 L 239 378 L 238 378 L 237 378 L 236 378 L 235 378 L 234 378 L 233 378 L 232 378 L 231 378 L 230 378 L 229 378 L 228 378 L 227 378 L 226 378 L 225 378 L 224 378 L 223 378 L 222 378 L 221 378 L 220 378 L 219 378 L 218 378 L 217 378 L 216 378 L 215 378 L 214 378 L 213 378 L 212 378 L 211 378 L 210 378 L 209 378 L 208 378 L 207 378 L 206 378 L 205 378 L 204 378 L 203 378 L 202 378 L 201 378 L 200 378 L 199 378 L 198 378 L 197 378 L 196 378 L 195 378 L 194 378 L 193 378 L 192 378 L 191 378 L 190 378 L 189 378 L 188 378 L 187 378 L 186 378 L 185 378 L 184 378 L 183 378 L 182 378 L 181 378 L 180 378 L 179 378 L 178 378 L 177 378 L 176 378 L 175 378 L 174 378 L 173 378 L 172 378 L 171 378 L 170 378 L 169 378 L 168 378 L 167 378 L 166 378 L 165 378 L 164 378 L 163 378 L 162 378 L 161 378 L 160 378 L 159 378 L 158 378 L 157 378 L 156 378 L 155 378 L 154 378 L 153 378 L 152 378 L 151 378 L 150 378 L 149 378 L 148 378 L 147 378 L 146 378 L 145 378 L 144 378 L 143 378 L 142 378 L 141 378 L 140 378 L 139 378 L 138 378 L 137 378 L 136 378 L 135 378 L 134 378 L 133 378 L 132 378 L 131 378 L 130 378 L 129 378 L 128 378 L 127 378 L 126 378 L 125 378 L 124 378 L 123 378 L 122 378 L 121 378 L 120 378 L 119 378 L 118 378 L 117 378 L 116 378 L 115 378 L 114 378 L 113 378 L 112 378 L 111 378 L 110 378 L 109 378 L 108 378 L 107 378 L 106 378 L 105 378 L 104 378 L 103 378 L 102 378 L 101 378 L 100 378 L 99 378 L 98 378 L 97 378 L 96 378 L 95 378 L 94 378 L 93 378 L 92 378 L 91 378 L 90 378 L 90 377 L 90 376 L 90 375 L 90 374 L 90 373 L 90 372 L 90 371 L 90 370 L 90 369 L 90 368 L 90 367 L 90 366 L 90 365 L 90 364 L 90 363 L 90 362 L 90 361 L 90 360 L 90 359 L 90 358 L 90 357 L 90 356 L 90 355 L 90 354 L 90 353 L 90 352 L 90 351 L 90 350 L 90 349 L 90 348 L 90 347 L 90 346 L 90 345 L 90 344 L 90 343 L 90 342 L 90 341 L 90 340 L 90 339 L 90 338 L 90 337 L 90 336 L 90 335 L 90 334 L 90 333 L 90 332 L 90 331 L 90 330 L 90 329 L 90 328 L 90 327 L 90 326 L 90 325 L 90 324 L 90 323 L 90 322 L 90 321 L 90 320 L 90 319 L 90 318 L 90 317 L 90 316 L 90 315 L 90 314 L 90 313 L 90 312 L 90 311 L 90 310 L 90 309 L 90 308 L 90 307 L 90 306 L 90 305 L 90 304 L 90 303 L 90 302 L 90 301 L 90 300 L 90 299 L 90 298 L 90 297 L 90 296 L 90 295 L 90 294 L 90 293 L 90 292 L 90 291 L 90 290 L 90 289 L 90 288 L 90 287 L 90 286 L 90 285 L 90 284 L 90 283 L 90 282 L 90 281 L 90 280 L 90 279 L 90 278 L 90 277 L 90 276 L 90 275 L 90 274 L 90 273 L 90 272 L 90 271 L 90 270 L 90 269 L 90 268 L 90 267 L 90 266 L 90 265 L 90 264 L 90 263 L 90 262 L 90 261 L 90 260 L 90 259 L 90 258 L 90 257 L 90 256 L 90 255 L 90 254 L 90 253 L 90 252 L 90 251 L 90 250 L 90 249 L 90 248 L 90 247 L 90 246 L 90 245 L 90 244 L 90 243 L 90 242 L 90 241 L 90 240 L 90 239 L 90 238 L 90 237 L 90 236 L 90 235 L 90 234 L 90 233 L 90 232 L 90 231 L 90 230 L 90 229 L 90 228 L 90 227 L 90 226 L 90 225 L 90 224 L 90 223 L 90 222 L 90 221 L 90 220 L 90 219 L 90 218 L 90 217 L 90 216 L 90 215 L 90 214 L 90 213 L 90 212 L 90 211 L 90 210 L 90 209 L 90 208 L 90 207 L 90 206 L 90 205 L 90 204 L 90 203 L 90 202 L 90 201 L 90 200 L 90 199 L 90 198 L 90 197 L 90 196 L 90 195 L 90 194 L 90 193 L 90 192 L 90 191 L 90 190 L 90 189 L 90 188 L 90 187 L 89 186 L 88 186 L 87 186 L 86 186 L 85 186 L 84 186 L 83 186 L 82 186 L 81 186 L 80 186 L 79 186 L 78 186 L 77 186 L 76 186 L 75 186 L 74 186 L 73 186 L 72 186 L 71 186 L 70 186 L 69 186 L 68 186 L 67 186 L 66 186 L 65 186 L 64 186 L 63 186 L 62 186 L 61 186 L 60 186 L 59 186 L 58 186 L 57 186 L 56 186 L 55 186 L 54 186 L 53 186 L 52 186 L 51 186 L 50 186 L 49 186 L 48 186 L 47 186 L 47 185 L 48 184 L 48 183 L 49 182 L 50 181 L 50 180 L 51 179 L 52 178 L 52 177 L 53 176 L 54 175 L 54 174 L 55 173 L 55 172 L 56 171 L 57 170 L 57 169 L 58 168 L 59 167 L 59 166 L 60 165 L 61 164 L 61 163 L 62 162 L 62 161 L 63 160 L 64 159 L 64 158 L 65 157 L 66 156 L 66 155 L 67 154 L 68 153 L 68 152 L 69 151 L 69 150 L 70 149 L 71 148 L 71 147 L 72 146 L 73 145 L 73 144 L 74 143 L 75 142 L 75 141 L 76 140 L 76 139 L 77 138 L 78 137 L 78 136 L 79 135 L 80 134 L 80 133 L 81 132 L 82 131 L 82 130 L 83 129 L 83 128 L 84 127 L 85 126 L 85 125 L 86 124 L 87 123 L 87 122 Z" />
<path d="M 140 210 L 141 210 L 142 210 L 143 210 L 144 210 L 145 210 L 146 210 L 147 210 L 148 210 L 149 210 L 150 210 L 151 210 L 152 210 L 153 210 L 154 210 L 155 210 L 156 210 L 157 210 L 158 210 L 159 210 L 160 210 L 161 210 L 162 210 L 163 210 L 164 210 L 165 210 L 166 210 L 167 210 L 168 210 L 169 210 L 170 210 L 171 210 L 172 210 L 173 210 L 174 210 L 175 210 L 176 210 L 177 210 L 178 210 L 179 210 L 180 210 L 181 210 L 182 210 L 183 210 L 184 210 L 185 210 L 186 210 L 187 210 L 188 210 L 189 210 L 190 210 L 191 210 L 192 210 L 193 210 L 194 210 L 195 210 L 196 210 L 197 210 L 198 210 L 198 211 L 198 212 L 198 213 L 198 214 L 198 215 L 198 216 L 198 217 L 198 218 L 198 219 L 198 220 L 198 221 L 198 222 L 198 223 L 198 224 L 198 225 L 198 226 L 198 227 L 198 228 L 198 229 L 198 230 L 198 231 L 198 232 L 198 233 L 198 234 L 198 235 L 198 236 L 198 237 L 198 238 L 198 239 L 198 240 L 198 241 L 198 242 L 198 243 L 198 244 L 198 245 L 198 246 L 198 247 L 198 248 L 198 249 L 198 250 L 198 251 L 198 252 L 198 253 L 198 254 L 198 255 L 198 256 L 198 257 L 198 258 L 198 259 L 198 260 L 198 261 L 198 262 L 198 263 L 198 264 L 198 265 L 198 266 L 198 267 L 198 268 L 198 269 L 198 270 L 198 271 L 198 272 L 198 273 L 198 274 L 198 275 L 198 276 L 198 277 L 198 278 L 198 279 L 198 280 L 198 281 L 198 282 L 198 283 L 198 284 L 198 285 L 198 286 L 198 287 L 198 288 L 198 289 L 198 290 L 198 291 L 198 292 L 198 293 L 197 293 L 196 293 L 195 293 L 194 293 L 193 293 L 192 293 L 191 293 L 190 293 L 189 293 L 188 293 L 187 293 L 186 293 L 185 293 L 184 293 L 183 293 L 182 293 L 181 293 L 180 293 L 179 293 L 178 293 L 177 293 L 176 293 L 175 293 L 174 293 L 173 293 L 172 293 L 171 293 L 170 293 L 169 293 L 168 293 L 167 293 L 166 293 L 165 293 L 164 293 L 163 293 L 162 293 L 161 293 L 160 293 L 159 293 L 158 293 L 157 293 L 156 293 L 155 293 L 154 293 L 153 293 L 152 293 L 151 293 L 150 293 L 149 293 L 148 293 L 147 293 L 146 293 L 145 293 L 144 293 L 143 293 L 142 293 L 141 293 L 140 293 L 140 292 L 140 291 L 140 290 L 140 289 L 140 288 L 140 287 L 140 286 L 140 285 L 140 284 L 140 283 L 140 282 L 140 281 L 140 280 L 140 279 L 140 278 L 140 277 L 140 276 L 140 275 L 140 274 L 140 273 L 140 272 L 140 271 L 140 270 L 140 269 L 140 268 L 140 267 L 140 266 L 140 265 L 140 264 L 140 263 L 140 262 L 140 261 L 140 260 L 140 259 L 140 258 L 140 257 L 140 256 L 140 255 L 140 254 L 140 253 L 140 252 L 140 251 L 140 250 L 140 249 L 140 248 L 140 247 L 140 246 L 140 245 L 140 244 L 140 243 L 140 242 L 140 241 L 140 240 L 140 239 L 140 238 L 140 237 L 140 236 L 140 235 L 140 234 L 140 233 L 140 232 L 140 231 L 140 230 L 140 229 L 140 228 L 140 227 L 140 226 L 140 225 L 140 224 L 140 223 L 140 222 L 140 221 L 140 220 L 140 219 L 140 218 L 140 217 L 140 216 L 140 215 L 140 214 L 140 213 L 140 212 L 140 211 Z" />
<path d="M 279 232 L 280 232 L 281 232 L 282 232 L 283 232 L 284 232 L 285 232 L 286 232 L 287 232 L 288 232 L 289 232 L 290 232 L 291 232 L 292 232 L 293 232 L 294 232 L 295 232 L 296 232 L 297 232 L 298 232 L 299 232 L 300 232 L 301 232 L 302 232 L 303 232 L 304 232 L 305 232 L 306 232 L 307 232 L 308 232 L 309 232 L 310 232 L 311 232 L 312 232 L 313 232 L 314 232 L 315 232 L 316 232 L 317 232 L 318 232 L 319 232 L 320 233 L 321 233 L 322 234 L 323 235 L 324 236 L 325 237 L 326 238 L 326 239 L 327 240 L 327 241 L 327 242 L 328 243 L 328 244 L 328 245 L 328 246 L 328 247 L 328 248 L 328 249 L 328 250 L 328 251 L 328 252 L 328 253 L 328 254 L 328 255 L 328 256 L 328 257 L 328 258 L 328 259 L 328 260 L 328 261 L 328 262 L 328 263 L 328 264 L 328 265 L 328 266 L 328 267 L 328 268 L 328 269 L 328 270 L 328 271 L 328 272 L 328 273 L 328 274 L 328 275 L 328 276 L 328 277 L 328 278 L 328 279 L 328 280 L 328 281 L 328 282 L 328 283 L 328 284 L 328 285 L 328 286 L 328 287 L 328 288 L 328 289 L 328 290 L 328 291 L 328 292 L 328 293 L 328 294 L 328 295 L 328 296 L 328 297 L 328 298 L 328 299 L 328 300 L 328 301 L 328 302 L 328 303 L 328 304 L 328 305 L 328 306 L 328 307 L 328 308 L 328 309 L 328 310 L 328 311 L 328 312 L 328 313 L 328 314 L 328 315 L 328 316 L 328 317 L 328 318 L 328 319 L 328 320 L 328 321 L 328 322 L 328 323 L 328 324 L 328 325 L 328 326 L 328 327 L 328 328 L 328 329 L 328 330 L 328 331 L 328 332 L 328 333 L 328 334 L 328 335 L 328 336 L 328 337 L 328 338 L 328 339 L 328 340 L 328 341 L 328 342 L 328 343 L 328 344 L 328 345 L 328 346 L 328 347 L 328 348 L 328 349 L 328 350 L 328 351 L 328 352 L 327 353 L 326 353 L 325 353 L 324 353 L 323 353 L 322 353 L 321 353 L 320 353 L 319 353 L 318 353 L 317 353 L 316 353 L 315 353 L 314 353 L 313 353 L 312 353 L 311 353 L 310 353 L 309 353 L 308 353 L 307 353 L 306 353 L 305 353 L 304 353 L 303 353 L 302 353 L 301 353 L 300 353 L 299 353 L 298 353 L 297 353 L 296 353 L 295 353 L 294 353 L 293 353 L 292 353 L 291 353 L 290 353 L 289 353 L 288 353 L 287 353 L 286 353 L 285 353 L 284 353 L 283 353 L 282 353 L 281 353 L 280 353 L 279 353 L 278 353 L 277 353 L 276 353 L 275 353 L 274 353 L 273 353 L 272 353 L 271 353 L 270 353 L 270 352 L 270 351 L 270 350 L 270 349 L 270 348 L 270 347 L 270 346 L 270 345 L 270 344 L 270 343 L 270 342 L 270 341 L 270 340 L 270 339 L 270 338 L 270 337 L 270 336 L 270 335 L 270 334 L 270 333 L 270 332 L 270 331 L 270 330 L 270 329 L 270 328 L 270 327 L 270 326 L 270 325 L 270 324 L 270 323 L 270 322 L 270 321 L 270 320 L 270 319 L 270 318 L 270 317 L 270 316 L 270 315 L 270 314 L 270 313 L 270 312 L 270 311 L 270 310 L 270 309 L 270 308 L 270 307 L 270 306 L 270 305 L 270 304 L 270 303 L 270 302 L 270 301 L 270 300 L 270 299 L 270 298 L 270 297 L 270 296 L 270 295 L 270 294 L 270 293 L 270 292 L 270 291 L 270 290 L 270 289 L 270 288 L 270 287 L 270 286 L 270 285 L 270 284 L 270 283 L 270 282 L 270 281 L 270 280 L 270 279 L 270 278 L 270 277 L 270 276 L 270 275 L 270 274 L 270 273 L 270 272 L 270 271 L 270 270 L 270 269 L 270 268 L 270 267 L 270 266 L 270 265 L 270 264 L 270 263 L 270 262 L 270 261 L 270 260 L 270 259 L 270 258 L 270 257 L 270 256 L 270 255 L 270 254 L 270 253 L 270 252 L 270 251 L 270 250 L 270 249 L 270 248 L 270 247 L 270 246 L 270 245 L 270 244 L 270 243 L 270 242 L 270 241 L 270 240 L 271 239 L 271 238 L 272 237 L 273 236 L 274 235 L 275 234 L 276 233 L 277 233 L 278 233 Z" />
</g></svg>